%FSLAX34Y34*%
G04 Gerber Fmt 3.4, Leading zero omitted, Abs format*
G04 (created by PCBNEW (2014-06-12 BZR 4942)-product) date Mon 16 Jun 2014 05:41:22 PM PDT*
%MOIN*%
G01*
G70*
G90*
G04 APERTURE LIST*
%ADD10C,0.003937*%
%ADD11R,0.285000X0.285000*%
%ADD12O,0.049213X0.037402*%
%ADD13R,0.068000X0.068000*%
%ADD14O,0.068000X0.068000*%
%ADD15R,0.080000X0.080000*%
%ADD16O,0.080000X0.080000*%
%ADD17C,0.015748*%
%ADD18C,0.010000*%
G04 APERTURE END LIST*
G54D10*
G54D11*
X63543Y-21929D03*
G54D12*
X51870Y-31791D03*
X53838Y-31791D03*
G54D10*
G36*
X51948Y-32549D02*
X51948Y-33159D01*
X51161Y-33159D01*
X51161Y-32549D01*
X51948Y-32549D01*
X51948Y-32549D01*
G37*
G36*
X54547Y-32549D02*
X54547Y-33159D01*
X53759Y-33159D01*
X53759Y-32549D01*
X54547Y-32549D01*
X54547Y-32549D01*
G37*
G54D13*
X50893Y-18535D03*
G54D14*
X49893Y-18535D03*
X50893Y-17535D03*
X49893Y-17535D03*
X50893Y-16535D03*
X49893Y-16535D03*
X50893Y-15535D03*
X49893Y-15535D03*
X50893Y-14535D03*
X49893Y-14535D03*
G54D15*
X49901Y-31783D03*
G54D16*
X49901Y-32783D03*
G54D15*
X55224Y-14566D03*
G54D16*
X54224Y-14566D03*
G54D13*
X50893Y-28712D03*
G54D14*
X49893Y-28712D03*
X50893Y-27712D03*
X49893Y-27712D03*
X50893Y-26712D03*
X49893Y-26712D03*
X50893Y-25712D03*
X49893Y-25712D03*
X50893Y-24712D03*
X49893Y-24712D03*
X50893Y-23712D03*
X49893Y-23712D03*
X50893Y-22712D03*
X49893Y-22712D03*
X50893Y-21712D03*
X49893Y-21712D03*
X50893Y-20712D03*
X49893Y-20712D03*
X50893Y-19712D03*
X49893Y-19712D03*
G54D17*
X67079Y-18651D03*
X64500Y-20800D03*
X64000Y-20800D03*
X62400Y-23100D03*
X62400Y-22500D03*
X62400Y-21900D03*
X62400Y-21300D03*
X62400Y-20800D03*
X62900Y-20800D03*
X63500Y-20800D03*
X63500Y-21300D03*
X62900Y-21300D03*
X62900Y-21900D03*
X62900Y-22500D03*
X62900Y-23100D03*
X63500Y-23100D03*
X63500Y-22500D03*
X64000Y-22500D03*
X64000Y-23100D03*
X64500Y-23100D03*
X64500Y-22500D03*
X64500Y-21900D03*
X64500Y-21300D03*
X64000Y-21300D03*
X63543Y-21929D03*
X64000Y-21900D03*
X59744Y-26980D03*
X59842Y-32480D03*
X60759Y-28338D03*
X60590Y-30236D03*
X65742Y-20258D03*
X68498Y-32394D03*
X65215Y-31402D03*
X59981Y-16506D03*
X57914Y-22653D03*
X56580Y-32394D03*
X53803Y-20362D03*
X55306Y-20393D03*
X65385Y-20205D03*
X59158Y-18771D03*
X61692Y-19958D03*
X58862Y-20916D03*
X59392Y-21542D03*
X62212Y-24036D03*
X63295Y-24017D03*
X65619Y-21651D03*
X59748Y-26212D03*
X65516Y-29343D03*
X51454Y-30118D03*
X63992Y-24167D03*
X65628Y-18782D03*
X61372Y-21567D03*
X65340Y-16400D03*
X61347Y-20927D03*
X64425Y-17568D03*
X61432Y-21206D03*
X64661Y-15995D03*
X61220Y-19815D03*
X63440Y-17440D03*
X61895Y-19168D03*
X56070Y-16942D03*
X59703Y-16572D03*
X60065Y-20963D03*
X61287Y-19382D03*
X60453Y-16378D03*
X60686Y-15696D03*
X60248Y-16528D03*
X59135Y-15505D03*
X59185Y-21735D03*
X61408Y-22756D03*
X53870Y-15022D03*
X58228Y-17242D03*
X54946Y-15841D03*
X58643Y-15547D03*
X53162Y-16501D03*
X58374Y-17416D03*
X53465Y-14784D03*
X57939Y-17309D03*
X57854Y-19511D03*
X60763Y-18856D03*
X57543Y-15582D03*
X57545Y-19435D03*
X57100Y-18356D03*
X56124Y-17693D03*
X53271Y-17959D03*
X55067Y-22662D03*
X66820Y-15687D03*
X53271Y-21933D03*
X64575Y-15530D03*
X55079Y-23445D03*
X64078Y-17139D03*
X55462Y-19587D03*
X63990Y-15725D03*
X56067Y-19119D03*
X63353Y-15523D03*
X55693Y-19601D03*
X63005Y-16930D03*
X56345Y-17635D03*
X59543Y-17461D03*
X55819Y-18954D03*
X62313Y-16145D03*
X56463Y-18741D03*
X61978Y-16372D03*
X55482Y-24492D03*
X56946Y-24492D03*
X58393Y-20480D03*
X60899Y-18680D03*
X53870Y-16982D03*
X50363Y-17113D03*
X65798Y-26282D03*
X64487Y-24183D03*
G54D18*
G36*
X68627Y-33194D02*
X66127Y-33194D01*
X66127Y-26217D01*
X66077Y-26096D01*
X65985Y-26003D01*
X65864Y-25953D01*
X65733Y-25953D01*
X65612Y-26003D01*
X65520Y-26095D01*
X65470Y-26216D01*
X65470Y-26347D01*
X65520Y-26468D01*
X65612Y-26560D01*
X65733Y-26611D01*
X65864Y-26611D01*
X65984Y-26561D01*
X66077Y-26468D01*
X66127Y-26348D01*
X66127Y-26217D01*
X66127Y-33194D01*
X65845Y-33194D01*
X65845Y-29278D01*
X65795Y-29157D01*
X65703Y-29065D01*
X65582Y-29015D01*
X65451Y-29015D01*
X65330Y-29065D01*
X65238Y-29157D01*
X65218Y-29205D01*
X65218Y-23403D01*
X65218Y-22041D01*
X65155Y-21979D01*
X63593Y-21979D01*
X63593Y-23541D01*
X63655Y-23604D01*
X64918Y-23604D01*
X65018Y-23604D01*
X65109Y-23566D01*
X65180Y-23495D01*
X65218Y-23403D01*
X65218Y-29205D01*
X65187Y-29278D01*
X65187Y-29409D01*
X65237Y-29529D01*
X65330Y-29622D01*
X65450Y-29672D01*
X65581Y-29672D01*
X65702Y-29622D01*
X65795Y-29530D01*
X65845Y-29409D01*
X65845Y-29278D01*
X65845Y-33194D01*
X64815Y-33194D01*
X64815Y-24118D01*
X64766Y-23997D01*
X64673Y-23905D01*
X64552Y-23854D01*
X64422Y-23854D01*
X64301Y-23904D01*
X64248Y-23957D01*
X64179Y-23888D01*
X64058Y-23838D01*
X63927Y-23838D01*
X63806Y-23888D01*
X63714Y-23980D01*
X63663Y-24101D01*
X63663Y-24232D01*
X63713Y-24353D01*
X63806Y-24445D01*
X63926Y-24495D01*
X64057Y-24495D01*
X64178Y-24445D01*
X64231Y-24392D01*
X64300Y-24462D01*
X64421Y-24512D01*
X64552Y-24512D01*
X64673Y-24462D01*
X64765Y-24370D01*
X64815Y-24249D01*
X64815Y-24118D01*
X64815Y-33194D01*
X63624Y-33194D01*
X63624Y-23952D01*
X63574Y-23831D01*
X63493Y-23750D01*
X63493Y-23541D01*
X63493Y-21979D01*
X63493Y-21879D01*
X63493Y-20316D01*
X63430Y-20254D01*
X62642Y-20254D01*
X62642Y-16080D01*
X62592Y-15959D01*
X62499Y-15867D01*
X62378Y-15817D01*
X62248Y-15817D01*
X62127Y-15866D01*
X62034Y-15959D01*
X61999Y-16044D01*
X61913Y-16044D01*
X61792Y-16094D01*
X61700Y-16186D01*
X61649Y-16307D01*
X61649Y-16438D01*
X61699Y-16558D01*
X61792Y-16651D01*
X61912Y-16701D01*
X62043Y-16701D01*
X62164Y-16651D01*
X62257Y-16559D01*
X62292Y-16474D01*
X62378Y-16474D01*
X62499Y-16424D01*
X62591Y-16332D01*
X62641Y-16211D01*
X62642Y-16080D01*
X62642Y-20254D01*
X62224Y-20254D01*
X62224Y-19103D01*
X62174Y-18982D01*
X62082Y-18890D01*
X61961Y-18840D01*
X61830Y-18840D01*
X61709Y-18890D01*
X61617Y-18982D01*
X61567Y-19103D01*
X61567Y-19198D01*
X61566Y-19196D01*
X61473Y-19103D01*
X61353Y-19053D01*
X61228Y-19053D01*
X61228Y-18615D01*
X61178Y-18494D01*
X61085Y-18402D01*
X61015Y-18373D01*
X61015Y-15631D01*
X60965Y-15510D01*
X60873Y-15417D01*
X60752Y-15367D01*
X60621Y-15367D01*
X60500Y-15417D01*
X60408Y-15509D01*
X60358Y-15630D01*
X60358Y-15761D01*
X60408Y-15882D01*
X60500Y-15974D01*
X60621Y-16024D01*
X60752Y-16025D01*
X60872Y-15975D01*
X60965Y-15882D01*
X61015Y-15761D01*
X61015Y-15631D01*
X61015Y-18373D01*
X60965Y-18352D01*
X60834Y-18352D01*
X60781Y-18373D01*
X60781Y-16313D01*
X60731Y-16192D01*
X60639Y-16100D01*
X60518Y-16050D01*
X60387Y-16050D01*
X60267Y-16100D01*
X60174Y-16192D01*
X60169Y-16205D01*
X60062Y-16249D01*
X59970Y-16341D01*
X59960Y-16365D01*
X59890Y-16294D01*
X59769Y-16244D01*
X59638Y-16244D01*
X59517Y-16293D01*
X59464Y-16346D01*
X59464Y-15439D01*
X59414Y-15319D01*
X59322Y-15226D01*
X59201Y-15176D01*
X59070Y-15176D01*
X58949Y-15226D01*
X58868Y-15307D01*
X58829Y-15269D01*
X58708Y-15219D01*
X58577Y-15218D01*
X58457Y-15268D01*
X58364Y-15361D01*
X58314Y-15482D01*
X58314Y-15612D01*
X58364Y-15733D01*
X58456Y-15826D01*
X58577Y-15876D01*
X58708Y-15876D01*
X58829Y-15826D01*
X58910Y-15744D01*
X58949Y-15783D01*
X59070Y-15833D01*
X59200Y-15833D01*
X59321Y-15783D01*
X59414Y-15691D01*
X59464Y-15570D01*
X59464Y-15439D01*
X59464Y-16346D01*
X59425Y-16386D01*
X59374Y-16507D01*
X59374Y-16637D01*
X59424Y-16758D01*
X59517Y-16851D01*
X59637Y-16901D01*
X59768Y-16901D01*
X59889Y-16851D01*
X59982Y-16759D01*
X59991Y-16736D01*
X60062Y-16806D01*
X60183Y-16856D01*
X60313Y-16857D01*
X60434Y-16807D01*
X60527Y-16714D01*
X60532Y-16701D01*
X60639Y-16657D01*
X60731Y-16565D01*
X60781Y-16444D01*
X60781Y-16313D01*
X60781Y-18373D01*
X60713Y-18402D01*
X60620Y-18494D01*
X60588Y-18573D01*
X60577Y-18577D01*
X60484Y-18670D01*
X60434Y-18791D01*
X60434Y-18921D01*
X60484Y-19042D01*
X60576Y-19135D01*
X60697Y-19185D01*
X60828Y-19185D01*
X60949Y-19135D01*
X61041Y-19043D01*
X61074Y-18964D01*
X61085Y-18959D01*
X61177Y-18867D01*
X61228Y-18746D01*
X61228Y-18615D01*
X61228Y-19053D01*
X61222Y-19053D01*
X61101Y-19103D01*
X61008Y-19195D01*
X60958Y-19316D01*
X60958Y-19447D01*
X61006Y-19563D01*
X60941Y-19629D01*
X60891Y-19749D01*
X60891Y-19880D01*
X60941Y-20001D01*
X61033Y-20094D01*
X61154Y-20144D01*
X61285Y-20144D01*
X61395Y-20098D01*
X61413Y-20144D01*
X61506Y-20236D01*
X61627Y-20286D01*
X61757Y-20286D01*
X61878Y-20236D01*
X61971Y-20144D01*
X62021Y-20023D01*
X62021Y-19892D01*
X61971Y-19772D01*
X61879Y-19679D01*
X61758Y-19629D01*
X61627Y-19629D01*
X61517Y-19674D01*
X61500Y-19633D01*
X61566Y-19568D01*
X61616Y-19447D01*
X61616Y-19353D01*
X61617Y-19354D01*
X61709Y-19447D01*
X61830Y-19497D01*
X61960Y-19497D01*
X62081Y-19447D01*
X62174Y-19355D01*
X62224Y-19234D01*
X62224Y-19103D01*
X62224Y-20254D01*
X62168Y-20254D01*
X62068Y-20254D01*
X61976Y-20292D01*
X61906Y-20362D01*
X61868Y-20454D01*
X61868Y-21816D01*
X61930Y-21879D01*
X63493Y-21879D01*
X63493Y-21979D01*
X61930Y-21979D01*
X61868Y-22041D01*
X61868Y-23403D01*
X61906Y-23495D01*
X61976Y-23566D01*
X62068Y-23604D01*
X62168Y-23604D01*
X63430Y-23604D01*
X63493Y-23541D01*
X63493Y-23750D01*
X63481Y-23738D01*
X63361Y-23688D01*
X63230Y-23688D01*
X63109Y-23738D01*
X63016Y-23831D01*
X62966Y-23951D01*
X62966Y-24082D01*
X63016Y-24203D01*
X63108Y-24296D01*
X63229Y-24346D01*
X63360Y-24346D01*
X63481Y-24296D01*
X63573Y-24203D01*
X63624Y-24083D01*
X63624Y-23952D01*
X63624Y-33194D01*
X63450Y-33194D01*
X63450Y-25979D01*
X62541Y-26887D01*
X62541Y-23971D01*
X62491Y-23850D01*
X62399Y-23757D01*
X62278Y-23707D01*
X62147Y-23707D01*
X62026Y-23757D01*
X61934Y-23849D01*
X61883Y-23970D01*
X61883Y-24101D01*
X61933Y-24222D01*
X62026Y-24314D01*
X62146Y-24364D01*
X62277Y-24365D01*
X62398Y-24315D01*
X62491Y-24222D01*
X62541Y-24101D01*
X62541Y-23971D01*
X62541Y-26887D01*
X61761Y-27667D01*
X61761Y-21140D01*
X61711Y-21020D01*
X61676Y-20984D01*
X61676Y-20862D01*
X61626Y-20741D01*
X61534Y-20649D01*
X61413Y-20599D01*
X61282Y-20598D01*
X61161Y-20648D01*
X61069Y-20741D01*
X61019Y-20862D01*
X61018Y-20992D01*
X61068Y-21113D01*
X61104Y-21148D01*
X61104Y-21271D01*
X61133Y-21341D01*
X61093Y-21380D01*
X61043Y-21501D01*
X61043Y-21632D01*
X61093Y-21753D01*
X61186Y-21845D01*
X61306Y-21896D01*
X61437Y-21896D01*
X61558Y-21846D01*
X61651Y-21753D01*
X61701Y-21633D01*
X61701Y-21502D01*
X61672Y-21431D01*
X61711Y-21392D01*
X61761Y-21271D01*
X61761Y-21140D01*
X61761Y-27667D01*
X61736Y-27692D01*
X61736Y-22691D01*
X61686Y-22570D01*
X61594Y-22477D01*
X61473Y-22427D01*
X61342Y-22427D01*
X61222Y-22477D01*
X61129Y-22569D01*
X61079Y-22690D01*
X61079Y-22821D01*
X61129Y-22942D01*
X61221Y-23034D01*
X61342Y-23084D01*
X61473Y-23084D01*
X61594Y-23035D01*
X61686Y-22942D01*
X61736Y-22821D01*
X61736Y-22691D01*
X61736Y-27692D01*
X61250Y-28179D01*
X61250Y-33194D01*
X60394Y-33194D01*
X60394Y-20898D01*
X60344Y-20777D01*
X60251Y-20684D01*
X60131Y-20634D01*
X60000Y-20634D01*
X59879Y-20684D01*
X59872Y-20691D01*
X59872Y-17396D01*
X59822Y-17275D01*
X59729Y-17183D01*
X59609Y-17133D01*
X59478Y-17132D01*
X59357Y-17182D01*
X59264Y-17275D01*
X59214Y-17396D01*
X59214Y-17526D01*
X59264Y-17647D01*
X59357Y-17740D01*
X59477Y-17790D01*
X59608Y-17790D01*
X59729Y-17740D01*
X59821Y-17648D01*
X59872Y-17527D01*
X59872Y-17396D01*
X59872Y-20691D01*
X59786Y-20776D01*
X59736Y-20897D01*
X59736Y-21028D01*
X59786Y-21149D01*
X59879Y-21241D01*
X59999Y-21291D01*
X60130Y-21292D01*
X60251Y-21242D01*
X60344Y-21149D01*
X60394Y-21028D01*
X60394Y-20898D01*
X60394Y-33194D01*
X60076Y-33194D01*
X60076Y-26147D01*
X60026Y-26026D01*
X59934Y-25934D01*
X59813Y-25883D01*
X59721Y-25883D01*
X59721Y-21476D01*
X59671Y-21356D01*
X59579Y-21263D01*
X59487Y-21225D01*
X59487Y-18705D01*
X59437Y-18585D01*
X59345Y-18492D01*
X59224Y-18442D01*
X59093Y-18442D01*
X58972Y-18492D01*
X58880Y-18584D01*
X58829Y-18705D01*
X58829Y-18836D01*
X58879Y-18956D01*
X58972Y-19049D01*
X59092Y-19099D01*
X59223Y-19099D01*
X59344Y-19049D01*
X59437Y-18957D01*
X59487Y-18836D01*
X59487Y-18705D01*
X59487Y-21225D01*
X59458Y-21213D01*
X59327Y-21213D01*
X59206Y-21263D01*
X59191Y-21279D01*
X59191Y-20851D01*
X59141Y-20730D01*
X59048Y-20638D01*
X58928Y-20588D01*
X58797Y-20588D01*
X58684Y-20634D01*
X58721Y-20545D01*
X58721Y-20415D01*
X58702Y-20369D01*
X58702Y-17351D01*
X58652Y-17230D01*
X58560Y-17137D01*
X58537Y-17128D01*
X58507Y-17056D01*
X58415Y-16963D01*
X58294Y-16913D01*
X58163Y-16913D01*
X58042Y-16963D01*
X58019Y-16987D01*
X58004Y-16981D01*
X57874Y-16981D01*
X57872Y-16981D01*
X57872Y-15516D01*
X57822Y-15396D01*
X57730Y-15303D01*
X57609Y-15253D01*
X57478Y-15253D01*
X57357Y-15303D01*
X57265Y-15395D01*
X57215Y-15516D01*
X57214Y-15647D01*
X57264Y-15768D01*
X57357Y-15860D01*
X57478Y-15910D01*
X57608Y-15910D01*
X57729Y-15860D01*
X57822Y-15768D01*
X57872Y-15647D01*
X57872Y-15516D01*
X57872Y-16981D01*
X57753Y-17031D01*
X57660Y-17123D01*
X57610Y-17244D01*
X57610Y-17374D01*
X57660Y-17495D01*
X57752Y-17588D01*
X57873Y-17638D01*
X58004Y-17638D01*
X58094Y-17601D01*
X58095Y-17602D01*
X58187Y-17694D01*
X58308Y-17744D01*
X58439Y-17745D01*
X58559Y-17695D01*
X58652Y-17602D01*
X58702Y-17481D01*
X58702Y-17351D01*
X58702Y-20369D01*
X58671Y-20294D01*
X58579Y-20201D01*
X58458Y-20151D01*
X58327Y-20151D01*
X58207Y-20201D01*
X58183Y-20225D01*
X58183Y-19446D01*
X58133Y-19325D01*
X58040Y-19232D01*
X57919Y-19182D01*
X57789Y-19182D01*
X57766Y-19191D01*
X57731Y-19156D01*
X57611Y-19106D01*
X57480Y-19106D01*
X57429Y-19127D01*
X57429Y-18290D01*
X57411Y-18248D01*
X57411Y-16425D01*
X57327Y-16221D01*
X57171Y-16065D01*
X56967Y-15980D01*
X56746Y-15980D01*
X56542Y-16064D01*
X56385Y-16220D01*
X56301Y-16424D01*
X56301Y-16645D01*
X56344Y-16751D01*
X56257Y-16663D01*
X56136Y-16613D01*
X56005Y-16613D01*
X55884Y-16663D01*
X55874Y-16673D01*
X55874Y-15016D01*
X55874Y-14917D01*
X55874Y-14679D01*
X55811Y-14616D01*
X55274Y-14616D01*
X55274Y-15154D01*
X55336Y-15216D01*
X55674Y-15216D01*
X55766Y-15178D01*
X55836Y-15108D01*
X55874Y-15016D01*
X55874Y-16673D01*
X55792Y-16755D01*
X55742Y-16876D01*
X55741Y-17007D01*
X55791Y-17128D01*
X55884Y-17220D01*
X56005Y-17270D01*
X56135Y-17270D01*
X56256Y-17221D01*
X56349Y-17128D01*
X56399Y-17007D01*
X56399Y-16877D01*
X56390Y-16854D01*
X56541Y-17005D01*
X56745Y-17090D01*
X56966Y-17090D01*
X57170Y-17006D01*
X57326Y-16850D01*
X57411Y-16646D01*
X57411Y-16425D01*
X57411Y-18248D01*
X57379Y-18170D01*
X57286Y-18077D01*
X57165Y-18027D01*
X57035Y-18027D01*
X56914Y-18077D01*
X56821Y-18169D01*
X56771Y-18290D01*
X56771Y-18421D01*
X56821Y-18542D01*
X56913Y-18634D01*
X57034Y-18684D01*
X57165Y-18684D01*
X57286Y-18634D01*
X57378Y-18542D01*
X57428Y-18421D01*
X57429Y-18290D01*
X57429Y-19127D01*
X57359Y-19156D01*
X57266Y-19248D01*
X57216Y-19369D01*
X57216Y-19500D01*
X57266Y-19621D01*
X57358Y-19713D01*
X57479Y-19763D01*
X57610Y-19763D01*
X57632Y-19754D01*
X57667Y-19789D01*
X57788Y-19839D01*
X57919Y-19840D01*
X58040Y-19790D01*
X58132Y-19697D01*
X58182Y-19576D01*
X58183Y-19446D01*
X58183Y-20225D01*
X58114Y-20293D01*
X58064Y-20414D01*
X58064Y-20545D01*
X58114Y-20666D01*
X58206Y-20758D01*
X58327Y-20808D01*
X58458Y-20808D01*
X58570Y-20762D01*
X58533Y-20851D01*
X58533Y-20981D01*
X58583Y-21102D01*
X58675Y-21195D01*
X58796Y-21245D01*
X58927Y-21245D01*
X59048Y-21195D01*
X59140Y-21103D01*
X59191Y-20982D01*
X59191Y-20851D01*
X59191Y-21279D01*
X59114Y-21355D01*
X59087Y-21419D01*
X58999Y-21456D01*
X58906Y-21548D01*
X58856Y-21669D01*
X58856Y-21800D01*
X58906Y-21921D01*
X58998Y-22013D01*
X59119Y-22063D01*
X59250Y-22063D01*
X59371Y-22014D01*
X59463Y-21921D01*
X59490Y-21857D01*
X59578Y-21820D01*
X59671Y-21728D01*
X59721Y-21607D01*
X59721Y-21476D01*
X59721Y-25883D01*
X59682Y-25883D01*
X59562Y-25933D01*
X59469Y-26026D01*
X59419Y-26146D01*
X59419Y-26277D01*
X59469Y-26398D01*
X59561Y-26491D01*
X59682Y-26541D01*
X59813Y-26541D01*
X59934Y-26491D01*
X60026Y-26399D01*
X60076Y-26278D01*
X60076Y-26147D01*
X60076Y-33194D01*
X56450Y-33194D01*
X56450Y-31309D01*
X57772Y-27850D01*
X57479Y-27850D01*
X57275Y-28053D01*
X57275Y-24427D01*
X57225Y-24306D01*
X57132Y-24213D01*
X57012Y-24163D01*
X56881Y-24163D01*
X56791Y-24200D01*
X56791Y-18676D01*
X56742Y-18555D01*
X56674Y-18487D01*
X56674Y-17570D01*
X56624Y-17449D01*
X56532Y-17356D01*
X56411Y-17306D01*
X56280Y-17306D01*
X56159Y-17356D01*
X56150Y-17365D01*
X56059Y-17364D01*
X55938Y-17414D01*
X55846Y-17507D01*
X55796Y-17628D01*
X55796Y-17758D01*
X55846Y-17879D01*
X55938Y-17972D01*
X56059Y-18022D01*
X56190Y-18022D01*
X56310Y-17972D01*
X56319Y-17964D01*
X56410Y-17964D01*
X56531Y-17914D01*
X56624Y-17821D01*
X56674Y-17700D01*
X56674Y-17570D01*
X56674Y-18487D01*
X56649Y-18462D01*
X56528Y-18412D01*
X56398Y-18412D01*
X56277Y-18462D01*
X56184Y-18554D01*
X56134Y-18675D01*
X56134Y-18791D01*
X56133Y-18791D01*
X56107Y-18791D01*
X56098Y-18768D01*
X56005Y-18676D01*
X55885Y-18625D01*
X55754Y-18625D01*
X55633Y-18675D01*
X55540Y-18768D01*
X55490Y-18888D01*
X55490Y-19019D01*
X55540Y-19140D01*
X55632Y-19233D01*
X55729Y-19273D01*
X55628Y-19273D01*
X55595Y-19286D01*
X55528Y-19259D01*
X55397Y-19258D01*
X55277Y-19308D01*
X55274Y-19311D01*
X55274Y-15776D01*
X55224Y-15655D01*
X55132Y-15562D01*
X55011Y-15512D01*
X54881Y-15512D01*
X54760Y-15562D01*
X54667Y-15654D01*
X54617Y-15775D01*
X54617Y-15906D01*
X54667Y-16027D01*
X54759Y-16119D01*
X54880Y-16169D01*
X55011Y-16170D01*
X55132Y-16120D01*
X55224Y-16027D01*
X55274Y-15906D01*
X55274Y-15776D01*
X55274Y-19311D01*
X55184Y-19401D01*
X55134Y-19522D01*
X55134Y-19652D01*
X55184Y-19773D01*
X55276Y-19866D01*
X55397Y-19916D01*
X55528Y-19916D01*
X55561Y-19902D01*
X55628Y-19930D01*
X55759Y-19930D01*
X55879Y-19880D01*
X55972Y-19788D01*
X56022Y-19667D01*
X56022Y-19536D01*
X55982Y-19440D01*
X56001Y-19448D01*
X56132Y-19448D01*
X56253Y-19398D01*
X56345Y-19306D01*
X56396Y-19185D01*
X56396Y-19069D01*
X56397Y-19070D01*
X56528Y-19070D01*
X56649Y-19020D01*
X56741Y-18927D01*
X56791Y-18807D01*
X56791Y-18676D01*
X56791Y-24200D01*
X56760Y-24213D01*
X56667Y-24305D01*
X56617Y-24426D01*
X56617Y-24557D01*
X56667Y-24678D01*
X56760Y-24770D01*
X56880Y-24820D01*
X57011Y-24821D01*
X57132Y-24771D01*
X57225Y-24678D01*
X57275Y-24557D01*
X57275Y-24427D01*
X57275Y-28053D01*
X55811Y-29517D01*
X55811Y-24427D01*
X55761Y-24306D01*
X55669Y-24213D01*
X55635Y-24199D01*
X55635Y-20328D01*
X55585Y-20207D01*
X55492Y-20114D01*
X55372Y-20064D01*
X55241Y-20064D01*
X55120Y-20114D01*
X55027Y-20206D01*
X54977Y-20327D01*
X54977Y-20458D01*
X55027Y-20579D01*
X55119Y-20671D01*
X55240Y-20722D01*
X55371Y-20722D01*
X55492Y-20672D01*
X55584Y-20579D01*
X55635Y-20459D01*
X55635Y-20328D01*
X55635Y-24199D01*
X55548Y-24163D01*
X55417Y-24163D01*
X55408Y-24167D01*
X55408Y-23380D01*
X55396Y-23352D01*
X55396Y-22596D01*
X55346Y-22476D01*
X55254Y-22383D01*
X55133Y-22333D01*
X55002Y-22333D01*
X54881Y-22383D01*
X54789Y-22475D01*
X54738Y-22596D01*
X54738Y-22727D01*
X54788Y-22848D01*
X54881Y-22940D01*
X55001Y-22990D01*
X55132Y-22990D01*
X55253Y-22940D01*
X55346Y-22848D01*
X55396Y-22727D01*
X55396Y-22596D01*
X55396Y-23352D01*
X55358Y-23260D01*
X55265Y-23167D01*
X55145Y-23117D01*
X55014Y-23117D01*
X54893Y-23167D01*
X54800Y-23259D01*
X54750Y-23380D01*
X54750Y-23511D01*
X54800Y-23631D01*
X54893Y-23724D01*
X55013Y-23774D01*
X55144Y-23774D01*
X55265Y-23724D01*
X55358Y-23632D01*
X55408Y-23511D01*
X55408Y-23380D01*
X55408Y-24167D01*
X55296Y-24213D01*
X55204Y-24305D01*
X55154Y-24426D01*
X55153Y-24557D01*
X55203Y-24678D01*
X55296Y-24770D01*
X55417Y-24820D01*
X55547Y-24821D01*
X55668Y-24771D01*
X55761Y-24678D01*
X55811Y-24557D01*
X55811Y-24427D01*
X55811Y-29517D01*
X54650Y-30679D01*
X54650Y-32321D01*
X54596Y-32299D01*
X54497Y-32299D01*
X54344Y-32299D01*
X54344Y-31791D01*
X54311Y-31624D01*
X54216Y-31482D01*
X54199Y-31470D01*
X54199Y-16917D01*
X54149Y-16796D01*
X54056Y-16703D01*
X53936Y-16653D01*
X53805Y-16653D01*
X53684Y-16703D01*
X53591Y-16796D01*
X53541Y-16916D01*
X53541Y-17047D01*
X53591Y-17168D01*
X53683Y-17261D01*
X53804Y-17311D01*
X53935Y-17311D01*
X54056Y-17261D01*
X54148Y-17168D01*
X54199Y-17048D01*
X54199Y-16917D01*
X54199Y-31470D01*
X54131Y-31425D01*
X54131Y-20297D01*
X54082Y-20176D01*
X53989Y-20083D01*
X53868Y-20033D01*
X53738Y-20033D01*
X53617Y-20083D01*
X53600Y-20100D01*
X53600Y-17894D01*
X53550Y-17773D01*
X53491Y-17714D01*
X53491Y-16435D01*
X53441Y-16315D01*
X53348Y-16222D01*
X53227Y-16172D01*
X53097Y-16172D01*
X52976Y-16222D01*
X52883Y-16314D01*
X52833Y-16435D01*
X52833Y-16566D01*
X52883Y-16687D01*
X52975Y-16779D01*
X53096Y-16829D01*
X53227Y-16829D01*
X53348Y-16779D01*
X53440Y-16687D01*
X53490Y-16566D01*
X53491Y-16435D01*
X53491Y-17714D01*
X53457Y-17681D01*
X53337Y-17631D01*
X53206Y-17631D01*
X53085Y-17680D01*
X52992Y-17773D01*
X52942Y-17894D01*
X52942Y-18024D01*
X52992Y-18145D01*
X53084Y-18238D01*
X53205Y-18288D01*
X53336Y-18288D01*
X53457Y-18238D01*
X53549Y-18146D01*
X53600Y-18025D01*
X53600Y-17894D01*
X53600Y-20100D01*
X53524Y-20175D01*
X53474Y-20296D01*
X53474Y-20427D01*
X53524Y-20548D01*
X53616Y-20640D01*
X53737Y-20690D01*
X53868Y-20691D01*
X53989Y-20641D01*
X54081Y-20548D01*
X54131Y-20427D01*
X54131Y-20297D01*
X54131Y-31425D01*
X54074Y-31387D01*
X53907Y-31354D01*
X53769Y-31354D01*
X53602Y-31387D01*
X53600Y-31389D01*
X53600Y-21868D01*
X53550Y-21747D01*
X53457Y-21654D01*
X53337Y-21604D01*
X53206Y-21604D01*
X53085Y-21654D01*
X52992Y-21747D01*
X52942Y-21867D01*
X52942Y-21998D01*
X52992Y-22119D01*
X53084Y-22212D01*
X53205Y-22262D01*
X53336Y-22262D01*
X53457Y-22212D01*
X53549Y-22119D01*
X53600Y-21999D01*
X53600Y-21868D01*
X53600Y-31389D01*
X53460Y-31482D01*
X53366Y-31624D01*
X53332Y-31791D01*
X53366Y-31958D01*
X53460Y-32100D01*
X53602Y-32195D01*
X53769Y-32228D01*
X53907Y-32228D01*
X54074Y-32195D01*
X54216Y-32100D01*
X54311Y-31958D01*
X54344Y-31791D01*
X54344Y-32299D01*
X53710Y-32299D01*
X53618Y-32337D01*
X53547Y-32407D01*
X53509Y-32499D01*
X53509Y-32598D01*
X53509Y-33194D01*
X52375Y-33194D01*
X52375Y-31791D01*
X52342Y-31624D01*
X52247Y-31482D01*
X52106Y-31387D01*
X51938Y-31354D01*
X51801Y-31354D01*
X51783Y-31357D01*
X51783Y-30053D01*
X51733Y-29932D01*
X51641Y-29839D01*
X51520Y-29789D01*
X51483Y-29789D01*
X51483Y-29102D01*
X51483Y-28825D01*
X51421Y-28762D01*
X50943Y-28762D01*
X50943Y-29240D01*
X51006Y-29302D01*
X51183Y-29302D01*
X51283Y-29302D01*
X51375Y-29264D01*
X51445Y-29194D01*
X51483Y-29102D01*
X51483Y-29789D01*
X51389Y-29789D01*
X51268Y-29839D01*
X51176Y-29931D01*
X51126Y-30052D01*
X51126Y-30183D01*
X51176Y-30304D01*
X51268Y-30396D01*
X51389Y-30446D01*
X51520Y-30446D01*
X51640Y-30396D01*
X51733Y-30304D01*
X51783Y-30183D01*
X51783Y-30053D01*
X51783Y-31357D01*
X51634Y-31387D01*
X51492Y-31482D01*
X51397Y-31624D01*
X51364Y-31791D01*
X51397Y-31958D01*
X51492Y-32100D01*
X51634Y-32195D01*
X51801Y-32228D01*
X51938Y-32228D01*
X52106Y-32195D01*
X52247Y-32100D01*
X52342Y-31958D01*
X52375Y-31791D01*
X52375Y-33194D01*
X52198Y-33194D01*
X52198Y-33109D01*
X52198Y-32499D01*
X52160Y-32407D01*
X52090Y-32337D01*
X51998Y-32299D01*
X51899Y-32299D01*
X51111Y-32299D01*
X51019Y-32337D01*
X50949Y-32407D01*
X50911Y-32499D01*
X50911Y-32598D01*
X50911Y-33194D01*
X50395Y-33194D01*
X50428Y-33164D01*
X50533Y-32934D01*
X50487Y-32833D01*
X49951Y-32833D01*
X49951Y-32841D01*
X49851Y-32841D01*
X49851Y-32833D01*
X49843Y-32833D01*
X49843Y-32733D01*
X49851Y-32733D01*
X49851Y-32725D01*
X49951Y-32725D01*
X49951Y-32733D01*
X50487Y-32733D01*
X50533Y-32632D01*
X50428Y-32402D01*
X50427Y-32401D01*
X50443Y-32395D01*
X50513Y-32325D01*
X50551Y-32233D01*
X50551Y-32133D01*
X50551Y-31333D01*
X50513Y-31241D01*
X50443Y-31171D01*
X50351Y-31133D01*
X50251Y-31133D01*
X49482Y-31133D01*
X49482Y-29145D01*
X49667Y-29269D01*
X49893Y-29314D01*
X50119Y-29269D01*
X50310Y-29141D01*
X50316Y-29133D01*
X50341Y-29194D01*
X50412Y-29264D01*
X50503Y-29302D01*
X50603Y-29302D01*
X50781Y-29302D01*
X50843Y-29240D01*
X50843Y-28762D01*
X50835Y-28762D01*
X50835Y-28662D01*
X50843Y-28662D01*
X50843Y-28654D01*
X50943Y-28654D01*
X50943Y-28662D01*
X51421Y-28662D01*
X51483Y-28600D01*
X51483Y-28322D01*
X51445Y-28230D01*
X51375Y-28160D01*
X51314Y-28135D01*
X51438Y-27949D01*
X51483Y-27724D01*
X51483Y-27701D01*
X51438Y-27475D01*
X51310Y-27283D01*
X51204Y-27212D01*
X51310Y-27141D01*
X51438Y-26949D01*
X51483Y-26724D01*
X51483Y-26701D01*
X51438Y-26475D01*
X51310Y-26283D01*
X51204Y-26212D01*
X51310Y-26141D01*
X51438Y-25949D01*
X51483Y-25724D01*
X51483Y-25701D01*
X51438Y-25475D01*
X51310Y-25283D01*
X51204Y-25212D01*
X51310Y-25141D01*
X51438Y-24949D01*
X51483Y-24724D01*
X51483Y-24701D01*
X51438Y-24475D01*
X51310Y-24283D01*
X51204Y-24212D01*
X51310Y-24141D01*
X51438Y-23949D01*
X51483Y-23724D01*
X51483Y-23701D01*
X51438Y-23475D01*
X51310Y-23283D01*
X51204Y-23212D01*
X51310Y-23141D01*
X51438Y-22949D01*
X51483Y-22724D01*
X51483Y-22701D01*
X51438Y-22475D01*
X51310Y-22283D01*
X51204Y-22212D01*
X51310Y-22141D01*
X51438Y-21949D01*
X51483Y-21724D01*
X51483Y-21701D01*
X51438Y-21475D01*
X51310Y-21283D01*
X51204Y-21212D01*
X51310Y-21141D01*
X51438Y-20949D01*
X51483Y-20724D01*
X51483Y-20701D01*
X51438Y-20475D01*
X51310Y-20283D01*
X51204Y-20212D01*
X51310Y-20141D01*
X51438Y-19949D01*
X51483Y-19724D01*
X51483Y-19701D01*
X51438Y-19475D01*
X51310Y-19283D01*
X51119Y-19155D01*
X50943Y-19120D01*
X50943Y-19062D01*
X51006Y-19125D01*
X51183Y-19125D01*
X51283Y-19125D01*
X51375Y-19087D01*
X51445Y-19017D01*
X51483Y-18925D01*
X51483Y-18647D01*
X51421Y-18585D01*
X50943Y-18585D01*
X50943Y-18593D01*
X50843Y-18593D01*
X50843Y-18585D01*
X50835Y-18585D01*
X50835Y-18485D01*
X50843Y-18485D01*
X50843Y-18477D01*
X50943Y-18477D01*
X50943Y-18485D01*
X51421Y-18485D01*
X51483Y-18422D01*
X51483Y-18145D01*
X51445Y-18053D01*
X51375Y-17983D01*
X51314Y-17958D01*
X51438Y-17772D01*
X51483Y-17546D01*
X51483Y-17523D01*
X51438Y-17298D01*
X51310Y-17106D01*
X51204Y-17035D01*
X51310Y-16964D01*
X51438Y-16772D01*
X51483Y-16546D01*
X51483Y-16523D01*
X51438Y-16298D01*
X51310Y-16106D01*
X51204Y-16035D01*
X51310Y-15964D01*
X51438Y-15772D01*
X51483Y-15546D01*
X51483Y-15523D01*
X51438Y-15298D01*
X51310Y-15106D01*
X51204Y-15035D01*
X51310Y-14964D01*
X51438Y-14772D01*
X51483Y-14546D01*
X51483Y-14523D01*
X51438Y-14298D01*
X51310Y-14106D01*
X51224Y-14049D01*
X53839Y-14049D01*
X53752Y-14107D01*
X53611Y-14318D01*
X53579Y-14476D01*
X53531Y-14456D01*
X53400Y-14455D01*
X53279Y-14505D01*
X53186Y-14598D01*
X53136Y-14719D01*
X53136Y-14849D01*
X53186Y-14970D01*
X53278Y-15063D01*
X53399Y-15113D01*
X53530Y-15113D01*
X53549Y-15105D01*
X53591Y-15208D01*
X53684Y-15300D01*
X53804Y-15350D01*
X53935Y-15350D01*
X54056Y-15301D01*
X54149Y-15208D01*
X54150Y-15204D01*
X54211Y-15216D01*
X54237Y-15216D01*
X54485Y-15167D01*
X54604Y-15088D01*
X54612Y-15108D01*
X54682Y-15178D01*
X54774Y-15216D01*
X55111Y-15216D01*
X55174Y-15154D01*
X55174Y-14616D01*
X55166Y-14616D01*
X55166Y-14516D01*
X55174Y-14516D01*
X55174Y-14509D01*
X55274Y-14509D01*
X55274Y-14516D01*
X55811Y-14516D01*
X55874Y-14454D01*
X55874Y-14216D01*
X55874Y-14117D01*
X55846Y-14049D01*
X68627Y-14049D01*
X68627Y-17850D01*
X68108Y-17850D01*
X68108Y-16425D01*
X68024Y-16221D01*
X67868Y-16065D01*
X67664Y-15980D01*
X67443Y-15980D01*
X67239Y-16064D01*
X67149Y-16154D01*
X67149Y-15622D01*
X67099Y-15501D01*
X67006Y-15408D01*
X66885Y-15358D01*
X66755Y-15358D01*
X66634Y-15408D01*
X66541Y-15500D01*
X66491Y-15621D01*
X66491Y-15752D01*
X66541Y-15873D01*
X66633Y-15965D01*
X66754Y-16016D01*
X66885Y-16016D01*
X67006Y-15966D01*
X67098Y-15873D01*
X67148Y-15753D01*
X67149Y-15622D01*
X67149Y-16154D01*
X67082Y-16220D01*
X66998Y-16424D01*
X66997Y-16645D01*
X67082Y-16849D01*
X67238Y-17005D01*
X67442Y-17090D01*
X67663Y-17090D01*
X67867Y-17006D01*
X68023Y-16850D01*
X68108Y-16646D01*
X68108Y-16425D01*
X68108Y-17850D01*
X68077Y-17850D01*
X67408Y-18614D01*
X67408Y-18586D01*
X67358Y-18465D01*
X67266Y-18373D01*
X67145Y-18323D01*
X67014Y-18323D01*
X66893Y-18372D01*
X66801Y-18465D01*
X66751Y-18586D01*
X66750Y-18716D01*
X66800Y-18837D01*
X66893Y-18930D01*
X67014Y-18980D01*
X67144Y-18980D01*
X67265Y-18930D01*
X67358Y-18838D01*
X67386Y-18770D01*
X67573Y-19050D01*
X68627Y-19050D01*
X68627Y-23450D01*
X65979Y-23450D01*
X65957Y-23471D01*
X65957Y-18717D01*
X65907Y-18596D01*
X65815Y-18503D01*
X65694Y-18453D01*
X65669Y-18453D01*
X65669Y-16335D01*
X65619Y-16214D01*
X65527Y-16121D01*
X65406Y-16071D01*
X65275Y-16071D01*
X65154Y-16121D01*
X65062Y-16213D01*
X65012Y-16334D01*
X65012Y-16465D01*
X65061Y-16586D01*
X65154Y-16678D01*
X65275Y-16729D01*
X65405Y-16729D01*
X65526Y-16679D01*
X65619Y-16586D01*
X65669Y-16466D01*
X65669Y-16335D01*
X65669Y-18453D01*
X65563Y-18453D01*
X65443Y-18503D01*
X65350Y-18595D01*
X65300Y-18716D01*
X65300Y-18847D01*
X65350Y-18968D01*
X65442Y-19060D01*
X65563Y-19111D01*
X65694Y-19111D01*
X65814Y-19061D01*
X65907Y-18968D01*
X65957Y-18848D01*
X65957Y-18717D01*
X65957Y-23471D01*
X65948Y-23481D01*
X65948Y-21586D01*
X65898Y-21465D01*
X65805Y-21372D01*
X65714Y-21334D01*
X65714Y-20140D01*
X65664Y-20019D01*
X65571Y-19926D01*
X65451Y-19876D01*
X65320Y-19876D01*
X65199Y-19926D01*
X65106Y-20018D01*
X65056Y-20139D01*
X65056Y-20270D01*
X65018Y-20254D01*
X64989Y-20254D01*
X64989Y-15930D01*
X64939Y-15809D01*
X64850Y-15720D01*
X64854Y-15716D01*
X64904Y-15595D01*
X64904Y-15465D01*
X64854Y-15344D01*
X64762Y-15251D01*
X64641Y-15201D01*
X64510Y-15201D01*
X64389Y-15251D01*
X64297Y-15343D01*
X64246Y-15464D01*
X64246Y-15516D01*
X64177Y-15446D01*
X64056Y-15396D01*
X63925Y-15396D01*
X63804Y-15446D01*
X63712Y-15538D01*
X63682Y-15610D01*
X63682Y-15458D01*
X63632Y-15337D01*
X63539Y-15245D01*
X63419Y-15195D01*
X63288Y-15195D01*
X63167Y-15245D01*
X63074Y-15337D01*
X63024Y-15458D01*
X63024Y-15589D01*
X63074Y-15709D01*
X63166Y-15802D01*
X63287Y-15852D01*
X63418Y-15852D01*
X63539Y-15802D01*
X63631Y-15710D01*
X63682Y-15589D01*
X63682Y-15458D01*
X63682Y-15610D01*
X63661Y-15659D01*
X63661Y-15790D01*
X63711Y-15910D01*
X63804Y-16003D01*
X63924Y-16053D01*
X64055Y-16053D01*
X64176Y-16003D01*
X64269Y-15911D01*
X64319Y-15790D01*
X64319Y-15738D01*
X64386Y-15805D01*
X64382Y-15809D01*
X64332Y-15929D01*
X64332Y-16060D01*
X64382Y-16181D01*
X64474Y-16274D01*
X64595Y-16324D01*
X64726Y-16324D01*
X64846Y-16274D01*
X64939Y-16182D01*
X64989Y-16061D01*
X64989Y-15930D01*
X64989Y-20254D01*
X64918Y-20254D01*
X64754Y-20254D01*
X64754Y-17503D01*
X64704Y-17382D01*
X64611Y-17289D01*
X64490Y-17239D01*
X64392Y-17239D01*
X64406Y-17204D01*
X64407Y-17074D01*
X64357Y-16953D01*
X64264Y-16860D01*
X64143Y-16810D01*
X64013Y-16810D01*
X63892Y-16860D01*
X63799Y-16952D01*
X63749Y-17073D01*
X63749Y-17204D01*
X63799Y-17325D01*
X63891Y-17417D01*
X64012Y-17467D01*
X64110Y-17467D01*
X64096Y-17502D01*
X64096Y-17633D01*
X64146Y-17754D01*
X64238Y-17846D01*
X64359Y-17896D01*
X64490Y-17896D01*
X64611Y-17847D01*
X64703Y-17754D01*
X64753Y-17633D01*
X64754Y-17503D01*
X64754Y-20254D01*
X63768Y-20254D01*
X63768Y-17375D01*
X63718Y-17254D01*
X63626Y-17161D01*
X63505Y-17111D01*
X63375Y-17111D01*
X63334Y-17128D01*
X63334Y-16865D01*
X63284Y-16744D01*
X63192Y-16651D01*
X63071Y-16601D01*
X62940Y-16601D01*
X62819Y-16651D01*
X62727Y-16743D01*
X62677Y-16864D01*
X62677Y-16995D01*
X62727Y-17116D01*
X62819Y-17208D01*
X62940Y-17259D01*
X63071Y-17259D01*
X63191Y-17209D01*
X63284Y-17116D01*
X63334Y-16996D01*
X63334Y-16865D01*
X63334Y-17128D01*
X63254Y-17161D01*
X63161Y-17253D01*
X63111Y-17374D01*
X63111Y-17505D01*
X63161Y-17626D01*
X63253Y-17718D01*
X63374Y-17768D01*
X63505Y-17769D01*
X63626Y-17719D01*
X63718Y-17626D01*
X63768Y-17505D01*
X63768Y-17375D01*
X63768Y-20254D01*
X63655Y-20254D01*
X63593Y-20316D01*
X63593Y-21879D01*
X65155Y-21879D01*
X65218Y-21816D01*
X65218Y-20491D01*
X65319Y-20533D01*
X65450Y-20533D01*
X65571Y-20483D01*
X65664Y-20391D01*
X65714Y-20270D01*
X65714Y-20140D01*
X65714Y-21334D01*
X65684Y-21322D01*
X65554Y-21322D01*
X65433Y-21372D01*
X65340Y-21464D01*
X65290Y-21585D01*
X65290Y-21716D01*
X65340Y-21837D01*
X65432Y-21929D01*
X65553Y-21980D01*
X65684Y-21980D01*
X65805Y-21930D01*
X65897Y-21837D01*
X65947Y-21717D01*
X65948Y-21586D01*
X65948Y-23481D01*
X65750Y-23679D01*
X65750Y-24220D01*
X66150Y-24620D01*
X66150Y-26231D01*
X67650Y-26931D01*
X67650Y-30320D01*
X68627Y-31298D01*
X68627Y-33194D01*
X68627Y-33194D01*
G37*
X68627Y-33194D02*
X66127Y-33194D01*
X66127Y-26217D01*
X66077Y-26096D01*
X65985Y-26003D01*
X65864Y-25953D01*
X65733Y-25953D01*
X65612Y-26003D01*
X65520Y-26095D01*
X65470Y-26216D01*
X65470Y-26347D01*
X65520Y-26468D01*
X65612Y-26560D01*
X65733Y-26611D01*
X65864Y-26611D01*
X65984Y-26561D01*
X66077Y-26468D01*
X66127Y-26348D01*
X66127Y-26217D01*
X66127Y-33194D01*
X65845Y-33194D01*
X65845Y-29278D01*
X65795Y-29157D01*
X65703Y-29065D01*
X65582Y-29015D01*
X65451Y-29015D01*
X65330Y-29065D01*
X65238Y-29157D01*
X65218Y-29205D01*
X65218Y-23403D01*
X65218Y-22041D01*
X65155Y-21979D01*
X63593Y-21979D01*
X63593Y-23541D01*
X63655Y-23604D01*
X64918Y-23604D01*
X65018Y-23604D01*
X65109Y-23566D01*
X65180Y-23495D01*
X65218Y-23403D01*
X65218Y-29205D01*
X65187Y-29278D01*
X65187Y-29409D01*
X65237Y-29529D01*
X65330Y-29622D01*
X65450Y-29672D01*
X65581Y-29672D01*
X65702Y-29622D01*
X65795Y-29530D01*
X65845Y-29409D01*
X65845Y-29278D01*
X65845Y-33194D01*
X64815Y-33194D01*
X64815Y-24118D01*
X64766Y-23997D01*
X64673Y-23905D01*
X64552Y-23854D01*
X64422Y-23854D01*
X64301Y-23904D01*
X64248Y-23957D01*
X64179Y-23888D01*
X64058Y-23838D01*
X63927Y-23838D01*
X63806Y-23888D01*
X63714Y-23980D01*
X63663Y-24101D01*
X63663Y-24232D01*
X63713Y-24353D01*
X63806Y-24445D01*
X63926Y-24495D01*
X64057Y-24495D01*
X64178Y-24445D01*
X64231Y-24392D01*
X64300Y-24462D01*
X64421Y-24512D01*
X64552Y-24512D01*
X64673Y-24462D01*
X64765Y-24370D01*
X64815Y-24249D01*
X64815Y-24118D01*
X64815Y-33194D01*
X63624Y-33194D01*
X63624Y-23952D01*
X63574Y-23831D01*
X63493Y-23750D01*
X63493Y-23541D01*
X63493Y-21979D01*
X63493Y-21879D01*
X63493Y-20316D01*
X63430Y-20254D01*
X62642Y-20254D01*
X62642Y-16080D01*
X62592Y-15959D01*
X62499Y-15867D01*
X62378Y-15817D01*
X62248Y-15817D01*
X62127Y-15866D01*
X62034Y-15959D01*
X61999Y-16044D01*
X61913Y-16044D01*
X61792Y-16094D01*
X61700Y-16186D01*
X61649Y-16307D01*
X61649Y-16438D01*
X61699Y-16558D01*
X61792Y-16651D01*
X61912Y-16701D01*
X62043Y-16701D01*
X62164Y-16651D01*
X62257Y-16559D01*
X62292Y-16474D01*
X62378Y-16474D01*
X62499Y-16424D01*
X62591Y-16332D01*
X62641Y-16211D01*
X62642Y-16080D01*
X62642Y-20254D01*
X62224Y-20254D01*
X62224Y-19103D01*
X62174Y-18982D01*
X62082Y-18890D01*
X61961Y-18840D01*
X61830Y-18840D01*
X61709Y-18890D01*
X61617Y-18982D01*
X61567Y-19103D01*
X61567Y-19198D01*
X61566Y-19196D01*
X61473Y-19103D01*
X61353Y-19053D01*
X61228Y-19053D01*
X61228Y-18615D01*
X61178Y-18494D01*
X61085Y-18402D01*
X61015Y-18373D01*
X61015Y-15631D01*
X60965Y-15510D01*
X60873Y-15417D01*
X60752Y-15367D01*
X60621Y-15367D01*
X60500Y-15417D01*
X60408Y-15509D01*
X60358Y-15630D01*
X60358Y-15761D01*
X60408Y-15882D01*
X60500Y-15974D01*
X60621Y-16024D01*
X60752Y-16025D01*
X60872Y-15975D01*
X60965Y-15882D01*
X61015Y-15761D01*
X61015Y-15631D01*
X61015Y-18373D01*
X60965Y-18352D01*
X60834Y-18352D01*
X60781Y-18373D01*
X60781Y-16313D01*
X60731Y-16192D01*
X60639Y-16100D01*
X60518Y-16050D01*
X60387Y-16050D01*
X60267Y-16100D01*
X60174Y-16192D01*
X60169Y-16205D01*
X60062Y-16249D01*
X59970Y-16341D01*
X59960Y-16365D01*
X59890Y-16294D01*
X59769Y-16244D01*
X59638Y-16244D01*
X59517Y-16293D01*
X59464Y-16346D01*
X59464Y-15439D01*
X59414Y-15319D01*
X59322Y-15226D01*
X59201Y-15176D01*
X59070Y-15176D01*
X58949Y-15226D01*
X58868Y-15307D01*
X58829Y-15269D01*
X58708Y-15219D01*
X58577Y-15218D01*
X58457Y-15268D01*
X58364Y-15361D01*
X58314Y-15482D01*
X58314Y-15612D01*
X58364Y-15733D01*
X58456Y-15826D01*
X58577Y-15876D01*
X58708Y-15876D01*
X58829Y-15826D01*
X58910Y-15744D01*
X58949Y-15783D01*
X59070Y-15833D01*
X59200Y-15833D01*
X59321Y-15783D01*
X59414Y-15691D01*
X59464Y-15570D01*
X59464Y-15439D01*
X59464Y-16346D01*
X59425Y-16386D01*
X59374Y-16507D01*
X59374Y-16637D01*
X59424Y-16758D01*
X59517Y-16851D01*
X59637Y-16901D01*
X59768Y-16901D01*
X59889Y-16851D01*
X59982Y-16759D01*
X59991Y-16736D01*
X60062Y-16806D01*
X60183Y-16856D01*
X60313Y-16857D01*
X60434Y-16807D01*
X60527Y-16714D01*
X60532Y-16701D01*
X60639Y-16657D01*
X60731Y-16565D01*
X60781Y-16444D01*
X60781Y-16313D01*
X60781Y-18373D01*
X60713Y-18402D01*
X60620Y-18494D01*
X60588Y-18573D01*
X60577Y-18577D01*
X60484Y-18670D01*
X60434Y-18791D01*
X60434Y-18921D01*
X60484Y-19042D01*
X60576Y-19135D01*
X60697Y-19185D01*
X60828Y-19185D01*
X60949Y-19135D01*
X61041Y-19043D01*
X61074Y-18964D01*
X61085Y-18959D01*
X61177Y-18867D01*
X61228Y-18746D01*
X61228Y-18615D01*
X61228Y-19053D01*
X61222Y-19053D01*
X61101Y-19103D01*
X61008Y-19195D01*
X60958Y-19316D01*
X60958Y-19447D01*
X61006Y-19563D01*
X60941Y-19629D01*
X60891Y-19749D01*
X60891Y-19880D01*
X60941Y-20001D01*
X61033Y-20094D01*
X61154Y-20144D01*
X61285Y-20144D01*
X61395Y-20098D01*
X61413Y-20144D01*
X61506Y-20236D01*
X61627Y-20286D01*
X61757Y-20286D01*
X61878Y-20236D01*
X61971Y-20144D01*
X62021Y-20023D01*
X62021Y-19892D01*
X61971Y-19772D01*
X61879Y-19679D01*
X61758Y-19629D01*
X61627Y-19629D01*
X61517Y-19674D01*
X61500Y-19633D01*
X61566Y-19568D01*
X61616Y-19447D01*
X61616Y-19353D01*
X61617Y-19354D01*
X61709Y-19447D01*
X61830Y-19497D01*
X61960Y-19497D01*
X62081Y-19447D01*
X62174Y-19355D01*
X62224Y-19234D01*
X62224Y-19103D01*
X62224Y-20254D01*
X62168Y-20254D01*
X62068Y-20254D01*
X61976Y-20292D01*
X61906Y-20362D01*
X61868Y-20454D01*
X61868Y-21816D01*
X61930Y-21879D01*
X63493Y-21879D01*
X63493Y-21979D01*
X61930Y-21979D01*
X61868Y-22041D01*
X61868Y-23403D01*
X61906Y-23495D01*
X61976Y-23566D01*
X62068Y-23604D01*
X62168Y-23604D01*
X63430Y-23604D01*
X63493Y-23541D01*
X63493Y-23750D01*
X63481Y-23738D01*
X63361Y-23688D01*
X63230Y-23688D01*
X63109Y-23738D01*
X63016Y-23831D01*
X62966Y-23951D01*
X62966Y-24082D01*
X63016Y-24203D01*
X63108Y-24296D01*
X63229Y-24346D01*
X63360Y-24346D01*
X63481Y-24296D01*
X63573Y-24203D01*
X63624Y-24083D01*
X63624Y-23952D01*
X63624Y-33194D01*
X63450Y-33194D01*
X63450Y-25979D01*
X62541Y-26887D01*
X62541Y-23971D01*
X62491Y-23850D01*
X62399Y-23757D01*
X62278Y-23707D01*
X62147Y-23707D01*
X62026Y-23757D01*
X61934Y-23849D01*
X61883Y-23970D01*
X61883Y-24101D01*
X61933Y-24222D01*
X62026Y-24314D01*
X62146Y-24364D01*
X62277Y-24365D01*
X62398Y-24315D01*
X62491Y-24222D01*
X62541Y-24101D01*
X62541Y-23971D01*
X62541Y-26887D01*
X61761Y-27667D01*
X61761Y-21140D01*
X61711Y-21020D01*
X61676Y-20984D01*
X61676Y-20862D01*
X61626Y-20741D01*
X61534Y-20649D01*
X61413Y-20599D01*
X61282Y-20598D01*
X61161Y-20648D01*
X61069Y-20741D01*
X61019Y-20862D01*
X61018Y-20992D01*
X61068Y-21113D01*
X61104Y-21148D01*
X61104Y-21271D01*
X61133Y-21341D01*
X61093Y-21380D01*
X61043Y-21501D01*
X61043Y-21632D01*
X61093Y-21753D01*
X61186Y-21845D01*
X61306Y-21896D01*
X61437Y-21896D01*
X61558Y-21846D01*
X61651Y-21753D01*
X61701Y-21633D01*
X61701Y-21502D01*
X61672Y-21431D01*
X61711Y-21392D01*
X61761Y-21271D01*
X61761Y-21140D01*
X61761Y-27667D01*
X61736Y-27692D01*
X61736Y-22691D01*
X61686Y-22570D01*
X61594Y-22477D01*
X61473Y-22427D01*
X61342Y-22427D01*
X61222Y-22477D01*
X61129Y-22569D01*
X61079Y-22690D01*
X61079Y-22821D01*
X61129Y-22942D01*
X61221Y-23034D01*
X61342Y-23084D01*
X61473Y-23084D01*
X61594Y-23035D01*
X61686Y-22942D01*
X61736Y-22821D01*
X61736Y-22691D01*
X61736Y-27692D01*
X61250Y-28179D01*
X61250Y-33194D01*
X60394Y-33194D01*
X60394Y-20898D01*
X60344Y-20777D01*
X60251Y-20684D01*
X60131Y-20634D01*
X60000Y-20634D01*
X59879Y-20684D01*
X59872Y-20691D01*
X59872Y-17396D01*
X59822Y-17275D01*
X59729Y-17183D01*
X59609Y-17133D01*
X59478Y-17132D01*
X59357Y-17182D01*
X59264Y-17275D01*
X59214Y-17396D01*
X59214Y-17526D01*
X59264Y-17647D01*
X59357Y-17740D01*
X59477Y-17790D01*
X59608Y-17790D01*
X59729Y-17740D01*
X59821Y-17648D01*
X59872Y-17527D01*
X59872Y-17396D01*
X59872Y-20691D01*
X59786Y-20776D01*
X59736Y-20897D01*
X59736Y-21028D01*
X59786Y-21149D01*
X59879Y-21241D01*
X59999Y-21291D01*
X60130Y-21292D01*
X60251Y-21242D01*
X60344Y-21149D01*
X60394Y-21028D01*
X60394Y-20898D01*
X60394Y-33194D01*
X60076Y-33194D01*
X60076Y-26147D01*
X60026Y-26026D01*
X59934Y-25934D01*
X59813Y-25883D01*
X59721Y-25883D01*
X59721Y-21476D01*
X59671Y-21356D01*
X59579Y-21263D01*
X59487Y-21225D01*
X59487Y-18705D01*
X59437Y-18585D01*
X59345Y-18492D01*
X59224Y-18442D01*
X59093Y-18442D01*
X58972Y-18492D01*
X58880Y-18584D01*
X58829Y-18705D01*
X58829Y-18836D01*
X58879Y-18956D01*
X58972Y-19049D01*
X59092Y-19099D01*
X59223Y-19099D01*
X59344Y-19049D01*
X59437Y-18957D01*
X59487Y-18836D01*
X59487Y-18705D01*
X59487Y-21225D01*
X59458Y-21213D01*
X59327Y-21213D01*
X59206Y-21263D01*
X59191Y-21279D01*
X59191Y-20851D01*
X59141Y-20730D01*
X59048Y-20638D01*
X58928Y-20588D01*
X58797Y-20588D01*
X58684Y-20634D01*
X58721Y-20545D01*
X58721Y-20415D01*
X58702Y-20369D01*
X58702Y-17351D01*
X58652Y-17230D01*
X58560Y-17137D01*
X58537Y-17128D01*
X58507Y-17056D01*
X58415Y-16963D01*
X58294Y-16913D01*
X58163Y-16913D01*
X58042Y-16963D01*
X58019Y-16987D01*
X58004Y-16981D01*
X57874Y-16981D01*
X57872Y-16981D01*
X57872Y-15516D01*
X57822Y-15396D01*
X57730Y-15303D01*
X57609Y-15253D01*
X57478Y-15253D01*
X57357Y-15303D01*
X57265Y-15395D01*
X57215Y-15516D01*
X57214Y-15647D01*
X57264Y-15768D01*
X57357Y-15860D01*
X57478Y-15910D01*
X57608Y-15910D01*
X57729Y-15860D01*
X57822Y-15768D01*
X57872Y-15647D01*
X57872Y-15516D01*
X57872Y-16981D01*
X57753Y-17031D01*
X57660Y-17123D01*
X57610Y-17244D01*
X57610Y-17374D01*
X57660Y-17495D01*
X57752Y-17588D01*
X57873Y-17638D01*
X58004Y-17638D01*
X58094Y-17601D01*
X58095Y-17602D01*
X58187Y-17694D01*
X58308Y-17744D01*
X58439Y-17745D01*
X58559Y-17695D01*
X58652Y-17602D01*
X58702Y-17481D01*
X58702Y-17351D01*
X58702Y-20369D01*
X58671Y-20294D01*
X58579Y-20201D01*
X58458Y-20151D01*
X58327Y-20151D01*
X58207Y-20201D01*
X58183Y-20225D01*
X58183Y-19446D01*
X58133Y-19325D01*
X58040Y-19232D01*
X57919Y-19182D01*
X57789Y-19182D01*
X57766Y-19191D01*
X57731Y-19156D01*
X57611Y-19106D01*
X57480Y-19106D01*
X57429Y-19127D01*
X57429Y-18290D01*
X57411Y-18248D01*
X57411Y-16425D01*
X57327Y-16221D01*
X57171Y-16065D01*
X56967Y-15980D01*
X56746Y-15980D01*
X56542Y-16064D01*
X56385Y-16220D01*
X56301Y-16424D01*
X56301Y-16645D01*
X56344Y-16751D01*
X56257Y-16663D01*
X56136Y-16613D01*
X56005Y-16613D01*
X55884Y-16663D01*
X55874Y-16673D01*
X55874Y-15016D01*
X55874Y-14917D01*
X55874Y-14679D01*
X55811Y-14616D01*
X55274Y-14616D01*
X55274Y-15154D01*
X55336Y-15216D01*
X55674Y-15216D01*
X55766Y-15178D01*
X55836Y-15108D01*
X55874Y-15016D01*
X55874Y-16673D01*
X55792Y-16755D01*
X55742Y-16876D01*
X55741Y-17007D01*
X55791Y-17128D01*
X55884Y-17220D01*
X56005Y-17270D01*
X56135Y-17270D01*
X56256Y-17221D01*
X56349Y-17128D01*
X56399Y-17007D01*
X56399Y-16877D01*
X56390Y-16854D01*
X56541Y-17005D01*
X56745Y-17090D01*
X56966Y-17090D01*
X57170Y-17006D01*
X57326Y-16850D01*
X57411Y-16646D01*
X57411Y-16425D01*
X57411Y-18248D01*
X57379Y-18170D01*
X57286Y-18077D01*
X57165Y-18027D01*
X57035Y-18027D01*
X56914Y-18077D01*
X56821Y-18169D01*
X56771Y-18290D01*
X56771Y-18421D01*
X56821Y-18542D01*
X56913Y-18634D01*
X57034Y-18684D01*
X57165Y-18684D01*
X57286Y-18634D01*
X57378Y-18542D01*
X57428Y-18421D01*
X57429Y-18290D01*
X57429Y-19127D01*
X57359Y-19156D01*
X57266Y-19248D01*
X57216Y-19369D01*
X57216Y-19500D01*
X57266Y-19621D01*
X57358Y-19713D01*
X57479Y-19763D01*
X57610Y-19763D01*
X57632Y-19754D01*
X57667Y-19789D01*
X57788Y-19839D01*
X57919Y-19840D01*
X58040Y-19790D01*
X58132Y-19697D01*
X58182Y-19576D01*
X58183Y-19446D01*
X58183Y-20225D01*
X58114Y-20293D01*
X58064Y-20414D01*
X58064Y-20545D01*
X58114Y-20666D01*
X58206Y-20758D01*
X58327Y-20808D01*
X58458Y-20808D01*
X58570Y-20762D01*
X58533Y-20851D01*
X58533Y-20981D01*
X58583Y-21102D01*
X58675Y-21195D01*
X58796Y-21245D01*
X58927Y-21245D01*
X59048Y-21195D01*
X59140Y-21103D01*
X59191Y-20982D01*
X59191Y-20851D01*
X59191Y-21279D01*
X59114Y-21355D01*
X59087Y-21419D01*
X58999Y-21456D01*
X58906Y-21548D01*
X58856Y-21669D01*
X58856Y-21800D01*
X58906Y-21921D01*
X58998Y-22013D01*
X59119Y-22063D01*
X59250Y-22063D01*
X59371Y-22014D01*
X59463Y-21921D01*
X59490Y-21857D01*
X59578Y-21820D01*
X59671Y-21728D01*
X59721Y-21607D01*
X59721Y-21476D01*
X59721Y-25883D01*
X59682Y-25883D01*
X59562Y-25933D01*
X59469Y-26026D01*
X59419Y-26146D01*
X59419Y-26277D01*
X59469Y-26398D01*
X59561Y-26491D01*
X59682Y-26541D01*
X59813Y-26541D01*
X59934Y-26491D01*
X60026Y-26399D01*
X60076Y-26278D01*
X60076Y-26147D01*
X60076Y-33194D01*
X56450Y-33194D01*
X56450Y-31309D01*
X57772Y-27850D01*
X57479Y-27850D01*
X57275Y-28053D01*
X57275Y-24427D01*
X57225Y-24306D01*
X57132Y-24213D01*
X57012Y-24163D01*
X56881Y-24163D01*
X56791Y-24200D01*
X56791Y-18676D01*
X56742Y-18555D01*
X56674Y-18487D01*
X56674Y-17570D01*
X56624Y-17449D01*
X56532Y-17356D01*
X56411Y-17306D01*
X56280Y-17306D01*
X56159Y-17356D01*
X56150Y-17365D01*
X56059Y-17364D01*
X55938Y-17414D01*
X55846Y-17507D01*
X55796Y-17628D01*
X55796Y-17758D01*
X55846Y-17879D01*
X55938Y-17972D01*
X56059Y-18022D01*
X56190Y-18022D01*
X56310Y-17972D01*
X56319Y-17964D01*
X56410Y-17964D01*
X56531Y-17914D01*
X56624Y-17821D01*
X56674Y-17700D01*
X56674Y-17570D01*
X56674Y-18487D01*
X56649Y-18462D01*
X56528Y-18412D01*
X56398Y-18412D01*
X56277Y-18462D01*
X56184Y-18554D01*
X56134Y-18675D01*
X56134Y-18791D01*
X56133Y-18791D01*
X56107Y-18791D01*
X56098Y-18768D01*
X56005Y-18676D01*
X55885Y-18625D01*
X55754Y-18625D01*
X55633Y-18675D01*
X55540Y-18768D01*
X55490Y-18888D01*
X55490Y-19019D01*
X55540Y-19140D01*
X55632Y-19233D01*
X55729Y-19273D01*
X55628Y-19273D01*
X55595Y-19286D01*
X55528Y-19259D01*
X55397Y-19258D01*
X55277Y-19308D01*
X55274Y-19311D01*
X55274Y-15776D01*
X55224Y-15655D01*
X55132Y-15562D01*
X55011Y-15512D01*
X54881Y-15512D01*
X54760Y-15562D01*
X54667Y-15654D01*
X54617Y-15775D01*
X54617Y-15906D01*
X54667Y-16027D01*
X54759Y-16119D01*
X54880Y-16169D01*
X55011Y-16170D01*
X55132Y-16120D01*
X55224Y-16027D01*
X55274Y-15906D01*
X55274Y-15776D01*
X55274Y-19311D01*
X55184Y-19401D01*
X55134Y-19522D01*
X55134Y-19652D01*
X55184Y-19773D01*
X55276Y-19866D01*
X55397Y-19916D01*
X55528Y-19916D01*
X55561Y-19902D01*
X55628Y-19930D01*
X55759Y-19930D01*
X55879Y-19880D01*
X55972Y-19788D01*
X56022Y-19667D01*
X56022Y-19536D01*
X55982Y-19440D01*
X56001Y-19448D01*
X56132Y-19448D01*
X56253Y-19398D01*
X56345Y-19306D01*
X56396Y-19185D01*
X56396Y-19069D01*
X56397Y-19070D01*
X56528Y-19070D01*
X56649Y-19020D01*
X56741Y-18927D01*
X56791Y-18807D01*
X56791Y-18676D01*
X56791Y-24200D01*
X56760Y-24213D01*
X56667Y-24305D01*
X56617Y-24426D01*
X56617Y-24557D01*
X56667Y-24678D01*
X56760Y-24770D01*
X56880Y-24820D01*
X57011Y-24821D01*
X57132Y-24771D01*
X57225Y-24678D01*
X57275Y-24557D01*
X57275Y-24427D01*
X57275Y-28053D01*
X55811Y-29517D01*
X55811Y-24427D01*
X55761Y-24306D01*
X55669Y-24213D01*
X55635Y-24199D01*
X55635Y-20328D01*
X55585Y-20207D01*
X55492Y-20114D01*
X55372Y-20064D01*
X55241Y-20064D01*
X55120Y-20114D01*
X55027Y-20206D01*
X54977Y-20327D01*
X54977Y-20458D01*
X55027Y-20579D01*
X55119Y-20671D01*
X55240Y-20722D01*
X55371Y-20722D01*
X55492Y-20672D01*
X55584Y-20579D01*
X55635Y-20459D01*
X55635Y-20328D01*
X55635Y-24199D01*
X55548Y-24163D01*
X55417Y-24163D01*
X55408Y-24167D01*
X55408Y-23380D01*
X55396Y-23352D01*
X55396Y-22596D01*
X55346Y-22476D01*
X55254Y-22383D01*
X55133Y-22333D01*
X55002Y-22333D01*
X54881Y-22383D01*
X54789Y-22475D01*
X54738Y-22596D01*
X54738Y-22727D01*
X54788Y-22848D01*
X54881Y-22940D01*
X55001Y-22990D01*
X55132Y-22990D01*
X55253Y-22940D01*
X55346Y-22848D01*
X55396Y-22727D01*
X55396Y-22596D01*
X55396Y-23352D01*
X55358Y-23260D01*
X55265Y-23167D01*
X55145Y-23117D01*
X55014Y-23117D01*
X54893Y-23167D01*
X54800Y-23259D01*
X54750Y-23380D01*
X54750Y-23511D01*
X54800Y-23631D01*
X54893Y-23724D01*
X55013Y-23774D01*
X55144Y-23774D01*
X55265Y-23724D01*
X55358Y-23632D01*
X55408Y-23511D01*
X55408Y-23380D01*
X55408Y-24167D01*
X55296Y-24213D01*
X55204Y-24305D01*
X55154Y-24426D01*
X55153Y-24557D01*
X55203Y-24678D01*
X55296Y-24770D01*
X55417Y-24820D01*
X55547Y-24821D01*
X55668Y-24771D01*
X55761Y-24678D01*
X55811Y-24557D01*
X55811Y-24427D01*
X55811Y-29517D01*
X54650Y-30679D01*
X54650Y-32321D01*
X54596Y-32299D01*
X54497Y-32299D01*
X54344Y-32299D01*
X54344Y-31791D01*
X54311Y-31624D01*
X54216Y-31482D01*
X54199Y-31470D01*
X54199Y-16917D01*
X54149Y-16796D01*
X54056Y-16703D01*
X53936Y-16653D01*
X53805Y-16653D01*
X53684Y-16703D01*
X53591Y-16796D01*
X53541Y-16916D01*
X53541Y-17047D01*
X53591Y-17168D01*
X53683Y-17261D01*
X53804Y-17311D01*
X53935Y-17311D01*
X54056Y-17261D01*
X54148Y-17168D01*
X54199Y-17048D01*
X54199Y-16917D01*
X54199Y-31470D01*
X54131Y-31425D01*
X54131Y-20297D01*
X54082Y-20176D01*
X53989Y-20083D01*
X53868Y-20033D01*
X53738Y-20033D01*
X53617Y-20083D01*
X53600Y-20100D01*
X53600Y-17894D01*
X53550Y-17773D01*
X53491Y-17714D01*
X53491Y-16435D01*
X53441Y-16315D01*
X53348Y-16222D01*
X53227Y-16172D01*
X53097Y-16172D01*
X52976Y-16222D01*
X52883Y-16314D01*
X52833Y-16435D01*
X52833Y-16566D01*
X52883Y-16687D01*
X52975Y-16779D01*
X53096Y-16829D01*
X53227Y-16829D01*
X53348Y-16779D01*
X53440Y-16687D01*
X53490Y-16566D01*
X53491Y-16435D01*
X53491Y-17714D01*
X53457Y-17681D01*
X53337Y-17631D01*
X53206Y-17631D01*
X53085Y-17680D01*
X52992Y-17773D01*
X52942Y-17894D01*
X52942Y-18024D01*
X52992Y-18145D01*
X53084Y-18238D01*
X53205Y-18288D01*
X53336Y-18288D01*
X53457Y-18238D01*
X53549Y-18146D01*
X53600Y-18025D01*
X53600Y-17894D01*
X53600Y-20100D01*
X53524Y-20175D01*
X53474Y-20296D01*
X53474Y-20427D01*
X53524Y-20548D01*
X53616Y-20640D01*
X53737Y-20690D01*
X53868Y-20691D01*
X53989Y-20641D01*
X54081Y-20548D01*
X54131Y-20427D01*
X54131Y-20297D01*
X54131Y-31425D01*
X54074Y-31387D01*
X53907Y-31354D01*
X53769Y-31354D01*
X53602Y-31387D01*
X53600Y-31389D01*
X53600Y-21868D01*
X53550Y-21747D01*
X53457Y-21654D01*
X53337Y-21604D01*
X53206Y-21604D01*
X53085Y-21654D01*
X52992Y-21747D01*
X52942Y-21867D01*
X52942Y-21998D01*
X52992Y-22119D01*
X53084Y-22212D01*
X53205Y-22262D01*
X53336Y-22262D01*
X53457Y-22212D01*
X53549Y-22119D01*
X53600Y-21999D01*
X53600Y-21868D01*
X53600Y-31389D01*
X53460Y-31482D01*
X53366Y-31624D01*
X53332Y-31791D01*
X53366Y-31958D01*
X53460Y-32100D01*
X53602Y-32195D01*
X53769Y-32228D01*
X53907Y-32228D01*
X54074Y-32195D01*
X54216Y-32100D01*
X54311Y-31958D01*
X54344Y-31791D01*
X54344Y-32299D01*
X53710Y-32299D01*
X53618Y-32337D01*
X53547Y-32407D01*
X53509Y-32499D01*
X53509Y-32598D01*
X53509Y-33194D01*
X52375Y-33194D01*
X52375Y-31791D01*
X52342Y-31624D01*
X52247Y-31482D01*
X52106Y-31387D01*
X51938Y-31354D01*
X51801Y-31354D01*
X51783Y-31357D01*
X51783Y-30053D01*
X51733Y-29932D01*
X51641Y-29839D01*
X51520Y-29789D01*
X51483Y-29789D01*
X51483Y-29102D01*
X51483Y-28825D01*
X51421Y-28762D01*
X50943Y-28762D01*
X50943Y-29240D01*
X51006Y-29302D01*
X51183Y-29302D01*
X51283Y-29302D01*
X51375Y-29264D01*
X51445Y-29194D01*
X51483Y-29102D01*
X51483Y-29789D01*
X51389Y-29789D01*
X51268Y-29839D01*
X51176Y-29931D01*
X51126Y-30052D01*
X51126Y-30183D01*
X51176Y-30304D01*
X51268Y-30396D01*
X51389Y-30446D01*
X51520Y-30446D01*
X51640Y-30396D01*
X51733Y-30304D01*
X51783Y-30183D01*
X51783Y-30053D01*
X51783Y-31357D01*
X51634Y-31387D01*
X51492Y-31482D01*
X51397Y-31624D01*
X51364Y-31791D01*
X51397Y-31958D01*
X51492Y-32100D01*
X51634Y-32195D01*
X51801Y-32228D01*
X51938Y-32228D01*
X52106Y-32195D01*
X52247Y-32100D01*
X52342Y-31958D01*
X52375Y-31791D01*
X52375Y-33194D01*
X52198Y-33194D01*
X52198Y-33109D01*
X52198Y-32499D01*
X52160Y-32407D01*
X52090Y-32337D01*
X51998Y-32299D01*
X51899Y-32299D01*
X51111Y-32299D01*
X51019Y-32337D01*
X50949Y-32407D01*
X50911Y-32499D01*
X50911Y-32598D01*
X50911Y-33194D01*
X50395Y-33194D01*
X50428Y-33164D01*
X50533Y-32934D01*
X50487Y-32833D01*
X49951Y-32833D01*
X49951Y-32841D01*
X49851Y-32841D01*
X49851Y-32833D01*
X49843Y-32833D01*
X49843Y-32733D01*
X49851Y-32733D01*
X49851Y-32725D01*
X49951Y-32725D01*
X49951Y-32733D01*
X50487Y-32733D01*
X50533Y-32632D01*
X50428Y-32402D01*
X50427Y-32401D01*
X50443Y-32395D01*
X50513Y-32325D01*
X50551Y-32233D01*
X50551Y-32133D01*
X50551Y-31333D01*
X50513Y-31241D01*
X50443Y-31171D01*
X50351Y-31133D01*
X50251Y-31133D01*
X49482Y-31133D01*
X49482Y-29145D01*
X49667Y-29269D01*
X49893Y-29314D01*
X50119Y-29269D01*
X50310Y-29141D01*
X50316Y-29133D01*
X50341Y-29194D01*
X50412Y-29264D01*
X50503Y-29302D01*
X50603Y-29302D01*
X50781Y-29302D01*
X50843Y-29240D01*
X50843Y-28762D01*
X50835Y-28762D01*
X50835Y-28662D01*
X50843Y-28662D01*
X50843Y-28654D01*
X50943Y-28654D01*
X50943Y-28662D01*
X51421Y-28662D01*
X51483Y-28600D01*
X51483Y-28322D01*
X51445Y-28230D01*
X51375Y-28160D01*
X51314Y-28135D01*
X51438Y-27949D01*
X51483Y-27724D01*
X51483Y-27701D01*
X51438Y-27475D01*
X51310Y-27283D01*
X51204Y-27212D01*
X51310Y-27141D01*
X51438Y-26949D01*
X51483Y-26724D01*
X51483Y-26701D01*
X51438Y-26475D01*
X51310Y-26283D01*
X51204Y-26212D01*
X51310Y-26141D01*
X51438Y-25949D01*
X51483Y-25724D01*
X51483Y-25701D01*
X51438Y-25475D01*
X51310Y-25283D01*
X51204Y-25212D01*
X51310Y-25141D01*
X51438Y-24949D01*
X51483Y-24724D01*
X51483Y-24701D01*
X51438Y-24475D01*
X51310Y-24283D01*
X51204Y-24212D01*
X51310Y-24141D01*
X51438Y-23949D01*
X51483Y-23724D01*
X51483Y-23701D01*
X51438Y-23475D01*
X51310Y-23283D01*
X51204Y-23212D01*
X51310Y-23141D01*
X51438Y-22949D01*
X51483Y-22724D01*
X51483Y-22701D01*
X51438Y-22475D01*
X51310Y-22283D01*
X51204Y-22212D01*
X51310Y-22141D01*
X51438Y-21949D01*
X51483Y-21724D01*
X51483Y-21701D01*
X51438Y-21475D01*
X51310Y-21283D01*
X51204Y-21212D01*
X51310Y-21141D01*
X51438Y-20949D01*
X51483Y-20724D01*
X51483Y-20701D01*
X51438Y-20475D01*
X51310Y-20283D01*
X51204Y-20212D01*
X51310Y-20141D01*
X51438Y-19949D01*
X51483Y-19724D01*
X51483Y-19701D01*
X51438Y-19475D01*
X51310Y-19283D01*
X51119Y-19155D01*
X50943Y-19120D01*
X50943Y-19062D01*
X51006Y-19125D01*
X51183Y-19125D01*
X51283Y-19125D01*
X51375Y-19087D01*
X51445Y-19017D01*
X51483Y-18925D01*
X51483Y-18647D01*
X51421Y-18585D01*
X50943Y-18585D01*
X50943Y-18593D01*
X50843Y-18593D01*
X50843Y-18585D01*
X50835Y-18585D01*
X50835Y-18485D01*
X50843Y-18485D01*
X50843Y-18477D01*
X50943Y-18477D01*
X50943Y-18485D01*
X51421Y-18485D01*
X51483Y-18422D01*
X51483Y-18145D01*
X51445Y-18053D01*
X51375Y-17983D01*
X51314Y-17958D01*
X51438Y-17772D01*
X51483Y-17546D01*
X51483Y-17523D01*
X51438Y-17298D01*
X51310Y-17106D01*
X51204Y-17035D01*
X51310Y-16964D01*
X51438Y-16772D01*
X51483Y-16546D01*
X51483Y-16523D01*
X51438Y-16298D01*
X51310Y-16106D01*
X51204Y-16035D01*
X51310Y-15964D01*
X51438Y-15772D01*
X51483Y-15546D01*
X51483Y-15523D01*
X51438Y-15298D01*
X51310Y-15106D01*
X51204Y-15035D01*
X51310Y-14964D01*
X51438Y-14772D01*
X51483Y-14546D01*
X51483Y-14523D01*
X51438Y-14298D01*
X51310Y-14106D01*
X51224Y-14049D01*
X53839Y-14049D01*
X53752Y-14107D01*
X53611Y-14318D01*
X53579Y-14476D01*
X53531Y-14456D01*
X53400Y-14455D01*
X53279Y-14505D01*
X53186Y-14598D01*
X53136Y-14719D01*
X53136Y-14849D01*
X53186Y-14970D01*
X53278Y-15063D01*
X53399Y-15113D01*
X53530Y-15113D01*
X53549Y-15105D01*
X53591Y-15208D01*
X53684Y-15300D01*
X53804Y-15350D01*
X53935Y-15350D01*
X54056Y-15301D01*
X54149Y-15208D01*
X54150Y-15204D01*
X54211Y-15216D01*
X54237Y-15216D01*
X54485Y-15167D01*
X54604Y-15088D01*
X54612Y-15108D01*
X54682Y-15178D01*
X54774Y-15216D01*
X55111Y-15216D01*
X55174Y-15154D01*
X55174Y-14616D01*
X55166Y-14616D01*
X55166Y-14516D01*
X55174Y-14516D01*
X55174Y-14509D01*
X55274Y-14509D01*
X55274Y-14516D01*
X55811Y-14516D01*
X55874Y-14454D01*
X55874Y-14216D01*
X55874Y-14117D01*
X55846Y-14049D01*
X68627Y-14049D01*
X68627Y-17850D01*
X68108Y-17850D01*
X68108Y-16425D01*
X68024Y-16221D01*
X67868Y-16065D01*
X67664Y-15980D01*
X67443Y-15980D01*
X67239Y-16064D01*
X67149Y-16154D01*
X67149Y-15622D01*
X67099Y-15501D01*
X67006Y-15408D01*
X66885Y-15358D01*
X66755Y-15358D01*
X66634Y-15408D01*
X66541Y-15500D01*
X66491Y-15621D01*
X66491Y-15752D01*
X66541Y-15873D01*
X66633Y-15965D01*
X66754Y-16016D01*
X66885Y-16016D01*
X67006Y-15966D01*
X67098Y-15873D01*
X67148Y-15753D01*
X67149Y-15622D01*
X67149Y-16154D01*
X67082Y-16220D01*
X66998Y-16424D01*
X66997Y-16645D01*
X67082Y-16849D01*
X67238Y-17005D01*
X67442Y-17090D01*
X67663Y-17090D01*
X67867Y-17006D01*
X68023Y-16850D01*
X68108Y-16646D01*
X68108Y-16425D01*
X68108Y-17850D01*
X68077Y-17850D01*
X67408Y-18614D01*
X67408Y-18586D01*
X67358Y-18465D01*
X67266Y-18373D01*
X67145Y-18323D01*
X67014Y-18323D01*
X66893Y-18372D01*
X66801Y-18465D01*
X66751Y-18586D01*
X66750Y-18716D01*
X66800Y-18837D01*
X66893Y-18930D01*
X67014Y-18980D01*
X67144Y-18980D01*
X67265Y-18930D01*
X67358Y-18838D01*
X67386Y-18770D01*
X67573Y-19050D01*
X68627Y-19050D01*
X68627Y-23450D01*
X65979Y-23450D01*
X65957Y-23471D01*
X65957Y-18717D01*
X65907Y-18596D01*
X65815Y-18503D01*
X65694Y-18453D01*
X65669Y-18453D01*
X65669Y-16335D01*
X65619Y-16214D01*
X65527Y-16121D01*
X65406Y-16071D01*
X65275Y-16071D01*
X65154Y-16121D01*
X65062Y-16213D01*
X65012Y-16334D01*
X65012Y-16465D01*
X65061Y-16586D01*
X65154Y-16678D01*
X65275Y-16729D01*
X65405Y-16729D01*
X65526Y-16679D01*
X65619Y-16586D01*
X65669Y-16466D01*
X65669Y-16335D01*
X65669Y-18453D01*
X65563Y-18453D01*
X65443Y-18503D01*
X65350Y-18595D01*
X65300Y-18716D01*
X65300Y-18847D01*
X65350Y-18968D01*
X65442Y-19060D01*
X65563Y-19111D01*
X65694Y-19111D01*
X65814Y-19061D01*
X65907Y-18968D01*
X65957Y-18848D01*
X65957Y-18717D01*
X65957Y-23471D01*
X65948Y-23481D01*
X65948Y-21586D01*
X65898Y-21465D01*
X65805Y-21372D01*
X65714Y-21334D01*
X65714Y-20140D01*
X65664Y-20019D01*
X65571Y-19926D01*
X65451Y-19876D01*
X65320Y-19876D01*
X65199Y-19926D01*
X65106Y-20018D01*
X65056Y-20139D01*
X65056Y-20270D01*
X65018Y-20254D01*
X64989Y-20254D01*
X64989Y-15930D01*
X64939Y-15809D01*
X64850Y-15720D01*
X64854Y-15716D01*
X64904Y-15595D01*
X64904Y-15465D01*
X64854Y-15344D01*
X64762Y-15251D01*
X64641Y-15201D01*
X64510Y-15201D01*
X64389Y-15251D01*
X64297Y-15343D01*
X64246Y-15464D01*
X64246Y-15516D01*
X64177Y-15446D01*
X64056Y-15396D01*
X63925Y-15396D01*
X63804Y-15446D01*
X63712Y-15538D01*
X63682Y-15610D01*
X63682Y-15458D01*
X63632Y-15337D01*
X63539Y-15245D01*
X63419Y-15195D01*
X63288Y-15195D01*
X63167Y-15245D01*
X63074Y-15337D01*
X63024Y-15458D01*
X63024Y-15589D01*
X63074Y-15709D01*
X63166Y-15802D01*
X63287Y-15852D01*
X63418Y-15852D01*
X63539Y-15802D01*
X63631Y-15710D01*
X63682Y-15589D01*
X63682Y-15458D01*
X63682Y-15610D01*
X63661Y-15659D01*
X63661Y-15790D01*
X63711Y-15910D01*
X63804Y-16003D01*
X63924Y-16053D01*
X64055Y-16053D01*
X64176Y-16003D01*
X64269Y-15911D01*
X64319Y-15790D01*
X64319Y-15738D01*
X64386Y-15805D01*
X64382Y-15809D01*
X64332Y-15929D01*
X64332Y-16060D01*
X64382Y-16181D01*
X64474Y-16274D01*
X64595Y-16324D01*
X64726Y-16324D01*
X64846Y-16274D01*
X64939Y-16182D01*
X64989Y-16061D01*
X64989Y-15930D01*
X64989Y-20254D01*
X64918Y-20254D01*
X64754Y-20254D01*
X64754Y-17503D01*
X64704Y-17382D01*
X64611Y-17289D01*
X64490Y-17239D01*
X64392Y-17239D01*
X64406Y-17204D01*
X64407Y-17074D01*
X64357Y-16953D01*
X64264Y-16860D01*
X64143Y-16810D01*
X64013Y-16810D01*
X63892Y-16860D01*
X63799Y-16952D01*
X63749Y-17073D01*
X63749Y-17204D01*
X63799Y-17325D01*
X63891Y-17417D01*
X64012Y-17467D01*
X64110Y-17467D01*
X64096Y-17502D01*
X64096Y-17633D01*
X64146Y-17754D01*
X64238Y-17846D01*
X64359Y-17896D01*
X64490Y-17896D01*
X64611Y-17847D01*
X64703Y-17754D01*
X64753Y-17633D01*
X64754Y-17503D01*
X64754Y-20254D01*
X63768Y-20254D01*
X63768Y-17375D01*
X63718Y-17254D01*
X63626Y-17161D01*
X63505Y-17111D01*
X63375Y-17111D01*
X63334Y-17128D01*
X63334Y-16865D01*
X63284Y-16744D01*
X63192Y-16651D01*
X63071Y-16601D01*
X62940Y-16601D01*
X62819Y-16651D01*
X62727Y-16743D01*
X62677Y-16864D01*
X62677Y-16995D01*
X62727Y-17116D01*
X62819Y-17208D01*
X62940Y-17259D01*
X63071Y-17259D01*
X63191Y-17209D01*
X63284Y-17116D01*
X63334Y-16996D01*
X63334Y-16865D01*
X63334Y-17128D01*
X63254Y-17161D01*
X63161Y-17253D01*
X63111Y-17374D01*
X63111Y-17505D01*
X63161Y-17626D01*
X63253Y-17718D01*
X63374Y-17768D01*
X63505Y-17769D01*
X63626Y-17719D01*
X63718Y-17626D01*
X63768Y-17505D01*
X63768Y-17375D01*
X63768Y-20254D01*
X63655Y-20254D01*
X63593Y-20316D01*
X63593Y-21879D01*
X65155Y-21879D01*
X65218Y-21816D01*
X65218Y-20491D01*
X65319Y-20533D01*
X65450Y-20533D01*
X65571Y-20483D01*
X65664Y-20391D01*
X65714Y-20270D01*
X65714Y-20140D01*
X65714Y-21334D01*
X65684Y-21322D01*
X65554Y-21322D01*
X65433Y-21372D01*
X65340Y-21464D01*
X65290Y-21585D01*
X65290Y-21716D01*
X65340Y-21837D01*
X65432Y-21929D01*
X65553Y-21980D01*
X65684Y-21980D01*
X65805Y-21930D01*
X65897Y-21837D01*
X65947Y-21717D01*
X65948Y-21586D01*
X65948Y-23481D01*
X65750Y-23679D01*
X65750Y-24220D01*
X66150Y-24620D01*
X66150Y-26231D01*
X67650Y-26931D01*
X67650Y-30320D01*
X68627Y-31298D01*
X68627Y-33194D01*
G36*
X65146Y-23571D02*
X61901Y-23533D01*
X61977Y-20287D01*
X65079Y-20324D01*
X65106Y-20391D01*
X65108Y-20393D01*
X65146Y-23571D01*
X65146Y-23571D01*
G37*
X65146Y-23571D02*
X61901Y-23533D01*
X61977Y-20287D01*
X65079Y-20324D01*
X65106Y-20391D01*
X65108Y-20393D01*
X65146Y-23571D01*
M02*
