%FSLAX34Y34*%
G04 Gerber Fmt 3.4, Leading zero omitted, Abs format*
G04 (created by PCBNEW (2014-06-12 BZR 4942)-product) date Wed 18 Jun 2014 12:24:07 AM PDT*
%MOIN*%
G01*
G70*
G90*
G04 APERTURE LIST*
%ADD10C,0.003937*%
%ADD11C,0.004921*%
%ADD12C,0.005000*%
%ADD13C,0.003900*%
%ADD14C,0.005906*%
%ADD15C,0.003100*%
%ADD16C,0.015000*%
%ADD17C,0.002500*%
%ADD18C,0.008000*%
%ADD19C,0.003500*%
%ADD20C,0.005157*%
%ADD21C,0.002400*%
%ADD22C,0.004300*%
%ADD23C,0.004700*%
%ADD24C,0.001200*%
%ADD25C,0.003000*%
G04 APERTURE END LIST*
G54D10*
G54D11*
X63185Y-30164D02*
X63185Y-29967D01*
X63185Y-30061D02*
X63073Y-30061D01*
X63073Y-30164D02*
X63073Y-29967D01*
X62904Y-30154D02*
X62923Y-30164D01*
X62960Y-30164D01*
X62979Y-30154D01*
X62988Y-30136D01*
X62988Y-30061D01*
X62979Y-30042D01*
X62960Y-30033D01*
X62923Y-30033D01*
X62904Y-30042D01*
X62895Y-30061D01*
X62895Y-30079D01*
X62988Y-30098D01*
X62810Y-30164D02*
X62810Y-30033D01*
X62810Y-30070D02*
X62801Y-30051D01*
X62792Y-30042D01*
X62773Y-30033D01*
X62754Y-30033D01*
X62689Y-30164D02*
X62689Y-30033D01*
X62689Y-30051D02*
X62679Y-30042D01*
X62660Y-30033D01*
X62632Y-30033D01*
X62614Y-30042D01*
X62604Y-30061D01*
X62604Y-30164D01*
X62604Y-30061D02*
X62595Y-30042D01*
X62576Y-30033D01*
X62548Y-30033D01*
X62529Y-30042D01*
X62520Y-30061D01*
X62520Y-30164D01*
X62351Y-30154D02*
X62370Y-30164D01*
X62407Y-30164D01*
X62426Y-30154D01*
X62435Y-30136D01*
X62435Y-30061D01*
X62426Y-30042D01*
X62407Y-30033D01*
X62370Y-30033D01*
X62351Y-30042D01*
X62342Y-30061D01*
X62342Y-30079D01*
X62435Y-30098D01*
X62267Y-30154D02*
X62248Y-30164D01*
X62210Y-30164D01*
X62192Y-30154D01*
X62182Y-30136D01*
X62182Y-30126D01*
X62192Y-30108D01*
X62210Y-30098D01*
X62239Y-30098D01*
X62257Y-30089D01*
X62267Y-30070D01*
X62267Y-30061D01*
X62257Y-30042D01*
X62239Y-30033D01*
X62210Y-30033D01*
X62192Y-30042D01*
X62098Y-30089D02*
X61948Y-30089D01*
X61761Y-30164D02*
X61854Y-30164D01*
X61854Y-29967D01*
X61695Y-30164D02*
X61695Y-30033D01*
X61695Y-29967D02*
X61704Y-29976D01*
X61695Y-29986D01*
X61686Y-29976D01*
X61695Y-29967D01*
X61695Y-29986D01*
X61629Y-30033D02*
X61554Y-30033D01*
X61601Y-29967D02*
X61601Y-30136D01*
X61592Y-30154D01*
X61573Y-30164D01*
X61554Y-30164D01*
X61414Y-30154D02*
X61432Y-30164D01*
X61470Y-30164D01*
X61489Y-30154D01*
X61498Y-30136D01*
X61498Y-30061D01*
X61489Y-30042D01*
X61470Y-30033D01*
X61432Y-30033D01*
X61414Y-30042D01*
X61404Y-30061D01*
X61404Y-30079D01*
X61498Y-30098D01*
X62656Y-30357D02*
X62609Y-30489D01*
X62562Y-30357D01*
X62234Y-30489D02*
X62346Y-30489D01*
X62290Y-30489D02*
X62290Y-30292D01*
X62309Y-30320D01*
X62328Y-30339D01*
X62346Y-30348D01*
X62150Y-30470D02*
X62140Y-30479D01*
X62150Y-30489D01*
X62159Y-30479D01*
X62150Y-30470D01*
X62150Y-30489D01*
X61953Y-30489D02*
X62065Y-30489D01*
X62009Y-30489D02*
X62009Y-30292D01*
X62028Y-30320D01*
X62046Y-30339D01*
X62065Y-30348D01*
X62712Y-30813D02*
X62712Y-30617D01*
X62599Y-30813D02*
X62684Y-30701D01*
X62599Y-30617D02*
X62712Y-30729D01*
X62421Y-30813D02*
X62515Y-30813D01*
X62515Y-30617D01*
X62374Y-30617D02*
X62243Y-30617D01*
X62328Y-30813D01*
X62168Y-30813D02*
X62168Y-30617D01*
X62056Y-30813D01*
X62056Y-30617D01*
X61971Y-30757D02*
X61878Y-30757D01*
X61990Y-30813D02*
X61925Y-30617D01*
X61859Y-30813D01*
G54D12*
X53675Y-29435D02*
X53175Y-29435D01*
X53675Y-29935D02*
X53185Y-29935D01*
X53675Y-30085D02*
X53675Y-29285D01*
X53675Y-29285D02*
X53175Y-29285D01*
X53175Y-29285D02*
X53175Y-30085D01*
X53175Y-30085D02*
X53675Y-30085D01*
X57179Y-21600D02*
X56679Y-21600D01*
X57179Y-22100D02*
X56689Y-22100D01*
X57179Y-22250D02*
X57179Y-21450D01*
X57179Y-21450D02*
X56679Y-21450D01*
X56679Y-21450D02*
X56679Y-22250D01*
X56679Y-22250D02*
X57179Y-22250D01*
X54698Y-29435D02*
X54198Y-29435D01*
X54698Y-29935D02*
X54208Y-29935D01*
X54698Y-30085D02*
X54698Y-29285D01*
X54698Y-29285D02*
X54198Y-29285D01*
X54198Y-29285D02*
X54198Y-30085D01*
X54198Y-30085D02*
X54698Y-30085D01*
X58005Y-21600D02*
X57505Y-21600D01*
X58005Y-22100D02*
X57515Y-22100D01*
X58005Y-22250D02*
X58005Y-21450D01*
X58005Y-21450D02*
X57505Y-21450D01*
X57505Y-21450D02*
X57505Y-22250D01*
X57505Y-22250D02*
X58005Y-22250D01*
X55852Y-27139D02*
X56352Y-27139D01*
X55852Y-26639D02*
X56342Y-26639D01*
X55852Y-26489D02*
X55852Y-27289D01*
X55852Y-27289D02*
X56352Y-27289D01*
X56352Y-27289D02*
X56352Y-26489D01*
X56352Y-26489D02*
X55852Y-26489D01*
X55891Y-20564D02*
X56391Y-20564D01*
X55891Y-20064D02*
X56381Y-20064D01*
X55891Y-19914D02*
X55891Y-20714D01*
X55891Y-20714D02*
X56391Y-20714D01*
X56391Y-20714D02*
X56391Y-19914D01*
X56391Y-19914D02*
X55891Y-19914D01*
X65458Y-19935D02*
X65958Y-19935D01*
X65458Y-19435D02*
X65948Y-19435D01*
X65458Y-19285D02*
X65458Y-20085D01*
X65458Y-20085D02*
X65958Y-20085D01*
X65958Y-20085D02*
X65958Y-19285D01*
X65958Y-19285D02*
X65458Y-19285D01*
X61797Y-20970D02*
X61797Y-21470D01*
X62297Y-20970D02*
X62297Y-21460D01*
X62447Y-20970D02*
X61647Y-20970D01*
X61647Y-20970D02*
X61647Y-21470D01*
X61647Y-21470D02*
X62447Y-21470D01*
X62447Y-21470D02*
X62447Y-20970D01*
X64486Y-19938D02*
X64986Y-19938D01*
X64486Y-19438D02*
X64976Y-19438D01*
X64486Y-19288D02*
X64486Y-20088D01*
X64486Y-20088D02*
X64986Y-20088D01*
X64986Y-20088D02*
X64986Y-19288D01*
X64986Y-19288D02*
X64486Y-19288D01*
X58175Y-20564D02*
X58675Y-20564D01*
X58175Y-20064D02*
X58665Y-20064D01*
X58175Y-19914D02*
X58175Y-20714D01*
X58175Y-20714D02*
X58675Y-20714D01*
X58675Y-20714D02*
X58675Y-19914D01*
X58675Y-19914D02*
X58175Y-19914D01*
X65407Y-22375D02*
X65407Y-21875D01*
X64907Y-22375D02*
X64907Y-21885D01*
X64757Y-22375D02*
X65557Y-22375D01*
X65557Y-22375D02*
X65557Y-21875D01*
X65557Y-21875D02*
X64757Y-21875D01*
X64757Y-21875D02*
X64757Y-22375D01*
X65407Y-21470D02*
X65407Y-20970D01*
X64907Y-21470D02*
X64907Y-20980D01*
X64757Y-21470D02*
X65557Y-21470D01*
X65557Y-21470D02*
X65557Y-20970D01*
X65557Y-20970D02*
X64757Y-20970D01*
X64757Y-20970D02*
X64757Y-21470D01*
X62466Y-23635D02*
X62966Y-23635D01*
X62466Y-23135D02*
X62956Y-23135D01*
X62466Y-22985D02*
X62466Y-23785D01*
X62466Y-23785D02*
X62966Y-23785D01*
X62966Y-23785D02*
X62966Y-22985D01*
X62966Y-22985D02*
X62466Y-22985D01*
X61482Y-23635D02*
X61982Y-23635D01*
X61482Y-23135D02*
X61972Y-23135D01*
X61482Y-22985D02*
X61482Y-23785D01*
X61482Y-23785D02*
X61982Y-23785D01*
X61982Y-23785D02*
X61982Y-22985D01*
X61982Y-22985D02*
X61482Y-22985D01*
X61600Y-26096D02*
X62100Y-26096D01*
X61600Y-25596D02*
X62090Y-25596D01*
X61600Y-25446D02*
X61600Y-26246D01*
X61600Y-26246D02*
X62100Y-26246D01*
X62100Y-26246D02*
X62100Y-25446D01*
X62100Y-25446D02*
X61600Y-25446D01*
X60576Y-26116D02*
X61076Y-26116D01*
X60576Y-25616D02*
X61066Y-25616D01*
X60576Y-25466D02*
X60576Y-26266D01*
X60576Y-26266D02*
X61076Y-26266D01*
X61076Y-26266D02*
X61076Y-25466D01*
X61076Y-25466D02*
X60576Y-25466D01*
X62564Y-26116D02*
X63064Y-26116D01*
X62564Y-25616D02*
X63054Y-25616D01*
X62564Y-25466D02*
X62564Y-26266D01*
X62564Y-26266D02*
X63064Y-26266D01*
X63064Y-26266D02*
X63064Y-25466D01*
X63064Y-25466D02*
X62564Y-25466D01*
X56352Y-25064D02*
X55852Y-25064D01*
X56352Y-25564D02*
X55862Y-25564D01*
X56352Y-25714D02*
X56352Y-24914D01*
X56352Y-24914D02*
X55852Y-24914D01*
X55852Y-24914D02*
X55852Y-25714D01*
X55852Y-25714D02*
X56352Y-25714D01*
X57218Y-24868D02*
X56718Y-24868D01*
X57218Y-25368D02*
X56728Y-25368D01*
X57218Y-25518D02*
X57218Y-24718D01*
X57218Y-24718D02*
X56718Y-24718D01*
X56718Y-24718D02*
X56718Y-25518D01*
X56718Y-25518D02*
X57218Y-25518D01*
X66224Y-28655D02*
X66224Y-28155D01*
X65724Y-28655D02*
X65724Y-28165D01*
X65574Y-28655D02*
X66374Y-28655D01*
X66374Y-28655D02*
X66374Y-28155D01*
X66374Y-28155D02*
X65574Y-28155D01*
X65574Y-28155D02*
X65574Y-28655D01*
X63411Y-23714D02*
X63911Y-23714D01*
X63411Y-23214D02*
X63901Y-23214D01*
X63411Y-23064D02*
X63411Y-23864D01*
X63411Y-23864D02*
X63911Y-23864D01*
X63911Y-23864D02*
X63911Y-23064D01*
X63911Y-23064D02*
X63411Y-23064D01*
X65722Y-29966D02*
X65222Y-29966D01*
X65722Y-30466D02*
X65232Y-30466D01*
X65722Y-30616D02*
X65722Y-29816D01*
X65722Y-29816D02*
X65222Y-29816D01*
X65222Y-29816D02*
X65222Y-30616D01*
X65222Y-30616D02*
X65722Y-30616D01*
X60171Y-30446D02*
X60171Y-29946D01*
X59671Y-30446D02*
X59671Y-29956D01*
X59521Y-30446D02*
X60321Y-30446D01*
X60321Y-30446D02*
X60321Y-29946D01*
X60321Y-29946D02*
X59521Y-29946D01*
X59521Y-29946D02*
X59521Y-30446D01*
X55852Y-23793D02*
X56352Y-23793D01*
X55852Y-23293D02*
X56342Y-23293D01*
X55852Y-23143D02*
X55852Y-23943D01*
X55852Y-23943D02*
X56352Y-23943D01*
X56352Y-23943D02*
X56352Y-23143D01*
X56352Y-23143D02*
X55852Y-23143D01*
X64159Y-23714D02*
X64659Y-23714D01*
X64159Y-23214D02*
X64649Y-23214D01*
X64159Y-23064D02*
X64159Y-23864D01*
X64159Y-23864D02*
X64659Y-23864D01*
X64659Y-23864D02*
X64659Y-23064D01*
X64659Y-23064D02*
X64159Y-23064D01*
X58990Y-30301D02*
X58490Y-30301D01*
X58990Y-30801D02*
X58500Y-30801D01*
X58990Y-30951D02*
X58990Y-30151D01*
X58990Y-30151D02*
X58490Y-30151D01*
X58490Y-30151D02*
X58490Y-30951D01*
X58490Y-30951D02*
X58990Y-30951D01*
X64907Y-23714D02*
X65407Y-23714D01*
X64907Y-23214D02*
X65397Y-23214D01*
X64907Y-23064D02*
X64907Y-23864D01*
X64907Y-23864D02*
X65407Y-23864D01*
X65407Y-23864D02*
X65407Y-23064D01*
X65407Y-23064D02*
X64907Y-23064D01*
X58805Y-16785D02*
X59305Y-16785D01*
X58805Y-16285D02*
X59295Y-16285D01*
X58805Y-16135D02*
X58805Y-16935D01*
X58805Y-16935D02*
X59305Y-16935D01*
X59305Y-16935D02*
X59305Y-16135D01*
X59305Y-16135D02*
X58805Y-16135D01*
X51234Y-31344D02*
X50734Y-31344D01*
X51234Y-31844D02*
X50744Y-31844D01*
X51234Y-31994D02*
X51234Y-31194D01*
X51234Y-31194D02*
X50734Y-31194D01*
X50734Y-31194D02*
X50734Y-31994D01*
X50734Y-31994D02*
X51234Y-31994D01*
X60157Y-31338D02*
X60157Y-30786D01*
X60314Y-31338D02*
X59606Y-31338D01*
X59606Y-31338D02*
X59606Y-30786D01*
X59606Y-30786D02*
X60314Y-30786D01*
X60314Y-30786D02*
X60314Y-31338D01*
G54D13*
X56644Y-26235D02*
G75*
G03X56644Y-26235I-50J0D01*
G74*
G01*
X57044Y-26235D02*
X56644Y-26235D01*
X56644Y-26235D02*
X56644Y-26835D01*
X56644Y-26835D02*
X57044Y-26835D01*
X57444Y-26835D02*
X57844Y-26835D01*
X57844Y-26835D02*
X57844Y-26235D01*
X57844Y-26235D02*
X57444Y-26235D01*
X56644Y-27062D02*
G75*
G03X56644Y-27062I-50J0D01*
G74*
G01*
X57044Y-27062D02*
X56644Y-27062D01*
X56644Y-27062D02*
X56644Y-27662D01*
X56644Y-27662D02*
X57044Y-27662D01*
X57444Y-27662D02*
X57844Y-27662D01*
X57844Y-27662D02*
X57844Y-27062D01*
X57844Y-27062D02*
X57444Y-27062D01*
X56683Y-20388D02*
G75*
G03X56683Y-20388I-50J0D01*
G74*
G01*
X57083Y-20388D02*
X56683Y-20388D01*
X56683Y-20388D02*
X56683Y-20988D01*
X56683Y-20988D02*
X57083Y-20988D01*
X57483Y-20988D02*
X57883Y-20988D01*
X57883Y-20988D02*
X57883Y-20388D01*
X57883Y-20388D02*
X57483Y-20388D01*
X56683Y-23637D02*
G75*
G03X56683Y-23637I-50J0D01*
G74*
G01*
X57083Y-23637D02*
X56683Y-23637D01*
X56683Y-23637D02*
X56683Y-24237D01*
X56683Y-24237D02*
X57083Y-24237D01*
X57483Y-24237D02*
X57883Y-24237D01*
X57883Y-24237D02*
X57883Y-23637D01*
X57883Y-23637D02*
X57483Y-23637D01*
X51531Y-29468D02*
G75*
G03X51531Y-29468I-50J0D01*
G74*
G01*
X51481Y-29918D02*
X51481Y-29518D01*
X51481Y-29518D02*
X50881Y-29518D01*
X50881Y-29518D02*
X50881Y-29918D01*
X50881Y-30318D02*
X50881Y-30718D01*
X50881Y-30718D02*
X51481Y-30718D01*
X51481Y-30718D02*
X51481Y-30318D01*
G54D14*
X57422Y-36344D02*
X59622Y-36344D01*
X59622Y-36344D02*
X59822Y-36144D01*
X59822Y-36144D02*
X59622Y-35944D01*
X59622Y-35944D02*
X59822Y-35744D01*
X59822Y-35744D02*
X59622Y-35544D01*
X59622Y-35544D02*
X59822Y-35344D01*
X59822Y-35344D02*
X59622Y-35144D01*
X59622Y-35144D02*
X59822Y-34944D01*
X57222Y-34944D02*
X57422Y-35144D01*
X57422Y-35144D02*
X57222Y-35344D01*
X57222Y-35344D02*
X57422Y-35544D01*
X57422Y-35544D02*
X57222Y-35744D01*
X57222Y-35744D02*
X57422Y-35944D01*
X57422Y-35944D02*
X57222Y-36144D01*
X57222Y-36144D02*
X57422Y-36344D01*
X59822Y-34944D02*
X59622Y-34744D01*
X59622Y-34744D02*
X59622Y-33944D01*
X59622Y-33944D02*
X60422Y-33944D01*
X60422Y-33944D02*
X60422Y-33544D01*
X60422Y-33544D02*
X56822Y-33544D01*
X56822Y-33544D02*
X56822Y-33944D01*
X56822Y-33944D02*
X57422Y-33944D01*
X57422Y-33944D02*
X57422Y-34744D01*
X57422Y-34744D02*
X57222Y-34944D01*
G54D15*
X49963Y-30659D02*
G75*
G03X49963Y-30659I-62J0D01*
G74*
G01*
X50239Y-29696D02*
X49839Y-29696D01*
X50239Y-30721D02*
X49839Y-30721D01*
X49839Y-29696D02*
X49839Y-30721D01*
X50239Y-30721D02*
X50239Y-29696D01*
G54D16*
X58937Y-21072D02*
X58937Y-20836D01*
X58937Y-20836D02*
X60433Y-20836D01*
X60433Y-20836D02*
X60433Y-21072D01*
X60433Y-21466D02*
X60433Y-21702D01*
X60433Y-21702D02*
X58937Y-21702D01*
X58937Y-21702D02*
X58937Y-21466D01*
X66299Y-31062D02*
X66063Y-31062D01*
X66063Y-31062D02*
X66063Y-29566D01*
X66063Y-29566D02*
X66299Y-29566D01*
X66693Y-29566D02*
X66929Y-29566D01*
X66929Y-29566D02*
X66929Y-31062D01*
X66929Y-31062D02*
X66693Y-31062D01*
G54D12*
X63334Y-29375D02*
X63334Y-27125D01*
X60334Y-27125D02*
X60334Y-29375D01*
X63334Y-27125D02*
X63209Y-27125D01*
X62459Y-27125D02*
X62209Y-27125D01*
X61459Y-27125D02*
X61209Y-27125D01*
X60459Y-27125D02*
X60334Y-27125D01*
X63334Y-29375D02*
X63209Y-29375D01*
X62459Y-29375D02*
X62209Y-29375D01*
X61459Y-29375D02*
X61209Y-29375D01*
X60459Y-29375D02*
X60334Y-29375D01*
G54D17*
X63261Y-28625D02*
G75*
G03X63261Y-28625I-176J0D01*
G74*
G01*
G54D18*
X54379Y-25450D02*
X55579Y-25450D01*
X55579Y-25450D02*
X55579Y-28250D01*
X55579Y-28250D02*
X54379Y-28250D01*
X53179Y-25450D02*
X52879Y-25450D01*
X52879Y-25450D02*
X51979Y-26050D01*
X51979Y-26050D02*
X51979Y-27650D01*
X51979Y-27650D02*
X52879Y-28250D01*
X52879Y-28250D02*
X53179Y-28250D01*
X54340Y-19505D02*
X55540Y-19505D01*
X55540Y-19505D02*
X55540Y-22305D01*
X55540Y-22305D02*
X54340Y-22305D01*
X53140Y-19505D02*
X52840Y-19505D01*
X52840Y-19505D02*
X51940Y-20105D01*
X51940Y-20105D02*
X51940Y-21705D01*
X51940Y-21705D02*
X52840Y-22305D01*
X52840Y-22305D02*
X53140Y-22305D01*
X54340Y-22537D02*
X55540Y-22537D01*
X55540Y-22537D02*
X55540Y-25337D01*
X55540Y-25337D02*
X54340Y-25337D01*
X53140Y-22537D02*
X52840Y-22537D01*
X52840Y-22537D02*
X51940Y-23137D01*
X51940Y-23137D02*
X51940Y-24737D01*
X51940Y-24737D02*
X52840Y-25337D01*
X52840Y-25337D02*
X53140Y-25337D01*
G54D12*
X60036Y-16235D02*
X59736Y-16435D01*
X60736Y-16235D02*
X59711Y-16235D01*
X59711Y-16235D02*
X59711Y-16835D01*
X59711Y-16835D02*
X60736Y-16835D01*
X60736Y-16835D02*
X60736Y-16235D01*
G54D19*
X63214Y-29983D02*
X63214Y-29697D01*
X63714Y-29840D02*
X63214Y-29840D01*
X63714Y-29269D02*
X63714Y-29554D01*
X63714Y-29411D02*
X63214Y-29411D01*
X63285Y-29459D01*
X63333Y-29507D01*
X63357Y-29554D01*
G54D20*
X57498Y-28594D02*
X57498Y-28388D01*
X57419Y-28388D01*
X57400Y-28398D01*
X57390Y-28408D01*
X57380Y-28427D01*
X57380Y-28457D01*
X57390Y-28477D01*
X57400Y-28486D01*
X57419Y-28496D01*
X57498Y-28496D01*
X57301Y-28535D02*
X57203Y-28535D01*
X57321Y-28594D02*
X57252Y-28388D01*
X57184Y-28594D01*
X57144Y-28388D02*
X57075Y-28594D01*
X57007Y-28388D01*
X56938Y-28594D02*
X56938Y-28388D01*
X56889Y-28388D01*
X56859Y-28398D01*
X56840Y-28418D01*
X56830Y-28437D01*
X56820Y-28477D01*
X56820Y-28506D01*
X56830Y-28545D01*
X56840Y-28565D01*
X56859Y-28585D01*
X56889Y-28594D01*
X56938Y-28594D01*
X56732Y-28594D02*
X56732Y-28388D01*
X56683Y-28388D01*
X56653Y-28398D01*
X56633Y-28418D01*
X56624Y-28437D01*
X56614Y-28477D01*
X56614Y-28506D01*
X56624Y-28545D01*
X56633Y-28565D01*
X56653Y-28585D01*
X56683Y-28594D01*
X56732Y-28594D01*
X56417Y-28594D02*
X56535Y-28594D01*
X56476Y-28594D02*
X56476Y-28388D01*
X56496Y-28418D01*
X56516Y-28437D01*
X56535Y-28447D01*
G54D21*
X53857Y-29665D02*
X53862Y-29659D01*
X53868Y-29642D01*
X53868Y-29631D01*
X53862Y-29614D01*
X53851Y-29603D01*
X53840Y-29597D01*
X53818Y-29592D01*
X53801Y-29592D01*
X53778Y-29597D01*
X53767Y-29603D01*
X53756Y-29614D01*
X53750Y-29631D01*
X53750Y-29642D01*
X53756Y-29659D01*
X53761Y-29665D01*
X53868Y-29777D02*
X53868Y-29710D01*
X53868Y-29744D02*
X53750Y-29744D01*
X53767Y-29732D01*
X53778Y-29721D01*
X53784Y-29710D01*
X57361Y-21830D02*
X57366Y-21825D01*
X57372Y-21808D01*
X57372Y-21797D01*
X57366Y-21780D01*
X57355Y-21768D01*
X57344Y-21763D01*
X57321Y-21757D01*
X57305Y-21757D01*
X57282Y-21763D01*
X57271Y-21768D01*
X57260Y-21780D01*
X57254Y-21797D01*
X57254Y-21808D01*
X57260Y-21825D01*
X57265Y-21830D01*
X57265Y-21875D02*
X57260Y-21881D01*
X57254Y-21892D01*
X57254Y-21920D01*
X57260Y-21931D01*
X57265Y-21937D01*
X57276Y-21943D01*
X57288Y-21943D01*
X57305Y-21937D01*
X57372Y-21870D01*
X57372Y-21943D01*
X54880Y-29665D02*
X54886Y-29659D01*
X54892Y-29642D01*
X54892Y-29631D01*
X54886Y-29614D01*
X54875Y-29603D01*
X54864Y-29597D01*
X54841Y-29592D01*
X54824Y-29592D01*
X54802Y-29597D01*
X54791Y-29603D01*
X54779Y-29614D01*
X54774Y-29631D01*
X54774Y-29642D01*
X54779Y-29659D01*
X54785Y-29665D01*
X54774Y-29704D02*
X54774Y-29777D01*
X54819Y-29738D01*
X54819Y-29755D01*
X54824Y-29766D01*
X54830Y-29772D01*
X54841Y-29777D01*
X54869Y-29777D01*
X54880Y-29772D01*
X54886Y-29766D01*
X54892Y-29755D01*
X54892Y-29721D01*
X54886Y-29710D01*
X54880Y-29704D01*
X58188Y-21830D02*
X58193Y-21825D01*
X58199Y-21808D01*
X58199Y-21797D01*
X58193Y-21780D01*
X58182Y-21768D01*
X58171Y-21763D01*
X58148Y-21757D01*
X58131Y-21757D01*
X58109Y-21763D01*
X58098Y-21768D01*
X58086Y-21780D01*
X58081Y-21797D01*
X58081Y-21808D01*
X58086Y-21825D01*
X58092Y-21830D01*
X58120Y-21931D02*
X58199Y-21931D01*
X58075Y-21903D02*
X58159Y-21875D01*
X58159Y-21948D01*
X55754Y-26870D02*
X55760Y-26864D01*
X55765Y-26847D01*
X55765Y-26836D01*
X55760Y-26819D01*
X55748Y-26808D01*
X55737Y-26802D01*
X55715Y-26797D01*
X55698Y-26797D01*
X55675Y-26802D01*
X55664Y-26808D01*
X55653Y-26819D01*
X55647Y-26836D01*
X55647Y-26847D01*
X55653Y-26864D01*
X55658Y-26870D01*
X55647Y-26976D02*
X55647Y-26920D01*
X55703Y-26915D01*
X55698Y-26920D01*
X55692Y-26931D01*
X55692Y-26960D01*
X55698Y-26971D01*
X55703Y-26976D01*
X55715Y-26982D01*
X55743Y-26982D01*
X55754Y-26976D01*
X55760Y-26971D01*
X55765Y-26960D01*
X55765Y-26931D01*
X55760Y-26920D01*
X55754Y-26915D01*
X55793Y-20295D02*
X55799Y-20289D01*
X55805Y-20272D01*
X55805Y-20261D01*
X55799Y-20244D01*
X55788Y-20233D01*
X55777Y-20227D01*
X55754Y-20222D01*
X55737Y-20222D01*
X55715Y-20227D01*
X55703Y-20233D01*
X55692Y-20244D01*
X55687Y-20261D01*
X55687Y-20272D01*
X55692Y-20289D01*
X55698Y-20295D01*
X55687Y-20396D02*
X55687Y-20373D01*
X55692Y-20362D01*
X55698Y-20357D01*
X55715Y-20345D01*
X55737Y-20340D01*
X55782Y-20340D01*
X55793Y-20345D01*
X55799Y-20351D01*
X55805Y-20362D01*
X55805Y-20385D01*
X55799Y-20396D01*
X55793Y-20402D01*
X55782Y-20407D01*
X55754Y-20407D01*
X55743Y-20402D01*
X55737Y-20396D01*
X55732Y-20385D01*
X55732Y-20362D01*
X55737Y-20351D01*
X55743Y-20345D01*
X55754Y-20340D01*
X65360Y-19665D02*
X65366Y-19659D01*
X65372Y-19642D01*
X65372Y-19631D01*
X65366Y-19614D01*
X65355Y-19603D01*
X65343Y-19597D01*
X65321Y-19592D01*
X65304Y-19592D01*
X65282Y-19597D01*
X65270Y-19603D01*
X65259Y-19614D01*
X65254Y-19631D01*
X65254Y-19642D01*
X65259Y-19659D01*
X65265Y-19665D01*
X65254Y-19704D02*
X65254Y-19783D01*
X65372Y-19732D01*
X62066Y-20872D02*
X62072Y-20878D01*
X62089Y-20883D01*
X62100Y-20883D01*
X62117Y-20878D01*
X62128Y-20866D01*
X62134Y-20855D01*
X62139Y-20833D01*
X62139Y-20816D01*
X62134Y-20793D01*
X62128Y-20782D01*
X62117Y-20771D01*
X62100Y-20765D01*
X62089Y-20765D01*
X62072Y-20771D01*
X62066Y-20777D01*
X61999Y-20816D02*
X62010Y-20810D01*
X62016Y-20805D01*
X62021Y-20793D01*
X62021Y-20788D01*
X62016Y-20777D01*
X62010Y-20771D01*
X61999Y-20765D01*
X61977Y-20765D01*
X61965Y-20771D01*
X61960Y-20777D01*
X61954Y-20788D01*
X61954Y-20793D01*
X61960Y-20805D01*
X61965Y-20810D01*
X61977Y-20816D01*
X61999Y-20816D01*
X62010Y-20822D01*
X62016Y-20827D01*
X62021Y-20838D01*
X62021Y-20861D01*
X62016Y-20872D01*
X62010Y-20878D01*
X61999Y-20883D01*
X61977Y-20883D01*
X61965Y-20878D01*
X61960Y-20872D01*
X61954Y-20861D01*
X61954Y-20838D01*
X61960Y-20827D01*
X61965Y-20822D01*
X61977Y-20816D01*
X64388Y-19669D02*
X64393Y-19663D01*
X64399Y-19646D01*
X64399Y-19635D01*
X64393Y-19618D01*
X64382Y-19607D01*
X64371Y-19601D01*
X64349Y-19596D01*
X64332Y-19596D01*
X64309Y-19601D01*
X64298Y-19607D01*
X64287Y-19618D01*
X64281Y-19635D01*
X64281Y-19646D01*
X64287Y-19663D01*
X64292Y-19669D01*
X64399Y-19725D02*
X64399Y-19747D01*
X64393Y-19759D01*
X64388Y-19764D01*
X64371Y-19776D01*
X64349Y-19781D01*
X64304Y-19781D01*
X64292Y-19776D01*
X64287Y-19770D01*
X64281Y-19759D01*
X64281Y-19736D01*
X64287Y-19725D01*
X64292Y-19719D01*
X64304Y-19714D01*
X64332Y-19714D01*
X64343Y-19719D01*
X64349Y-19725D01*
X64354Y-19736D01*
X64354Y-19759D01*
X64349Y-19770D01*
X64343Y-19776D01*
X64332Y-19781D01*
X58077Y-20239D02*
X58082Y-20233D01*
X58088Y-20216D01*
X58088Y-20205D01*
X58082Y-20188D01*
X58071Y-20177D01*
X58060Y-20171D01*
X58038Y-20166D01*
X58021Y-20166D01*
X57998Y-20171D01*
X57987Y-20177D01*
X57976Y-20188D01*
X57970Y-20205D01*
X57970Y-20216D01*
X57976Y-20233D01*
X57981Y-20239D01*
X58088Y-20351D02*
X58088Y-20284D01*
X58088Y-20317D02*
X57970Y-20317D01*
X57987Y-20306D01*
X57998Y-20295D01*
X58004Y-20284D01*
X57970Y-20424D02*
X57970Y-20435D01*
X57976Y-20447D01*
X57981Y-20452D01*
X57993Y-20458D01*
X58015Y-20463D01*
X58043Y-20463D01*
X58066Y-20458D01*
X58077Y-20452D01*
X58082Y-20447D01*
X58088Y-20435D01*
X58088Y-20424D01*
X58082Y-20413D01*
X58077Y-20407D01*
X58066Y-20402D01*
X58043Y-20396D01*
X58015Y-20396D01*
X57993Y-20402D01*
X57981Y-20407D01*
X57976Y-20413D01*
X57970Y-20424D01*
X65233Y-22558D02*
X65238Y-22563D01*
X65255Y-22569D01*
X65267Y-22569D01*
X65283Y-22563D01*
X65295Y-22552D01*
X65300Y-22541D01*
X65306Y-22518D01*
X65306Y-22501D01*
X65300Y-22479D01*
X65295Y-22468D01*
X65283Y-22456D01*
X65267Y-22451D01*
X65255Y-22451D01*
X65238Y-22456D01*
X65233Y-22462D01*
X65120Y-22569D02*
X65188Y-22569D01*
X65154Y-22569D02*
X65154Y-22451D01*
X65165Y-22468D01*
X65177Y-22479D01*
X65188Y-22485D01*
X65076Y-22462D02*
X65070Y-22456D01*
X65059Y-22451D01*
X65031Y-22451D01*
X65019Y-22456D01*
X65014Y-22462D01*
X65008Y-22473D01*
X65008Y-22485D01*
X65014Y-22501D01*
X65081Y-22569D01*
X65008Y-22569D01*
X65233Y-21652D02*
X65238Y-21658D01*
X65255Y-21663D01*
X65267Y-21663D01*
X65283Y-21658D01*
X65295Y-21646D01*
X65300Y-21635D01*
X65306Y-21613D01*
X65306Y-21596D01*
X65300Y-21573D01*
X65295Y-21562D01*
X65283Y-21551D01*
X65267Y-21545D01*
X65255Y-21545D01*
X65238Y-21551D01*
X65233Y-21557D01*
X65120Y-21663D02*
X65188Y-21663D01*
X65154Y-21663D02*
X65154Y-21545D01*
X65165Y-21562D01*
X65177Y-21573D01*
X65188Y-21579D01*
X65019Y-21585D02*
X65019Y-21663D01*
X65047Y-21540D02*
X65076Y-21624D01*
X65002Y-21624D01*
X62368Y-23309D02*
X62374Y-23304D01*
X62379Y-23287D01*
X62379Y-23276D01*
X62374Y-23259D01*
X62363Y-23248D01*
X62351Y-23242D01*
X62329Y-23236D01*
X62312Y-23236D01*
X62290Y-23242D01*
X62278Y-23248D01*
X62267Y-23259D01*
X62261Y-23276D01*
X62261Y-23287D01*
X62267Y-23304D01*
X62273Y-23309D01*
X62379Y-23422D02*
X62379Y-23354D01*
X62379Y-23388D02*
X62261Y-23388D01*
X62278Y-23377D01*
X62290Y-23366D01*
X62295Y-23354D01*
X62261Y-23529D02*
X62261Y-23472D01*
X62318Y-23467D01*
X62312Y-23472D01*
X62306Y-23484D01*
X62306Y-23512D01*
X62312Y-23523D01*
X62318Y-23529D01*
X62329Y-23534D01*
X62357Y-23534D01*
X62368Y-23529D01*
X62374Y-23523D01*
X62379Y-23512D01*
X62379Y-23484D01*
X62374Y-23472D01*
X62368Y-23467D01*
X61384Y-23309D02*
X61390Y-23304D01*
X61395Y-23287D01*
X61395Y-23276D01*
X61390Y-23259D01*
X61378Y-23248D01*
X61367Y-23242D01*
X61345Y-23236D01*
X61328Y-23236D01*
X61305Y-23242D01*
X61294Y-23248D01*
X61283Y-23259D01*
X61277Y-23276D01*
X61277Y-23287D01*
X61283Y-23304D01*
X61288Y-23309D01*
X61395Y-23422D02*
X61395Y-23354D01*
X61395Y-23388D02*
X61277Y-23388D01*
X61294Y-23377D01*
X61305Y-23366D01*
X61311Y-23354D01*
X61277Y-23523D02*
X61277Y-23501D01*
X61283Y-23489D01*
X61288Y-23484D01*
X61305Y-23472D01*
X61328Y-23467D01*
X61373Y-23467D01*
X61384Y-23472D01*
X61390Y-23478D01*
X61395Y-23489D01*
X61395Y-23512D01*
X61390Y-23523D01*
X61384Y-23529D01*
X61373Y-23534D01*
X61345Y-23534D01*
X61333Y-23529D01*
X61328Y-23523D01*
X61322Y-23512D01*
X61322Y-23489D01*
X61328Y-23478D01*
X61333Y-23472D01*
X61345Y-23467D01*
X61502Y-25770D02*
X61508Y-25764D01*
X61513Y-25748D01*
X61513Y-25736D01*
X61508Y-25720D01*
X61496Y-25708D01*
X61485Y-25703D01*
X61463Y-25697D01*
X61446Y-25697D01*
X61423Y-25703D01*
X61412Y-25708D01*
X61401Y-25720D01*
X61395Y-25736D01*
X61395Y-25748D01*
X61401Y-25764D01*
X61407Y-25770D01*
X61513Y-25882D02*
X61513Y-25815D01*
X61513Y-25849D02*
X61395Y-25849D01*
X61412Y-25838D01*
X61423Y-25826D01*
X61429Y-25815D01*
X61395Y-25922D02*
X61395Y-26000D01*
X61513Y-25950D01*
X60478Y-25790D02*
X60484Y-25784D01*
X60490Y-25767D01*
X60490Y-25756D01*
X60484Y-25739D01*
X60473Y-25728D01*
X60462Y-25722D01*
X60439Y-25717D01*
X60422Y-25717D01*
X60400Y-25722D01*
X60389Y-25728D01*
X60377Y-25739D01*
X60372Y-25756D01*
X60372Y-25767D01*
X60377Y-25784D01*
X60383Y-25790D01*
X60490Y-25902D02*
X60490Y-25835D01*
X60490Y-25868D02*
X60372Y-25868D01*
X60389Y-25857D01*
X60400Y-25846D01*
X60405Y-25835D01*
X60422Y-25970D02*
X60417Y-25958D01*
X60411Y-25953D01*
X60400Y-25947D01*
X60394Y-25947D01*
X60383Y-25953D01*
X60377Y-25958D01*
X60372Y-25970D01*
X60372Y-25992D01*
X60377Y-26003D01*
X60383Y-26009D01*
X60394Y-26015D01*
X60400Y-26015D01*
X60411Y-26009D01*
X60417Y-26003D01*
X60422Y-25992D01*
X60422Y-25970D01*
X60428Y-25958D01*
X60433Y-25953D01*
X60445Y-25947D01*
X60467Y-25947D01*
X60478Y-25953D01*
X60484Y-25958D01*
X60490Y-25970D01*
X60490Y-25992D01*
X60484Y-26003D01*
X60478Y-26009D01*
X60467Y-26015D01*
X60445Y-26015D01*
X60433Y-26009D01*
X60428Y-26003D01*
X60422Y-25992D01*
X62467Y-25790D02*
X62472Y-25784D01*
X62478Y-25767D01*
X62478Y-25756D01*
X62472Y-25739D01*
X62461Y-25728D01*
X62450Y-25722D01*
X62427Y-25717D01*
X62410Y-25717D01*
X62388Y-25722D01*
X62377Y-25728D01*
X62365Y-25739D01*
X62360Y-25756D01*
X62360Y-25767D01*
X62365Y-25784D01*
X62371Y-25790D01*
X62478Y-25902D02*
X62478Y-25835D01*
X62478Y-25868D02*
X62360Y-25868D01*
X62377Y-25857D01*
X62388Y-25846D01*
X62394Y-25835D01*
X62478Y-25958D02*
X62478Y-25981D01*
X62472Y-25992D01*
X62467Y-25998D01*
X62450Y-26009D01*
X62427Y-26015D01*
X62382Y-26015D01*
X62371Y-26009D01*
X62365Y-26003D01*
X62360Y-25992D01*
X62360Y-25970D01*
X62365Y-25958D01*
X62371Y-25953D01*
X62382Y-25947D01*
X62410Y-25947D01*
X62422Y-25953D01*
X62427Y-25958D01*
X62433Y-25970D01*
X62433Y-25992D01*
X62427Y-26003D01*
X62422Y-26009D01*
X62410Y-26015D01*
X56534Y-25239D02*
X56540Y-25233D01*
X56545Y-25216D01*
X56545Y-25205D01*
X56540Y-25188D01*
X56528Y-25177D01*
X56517Y-25171D01*
X56495Y-25166D01*
X56478Y-25166D01*
X56455Y-25171D01*
X56444Y-25177D01*
X56433Y-25188D01*
X56427Y-25205D01*
X56427Y-25216D01*
X56433Y-25233D01*
X56438Y-25239D01*
X56438Y-25284D02*
X56433Y-25289D01*
X56427Y-25300D01*
X56427Y-25329D01*
X56433Y-25340D01*
X56438Y-25345D01*
X56450Y-25351D01*
X56461Y-25351D01*
X56478Y-25345D01*
X56545Y-25278D01*
X56545Y-25351D01*
X56427Y-25424D02*
X56427Y-25435D01*
X56433Y-25447D01*
X56438Y-25452D01*
X56450Y-25458D01*
X56472Y-25463D01*
X56500Y-25463D01*
X56523Y-25458D01*
X56534Y-25452D01*
X56540Y-25447D01*
X56545Y-25435D01*
X56545Y-25424D01*
X56540Y-25413D01*
X56534Y-25407D01*
X56523Y-25402D01*
X56500Y-25396D01*
X56472Y-25396D01*
X56450Y-25402D01*
X56438Y-25407D01*
X56433Y-25413D01*
X56427Y-25424D01*
X57400Y-25042D02*
X57406Y-25036D01*
X57411Y-25019D01*
X57411Y-25008D01*
X57406Y-24991D01*
X57395Y-24980D01*
X57383Y-24974D01*
X57361Y-24969D01*
X57344Y-24969D01*
X57321Y-24974D01*
X57310Y-24980D01*
X57299Y-24991D01*
X57293Y-25008D01*
X57293Y-25019D01*
X57299Y-25036D01*
X57305Y-25042D01*
X57305Y-25087D02*
X57299Y-25092D01*
X57293Y-25104D01*
X57293Y-25132D01*
X57299Y-25143D01*
X57305Y-25149D01*
X57316Y-25154D01*
X57327Y-25154D01*
X57344Y-25149D01*
X57411Y-25081D01*
X57411Y-25154D01*
X57411Y-25267D02*
X57411Y-25199D01*
X57411Y-25233D02*
X57293Y-25233D01*
X57310Y-25222D01*
X57321Y-25210D01*
X57327Y-25199D01*
X66050Y-28837D02*
X66055Y-28843D01*
X66072Y-28848D01*
X66083Y-28848D01*
X66100Y-28843D01*
X66112Y-28832D01*
X66117Y-28820D01*
X66123Y-28798D01*
X66123Y-28781D01*
X66117Y-28758D01*
X66112Y-28747D01*
X66100Y-28736D01*
X66083Y-28730D01*
X66072Y-28730D01*
X66055Y-28736D01*
X66050Y-28742D01*
X66005Y-28742D02*
X65999Y-28736D01*
X65988Y-28730D01*
X65960Y-28730D01*
X65949Y-28736D01*
X65943Y-28742D01*
X65937Y-28753D01*
X65937Y-28764D01*
X65943Y-28781D01*
X66010Y-28848D01*
X65937Y-28848D01*
X65898Y-28730D02*
X65825Y-28730D01*
X65864Y-28775D01*
X65847Y-28775D01*
X65836Y-28781D01*
X65831Y-28787D01*
X65825Y-28798D01*
X65825Y-28826D01*
X65831Y-28837D01*
X65836Y-28843D01*
X65847Y-28848D01*
X65881Y-28848D01*
X65892Y-28843D01*
X65898Y-28837D01*
X63313Y-23388D02*
X63319Y-23383D01*
X63324Y-23366D01*
X63324Y-23354D01*
X63319Y-23338D01*
X63307Y-23326D01*
X63296Y-23321D01*
X63274Y-23315D01*
X63257Y-23315D01*
X63234Y-23321D01*
X63223Y-23326D01*
X63212Y-23338D01*
X63206Y-23354D01*
X63206Y-23366D01*
X63212Y-23383D01*
X63218Y-23388D01*
X63218Y-23433D02*
X63212Y-23439D01*
X63206Y-23450D01*
X63206Y-23478D01*
X63212Y-23489D01*
X63218Y-23495D01*
X63229Y-23501D01*
X63240Y-23501D01*
X63257Y-23495D01*
X63324Y-23428D01*
X63324Y-23501D01*
X63246Y-23602D02*
X63324Y-23602D01*
X63201Y-23574D02*
X63285Y-23546D01*
X63285Y-23619D01*
X65904Y-30140D02*
X65910Y-30135D01*
X65915Y-30118D01*
X65915Y-30106D01*
X65910Y-30090D01*
X65898Y-30078D01*
X65887Y-30073D01*
X65865Y-30067D01*
X65848Y-30067D01*
X65825Y-30073D01*
X65814Y-30078D01*
X65803Y-30090D01*
X65797Y-30106D01*
X65797Y-30118D01*
X65803Y-30135D01*
X65809Y-30140D01*
X65809Y-30185D02*
X65803Y-30191D01*
X65797Y-30202D01*
X65797Y-30230D01*
X65803Y-30241D01*
X65809Y-30247D01*
X65820Y-30253D01*
X65831Y-30253D01*
X65848Y-30247D01*
X65915Y-30180D01*
X65915Y-30253D01*
X65797Y-30292D02*
X65797Y-30371D01*
X65915Y-30320D01*
X59997Y-30628D02*
X60002Y-30634D01*
X60019Y-30640D01*
X60030Y-30640D01*
X60047Y-30634D01*
X60058Y-30623D01*
X60064Y-30612D01*
X60070Y-30589D01*
X60070Y-30572D01*
X60064Y-30550D01*
X60058Y-30539D01*
X60047Y-30527D01*
X60030Y-30522D01*
X60019Y-30522D01*
X60002Y-30527D01*
X59997Y-30533D01*
X59957Y-30522D02*
X59884Y-30522D01*
X59924Y-30567D01*
X59907Y-30567D01*
X59895Y-30572D01*
X59890Y-30578D01*
X59884Y-30589D01*
X59884Y-30617D01*
X59890Y-30628D01*
X59895Y-30634D01*
X59907Y-30640D01*
X59940Y-30640D01*
X59952Y-30634D01*
X59957Y-30628D01*
X59839Y-30533D02*
X59834Y-30527D01*
X59822Y-30522D01*
X59794Y-30522D01*
X59783Y-30527D01*
X59777Y-30533D01*
X59772Y-30544D01*
X59772Y-30555D01*
X59777Y-30572D01*
X59845Y-30640D01*
X59772Y-30640D01*
X55754Y-23467D02*
X55760Y-23461D01*
X55765Y-23444D01*
X55765Y-23433D01*
X55760Y-23416D01*
X55748Y-23405D01*
X55737Y-23400D01*
X55715Y-23394D01*
X55698Y-23394D01*
X55675Y-23400D01*
X55664Y-23405D01*
X55653Y-23416D01*
X55647Y-23433D01*
X55647Y-23444D01*
X55653Y-23461D01*
X55658Y-23467D01*
X55647Y-23506D02*
X55647Y-23579D01*
X55692Y-23540D01*
X55692Y-23557D01*
X55698Y-23568D01*
X55703Y-23574D01*
X55715Y-23579D01*
X55743Y-23579D01*
X55754Y-23574D01*
X55760Y-23568D01*
X55765Y-23557D01*
X55765Y-23523D01*
X55760Y-23512D01*
X55754Y-23506D01*
X55647Y-23619D02*
X55647Y-23692D01*
X55692Y-23652D01*
X55692Y-23669D01*
X55698Y-23680D01*
X55703Y-23686D01*
X55715Y-23692D01*
X55743Y-23692D01*
X55754Y-23686D01*
X55760Y-23680D01*
X55765Y-23669D01*
X55765Y-23636D01*
X55760Y-23624D01*
X55754Y-23619D01*
X64061Y-23388D02*
X64067Y-23383D01*
X64072Y-23366D01*
X64072Y-23354D01*
X64067Y-23338D01*
X64055Y-23326D01*
X64044Y-23321D01*
X64022Y-23315D01*
X64005Y-23315D01*
X63982Y-23321D01*
X63971Y-23326D01*
X63960Y-23338D01*
X63954Y-23354D01*
X63954Y-23366D01*
X63960Y-23383D01*
X63966Y-23388D01*
X63954Y-23428D02*
X63954Y-23501D01*
X63999Y-23461D01*
X63999Y-23478D01*
X64005Y-23489D01*
X64011Y-23495D01*
X64022Y-23501D01*
X64050Y-23501D01*
X64061Y-23495D01*
X64067Y-23489D01*
X64072Y-23478D01*
X64072Y-23444D01*
X64067Y-23433D01*
X64061Y-23428D01*
X63994Y-23602D02*
X64072Y-23602D01*
X63949Y-23574D02*
X64033Y-23546D01*
X64033Y-23619D01*
X59172Y-30475D02*
X59177Y-30469D01*
X59183Y-30452D01*
X59183Y-30441D01*
X59177Y-30424D01*
X59166Y-30413D01*
X59155Y-30407D01*
X59132Y-30402D01*
X59116Y-30402D01*
X59093Y-30407D01*
X59082Y-30413D01*
X59071Y-30424D01*
X59065Y-30441D01*
X59065Y-30452D01*
X59071Y-30469D01*
X59076Y-30475D01*
X59065Y-30514D02*
X59065Y-30587D01*
X59110Y-30548D01*
X59110Y-30565D01*
X59116Y-30576D01*
X59121Y-30582D01*
X59132Y-30587D01*
X59161Y-30587D01*
X59172Y-30582D01*
X59177Y-30576D01*
X59183Y-30565D01*
X59183Y-30531D01*
X59177Y-30520D01*
X59172Y-30514D01*
X59065Y-30694D02*
X59065Y-30638D01*
X59121Y-30632D01*
X59116Y-30638D01*
X59110Y-30649D01*
X59110Y-30677D01*
X59116Y-30688D01*
X59121Y-30694D01*
X59132Y-30700D01*
X59161Y-30700D01*
X59172Y-30694D01*
X59177Y-30688D01*
X59183Y-30677D01*
X59183Y-30649D01*
X59177Y-30638D01*
X59172Y-30632D01*
X64809Y-23388D02*
X64815Y-23383D01*
X64820Y-23366D01*
X64820Y-23354D01*
X64815Y-23338D01*
X64804Y-23326D01*
X64792Y-23321D01*
X64770Y-23315D01*
X64753Y-23315D01*
X64730Y-23321D01*
X64719Y-23326D01*
X64708Y-23338D01*
X64702Y-23354D01*
X64702Y-23366D01*
X64708Y-23383D01*
X64714Y-23388D01*
X64702Y-23428D02*
X64702Y-23501D01*
X64747Y-23461D01*
X64747Y-23478D01*
X64753Y-23489D01*
X64759Y-23495D01*
X64770Y-23501D01*
X64798Y-23501D01*
X64809Y-23495D01*
X64815Y-23489D01*
X64820Y-23478D01*
X64820Y-23444D01*
X64815Y-23433D01*
X64809Y-23428D01*
X64702Y-23540D02*
X64702Y-23619D01*
X64820Y-23568D01*
X58707Y-16459D02*
X58712Y-16453D01*
X58718Y-16437D01*
X58718Y-16425D01*
X58712Y-16409D01*
X58701Y-16397D01*
X58690Y-16392D01*
X58667Y-16386D01*
X58651Y-16386D01*
X58628Y-16392D01*
X58617Y-16397D01*
X58606Y-16409D01*
X58600Y-16425D01*
X58600Y-16437D01*
X58606Y-16453D01*
X58611Y-16459D01*
X58600Y-16498D02*
X58600Y-16571D01*
X58645Y-16532D01*
X58645Y-16549D01*
X58651Y-16560D01*
X58656Y-16566D01*
X58667Y-16571D01*
X58696Y-16571D01*
X58707Y-16566D01*
X58712Y-16560D01*
X58718Y-16549D01*
X58718Y-16515D01*
X58712Y-16504D01*
X58707Y-16498D01*
X58651Y-16639D02*
X58645Y-16628D01*
X58639Y-16622D01*
X58628Y-16616D01*
X58622Y-16616D01*
X58611Y-16622D01*
X58606Y-16628D01*
X58600Y-16639D01*
X58600Y-16661D01*
X58606Y-16673D01*
X58611Y-16678D01*
X58622Y-16684D01*
X58628Y-16684D01*
X58639Y-16678D01*
X58645Y-16673D01*
X58651Y-16661D01*
X58651Y-16639D01*
X58656Y-16628D01*
X58662Y-16622D01*
X58673Y-16616D01*
X58696Y-16616D01*
X58707Y-16622D01*
X58712Y-16628D01*
X58718Y-16639D01*
X58718Y-16661D01*
X58712Y-16673D01*
X58707Y-16678D01*
X58696Y-16684D01*
X58673Y-16684D01*
X58662Y-16678D01*
X58656Y-16673D01*
X58651Y-16661D01*
X51416Y-31518D02*
X51422Y-31513D01*
X51427Y-31496D01*
X51427Y-31484D01*
X51422Y-31468D01*
X51410Y-31456D01*
X51399Y-31451D01*
X51377Y-31445D01*
X51360Y-31445D01*
X51337Y-31451D01*
X51326Y-31456D01*
X51315Y-31468D01*
X51309Y-31484D01*
X51309Y-31496D01*
X51315Y-31513D01*
X51320Y-31518D01*
X51309Y-31557D02*
X51309Y-31631D01*
X51354Y-31591D01*
X51354Y-31608D01*
X51360Y-31619D01*
X51365Y-31625D01*
X51377Y-31631D01*
X51405Y-31631D01*
X51416Y-31625D01*
X51422Y-31619D01*
X51427Y-31608D01*
X51427Y-31574D01*
X51422Y-31563D01*
X51416Y-31557D01*
X51427Y-31687D02*
X51427Y-31709D01*
X51422Y-31720D01*
X51416Y-31726D01*
X51399Y-31737D01*
X51377Y-31743D01*
X51332Y-31743D01*
X51320Y-31737D01*
X51315Y-31732D01*
X51309Y-31720D01*
X51309Y-31698D01*
X51315Y-31687D01*
X51320Y-31681D01*
X51332Y-31675D01*
X51360Y-31675D01*
X51371Y-31681D01*
X51377Y-31687D01*
X51382Y-31698D01*
X51382Y-31720D01*
X51377Y-31732D01*
X51371Y-31737D01*
X51360Y-31743D01*
G54D13*
X60076Y-31567D02*
X60076Y-31410D01*
X60039Y-31410D01*
X60016Y-31417D01*
X60001Y-31432D01*
X59994Y-31447D01*
X59986Y-31477D01*
X59986Y-31499D01*
X59994Y-31529D01*
X60001Y-31544D01*
X60016Y-31559D01*
X60039Y-31567D01*
X60076Y-31567D01*
X59837Y-31567D02*
X59926Y-31567D01*
X59882Y-31567D02*
X59882Y-31410D01*
X59897Y-31432D01*
X59912Y-31447D01*
X59926Y-31454D01*
G54D22*
X57502Y-26646D02*
X57567Y-26646D01*
X57567Y-26749D02*
X57567Y-26552D01*
X57473Y-26552D01*
X57333Y-26646D02*
X57305Y-26655D01*
X57295Y-26665D01*
X57286Y-26683D01*
X57286Y-26712D01*
X57295Y-26730D01*
X57305Y-26740D01*
X57323Y-26749D01*
X57398Y-26749D01*
X57398Y-26552D01*
X57333Y-26552D01*
X57314Y-26561D01*
X57305Y-26571D01*
X57295Y-26590D01*
X57295Y-26608D01*
X57305Y-26627D01*
X57314Y-26636D01*
X57333Y-26646D01*
X57398Y-26646D01*
X57098Y-26749D02*
X57211Y-26749D01*
X57154Y-26749D02*
X57154Y-26552D01*
X57173Y-26580D01*
X57192Y-26599D01*
X57211Y-26608D01*
X56976Y-26552D02*
X56957Y-26552D01*
X56939Y-26561D01*
X56929Y-26571D01*
X56920Y-26590D01*
X56911Y-26627D01*
X56911Y-26674D01*
X56920Y-26712D01*
X56929Y-26730D01*
X56939Y-26740D01*
X56957Y-26749D01*
X56976Y-26749D01*
X56995Y-26740D01*
X57004Y-26730D01*
X57014Y-26712D01*
X57023Y-26674D01*
X57023Y-26627D01*
X57014Y-26590D01*
X57004Y-26571D01*
X56995Y-26561D01*
X56976Y-26552D01*
X57314Y-26371D02*
X57380Y-26371D01*
X57380Y-26474D02*
X57380Y-26277D01*
X57286Y-26277D01*
X57145Y-26371D02*
X57117Y-26380D01*
X57108Y-26390D01*
X57098Y-26408D01*
X57098Y-26437D01*
X57108Y-26455D01*
X57117Y-26465D01*
X57136Y-26474D01*
X57211Y-26474D01*
X57211Y-26277D01*
X57145Y-26277D01*
X57126Y-26286D01*
X57117Y-26296D01*
X57108Y-26315D01*
X57108Y-26333D01*
X57117Y-26352D01*
X57126Y-26361D01*
X57145Y-26371D01*
X57211Y-26371D01*
X57482Y-27426D02*
X57548Y-27426D01*
X57548Y-27530D02*
X57548Y-27333D01*
X57454Y-27333D01*
X57313Y-27426D02*
X57285Y-27436D01*
X57276Y-27445D01*
X57266Y-27464D01*
X57266Y-27492D01*
X57276Y-27511D01*
X57285Y-27520D01*
X57304Y-27530D01*
X57379Y-27530D01*
X57379Y-27333D01*
X57313Y-27333D01*
X57294Y-27342D01*
X57285Y-27351D01*
X57276Y-27370D01*
X57276Y-27389D01*
X57285Y-27408D01*
X57294Y-27417D01*
X57313Y-27426D01*
X57379Y-27426D01*
X57079Y-27530D02*
X57191Y-27530D01*
X57135Y-27530D02*
X57135Y-27333D01*
X57154Y-27361D01*
X57172Y-27379D01*
X57191Y-27389D01*
X56891Y-27530D02*
X57003Y-27530D01*
X56947Y-27530D02*
X56947Y-27333D01*
X56966Y-27361D01*
X56985Y-27379D01*
X57003Y-27389D01*
X57314Y-27198D02*
X57380Y-27198D01*
X57380Y-27301D02*
X57380Y-27104D01*
X57286Y-27104D01*
X57145Y-27198D02*
X57117Y-27207D01*
X57108Y-27216D01*
X57098Y-27235D01*
X57098Y-27263D01*
X57108Y-27282D01*
X57117Y-27291D01*
X57136Y-27301D01*
X57211Y-27301D01*
X57211Y-27104D01*
X57145Y-27104D01*
X57126Y-27113D01*
X57117Y-27123D01*
X57108Y-27141D01*
X57108Y-27160D01*
X57117Y-27179D01*
X57126Y-27188D01*
X57145Y-27198D01*
X57211Y-27198D01*
X57541Y-20799D02*
X57607Y-20799D01*
X57607Y-20903D02*
X57607Y-20706D01*
X57513Y-20706D01*
X57372Y-20799D02*
X57344Y-20809D01*
X57335Y-20818D01*
X57325Y-20837D01*
X57325Y-20865D01*
X57335Y-20884D01*
X57344Y-20893D01*
X57363Y-20903D01*
X57438Y-20903D01*
X57438Y-20706D01*
X57372Y-20706D01*
X57353Y-20715D01*
X57344Y-20724D01*
X57335Y-20743D01*
X57335Y-20762D01*
X57344Y-20781D01*
X57353Y-20790D01*
X57372Y-20799D01*
X57438Y-20799D01*
X57138Y-20903D02*
X57250Y-20903D01*
X57194Y-20903D02*
X57194Y-20706D01*
X57213Y-20734D01*
X57231Y-20753D01*
X57250Y-20762D01*
X57063Y-20724D02*
X57053Y-20715D01*
X57034Y-20706D01*
X56987Y-20706D01*
X56969Y-20715D01*
X56959Y-20724D01*
X56950Y-20743D01*
X56950Y-20762D01*
X56959Y-20790D01*
X57072Y-20903D01*
X56950Y-20903D01*
X57353Y-20524D02*
X57419Y-20524D01*
X57419Y-20628D02*
X57419Y-20431D01*
X57325Y-20431D01*
X57184Y-20524D02*
X57156Y-20534D01*
X57147Y-20543D01*
X57138Y-20562D01*
X57138Y-20590D01*
X57147Y-20609D01*
X57156Y-20618D01*
X57175Y-20628D01*
X57250Y-20628D01*
X57250Y-20431D01*
X57184Y-20431D01*
X57166Y-20440D01*
X57156Y-20449D01*
X57147Y-20468D01*
X57147Y-20487D01*
X57156Y-20506D01*
X57166Y-20515D01*
X57184Y-20524D01*
X57250Y-20524D01*
X57541Y-24047D02*
X57607Y-24047D01*
X57607Y-24151D02*
X57607Y-23954D01*
X57513Y-23954D01*
X57372Y-24047D02*
X57344Y-24057D01*
X57335Y-24066D01*
X57325Y-24085D01*
X57325Y-24113D01*
X57335Y-24132D01*
X57344Y-24141D01*
X57363Y-24151D01*
X57438Y-24151D01*
X57438Y-23954D01*
X57372Y-23954D01*
X57353Y-23963D01*
X57344Y-23972D01*
X57335Y-23991D01*
X57335Y-24010D01*
X57344Y-24029D01*
X57353Y-24038D01*
X57372Y-24047D01*
X57438Y-24047D01*
X57138Y-24151D02*
X57250Y-24151D01*
X57194Y-24151D02*
X57194Y-23954D01*
X57213Y-23982D01*
X57231Y-24001D01*
X57250Y-24010D01*
X56969Y-24019D02*
X56969Y-24151D01*
X57016Y-23944D02*
X57063Y-24085D01*
X56941Y-24085D01*
X57353Y-23772D02*
X57419Y-23772D01*
X57419Y-23876D02*
X57419Y-23679D01*
X57325Y-23679D01*
X57184Y-23772D02*
X57156Y-23782D01*
X57147Y-23791D01*
X57138Y-23810D01*
X57138Y-23838D01*
X57147Y-23857D01*
X57156Y-23866D01*
X57175Y-23876D01*
X57250Y-23876D01*
X57250Y-23679D01*
X57184Y-23679D01*
X57166Y-23688D01*
X57156Y-23697D01*
X57147Y-23716D01*
X57147Y-23735D01*
X57156Y-23754D01*
X57166Y-23763D01*
X57184Y-23772D01*
X57250Y-23772D01*
X51042Y-29860D02*
X51042Y-29794D01*
X51145Y-29794D02*
X50948Y-29794D01*
X50948Y-29888D01*
X51042Y-30028D02*
X51051Y-30057D01*
X51060Y-30066D01*
X51079Y-30075D01*
X51107Y-30075D01*
X51126Y-30066D01*
X51135Y-30057D01*
X51145Y-30038D01*
X51145Y-29963D01*
X50948Y-29963D01*
X50948Y-30028D01*
X50957Y-30047D01*
X50966Y-30057D01*
X50985Y-30066D01*
X51004Y-30066D01*
X51023Y-30057D01*
X51032Y-30047D01*
X51042Y-30028D01*
X51042Y-29963D01*
X51145Y-30263D02*
X51145Y-30150D01*
X51145Y-30207D02*
X50948Y-30207D01*
X50976Y-30188D01*
X50995Y-30169D01*
X51004Y-30150D01*
X50948Y-30441D02*
X50948Y-30347D01*
X51042Y-30338D01*
X51032Y-30347D01*
X51023Y-30366D01*
X51023Y-30413D01*
X51032Y-30432D01*
X51042Y-30441D01*
X51060Y-30451D01*
X51107Y-30451D01*
X51126Y-30441D01*
X51135Y-30432D01*
X51145Y-30413D01*
X51145Y-30366D01*
X51135Y-30347D01*
X51126Y-30338D01*
X51317Y-30047D02*
X51317Y-29982D01*
X51420Y-29982D02*
X51223Y-29982D01*
X51223Y-30075D01*
X51317Y-30216D02*
X51326Y-30244D01*
X51335Y-30254D01*
X51354Y-30263D01*
X51382Y-30263D01*
X51401Y-30254D01*
X51410Y-30244D01*
X51420Y-30225D01*
X51420Y-30150D01*
X51223Y-30150D01*
X51223Y-30216D01*
X51232Y-30235D01*
X51241Y-30244D01*
X51260Y-30254D01*
X51279Y-30254D01*
X51298Y-30244D01*
X51307Y-30235D01*
X51317Y-30216D01*
X51317Y-30150D01*
G54D20*
X55073Y-18951D02*
X55073Y-18745D01*
X54994Y-18745D01*
X54975Y-18755D01*
X54965Y-18764D01*
X54955Y-18784D01*
X54955Y-18814D01*
X54965Y-18833D01*
X54975Y-18843D01*
X54994Y-18853D01*
X55073Y-18853D01*
X54886Y-18745D02*
X54759Y-18745D01*
X54827Y-18823D01*
X54798Y-18823D01*
X54778Y-18833D01*
X54768Y-18843D01*
X54759Y-18863D01*
X54759Y-18912D01*
X54768Y-18931D01*
X54778Y-18941D01*
X54798Y-18951D01*
X54857Y-18951D01*
X54877Y-18941D01*
X54886Y-18931D01*
X56097Y-16644D02*
X56097Y-16438D01*
X56018Y-16438D01*
X55998Y-16448D01*
X55989Y-16457D01*
X55979Y-16477D01*
X55979Y-16506D01*
X55989Y-16526D01*
X55998Y-16536D01*
X56018Y-16546D01*
X56097Y-16546D01*
X55792Y-16438D02*
X55890Y-16438D01*
X55900Y-16536D01*
X55890Y-16526D01*
X55871Y-16516D01*
X55822Y-16516D01*
X55802Y-16526D01*
X55792Y-16536D01*
X55782Y-16556D01*
X55782Y-16605D01*
X55792Y-16624D01*
X55802Y-16634D01*
X55822Y-16644D01*
X55871Y-16644D01*
X55890Y-16634D01*
X55900Y-16624D01*
X58338Y-26093D02*
X58338Y-25887D01*
X58260Y-25887D01*
X58240Y-25896D01*
X58230Y-25906D01*
X58221Y-25926D01*
X58221Y-25955D01*
X58230Y-25975D01*
X58240Y-25985D01*
X58260Y-25995D01*
X58338Y-25995D01*
X58034Y-25887D02*
X58132Y-25887D01*
X58142Y-25985D01*
X58132Y-25975D01*
X58112Y-25965D01*
X58063Y-25965D01*
X58044Y-25975D01*
X58034Y-25985D01*
X58024Y-26004D01*
X58024Y-26054D01*
X58034Y-26073D01*
X58044Y-26083D01*
X58063Y-26093D01*
X58112Y-26093D01*
X58132Y-26083D01*
X58142Y-26073D01*
X57965Y-25887D02*
X57896Y-26093D01*
X57828Y-25887D01*
X57720Y-25887D02*
X57700Y-25887D01*
X57680Y-25896D01*
X57670Y-25906D01*
X57661Y-25926D01*
X57651Y-25965D01*
X57651Y-26014D01*
X57661Y-26054D01*
X57670Y-26073D01*
X57680Y-26083D01*
X57700Y-26093D01*
X57720Y-26093D01*
X57739Y-26083D01*
X57749Y-26073D01*
X57759Y-26054D01*
X57769Y-26014D01*
X57769Y-25965D01*
X57759Y-25926D01*
X57749Y-25906D01*
X57739Y-25896D01*
X57720Y-25887D01*
X61116Y-31796D02*
X60910Y-31796D01*
X60910Y-31875D01*
X60920Y-31894D01*
X60930Y-31904D01*
X60949Y-31914D01*
X60979Y-31914D01*
X60999Y-31904D01*
X61008Y-31894D01*
X61018Y-31875D01*
X61018Y-31796D01*
X60910Y-31983D02*
X60910Y-32120D01*
X61116Y-32032D01*
G54D23*
X50106Y-29574D02*
X50135Y-29559D01*
X50164Y-29531D01*
X50206Y-29488D01*
X50235Y-29474D01*
X50264Y-29474D01*
X50249Y-29545D02*
X50278Y-29531D01*
X50306Y-29502D01*
X50321Y-29445D01*
X50321Y-29345D01*
X50306Y-29288D01*
X50278Y-29259D01*
X50249Y-29245D01*
X50192Y-29245D01*
X50164Y-29259D01*
X50135Y-29288D01*
X50121Y-29345D01*
X50121Y-29445D01*
X50135Y-29502D01*
X50164Y-29531D01*
X50192Y-29545D01*
X50249Y-29545D01*
X49835Y-29545D02*
X50006Y-29545D01*
X49921Y-29545D02*
X49921Y-29245D01*
X49949Y-29288D01*
X49978Y-29316D01*
X50006Y-29331D01*
G54D13*
X50119Y-29693D02*
X50128Y-29721D01*
X50128Y-29768D01*
X50119Y-29787D01*
X50109Y-29796D01*
X50090Y-29805D01*
X50072Y-29805D01*
X50053Y-29796D01*
X50044Y-29787D01*
X50034Y-29768D01*
X50025Y-29730D01*
X50015Y-29712D01*
X50006Y-29702D01*
X49987Y-29693D01*
X49969Y-29693D01*
X49950Y-29702D01*
X49940Y-29712D01*
X49931Y-29730D01*
X49931Y-29777D01*
X49940Y-29805D01*
X50128Y-29890D02*
X49997Y-29890D01*
X49931Y-29890D02*
X49940Y-29881D01*
X49950Y-29890D01*
X49940Y-29899D01*
X49931Y-29890D01*
X49950Y-29890D01*
X49950Y-29974D02*
X49940Y-29984D01*
X49931Y-30002D01*
X49931Y-30049D01*
X49940Y-30068D01*
X49950Y-30078D01*
X49969Y-30087D01*
X49987Y-30087D01*
X50015Y-30078D01*
X50128Y-29965D01*
X50128Y-30087D01*
X49931Y-30153D02*
X49931Y-30275D01*
X50006Y-30209D01*
X50006Y-30237D01*
X50015Y-30256D01*
X50025Y-30265D01*
X50044Y-30275D01*
X50090Y-30275D01*
X50109Y-30265D01*
X50119Y-30256D01*
X50128Y-30237D01*
X50128Y-30181D01*
X50119Y-30162D01*
X50109Y-30153D01*
X49931Y-30396D02*
X49931Y-30415D01*
X49940Y-30434D01*
X49950Y-30443D01*
X49969Y-30453D01*
X50006Y-30462D01*
X50053Y-30462D01*
X50090Y-30453D01*
X50109Y-30443D01*
X50119Y-30434D01*
X50128Y-30415D01*
X50128Y-30396D01*
X50119Y-30378D01*
X50109Y-30368D01*
X50090Y-30359D01*
X50053Y-30350D01*
X50006Y-30350D01*
X49969Y-30359D01*
X49950Y-30368D01*
X49940Y-30378D01*
X49931Y-30396D01*
X50128Y-30650D02*
X50128Y-30537D01*
X50128Y-30593D02*
X49931Y-30593D01*
X49959Y-30575D01*
X49978Y-30556D01*
X49987Y-30537D01*
G54D24*
X59695Y-22182D02*
X59715Y-22154D01*
X59729Y-22182D02*
X59729Y-22122D01*
X59706Y-22122D01*
X59700Y-22125D01*
X59697Y-22128D01*
X59695Y-22134D01*
X59695Y-22142D01*
X59697Y-22148D01*
X59700Y-22151D01*
X59706Y-22154D01*
X59729Y-22154D01*
X59672Y-22128D02*
X59669Y-22125D01*
X59663Y-22122D01*
X59649Y-22122D01*
X59643Y-22125D01*
X59640Y-22128D01*
X59637Y-22134D01*
X59637Y-22139D01*
X59640Y-22148D01*
X59675Y-22182D01*
X59637Y-22182D01*
G54D20*
X67495Y-30241D02*
X67397Y-30172D01*
X67495Y-30123D02*
X67289Y-30123D01*
X67289Y-30202D01*
X67298Y-30221D01*
X67308Y-30231D01*
X67328Y-30241D01*
X67357Y-30241D01*
X67377Y-30231D01*
X67387Y-30221D01*
X67397Y-30202D01*
X67397Y-30123D01*
X67357Y-30418D02*
X67495Y-30418D01*
X67279Y-30369D02*
X67426Y-30320D01*
X67426Y-30447D01*
X58740Y-19636D02*
X58809Y-19538D01*
X58858Y-19636D02*
X58858Y-19430D01*
X58779Y-19430D01*
X58760Y-19440D01*
X58750Y-19449D01*
X58740Y-19469D01*
X58740Y-19499D01*
X58750Y-19518D01*
X58760Y-19528D01*
X58779Y-19538D01*
X58858Y-19538D01*
X58652Y-19528D02*
X58583Y-19528D01*
X58553Y-19636D02*
X58652Y-19636D01*
X58652Y-19430D01*
X58553Y-19430D01*
X58475Y-19626D02*
X58445Y-19636D01*
X58396Y-19636D01*
X58377Y-19626D01*
X58367Y-19616D01*
X58357Y-19597D01*
X58357Y-19577D01*
X58367Y-19558D01*
X58377Y-19548D01*
X58396Y-19538D01*
X58436Y-19528D01*
X58455Y-19518D01*
X58465Y-19508D01*
X58475Y-19489D01*
X58475Y-19469D01*
X58465Y-19449D01*
X58455Y-19440D01*
X58436Y-19430D01*
X58386Y-19430D01*
X58357Y-19440D01*
X58318Y-19656D02*
X58160Y-19656D01*
X58111Y-19528D02*
X58043Y-19528D01*
X58013Y-19636D02*
X58111Y-19636D01*
X58111Y-19430D01*
X58013Y-19430D01*
X57944Y-19430D02*
X57807Y-19636D01*
X57807Y-19430D02*
X57944Y-19636D01*
X57728Y-19636D02*
X57728Y-19430D01*
X57650Y-19430D01*
X57630Y-19440D01*
X57620Y-19449D01*
X57610Y-19469D01*
X57610Y-19499D01*
X57620Y-19518D01*
X57630Y-19528D01*
X57650Y-19538D01*
X57728Y-19538D01*
X57532Y-19499D02*
X57384Y-19499D01*
X57473Y-19410D02*
X57532Y-19675D01*
X57404Y-19587D02*
X57551Y-19587D01*
X57463Y-19675D02*
X57404Y-19410D01*
X57208Y-19636D02*
X57325Y-19636D01*
X57267Y-19636D02*
X57267Y-19430D01*
X57286Y-19459D01*
X57306Y-19479D01*
X57325Y-19489D01*
G54D11*
X53692Y-26750D02*
X53851Y-26750D01*
X53870Y-26759D01*
X53879Y-26768D01*
X53889Y-26787D01*
X53889Y-26825D01*
X53879Y-26843D01*
X53870Y-26853D01*
X53851Y-26862D01*
X53692Y-26862D01*
X53889Y-27059D02*
X53889Y-26946D01*
X53889Y-27003D02*
X53692Y-27003D01*
X53720Y-26984D01*
X53739Y-26965D01*
X53748Y-26946D01*
X53489Y-25648D02*
X53292Y-25648D01*
X53489Y-25761D01*
X53292Y-25761D01*
X53470Y-25967D02*
X53479Y-25957D01*
X53489Y-25929D01*
X53489Y-25911D01*
X53479Y-25882D01*
X53460Y-25864D01*
X53442Y-25854D01*
X53404Y-25845D01*
X53376Y-25845D01*
X53339Y-25854D01*
X53320Y-25864D01*
X53301Y-25882D01*
X53292Y-25911D01*
X53292Y-25929D01*
X53301Y-25957D01*
X53310Y-25967D01*
X53489Y-26051D02*
X53292Y-26051D01*
X53292Y-26126D01*
X53301Y-26145D01*
X53310Y-26154D01*
X53329Y-26164D01*
X53357Y-26164D01*
X53376Y-26154D01*
X53385Y-26145D01*
X53395Y-26126D01*
X53395Y-26051D01*
X53489Y-26351D02*
X53489Y-26239D01*
X53489Y-26295D02*
X53292Y-26295D01*
X53320Y-26276D01*
X53339Y-26257D01*
X53348Y-26239D01*
X53489Y-26539D02*
X53489Y-26426D01*
X53489Y-26482D02*
X53292Y-26482D01*
X53320Y-26464D01*
X53339Y-26445D01*
X53348Y-26426D01*
X53489Y-26726D02*
X53489Y-26614D01*
X53489Y-26670D02*
X53292Y-26670D01*
X53320Y-26651D01*
X53339Y-26632D01*
X53348Y-26614D01*
X53292Y-26792D02*
X53292Y-26923D01*
X53489Y-26839D01*
X53479Y-26989D02*
X53489Y-27017D01*
X53489Y-27064D01*
X53479Y-27082D01*
X53470Y-27092D01*
X53451Y-27101D01*
X53432Y-27101D01*
X53414Y-27092D01*
X53404Y-27082D01*
X53395Y-27064D01*
X53385Y-27026D01*
X53376Y-27007D01*
X53367Y-26998D01*
X53348Y-26989D01*
X53329Y-26989D01*
X53310Y-26998D01*
X53301Y-27007D01*
X53292Y-27026D01*
X53292Y-27073D01*
X53301Y-27101D01*
X53292Y-27157D02*
X53292Y-27270D01*
X53489Y-27214D02*
X53292Y-27214D01*
X53292Y-27317D02*
X53292Y-27438D01*
X53367Y-27373D01*
X53367Y-27401D01*
X53376Y-27420D01*
X53385Y-27429D01*
X53404Y-27438D01*
X53451Y-27438D01*
X53470Y-27429D01*
X53479Y-27420D01*
X53489Y-27401D01*
X53489Y-27345D01*
X53479Y-27326D01*
X53470Y-27317D01*
X53292Y-27504D02*
X53292Y-27626D01*
X53367Y-27560D01*
X53367Y-27588D01*
X53376Y-27607D01*
X53385Y-27617D01*
X53404Y-27626D01*
X53451Y-27626D01*
X53470Y-27617D01*
X53479Y-27607D01*
X53489Y-27588D01*
X53489Y-27532D01*
X53479Y-27513D01*
X53470Y-27504D01*
X53292Y-27682D02*
X53292Y-27795D01*
X53489Y-27738D02*
X53292Y-27738D01*
X53292Y-27842D02*
X53292Y-27963D01*
X53367Y-27898D01*
X53367Y-27926D01*
X53376Y-27945D01*
X53385Y-27954D01*
X53404Y-27963D01*
X53451Y-27963D01*
X53470Y-27954D01*
X53479Y-27945D01*
X53489Y-27926D01*
X53489Y-27870D01*
X53479Y-27851D01*
X53470Y-27842D01*
X53301Y-28151D02*
X53292Y-28132D01*
X53292Y-28104D01*
X53301Y-28076D01*
X53320Y-28057D01*
X53339Y-28048D01*
X53376Y-28038D01*
X53404Y-28038D01*
X53442Y-28048D01*
X53460Y-28057D01*
X53479Y-28076D01*
X53489Y-28104D01*
X53489Y-28123D01*
X53479Y-28151D01*
X53470Y-28160D01*
X53404Y-28160D01*
X53404Y-28123D01*
X53332Y-20755D02*
X53491Y-20755D01*
X53510Y-20764D01*
X53519Y-20774D01*
X53529Y-20793D01*
X53529Y-20830D01*
X53519Y-20849D01*
X53510Y-20858D01*
X53491Y-20868D01*
X53332Y-20868D01*
X53351Y-20952D02*
X53341Y-20961D01*
X53332Y-20980D01*
X53332Y-21027D01*
X53341Y-21046D01*
X53351Y-21055D01*
X53369Y-21064D01*
X53388Y-21064D01*
X53416Y-21055D01*
X53529Y-20943D01*
X53529Y-21064D01*
X54524Y-19236D02*
X54328Y-19236D01*
X54524Y-19349D01*
X54328Y-19349D01*
X54506Y-19555D02*
X54515Y-19546D01*
X54524Y-19517D01*
X54524Y-19499D01*
X54515Y-19471D01*
X54496Y-19452D01*
X54478Y-19443D01*
X54440Y-19433D01*
X54412Y-19433D01*
X54374Y-19443D01*
X54356Y-19452D01*
X54337Y-19471D01*
X54328Y-19499D01*
X54328Y-19517D01*
X54337Y-19546D01*
X54346Y-19555D01*
X54524Y-19639D02*
X54328Y-19639D01*
X54328Y-19714D01*
X54337Y-19733D01*
X54346Y-19742D01*
X54365Y-19752D01*
X54393Y-19752D01*
X54412Y-19742D01*
X54421Y-19733D01*
X54431Y-19714D01*
X54431Y-19639D01*
X54524Y-19939D02*
X54524Y-19827D01*
X54524Y-19883D02*
X54328Y-19883D01*
X54356Y-19864D01*
X54374Y-19846D01*
X54384Y-19827D01*
X54524Y-20127D02*
X54524Y-20014D01*
X54524Y-20071D02*
X54328Y-20071D01*
X54356Y-20052D01*
X54374Y-20033D01*
X54384Y-20014D01*
X54524Y-20314D02*
X54524Y-20202D01*
X54524Y-20258D02*
X54328Y-20258D01*
X54356Y-20239D01*
X54374Y-20221D01*
X54384Y-20202D01*
X54328Y-20380D02*
X54328Y-20511D01*
X54524Y-20427D01*
X54515Y-20577D02*
X54524Y-20605D01*
X54524Y-20652D01*
X54515Y-20670D01*
X54506Y-20680D01*
X54487Y-20689D01*
X54468Y-20689D01*
X54449Y-20680D01*
X54440Y-20670D01*
X54431Y-20652D01*
X54421Y-20614D01*
X54412Y-20595D01*
X54403Y-20586D01*
X54384Y-20577D01*
X54365Y-20577D01*
X54346Y-20586D01*
X54337Y-20595D01*
X54328Y-20614D01*
X54328Y-20661D01*
X54337Y-20689D01*
X54328Y-20745D02*
X54328Y-20858D01*
X54524Y-20802D02*
X54328Y-20802D01*
X54328Y-20905D02*
X54328Y-21027D01*
X54403Y-20961D01*
X54403Y-20989D01*
X54412Y-21008D01*
X54421Y-21017D01*
X54440Y-21027D01*
X54487Y-21027D01*
X54506Y-21017D01*
X54515Y-21008D01*
X54524Y-20989D01*
X54524Y-20933D01*
X54515Y-20914D01*
X54506Y-20905D01*
X54328Y-21092D02*
X54328Y-21214D01*
X54403Y-21149D01*
X54403Y-21177D01*
X54412Y-21195D01*
X54421Y-21205D01*
X54440Y-21214D01*
X54487Y-21214D01*
X54506Y-21205D01*
X54515Y-21195D01*
X54524Y-21177D01*
X54524Y-21120D01*
X54515Y-21102D01*
X54506Y-21092D01*
X54328Y-21270D02*
X54328Y-21383D01*
X54524Y-21327D02*
X54328Y-21327D01*
X54328Y-21430D02*
X54328Y-21552D01*
X54403Y-21486D01*
X54403Y-21514D01*
X54412Y-21533D01*
X54421Y-21542D01*
X54440Y-21552D01*
X54487Y-21552D01*
X54506Y-21542D01*
X54515Y-21533D01*
X54524Y-21514D01*
X54524Y-21458D01*
X54515Y-21439D01*
X54506Y-21430D01*
X54337Y-21739D02*
X54328Y-21720D01*
X54328Y-21692D01*
X54337Y-21664D01*
X54356Y-21645D01*
X54374Y-21636D01*
X54412Y-21627D01*
X54440Y-21627D01*
X54478Y-21636D01*
X54496Y-21645D01*
X54515Y-21664D01*
X54524Y-21692D01*
X54524Y-21711D01*
X54515Y-21739D01*
X54506Y-21748D01*
X54440Y-21748D01*
X54440Y-21711D01*
X53332Y-23787D02*
X53491Y-23787D01*
X53510Y-23796D01*
X53519Y-23805D01*
X53529Y-23824D01*
X53529Y-23862D01*
X53519Y-23880D01*
X53510Y-23890D01*
X53491Y-23899D01*
X53332Y-23899D01*
X53332Y-24086D02*
X53332Y-23993D01*
X53426Y-23983D01*
X53416Y-23993D01*
X53407Y-24011D01*
X53407Y-24058D01*
X53416Y-24077D01*
X53426Y-24086D01*
X53444Y-24096D01*
X53491Y-24096D01*
X53510Y-24086D01*
X53519Y-24077D01*
X53529Y-24058D01*
X53529Y-24011D01*
X53519Y-23993D01*
X53510Y-23983D01*
X54129Y-22685D02*
X53932Y-22685D01*
X54129Y-22798D01*
X53932Y-22798D01*
X54110Y-23004D02*
X54119Y-22994D01*
X54129Y-22966D01*
X54129Y-22948D01*
X54119Y-22919D01*
X54101Y-22901D01*
X54082Y-22891D01*
X54044Y-22882D01*
X54016Y-22882D01*
X53979Y-22891D01*
X53960Y-22901D01*
X53941Y-22919D01*
X53932Y-22948D01*
X53932Y-22966D01*
X53941Y-22994D01*
X53951Y-23004D01*
X54129Y-23088D02*
X53932Y-23088D01*
X53932Y-23163D01*
X53941Y-23182D01*
X53951Y-23191D01*
X53969Y-23201D01*
X53997Y-23201D01*
X54016Y-23191D01*
X54026Y-23182D01*
X54035Y-23163D01*
X54035Y-23088D01*
X54129Y-23388D02*
X54129Y-23276D01*
X54129Y-23332D02*
X53932Y-23332D01*
X53960Y-23313D01*
X53979Y-23294D01*
X53988Y-23276D01*
X54129Y-23576D02*
X54129Y-23463D01*
X54129Y-23519D02*
X53932Y-23519D01*
X53960Y-23501D01*
X53979Y-23482D01*
X53988Y-23463D01*
X54129Y-23763D02*
X54129Y-23651D01*
X54129Y-23707D02*
X53932Y-23707D01*
X53960Y-23688D01*
X53979Y-23669D01*
X53988Y-23651D01*
X53932Y-23829D02*
X53932Y-23960D01*
X54129Y-23876D01*
X54119Y-24026D02*
X54129Y-24054D01*
X54129Y-24101D01*
X54119Y-24119D01*
X54110Y-24129D01*
X54091Y-24138D01*
X54072Y-24138D01*
X54054Y-24129D01*
X54044Y-24119D01*
X54035Y-24101D01*
X54026Y-24063D01*
X54016Y-24044D01*
X54007Y-24035D01*
X53988Y-24026D01*
X53969Y-24026D01*
X53951Y-24035D01*
X53941Y-24044D01*
X53932Y-24063D01*
X53932Y-24110D01*
X53941Y-24138D01*
X53932Y-24194D02*
X53932Y-24307D01*
X54129Y-24251D02*
X53932Y-24251D01*
X53932Y-24354D02*
X53932Y-24476D01*
X54007Y-24410D01*
X54007Y-24438D01*
X54016Y-24457D01*
X54026Y-24466D01*
X54044Y-24476D01*
X54091Y-24476D01*
X54110Y-24466D01*
X54119Y-24457D01*
X54129Y-24438D01*
X54129Y-24382D01*
X54119Y-24363D01*
X54110Y-24354D01*
X53932Y-24541D02*
X53932Y-24663D01*
X54007Y-24597D01*
X54007Y-24625D01*
X54016Y-24644D01*
X54026Y-24654D01*
X54044Y-24663D01*
X54091Y-24663D01*
X54110Y-24654D01*
X54119Y-24644D01*
X54129Y-24625D01*
X54129Y-24569D01*
X54119Y-24550D01*
X54110Y-24541D01*
X53932Y-24719D02*
X53932Y-24832D01*
X54129Y-24775D02*
X53932Y-24775D01*
X53932Y-24879D02*
X53932Y-25000D01*
X54007Y-24935D01*
X54007Y-24963D01*
X54016Y-24982D01*
X54026Y-24991D01*
X54044Y-25000D01*
X54091Y-25000D01*
X54110Y-24991D01*
X54119Y-24982D01*
X54129Y-24963D01*
X54129Y-24907D01*
X54119Y-24888D01*
X54110Y-24879D01*
X53941Y-25188D02*
X53932Y-25169D01*
X53932Y-25141D01*
X53941Y-25113D01*
X53960Y-25094D01*
X53979Y-25085D01*
X54016Y-25075D01*
X54044Y-25075D01*
X54082Y-25085D01*
X54101Y-25094D01*
X54119Y-25113D01*
X54129Y-25141D01*
X54129Y-25160D01*
X54119Y-25188D01*
X54110Y-25197D01*
X54044Y-25197D01*
X54044Y-25160D01*
G54D25*
X60858Y-16306D02*
X61101Y-16306D01*
X61130Y-16321D01*
X61144Y-16335D01*
X61158Y-16364D01*
X61158Y-16421D01*
X61144Y-16449D01*
X61130Y-16464D01*
X61101Y-16478D01*
X60858Y-16478D01*
X60858Y-16749D02*
X60858Y-16692D01*
X60873Y-16664D01*
X60887Y-16649D01*
X60930Y-16621D01*
X60987Y-16606D01*
X61101Y-16606D01*
X61130Y-16621D01*
X61144Y-16635D01*
X61158Y-16664D01*
X61158Y-16721D01*
X61144Y-16749D01*
X61130Y-16764D01*
X61101Y-16778D01*
X61030Y-16778D01*
X61001Y-16764D01*
X60987Y-16749D01*
X60973Y-16721D01*
X60973Y-16664D01*
X60987Y-16635D01*
X61001Y-16621D01*
X61030Y-16606D01*
X61569Y-16446D02*
X61560Y-16436D01*
X61541Y-16427D01*
X61494Y-16427D01*
X61476Y-16436D01*
X61466Y-16446D01*
X61457Y-16465D01*
X61457Y-16483D01*
X61466Y-16511D01*
X61579Y-16624D01*
X61457Y-16624D01*
X61279Y-16427D02*
X61372Y-16427D01*
X61382Y-16521D01*
X61372Y-16511D01*
X61354Y-16502D01*
X61307Y-16502D01*
X61288Y-16511D01*
X61279Y-16521D01*
X61269Y-16540D01*
X61269Y-16587D01*
X61279Y-16605D01*
X61288Y-16615D01*
X61307Y-16624D01*
X61354Y-16624D01*
X61372Y-16615D01*
X61382Y-16605D01*
X61194Y-16568D02*
X61100Y-16568D01*
X61213Y-16624D02*
X61147Y-16427D01*
X61082Y-16624D01*
X61025Y-16568D02*
X60931Y-16568D01*
X61044Y-16624D02*
X60978Y-16427D01*
X60913Y-16624D01*
X60810Y-16427D02*
X60791Y-16427D01*
X60772Y-16436D01*
X60763Y-16446D01*
X60753Y-16465D01*
X60744Y-16502D01*
X60744Y-16549D01*
X60753Y-16587D01*
X60763Y-16605D01*
X60772Y-16615D01*
X60791Y-16624D01*
X60810Y-16624D01*
X60828Y-16615D01*
X60838Y-16605D01*
X60847Y-16587D01*
X60856Y-16549D01*
X60856Y-16502D01*
X60847Y-16465D01*
X60838Y-16446D01*
X60828Y-16436D01*
X60810Y-16427D01*
X60669Y-16446D02*
X60659Y-16436D01*
X60641Y-16427D01*
X60594Y-16427D01*
X60575Y-16436D01*
X60566Y-16446D01*
X60556Y-16465D01*
X60556Y-16483D01*
X60566Y-16511D01*
X60678Y-16624D01*
X60556Y-16624D01*
X60472Y-16521D02*
X60406Y-16521D01*
X60378Y-16624D02*
X60472Y-16624D01*
X60472Y-16427D01*
X60378Y-16427D01*
X60209Y-16493D02*
X60209Y-16624D01*
X60256Y-16418D02*
X60303Y-16558D01*
X60181Y-16558D01*
X60078Y-16511D02*
X60097Y-16502D01*
X60106Y-16493D01*
X60115Y-16474D01*
X60115Y-16465D01*
X60106Y-16446D01*
X60097Y-16436D01*
X60078Y-16427D01*
X60040Y-16427D01*
X60022Y-16436D01*
X60012Y-16446D01*
X60003Y-16465D01*
X60003Y-16474D01*
X60012Y-16493D01*
X60022Y-16502D01*
X60040Y-16511D01*
X60078Y-16511D01*
X60097Y-16521D01*
X60106Y-16530D01*
X60115Y-16549D01*
X60115Y-16587D01*
X60106Y-16605D01*
X60097Y-16615D01*
X60078Y-16624D01*
X60040Y-16624D01*
X60022Y-16615D01*
X60012Y-16605D01*
X60003Y-16587D01*
X60003Y-16549D01*
X60012Y-16530D01*
X60022Y-16521D01*
X60040Y-16511D01*
X59946Y-16427D02*
X59834Y-16427D01*
X59890Y-16624D02*
X59890Y-16427D01*
X59768Y-16549D02*
X59618Y-16549D01*
X59524Y-16624D02*
X59524Y-16427D01*
X59290Y-16418D02*
X59459Y-16671D01*
X59187Y-16427D02*
X59149Y-16427D01*
X59130Y-16436D01*
X59112Y-16455D01*
X59102Y-16493D01*
X59102Y-16558D01*
X59112Y-16596D01*
X59130Y-16615D01*
X59149Y-16624D01*
X59187Y-16624D01*
X59205Y-16615D01*
X59224Y-16596D01*
X59234Y-16558D01*
X59234Y-16493D01*
X59224Y-16455D01*
X59205Y-16436D01*
X59187Y-16427D01*
X59046Y-16427D02*
X58933Y-16427D01*
X58990Y-16624D02*
X58990Y-16427D01*
M02*
