%FSLAX34Y34*%
G04 Gerber Fmt 3.4, Leading zero omitted, Abs format*
G04 (created by PCBNEW (2014-06-12 BZR 4942)-product) date Thu 19 Jun 2014 09:02:05 AM PDT*
%MOIN*%
G01*
G70*
G90*
G04 APERTURE LIST*
%ADD10C,0.003937*%
%ADD11O,0.049213X0.037402*%
%ADD12R,0.068000X0.068000*%
%ADD13O,0.068000X0.068000*%
%ADD14R,0.080000X0.080000*%
%ADD15O,0.080000X0.080000*%
%ADD16C,0.015748*%
%ADD17C,0.007874*%
G04 APERTURE END LIST*
G54D10*
G54D11*
X51870Y-31791D03*
X53838Y-31791D03*
G54D10*
G36*
X51948Y-32549D02*
X51948Y-33159D01*
X51161Y-33159D01*
X51161Y-32549D01*
X51948Y-32549D01*
X51948Y-32549D01*
G37*
G36*
X54547Y-32549D02*
X54547Y-33159D01*
X53759Y-33159D01*
X53759Y-32549D01*
X54547Y-32549D01*
X54547Y-32549D01*
G37*
G54D12*
X50893Y-18535D03*
G54D13*
X49893Y-18535D03*
X50893Y-17535D03*
X49893Y-17535D03*
X50893Y-16535D03*
X49893Y-16535D03*
X50893Y-15535D03*
X49893Y-15535D03*
X50893Y-14535D03*
X49893Y-14535D03*
G54D14*
X49901Y-31783D03*
G54D15*
X49901Y-32783D03*
G54D14*
X55224Y-14566D03*
G54D15*
X54224Y-14566D03*
G54D12*
X50893Y-28712D03*
G54D13*
X49893Y-28712D03*
X50893Y-27712D03*
X49893Y-27712D03*
X50893Y-26712D03*
X49893Y-26712D03*
X50893Y-25712D03*
X49893Y-25712D03*
X50893Y-24712D03*
X49893Y-24712D03*
X50893Y-23712D03*
X49893Y-23712D03*
X50893Y-22712D03*
X49893Y-22712D03*
X50893Y-21712D03*
X49893Y-21712D03*
X50893Y-20712D03*
X49893Y-20712D03*
X50893Y-19712D03*
X49893Y-19712D03*
G54D16*
X456523Y-21914D03*
X67106Y-22267D03*
X55059Y-29606D03*
X67096Y-21899D03*
X66486Y-29940D03*
X65570Y-27775D03*
X59448Y-16161D03*
X63799Y-14340D03*
X59832Y-14370D03*
X61079Y-14418D03*
X63809Y-26348D03*
X64590Y-22973D03*
X64590Y-22624D03*
X64590Y-22267D03*
X64590Y-21914D03*
X64590Y-21561D03*
X64590Y-21208D03*
X64590Y-20854D03*
X64236Y-22973D03*
X64236Y-22624D03*
X64236Y-22267D03*
X64236Y-21914D03*
X64236Y-21561D03*
X64236Y-21208D03*
X64236Y-20854D03*
X63881Y-22973D03*
X63881Y-22624D03*
X63881Y-22267D03*
X63881Y-21914D03*
X63881Y-21561D03*
X63881Y-21208D03*
X63881Y-20854D03*
X63527Y-22973D03*
X63527Y-22624D03*
X63527Y-22267D03*
X63527Y-21914D03*
X63527Y-21561D03*
X63527Y-21208D03*
X63527Y-20854D03*
X63177Y-22973D03*
X63177Y-22624D03*
X63177Y-22267D03*
X63177Y-21914D03*
X63177Y-21561D03*
X63177Y-21208D03*
X63177Y-20854D03*
X62822Y-22973D03*
X62822Y-22624D03*
X62822Y-22267D03*
X62822Y-21914D03*
X62822Y-21561D03*
X62822Y-21208D03*
X62822Y-20854D03*
X62468Y-22973D03*
X62468Y-22624D03*
X62468Y-22267D03*
X62468Y-21914D03*
X62468Y-21561D03*
X62468Y-21208D03*
X62468Y-20854D03*
X55601Y-26230D03*
X66421Y-31244D03*
X49606Y-30875D03*
X53439Y-31374D03*
X61879Y-17324D03*
X62579Y-14412D03*
X66579Y-14406D03*
X59055Y-15754D03*
X58640Y-24614D03*
X53934Y-30051D03*
X65009Y-30814D03*
X65517Y-18778D03*
X66146Y-19441D03*
X56102Y-26108D03*
X57377Y-22603D03*
X54889Y-30083D03*
X55585Y-22917D03*
X58329Y-15508D03*
X60303Y-16405D03*
X61269Y-22820D03*
X67836Y-23103D03*
X55643Y-20005D03*
X63945Y-16573D03*
X64823Y-24238D03*
X64025Y-21476D03*
X65718Y-22726D03*
X66245Y-22597D03*
X63848Y-28415D03*
X67421Y-29143D03*
X54078Y-20804D03*
X66157Y-20201D03*
X61751Y-20226D03*
X55688Y-21259D03*
X62279Y-24019D03*
X63457Y-24238D03*
X65668Y-21663D03*
X57657Y-24468D03*
X66033Y-22303D03*
X62401Y-24311D03*
X62529Y-24517D03*
X63806Y-24238D03*
X65462Y-28946D03*
X51455Y-30118D03*
X63996Y-24459D03*
X58031Y-27362D03*
X66072Y-24094D03*
X50374Y-30961D03*
X64262Y-17426D03*
X61202Y-19403D03*
X65226Y-16913D03*
X61221Y-20034D03*
X64855Y-17083D03*
X61147Y-19640D03*
X64573Y-17003D03*
X60866Y-19590D03*
X63731Y-17359D03*
X61987Y-19167D03*
X55864Y-16049D03*
X58576Y-16362D03*
X60797Y-22640D03*
X60620Y-20724D03*
X60846Y-16386D03*
X60671Y-15693D03*
X56590Y-14420D03*
X60329Y-15496D03*
X59891Y-16568D03*
X59155Y-15525D03*
X54177Y-15477D03*
X58828Y-17457D03*
X53246Y-17132D03*
X55981Y-17205D03*
X53349Y-16917D03*
X57612Y-17453D03*
X53479Y-15024D03*
X58255Y-17547D03*
X58155Y-18907D03*
X61282Y-20361D03*
X57143Y-15842D03*
X57596Y-18649D03*
X57064Y-18060D03*
X56230Y-17275D03*
X53221Y-18125D03*
X53244Y-18680D03*
X55467Y-19650D03*
X64313Y-16993D03*
X53739Y-19853D03*
X64516Y-16264D03*
X56066Y-19289D03*
X64132Y-16288D03*
X52388Y-14880D03*
X64072Y-15496D03*
X55582Y-23532D03*
X57284Y-23241D03*
X58532Y-19161D03*
X63303Y-17356D03*
X55978Y-17632D03*
X63046Y-16419D03*
X62608Y-15687D03*
X59862Y-15649D03*
X53426Y-24864D03*
X54410Y-20460D03*
X55055Y-19313D03*
X62289Y-16652D03*
X55067Y-25489D03*
X56545Y-25191D03*
X52388Y-25565D03*
X56753Y-20206D03*
X58072Y-19163D03*
X60820Y-18672D03*
X53381Y-22521D03*
X53415Y-22007D03*
X55276Y-19072D03*
X55097Y-17751D03*
X53457Y-21144D03*
G54D17*
G36*
X68759Y-33326D02*
X67976Y-33326D01*
X67976Y-16493D01*
X67960Y-16412D01*
X67928Y-16335D01*
X67882Y-16266D01*
X67824Y-16207D01*
X67755Y-16161D01*
X67678Y-16129D01*
X67597Y-16112D01*
X67514Y-16111D01*
X67433Y-16127D01*
X67356Y-16158D01*
X67286Y-16203D01*
X67227Y-16262D01*
X67180Y-16330D01*
X67147Y-16406D01*
X67130Y-16488D01*
X67129Y-16571D01*
X67144Y-16652D01*
X67174Y-16729D01*
X67219Y-16799D01*
X67277Y-16859D01*
X67345Y-16906D01*
X67421Y-16939D01*
X67502Y-16957D01*
X67585Y-16959D01*
X67667Y-16945D01*
X67744Y-16915D01*
X67814Y-16870D01*
X67875Y-16813D01*
X67922Y-16745D01*
X67956Y-16669D01*
X67975Y-16588D01*
X67976Y-16493D01*
X67976Y-33326D01*
X67303Y-33326D01*
X67303Y-22248D01*
X67295Y-22210D01*
X67280Y-22174D01*
X67259Y-22142D01*
X67232Y-22115D01*
X67200Y-22093D01*
X67171Y-22081D01*
X67185Y-22076D01*
X67218Y-22055D01*
X67246Y-22028D01*
X67268Y-21997D01*
X67284Y-21962D01*
X67292Y-21924D01*
X67293Y-21880D01*
X67285Y-21842D01*
X67271Y-21806D01*
X67249Y-21774D01*
X67222Y-21747D01*
X67190Y-21725D01*
X67154Y-21710D01*
X67117Y-21702D01*
X67078Y-21702D01*
X67040Y-21709D01*
X67004Y-21724D01*
X66972Y-21745D01*
X66944Y-21772D01*
X66923Y-21804D01*
X66907Y-21839D01*
X66899Y-21877D01*
X66899Y-21916D01*
X66906Y-21954D01*
X66920Y-21990D01*
X66941Y-22022D01*
X66968Y-22050D01*
X66999Y-22072D01*
X67030Y-22085D01*
X67014Y-22092D01*
X66982Y-22113D01*
X66954Y-22140D01*
X66932Y-22172D01*
X66917Y-22207D01*
X66909Y-22245D01*
X66909Y-22284D01*
X66916Y-22322D01*
X66930Y-22357D01*
X66951Y-22390D01*
X66978Y-22418D01*
X67009Y-22440D01*
X67045Y-22455D01*
X67082Y-22463D01*
X67121Y-22464D01*
X67159Y-22458D01*
X67195Y-22444D01*
X67228Y-22423D01*
X67256Y-22396D01*
X67278Y-22365D01*
X67293Y-22329D01*
X67302Y-22292D01*
X67303Y-22248D01*
X67303Y-33326D01*
X66683Y-33326D01*
X66683Y-29921D01*
X66675Y-29883D01*
X66660Y-29848D01*
X66639Y-29815D01*
X66612Y-29788D01*
X66580Y-29766D01*
X66544Y-29751D01*
X66506Y-29744D01*
X66468Y-29743D01*
X66430Y-29751D01*
X66394Y-29765D01*
X66362Y-29786D01*
X66354Y-29794D01*
X66354Y-20181D01*
X66346Y-20144D01*
X66332Y-20108D01*
X66310Y-20076D01*
X66283Y-20048D01*
X66251Y-20027D01*
X66215Y-20012D01*
X66178Y-20004D01*
X66139Y-20004D01*
X66101Y-20011D01*
X66065Y-20025D01*
X66033Y-20047D01*
X66005Y-20074D01*
X65984Y-20105D01*
X65968Y-20141D01*
X65960Y-20179D01*
X65960Y-20217D01*
X65967Y-20255D01*
X65981Y-20291D01*
X66002Y-20324D01*
X66029Y-20351D01*
X66060Y-20373D01*
X66096Y-20389D01*
X66134Y-20397D01*
X66172Y-20398D01*
X66210Y-20391D01*
X66246Y-20377D01*
X66279Y-20357D01*
X66307Y-20330D01*
X66329Y-20298D01*
X66345Y-20263D01*
X66353Y-20225D01*
X66354Y-20181D01*
X66354Y-29794D01*
X66334Y-29813D01*
X66312Y-29845D01*
X66297Y-29881D01*
X66289Y-29918D01*
X66289Y-29957D01*
X66296Y-29995D01*
X66310Y-30031D01*
X66331Y-30063D01*
X66358Y-30091D01*
X66389Y-30113D01*
X66425Y-30129D01*
X66462Y-30137D01*
X66501Y-30138D01*
X66539Y-30131D01*
X66575Y-30117D01*
X66608Y-30096D01*
X66635Y-30070D01*
X66658Y-30038D01*
X66673Y-30003D01*
X66682Y-29965D01*
X66683Y-29921D01*
X66683Y-33326D01*
X66269Y-33326D01*
X66269Y-24075D01*
X66262Y-24037D01*
X66247Y-24001D01*
X66230Y-23975D01*
X66230Y-22283D01*
X66222Y-22245D01*
X66208Y-22210D01*
X66186Y-22178D01*
X66159Y-22150D01*
X66127Y-22129D01*
X66091Y-22114D01*
X66054Y-22106D01*
X66015Y-22106D01*
X65977Y-22113D01*
X65941Y-22127D01*
X65909Y-22148D01*
X65881Y-22176D01*
X65864Y-22200D01*
X65864Y-21644D01*
X65857Y-21606D01*
X65842Y-21570D01*
X65821Y-21538D01*
X65794Y-21511D01*
X65762Y-21489D01*
X65726Y-21474D01*
X65688Y-21466D01*
X65650Y-21466D01*
X65612Y-21473D01*
X65576Y-21488D01*
X65544Y-21509D01*
X65516Y-21536D01*
X65494Y-21568D01*
X65479Y-21603D01*
X65471Y-21641D01*
X65471Y-21680D01*
X65477Y-21717D01*
X65492Y-21753D01*
X65513Y-21786D01*
X65539Y-21814D01*
X65571Y-21836D01*
X65606Y-21851D01*
X65644Y-21859D01*
X65683Y-21860D01*
X65721Y-21853D01*
X65757Y-21840D01*
X65789Y-21819D01*
X65817Y-21792D01*
X65840Y-21761D01*
X65855Y-21725D01*
X65864Y-21688D01*
X65864Y-21644D01*
X65864Y-22200D01*
X65860Y-22207D01*
X65844Y-22243D01*
X65836Y-22281D01*
X65836Y-22319D01*
X65843Y-22357D01*
X65857Y-22393D01*
X65878Y-22426D01*
X65905Y-22453D01*
X65936Y-22475D01*
X65972Y-22491D01*
X66010Y-22499D01*
X66048Y-22500D01*
X66086Y-22493D01*
X66122Y-22479D01*
X66155Y-22459D01*
X66183Y-22432D01*
X66205Y-22400D01*
X66221Y-22365D01*
X66229Y-22327D01*
X66230Y-22283D01*
X66230Y-23975D01*
X66226Y-23969D01*
X66198Y-23942D01*
X66166Y-23920D01*
X66131Y-23905D01*
X66093Y-23897D01*
X66054Y-23897D01*
X66016Y-23904D01*
X65981Y-23919D01*
X65948Y-23940D01*
X65921Y-23967D01*
X65899Y-23999D01*
X65884Y-24034D01*
X65876Y-24072D01*
X65875Y-24111D01*
X65882Y-24149D01*
X65896Y-24184D01*
X65917Y-24217D01*
X65944Y-24245D01*
X65976Y-24267D01*
X66011Y-24282D01*
X66049Y-24290D01*
X66088Y-24291D01*
X66126Y-24285D01*
X66162Y-24271D01*
X66194Y-24250D01*
X66222Y-24223D01*
X66244Y-24192D01*
X66260Y-24156D01*
X66269Y-24119D01*
X66269Y-24075D01*
X66269Y-33326D01*
X65659Y-33326D01*
X65659Y-28927D01*
X65651Y-28889D01*
X65637Y-28853D01*
X65615Y-28821D01*
X65588Y-28794D01*
X65556Y-28772D01*
X65521Y-28757D01*
X65483Y-28750D01*
X65444Y-28749D01*
X65423Y-28753D01*
X65423Y-16894D01*
X65415Y-16856D01*
X65401Y-16821D01*
X65379Y-16788D01*
X65352Y-16761D01*
X65320Y-16739D01*
X65284Y-16724D01*
X65247Y-16717D01*
X65208Y-16716D01*
X65170Y-16724D01*
X65134Y-16738D01*
X65102Y-16759D01*
X65074Y-16786D01*
X65053Y-16818D01*
X65037Y-16854D01*
X65029Y-16891D01*
X65029Y-16930D01*
X65036Y-16968D01*
X65050Y-17004D01*
X65071Y-17036D01*
X65098Y-17064D01*
X65129Y-17086D01*
X65165Y-17102D01*
X65202Y-17110D01*
X65241Y-17111D01*
X65279Y-17104D01*
X65315Y-17090D01*
X65348Y-17069D01*
X65376Y-17043D01*
X65398Y-17011D01*
X65414Y-16976D01*
X65422Y-16938D01*
X65423Y-16894D01*
X65423Y-28753D01*
X65406Y-28757D01*
X65370Y-28771D01*
X65338Y-28792D01*
X65311Y-28819D01*
X65289Y-28851D01*
X65274Y-28887D01*
X65266Y-28924D01*
X65265Y-28963D01*
X65272Y-29001D01*
X65286Y-29037D01*
X65307Y-29069D01*
X65334Y-29097D01*
X65366Y-29119D01*
X65401Y-29134D01*
X65439Y-29143D01*
X65477Y-29144D01*
X65515Y-29137D01*
X65551Y-29123D01*
X65584Y-29102D01*
X65612Y-29076D01*
X65634Y-29044D01*
X65650Y-29009D01*
X65658Y-28971D01*
X65659Y-28927D01*
X65659Y-33326D01*
X65052Y-33326D01*
X65052Y-17063D01*
X65045Y-17025D01*
X65030Y-16990D01*
X65009Y-16958D01*
X64981Y-16930D01*
X64949Y-16909D01*
X64914Y-16894D01*
X64876Y-16886D01*
X64837Y-16886D01*
X64800Y-16893D01*
X64764Y-16907D01*
X64750Y-16916D01*
X64748Y-16910D01*
X64726Y-16878D01*
X64713Y-16864D01*
X64713Y-16245D01*
X64705Y-16207D01*
X64691Y-16171D01*
X64669Y-16139D01*
X64642Y-16112D01*
X64610Y-16090D01*
X64575Y-16075D01*
X64537Y-16068D01*
X64498Y-16067D01*
X64460Y-16075D01*
X64424Y-16089D01*
X64392Y-16110D01*
X64365Y-16137D01*
X64343Y-16169D01*
X64327Y-16204D01*
X64322Y-16232D01*
X64322Y-16231D01*
X64307Y-16195D01*
X64285Y-16163D01*
X64269Y-16146D01*
X64269Y-15477D01*
X64261Y-15439D01*
X64247Y-15403D01*
X64225Y-15371D01*
X64198Y-15344D01*
X64166Y-15322D01*
X64130Y-15307D01*
X64093Y-15300D01*
X64054Y-15299D01*
X64016Y-15307D01*
X63980Y-15321D01*
X63948Y-15342D01*
X63920Y-15369D01*
X63899Y-15401D01*
X63883Y-15437D01*
X63875Y-15474D01*
X63875Y-15513D01*
X63882Y-15551D01*
X63896Y-15587D01*
X63917Y-15619D01*
X63944Y-15647D01*
X63975Y-15669D01*
X64011Y-15684D01*
X64049Y-15693D01*
X64087Y-15694D01*
X64125Y-15687D01*
X64161Y-15673D01*
X64194Y-15652D01*
X64222Y-15626D01*
X64244Y-15594D01*
X64260Y-15559D01*
X64268Y-15521D01*
X64269Y-15477D01*
X64269Y-16146D01*
X64258Y-16136D01*
X64226Y-16114D01*
X64191Y-16099D01*
X64153Y-16091D01*
X64114Y-16091D01*
X64076Y-16098D01*
X64041Y-16113D01*
X64008Y-16134D01*
X63981Y-16161D01*
X63959Y-16193D01*
X63944Y-16228D01*
X63936Y-16266D01*
X63935Y-16304D01*
X63942Y-16342D01*
X63956Y-16378D01*
X63977Y-16411D01*
X64004Y-16439D01*
X64036Y-16461D01*
X64071Y-16476D01*
X64109Y-16484D01*
X64147Y-16485D01*
X64185Y-16478D01*
X64221Y-16464D01*
X64254Y-16444D01*
X64282Y-16417D01*
X64304Y-16386D01*
X64320Y-16350D01*
X64327Y-16321D01*
X64340Y-16355D01*
X64361Y-16387D01*
X64388Y-16415D01*
X64420Y-16437D01*
X64455Y-16452D01*
X64493Y-16461D01*
X64531Y-16462D01*
X64569Y-16455D01*
X64605Y-16441D01*
X64638Y-16420D01*
X64666Y-16394D01*
X64688Y-16362D01*
X64704Y-16327D01*
X64712Y-16289D01*
X64713Y-16245D01*
X64713Y-16864D01*
X64699Y-16850D01*
X64667Y-16829D01*
X64632Y-16814D01*
X64594Y-16806D01*
X64555Y-16806D01*
X64517Y-16813D01*
X64481Y-16828D01*
X64449Y-16849D01*
X64448Y-16850D01*
X64439Y-16840D01*
X64407Y-16819D01*
X64371Y-16804D01*
X64334Y-16796D01*
X64295Y-16796D01*
X64257Y-16803D01*
X64221Y-16817D01*
X64189Y-16838D01*
X64161Y-16866D01*
X64140Y-16897D01*
X64124Y-16933D01*
X64116Y-16971D01*
X64116Y-17009D01*
X64123Y-17047D01*
X64137Y-17083D01*
X64158Y-17116D01*
X64185Y-17143D01*
X64216Y-17165D01*
X64252Y-17181D01*
X64289Y-17189D01*
X64328Y-17190D01*
X64366Y-17183D01*
X64402Y-17169D01*
X64435Y-17149D01*
X64438Y-17146D01*
X64445Y-17153D01*
X64477Y-17175D01*
X64512Y-17191D01*
X64550Y-17199D01*
X64588Y-17200D01*
X64626Y-17193D01*
X64662Y-17179D01*
X64678Y-17169D01*
X64679Y-17173D01*
X64700Y-17205D01*
X64727Y-17233D01*
X64759Y-17255D01*
X64794Y-17271D01*
X64832Y-17279D01*
X64871Y-17280D01*
X64909Y-17273D01*
X64945Y-17259D01*
X64977Y-17238D01*
X65005Y-17212D01*
X65027Y-17180D01*
X65043Y-17145D01*
X65052Y-17107D01*
X65052Y-17063D01*
X65052Y-33326D01*
X64459Y-33326D01*
X64459Y-17407D01*
X64451Y-17369D01*
X64437Y-17334D01*
X64415Y-17301D01*
X64388Y-17274D01*
X64356Y-17252D01*
X64321Y-17238D01*
X64283Y-17230D01*
X64244Y-17229D01*
X64206Y-17237D01*
X64170Y-17251D01*
X64138Y-17272D01*
X64111Y-17299D01*
X64089Y-17331D01*
X64074Y-17367D01*
X64066Y-17404D01*
X64065Y-17443D01*
X64072Y-17481D01*
X64086Y-17517D01*
X64107Y-17549D01*
X64134Y-17577D01*
X64166Y-17599D01*
X64201Y-17615D01*
X64239Y-17623D01*
X64277Y-17624D01*
X64315Y-17617D01*
X64351Y-17603D01*
X64384Y-17582D01*
X64412Y-17556D01*
X64434Y-17524D01*
X64450Y-17489D01*
X64458Y-17451D01*
X64459Y-17407D01*
X64459Y-33326D01*
X64193Y-33326D01*
X64193Y-24439D01*
X64186Y-24401D01*
X64171Y-24366D01*
X64150Y-24334D01*
X64122Y-24306D01*
X64090Y-24285D01*
X64055Y-24270D01*
X64017Y-24262D01*
X64002Y-24262D01*
X64003Y-24219D01*
X63995Y-24181D01*
X63980Y-24145D01*
X63959Y-24113D01*
X63932Y-24085D01*
X63927Y-24082D01*
X63927Y-17340D01*
X63920Y-17302D01*
X63905Y-17266D01*
X63884Y-17234D01*
X63857Y-17207D01*
X63825Y-17185D01*
X63789Y-17170D01*
X63751Y-17163D01*
X63713Y-17162D01*
X63675Y-17169D01*
X63639Y-17184D01*
X63607Y-17205D01*
X63579Y-17232D01*
X63557Y-17264D01*
X63542Y-17299D01*
X63534Y-17337D01*
X63533Y-17376D01*
X63540Y-17414D01*
X63555Y-17450D01*
X63576Y-17482D01*
X63602Y-17510D01*
X63634Y-17532D01*
X63669Y-17547D01*
X63707Y-17556D01*
X63746Y-17556D01*
X63784Y-17550D01*
X63820Y-17536D01*
X63852Y-17515D01*
X63880Y-17488D01*
X63903Y-17457D01*
X63918Y-17422D01*
X63927Y-17384D01*
X63927Y-17340D01*
X63927Y-24082D01*
X63900Y-24064D01*
X63864Y-24049D01*
X63826Y-24041D01*
X63788Y-24041D01*
X63750Y-24048D01*
X63714Y-24063D01*
X63682Y-24084D01*
X63654Y-24111D01*
X63632Y-24143D01*
X63631Y-24145D01*
X63631Y-24145D01*
X63610Y-24113D01*
X63583Y-24086D01*
X63551Y-24064D01*
X63515Y-24049D01*
X63500Y-24046D01*
X63500Y-17337D01*
X63492Y-17299D01*
X63477Y-17263D01*
X63456Y-17231D01*
X63429Y-17204D01*
X63397Y-17182D01*
X63361Y-17167D01*
X63323Y-17160D01*
X63285Y-17159D01*
X63247Y-17167D01*
X63243Y-17168D01*
X63243Y-16399D01*
X63236Y-16361D01*
X63221Y-16326D01*
X63200Y-16294D01*
X63172Y-16266D01*
X63140Y-16245D01*
X63105Y-16230D01*
X63067Y-16222D01*
X63028Y-16222D01*
X62991Y-16229D01*
X62955Y-16243D01*
X62922Y-16264D01*
X62895Y-16291D01*
X62873Y-16323D01*
X62858Y-16359D01*
X62850Y-16397D01*
X62849Y-16435D01*
X62856Y-16473D01*
X62870Y-16509D01*
X62891Y-16541D01*
X62918Y-16569D01*
X62950Y-16591D01*
X62985Y-16607D01*
X63023Y-16615D01*
X63062Y-16616D01*
X63100Y-16609D01*
X63136Y-16595D01*
X63168Y-16575D01*
X63196Y-16548D01*
X63218Y-16516D01*
X63234Y-16481D01*
X63243Y-16443D01*
X63243Y-16399D01*
X63243Y-17168D01*
X63211Y-17181D01*
X63179Y-17202D01*
X63151Y-17229D01*
X63129Y-17261D01*
X63114Y-17296D01*
X63106Y-17334D01*
X63106Y-17373D01*
X63113Y-17411D01*
X63127Y-17447D01*
X63148Y-17479D01*
X63174Y-17507D01*
X63206Y-17529D01*
X63242Y-17544D01*
X63279Y-17553D01*
X63318Y-17553D01*
X63356Y-17547D01*
X63392Y-17533D01*
X63424Y-17512D01*
X63452Y-17486D01*
X63475Y-17454D01*
X63490Y-17419D01*
X63499Y-17381D01*
X63500Y-17337D01*
X63500Y-24046D01*
X63477Y-24042D01*
X63439Y-24041D01*
X63401Y-24049D01*
X63365Y-24063D01*
X63333Y-24084D01*
X63305Y-24111D01*
X63283Y-24143D01*
X63268Y-24178D01*
X63260Y-24216D01*
X63259Y-24255D01*
X63266Y-24293D01*
X63281Y-24329D01*
X63302Y-24361D01*
X63328Y-24389D01*
X63360Y-24411D01*
X63395Y-24426D01*
X63433Y-24435D01*
X63472Y-24435D01*
X63510Y-24429D01*
X63546Y-24415D01*
X63578Y-24394D01*
X63606Y-24368D01*
X63629Y-24336D01*
X63631Y-24330D01*
X63651Y-24361D01*
X63678Y-24389D01*
X63709Y-24411D01*
X63745Y-24426D01*
X63782Y-24434D01*
X63800Y-24435D01*
X63800Y-24437D01*
X63799Y-24475D01*
X63806Y-24513D01*
X63820Y-24549D01*
X63841Y-24581D01*
X63868Y-24609D01*
X63900Y-24631D01*
X63935Y-24647D01*
X63973Y-24655D01*
X64012Y-24656D01*
X64050Y-24649D01*
X64086Y-24635D01*
X64118Y-24614D01*
X64146Y-24588D01*
X64168Y-24556D01*
X64184Y-24521D01*
X64193Y-24483D01*
X64193Y-24439D01*
X64193Y-33326D01*
X63494Y-33326D01*
X63503Y-24711D01*
X63287Y-24727D01*
X63287Y-33326D01*
X62805Y-33326D01*
X62805Y-15668D01*
X62798Y-15630D01*
X62783Y-15594D01*
X62761Y-15562D01*
X62734Y-15534D01*
X62702Y-15513D01*
X62667Y-15498D01*
X62629Y-15490D01*
X62590Y-15490D01*
X62552Y-15497D01*
X62517Y-15512D01*
X62484Y-15533D01*
X62457Y-15560D01*
X62435Y-15592D01*
X62420Y-15627D01*
X62412Y-15665D01*
X62411Y-15703D01*
X62418Y-15741D01*
X62432Y-15777D01*
X62453Y-15810D01*
X62480Y-15837D01*
X62512Y-15859D01*
X62547Y-15875D01*
X62585Y-15883D01*
X62623Y-15884D01*
X62661Y-15877D01*
X62697Y-15863D01*
X62730Y-15843D01*
X62758Y-15816D01*
X62780Y-15785D01*
X62796Y-15749D01*
X62804Y-15712D01*
X62805Y-15668D01*
X62805Y-33326D01*
X62726Y-33326D01*
X62726Y-24498D01*
X62718Y-24460D01*
X62704Y-24424D01*
X62682Y-24392D01*
X62655Y-24365D01*
X62623Y-24343D01*
X62597Y-24332D01*
X62598Y-24291D01*
X62590Y-24253D01*
X62576Y-24218D01*
X62554Y-24186D01*
X62527Y-24158D01*
X62495Y-24137D01*
X62486Y-24133D01*
X62486Y-16633D01*
X62479Y-16595D01*
X62464Y-16559D01*
X62443Y-16527D01*
X62415Y-16500D01*
X62383Y-16478D01*
X62348Y-16463D01*
X62310Y-16455D01*
X62271Y-16455D01*
X62233Y-16462D01*
X62198Y-16477D01*
X62165Y-16498D01*
X62138Y-16525D01*
X62116Y-16557D01*
X62101Y-16592D01*
X62093Y-16630D01*
X62092Y-16669D01*
X62099Y-16707D01*
X62113Y-16742D01*
X62134Y-16775D01*
X62161Y-16803D01*
X62193Y-16825D01*
X62228Y-16840D01*
X62266Y-16848D01*
X62304Y-16849D01*
X62342Y-16842D01*
X62378Y-16829D01*
X62411Y-16808D01*
X62439Y-16781D01*
X62461Y-16750D01*
X62477Y-16714D01*
X62486Y-16677D01*
X62486Y-16633D01*
X62486Y-24133D01*
X62460Y-24122D01*
X62449Y-24119D01*
X62451Y-24117D01*
X62467Y-24081D01*
X62475Y-24044D01*
X62476Y-24000D01*
X62468Y-23962D01*
X62454Y-23926D01*
X62432Y-23894D01*
X62405Y-23867D01*
X62373Y-23845D01*
X62338Y-23830D01*
X62300Y-23822D01*
X62261Y-23822D01*
X62223Y-23829D01*
X62187Y-23844D01*
X62184Y-23846D01*
X62184Y-19147D01*
X62177Y-19110D01*
X62162Y-19074D01*
X62141Y-19042D01*
X62113Y-19014D01*
X62081Y-18993D01*
X62046Y-18978D01*
X62008Y-18970D01*
X61969Y-18970D01*
X61931Y-18977D01*
X61896Y-18991D01*
X61863Y-19013D01*
X61836Y-19040D01*
X61814Y-19071D01*
X61799Y-19107D01*
X61791Y-19145D01*
X61790Y-19183D01*
X61797Y-19221D01*
X61811Y-19257D01*
X61832Y-19290D01*
X61859Y-19317D01*
X61891Y-19339D01*
X61926Y-19355D01*
X61964Y-19363D01*
X62002Y-19364D01*
X62040Y-19357D01*
X62076Y-19343D01*
X62109Y-19323D01*
X62137Y-19296D01*
X62159Y-19264D01*
X62175Y-19229D01*
X62184Y-19192D01*
X62184Y-19147D01*
X62184Y-23846D01*
X62155Y-23865D01*
X62128Y-23892D01*
X62106Y-23924D01*
X62090Y-23959D01*
X62082Y-23997D01*
X62082Y-24035D01*
X62089Y-24073D01*
X62103Y-24109D01*
X62124Y-24142D01*
X62151Y-24170D01*
X62183Y-24192D01*
X62218Y-24207D01*
X62231Y-24210D01*
X62228Y-24215D01*
X62213Y-24251D01*
X62205Y-24288D01*
X62204Y-24327D01*
X62211Y-24365D01*
X62225Y-24401D01*
X62246Y-24433D01*
X62273Y-24461D01*
X62305Y-24483D01*
X62332Y-24495D01*
X62332Y-24534D01*
X62339Y-24572D01*
X62353Y-24608D01*
X62374Y-24640D01*
X62401Y-24668D01*
X62433Y-24690D01*
X62468Y-24705D01*
X62506Y-24714D01*
X62544Y-24714D01*
X62582Y-24708D01*
X62618Y-24694D01*
X62651Y-24673D01*
X62679Y-24646D01*
X62701Y-24615D01*
X62717Y-24580D01*
X62725Y-24542D01*
X62726Y-24498D01*
X62726Y-33326D01*
X61948Y-33326D01*
X61948Y-20207D01*
X61940Y-20169D01*
X61926Y-20133D01*
X61904Y-20101D01*
X61877Y-20074D01*
X61845Y-20052D01*
X61810Y-20037D01*
X61772Y-20030D01*
X61733Y-20029D01*
X61695Y-20037D01*
X61659Y-20051D01*
X61627Y-20072D01*
X61600Y-20099D01*
X61578Y-20131D01*
X61563Y-20167D01*
X61555Y-20204D01*
X61554Y-20243D01*
X61561Y-20281D01*
X61575Y-20317D01*
X61596Y-20349D01*
X61623Y-20377D01*
X61655Y-20399D01*
X61690Y-20414D01*
X61728Y-20423D01*
X61766Y-20424D01*
X61804Y-20417D01*
X61840Y-20403D01*
X61873Y-20382D01*
X61901Y-20356D01*
X61923Y-20324D01*
X61939Y-20289D01*
X61947Y-20251D01*
X61948Y-20207D01*
X61948Y-33326D01*
X61479Y-33326D01*
X61479Y-20342D01*
X61472Y-20304D01*
X61457Y-20268D01*
X61435Y-20236D01*
X61408Y-20209D01*
X61376Y-20187D01*
X61355Y-20178D01*
X61371Y-20164D01*
X61393Y-20132D01*
X61409Y-20097D01*
X61417Y-20059D01*
X61418Y-20015D01*
X61411Y-19977D01*
X61399Y-19949D01*
X61399Y-19384D01*
X61392Y-19346D01*
X61377Y-19310D01*
X61356Y-19278D01*
X61328Y-19251D01*
X61296Y-19229D01*
X61261Y-19214D01*
X61223Y-19206D01*
X61184Y-19206D01*
X61146Y-19213D01*
X61111Y-19228D01*
X61078Y-19249D01*
X61051Y-19276D01*
X61043Y-19287D01*
X61043Y-16366D01*
X61036Y-16329D01*
X61021Y-16293D01*
X61000Y-16261D01*
X60972Y-16233D01*
X60940Y-16212D01*
X60905Y-16197D01*
X60868Y-16189D01*
X60868Y-15674D01*
X60860Y-15636D01*
X60845Y-15600D01*
X60824Y-15568D01*
X60797Y-15540D01*
X60765Y-15519D01*
X60729Y-15504D01*
X60691Y-15496D01*
X60653Y-15496D01*
X60615Y-15503D01*
X60579Y-15518D01*
X60547Y-15539D01*
X60519Y-15566D01*
X60503Y-15589D01*
X60517Y-15558D01*
X60526Y-15520D01*
X60526Y-15476D01*
X60519Y-15438D01*
X60504Y-15403D01*
X60483Y-15371D01*
X60456Y-15343D01*
X60424Y-15322D01*
X60388Y-15307D01*
X60350Y-15299D01*
X60311Y-15299D01*
X60274Y-15306D01*
X60238Y-15320D01*
X60205Y-15341D01*
X60178Y-15368D01*
X60156Y-15400D01*
X60141Y-15436D01*
X60133Y-15474D01*
X60132Y-15512D01*
X60139Y-15550D01*
X60153Y-15586D01*
X60174Y-15618D01*
X60201Y-15646D01*
X60233Y-15668D01*
X60268Y-15684D01*
X60306Y-15692D01*
X60345Y-15693D01*
X60383Y-15686D01*
X60419Y-15672D01*
X60451Y-15651D01*
X60479Y-15625D01*
X60496Y-15601D01*
X60482Y-15633D01*
X60474Y-15671D01*
X60474Y-15709D01*
X60481Y-15747D01*
X60495Y-15783D01*
X60516Y-15816D01*
X60543Y-15843D01*
X60574Y-15866D01*
X60610Y-15881D01*
X60647Y-15889D01*
X60686Y-15890D01*
X60724Y-15883D01*
X60760Y-15869D01*
X60793Y-15849D01*
X60820Y-15822D01*
X60843Y-15791D01*
X60858Y-15755D01*
X60867Y-15718D01*
X60868Y-15674D01*
X60868Y-16189D01*
X60867Y-16189D01*
X60828Y-16189D01*
X60791Y-16196D01*
X60755Y-16210D01*
X60722Y-16232D01*
X60695Y-16259D01*
X60673Y-16290D01*
X60658Y-16326D01*
X60650Y-16364D01*
X60649Y-16402D01*
X60656Y-16440D01*
X60670Y-16476D01*
X60691Y-16509D01*
X60718Y-16536D01*
X60750Y-16558D01*
X60785Y-16574D01*
X60823Y-16582D01*
X60862Y-16583D01*
X60900Y-16576D01*
X60936Y-16562D01*
X60968Y-16542D01*
X60996Y-16515D01*
X61018Y-16483D01*
X61034Y-16448D01*
X61043Y-16411D01*
X61043Y-16366D01*
X61043Y-19287D01*
X61029Y-19308D01*
X61016Y-19337D01*
X61016Y-18653D01*
X61009Y-18615D01*
X60994Y-18579D01*
X60973Y-18547D01*
X60946Y-18520D01*
X60914Y-18498D01*
X60878Y-18483D01*
X60840Y-18475D01*
X60802Y-18475D01*
X60764Y-18482D01*
X60728Y-18497D01*
X60696Y-18518D01*
X60668Y-18545D01*
X60646Y-18577D01*
X60631Y-18612D01*
X60623Y-18650D01*
X60622Y-18689D01*
X60629Y-18727D01*
X60644Y-18763D01*
X60665Y-18795D01*
X60691Y-18823D01*
X60723Y-18845D01*
X60758Y-18860D01*
X60796Y-18869D01*
X60835Y-18869D01*
X60873Y-18863D01*
X60909Y-18849D01*
X60941Y-18828D01*
X60969Y-18801D01*
X60992Y-18770D01*
X61007Y-18735D01*
X61016Y-18697D01*
X61016Y-18653D01*
X61016Y-19337D01*
X61014Y-19343D01*
X61006Y-19381D01*
X61005Y-19420D01*
X61012Y-19458D01*
X61013Y-19459D01*
X60992Y-19438D01*
X60960Y-19416D01*
X60924Y-19401D01*
X60886Y-19393D01*
X60848Y-19393D01*
X60810Y-19400D01*
X60774Y-19415D01*
X60742Y-19436D01*
X60714Y-19463D01*
X60692Y-19495D01*
X60677Y-19530D01*
X60669Y-19568D01*
X60669Y-19607D01*
X60676Y-19645D01*
X60690Y-19681D01*
X60711Y-19713D01*
X60737Y-19741D01*
X60769Y-19763D01*
X60805Y-19778D01*
X60842Y-19787D01*
X60881Y-19787D01*
X60919Y-19781D01*
X60955Y-19767D01*
X60983Y-19749D01*
X60992Y-19763D01*
X61019Y-19791D01*
X61050Y-19813D01*
X61086Y-19828D01*
X61123Y-19837D01*
X61162Y-19837D01*
X61200Y-19831D01*
X61236Y-19817D01*
X61269Y-19796D01*
X61296Y-19769D01*
X61319Y-19738D01*
X61334Y-19703D01*
X61343Y-19665D01*
X61344Y-19621D01*
X61336Y-19583D01*
X61326Y-19557D01*
X61352Y-19532D01*
X61374Y-19501D01*
X61390Y-19465D01*
X61398Y-19428D01*
X61399Y-19384D01*
X61399Y-19949D01*
X61396Y-19941D01*
X61374Y-19909D01*
X61347Y-19882D01*
X61315Y-19860D01*
X61280Y-19845D01*
X61242Y-19838D01*
X61203Y-19837D01*
X61165Y-19845D01*
X61130Y-19859D01*
X61097Y-19880D01*
X61070Y-19907D01*
X61048Y-19939D01*
X61033Y-19974D01*
X61025Y-20012D01*
X61024Y-20051D01*
X61031Y-20089D01*
X61045Y-20125D01*
X61066Y-20157D01*
X61093Y-20185D01*
X61125Y-20207D01*
X61148Y-20217D01*
X61131Y-20234D01*
X61109Y-20266D01*
X61094Y-20301D01*
X61086Y-20339D01*
X61085Y-20378D01*
X61092Y-20416D01*
X61106Y-20451D01*
X61127Y-20484D01*
X61154Y-20512D01*
X61186Y-20534D01*
X61221Y-20549D01*
X61259Y-20557D01*
X61297Y-20558D01*
X61335Y-20552D01*
X61371Y-20538D01*
X61404Y-20517D01*
X61432Y-20490D01*
X61454Y-20459D01*
X61470Y-20423D01*
X61478Y-20386D01*
X61479Y-20342D01*
X61479Y-33326D01*
X55658Y-33326D01*
X60150Y-25301D01*
X61345Y-24255D01*
X61214Y-24108D01*
X61086Y-24218D01*
X61086Y-22855D01*
X60994Y-22852D01*
X60994Y-22620D01*
X60986Y-22582D01*
X60971Y-22547D01*
X60950Y-22514D01*
X60923Y-22487D01*
X60891Y-22466D01*
X60855Y-22451D01*
X60817Y-22443D01*
X60817Y-22443D01*
X60817Y-20705D01*
X60809Y-20667D01*
X60795Y-20631D01*
X60773Y-20599D01*
X60746Y-20572D01*
X60714Y-20550D01*
X60678Y-20535D01*
X60641Y-20527D01*
X60602Y-20527D01*
X60564Y-20534D01*
X60528Y-20549D01*
X60496Y-20570D01*
X60468Y-20597D01*
X60447Y-20629D01*
X60431Y-20664D01*
X60423Y-20702D01*
X60423Y-20741D01*
X60430Y-20779D01*
X60444Y-20814D01*
X60465Y-20847D01*
X60492Y-20875D01*
X60523Y-20897D01*
X60559Y-20912D01*
X60597Y-20920D01*
X60635Y-20921D01*
X60673Y-20915D01*
X60709Y-20901D01*
X60742Y-20880D01*
X60770Y-20853D01*
X60792Y-20822D01*
X60808Y-20786D01*
X60816Y-20749D01*
X60817Y-20705D01*
X60817Y-22443D01*
X60779Y-22443D01*
X60741Y-22450D01*
X60705Y-22464D01*
X60673Y-22485D01*
X60645Y-22512D01*
X60623Y-22544D01*
X60608Y-22580D01*
X60600Y-22617D01*
X60600Y-22656D01*
X60607Y-22694D01*
X60621Y-22730D01*
X60642Y-22762D01*
X60669Y-22790D01*
X60700Y-22812D01*
X60736Y-22828D01*
X60773Y-22836D01*
X60812Y-22837D01*
X60850Y-22830D01*
X60886Y-22816D01*
X60919Y-22795D01*
X60946Y-22769D01*
X60969Y-22737D01*
X60984Y-22702D01*
X60993Y-22664D01*
X60994Y-22620D01*
X60994Y-22852D01*
X60088Y-22821D01*
X60088Y-16549D01*
X60081Y-16511D01*
X60066Y-16475D01*
X60059Y-16464D01*
X60059Y-15630D01*
X60051Y-15592D01*
X60036Y-15556D01*
X60015Y-15524D01*
X59988Y-15497D01*
X59956Y-15475D01*
X59920Y-15460D01*
X59882Y-15452D01*
X59844Y-15452D01*
X59806Y-15459D01*
X59770Y-15474D01*
X59738Y-15495D01*
X59710Y-15522D01*
X59688Y-15554D01*
X59673Y-15589D01*
X59665Y-15627D01*
X59665Y-15666D01*
X59672Y-15704D01*
X59686Y-15740D01*
X59707Y-15772D01*
X59734Y-15800D01*
X59765Y-15822D01*
X59801Y-15837D01*
X59838Y-15846D01*
X59877Y-15846D01*
X59915Y-15840D01*
X59951Y-15826D01*
X59983Y-15805D01*
X60011Y-15778D01*
X60034Y-15747D01*
X60049Y-15712D01*
X60058Y-15674D01*
X60059Y-15630D01*
X60059Y-16464D01*
X60045Y-16443D01*
X60017Y-16415D01*
X59985Y-16394D01*
X59950Y-16379D01*
X59912Y-16371D01*
X59873Y-16371D01*
X59835Y-16378D01*
X59800Y-16393D01*
X59767Y-16414D01*
X59740Y-16441D01*
X59718Y-16473D01*
X59703Y-16508D01*
X59695Y-16546D01*
X59694Y-16584D01*
X59701Y-16622D01*
X59715Y-16658D01*
X59736Y-16691D01*
X59763Y-16718D01*
X59795Y-16740D01*
X59830Y-16756D01*
X59868Y-16764D01*
X59906Y-16765D01*
X59944Y-16758D01*
X59980Y-16744D01*
X60013Y-16724D01*
X60041Y-16697D01*
X60063Y-16666D01*
X60079Y-16630D01*
X60087Y-16593D01*
X60088Y-16549D01*
X60088Y-22821D01*
X59352Y-22795D01*
X59352Y-15506D01*
X59345Y-15468D01*
X59330Y-15432D01*
X59309Y-15400D01*
X59281Y-15372D01*
X59249Y-15351D01*
X59214Y-15336D01*
X59176Y-15328D01*
X59137Y-15328D01*
X59100Y-15335D01*
X59064Y-15350D01*
X59031Y-15371D01*
X59004Y-15398D01*
X58982Y-15430D01*
X58967Y-15465D01*
X58959Y-15503D01*
X58958Y-15541D01*
X58965Y-15579D01*
X58979Y-15615D01*
X59000Y-15648D01*
X59027Y-15675D01*
X59059Y-15697D01*
X59094Y-15713D01*
X59132Y-15721D01*
X59171Y-15722D01*
X59209Y-15715D01*
X59245Y-15701D01*
X59277Y-15681D01*
X59305Y-15654D01*
X59327Y-15623D01*
X59343Y-15587D01*
X59352Y-15550D01*
X59352Y-15506D01*
X59352Y-22795D01*
X59025Y-22784D01*
X59025Y-17438D01*
X59017Y-17400D01*
X59002Y-17364D01*
X58981Y-17332D01*
X58954Y-17305D01*
X58922Y-17283D01*
X58886Y-17268D01*
X58849Y-17260D01*
X58810Y-17260D01*
X58773Y-17267D01*
X58773Y-16343D01*
X58766Y-16305D01*
X58751Y-16269D01*
X58730Y-16237D01*
X58702Y-16209D01*
X58670Y-16188D01*
X58635Y-16173D01*
X58597Y-16165D01*
X58558Y-16165D01*
X58520Y-16172D01*
X58485Y-16187D01*
X58452Y-16208D01*
X58425Y-16235D01*
X58403Y-16267D01*
X58388Y-16302D01*
X58380Y-16340D01*
X58379Y-16378D01*
X58386Y-16416D01*
X58400Y-16452D01*
X58421Y-16485D01*
X58448Y-16513D01*
X58480Y-16535D01*
X58515Y-16550D01*
X58553Y-16558D01*
X58591Y-16559D01*
X58629Y-16552D01*
X58665Y-16538D01*
X58698Y-16518D01*
X58726Y-16491D01*
X58748Y-16460D01*
X58764Y-16424D01*
X58773Y-16387D01*
X58773Y-16343D01*
X58773Y-17267D01*
X58772Y-17267D01*
X58736Y-17282D01*
X58704Y-17303D01*
X58676Y-17330D01*
X58655Y-17362D01*
X58639Y-17397D01*
X58631Y-17435D01*
X58631Y-17474D01*
X58638Y-17512D01*
X58652Y-17548D01*
X58673Y-17580D01*
X58700Y-17608D01*
X58731Y-17630D01*
X58767Y-17645D01*
X58804Y-17654D01*
X58843Y-17654D01*
X58881Y-17648D01*
X58917Y-17634D01*
X58950Y-17613D01*
X58978Y-17586D01*
X59000Y-17555D01*
X59016Y-17520D01*
X59024Y-17482D01*
X59025Y-17438D01*
X59025Y-22784D01*
X58729Y-22774D01*
X58729Y-19142D01*
X58721Y-19104D01*
X58706Y-19068D01*
X58685Y-19036D01*
X58658Y-19009D01*
X58626Y-18987D01*
X58590Y-18972D01*
X58552Y-18964D01*
X58514Y-18964D01*
X58476Y-18971D01*
X58452Y-18981D01*
X58452Y-17528D01*
X58444Y-17490D01*
X58430Y-17454D01*
X58408Y-17422D01*
X58381Y-17395D01*
X58349Y-17373D01*
X58314Y-17358D01*
X58276Y-17350D01*
X58237Y-17350D01*
X58199Y-17357D01*
X58163Y-17372D01*
X58131Y-17393D01*
X58103Y-17420D01*
X58082Y-17452D01*
X58066Y-17487D01*
X58058Y-17525D01*
X58058Y-17564D01*
X58065Y-17602D01*
X58079Y-17638D01*
X58100Y-17670D01*
X58127Y-17698D01*
X58159Y-17720D01*
X58194Y-17735D01*
X58232Y-17744D01*
X58270Y-17744D01*
X58308Y-17738D01*
X58344Y-17724D01*
X58377Y-17703D01*
X58405Y-17676D01*
X58427Y-17645D01*
X58443Y-17610D01*
X58451Y-17572D01*
X58452Y-17528D01*
X58452Y-18981D01*
X58440Y-18986D01*
X58408Y-19007D01*
X58380Y-19034D01*
X58358Y-19066D01*
X58352Y-19080D01*
X58352Y-18887D01*
X58345Y-18849D01*
X58330Y-18814D01*
X58309Y-18782D01*
X58281Y-18754D01*
X58249Y-18733D01*
X58214Y-18718D01*
X58176Y-18710D01*
X58137Y-18710D01*
X58100Y-18717D01*
X58064Y-18731D01*
X58031Y-18752D01*
X58004Y-18779D01*
X57982Y-18811D01*
X57967Y-18847D01*
X57959Y-18885D01*
X57958Y-18923D01*
X57965Y-18961D01*
X57977Y-18990D01*
X57948Y-19008D01*
X57920Y-19036D01*
X57899Y-19067D01*
X57883Y-19103D01*
X57875Y-19141D01*
X57875Y-19179D01*
X57882Y-19217D01*
X57896Y-19253D01*
X57917Y-19286D01*
X57944Y-19313D01*
X57975Y-19335D01*
X58011Y-19351D01*
X58049Y-19359D01*
X58087Y-19360D01*
X58125Y-19353D01*
X58161Y-19339D01*
X58194Y-19319D01*
X58222Y-19292D01*
X58244Y-19260D01*
X58260Y-19225D01*
X58268Y-19187D01*
X58269Y-19143D01*
X58261Y-19105D01*
X58251Y-19079D01*
X58277Y-19062D01*
X58305Y-19036D01*
X58327Y-19004D01*
X58343Y-18969D01*
X58352Y-18931D01*
X58352Y-18887D01*
X58352Y-19080D01*
X58343Y-19101D01*
X58335Y-19139D01*
X58335Y-19178D01*
X58342Y-19216D01*
X58356Y-19252D01*
X58377Y-19284D01*
X58404Y-19312D01*
X58435Y-19334D01*
X58471Y-19349D01*
X58508Y-19358D01*
X58547Y-19358D01*
X58585Y-19352D01*
X58621Y-19338D01*
X58654Y-19317D01*
X58682Y-19290D01*
X58704Y-19259D01*
X58719Y-19224D01*
X58728Y-19186D01*
X58729Y-19142D01*
X58729Y-22774D01*
X57809Y-22742D01*
X57809Y-17434D01*
X57802Y-17396D01*
X57787Y-17360D01*
X57766Y-17328D01*
X57739Y-17301D01*
X57707Y-17279D01*
X57671Y-17264D01*
X57633Y-17256D01*
X57595Y-17256D01*
X57557Y-17263D01*
X57521Y-17278D01*
X57489Y-17299D01*
X57461Y-17326D01*
X57439Y-17358D01*
X57424Y-17393D01*
X57416Y-17431D01*
X57415Y-17469D01*
X57422Y-17507D01*
X57437Y-17543D01*
X57457Y-17576D01*
X57484Y-17604D01*
X57516Y-17626D01*
X57551Y-17641D01*
X57589Y-17649D01*
X57628Y-17650D01*
X57666Y-17643D01*
X57702Y-17629D01*
X57734Y-17609D01*
X57762Y-17582D01*
X57784Y-17551D01*
X57800Y-17515D01*
X57809Y-17478D01*
X57809Y-17434D01*
X57809Y-22742D01*
X57793Y-22742D01*
X57793Y-18629D01*
X57786Y-18592D01*
X57771Y-18556D01*
X57750Y-18524D01*
X57722Y-18496D01*
X57690Y-18475D01*
X57655Y-18460D01*
X57617Y-18452D01*
X57578Y-18452D01*
X57541Y-18459D01*
X57505Y-18473D01*
X57472Y-18495D01*
X57445Y-18522D01*
X57423Y-18553D01*
X57408Y-18589D01*
X57400Y-18627D01*
X57399Y-18665D01*
X57406Y-18703D01*
X57420Y-18739D01*
X57441Y-18772D01*
X57468Y-18799D01*
X57500Y-18821D01*
X57535Y-18837D01*
X57573Y-18845D01*
X57612Y-18846D01*
X57650Y-18839D01*
X57686Y-18825D01*
X57718Y-18805D01*
X57746Y-18778D01*
X57768Y-18746D01*
X57784Y-18711D01*
X57793Y-18674D01*
X57793Y-18629D01*
X57793Y-22742D01*
X57340Y-22726D01*
X57340Y-15823D01*
X57332Y-15785D01*
X57317Y-15750D01*
X57296Y-15717D01*
X57269Y-15690D01*
X57237Y-15668D01*
X57201Y-15653D01*
X57163Y-15646D01*
X57125Y-15645D01*
X57087Y-15653D01*
X57051Y-15667D01*
X57019Y-15688D01*
X56991Y-15715D01*
X56969Y-15747D01*
X56954Y-15783D01*
X56946Y-15820D01*
X56946Y-15859D01*
X56953Y-15897D01*
X56967Y-15933D01*
X56988Y-15965D01*
X57015Y-15993D01*
X57046Y-16015D01*
X57082Y-16031D01*
X57119Y-16039D01*
X57158Y-16040D01*
X57196Y-16033D01*
X57232Y-16019D01*
X57265Y-15998D01*
X57293Y-15972D01*
X57315Y-15940D01*
X57330Y-15905D01*
X57339Y-15867D01*
X57340Y-15823D01*
X57340Y-22726D01*
X57279Y-22724D01*
X57279Y-16493D01*
X57263Y-16412D01*
X57231Y-16335D01*
X57185Y-16266D01*
X57127Y-16207D01*
X57058Y-16161D01*
X56982Y-16129D01*
X56900Y-16112D01*
X56817Y-16111D01*
X56787Y-16117D01*
X56787Y-14401D01*
X56779Y-14363D01*
X56765Y-14327D01*
X56743Y-14295D01*
X56716Y-14268D01*
X56684Y-14246D01*
X56649Y-14231D01*
X56611Y-14223D01*
X56572Y-14223D01*
X56534Y-14230D01*
X56498Y-14245D01*
X56466Y-14266D01*
X56439Y-14293D01*
X56417Y-14325D01*
X56402Y-14360D01*
X56393Y-14398D01*
X56393Y-14437D01*
X56400Y-14475D01*
X56414Y-14511D01*
X56435Y-14543D01*
X56462Y-14571D01*
X56494Y-14593D01*
X56529Y-14608D01*
X56567Y-14617D01*
X56605Y-14617D01*
X56643Y-14611D01*
X56679Y-14597D01*
X56712Y-14576D01*
X56740Y-14549D01*
X56762Y-14518D01*
X56778Y-14483D01*
X56786Y-14445D01*
X56787Y-14401D01*
X56787Y-16117D01*
X56736Y-16127D01*
X56659Y-16158D01*
X56589Y-16203D01*
X56530Y-16262D01*
X56483Y-16330D01*
X56450Y-16406D01*
X56433Y-16488D01*
X56432Y-16571D01*
X56447Y-16652D01*
X56478Y-16729D01*
X56523Y-16799D01*
X56580Y-16859D01*
X56648Y-16906D01*
X56724Y-16939D01*
X56805Y-16957D01*
X56888Y-16959D01*
X56970Y-16945D01*
X57048Y-16915D01*
X57118Y-16870D01*
X57178Y-16813D01*
X57226Y-16745D01*
X57259Y-16669D01*
X57278Y-16588D01*
X57279Y-16493D01*
X57279Y-22724D01*
X57261Y-22723D01*
X57261Y-18041D01*
X57254Y-18003D01*
X57239Y-17967D01*
X57218Y-17935D01*
X57191Y-17908D01*
X57159Y-17886D01*
X57123Y-17871D01*
X57085Y-17863D01*
X57047Y-17863D01*
X57009Y-17870D01*
X56973Y-17885D01*
X56941Y-17906D01*
X56913Y-17933D01*
X56891Y-17965D01*
X56876Y-18000D01*
X56868Y-18038D01*
X56867Y-18077D01*
X56874Y-18115D01*
X56889Y-18150D01*
X56909Y-18183D01*
X56936Y-18211D01*
X56968Y-18233D01*
X57003Y-18248D01*
X57041Y-18256D01*
X57080Y-18257D01*
X57118Y-18251D01*
X57154Y-18237D01*
X57186Y-18216D01*
X57214Y-18189D01*
X57236Y-18158D01*
X57252Y-18122D01*
X57261Y-18085D01*
X57261Y-18041D01*
X57261Y-22723D01*
X56950Y-22712D01*
X56950Y-20187D01*
X56942Y-20149D01*
X56928Y-20113D01*
X56906Y-20081D01*
X56879Y-20054D01*
X56847Y-20032D01*
X56812Y-20017D01*
X56774Y-20009D01*
X56735Y-20009D01*
X56697Y-20016D01*
X56661Y-20031D01*
X56629Y-20052D01*
X56602Y-20079D01*
X56580Y-20111D01*
X56564Y-20146D01*
X56556Y-20184D01*
X56556Y-20223D01*
X56563Y-20261D01*
X56577Y-20296D01*
X56598Y-20329D01*
X56625Y-20357D01*
X56657Y-20379D01*
X56692Y-20394D01*
X56730Y-20402D01*
X56768Y-20403D01*
X56806Y-20397D01*
X56842Y-20383D01*
X56875Y-20362D01*
X56903Y-20335D01*
X56925Y-20304D01*
X56941Y-20268D01*
X56949Y-20231D01*
X56950Y-20187D01*
X56950Y-22712D01*
X56427Y-22694D01*
X56427Y-17256D01*
X56420Y-17218D01*
X56405Y-17182D01*
X56383Y-17150D01*
X56356Y-17123D01*
X56324Y-17101D01*
X56289Y-17086D01*
X56251Y-17078D01*
X56212Y-17078D01*
X56174Y-17085D01*
X56146Y-17097D01*
X56135Y-17080D01*
X56107Y-17052D01*
X56075Y-17031D01*
X56061Y-17025D01*
X56061Y-16029D01*
X56054Y-15992D01*
X56039Y-15956D01*
X56018Y-15924D01*
X55991Y-15896D01*
X55959Y-15875D01*
X55923Y-15860D01*
X55885Y-15852D01*
X55847Y-15852D01*
X55809Y-15859D01*
X55773Y-15873D01*
X55741Y-15895D01*
X55713Y-15922D01*
X55691Y-15953D01*
X55676Y-15989D01*
X55668Y-16027D01*
X55667Y-16065D01*
X55674Y-16103D01*
X55689Y-16139D01*
X55709Y-16172D01*
X55736Y-16199D01*
X55768Y-16221D01*
X55803Y-16237D01*
X55841Y-16245D01*
X55880Y-16246D01*
X55918Y-16239D01*
X55954Y-16225D01*
X55986Y-16205D01*
X56014Y-16178D01*
X56036Y-16146D01*
X56052Y-16111D01*
X56061Y-16074D01*
X56061Y-16029D01*
X56061Y-17025D01*
X56040Y-17016D01*
X56002Y-17008D01*
X55963Y-17008D01*
X55926Y-17015D01*
X55890Y-17029D01*
X55857Y-17051D01*
X55830Y-17078D01*
X55808Y-17109D01*
X55793Y-17145D01*
X55785Y-17183D01*
X55784Y-17221D01*
X55791Y-17259D01*
X55805Y-17295D01*
X55826Y-17328D01*
X55853Y-17355D01*
X55885Y-17377D01*
X55920Y-17393D01*
X55958Y-17401D01*
X55997Y-17402D01*
X56035Y-17395D01*
X56066Y-17383D01*
X56075Y-17398D01*
X56102Y-17426D01*
X56134Y-17448D01*
X56169Y-17463D01*
X56207Y-17472D01*
X56245Y-17472D01*
X56283Y-17466D01*
X56319Y-17452D01*
X56352Y-17431D01*
X56380Y-17404D01*
X56402Y-17373D01*
X56418Y-17338D01*
X56426Y-17300D01*
X56427Y-17256D01*
X56427Y-22694D01*
X56263Y-22689D01*
X56263Y-19270D01*
X56255Y-19232D01*
X56240Y-19196D01*
X56219Y-19164D01*
X56192Y-19137D01*
X56175Y-19126D01*
X56175Y-17613D01*
X56168Y-17575D01*
X56153Y-17540D01*
X56132Y-17507D01*
X56104Y-17480D01*
X56072Y-17458D01*
X56037Y-17443D01*
X55999Y-17436D01*
X55960Y-17435D01*
X55922Y-17443D01*
X55887Y-17457D01*
X55854Y-17478D01*
X55827Y-17505D01*
X55805Y-17537D01*
X55790Y-17573D01*
X55782Y-17610D01*
X55781Y-17649D01*
X55788Y-17687D01*
X55802Y-17723D01*
X55823Y-17755D01*
X55850Y-17783D01*
X55882Y-17805D01*
X55917Y-17821D01*
X55955Y-17829D01*
X55993Y-17830D01*
X56031Y-17823D01*
X56067Y-17809D01*
X56100Y-17788D01*
X56128Y-17762D01*
X56150Y-17730D01*
X56166Y-17695D01*
X56174Y-17657D01*
X56175Y-17613D01*
X56175Y-19126D01*
X56160Y-19115D01*
X56124Y-19100D01*
X56086Y-19093D01*
X56048Y-19092D01*
X56010Y-19100D01*
X55974Y-19114D01*
X55942Y-19135D01*
X55914Y-19162D01*
X55892Y-19194D01*
X55877Y-19230D01*
X55869Y-19267D01*
X55869Y-19306D01*
X55876Y-19344D01*
X55890Y-19380D01*
X55911Y-19412D01*
X55937Y-19440D01*
X55969Y-19462D01*
X56005Y-19477D01*
X56042Y-19486D01*
X56081Y-19487D01*
X56119Y-19480D01*
X56155Y-19466D01*
X56187Y-19445D01*
X56215Y-19419D01*
X56238Y-19387D01*
X56253Y-19352D01*
X56262Y-19314D01*
X56263Y-19270D01*
X56263Y-22689D01*
X55885Y-22676D01*
X55885Y-21240D01*
X55878Y-21202D01*
X55863Y-21166D01*
X55842Y-21134D01*
X55815Y-21107D01*
X55783Y-21085D01*
X55747Y-21070D01*
X55709Y-21063D01*
X55671Y-21062D01*
X55664Y-21064D01*
X55664Y-19630D01*
X55657Y-19592D01*
X55642Y-19557D01*
X55621Y-19525D01*
X55593Y-19497D01*
X55561Y-19476D01*
X55526Y-19461D01*
X55488Y-19453D01*
X55473Y-19453D01*
X55473Y-19053D01*
X55465Y-19015D01*
X55451Y-18980D01*
X55429Y-18947D01*
X55402Y-18920D01*
X55370Y-18898D01*
X55334Y-18883D01*
X55297Y-18876D01*
X55294Y-18876D01*
X55294Y-17732D01*
X55286Y-17694D01*
X55272Y-17658D01*
X55250Y-17626D01*
X55223Y-17599D01*
X55191Y-17577D01*
X55156Y-17562D01*
X55118Y-17555D01*
X55079Y-17554D01*
X55041Y-17562D01*
X55005Y-17576D01*
X54973Y-17597D01*
X54946Y-17624D01*
X54924Y-17656D01*
X54909Y-17692D01*
X54901Y-17729D01*
X54900Y-17768D01*
X54907Y-17806D01*
X54921Y-17842D01*
X54942Y-17874D01*
X54969Y-17902D01*
X55001Y-17924D01*
X55036Y-17939D01*
X55074Y-17948D01*
X55112Y-17949D01*
X55150Y-17942D01*
X55186Y-17928D01*
X55219Y-17907D01*
X55247Y-17881D01*
X55269Y-17849D01*
X55285Y-17814D01*
X55293Y-17776D01*
X55294Y-17732D01*
X55294Y-18876D01*
X55258Y-18875D01*
X55220Y-18883D01*
X55184Y-18897D01*
X55152Y-18918D01*
X55124Y-18945D01*
X55103Y-18977D01*
X55087Y-19013D01*
X55079Y-19050D01*
X55079Y-19089D01*
X55084Y-19118D01*
X55076Y-19116D01*
X55037Y-19116D01*
X55000Y-19123D01*
X54964Y-19138D01*
X54931Y-19159D01*
X54904Y-19186D01*
X54882Y-19218D01*
X54867Y-19253D01*
X54859Y-19291D01*
X54858Y-19329D01*
X54865Y-19367D01*
X54879Y-19403D01*
X54900Y-19436D01*
X54927Y-19464D01*
X54959Y-19486D01*
X54994Y-19501D01*
X55032Y-19509D01*
X55071Y-19510D01*
X55109Y-19503D01*
X55145Y-19489D01*
X55177Y-19469D01*
X55205Y-19442D01*
X55227Y-19411D01*
X55243Y-19375D01*
X55252Y-19338D01*
X55252Y-19294D01*
X55247Y-19268D01*
X55252Y-19269D01*
X55291Y-19270D01*
X55329Y-19263D01*
X55365Y-19249D01*
X55398Y-19228D01*
X55426Y-19202D01*
X55448Y-19170D01*
X55464Y-19135D01*
X55472Y-19097D01*
X55473Y-19053D01*
X55473Y-19453D01*
X55449Y-19453D01*
X55411Y-19460D01*
X55376Y-19474D01*
X55343Y-19495D01*
X55316Y-19522D01*
X55294Y-19554D01*
X55279Y-19590D01*
X55271Y-19628D01*
X55270Y-19666D01*
X55277Y-19704D01*
X55291Y-19740D01*
X55312Y-19772D01*
X55339Y-19800D01*
X55371Y-19822D01*
X55406Y-19838D01*
X55444Y-19846D01*
X55482Y-19847D01*
X55520Y-19840D01*
X55556Y-19826D01*
X55589Y-19805D01*
X55617Y-19779D01*
X55639Y-19747D01*
X55655Y-19712D01*
X55663Y-19674D01*
X55664Y-19630D01*
X55664Y-21064D01*
X55633Y-21070D01*
X55597Y-21084D01*
X55565Y-21105D01*
X55537Y-21132D01*
X55515Y-21164D01*
X55500Y-21200D01*
X55492Y-21237D01*
X55491Y-21276D01*
X55498Y-21314D01*
X55513Y-21350D01*
X55533Y-21382D01*
X55560Y-21410D01*
X55592Y-21432D01*
X55627Y-21447D01*
X55665Y-21456D01*
X55704Y-21457D01*
X55742Y-21450D01*
X55778Y-21436D01*
X55810Y-21415D01*
X55838Y-21389D01*
X55860Y-21357D01*
X55876Y-21322D01*
X55885Y-21284D01*
X55885Y-21240D01*
X55885Y-22676D01*
X55590Y-22665D01*
X55590Y-22823D01*
X61068Y-23032D01*
X61086Y-22855D01*
X61086Y-24218D01*
X61017Y-24278D01*
X59936Y-25211D01*
X59931Y-25210D01*
X59924Y-25222D01*
X59909Y-25235D01*
X59915Y-25238D01*
X58228Y-28181D01*
X58228Y-27342D01*
X58220Y-27305D01*
X58206Y-27269D01*
X58184Y-27237D01*
X58157Y-27209D01*
X58125Y-27188D01*
X58089Y-27173D01*
X58052Y-27165D01*
X58013Y-27165D01*
X57975Y-27172D01*
X57939Y-27186D01*
X57907Y-27208D01*
X57879Y-27235D01*
X57858Y-27266D01*
X57854Y-27275D01*
X57854Y-24449D01*
X57846Y-24411D01*
X57832Y-24375D01*
X57810Y-24343D01*
X57783Y-24316D01*
X57751Y-24294D01*
X57715Y-24279D01*
X57678Y-24271D01*
X57639Y-24271D01*
X57601Y-24278D01*
X57565Y-24293D01*
X57533Y-24314D01*
X57505Y-24341D01*
X57484Y-24373D01*
X57481Y-24380D01*
X57481Y-23222D01*
X57473Y-23184D01*
X57458Y-23148D01*
X57437Y-23116D01*
X57410Y-23089D01*
X57378Y-23067D01*
X57342Y-23052D01*
X57304Y-23045D01*
X57266Y-23044D01*
X57228Y-23052D01*
X57192Y-23066D01*
X57160Y-23087D01*
X57132Y-23114D01*
X57110Y-23146D01*
X57095Y-23182D01*
X57087Y-23219D01*
X57087Y-23258D01*
X57094Y-23296D01*
X57108Y-23332D01*
X57129Y-23364D01*
X57156Y-23392D01*
X57187Y-23414D01*
X57223Y-23429D01*
X57260Y-23438D01*
X57299Y-23439D01*
X57337Y-23432D01*
X57373Y-23418D01*
X57406Y-23397D01*
X57433Y-23371D01*
X57456Y-23339D01*
X57471Y-23304D01*
X57480Y-23266D01*
X57481Y-23222D01*
X57481Y-24380D01*
X57468Y-24408D01*
X57460Y-24446D01*
X57460Y-24485D01*
X57467Y-24523D01*
X57481Y-24558D01*
X57502Y-24591D01*
X57529Y-24619D01*
X57560Y-24641D01*
X57596Y-24656D01*
X57634Y-24664D01*
X57672Y-24665D01*
X57710Y-24659D01*
X57746Y-24645D01*
X57779Y-24624D01*
X57807Y-24597D01*
X57829Y-24566D01*
X57845Y-24530D01*
X57853Y-24493D01*
X57854Y-24449D01*
X57854Y-27275D01*
X57842Y-27302D01*
X57834Y-27340D01*
X57834Y-27378D01*
X57841Y-27416D01*
X57855Y-27452D01*
X57876Y-27485D01*
X57903Y-27512D01*
X57934Y-27534D01*
X57970Y-27550D01*
X58008Y-27558D01*
X58046Y-27559D01*
X58084Y-27552D01*
X58120Y-27538D01*
X58153Y-27518D01*
X58181Y-27491D01*
X58203Y-27459D01*
X58219Y-27424D01*
X58227Y-27386D01*
X58228Y-27342D01*
X58228Y-28181D01*
X56742Y-30773D01*
X56742Y-25172D01*
X56734Y-25134D01*
X56719Y-25098D01*
X56698Y-25066D01*
X56671Y-25039D01*
X56639Y-25017D01*
X56603Y-25002D01*
X56565Y-24995D01*
X56527Y-24994D01*
X56489Y-25002D01*
X56453Y-25016D01*
X56421Y-25037D01*
X56393Y-25064D01*
X56371Y-25096D01*
X56356Y-25132D01*
X56348Y-25169D01*
X56348Y-25208D01*
X56355Y-25246D01*
X56369Y-25282D01*
X56390Y-25314D01*
X56417Y-25342D01*
X56448Y-25364D01*
X56484Y-25379D01*
X56521Y-25388D01*
X56560Y-25389D01*
X56598Y-25382D01*
X56634Y-25368D01*
X56667Y-25347D01*
X56695Y-25321D01*
X56717Y-25289D01*
X56732Y-25254D01*
X56741Y-25216D01*
X56742Y-25172D01*
X56742Y-30773D01*
X55779Y-32453D01*
X55779Y-23513D01*
X55771Y-23475D01*
X55756Y-23440D01*
X55735Y-23407D01*
X55708Y-23380D01*
X55676Y-23358D01*
X55640Y-23344D01*
X55602Y-23336D01*
X55564Y-23336D01*
X55526Y-23343D01*
X55490Y-23357D01*
X55458Y-23378D01*
X55430Y-23405D01*
X55408Y-23437D01*
X55393Y-23473D01*
X55385Y-23510D01*
X55385Y-23549D01*
X55392Y-23587D01*
X55406Y-23623D01*
X55427Y-23655D01*
X55454Y-23683D01*
X55485Y-23705D01*
X55521Y-23721D01*
X55558Y-23729D01*
X55597Y-23730D01*
X55635Y-23723D01*
X55671Y-23709D01*
X55704Y-23688D01*
X55732Y-23662D01*
X55754Y-23630D01*
X55769Y-23595D01*
X55778Y-23557D01*
X55779Y-23513D01*
X55779Y-32453D01*
X55278Y-33326D01*
X55264Y-33326D01*
X55264Y-25470D01*
X55257Y-25432D01*
X55242Y-25396D01*
X55221Y-25364D01*
X55193Y-25336D01*
X55161Y-25315D01*
X55126Y-25300D01*
X55088Y-25292D01*
X55049Y-25292D01*
X55011Y-25299D01*
X54976Y-25314D01*
X54943Y-25335D01*
X54916Y-25362D01*
X54894Y-25394D01*
X54879Y-25429D01*
X54871Y-25467D01*
X54870Y-25505D01*
X54877Y-25543D01*
X54891Y-25579D01*
X54912Y-25612D01*
X54939Y-25640D01*
X54971Y-25662D01*
X55006Y-25677D01*
X55044Y-25685D01*
X55082Y-25686D01*
X55120Y-25679D01*
X55156Y-25665D01*
X55189Y-25645D01*
X55217Y-25618D01*
X55239Y-25587D01*
X55255Y-25551D01*
X55263Y-25514D01*
X55264Y-25470D01*
X55264Y-33326D01*
X55255Y-33326D01*
X55255Y-29586D01*
X55248Y-29549D01*
X55233Y-29513D01*
X55212Y-29481D01*
X55185Y-29453D01*
X55153Y-29432D01*
X55117Y-29417D01*
X55079Y-29409D01*
X55041Y-29409D01*
X55003Y-29416D01*
X54967Y-29431D01*
X54935Y-29452D01*
X54907Y-29479D01*
X54885Y-29511D01*
X54870Y-29546D01*
X54862Y-29584D01*
X54861Y-29622D01*
X54868Y-29660D01*
X54883Y-29696D01*
X54904Y-29729D01*
X54930Y-29756D01*
X54962Y-29778D01*
X54997Y-29794D01*
X55035Y-29802D01*
X55074Y-29803D01*
X55112Y-29796D01*
X55148Y-29782D01*
X55180Y-29762D01*
X55208Y-29735D01*
X55231Y-29704D01*
X55246Y-29668D01*
X55255Y-29631D01*
X55255Y-29586D01*
X55255Y-33326D01*
X54745Y-33326D01*
X54745Y-14570D01*
X54735Y-14469D01*
X54707Y-14372D01*
X54660Y-14283D01*
X54597Y-14204D01*
X54519Y-14139D01*
X54431Y-14090D01*
X54334Y-14060D01*
X54234Y-14048D01*
X54226Y-14048D01*
X54221Y-14048D01*
X54121Y-14058D01*
X54024Y-14087D01*
X53935Y-14135D01*
X53856Y-14199D01*
X53792Y-14277D01*
X53744Y-14366D01*
X53714Y-14462D01*
X53703Y-14563D01*
X53712Y-14664D01*
X53741Y-14761D01*
X53788Y-14850D01*
X53851Y-14929D01*
X53929Y-14994D01*
X54017Y-15043D01*
X54114Y-15073D01*
X54214Y-15084D01*
X54221Y-15085D01*
X54226Y-15085D01*
X54327Y-15075D01*
X54424Y-15045D01*
X54513Y-14998D01*
X54591Y-14934D01*
X54656Y-14856D01*
X54704Y-14767D01*
X54734Y-14671D01*
X54745Y-14570D01*
X54745Y-33326D01*
X54665Y-33326D01*
X54665Y-33171D01*
X54665Y-33147D01*
X54665Y-32537D01*
X54660Y-32514D01*
X54651Y-32493D01*
X54638Y-32473D01*
X54622Y-32457D01*
X54607Y-32447D01*
X54607Y-20441D01*
X54599Y-20403D01*
X54584Y-20367D01*
X54563Y-20335D01*
X54536Y-20308D01*
X54504Y-20286D01*
X54468Y-20271D01*
X54430Y-20264D01*
X54392Y-20263D01*
X54374Y-20267D01*
X54374Y-15457D01*
X54366Y-15420D01*
X54352Y-15384D01*
X54330Y-15352D01*
X54303Y-15324D01*
X54271Y-15303D01*
X54236Y-15288D01*
X54198Y-15280D01*
X54159Y-15280D01*
X54121Y-15287D01*
X54085Y-15301D01*
X54053Y-15323D01*
X54026Y-15350D01*
X54004Y-15381D01*
X53989Y-15417D01*
X53980Y-15455D01*
X53980Y-15493D01*
X53987Y-15531D01*
X54001Y-15567D01*
X54022Y-15600D01*
X54049Y-15627D01*
X54081Y-15649D01*
X54116Y-15665D01*
X54154Y-15673D01*
X54192Y-15674D01*
X54230Y-15667D01*
X54266Y-15653D01*
X54299Y-15633D01*
X54327Y-15606D01*
X54349Y-15574D01*
X54365Y-15539D01*
X54373Y-15502D01*
X54374Y-15457D01*
X54374Y-20267D01*
X54354Y-20270D01*
X54318Y-20285D01*
X54286Y-20306D01*
X54258Y-20333D01*
X54236Y-20365D01*
X54221Y-20400D01*
X54213Y-20438D01*
X54213Y-20477D01*
X54220Y-20515D01*
X54234Y-20551D01*
X54255Y-20583D01*
X54282Y-20611D01*
X54313Y-20633D01*
X54349Y-20648D01*
X54386Y-20657D01*
X54425Y-20657D01*
X54463Y-20651D01*
X54499Y-20637D01*
X54532Y-20616D01*
X54559Y-20589D01*
X54582Y-20558D01*
X54597Y-20523D01*
X54606Y-20485D01*
X54607Y-20441D01*
X54607Y-32447D01*
X54603Y-32444D01*
X54581Y-32435D01*
X54558Y-32431D01*
X54535Y-32431D01*
X54275Y-32431D01*
X54275Y-20785D01*
X54268Y-20747D01*
X54253Y-20711D01*
X54232Y-20679D01*
X54204Y-20652D01*
X54172Y-20630D01*
X54137Y-20615D01*
X54099Y-20607D01*
X54060Y-20607D01*
X54022Y-20614D01*
X53987Y-20629D01*
X53954Y-20650D01*
X53936Y-20668D01*
X53936Y-19833D01*
X53929Y-19795D01*
X53914Y-19760D01*
X53893Y-19728D01*
X53865Y-19700D01*
X53833Y-19679D01*
X53798Y-19664D01*
X53760Y-19656D01*
X53721Y-19656D01*
X53683Y-19663D01*
X53676Y-19666D01*
X53676Y-15005D01*
X53669Y-14967D01*
X53654Y-14931D01*
X53633Y-14899D01*
X53606Y-14872D01*
X53574Y-14850D01*
X53538Y-14835D01*
X53500Y-14828D01*
X53461Y-14827D01*
X53424Y-14835D01*
X53388Y-14849D01*
X53355Y-14870D01*
X53328Y-14897D01*
X53306Y-14929D01*
X53291Y-14965D01*
X53283Y-15002D01*
X53282Y-15041D01*
X53289Y-15079D01*
X53303Y-15115D01*
X53324Y-15147D01*
X53351Y-15175D01*
X53383Y-15197D01*
X53418Y-15212D01*
X53456Y-15221D01*
X53495Y-15222D01*
X53533Y-15215D01*
X53569Y-15201D01*
X53601Y-15180D01*
X53629Y-15154D01*
X53651Y-15122D01*
X53667Y-15087D01*
X53676Y-15049D01*
X53676Y-15005D01*
X53676Y-19666D01*
X53648Y-19677D01*
X53615Y-19698D01*
X53588Y-19725D01*
X53566Y-19757D01*
X53551Y-19793D01*
X53546Y-19817D01*
X53546Y-16897D01*
X53538Y-16860D01*
X53523Y-16824D01*
X53502Y-16792D01*
X53475Y-16764D01*
X53443Y-16743D01*
X53407Y-16728D01*
X53369Y-16720D01*
X53331Y-16720D01*
X53293Y-16727D01*
X53257Y-16741D01*
X53225Y-16763D01*
X53197Y-16790D01*
X53175Y-16821D01*
X53160Y-16857D01*
X53152Y-16895D01*
X53152Y-16933D01*
X53156Y-16956D01*
X53154Y-16957D01*
X53122Y-16978D01*
X53094Y-17005D01*
X53073Y-17037D01*
X53057Y-17072D01*
X53049Y-17110D01*
X53049Y-17149D01*
X53056Y-17187D01*
X53070Y-17223D01*
X53091Y-17255D01*
X53118Y-17283D01*
X53149Y-17305D01*
X53185Y-17320D01*
X53223Y-17329D01*
X53261Y-17329D01*
X53299Y-17323D01*
X53335Y-17309D01*
X53368Y-17288D01*
X53396Y-17261D01*
X53418Y-17230D01*
X53434Y-17195D01*
X53442Y-17157D01*
X53443Y-17113D01*
X53439Y-17093D01*
X53470Y-17073D01*
X53498Y-17046D01*
X53521Y-17014D01*
X53536Y-16979D01*
X53545Y-16941D01*
X53546Y-16897D01*
X53546Y-19817D01*
X53543Y-19831D01*
X53542Y-19869D01*
X53549Y-19907D01*
X53563Y-19943D01*
X53584Y-19975D01*
X53611Y-20003D01*
X53643Y-20025D01*
X53678Y-20041D01*
X53716Y-20049D01*
X53754Y-20050D01*
X53792Y-20043D01*
X53828Y-20029D01*
X53861Y-20008D01*
X53889Y-19982D01*
X53911Y-19950D01*
X53927Y-19915D01*
X53936Y-19877D01*
X53936Y-19833D01*
X53936Y-20668D01*
X53927Y-20677D01*
X53905Y-20709D01*
X53890Y-20744D01*
X53882Y-20782D01*
X53881Y-20821D01*
X53888Y-20859D01*
X53902Y-20895D01*
X53923Y-20927D01*
X53950Y-20955D01*
X53982Y-20977D01*
X54017Y-20992D01*
X54055Y-21001D01*
X54093Y-21001D01*
X54131Y-20995D01*
X54167Y-20981D01*
X54200Y-20960D01*
X54228Y-20933D01*
X54250Y-20902D01*
X54266Y-20867D01*
X54274Y-20829D01*
X54275Y-20785D01*
X54275Y-32431D01*
X54204Y-32431D01*
X54204Y-31793D01*
X54199Y-31734D01*
X54182Y-31677D01*
X54154Y-31624D01*
X54117Y-31577D01*
X54071Y-31539D01*
X54019Y-31510D01*
X53962Y-31492D01*
X53903Y-31486D01*
X53899Y-31486D01*
X53777Y-31486D01*
X53718Y-31492D01*
X53661Y-31509D01*
X53654Y-31513D01*
X53654Y-21124D01*
X53646Y-21086D01*
X53632Y-21051D01*
X53610Y-21019D01*
X53583Y-20991D01*
X53551Y-20970D01*
X53515Y-20955D01*
X53478Y-20947D01*
X53440Y-20947D01*
X53440Y-18661D01*
X53433Y-18623D01*
X53418Y-18588D01*
X53418Y-18587D01*
X53418Y-18106D01*
X53410Y-18068D01*
X53395Y-18033D01*
X53374Y-18000D01*
X53347Y-17973D01*
X53315Y-17951D01*
X53279Y-17936D01*
X53241Y-17929D01*
X53203Y-17928D01*
X53165Y-17936D01*
X53129Y-17950D01*
X53097Y-17971D01*
X53069Y-17998D01*
X53047Y-18030D01*
X53032Y-18066D01*
X53024Y-18103D01*
X53024Y-18142D01*
X53031Y-18180D01*
X53045Y-18216D01*
X53066Y-18248D01*
X53093Y-18276D01*
X53124Y-18298D01*
X53160Y-18314D01*
X53197Y-18322D01*
X53236Y-18323D01*
X53274Y-18316D01*
X53310Y-18302D01*
X53343Y-18281D01*
X53370Y-18255D01*
X53393Y-18223D01*
X53408Y-18188D01*
X53417Y-18150D01*
X53418Y-18106D01*
X53418Y-18587D01*
X53397Y-18555D01*
X53370Y-18528D01*
X53338Y-18506D01*
X53302Y-18491D01*
X53264Y-18484D01*
X53226Y-18483D01*
X53188Y-18491D01*
X53152Y-18505D01*
X53120Y-18526D01*
X53092Y-18553D01*
X53070Y-18585D01*
X53055Y-18621D01*
X53047Y-18658D01*
X53046Y-18697D01*
X53053Y-18735D01*
X53068Y-18771D01*
X53089Y-18803D01*
X53115Y-18831D01*
X53147Y-18853D01*
X53182Y-18868D01*
X53220Y-18877D01*
X53259Y-18878D01*
X53297Y-18871D01*
X53333Y-18857D01*
X53365Y-18836D01*
X53393Y-18810D01*
X53416Y-18778D01*
X53431Y-18743D01*
X53440Y-18705D01*
X53440Y-18661D01*
X53440Y-20947D01*
X53439Y-20947D01*
X53401Y-20954D01*
X53365Y-20968D01*
X53333Y-20989D01*
X53305Y-21016D01*
X53284Y-21048D01*
X53268Y-21084D01*
X53260Y-21122D01*
X53260Y-21160D01*
X53267Y-21198D01*
X53281Y-21234D01*
X53302Y-21266D01*
X53329Y-21294D01*
X53360Y-21316D01*
X53396Y-21332D01*
X53434Y-21340D01*
X53472Y-21341D01*
X53510Y-21334D01*
X53546Y-21320D01*
X53579Y-21300D01*
X53607Y-21273D01*
X53629Y-21241D01*
X53645Y-21206D01*
X53653Y-21168D01*
X53654Y-21124D01*
X53654Y-31513D01*
X53623Y-31529D01*
X53623Y-24845D01*
X53616Y-24807D01*
X53612Y-24797D01*
X53612Y-21988D01*
X53604Y-21950D01*
X53590Y-21915D01*
X53568Y-21882D01*
X53541Y-21855D01*
X53509Y-21833D01*
X53473Y-21818D01*
X53436Y-21811D01*
X53397Y-21810D01*
X53359Y-21818D01*
X53323Y-21832D01*
X53291Y-21853D01*
X53263Y-21880D01*
X53242Y-21912D01*
X53226Y-21948D01*
X53218Y-21985D01*
X53218Y-22024D01*
X53225Y-22062D01*
X53239Y-22098D01*
X53260Y-22130D01*
X53287Y-22158D01*
X53318Y-22180D01*
X53354Y-22195D01*
X53391Y-22204D01*
X53430Y-22205D01*
X53468Y-22198D01*
X53504Y-22184D01*
X53537Y-22163D01*
X53565Y-22137D01*
X53587Y-22105D01*
X53603Y-22070D01*
X53611Y-22032D01*
X53612Y-21988D01*
X53612Y-24797D01*
X53601Y-24771D01*
X53580Y-24739D01*
X53578Y-24738D01*
X53578Y-22501D01*
X53571Y-22464D01*
X53556Y-22428D01*
X53535Y-22396D01*
X53507Y-22368D01*
X53475Y-22347D01*
X53440Y-22332D01*
X53402Y-22324D01*
X53363Y-22324D01*
X53326Y-22331D01*
X53290Y-22345D01*
X53257Y-22367D01*
X53230Y-22394D01*
X53208Y-22425D01*
X53193Y-22461D01*
X53185Y-22499D01*
X53184Y-22537D01*
X53191Y-22575D01*
X53205Y-22611D01*
X53226Y-22644D01*
X53253Y-22671D01*
X53285Y-22693D01*
X53320Y-22709D01*
X53358Y-22717D01*
X53397Y-22718D01*
X53435Y-22711D01*
X53471Y-22697D01*
X53503Y-22677D01*
X53531Y-22650D01*
X53553Y-22618D01*
X53569Y-22583D01*
X53578Y-22546D01*
X53578Y-22501D01*
X53578Y-24738D01*
X53552Y-24712D01*
X53520Y-24690D01*
X53485Y-24675D01*
X53447Y-24667D01*
X53408Y-24667D01*
X53370Y-24674D01*
X53335Y-24689D01*
X53302Y-24710D01*
X53275Y-24737D01*
X53253Y-24769D01*
X53238Y-24804D01*
X53230Y-24842D01*
X53229Y-24881D01*
X53236Y-24918D01*
X53250Y-24954D01*
X53271Y-24987D01*
X53298Y-25015D01*
X53330Y-25037D01*
X53365Y-25052D01*
X53403Y-25060D01*
X53441Y-25061D01*
X53479Y-25054D01*
X53515Y-25041D01*
X53548Y-25020D01*
X53576Y-24993D01*
X53598Y-24962D01*
X53614Y-24926D01*
X53623Y-24889D01*
X53623Y-24845D01*
X53623Y-31529D01*
X53608Y-31537D01*
X53562Y-31574D01*
X53524Y-31620D01*
X53496Y-31673D01*
X53478Y-31729D01*
X53472Y-31789D01*
X53478Y-31848D01*
X53494Y-31905D01*
X53522Y-31958D01*
X53559Y-32004D01*
X53605Y-32043D01*
X53657Y-32071D01*
X53714Y-32089D01*
X53773Y-32096D01*
X53777Y-32096D01*
X53899Y-32096D01*
X53958Y-32090D01*
X54015Y-32073D01*
X54068Y-32045D01*
X54114Y-32007D01*
X54152Y-31961D01*
X54180Y-31909D01*
X54198Y-31852D01*
X54204Y-31793D01*
X54204Y-32431D01*
X53748Y-32431D01*
X53725Y-32435D01*
X53703Y-32444D01*
X53684Y-32457D01*
X53668Y-32473D01*
X53655Y-32493D01*
X53646Y-32514D01*
X53641Y-32537D01*
X53641Y-32560D01*
X53641Y-33171D01*
X53646Y-33193D01*
X53655Y-33215D01*
X53668Y-33234D01*
X53684Y-33251D01*
X53703Y-33264D01*
X53725Y-33273D01*
X53748Y-33277D01*
X53771Y-33277D01*
X54558Y-33277D01*
X54581Y-33273D01*
X54603Y-33264D01*
X54622Y-33251D01*
X54638Y-33234D01*
X54651Y-33215D01*
X54660Y-33193D01*
X54665Y-33171D01*
X54665Y-33326D01*
X52585Y-33326D01*
X52585Y-25546D01*
X52585Y-14860D01*
X52577Y-14822D01*
X52562Y-14787D01*
X52541Y-14755D01*
X52514Y-14727D01*
X52482Y-14706D01*
X52446Y-14691D01*
X52408Y-14683D01*
X52370Y-14683D01*
X52332Y-14690D01*
X52296Y-14704D01*
X52264Y-14725D01*
X52236Y-14752D01*
X52214Y-14784D01*
X52199Y-14820D01*
X52191Y-14858D01*
X52191Y-14896D01*
X52198Y-14934D01*
X52212Y-14970D01*
X52233Y-15002D01*
X52259Y-15030D01*
X52291Y-15052D01*
X52327Y-15068D01*
X52364Y-15076D01*
X52403Y-15077D01*
X52441Y-15070D01*
X52477Y-15056D01*
X52509Y-15035D01*
X52537Y-15009D01*
X52560Y-14977D01*
X52575Y-14942D01*
X52584Y-14904D01*
X52585Y-14860D01*
X52585Y-25546D01*
X52577Y-25508D01*
X52562Y-25472D01*
X52541Y-25440D01*
X52514Y-25412D01*
X52482Y-25391D01*
X52446Y-25376D01*
X52408Y-25368D01*
X52370Y-25368D01*
X52332Y-25375D01*
X52296Y-25390D01*
X52264Y-25411D01*
X52236Y-25438D01*
X52214Y-25470D01*
X52199Y-25505D01*
X52191Y-25543D01*
X52191Y-25581D01*
X52198Y-25619D01*
X52212Y-25655D01*
X52233Y-25688D01*
X52259Y-25715D01*
X52291Y-25738D01*
X52327Y-25753D01*
X52364Y-25761D01*
X52403Y-25762D01*
X52441Y-25755D01*
X52477Y-25741D01*
X52509Y-25721D01*
X52537Y-25694D01*
X52560Y-25663D01*
X52575Y-25627D01*
X52584Y-25590D01*
X52585Y-25546D01*
X52585Y-33326D01*
X52236Y-33326D01*
X52236Y-31793D01*
X52230Y-31734D01*
X52213Y-31677D01*
X52186Y-31624D01*
X52148Y-31577D01*
X52103Y-31539D01*
X52051Y-31510D01*
X51994Y-31492D01*
X51935Y-31486D01*
X51930Y-31486D01*
X51809Y-31486D01*
X51749Y-31492D01*
X51692Y-31509D01*
X51651Y-31531D01*
X51651Y-30098D01*
X51644Y-30060D01*
X51629Y-30025D01*
X51608Y-29993D01*
X51581Y-29965D01*
X51549Y-29944D01*
X51513Y-29929D01*
X51475Y-29921D01*
X51437Y-29921D01*
X51399Y-29928D01*
X51363Y-29942D01*
X51351Y-29950D01*
X51351Y-27714D01*
X51351Y-27710D01*
X51351Y-26714D01*
X51351Y-26710D01*
X51351Y-25714D01*
X51351Y-25710D01*
X51351Y-24714D01*
X51351Y-24710D01*
X51351Y-23714D01*
X51351Y-23710D01*
X51351Y-22714D01*
X51351Y-22710D01*
X51351Y-21714D01*
X51351Y-21710D01*
X51351Y-20714D01*
X51351Y-20710D01*
X51351Y-19714D01*
X51351Y-19710D01*
X51351Y-17537D01*
X51351Y-17533D01*
X51351Y-16537D01*
X51351Y-16533D01*
X51351Y-15537D01*
X51351Y-15533D01*
X51351Y-14537D01*
X51351Y-14533D01*
X51343Y-14444D01*
X51317Y-14358D01*
X51275Y-14279D01*
X51218Y-14210D01*
X51149Y-14153D01*
X51071Y-14110D01*
X50985Y-14084D01*
X50896Y-14075D01*
X50807Y-14083D01*
X50722Y-14108D01*
X50642Y-14149D01*
X50573Y-14205D01*
X50515Y-14274D01*
X50472Y-14352D01*
X50445Y-14437D01*
X50435Y-14526D01*
X50435Y-14533D01*
X50435Y-14537D01*
X50444Y-14626D01*
X50470Y-14712D01*
X50512Y-14791D01*
X50568Y-14860D01*
X50637Y-14917D01*
X50716Y-14959D01*
X50801Y-14986D01*
X50890Y-14995D01*
X50979Y-14987D01*
X51065Y-14962D01*
X51144Y-14920D01*
X51214Y-14864D01*
X51271Y-14796D01*
X51314Y-14718D01*
X51341Y-14632D01*
X51351Y-14544D01*
X51351Y-14537D01*
X51351Y-15533D01*
X51343Y-15444D01*
X51317Y-15358D01*
X51275Y-15279D01*
X51218Y-15210D01*
X51149Y-15153D01*
X51071Y-15110D01*
X50985Y-15084D01*
X50896Y-15075D01*
X50807Y-15083D01*
X50722Y-15108D01*
X50642Y-15149D01*
X50573Y-15205D01*
X50515Y-15274D01*
X50472Y-15352D01*
X50445Y-15437D01*
X50435Y-15526D01*
X50435Y-15533D01*
X50435Y-15537D01*
X50444Y-15626D01*
X50470Y-15712D01*
X50512Y-15791D01*
X50568Y-15860D01*
X50637Y-15917D01*
X50716Y-15959D01*
X50801Y-15986D01*
X50890Y-15995D01*
X50979Y-15987D01*
X51065Y-15962D01*
X51144Y-15920D01*
X51214Y-15864D01*
X51271Y-15796D01*
X51314Y-15718D01*
X51341Y-15632D01*
X51351Y-15544D01*
X51351Y-15537D01*
X51351Y-16533D01*
X51343Y-16444D01*
X51317Y-16358D01*
X51275Y-16279D01*
X51218Y-16210D01*
X51149Y-16153D01*
X51071Y-16110D01*
X50985Y-16084D01*
X50896Y-16075D01*
X50807Y-16083D01*
X50722Y-16108D01*
X50642Y-16149D01*
X50573Y-16205D01*
X50515Y-16274D01*
X50472Y-16352D01*
X50445Y-16437D01*
X50435Y-16526D01*
X50435Y-16533D01*
X50435Y-16537D01*
X50444Y-16626D01*
X50470Y-16712D01*
X50512Y-16791D01*
X50568Y-16860D01*
X50637Y-16917D01*
X50716Y-16959D01*
X50801Y-16986D01*
X50890Y-16995D01*
X50979Y-16987D01*
X51065Y-16962D01*
X51144Y-16920D01*
X51214Y-16864D01*
X51271Y-16796D01*
X51314Y-16718D01*
X51341Y-16632D01*
X51351Y-16544D01*
X51351Y-16537D01*
X51351Y-17533D01*
X51343Y-17444D01*
X51317Y-17358D01*
X51275Y-17279D01*
X51218Y-17210D01*
X51149Y-17153D01*
X51071Y-17110D01*
X50985Y-17084D01*
X50896Y-17075D01*
X50807Y-17083D01*
X50722Y-17108D01*
X50642Y-17149D01*
X50573Y-17205D01*
X50515Y-17274D01*
X50472Y-17352D01*
X50445Y-17437D01*
X50435Y-17526D01*
X50435Y-17533D01*
X50435Y-17537D01*
X50444Y-17626D01*
X50470Y-17712D01*
X50512Y-17791D01*
X50568Y-17860D01*
X50637Y-17917D01*
X50716Y-17959D01*
X50801Y-17986D01*
X50890Y-17995D01*
X50979Y-17987D01*
X51065Y-17962D01*
X51144Y-17920D01*
X51214Y-17864D01*
X51271Y-17796D01*
X51314Y-17718D01*
X51341Y-17632D01*
X51351Y-17544D01*
X51351Y-17537D01*
X51351Y-19710D01*
X51343Y-19621D01*
X51317Y-19535D01*
X51275Y-19456D01*
X51218Y-19387D01*
X51149Y-19330D01*
X51071Y-19288D01*
X50985Y-19261D01*
X50896Y-19252D01*
X50807Y-19260D01*
X50722Y-19285D01*
X50642Y-19327D01*
X50573Y-19383D01*
X50515Y-19451D01*
X50472Y-19529D01*
X50445Y-19615D01*
X50435Y-19703D01*
X50435Y-19710D01*
X50435Y-19714D01*
X50444Y-19803D01*
X50470Y-19889D01*
X50512Y-19968D01*
X50568Y-20037D01*
X50637Y-20094D01*
X50716Y-20137D01*
X50801Y-20163D01*
X50890Y-20172D01*
X50979Y-20164D01*
X51065Y-20139D01*
X51144Y-20098D01*
X51214Y-20042D01*
X51271Y-19973D01*
X51314Y-19895D01*
X51341Y-19810D01*
X51351Y-19721D01*
X51351Y-19714D01*
X51351Y-20710D01*
X51343Y-20621D01*
X51317Y-20535D01*
X51275Y-20456D01*
X51218Y-20387D01*
X51149Y-20330D01*
X51071Y-20288D01*
X50985Y-20261D01*
X50896Y-20252D01*
X50807Y-20260D01*
X50722Y-20285D01*
X50642Y-20327D01*
X50573Y-20383D01*
X50515Y-20451D01*
X50472Y-20529D01*
X50445Y-20615D01*
X50435Y-20703D01*
X50435Y-20710D01*
X50435Y-20714D01*
X50444Y-20803D01*
X50470Y-20889D01*
X50512Y-20968D01*
X50568Y-21037D01*
X50637Y-21094D01*
X50716Y-21137D01*
X50801Y-21163D01*
X50890Y-21172D01*
X50979Y-21164D01*
X51065Y-21139D01*
X51144Y-21098D01*
X51214Y-21042D01*
X51271Y-20973D01*
X51314Y-20895D01*
X51341Y-20810D01*
X51351Y-20721D01*
X51351Y-20714D01*
X51351Y-21710D01*
X51343Y-21621D01*
X51317Y-21535D01*
X51275Y-21456D01*
X51218Y-21387D01*
X51149Y-21330D01*
X51071Y-21288D01*
X50985Y-21261D01*
X50896Y-21252D01*
X50807Y-21260D01*
X50722Y-21285D01*
X50642Y-21327D01*
X50573Y-21383D01*
X50515Y-21451D01*
X50472Y-21529D01*
X50445Y-21615D01*
X50435Y-21703D01*
X50435Y-21710D01*
X50435Y-21714D01*
X50444Y-21803D01*
X50470Y-21889D01*
X50512Y-21968D01*
X50568Y-22037D01*
X50637Y-22094D01*
X50716Y-22137D01*
X50801Y-22163D01*
X50890Y-22172D01*
X50979Y-22164D01*
X51065Y-22139D01*
X51144Y-22098D01*
X51214Y-22042D01*
X51271Y-21973D01*
X51314Y-21895D01*
X51341Y-21810D01*
X51351Y-21721D01*
X51351Y-21714D01*
X51351Y-22710D01*
X51343Y-22621D01*
X51317Y-22535D01*
X51275Y-22456D01*
X51218Y-22387D01*
X51149Y-22330D01*
X51071Y-22288D01*
X50985Y-22261D01*
X50896Y-22252D01*
X50807Y-22260D01*
X50722Y-22285D01*
X50642Y-22327D01*
X50573Y-22383D01*
X50515Y-22451D01*
X50472Y-22529D01*
X50445Y-22615D01*
X50435Y-22703D01*
X50435Y-22710D01*
X50435Y-22714D01*
X50444Y-22803D01*
X50470Y-22889D01*
X50512Y-22968D01*
X50568Y-23037D01*
X50637Y-23094D01*
X50716Y-23137D01*
X50801Y-23163D01*
X50890Y-23172D01*
X50979Y-23164D01*
X51065Y-23139D01*
X51144Y-23098D01*
X51214Y-23042D01*
X51271Y-22973D01*
X51314Y-22895D01*
X51341Y-22810D01*
X51351Y-22721D01*
X51351Y-22714D01*
X51351Y-23710D01*
X51343Y-23621D01*
X51317Y-23535D01*
X51275Y-23456D01*
X51218Y-23387D01*
X51149Y-23330D01*
X51071Y-23288D01*
X50985Y-23261D01*
X50896Y-23252D01*
X50807Y-23260D01*
X50722Y-23285D01*
X50642Y-23327D01*
X50573Y-23383D01*
X50515Y-23451D01*
X50472Y-23529D01*
X50445Y-23615D01*
X50435Y-23703D01*
X50435Y-23710D01*
X50435Y-23714D01*
X50444Y-23803D01*
X50470Y-23889D01*
X50512Y-23968D01*
X50568Y-24037D01*
X50637Y-24094D01*
X50716Y-24137D01*
X50801Y-24163D01*
X50890Y-24172D01*
X50979Y-24164D01*
X51065Y-24139D01*
X51144Y-24098D01*
X51214Y-24042D01*
X51271Y-23973D01*
X51314Y-23895D01*
X51341Y-23810D01*
X51351Y-23721D01*
X51351Y-23714D01*
X51351Y-24710D01*
X51343Y-24621D01*
X51317Y-24535D01*
X51275Y-24456D01*
X51218Y-24387D01*
X51149Y-24330D01*
X51071Y-24288D01*
X50985Y-24261D01*
X50896Y-24252D01*
X50807Y-24260D01*
X50722Y-24285D01*
X50642Y-24327D01*
X50573Y-24383D01*
X50515Y-24451D01*
X50472Y-24529D01*
X50445Y-24615D01*
X50435Y-24703D01*
X50435Y-24710D01*
X50435Y-24714D01*
X50444Y-24803D01*
X50470Y-24889D01*
X50512Y-24968D01*
X50568Y-25037D01*
X50637Y-25094D01*
X50716Y-25137D01*
X50801Y-25163D01*
X50890Y-25172D01*
X50979Y-25164D01*
X51065Y-25139D01*
X51144Y-25098D01*
X51214Y-25042D01*
X51271Y-24973D01*
X51314Y-24895D01*
X51341Y-24810D01*
X51351Y-24721D01*
X51351Y-24714D01*
X51351Y-25710D01*
X51343Y-25621D01*
X51317Y-25535D01*
X51275Y-25456D01*
X51218Y-25387D01*
X51149Y-25330D01*
X51071Y-25288D01*
X50985Y-25261D01*
X50896Y-25252D01*
X50807Y-25260D01*
X50722Y-25285D01*
X50642Y-25327D01*
X50573Y-25383D01*
X50515Y-25451D01*
X50472Y-25529D01*
X50445Y-25615D01*
X50435Y-25703D01*
X50435Y-25710D01*
X50435Y-25714D01*
X50444Y-25803D01*
X50470Y-25889D01*
X50512Y-25968D01*
X50568Y-26037D01*
X50637Y-26094D01*
X50716Y-26137D01*
X50801Y-26163D01*
X50890Y-26172D01*
X50979Y-26164D01*
X51065Y-26139D01*
X51144Y-26098D01*
X51214Y-26042D01*
X51271Y-25973D01*
X51314Y-25895D01*
X51341Y-25810D01*
X51351Y-25721D01*
X51351Y-25714D01*
X51351Y-26710D01*
X51343Y-26621D01*
X51317Y-26535D01*
X51275Y-26456D01*
X51218Y-26387D01*
X51149Y-26330D01*
X51071Y-26288D01*
X50985Y-26261D01*
X50896Y-26252D01*
X50807Y-26260D01*
X50722Y-26285D01*
X50642Y-26327D01*
X50573Y-26383D01*
X50515Y-26451D01*
X50472Y-26529D01*
X50445Y-26615D01*
X50435Y-26703D01*
X50435Y-26710D01*
X50435Y-26714D01*
X50444Y-26803D01*
X50470Y-26889D01*
X50512Y-26968D01*
X50568Y-27037D01*
X50637Y-27094D01*
X50716Y-27137D01*
X50801Y-27163D01*
X50890Y-27172D01*
X50979Y-27164D01*
X51065Y-27139D01*
X51144Y-27098D01*
X51214Y-27042D01*
X51271Y-26973D01*
X51314Y-26895D01*
X51341Y-26810D01*
X51351Y-26721D01*
X51351Y-26714D01*
X51351Y-27710D01*
X51343Y-27621D01*
X51317Y-27535D01*
X51275Y-27456D01*
X51218Y-27387D01*
X51149Y-27330D01*
X51071Y-27288D01*
X50985Y-27261D01*
X50896Y-27252D01*
X50807Y-27260D01*
X50722Y-27285D01*
X50642Y-27327D01*
X50573Y-27383D01*
X50515Y-27451D01*
X50472Y-27529D01*
X50445Y-27615D01*
X50435Y-27703D01*
X50435Y-27710D01*
X50435Y-27714D01*
X50444Y-27803D01*
X50470Y-27889D01*
X50512Y-27968D01*
X50568Y-28037D01*
X50637Y-28094D01*
X50716Y-28137D01*
X50801Y-28163D01*
X50890Y-28172D01*
X50979Y-28164D01*
X51065Y-28139D01*
X51144Y-28098D01*
X51214Y-28042D01*
X51271Y-27973D01*
X51314Y-27895D01*
X51341Y-27810D01*
X51351Y-27721D01*
X51351Y-27714D01*
X51351Y-29950D01*
X51331Y-29963D01*
X51303Y-29990D01*
X51281Y-30022D01*
X51266Y-30058D01*
X51258Y-30096D01*
X51258Y-30134D01*
X51264Y-30172D01*
X51279Y-30208D01*
X51300Y-30240D01*
X51326Y-30268D01*
X51358Y-30290D01*
X51393Y-30306D01*
X51431Y-30314D01*
X51470Y-30315D01*
X51508Y-30308D01*
X51544Y-30294D01*
X51576Y-30273D01*
X51604Y-30247D01*
X51627Y-30215D01*
X51642Y-30180D01*
X51651Y-30142D01*
X51651Y-30098D01*
X51651Y-31531D01*
X51640Y-31537D01*
X51594Y-31574D01*
X51556Y-31620D01*
X51527Y-31673D01*
X51510Y-31729D01*
X51504Y-31789D01*
X51509Y-31848D01*
X51526Y-31905D01*
X51553Y-31958D01*
X51591Y-32004D01*
X51636Y-32043D01*
X51689Y-32071D01*
X51745Y-32089D01*
X51805Y-32096D01*
X51809Y-32096D01*
X51930Y-32096D01*
X51990Y-32090D01*
X52047Y-32073D01*
X52099Y-32045D01*
X52145Y-32007D01*
X52183Y-31961D01*
X52212Y-31909D01*
X52229Y-31852D01*
X52236Y-31793D01*
X52236Y-33326D01*
X52066Y-33326D01*
X52066Y-33171D01*
X52066Y-33147D01*
X52066Y-32537D01*
X52062Y-32514D01*
X52053Y-32493D01*
X52040Y-32473D01*
X52024Y-32457D01*
X52004Y-32444D01*
X51983Y-32435D01*
X51960Y-32431D01*
X51937Y-32431D01*
X51149Y-32431D01*
X51126Y-32435D01*
X51105Y-32444D01*
X51086Y-32457D01*
X51069Y-32473D01*
X51056Y-32493D01*
X51047Y-32514D01*
X51043Y-32537D01*
X51043Y-32560D01*
X51043Y-33171D01*
X51047Y-33193D01*
X51056Y-33215D01*
X51069Y-33234D01*
X51086Y-33251D01*
X51105Y-33264D01*
X51126Y-33273D01*
X51149Y-33277D01*
X51173Y-33277D01*
X51960Y-33277D01*
X51983Y-33273D01*
X52004Y-33264D01*
X52024Y-33251D01*
X52040Y-33234D01*
X52053Y-33215D01*
X52062Y-33193D01*
X52066Y-33171D01*
X52066Y-33326D01*
X50570Y-33326D01*
X50570Y-30942D01*
X50563Y-30904D01*
X50548Y-30868D01*
X50527Y-30836D01*
X50500Y-30809D01*
X50468Y-30787D01*
X50432Y-30772D01*
X50394Y-30765D01*
X50356Y-30764D01*
X50351Y-30765D01*
X50351Y-28714D01*
X50351Y-28710D01*
X50351Y-27714D01*
X50351Y-27710D01*
X50351Y-26714D01*
X50351Y-26710D01*
X50351Y-25714D01*
X50351Y-25710D01*
X50351Y-24714D01*
X50351Y-24710D01*
X50351Y-23714D01*
X50351Y-23710D01*
X50351Y-22714D01*
X50351Y-22710D01*
X50351Y-21714D01*
X50351Y-21710D01*
X50351Y-20714D01*
X50351Y-20710D01*
X50351Y-19714D01*
X50351Y-19710D01*
X50351Y-18537D01*
X50351Y-18533D01*
X50351Y-17537D01*
X50351Y-17533D01*
X50351Y-16537D01*
X50351Y-16533D01*
X50351Y-15537D01*
X50351Y-15533D01*
X50351Y-14537D01*
X50351Y-14533D01*
X50343Y-14444D01*
X50317Y-14358D01*
X50275Y-14279D01*
X50218Y-14210D01*
X50149Y-14153D01*
X50071Y-14110D01*
X49985Y-14084D01*
X49896Y-14075D01*
X49807Y-14083D01*
X49722Y-14108D01*
X49642Y-14149D01*
X49573Y-14205D01*
X49515Y-14274D01*
X49472Y-14352D01*
X49445Y-14437D01*
X49435Y-14526D01*
X49435Y-14533D01*
X49435Y-14537D01*
X49444Y-14626D01*
X49470Y-14712D01*
X49512Y-14791D01*
X49568Y-14860D01*
X49637Y-14917D01*
X49716Y-14959D01*
X49801Y-14986D01*
X49890Y-14995D01*
X49979Y-14987D01*
X50065Y-14962D01*
X50144Y-14920D01*
X50214Y-14864D01*
X50271Y-14796D01*
X50314Y-14718D01*
X50341Y-14632D01*
X50351Y-14544D01*
X50351Y-14537D01*
X50351Y-15533D01*
X50343Y-15444D01*
X50317Y-15358D01*
X50275Y-15279D01*
X50218Y-15210D01*
X50149Y-15153D01*
X50071Y-15110D01*
X49985Y-15084D01*
X49896Y-15075D01*
X49807Y-15083D01*
X49722Y-15108D01*
X49642Y-15149D01*
X49573Y-15205D01*
X49515Y-15274D01*
X49472Y-15352D01*
X49445Y-15437D01*
X49435Y-15526D01*
X49435Y-15533D01*
X49435Y-15537D01*
X49444Y-15626D01*
X49470Y-15712D01*
X49512Y-15791D01*
X49568Y-15860D01*
X49637Y-15917D01*
X49716Y-15959D01*
X49801Y-15986D01*
X49890Y-15995D01*
X49979Y-15987D01*
X50065Y-15962D01*
X50144Y-15920D01*
X50214Y-15864D01*
X50271Y-15796D01*
X50314Y-15718D01*
X50341Y-15632D01*
X50351Y-15544D01*
X50351Y-15537D01*
X50351Y-16533D01*
X50343Y-16444D01*
X50317Y-16358D01*
X50275Y-16279D01*
X50218Y-16210D01*
X50149Y-16153D01*
X50071Y-16110D01*
X49985Y-16084D01*
X49896Y-16075D01*
X49807Y-16083D01*
X49722Y-16108D01*
X49642Y-16149D01*
X49573Y-16205D01*
X49515Y-16274D01*
X49472Y-16352D01*
X49445Y-16437D01*
X49435Y-16526D01*
X49435Y-16533D01*
X49435Y-16537D01*
X49444Y-16626D01*
X49470Y-16712D01*
X49512Y-16791D01*
X49568Y-16860D01*
X49637Y-16917D01*
X49716Y-16959D01*
X49801Y-16986D01*
X49890Y-16995D01*
X49979Y-16987D01*
X50065Y-16962D01*
X50144Y-16920D01*
X50214Y-16864D01*
X50271Y-16796D01*
X50314Y-16718D01*
X50341Y-16632D01*
X50351Y-16544D01*
X50351Y-16537D01*
X50351Y-17533D01*
X50343Y-17444D01*
X50317Y-17358D01*
X50275Y-17279D01*
X50218Y-17210D01*
X50149Y-17153D01*
X50071Y-17110D01*
X49985Y-17084D01*
X49896Y-17075D01*
X49807Y-17083D01*
X49722Y-17108D01*
X49642Y-17149D01*
X49573Y-17205D01*
X49515Y-17274D01*
X49472Y-17352D01*
X49445Y-17437D01*
X49435Y-17526D01*
X49435Y-17533D01*
X49435Y-17537D01*
X49444Y-17626D01*
X49470Y-17712D01*
X49512Y-17791D01*
X49568Y-17860D01*
X49637Y-17917D01*
X49716Y-17959D01*
X49801Y-17986D01*
X49890Y-17995D01*
X49979Y-17987D01*
X50065Y-17962D01*
X50144Y-17920D01*
X50214Y-17864D01*
X50271Y-17796D01*
X50314Y-17718D01*
X50341Y-17632D01*
X50351Y-17544D01*
X50351Y-17537D01*
X50351Y-18533D01*
X50343Y-18444D01*
X50317Y-18358D01*
X50275Y-18279D01*
X50218Y-18210D01*
X50149Y-18153D01*
X50071Y-18110D01*
X49985Y-18084D01*
X49896Y-18075D01*
X49807Y-18083D01*
X49722Y-18108D01*
X49642Y-18149D01*
X49573Y-18205D01*
X49515Y-18274D01*
X49472Y-18352D01*
X49445Y-18437D01*
X49435Y-18526D01*
X49435Y-18533D01*
X49435Y-18537D01*
X49444Y-18626D01*
X49470Y-18712D01*
X49512Y-18791D01*
X49568Y-18860D01*
X49637Y-18917D01*
X49716Y-18959D01*
X49801Y-18986D01*
X49890Y-18995D01*
X49979Y-18987D01*
X50065Y-18962D01*
X50144Y-18920D01*
X50214Y-18864D01*
X50271Y-18796D01*
X50314Y-18718D01*
X50341Y-18632D01*
X50351Y-18544D01*
X50351Y-18537D01*
X50351Y-19710D01*
X50343Y-19621D01*
X50317Y-19535D01*
X50275Y-19456D01*
X50218Y-19387D01*
X50149Y-19330D01*
X50071Y-19288D01*
X49985Y-19261D01*
X49896Y-19252D01*
X49807Y-19260D01*
X49722Y-19285D01*
X49642Y-19327D01*
X49573Y-19383D01*
X49515Y-19451D01*
X49472Y-19529D01*
X49445Y-19615D01*
X49435Y-19703D01*
X49435Y-19710D01*
X49435Y-19714D01*
X49444Y-19803D01*
X49470Y-19889D01*
X49512Y-19968D01*
X49568Y-20037D01*
X49637Y-20094D01*
X49716Y-20137D01*
X49801Y-20163D01*
X49890Y-20172D01*
X49979Y-20164D01*
X50065Y-20139D01*
X50144Y-20098D01*
X50214Y-20042D01*
X50271Y-19973D01*
X50314Y-19895D01*
X50341Y-19810D01*
X50351Y-19721D01*
X50351Y-19714D01*
X50351Y-20710D01*
X50343Y-20621D01*
X50317Y-20535D01*
X50275Y-20456D01*
X50218Y-20387D01*
X50149Y-20330D01*
X50071Y-20288D01*
X49985Y-20261D01*
X49896Y-20252D01*
X49807Y-20260D01*
X49722Y-20285D01*
X49642Y-20327D01*
X49573Y-20383D01*
X49515Y-20451D01*
X49472Y-20529D01*
X49445Y-20615D01*
X49435Y-20703D01*
X49435Y-20710D01*
X49435Y-20714D01*
X49444Y-20803D01*
X49470Y-20889D01*
X49512Y-20968D01*
X49568Y-21037D01*
X49637Y-21094D01*
X49716Y-21137D01*
X49801Y-21163D01*
X49890Y-21172D01*
X49979Y-21164D01*
X50065Y-21139D01*
X50144Y-21098D01*
X50214Y-21042D01*
X50271Y-20973D01*
X50314Y-20895D01*
X50341Y-20810D01*
X50351Y-20721D01*
X50351Y-20714D01*
X50351Y-21710D01*
X50343Y-21621D01*
X50317Y-21535D01*
X50275Y-21456D01*
X50218Y-21387D01*
X50149Y-21330D01*
X50071Y-21288D01*
X49985Y-21261D01*
X49896Y-21252D01*
X49807Y-21260D01*
X49722Y-21285D01*
X49642Y-21327D01*
X49573Y-21383D01*
X49515Y-21451D01*
X49472Y-21529D01*
X49445Y-21615D01*
X49435Y-21703D01*
X49435Y-21710D01*
X49435Y-21714D01*
X49444Y-21803D01*
X49470Y-21889D01*
X49512Y-21968D01*
X49568Y-22037D01*
X49637Y-22094D01*
X49716Y-22137D01*
X49801Y-22163D01*
X49890Y-22172D01*
X49979Y-22164D01*
X50065Y-22139D01*
X50144Y-22098D01*
X50214Y-22042D01*
X50271Y-21973D01*
X50314Y-21895D01*
X50341Y-21810D01*
X50351Y-21721D01*
X50351Y-21714D01*
X50351Y-22710D01*
X50343Y-22621D01*
X50317Y-22535D01*
X50275Y-22456D01*
X50218Y-22387D01*
X50149Y-22330D01*
X50071Y-22288D01*
X49985Y-22261D01*
X49896Y-22252D01*
X49807Y-22260D01*
X49722Y-22285D01*
X49642Y-22327D01*
X49573Y-22383D01*
X49515Y-22451D01*
X49472Y-22529D01*
X49445Y-22615D01*
X49435Y-22703D01*
X49435Y-22710D01*
X49435Y-22714D01*
X49444Y-22803D01*
X49470Y-22889D01*
X49512Y-22968D01*
X49568Y-23037D01*
X49637Y-23094D01*
X49716Y-23137D01*
X49801Y-23163D01*
X49890Y-23172D01*
X49979Y-23164D01*
X50065Y-23139D01*
X50144Y-23098D01*
X50214Y-23042D01*
X50271Y-22973D01*
X50314Y-22895D01*
X50341Y-22810D01*
X50351Y-22721D01*
X50351Y-22714D01*
X50351Y-23710D01*
X50343Y-23621D01*
X50317Y-23535D01*
X50275Y-23456D01*
X50218Y-23387D01*
X50149Y-23330D01*
X50071Y-23288D01*
X49985Y-23261D01*
X49896Y-23252D01*
X49807Y-23260D01*
X49722Y-23285D01*
X49642Y-23327D01*
X49573Y-23383D01*
X49515Y-23451D01*
X49472Y-23529D01*
X49445Y-23615D01*
X49435Y-23703D01*
X49435Y-23710D01*
X49435Y-23714D01*
X49444Y-23803D01*
X49470Y-23889D01*
X49512Y-23968D01*
X49568Y-24037D01*
X49637Y-24094D01*
X49716Y-24137D01*
X49801Y-24163D01*
X49890Y-24172D01*
X49979Y-24164D01*
X50065Y-24139D01*
X50144Y-24098D01*
X50214Y-24042D01*
X50271Y-23973D01*
X50314Y-23895D01*
X50341Y-23810D01*
X50351Y-23721D01*
X50351Y-23714D01*
X50351Y-24710D01*
X50343Y-24621D01*
X50317Y-24535D01*
X50275Y-24456D01*
X50218Y-24387D01*
X50149Y-24330D01*
X50071Y-24288D01*
X49985Y-24261D01*
X49896Y-24252D01*
X49807Y-24260D01*
X49722Y-24285D01*
X49642Y-24327D01*
X49573Y-24383D01*
X49515Y-24451D01*
X49472Y-24529D01*
X49445Y-24615D01*
X49435Y-24703D01*
X49435Y-24710D01*
X49435Y-24714D01*
X49444Y-24803D01*
X49470Y-24889D01*
X49512Y-24968D01*
X49568Y-25037D01*
X49637Y-25094D01*
X49716Y-25137D01*
X49801Y-25163D01*
X49890Y-25172D01*
X49979Y-25164D01*
X50065Y-25139D01*
X50144Y-25098D01*
X50214Y-25042D01*
X50271Y-24973D01*
X50314Y-24895D01*
X50341Y-24810D01*
X50351Y-24721D01*
X50351Y-24714D01*
X50351Y-25710D01*
X50343Y-25621D01*
X50317Y-25535D01*
X50275Y-25456D01*
X50218Y-25387D01*
X50149Y-25330D01*
X50071Y-25288D01*
X49985Y-25261D01*
X49896Y-25252D01*
X49807Y-25260D01*
X49722Y-25285D01*
X49642Y-25327D01*
X49573Y-25383D01*
X49515Y-25451D01*
X49472Y-25529D01*
X49445Y-25615D01*
X49435Y-25703D01*
X49435Y-25710D01*
X49435Y-25714D01*
X49444Y-25803D01*
X49470Y-25889D01*
X49512Y-25968D01*
X49568Y-26037D01*
X49637Y-26094D01*
X49716Y-26137D01*
X49801Y-26163D01*
X49890Y-26172D01*
X49979Y-26164D01*
X50065Y-26139D01*
X50144Y-26098D01*
X50214Y-26042D01*
X50271Y-25973D01*
X50314Y-25895D01*
X50341Y-25810D01*
X50351Y-25721D01*
X50351Y-25714D01*
X50351Y-26710D01*
X50343Y-26621D01*
X50317Y-26535D01*
X50275Y-26456D01*
X50218Y-26387D01*
X50149Y-26330D01*
X50071Y-26288D01*
X49985Y-26261D01*
X49896Y-26252D01*
X49807Y-26260D01*
X49722Y-26285D01*
X49642Y-26327D01*
X49573Y-26383D01*
X49515Y-26451D01*
X49472Y-26529D01*
X49445Y-26615D01*
X49435Y-26703D01*
X49435Y-26710D01*
X49435Y-26714D01*
X49444Y-26803D01*
X49470Y-26889D01*
X49512Y-26968D01*
X49568Y-27037D01*
X49637Y-27094D01*
X49716Y-27137D01*
X49801Y-27163D01*
X49890Y-27172D01*
X49979Y-27164D01*
X50065Y-27139D01*
X50144Y-27098D01*
X50214Y-27042D01*
X50271Y-26973D01*
X50314Y-26895D01*
X50341Y-26810D01*
X50351Y-26721D01*
X50351Y-26714D01*
X50351Y-27710D01*
X50343Y-27621D01*
X50317Y-27535D01*
X50275Y-27456D01*
X50218Y-27387D01*
X50149Y-27330D01*
X50071Y-27288D01*
X49985Y-27261D01*
X49896Y-27252D01*
X49807Y-27260D01*
X49722Y-27285D01*
X49642Y-27327D01*
X49573Y-27383D01*
X49515Y-27451D01*
X49472Y-27529D01*
X49445Y-27615D01*
X49435Y-27703D01*
X49435Y-27710D01*
X49435Y-27714D01*
X49444Y-27803D01*
X49470Y-27889D01*
X49512Y-27968D01*
X49568Y-28037D01*
X49637Y-28094D01*
X49716Y-28137D01*
X49801Y-28163D01*
X49890Y-28172D01*
X49979Y-28164D01*
X50065Y-28139D01*
X50144Y-28098D01*
X50214Y-28042D01*
X50271Y-27973D01*
X50314Y-27895D01*
X50341Y-27810D01*
X50351Y-27721D01*
X50351Y-27714D01*
X50351Y-28710D01*
X50343Y-28621D01*
X50317Y-28535D01*
X50275Y-28456D01*
X50218Y-28387D01*
X50149Y-28330D01*
X50071Y-28288D01*
X49985Y-28261D01*
X49896Y-28252D01*
X49807Y-28260D01*
X49722Y-28285D01*
X49642Y-28327D01*
X49573Y-28383D01*
X49515Y-28451D01*
X49472Y-28529D01*
X49445Y-28615D01*
X49435Y-28703D01*
X49435Y-28710D01*
X49435Y-28714D01*
X49444Y-28803D01*
X49470Y-28889D01*
X49512Y-28968D01*
X49568Y-29037D01*
X49637Y-29094D01*
X49716Y-29137D01*
X49801Y-29163D01*
X49890Y-29172D01*
X49979Y-29164D01*
X50065Y-29139D01*
X50144Y-29098D01*
X50214Y-29042D01*
X50271Y-28973D01*
X50314Y-28895D01*
X50341Y-28810D01*
X50351Y-28721D01*
X50351Y-28714D01*
X50351Y-30765D01*
X50318Y-30771D01*
X50282Y-30786D01*
X50250Y-30807D01*
X50222Y-30834D01*
X50200Y-30866D01*
X50185Y-30901D01*
X50177Y-30939D01*
X50176Y-30978D01*
X50183Y-31016D01*
X50198Y-31052D01*
X50218Y-31084D01*
X50245Y-31112D01*
X50277Y-31134D01*
X50312Y-31149D01*
X50350Y-31158D01*
X50389Y-31158D01*
X50427Y-31152D01*
X50463Y-31138D01*
X50495Y-31117D01*
X50523Y-31090D01*
X50546Y-31059D01*
X50561Y-31024D01*
X50570Y-30986D01*
X50570Y-30942D01*
X50570Y-33326D01*
X50419Y-33326D01*
X50419Y-32195D01*
X50419Y-32171D01*
X50419Y-31371D01*
X50415Y-31349D01*
X50406Y-31327D01*
X50393Y-31308D01*
X50376Y-31291D01*
X50357Y-31278D01*
X50336Y-31269D01*
X50313Y-31265D01*
X50289Y-31265D01*
X49489Y-31265D01*
X49467Y-31269D01*
X49445Y-31278D01*
X49426Y-31291D01*
X49409Y-31308D01*
X49396Y-31327D01*
X49388Y-31349D01*
X49383Y-31371D01*
X49383Y-31395D01*
X49383Y-32195D01*
X49388Y-32217D01*
X49396Y-32239D01*
X49409Y-32258D01*
X49426Y-32275D01*
X49445Y-32288D01*
X49467Y-32297D01*
X49489Y-32301D01*
X49513Y-32301D01*
X50313Y-32301D01*
X50336Y-32297D01*
X50357Y-32288D01*
X50376Y-32275D01*
X50393Y-32258D01*
X50406Y-32239D01*
X50415Y-32217D01*
X50419Y-32195D01*
X50419Y-33326D01*
X49350Y-33326D01*
X49350Y-13917D01*
X68759Y-13917D01*
X68759Y-33326D01*
X68759Y-33326D01*
G37*
X68759Y-33326D02*
X67976Y-33326D01*
X67976Y-16493D01*
X67960Y-16412D01*
X67928Y-16335D01*
X67882Y-16266D01*
X67824Y-16207D01*
X67755Y-16161D01*
X67678Y-16129D01*
X67597Y-16112D01*
X67514Y-16111D01*
X67433Y-16127D01*
X67356Y-16158D01*
X67286Y-16203D01*
X67227Y-16262D01*
X67180Y-16330D01*
X67147Y-16406D01*
X67130Y-16488D01*
X67129Y-16571D01*
X67144Y-16652D01*
X67174Y-16729D01*
X67219Y-16799D01*
X67277Y-16859D01*
X67345Y-16906D01*
X67421Y-16939D01*
X67502Y-16957D01*
X67585Y-16959D01*
X67667Y-16945D01*
X67744Y-16915D01*
X67814Y-16870D01*
X67875Y-16813D01*
X67922Y-16745D01*
X67956Y-16669D01*
X67975Y-16588D01*
X67976Y-16493D01*
X67976Y-33326D01*
X67303Y-33326D01*
X67303Y-22248D01*
X67295Y-22210D01*
X67280Y-22174D01*
X67259Y-22142D01*
X67232Y-22115D01*
X67200Y-22093D01*
X67171Y-22081D01*
X67185Y-22076D01*
X67218Y-22055D01*
X67246Y-22028D01*
X67268Y-21997D01*
X67284Y-21962D01*
X67292Y-21924D01*
X67293Y-21880D01*
X67285Y-21842D01*
X67271Y-21806D01*
X67249Y-21774D01*
X67222Y-21747D01*
X67190Y-21725D01*
X67154Y-21710D01*
X67117Y-21702D01*
X67078Y-21702D01*
X67040Y-21709D01*
X67004Y-21724D01*
X66972Y-21745D01*
X66944Y-21772D01*
X66923Y-21804D01*
X66907Y-21839D01*
X66899Y-21877D01*
X66899Y-21916D01*
X66906Y-21954D01*
X66920Y-21990D01*
X66941Y-22022D01*
X66968Y-22050D01*
X66999Y-22072D01*
X67030Y-22085D01*
X67014Y-22092D01*
X66982Y-22113D01*
X66954Y-22140D01*
X66932Y-22172D01*
X66917Y-22207D01*
X66909Y-22245D01*
X66909Y-22284D01*
X66916Y-22322D01*
X66930Y-22357D01*
X66951Y-22390D01*
X66978Y-22418D01*
X67009Y-22440D01*
X67045Y-22455D01*
X67082Y-22463D01*
X67121Y-22464D01*
X67159Y-22458D01*
X67195Y-22444D01*
X67228Y-22423D01*
X67256Y-22396D01*
X67278Y-22365D01*
X67293Y-22329D01*
X67302Y-22292D01*
X67303Y-22248D01*
X67303Y-33326D01*
X66683Y-33326D01*
X66683Y-29921D01*
X66675Y-29883D01*
X66660Y-29848D01*
X66639Y-29815D01*
X66612Y-29788D01*
X66580Y-29766D01*
X66544Y-29751D01*
X66506Y-29744D01*
X66468Y-29743D01*
X66430Y-29751D01*
X66394Y-29765D01*
X66362Y-29786D01*
X66354Y-29794D01*
X66354Y-20181D01*
X66346Y-20144D01*
X66332Y-20108D01*
X66310Y-20076D01*
X66283Y-20048D01*
X66251Y-20027D01*
X66215Y-20012D01*
X66178Y-20004D01*
X66139Y-20004D01*
X66101Y-20011D01*
X66065Y-20025D01*
X66033Y-20047D01*
X66005Y-20074D01*
X65984Y-20105D01*
X65968Y-20141D01*
X65960Y-20179D01*
X65960Y-20217D01*
X65967Y-20255D01*
X65981Y-20291D01*
X66002Y-20324D01*
X66029Y-20351D01*
X66060Y-20373D01*
X66096Y-20389D01*
X66134Y-20397D01*
X66172Y-20398D01*
X66210Y-20391D01*
X66246Y-20377D01*
X66279Y-20357D01*
X66307Y-20330D01*
X66329Y-20298D01*
X66345Y-20263D01*
X66353Y-20225D01*
X66354Y-20181D01*
X66354Y-29794D01*
X66334Y-29813D01*
X66312Y-29845D01*
X66297Y-29881D01*
X66289Y-29918D01*
X66289Y-29957D01*
X66296Y-29995D01*
X66310Y-30031D01*
X66331Y-30063D01*
X66358Y-30091D01*
X66389Y-30113D01*
X66425Y-30129D01*
X66462Y-30137D01*
X66501Y-30138D01*
X66539Y-30131D01*
X66575Y-30117D01*
X66608Y-30096D01*
X66635Y-30070D01*
X66658Y-30038D01*
X66673Y-30003D01*
X66682Y-29965D01*
X66683Y-29921D01*
X66683Y-33326D01*
X66269Y-33326D01*
X66269Y-24075D01*
X66262Y-24037D01*
X66247Y-24001D01*
X66230Y-23975D01*
X66230Y-22283D01*
X66222Y-22245D01*
X66208Y-22210D01*
X66186Y-22178D01*
X66159Y-22150D01*
X66127Y-22129D01*
X66091Y-22114D01*
X66054Y-22106D01*
X66015Y-22106D01*
X65977Y-22113D01*
X65941Y-22127D01*
X65909Y-22148D01*
X65881Y-22176D01*
X65864Y-22200D01*
X65864Y-21644D01*
X65857Y-21606D01*
X65842Y-21570D01*
X65821Y-21538D01*
X65794Y-21511D01*
X65762Y-21489D01*
X65726Y-21474D01*
X65688Y-21466D01*
X65650Y-21466D01*
X65612Y-21473D01*
X65576Y-21488D01*
X65544Y-21509D01*
X65516Y-21536D01*
X65494Y-21568D01*
X65479Y-21603D01*
X65471Y-21641D01*
X65471Y-21680D01*
X65477Y-21717D01*
X65492Y-21753D01*
X65513Y-21786D01*
X65539Y-21814D01*
X65571Y-21836D01*
X65606Y-21851D01*
X65644Y-21859D01*
X65683Y-21860D01*
X65721Y-21853D01*
X65757Y-21840D01*
X65789Y-21819D01*
X65817Y-21792D01*
X65840Y-21761D01*
X65855Y-21725D01*
X65864Y-21688D01*
X65864Y-21644D01*
X65864Y-22200D01*
X65860Y-22207D01*
X65844Y-22243D01*
X65836Y-22281D01*
X65836Y-22319D01*
X65843Y-22357D01*
X65857Y-22393D01*
X65878Y-22426D01*
X65905Y-22453D01*
X65936Y-22475D01*
X65972Y-22491D01*
X66010Y-22499D01*
X66048Y-22500D01*
X66086Y-22493D01*
X66122Y-22479D01*
X66155Y-22459D01*
X66183Y-22432D01*
X66205Y-22400D01*
X66221Y-22365D01*
X66229Y-22327D01*
X66230Y-22283D01*
X66230Y-23975D01*
X66226Y-23969D01*
X66198Y-23942D01*
X66166Y-23920D01*
X66131Y-23905D01*
X66093Y-23897D01*
X66054Y-23897D01*
X66016Y-23904D01*
X65981Y-23919D01*
X65948Y-23940D01*
X65921Y-23967D01*
X65899Y-23999D01*
X65884Y-24034D01*
X65876Y-24072D01*
X65875Y-24111D01*
X65882Y-24149D01*
X65896Y-24184D01*
X65917Y-24217D01*
X65944Y-24245D01*
X65976Y-24267D01*
X66011Y-24282D01*
X66049Y-24290D01*
X66088Y-24291D01*
X66126Y-24285D01*
X66162Y-24271D01*
X66194Y-24250D01*
X66222Y-24223D01*
X66244Y-24192D01*
X66260Y-24156D01*
X66269Y-24119D01*
X66269Y-24075D01*
X66269Y-33326D01*
X65659Y-33326D01*
X65659Y-28927D01*
X65651Y-28889D01*
X65637Y-28853D01*
X65615Y-28821D01*
X65588Y-28794D01*
X65556Y-28772D01*
X65521Y-28757D01*
X65483Y-28750D01*
X65444Y-28749D01*
X65423Y-28753D01*
X65423Y-16894D01*
X65415Y-16856D01*
X65401Y-16821D01*
X65379Y-16788D01*
X65352Y-16761D01*
X65320Y-16739D01*
X65284Y-16724D01*
X65247Y-16717D01*
X65208Y-16716D01*
X65170Y-16724D01*
X65134Y-16738D01*
X65102Y-16759D01*
X65074Y-16786D01*
X65053Y-16818D01*
X65037Y-16854D01*
X65029Y-16891D01*
X65029Y-16930D01*
X65036Y-16968D01*
X65050Y-17004D01*
X65071Y-17036D01*
X65098Y-17064D01*
X65129Y-17086D01*
X65165Y-17102D01*
X65202Y-17110D01*
X65241Y-17111D01*
X65279Y-17104D01*
X65315Y-17090D01*
X65348Y-17069D01*
X65376Y-17043D01*
X65398Y-17011D01*
X65414Y-16976D01*
X65422Y-16938D01*
X65423Y-16894D01*
X65423Y-28753D01*
X65406Y-28757D01*
X65370Y-28771D01*
X65338Y-28792D01*
X65311Y-28819D01*
X65289Y-28851D01*
X65274Y-28887D01*
X65266Y-28924D01*
X65265Y-28963D01*
X65272Y-29001D01*
X65286Y-29037D01*
X65307Y-29069D01*
X65334Y-29097D01*
X65366Y-29119D01*
X65401Y-29134D01*
X65439Y-29143D01*
X65477Y-29144D01*
X65515Y-29137D01*
X65551Y-29123D01*
X65584Y-29102D01*
X65612Y-29076D01*
X65634Y-29044D01*
X65650Y-29009D01*
X65658Y-28971D01*
X65659Y-28927D01*
X65659Y-33326D01*
X65052Y-33326D01*
X65052Y-17063D01*
X65045Y-17025D01*
X65030Y-16990D01*
X65009Y-16958D01*
X64981Y-16930D01*
X64949Y-16909D01*
X64914Y-16894D01*
X64876Y-16886D01*
X64837Y-16886D01*
X64800Y-16893D01*
X64764Y-16907D01*
X64750Y-16916D01*
X64748Y-16910D01*
X64726Y-16878D01*
X64713Y-16864D01*
X64713Y-16245D01*
X64705Y-16207D01*
X64691Y-16171D01*
X64669Y-16139D01*
X64642Y-16112D01*
X64610Y-16090D01*
X64575Y-16075D01*
X64537Y-16068D01*
X64498Y-16067D01*
X64460Y-16075D01*
X64424Y-16089D01*
X64392Y-16110D01*
X64365Y-16137D01*
X64343Y-16169D01*
X64327Y-16204D01*
X64322Y-16232D01*
X64322Y-16231D01*
X64307Y-16195D01*
X64285Y-16163D01*
X64269Y-16146D01*
X64269Y-15477D01*
X64261Y-15439D01*
X64247Y-15403D01*
X64225Y-15371D01*
X64198Y-15344D01*
X64166Y-15322D01*
X64130Y-15307D01*
X64093Y-15300D01*
X64054Y-15299D01*
X64016Y-15307D01*
X63980Y-15321D01*
X63948Y-15342D01*
X63920Y-15369D01*
X63899Y-15401D01*
X63883Y-15437D01*
X63875Y-15474D01*
X63875Y-15513D01*
X63882Y-15551D01*
X63896Y-15587D01*
X63917Y-15619D01*
X63944Y-15647D01*
X63975Y-15669D01*
X64011Y-15684D01*
X64049Y-15693D01*
X64087Y-15694D01*
X64125Y-15687D01*
X64161Y-15673D01*
X64194Y-15652D01*
X64222Y-15626D01*
X64244Y-15594D01*
X64260Y-15559D01*
X64268Y-15521D01*
X64269Y-15477D01*
X64269Y-16146D01*
X64258Y-16136D01*
X64226Y-16114D01*
X64191Y-16099D01*
X64153Y-16091D01*
X64114Y-16091D01*
X64076Y-16098D01*
X64041Y-16113D01*
X64008Y-16134D01*
X63981Y-16161D01*
X63959Y-16193D01*
X63944Y-16228D01*
X63936Y-16266D01*
X63935Y-16304D01*
X63942Y-16342D01*
X63956Y-16378D01*
X63977Y-16411D01*
X64004Y-16439D01*
X64036Y-16461D01*
X64071Y-16476D01*
X64109Y-16484D01*
X64147Y-16485D01*
X64185Y-16478D01*
X64221Y-16464D01*
X64254Y-16444D01*
X64282Y-16417D01*
X64304Y-16386D01*
X64320Y-16350D01*
X64327Y-16321D01*
X64340Y-16355D01*
X64361Y-16387D01*
X64388Y-16415D01*
X64420Y-16437D01*
X64455Y-16452D01*
X64493Y-16461D01*
X64531Y-16462D01*
X64569Y-16455D01*
X64605Y-16441D01*
X64638Y-16420D01*
X64666Y-16394D01*
X64688Y-16362D01*
X64704Y-16327D01*
X64712Y-16289D01*
X64713Y-16245D01*
X64713Y-16864D01*
X64699Y-16850D01*
X64667Y-16829D01*
X64632Y-16814D01*
X64594Y-16806D01*
X64555Y-16806D01*
X64517Y-16813D01*
X64481Y-16828D01*
X64449Y-16849D01*
X64448Y-16850D01*
X64439Y-16840D01*
X64407Y-16819D01*
X64371Y-16804D01*
X64334Y-16796D01*
X64295Y-16796D01*
X64257Y-16803D01*
X64221Y-16817D01*
X64189Y-16838D01*
X64161Y-16866D01*
X64140Y-16897D01*
X64124Y-16933D01*
X64116Y-16971D01*
X64116Y-17009D01*
X64123Y-17047D01*
X64137Y-17083D01*
X64158Y-17116D01*
X64185Y-17143D01*
X64216Y-17165D01*
X64252Y-17181D01*
X64289Y-17189D01*
X64328Y-17190D01*
X64366Y-17183D01*
X64402Y-17169D01*
X64435Y-17149D01*
X64438Y-17146D01*
X64445Y-17153D01*
X64477Y-17175D01*
X64512Y-17191D01*
X64550Y-17199D01*
X64588Y-17200D01*
X64626Y-17193D01*
X64662Y-17179D01*
X64678Y-17169D01*
X64679Y-17173D01*
X64700Y-17205D01*
X64727Y-17233D01*
X64759Y-17255D01*
X64794Y-17271D01*
X64832Y-17279D01*
X64871Y-17280D01*
X64909Y-17273D01*
X64945Y-17259D01*
X64977Y-17238D01*
X65005Y-17212D01*
X65027Y-17180D01*
X65043Y-17145D01*
X65052Y-17107D01*
X65052Y-17063D01*
X65052Y-33326D01*
X64459Y-33326D01*
X64459Y-17407D01*
X64451Y-17369D01*
X64437Y-17334D01*
X64415Y-17301D01*
X64388Y-17274D01*
X64356Y-17252D01*
X64321Y-17238D01*
X64283Y-17230D01*
X64244Y-17229D01*
X64206Y-17237D01*
X64170Y-17251D01*
X64138Y-17272D01*
X64111Y-17299D01*
X64089Y-17331D01*
X64074Y-17367D01*
X64066Y-17404D01*
X64065Y-17443D01*
X64072Y-17481D01*
X64086Y-17517D01*
X64107Y-17549D01*
X64134Y-17577D01*
X64166Y-17599D01*
X64201Y-17615D01*
X64239Y-17623D01*
X64277Y-17624D01*
X64315Y-17617D01*
X64351Y-17603D01*
X64384Y-17582D01*
X64412Y-17556D01*
X64434Y-17524D01*
X64450Y-17489D01*
X64458Y-17451D01*
X64459Y-17407D01*
X64459Y-33326D01*
X64193Y-33326D01*
X64193Y-24439D01*
X64186Y-24401D01*
X64171Y-24366D01*
X64150Y-24334D01*
X64122Y-24306D01*
X64090Y-24285D01*
X64055Y-24270D01*
X64017Y-24262D01*
X64002Y-24262D01*
X64003Y-24219D01*
X63995Y-24181D01*
X63980Y-24145D01*
X63959Y-24113D01*
X63932Y-24085D01*
X63927Y-24082D01*
X63927Y-17340D01*
X63920Y-17302D01*
X63905Y-17266D01*
X63884Y-17234D01*
X63857Y-17207D01*
X63825Y-17185D01*
X63789Y-17170D01*
X63751Y-17163D01*
X63713Y-17162D01*
X63675Y-17169D01*
X63639Y-17184D01*
X63607Y-17205D01*
X63579Y-17232D01*
X63557Y-17264D01*
X63542Y-17299D01*
X63534Y-17337D01*
X63533Y-17376D01*
X63540Y-17414D01*
X63555Y-17450D01*
X63576Y-17482D01*
X63602Y-17510D01*
X63634Y-17532D01*
X63669Y-17547D01*
X63707Y-17556D01*
X63746Y-17556D01*
X63784Y-17550D01*
X63820Y-17536D01*
X63852Y-17515D01*
X63880Y-17488D01*
X63903Y-17457D01*
X63918Y-17422D01*
X63927Y-17384D01*
X63927Y-17340D01*
X63927Y-24082D01*
X63900Y-24064D01*
X63864Y-24049D01*
X63826Y-24041D01*
X63788Y-24041D01*
X63750Y-24048D01*
X63714Y-24063D01*
X63682Y-24084D01*
X63654Y-24111D01*
X63632Y-24143D01*
X63631Y-24145D01*
X63631Y-24145D01*
X63610Y-24113D01*
X63583Y-24086D01*
X63551Y-24064D01*
X63515Y-24049D01*
X63500Y-24046D01*
X63500Y-17337D01*
X63492Y-17299D01*
X63477Y-17263D01*
X63456Y-17231D01*
X63429Y-17204D01*
X63397Y-17182D01*
X63361Y-17167D01*
X63323Y-17160D01*
X63285Y-17159D01*
X63247Y-17167D01*
X63243Y-17168D01*
X63243Y-16399D01*
X63236Y-16361D01*
X63221Y-16326D01*
X63200Y-16294D01*
X63172Y-16266D01*
X63140Y-16245D01*
X63105Y-16230D01*
X63067Y-16222D01*
X63028Y-16222D01*
X62991Y-16229D01*
X62955Y-16243D01*
X62922Y-16264D01*
X62895Y-16291D01*
X62873Y-16323D01*
X62858Y-16359D01*
X62850Y-16397D01*
X62849Y-16435D01*
X62856Y-16473D01*
X62870Y-16509D01*
X62891Y-16541D01*
X62918Y-16569D01*
X62950Y-16591D01*
X62985Y-16607D01*
X63023Y-16615D01*
X63062Y-16616D01*
X63100Y-16609D01*
X63136Y-16595D01*
X63168Y-16575D01*
X63196Y-16548D01*
X63218Y-16516D01*
X63234Y-16481D01*
X63243Y-16443D01*
X63243Y-16399D01*
X63243Y-17168D01*
X63211Y-17181D01*
X63179Y-17202D01*
X63151Y-17229D01*
X63129Y-17261D01*
X63114Y-17296D01*
X63106Y-17334D01*
X63106Y-17373D01*
X63113Y-17411D01*
X63127Y-17447D01*
X63148Y-17479D01*
X63174Y-17507D01*
X63206Y-17529D01*
X63242Y-17544D01*
X63279Y-17553D01*
X63318Y-17553D01*
X63356Y-17547D01*
X63392Y-17533D01*
X63424Y-17512D01*
X63452Y-17486D01*
X63475Y-17454D01*
X63490Y-17419D01*
X63499Y-17381D01*
X63500Y-17337D01*
X63500Y-24046D01*
X63477Y-24042D01*
X63439Y-24041D01*
X63401Y-24049D01*
X63365Y-24063D01*
X63333Y-24084D01*
X63305Y-24111D01*
X63283Y-24143D01*
X63268Y-24178D01*
X63260Y-24216D01*
X63259Y-24255D01*
X63266Y-24293D01*
X63281Y-24329D01*
X63302Y-24361D01*
X63328Y-24389D01*
X63360Y-24411D01*
X63395Y-24426D01*
X63433Y-24435D01*
X63472Y-24435D01*
X63510Y-24429D01*
X63546Y-24415D01*
X63578Y-24394D01*
X63606Y-24368D01*
X63629Y-24336D01*
X63631Y-24330D01*
X63651Y-24361D01*
X63678Y-24389D01*
X63709Y-24411D01*
X63745Y-24426D01*
X63782Y-24434D01*
X63800Y-24435D01*
X63800Y-24437D01*
X63799Y-24475D01*
X63806Y-24513D01*
X63820Y-24549D01*
X63841Y-24581D01*
X63868Y-24609D01*
X63900Y-24631D01*
X63935Y-24647D01*
X63973Y-24655D01*
X64012Y-24656D01*
X64050Y-24649D01*
X64086Y-24635D01*
X64118Y-24614D01*
X64146Y-24588D01*
X64168Y-24556D01*
X64184Y-24521D01*
X64193Y-24483D01*
X64193Y-24439D01*
X64193Y-33326D01*
X63494Y-33326D01*
X63503Y-24711D01*
X63287Y-24727D01*
X63287Y-33326D01*
X62805Y-33326D01*
X62805Y-15668D01*
X62798Y-15630D01*
X62783Y-15594D01*
X62761Y-15562D01*
X62734Y-15534D01*
X62702Y-15513D01*
X62667Y-15498D01*
X62629Y-15490D01*
X62590Y-15490D01*
X62552Y-15497D01*
X62517Y-15512D01*
X62484Y-15533D01*
X62457Y-15560D01*
X62435Y-15592D01*
X62420Y-15627D01*
X62412Y-15665D01*
X62411Y-15703D01*
X62418Y-15741D01*
X62432Y-15777D01*
X62453Y-15810D01*
X62480Y-15837D01*
X62512Y-15859D01*
X62547Y-15875D01*
X62585Y-15883D01*
X62623Y-15884D01*
X62661Y-15877D01*
X62697Y-15863D01*
X62730Y-15843D01*
X62758Y-15816D01*
X62780Y-15785D01*
X62796Y-15749D01*
X62804Y-15712D01*
X62805Y-15668D01*
X62805Y-33326D01*
X62726Y-33326D01*
X62726Y-24498D01*
X62718Y-24460D01*
X62704Y-24424D01*
X62682Y-24392D01*
X62655Y-24365D01*
X62623Y-24343D01*
X62597Y-24332D01*
X62598Y-24291D01*
X62590Y-24253D01*
X62576Y-24218D01*
X62554Y-24186D01*
X62527Y-24158D01*
X62495Y-24137D01*
X62486Y-24133D01*
X62486Y-16633D01*
X62479Y-16595D01*
X62464Y-16559D01*
X62443Y-16527D01*
X62415Y-16500D01*
X62383Y-16478D01*
X62348Y-16463D01*
X62310Y-16455D01*
X62271Y-16455D01*
X62233Y-16462D01*
X62198Y-16477D01*
X62165Y-16498D01*
X62138Y-16525D01*
X62116Y-16557D01*
X62101Y-16592D01*
X62093Y-16630D01*
X62092Y-16669D01*
X62099Y-16707D01*
X62113Y-16742D01*
X62134Y-16775D01*
X62161Y-16803D01*
X62193Y-16825D01*
X62228Y-16840D01*
X62266Y-16848D01*
X62304Y-16849D01*
X62342Y-16842D01*
X62378Y-16829D01*
X62411Y-16808D01*
X62439Y-16781D01*
X62461Y-16750D01*
X62477Y-16714D01*
X62486Y-16677D01*
X62486Y-16633D01*
X62486Y-24133D01*
X62460Y-24122D01*
X62449Y-24119D01*
X62451Y-24117D01*
X62467Y-24081D01*
X62475Y-24044D01*
X62476Y-24000D01*
X62468Y-23962D01*
X62454Y-23926D01*
X62432Y-23894D01*
X62405Y-23867D01*
X62373Y-23845D01*
X62338Y-23830D01*
X62300Y-23822D01*
X62261Y-23822D01*
X62223Y-23829D01*
X62187Y-23844D01*
X62184Y-23846D01*
X62184Y-19147D01*
X62177Y-19110D01*
X62162Y-19074D01*
X62141Y-19042D01*
X62113Y-19014D01*
X62081Y-18993D01*
X62046Y-18978D01*
X62008Y-18970D01*
X61969Y-18970D01*
X61931Y-18977D01*
X61896Y-18991D01*
X61863Y-19013D01*
X61836Y-19040D01*
X61814Y-19071D01*
X61799Y-19107D01*
X61791Y-19145D01*
X61790Y-19183D01*
X61797Y-19221D01*
X61811Y-19257D01*
X61832Y-19290D01*
X61859Y-19317D01*
X61891Y-19339D01*
X61926Y-19355D01*
X61964Y-19363D01*
X62002Y-19364D01*
X62040Y-19357D01*
X62076Y-19343D01*
X62109Y-19323D01*
X62137Y-19296D01*
X62159Y-19264D01*
X62175Y-19229D01*
X62184Y-19192D01*
X62184Y-19147D01*
X62184Y-23846D01*
X62155Y-23865D01*
X62128Y-23892D01*
X62106Y-23924D01*
X62090Y-23959D01*
X62082Y-23997D01*
X62082Y-24035D01*
X62089Y-24073D01*
X62103Y-24109D01*
X62124Y-24142D01*
X62151Y-24170D01*
X62183Y-24192D01*
X62218Y-24207D01*
X62231Y-24210D01*
X62228Y-24215D01*
X62213Y-24251D01*
X62205Y-24288D01*
X62204Y-24327D01*
X62211Y-24365D01*
X62225Y-24401D01*
X62246Y-24433D01*
X62273Y-24461D01*
X62305Y-24483D01*
X62332Y-24495D01*
X62332Y-24534D01*
X62339Y-24572D01*
X62353Y-24608D01*
X62374Y-24640D01*
X62401Y-24668D01*
X62433Y-24690D01*
X62468Y-24705D01*
X62506Y-24714D01*
X62544Y-24714D01*
X62582Y-24708D01*
X62618Y-24694D01*
X62651Y-24673D01*
X62679Y-24646D01*
X62701Y-24615D01*
X62717Y-24580D01*
X62725Y-24542D01*
X62726Y-24498D01*
X62726Y-33326D01*
X61948Y-33326D01*
X61948Y-20207D01*
X61940Y-20169D01*
X61926Y-20133D01*
X61904Y-20101D01*
X61877Y-20074D01*
X61845Y-20052D01*
X61810Y-20037D01*
X61772Y-20030D01*
X61733Y-20029D01*
X61695Y-20037D01*
X61659Y-20051D01*
X61627Y-20072D01*
X61600Y-20099D01*
X61578Y-20131D01*
X61563Y-20167D01*
X61555Y-20204D01*
X61554Y-20243D01*
X61561Y-20281D01*
X61575Y-20317D01*
X61596Y-20349D01*
X61623Y-20377D01*
X61655Y-20399D01*
X61690Y-20414D01*
X61728Y-20423D01*
X61766Y-20424D01*
X61804Y-20417D01*
X61840Y-20403D01*
X61873Y-20382D01*
X61901Y-20356D01*
X61923Y-20324D01*
X61939Y-20289D01*
X61947Y-20251D01*
X61948Y-20207D01*
X61948Y-33326D01*
X61479Y-33326D01*
X61479Y-20342D01*
X61472Y-20304D01*
X61457Y-20268D01*
X61435Y-20236D01*
X61408Y-20209D01*
X61376Y-20187D01*
X61355Y-20178D01*
X61371Y-20164D01*
X61393Y-20132D01*
X61409Y-20097D01*
X61417Y-20059D01*
X61418Y-20015D01*
X61411Y-19977D01*
X61399Y-19949D01*
X61399Y-19384D01*
X61392Y-19346D01*
X61377Y-19310D01*
X61356Y-19278D01*
X61328Y-19251D01*
X61296Y-19229D01*
X61261Y-19214D01*
X61223Y-19206D01*
X61184Y-19206D01*
X61146Y-19213D01*
X61111Y-19228D01*
X61078Y-19249D01*
X61051Y-19276D01*
X61043Y-19287D01*
X61043Y-16366D01*
X61036Y-16329D01*
X61021Y-16293D01*
X61000Y-16261D01*
X60972Y-16233D01*
X60940Y-16212D01*
X60905Y-16197D01*
X60868Y-16189D01*
X60868Y-15674D01*
X60860Y-15636D01*
X60845Y-15600D01*
X60824Y-15568D01*
X60797Y-15540D01*
X60765Y-15519D01*
X60729Y-15504D01*
X60691Y-15496D01*
X60653Y-15496D01*
X60615Y-15503D01*
X60579Y-15518D01*
X60547Y-15539D01*
X60519Y-15566D01*
X60503Y-15589D01*
X60517Y-15558D01*
X60526Y-15520D01*
X60526Y-15476D01*
X60519Y-15438D01*
X60504Y-15403D01*
X60483Y-15371D01*
X60456Y-15343D01*
X60424Y-15322D01*
X60388Y-15307D01*
X60350Y-15299D01*
X60311Y-15299D01*
X60274Y-15306D01*
X60238Y-15320D01*
X60205Y-15341D01*
X60178Y-15368D01*
X60156Y-15400D01*
X60141Y-15436D01*
X60133Y-15474D01*
X60132Y-15512D01*
X60139Y-15550D01*
X60153Y-15586D01*
X60174Y-15618D01*
X60201Y-15646D01*
X60233Y-15668D01*
X60268Y-15684D01*
X60306Y-15692D01*
X60345Y-15693D01*
X60383Y-15686D01*
X60419Y-15672D01*
X60451Y-15651D01*
X60479Y-15625D01*
X60496Y-15601D01*
X60482Y-15633D01*
X60474Y-15671D01*
X60474Y-15709D01*
X60481Y-15747D01*
X60495Y-15783D01*
X60516Y-15816D01*
X60543Y-15843D01*
X60574Y-15866D01*
X60610Y-15881D01*
X60647Y-15889D01*
X60686Y-15890D01*
X60724Y-15883D01*
X60760Y-15869D01*
X60793Y-15849D01*
X60820Y-15822D01*
X60843Y-15791D01*
X60858Y-15755D01*
X60867Y-15718D01*
X60868Y-15674D01*
X60868Y-16189D01*
X60867Y-16189D01*
X60828Y-16189D01*
X60791Y-16196D01*
X60755Y-16210D01*
X60722Y-16232D01*
X60695Y-16259D01*
X60673Y-16290D01*
X60658Y-16326D01*
X60650Y-16364D01*
X60649Y-16402D01*
X60656Y-16440D01*
X60670Y-16476D01*
X60691Y-16509D01*
X60718Y-16536D01*
X60750Y-16558D01*
X60785Y-16574D01*
X60823Y-16582D01*
X60862Y-16583D01*
X60900Y-16576D01*
X60936Y-16562D01*
X60968Y-16542D01*
X60996Y-16515D01*
X61018Y-16483D01*
X61034Y-16448D01*
X61043Y-16411D01*
X61043Y-16366D01*
X61043Y-19287D01*
X61029Y-19308D01*
X61016Y-19337D01*
X61016Y-18653D01*
X61009Y-18615D01*
X60994Y-18579D01*
X60973Y-18547D01*
X60946Y-18520D01*
X60914Y-18498D01*
X60878Y-18483D01*
X60840Y-18475D01*
X60802Y-18475D01*
X60764Y-18482D01*
X60728Y-18497D01*
X60696Y-18518D01*
X60668Y-18545D01*
X60646Y-18577D01*
X60631Y-18612D01*
X60623Y-18650D01*
X60622Y-18689D01*
X60629Y-18727D01*
X60644Y-18763D01*
X60665Y-18795D01*
X60691Y-18823D01*
X60723Y-18845D01*
X60758Y-18860D01*
X60796Y-18869D01*
X60835Y-18869D01*
X60873Y-18863D01*
X60909Y-18849D01*
X60941Y-18828D01*
X60969Y-18801D01*
X60992Y-18770D01*
X61007Y-18735D01*
X61016Y-18697D01*
X61016Y-18653D01*
X61016Y-19337D01*
X61014Y-19343D01*
X61006Y-19381D01*
X61005Y-19420D01*
X61012Y-19458D01*
X61013Y-19459D01*
X60992Y-19438D01*
X60960Y-19416D01*
X60924Y-19401D01*
X60886Y-19393D01*
X60848Y-19393D01*
X60810Y-19400D01*
X60774Y-19415D01*
X60742Y-19436D01*
X60714Y-19463D01*
X60692Y-19495D01*
X60677Y-19530D01*
X60669Y-19568D01*
X60669Y-19607D01*
X60676Y-19645D01*
X60690Y-19681D01*
X60711Y-19713D01*
X60737Y-19741D01*
X60769Y-19763D01*
X60805Y-19778D01*
X60842Y-19787D01*
X60881Y-19787D01*
X60919Y-19781D01*
X60955Y-19767D01*
X60983Y-19749D01*
X60992Y-19763D01*
X61019Y-19791D01*
X61050Y-19813D01*
X61086Y-19828D01*
X61123Y-19837D01*
X61162Y-19837D01*
X61200Y-19831D01*
X61236Y-19817D01*
X61269Y-19796D01*
X61296Y-19769D01*
X61319Y-19738D01*
X61334Y-19703D01*
X61343Y-19665D01*
X61344Y-19621D01*
X61336Y-19583D01*
X61326Y-19557D01*
X61352Y-19532D01*
X61374Y-19501D01*
X61390Y-19465D01*
X61398Y-19428D01*
X61399Y-19384D01*
X61399Y-19949D01*
X61396Y-19941D01*
X61374Y-19909D01*
X61347Y-19882D01*
X61315Y-19860D01*
X61280Y-19845D01*
X61242Y-19838D01*
X61203Y-19837D01*
X61165Y-19845D01*
X61130Y-19859D01*
X61097Y-19880D01*
X61070Y-19907D01*
X61048Y-19939D01*
X61033Y-19974D01*
X61025Y-20012D01*
X61024Y-20051D01*
X61031Y-20089D01*
X61045Y-20125D01*
X61066Y-20157D01*
X61093Y-20185D01*
X61125Y-20207D01*
X61148Y-20217D01*
X61131Y-20234D01*
X61109Y-20266D01*
X61094Y-20301D01*
X61086Y-20339D01*
X61085Y-20378D01*
X61092Y-20416D01*
X61106Y-20451D01*
X61127Y-20484D01*
X61154Y-20512D01*
X61186Y-20534D01*
X61221Y-20549D01*
X61259Y-20557D01*
X61297Y-20558D01*
X61335Y-20552D01*
X61371Y-20538D01*
X61404Y-20517D01*
X61432Y-20490D01*
X61454Y-20459D01*
X61470Y-20423D01*
X61478Y-20386D01*
X61479Y-20342D01*
X61479Y-33326D01*
X55658Y-33326D01*
X60150Y-25301D01*
X61345Y-24255D01*
X61214Y-24108D01*
X61086Y-24218D01*
X61086Y-22855D01*
X60994Y-22852D01*
X60994Y-22620D01*
X60986Y-22582D01*
X60971Y-22547D01*
X60950Y-22514D01*
X60923Y-22487D01*
X60891Y-22466D01*
X60855Y-22451D01*
X60817Y-22443D01*
X60817Y-22443D01*
X60817Y-20705D01*
X60809Y-20667D01*
X60795Y-20631D01*
X60773Y-20599D01*
X60746Y-20572D01*
X60714Y-20550D01*
X60678Y-20535D01*
X60641Y-20527D01*
X60602Y-20527D01*
X60564Y-20534D01*
X60528Y-20549D01*
X60496Y-20570D01*
X60468Y-20597D01*
X60447Y-20629D01*
X60431Y-20664D01*
X60423Y-20702D01*
X60423Y-20741D01*
X60430Y-20779D01*
X60444Y-20814D01*
X60465Y-20847D01*
X60492Y-20875D01*
X60523Y-20897D01*
X60559Y-20912D01*
X60597Y-20920D01*
X60635Y-20921D01*
X60673Y-20915D01*
X60709Y-20901D01*
X60742Y-20880D01*
X60770Y-20853D01*
X60792Y-20822D01*
X60808Y-20786D01*
X60816Y-20749D01*
X60817Y-20705D01*
X60817Y-22443D01*
X60779Y-22443D01*
X60741Y-22450D01*
X60705Y-22464D01*
X60673Y-22485D01*
X60645Y-22512D01*
X60623Y-22544D01*
X60608Y-22580D01*
X60600Y-22617D01*
X60600Y-22656D01*
X60607Y-22694D01*
X60621Y-22730D01*
X60642Y-22762D01*
X60669Y-22790D01*
X60700Y-22812D01*
X60736Y-22828D01*
X60773Y-22836D01*
X60812Y-22837D01*
X60850Y-22830D01*
X60886Y-22816D01*
X60919Y-22795D01*
X60946Y-22769D01*
X60969Y-22737D01*
X60984Y-22702D01*
X60993Y-22664D01*
X60994Y-22620D01*
X60994Y-22852D01*
X60088Y-22821D01*
X60088Y-16549D01*
X60081Y-16511D01*
X60066Y-16475D01*
X60059Y-16464D01*
X60059Y-15630D01*
X60051Y-15592D01*
X60036Y-15556D01*
X60015Y-15524D01*
X59988Y-15497D01*
X59956Y-15475D01*
X59920Y-15460D01*
X59882Y-15452D01*
X59844Y-15452D01*
X59806Y-15459D01*
X59770Y-15474D01*
X59738Y-15495D01*
X59710Y-15522D01*
X59688Y-15554D01*
X59673Y-15589D01*
X59665Y-15627D01*
X59665Y-15666D01*
X59672Y-15704D01*
X59686Y-15740D01*
X59707Y-15772D01*
X59734Y-15800D01*
X59765Y-15822D01*
X59801Y-15837D01*
X59838Y-15846D01*
X59877Y-15846D01*
X59915Y-15840D01*
X59951Y-15826D01*
X59983Y-15805D01*
X60011Y-15778D01*
X60034Y-15747D01*
X60049Y-15712D01*
X60058Y-15674D01*
X60059Y-15630D01*
X60059Y-16464D01*
X60045Y-16443D01*
X60017Y-16415D01*
X59985Y-16394D01*
X59950Y-16379D01*
X59912Y-16371D01*
X59873Y-16371D01*
X59835Y-16378D01*
X59800Y-16393D01*
X59767Y-16414D01*
X59740Y-16441D01*
X59718Y-16473D01*
X59703Y-16508D01*
X59695Y-16546D01*
X59694Y-16584D01*
X59701Y-16622D01*
X59715Y-16658D01*
X59736Y-16691D01*
X59763Y-16718D01*
X59795Y-16740D01*
X59830Y-16756D01*
X59868Y-16764D01*
X59906Y-16765D01*
X59944Y-16758D01*
X59980Y-16744D01*
X60013Y-16724D01*
X60041Y-16697D01*
X60063Y-16666D01*
X60079Y-16630D01*
X60087Y-16593D01*
X60088Y-16549D01*
X60088Y-22821D01*
X59352Y-22795D01*
X59352Y-15506D01*
X59345Y-15468D01*
X59330Y-15432D01*
X59309Y-15400D01*
X59281Y-15372D01*
X59249Y-15351D01*
X59214Y-15336D01*
X59176Y-15328D01*
X59137Y-15328D01*
X59100Y-15335D01*
X59064Y-15350D01*
X59031Y-15371D01*
X59004Y-15398D01*
X58982Y-15430D01*
X58967Y-15465D01*
X58959Y-15503D01*
X58958Y-15541D01*
X58965Y-15579D01*
X58979Y-15615D01*
X59000Y-15648D01*
X59027Y-15675D01*
X59059Y-15697D01*
X59094Y-15713D01*
X59132Y-15721D01*
X59171Y-15722D01*
X59209Y-15715D01*
X59245Y-15701D01*
X59277Y-15681D01*
X59305Y-15654D01*
X59327Y-15623D01*
X59343Y-15587D01*
X59352Y-15550D01*
X59352Y-15506D01*
X59352Y-22795D01*
X59025Y-22784D01*
X59025Y-17438D01*
X59017Y-17400D01*
X59002Y-17364D01*
X58981Y-17332D01*
X58954Y-17305D01*
X58922Y-17283D01*
X58886Y-17268D01*
X58849Y-17260D01*
X58810Y-17260D01*
X58773Y-17267D01*
X58773Y-16343D01*
X58766Y-16305D01*
X58751Y-16269D01*
X58730Y-16237D01*
X58702Y-16209D01*
X58670Y-16188D01*
X58635Y-16173D01*
X58597Y-16165D01*
X58558Y-16165D01*
X58520Y-16172D01*
X58485Y-16187D01*
X58452Y-16208D01*
X58425Y-16235D01*
X58403Y-16267D01*
X58388Y-16302D01*
X58380Y-16340D01*
X58379Y-16378D01*
X58386Y-16416D01*
X58400Y-16452D01*
X58421Y-16485D01*
X58448Y-16513D01*
X58480Y-16535D01*
X58515Y-16550D01*
X58553Y-16558D01*
X58591Y-16559D01*
X58629Y-16552D01*
X58665Y-16538D01*
X58698Y-16518D01*
X58726Y-16491D01*
X58748Y-16460D01*
X58764Y-16424D01*
X58773Y-16387D01*
X58773Y-16343D01*
X58773Y-17267D01*
X58772Y-17267D01*
X58736Y-17282D01*
X58704Y-17303D01*
X58676Y-17330D01*
X58655Y-17362D01*
X58639Y-17397D01*
X58631Y-17435D01*
X58631Y-17474D01*
X58638Y-17512D01*
X58652Y-17548D01*
X58673Y-17580D01*
X58700Y-17608D01*
X58731Y-17630D01*
X58767Y-17645D01*
X58804Y-17654D01*
X58843Y-17654D01*
X58881Y-17648D01*
X58917Y-17634D01*
X58950Y-17613D01*
X58978Y-17586D01*
X59000Y-17555D01*
X59016Y-17520D01*
X59024Y-17482D01*
X59025Y-17438D01*
X59025Y-22784D01*
X58729Y-22774D01*
X58729Y-19142D01*
X58721Y-19104D01*
X58706Y-19068D01*
X58685Y-19036D01*
X58658Y-19009D01*
X58626Y-18987D01*
X58590Y-18972D01*
X58552Y-18964D01*
X58514Y-18964D01*
X58476Y-18971D01*
X58452Y-18981D01*
X58452Y-17528D01*
X58444Y-17490D01*
X58430Y-17454D01*
X58408Y-17422D01*
X58381Y-17395D01*
X58349Y-17373D01*
X58314Y-17358D01*
X58276Y-17350D01*
X58237Y-17350D01*
X58199Y-17357D01*
X58163Y-17372D01*
X58131Y-17393D01*
X58103Y-17420D01*
X58082Y-17452D01*
X58066Y-17487D01*
X58058Y-17525D01*
X58058Y-17564D01*
X58065Y-17602D01*
X58079Y-17638D01*
X58100Y-17670D01*
X58127Y-17698D01*
X58159Y-17720D01*
X58194Y-17735D01*
X58232Y-17744D01*
X58270Y-17744D01*
X58308Y-17738D01*
X58344Y-17724D01*
X58377Y-17703D01*
X58405Y-17676D01*
X58427Y-17645D01*
X58443Y-17610D01*
X58451Y-17572D01*
X58452Y-17528D01*
X58452Y-18981D01*
X58440Y-18986D01*
X58408Y-19007D01*
X58380Y-19034D01*
X58358Y-19066D01*
X58352Y-19080D01*
X58352Y-18887D01*
X58345Y-18849D01*
X58330Y-18814D01*
X58309Y-18782D01*
X58281Y-18754D01*
X58249Y-18733D01*
X58214Y-18718D01*
X58176Y-18710D01*
X58137Y-18710D01*
X58100Y-18717D01*
X58064Y-18731D01*
X58031Y-18752D01*
X58004Y-18779D01*
X57982Y-18811D01*
X57967Y-18847D01*
X57959Y-18885D01*
X57958Y-18923D01*
X57965Y-18961D01*
X57977Y-18990D01*
X57948Y-19008D01*
X57920Y-19036D01*
X57899Y-19067D01*
X57883Y-19103D01*
X57875Y-19141D01*
X57875Y-19179D01*
X57882Y-19217D01*
X57896Y-19253D01*
X57917Y-19286D01*
X57944Y-19313D01*
X57975Y-19335D01*
X58011Y-19351D01*
X58049Y-19359D01*
X58087Y-19360D01*
X58125Y-19353D01*
X58161Y-19339D01*
X58194Y-19319D01*
X58222Y-19292D01*
X58244Y-19260D01*
X58260Y-19225D01*
X58268Y-19187D01*
X58269Y-19143D01*
X58261Y-19105D01*
X58251Y-19079D01*
X58277Y-19062D01*
X58305Y-19036D01*
X58327Y-19004D01*
X58343Y-18969D01*
X58352Y-18931D01*
X58352Y-18887D01*
X58352Y-19080D01*
X58343Y-19101D01*
X58335Y-19139D01*
X58335Y-19178D01*
X58342Y-19216D01*
X58356Y-19252D01*
X58377Y-19284D01*
X58404Y-19312D01*
X58435Y-19334D01*
X58471Y-19349D01*
X58508Y-19358D01*
X58547Y-19358D01*
X58585Y-19352D01*
X58621Y-19338D01*
X58654Y-19317D01*
X58682Y-19290D01*
X58704Y-19259D01*
X58719Y-19224D01*
X58728Y-19186D01*
X58729Y-19142D01*
X58729Y-22774D01*
X57809Y-22742D01*
X57809Y-17434D01*
X57802Y-17396D01*
X57787Y-17360D01*
X57766Y-17328D01*
X57739Y-17301D01*
X57707Y-17279D01*
X57671Y-17264D01*
X57633Y-17256D01*
X57595Y-17256D01*
X57557Y-17263D01*
X57521Y-17278D01*
X57489Y-17299D01*
X57461Y-17326D01*
X57439Y-17358D01*
X57424Y-17393D01*
X57416Y-17431D01*
X57415Y-17469D01*
X57422Y-17507D01*
X57437Y-17543D01*
X57457Y-17576D01*
X57484Y-17604D01*
X57516Y-17626D01*
X57551Y-17641D01*
X57589Y-17649D01*
X57628Y-17650D01*
X57666Y-17643D01*
X57702Y-17629D01*
X57734Y-17609D01*
X57762Y-17582D01*
X57784Y-17551D01*
X57800Y-17515D01*
X57809Y-17478D01*
X57809Y-17434D01*
X57809Y-22742D01*
X57793Y-22742D01*
X57793Y-18629D01*
X57786Y-18592D01*
X57771Y-18556D01*
X57750Y-18524D01*
X57722Y-18496D01*
X57690Y-18475D01*
X57655Y-18460D01*
X57617Y-18452D01*
X57578Y-18452D01*
X57541Y-18459D01*
X57505Y-18473D01*
X57472Y-18495D01*
X57445Y-18522D01*
X57423Y-18553D01*
X57408Y-18589D01*
X57400Y-18627D01*
X57399Y-18665D01*
X57406Y-18703D01*
X57420Y-18739D01*
X57441Y-18772D01*
X57468Y-18799D01*
X57500Y-18821D01*
X57535Y-18837D01*
X57573Y-18845D01*
X57612Y-18846D01*
X57650Y-18839D01*
X57686Y-18825D01*
X57718Y-18805D01*
X57746Y-18778D01*
X57768Y-18746D01*
X57784Y-18711D01*
X57793Y-18674D01*
X57793Y-18629D01*
X57793Y-22742D01*
X57340Y-22726D01*
X57340Y-15823D01*
X57332Y-15785D01*
X57317Y-15750D01*
X57296Y-15717D01*
X57269Y-15690D01*
X57237Y-15668D01*
X57201Y-15653D01*
X57163Y-15646D01*
X57125Y-15645D01*
X57087Y-15653D01*
X57051Y-15667D01*
X57019Y-15688D01*
X56991Y-15715D01*
X56969Y-15747D01*
X56954Y-15783D01*
X56946Y-15820D01*
X56946Y-15859D01*
X56953Y-15897D01*
X56967Y-15933D01*
X56988Y-15965D01*
X57015Y-15993D01*
X57046Y-16015D01*
X57082Y-16031D01*
X57119Y-16039D01*
X57158Y-16040D01*
X57196Y-16033D01*
X57232Y-16019D01*
X57265Y-15998D01*
X57293Y-15972D01*
X57315Y-15940D01*
X57330Y-15905D01*
X57339Y-15867D01*
X57340Y-15823D01*
X57340Y-22726D01*
X57279Y-22724D01*
X57279Y-16493D01*
X57263Y-16412D01*
X57231Y-16335D01*
X57185Y-16266D01*
X57127Y-16207D01*
X57058Y-16161D01*
X56982Y-16129D01*
X56900Y-16112D01*
X56817Y-16111D01*
X56787Y-16117D01*
X56787Y-14401D01*
X56779Y-14363D01*
X56765Y-14327D01*
X56743Y-14295D01*
X56716Y-14268D01*
X56684Y-14246D01*
X56649Y-14231D01*
X56611Y-14223D01*
X56572Y-14223D01*
X56534Y-14230D01*
X56498Y-14245D01*
X56466Y-14266D01*
X56439Y-14293D01*
X56417Y-14325D01*
X56402Y-14360D01*
X56393Y-14398D01*
X56393Y-14437D01*
X56400Y-14475D01*
X56414Y-14511D01*
X56435Y-14543D01*
X56462Y-14571D01*
X56494Y-14593D01*
X56529Y-14608D01*
X56567Y-14617D01*
X56605Y-14617D01*
X56643Y-14611D01*
X56679Y-14597D01*
X56712Y-14576D01*
X56740Y-14549D01*
X56762Y-14518D01*
X56778Y-14483D01*
X56786Y-14445D01*
X56787Y-14401D01*
X56787Y-16117D01*
X56736Y-16127D01*
X56659Y-16158D01*
X56589Y-16203D01*
X56530Y-16262D01*
X56483Y-16330D01*
X56450Y-16406D01*
X56433Y-16488D01*
X56432Y-16571D01*
X56447Y-16652D01*
X56478Y-16729D01*
X56523Y-16799D01*
X56580Y-16859D01*
X56648Y-16906D01*
X56724Y-16939D01*
X56805Y-16957D01*
X56888Y-16959D01*
X56970Y-16945D01*
X57048Y-16915D01*
X57118Y-16870D01*
X57178Y-16813D01*
X57226Y-16745D01*
X57259Y-16669D01*
X57278Y-16588D01*
X57279Y-16493D01*
X57279Y-22724D01*
X57261Y-22723D01*
X57261Y-18041D01*
X57254Y-18003D01*
X57239Y-17967D01*
X57218Y-17935D01*
X57191Y-17908D01*
X57159Y-17886D01*
X57123Y-17871D01*
X57085Y-17863D01*
X57047Y-17863D01*
X57009Y-17870D01*
X56973Y-17885D01*
X56941Y-17906D01*
X56913Y-17933D01*
X56891Y-17965D01*
X56876Y-18000D01*
X56868Y-18038D01*
X56867Y-18077D01*
X56874Y-18115D01*
X56889Y-18150D01*
X56909Y-18183D01*
X56936Y-18211D01*
X56968Y-18233D01*
X57003Y-18248D01*
X57041Y-18256D01*
X57080Y-18257D01*
X57118Y-18251D01*
X57154Y-18237D01*
X57186Y-18216D01*
X57214Y-18189D01*
X57236Y-18158D01*
X57252Y-18122D01*
X57261Y-18085D01*
X57261Y-18041D01*
X57261Y-22723D01*
X56950Y-22712D01*
X56950Y-20187D01*
X56942Y-20149D01*
X56928Y-20113D01*
X56906Y-20081D01*
X56879Y-20054D01*
X56847Y-20032D01*
X56812Y-20017D01*
X56774Y-20009D01*
X56735Y-20009D01*
X56697Y-20016D01*
X56661Y-20031D01*
X56629Y-20052D01*
X56602Y-20079D01*
X56580Y-20111D01*
X56564Y-20146D01*
X56556Y-20184D01*
X56556Y-20223D01*
X56563Y-20261D01*
X56577Y-20296D01*
X56598Y-20329D01*
X56625Y-20357D01*
X56657Y-20379D01*
X56692Y-20394D01*
X56730Y-20402D01*
X56768Y-20403D01*
X56806Y-20397D01*
X56842Y-20383D01*
X56875Y-20362D01*
X56903Y-20335D01*
X56925Y-20304D01*
X56941Y-20268D01*
X56949Y-20231D01*
X56950Y-20187D01*
X56950Y-22712D01*
X56427Y-22694D01*
X56427Y-17256D01*
X56420Y-17218D01*
X56405Y-17182D01*
X56383Y-17150D01*
X56356Y-17123D01*
X56324Y-17101D01*
X56289Y-17086D01*
X56251Y-17078D01*
X56212Y-17078D01*
X56174Y-17085D01*
X56146Y-17097D01*
X56135Y-17080D01*
X56107Y-17052D01*
X56075Y-17031D01*
X56061Y-17025D01*
X56061Y-16029D01*
X56054Y-15992D01*
X56039Y-15956D01*
X56018Y-15924D01*
X55991Y-15896D01*
X55959Y-15875D01*
X55923Y-15860D01*
X55885Y-15852D01*
X55847Y-15852D01*
X55809Y-15859D01*
X55773Y-15873D01*
X55741Y-15895D01*
X55713Y-15922D01*
X55691Y-15953D01*
X55676Y-15989D01*
X55668Y-16027D01*
X55667Y-16065D01*
X55674Y-16103D01*
X55689Y-16139D01*
X55709Y-16172D01*
X55736Y-16199D01*
X55768Y-16221D01*
X55803Y-16237D01*
X55841Y-16245D01*
X55880Y-16246D01*
X55918Y-16239D01*
X55954Y-16225D01*
X55986Y-16205D01*
X56014Y-16178D01*
X56036Y-16146D01*
X56052Y-16111D01*
X56061Y-16074D01*
X56061Y-16029D01*
X56061Y-17025D01*
X56040Y-17016D01*
X56002Y-17008D01*
X55963Y-17008D01*
X55926Y-17015D01*
X55890Y-17029D01*
X55857Y-17051D01*
X55830Y-17078D01*
X55808Y-17109D01*
X55793Y-17145D01*
X55785Y-17183D01*
X55784Y-17221D01*
X55791Y-17259D01*
X55805Y-17295D01*
X55826Y-17328D01*
X55853Y-17355D01*
X55885Y-17377D01*
X55920Y-17393D01*
X55958Y-17401D01*
X55997Y-17402D01*
X56035Y-17395D01*
X56066Y-17383D01*
X56075Y-17398D01*
X56102Y-17426D01*
X56134Y-17448D01*
X56169Y-17463D01*
X56207Y-17472D01*
X56245Y-17472D01*
X56283Y-17466D01*
X56319Y-17452D01*
X56352Y-17431D01*
X56380Y-17404D01*
X56402Y-17373D01*
X56418Y-17338D01*
X56426Y-17300D01*
X56427Y-17256D01*
X56427Y-22694D01*
X56263Y-22689D01*
X56263Y-19270D01*
X56255Y-19232D01*
X56240Y-19196D01*
X56219Y-19164D01*
X56192Y-19137D01*
X56175Y-19126D01*
X56175Y-17613D01*
X56168Y-17575D01*
X56153Y-17540D01*
X56132Y-17507D01*
X56104Y-17480D01*
X56072Y-17458D01*
X56037Y-17443D01*
X55999Y-17436D01*
X55960Y-17435D01*
X55922Y-17443D01*
X55887Y-17457D01*
X55854Y-17478D01*
X55827Y-17505D01*
X55805Y-17537D01*
X55790Y-17573D01*
X55782Y-17610D01*
X55781Y-17649D01*
X55788Y-17687D01*
X55802Y-17723D01*
X55823Y-17755D01*
X55850Y-17783D01*
X55882Y-17805D01*
X55917Y-17821D01*
X55955Y-17829D01*
X55993Y-17830D01*
X56031Y-17823D01*
X56067Y-17809D01*
X56100Y-17788D01*
X56128Y-17762D01*
X56150Y-17730D01*
X56166Y-17695D01*
X56174Y-17657D01*
X56175Y-17613D01*
X56175Y-19126D01*
X56160Y-19115D01*
X56124Y-19100D01*
X56086Y-19093D01*
X56048Y-19092D01*
X56010Y-19100D01*
X55974Y-19114D01*
X55942Y-19135D01*
X55914Y-19162D01*
X55892Y-19194D01*
X55877Y-19230D01*
X55869Y-19267D01*
X55869Y-19306D01*
X55876Y-19344D01*
X55890Y-19380D01*
X55911Y-19412D01*
X55937Y-19440D01*
X55969Y-19462D01*
X56005Y-19477D01*
X56042Y-19486D01*
X56081Y-19487D01*
X56119Y-19480D01*
X56155Y-19466D01*
X56187Y-19445D01*
X56215Y-19419D01*
X56238Y-19387D01*
X56253Y-19352D01*
X56262Y-19314D01*
X56263Y-19270D01*
X56263Y-22689D01*
X55885Y-22676D01*
X55885Y-21240D01*
X55878Y-21202D01*
X55863Y-21166D01*
X55842Y-21134D01*
X55815Y-21107D01*
X55783Y-21085D01*
X55747Y-21070D01*
X55709Y-21063D01*
X55671Y-21062D01*
X55664Y-21064D01*
X55664Y-19630D01*
X55657Y-19592D01*
X55642Y-19557D01*
X55621Y-19525D01*
X55593Y-19497D01*
X55561Y-19476D01*
X55526Y-19461D01*
X55488Y-19453D01*
X55473Y-19453D01*
X55473Y-19053D01*
X55465Y-19015D01*
X55451Y-18980D01*
X55429Y-18947D01*
X55402Y-18920D01*
X55370Y-18898D01*
X55334Y-18883D01*
X55297Y-18876D01*
X55294Y-18876D01*
X55294Y-17732D01*
X55286Y-17694D01*
X55272Y-17658D01*
X55250Y-17626D01*
X55223Y-17599D01*
X55191Y-17577D01*
X55156Y-17562D01*
X55118Y-17555D01*
X55079Y-17554D01*
X55041Y-17562D01*
X55005Y-17576D01*
X54973Y-17597D01*
X54946Y-17624D01*
X54924Y-17656D01*
X54909Y-17692D01*
X54901Y-17729D01*
X54900Y-17768D01*
X54907Y-17806D01*
X54921Y-17842D01*
X54942Y-17874D01*
X54969Y-17902D01*
X55001Y-17924D01*
X55036Y-17939D01*
X55074Y-17948D01*
X55112Y-17949D01*
X55150Y-17942D01*
X55186Y-17928D01*
X55219Y-17907D01*
X55247Y-17881D01*
X55269Y-17849D01*
X55285Y-17814D01*
X55293Y-17776D01*
X55294Y-17732D01*
X55294Y-18876D01*
X55258Y-18875D01*
X55220Y-18883D01*
X55184Y-18897D01*
X55152Y-18918D01*
X55124Y-18945D01*
X55103Y-18977D01*
X55087Y-19013D01*
X55079Y-19050D01*
X55079Y-19089D01*
X55084Y-19118D01*
X55076Y-19116D01*
X55037Y-19116D01*
X55000Y-19123D01*
X54964Y-19138D01*
X54931Y-19159D01*
X54904Y-19186D01*
X54882Y-19218D01*
X54867Y-19253D01*
X54859Y-19291D01*
X54858Y-19329D01*
X54865Y-19367D01*
X54879Y-19403D01*
X54900Y-19436D01*
X54927Y-19464D01*
X54959Y-19486D01*
X54994Y-19501D01*
X55032Y-19509D01*
X55071Y-19510D01*
X55109Y-19503D01*
X55145Y-19489D01*
X55177Y-19469D01*
X55205Y-19442D01*
X55227Y-19411D01*
X55243Y-19375D01*
X55252Y-19338D01*
X55252Y-19294D01*
X55247Y-19268D01*
X55252Y-19269D01*
X55291Y-19270D01*
X55329Y-19263D01*
X55365Y-19249D01*
X55398Y-19228D01*
X55426Y-19202D01*
X55448Y-19170D01*
X55464Y-19135D01*
X55472Y-19097D01*
X55473Y-19053D01*
X55473Y-19453D01*
X55449Y-19453D01*
X55411Y-19460D01*
X55376Y-19474D01*
X55343Y-19495D01*
X55316Y-19522D01*
X55294Y-19554D01*
X55279Y-19590D01*
X55271Y-19628D01*
X55270Y-19666D01*
X55277Y-19704D01*
X55291Y-19740D01*
X55312Y-19772D01*
X55339Y-19800D01*
X55371Y-19822D01*
X55406Y-19838D01*
X55444Y-19846D01*
X55482Y-19847D01*
X55520Y-19840D01*
X55556Y-19826D01*
X55589Y-19805D01*
X55617Y-19779D01*
X55639Y-19747D01*
X55655Y-19712D01*
X55663Y-19674D01*
X55664Y-19630D01*
X55664Y-21064D01*
X55633Y-21070D01*
X55597Y-21084D01*
X55565Y-21105D01*
X55537Y-21132D01*
X55515Y-21164D01*
X55500Y-21200D01*
X55492Y-21237D01*
X55491Y-21276D01*
X55498Y-21314D01*
X55513Y-21350D01*
X55533Y-21382D01*
X55560Y-21410D01*
X55592Y-21432D01*
X55627Y-21447D01*
X55665Y-21456D01*
X55704Y-21457D01*
X55742Y-21450D01*
X55778Y-21436D01*
X55810Y-21415D01*
X55838Y-21389D01*
X55860Y-21357D01*
X55876Y-21322D01*
X55885Y-21284D01*
X55885Y-21240D01*
X55885Y-22676D01*
X55590Y-22665D01*
X55590Y-22823D01*
X61068Y-23032D01*
X61086Y-22855D01*
X61086Y-24218D01*
X61017Y-24278D01*
X59936Y-25211D01*
X59931Y-25210D01*
X59924Y-25222D01*
X59909Y-25235D01*
X59915Y-25238D01*
X58228Y-28181D01*
X58228Y-27342D01*
X58220Y-27305D01*
X58206Y-27269D01*
X58184Y-27237D01*
X58157Y-27209D01*
X58125Y-27188D01*
X58089Y-27173D01*
X58052Y-27165D01*
X58013Y-27165D01*
X57975Y-27172D01*
X57939Y-27186D01*
X57907Y-27208D01*
X57879Y-27235D01*
X57858Y-27266D01*
X57854Y-27275D01*
X57854Y-24449D01*
X57846Y-24411D01*
X57832Y-24375D01*
X57810Y-24343D01*
X57783Y-24316D01*
X57751Y-24294D01*
X57715Y-24279D01*
X57678Y-24271D01*
X57639Y-24271D01*
X57601Y-24278D01*
X57565Y-24293D01*
X57533Y-24314D01*
X57505Y-24341D01*
X57484Y-24373D01*
X57481Y-24380D01*
X57481Y-23222D01*
X57473Y-23184D01*
X57458Y-23148D01*
X57437Y-23116D01*
X57410Y-23089D01*
X57378Y-23067D01*
X57342Y-23052D01*
X57304Y-23045D01*
X57266Y-23044D01*
X57228Y-23052D01*
X57192Y-23066D01*
X57160Y-23087D01*
X57132Y-23114D01*
X57110Y-23146D01*
X57095Y-23182D01*
X57087Y-23219D01*
X57087Y-23258D01*
X57094Y-23296D01*
X57108Y-23332D01*
X57129Y-23364D01*
X57156Y-23392D01*
X57187Y-23414D01*
X57223Y-23429D01*
X57260Y-23438D01*
X57299Y-23439D01*
X57337Y-23432D01*
X57373Y-23418D01*
X57406Y-23397D01*
X57433Y-23371D01*
X57456Y-23339D01*
X57471Y-23304D01*
X57480Y-23266D01*
X57481Y-23222D01*
X57481Y-24380D01*
X57468Y-24408D01*
X57460Y-24446D01*
X57460Y-24485D01*
X57467Y-24523D01*
X57481Y-24558D01*
X57502Y-24591D01*
X57529Y-24619D01*
X57560Y-24641D01*
X57596Y-24656D01*
X57634Y-24664D01*
X57672Y-24665D01*
X57710Y-24659D01*
X57746Y-24645D01*
X57779Y-24624D01*
X57807Y-24597D01*
X57829Y-24566D01*
X57845Y-24530D01*
X57853Y-24493D01*
X57854Y-24449D01*
X57854Y-27275D01*
X57842Y-27302D01*
X57834Y-27340D01*
X57834Y-27378D01*
X57841Y-27416D01*
X57855Y-27452D01*
X57876Y-27485D01*
X57903Y-27512D01*
X57934Y-27534D01*
X57970Y-27550D01*
X58008Y-27558D01*
X58046Y-27559D01*
X58084Y-27552D01*
X58120Y-27538D01*
X58153Y-27518D01*
X58181Y-27491D01*
X58203Y-27459D01*
X58219Y-27424D01*
X58227Y-27386D01*
X58228Y-27342D01*
X58228Y-28181D01*
X56742Y-30773D01*
X56742Y-25172D01*
X56734Y-25134D01*
X56719Y-25098D01*
X56698Y-25066D01*
X56671Y-25039D01*
X56639Y-25017D01*
X56603Y-25002D01*
X56565Y-24995D01*
X56527Y-24994D01*
X56489Y-25002D01*
X56453Y-25016D01*
X56421Y-25037D01*
X56393Y-25064D01*
X56371Y-25096D01*
X56356Y-25132D01*
X56348Y-25169D01*
X56348Y-25208D01*
X56355Y-25246D01*
X56369Y-25282D01*
X56390Y-25314D01*
X56417Y-25342D01*
X56448Y-25364D01*
X56484Y-25379D01*
X56521Y-25388D01*
X56560Y-25389D01*
X56598Y-25382D01*
X56634Y-25368D01*
X56667Y-25347D01*
X56695Y-25321D01*
X56717Y-25289D01*
X56732Y-25254D01*
X56741Y-25216D01*
X56742Y-25172D01*
X56742Y-30773D01*
X55779Y-32453D01*
X55779Y-23513D01*
X55771Y-23475D01*
X55756Y-23440D01*
X55735Y-23407D01*
X55708Y-23380D01*
X55676Y-23358D01*
X55640Y-23344D01*
X55602Y-23336D01*
X55564Y-23336D01*
X55526Y-23343D01*
X55490Y-23357D01*
X55458Y-23378D01*
X55430Y-23405D01*
X55408Y-23437D01*
X55393Y-23473D01*
X55385Y-23510D01*
X55385Y-23549D01*
X55392Y-23587D01*
X55406Y-23623D01*
X55427Y-23655D01*
X55454Y-23683D01*
X55485Y-23705D01*
X55521Y-23721D01*
X55558Y-23729D01*
X55597Y-23730D01*
X55635Y-23723D01*
X55671Y-23709D01*
X55704Y-23688D01*
X55732Y-23662D01*
X55754Y-23630D01*
X55769Y-23595D01*
X55778Y-23557D01*
X55779Y-23513D01*
X55779Y-32453D01*
X55278Y-33326D01*
X55264Y-33326D01*
X55264Y-25470D01*
X55257Y-25432D01*
X55242Y-25396D01*
X55221Y-25364D01*
X55193Y-25336D01*
X55161Y-25315D01*
X55126Y-25300D01*
X55088Y-25292D01*
X55049Y-25292D01*
X55011Y-25299D01*
X54976Y-25314D01*
X54943Y-25335D01*
X54916Y-25362D01*
X54894Y-25394D01*
X54879Y-25429D01*
X54871Y-25467D01*
X54870Y-25505D01*
X54877Y-25543D01*
X54891Y-25579D01*
X54912Y-25612D01*
X54939Y-25640D01*
X54971Y-25662D01*
X55006Y-25677D01*
X55044Y-25685D01*
X55082Y-25686D01*
X55120Y-25679D01*
X55156Y-25665D01*
X55189Y-25645D01*
X55217Y-25618D01*
X55239Y-25587D01*
X55255Y-25551D01*
X55263Y-25514D01*
X55264Y-25470D01*
X55264Y-33326D01*
X55255Y-33326D01*
X55255Y-29586D01*
X55248Y-29549D01*
X55233Y-29513D01*
X55212Y-29481D01*
X55185Y-29453D01*
X55153Y-29432D01*
X55117Y-29417D01*
X55079Y-29409D01*
X55041Y-29409D01*
X55003Y-29416D01*
X54967Y-29431D01*
X54935Y-29452D01*
X54907Y-29479D01*
X54885Y-29511D01*
X54870Y-29546D01*
X54862Y-29584D01*
X54861Y-29622D01*
X54868Y-29660D01*
X54883Y-29696D01*
X54904Y-29729D01*
X54930Y-29756D01*
X54962Y-29778D01*
X54997Y-29794D01*
X55035Y-29802D01*
X55074Y-29803D01*
X55112Y-29796D01*
X55148Y-29782D01*
X55180Y-29762D01*
X55208Y-29735D01*
X55231Y-29704D01*
X55246Y-29668D01*
X55255Y-29631D01*
X55255Y-29586D01*
X55255Y-33326D01*
X54745Y-33326D01*
X54745Y-14570D01*
X54735Y-14469D01*
X54707Y-14372D01*
X54660Y-14283D01*
X54597Y-14204D01*
X54519Y-14139D01*
X54431Y-14090D01*
X54334Y-14060D01*
X54234Y-14048D01*
X54226Y-14048D01*
X54221Y-14048D01*
X54121Y-14058D01*
X54024Y-14087D01*
X53935Y-14135D01*
X53856Y-14199D01*
X53792Y-14277D01*
X53744Y-14366D01*
X53714Y-14462D01*
X53703Y-14563D01*
X53712Y-14664D01*
X53741Y-14761D01*
X53788Y-14850D01*
X53851Y-14929D01*
X53929Y-14994D01*
X54017Y-15043D01*
X54114Y-15073D01*
X54214Y-15084D01*
X54221Y-15085D01*
X54226Y-15085D01*
X54327Y-15075D01*
X54424Y-15045D01*
X54513Y-14998D01*
X54591Y-14934D01*
X54656Y-14856D01*
X54704Y-14767D01*
X54734Y-14671D01*
X54745Y-14570D01*
X54745Y-33326D01*
X54665Y-33326D01*
X54665Y-33171D01*
X54665Y-33147D01*
X54665Y-32537D01*
X54660Y-32514D01*
X54651Y-32493D01*
X54638Y-32473D01*
X54622Y-32457D01*
X54607Y-32447D01*
X54607Y-20441D01*
X54599Y-20403D01*
X54584Y-20367D01*
X54563Y-20335D01*
X54536Y-20308D01*
X54504Y-20286D01*
X54468Y-20271D01*
X54430Y-20264D01*
X54392Y-20263D01*
X54374Y-20267D01*
X54374Y-15457D01*
X54366Y-15420D01*
X54352Y-15384D01*
X54330Y-15352D01*
X54303Y-15324D01*
X54271Y-15303D01*
X54236Y-15288D01*
X54198Y-15280D01*
X54159Y-15280D01*
X54121Y-15287D01*
X54085Y-15301D01*
X54053Y-15323D01*
X54026Y-15350D01*
X54004Y-15381D01*
X53989Y-15417D01*
X53980Y-15455D01*
X53980Y-15493D01*
X53987Y-15531D01*
X54001Y-15567D01*
X54022Y-15600D01*
X54049Y-15627D01*
X54081Y-15649D01*
X54116Y-15665D01*
X54154Y-15673D01*
X54192Y-15674D01*
X54230Y-15667D01*
X54266Y-15653D01*
X54299Y-15633D01*
X54327Y-15606D01*
X54349Y-15574D01*
X54365Y-15539D01*
X54373Y-15502D01*
X54374Y-15457D01*
X54374Y-20267D01*
X54354Y-20270D01*
X54318Y-20285D01*
X54286Y-20306D01*
X54258Y-20333D01*
X54236Y-20365D01*
X54221Y-20400D01*
X54213Y-20438D01*
X54213Y-20477D01*
X54220Y-20515D01*
X54234Y-20551D01*
X54255Y-20583D01*
X54282Y-20611D01*
X54313Y-20633D01*
X54349Y-20648D01*
X54386Y-20657D01*
X54425Y-20657D01*
X54463Y-20651D01*
X54499Y-20637D01*
X54532Y-20616D01*
X54559Y-20589D01*
X54582Y-20558D01*
X54597Y-20523D01*
X54606Y-20485D01*
X54607Y-20441D01*
X54607Y-32447D01*
X54603Y-32444D01*
X54581Y-32435D01*
X54558Y-32431D01*
X54535Y-32431D01*
X54275Y-32431D01*
X54275Y-20785D01*
X54268Y-20747D01*
X54253Y-20711D01*
X54232Y-20679D01*
X54204Y-20652D01*
X54172Y-20630D01*
X54137Y-20615D01*
X54099Y-20607D01*
X54060Y-20607D01*
X54022Y-20614D01*
X53987Y-20629D01*
X53954Y-20650D01*
X53936Y-20668D01*
X53936Y-19833D01*
X53929Y-19795D01*
X53914Y-19760D01*
X53893Y-19728D01*
X53865Y-19700D01*
X53833Y-19679D01*
X53798Y-19664D01*
X53760Y-19656D01*
X53721Y-19656D01*
X53683Y-19663D01*
X53676Y-19666D01*
X53676Y-15005D01*
X53669Y-14967D01*
X53654Y-14931D01*
X53633Y-14899D01*
X53606Y-14872D01*
X53574Y-14850D01*
X53538Y-14835D01*
X53500Y-14828D01*
X53461Y-14827D01*
X53424Y-14835D01*
X53388Y-14849D01*
X53355Y-14870D01*
X53328Y-14897D01*
X53306Y-14929D01*
X53291Y-14965D01*
X53283Y-15002D01*
X53282Y-15041D01*
X53289Y-15079D01*
X53303Y-15115D01*
X53324Y-15147D01*
X53351Y-15175D01*
X53383Y-15197D01*
X53418Y-15212D01*
X53456Y-15221D01*
X53495Y-15222D01*
X53533Y-15215D01*
X53569Y-15201D01*
X53601Y-15180D01*
X53629Y-15154D01*
X53651Y-15122D01*
X53667Y-15087D01*
X53676Y-15049D01*
X53676Y-15005D01*
X53676Y-19666D01*
X53648Y-19677D01*
X53615Y-19698D01*
X53588Y-19725D01*
X53566Y-19757D01*
X53551Y-19793D01*
X53546Y-19817D01*
X53546Y-16897D01*
X53538Y-16860D01*
X53523Y-16824D01*
X53502Y-16792D01*
X53475Y-16764D01*
X53443Y-16743D01*
X53407Y-16728D01*
X53369Y-16720D01*
X53331Y-16720D01*
X53293Y-16727D01*
X53257Y-16741D01*
X53225Y-16763D01*
X53197Y-16790D01*
X53175Y-16821D01*
X53160Y-16857D01*
X53152Y-16895D01*
X53152Y-16933D01*
X53156Y-16956D01*
X53154Y-16957D01*
X53122Y-16978D01*
X53094Y-17005D01*
X53073Y-17037D01*
X53057Y-17072D01*
X53049Y-17110D01*
X53049Y-17149D01*
X53056Y-17187D01*
X53070Y-17223D01*
X53091Y-17255D01*
X53118Y-17283D01*
X53149Y-17305D01*
X53185Y-17320D01*
X53223Y-17329D01*
X53261Y-17329D01*
X53299Y-17323D01*
X53335Y-17309D01*
X53368Y-17288D01*
X53396Y-17261D01*
X53418Y-17230D01*
X53434Y-17195D01*
X53442Y-17157D01*
X53443Y-17113D01*
X53439Y-17093D01*
X53470Y-17073D01*
X53498Y-17046D01*
X53521Y-17014D01*
X53536Y-16979D01*
X53545Y-16941D01*
X53546Y-16897D01*
X53546Y-19817D01*
X53543Y-19831D01*
X53542Y-19869D01*
X53549Y-19907D01*
X53563Y-19943D01*
X53584Y-19975D01*
X53611Y-20003D01*
X53643Y-20025D01*
X53678Y-20041D01*
X53716Y-20049D01*
X53754Y-20050D01*
X53792Y-20043D01*
X53828Y-20029D01*
X53861Y-20008D01*
X53889Y-19982D01*
X53911Y-19950D01*
X53927Y-19915D01*
X53936Y-19877D01*
X53936Y-19833D01*
X53936Y-20668D01*
X53927Y-20677D01*
X53905Y-20709D01*
X53890Y-20744D01*
X53882Y-20782D01*
X53881Y-20821D01*
X53888Y-20859D01*
X53902Y-20895D01*
X53923Y-20927D01*
X53950Y-20955D01*
X53982Y-20977D01*
X54017Y-20992D01*
X54055Y-21001D01*
X54093Y-21001D01*
X54131Y-20995D01*
X54167Y-20981D01*
X54200Y-20960D01*
X54228Y-20933D01*
X54250Y-20902D01*
X54266Y-20867D01*
X54274Y-20829D01*
X54275Y-20785D01*
X54275Y-32431D01*
X54204Y-32431D01*
X54204Y-31793D01*
X54199Y-31734D01*
X54182Y-31677D01*
X54154Y-31624D01*
X54117Y-31577D01*
X54071Y-31539D01*
X54019Y-31510D01*
X53962Y-31492D01*
X53903Y-31486D01*
X53899Y-31486D01*
X53777Y-31486D01*
X53718Y-31492D01*
X53661Y-31509D01*
X53654Y-31513D01*
X53654Y-21124D01*
X53646Y-21086D01*
X53632Y-21051D01*
X53610Y-21019D01*
X53583Y-20991D01*
X53551Y-20970D01*
X53515Y-20955D01*
X53478Y-20947D01*
X53440Y-20947D01*
X53440Y-18661D01*
X53433Y-18623D01*
X53418Y-18588D01*
X53418Y-18587D01*
X53418Y-18106D01*
X53410Y-18068D01*
X53395Y-18033D01*
X53374Y-18000D01*
X53347Y-17973D01*
X53315Y-17951D01*
X53279Y-17936D01*
X53241Y-17929D01*
X53203Y-17928D01*
X53165Y-17936D01*
X53129Y-17950D01*
X53097Y-17971D01*
X53069Y-17998D01*
X53047Y-18030D01*
X53032Y-18066D01*
X53024Y-18103D01*
X53024Y-18142D01*
X53031Y-18180D01*
X53045Y-18216D01*
X53066Y-18248D01*
X53093Y-18276D01*
X53124Y-18298D01*
X53160Y-18314D01*
X53197Y-18322D01*
X53236Y-18323D01*
X53274Y-18316D01*
X53310Y-18302D01*
X53343Y-18281D01*
X53370Y-18255D01*
X53393Y-18223D01*
X53408Y-18188D01*
X53417Y-18150D01*
X53418Y-18106D01*
X53418Y-18587D01*
X53397Y-18555D01*
X53370Y-18528D01*
X53338Y-18506D01*
X53302Y-18491D01*
X53264Y-18484D01*
X53226Y-18483D01*
X53188Y-18491D01*
X53152Y-18505D01*
X53120Y-18526D01*
X53092Y-18553D01*
X53070Y-18585D01*
X53055Y-18621D01*
X53047Y-18658D01*
X53046Y-18697D01*
X53053Y-18735D01*
X53068Y-18771D01*
X53089Y-18803D01*
X53115Y-18831D01*
X53147Y-18853D01*
X53182Y-18868D01*
X53220Y-18877D01*
X53259Y-18878D01*
X53297Y-18871D01*
X53333Y-18857D01*
X53365Y-18836D01*
X53393Y-18810D01*
X53416Y-18778D01*
X53431Y-18743D01*
X53440Y-18705D01*
X53440Y-18661D01*
X53440Y-20947D01*
X53439Y-20947D01*
X53401Y-20954D01*
X53365Y-20968D01*
X53333Y-20989D01*
X53305Y-21016D01*
X53284Y-21048D01*
X53268Y-21084D01*
X53260Y-21122D01*
X53260Y-21160D01*
X53267Y-21198D01*
X53281Y-21234D01*
X53302Y-21266D01*
X53329Y-21294D01*
X53360Y-21316D01*
X53396Y-21332D01*
X53434Y-21340D01*
X53472Y-21341D01*
X53510Y-21334D01*
X53546Y-21320D01*
X53579Y-21300D01*
X53607Y-21273D01*
X53629Y-21241D01*
X53645Y-21206D01*
X53653Y-21168D01*
X53654Y-21124D01*
X53654Y-31513D01*
X53623Y-31529D01*
X53623Y-24845D01*
X53616Y-24807D01*
X53612Y-24797D01*
X53612Y-21988D01*
X53604Y-21950D01*
X53590Y-21915D01*
X53568Y-21882D01*
X53541Y-21855D01*
X53509Y-21833D01*
X53473Y-21818D01*
X53436Y-21811D01*
X53397Y-21810D01*
X53359Y-21818D01*
X53323Y-21832D01*
X53291Y-21853D01*
X53263Y-21880D01*
X53242Y-21912D01*
X53226Y-21948D01*
X53218Y-21985D01*
X53218Y-22024D01*
X53225Y-22062D01*
X53239Y-22098D01*
X53260Y-22130D01*
X53287Y-22158D01*
X53318Y-22180D01*
X53354Y-22195D01*
X53391Y-22204D01*
X53430Y-22205D01*
X53468Y-22198D01*
X53504Y-22184D01*
X53537Y-22163D01*
X53565Y-22137D01*
X53587Y-22105D01*
X53603Y-22070D01*
X53611Y-22032D01*
X53612Y-21988D01*
X53612Y-24797D01*
X53601Y-24771D01*
X53580Y-24739D01*
X53578Y-24738D01*
X53578Y-22501D01*
X53571Y-22464D01*
X53556Y-22428D01*
X53535Y-22396D01*
X53507Y-22368D01*
X53475Y-22347D01*
X53440Y-22332D01*
X53402Y-22324D01*
X53363Y-22324D01*
X53326Y-22331D01*
X53290Y-22345D01*
X53257Y-22367D01*
X53230Y-22394D01*
X53208Y-22425D01*
X53193Y-22461D01*
X53185Y-22499D01*
X53184Y-22537D01*
X53191Y-22575D01*
X53205Y-22611D01*
X53226Y-22644D01*
X53253Y-22671D01*
X53285Y-22693D01*
X53320Y-22709D01*
X53358Y-22717D01*
X53397Y-22718D01*
X53435Y-22711D01*
X53471Y-22697D01*
X53503Y-22677D01*
X53531Y-22650D01*
X53553Y-22618D01*
X53569Y-22583D01*
X53578Y-22546D01*
X53578Y-22501D01*
X53578Y-24738D01*
X53552Y-24712D01*
X53520Y-24690D01*
X53485Y-24675D01*
X53447Y-24667D01*
X53408Y-24667D01*
X53370Y-24674D01*
X53335Y-24689D01*
X53302Y-24710D01*
X53275Y-24737D01*
X53253Y-24769D01*
X53238Y-24804D01*
X53230Y-24842D01*
X53229Y-24881D01*
X53236Y-24918D01*
X53250Y-24954D01*
X53271Y-24987D01*
X53298Y-25015D01*
X53330Y-25037D01*
X53365Y-25052D01*
X53403Y-25060D01*
X53441Y-25061D01*
X53479Y-25054D01*
X53515Y-25041D01*
X53548Y-25020D01*
X53576Y-24993D01*
X53598Y-24962D01*
X53614Y-24926D01*
X53623Y-24889D01*
X53623Y-24845D01*
X53623Y-31529D01*
X53608Y-31537D01*
X53562Y-31574D01*
X53524Y-31620D01*
X53496Y-31673D01*
X53478Y-31729D01*
X53472Y-31789D01*
X53478Y-31848D01*
X53494Y-31905D01*
X53522Y-31958D01*
X53559Y-32004D01*
X53605Y-32043D01*
X53657Y-32071D01*
X53714Y-32089D01*
X53773Y-32096D01*
X53777Y-32096D01*
X53899Y-32096D01*
X53958Y-32090D01*
X54015Y-32073D01*
X54068Y-32045D01*
X54114Y-32007D01*
X54152Y-31961D01*
X54180Y-31909D01*
X54198Y-31852D01*
X54204Y-31793D01*
X54204Y-32431D01*
X53748Y-32431D01*
X53725Y-32435D01*
X53703Y-32444D01*
X53684Y-32457D01*
X53668Y-32473D01*
X53655Y-32493D01*
X53646Y-32514D01*
X53641Y-32537D01*
X53641Y-32560D01*
X53641Y-33171D01*
X53646Y-33193D01*
X53655Y-33215D01*
X53668Y-33234D01*
X53684Y-33251D01*
X53703Y-33264D01*
X53725Y-33273D01*
X53748Y-33277D01*
X53771Y-33277D01*
X54558Y-33277D01*
X54581Y-33273D01*
X54603Y-33264D01*
X54622Y-33251D01*
X54638Y-33234D01*
X54651Y-33215D01*
X54660Y-33193D01*
X54665Y-33171D01*
X54665Y-33326D01*
X52585Y-33326D01*
X52585Y-25546D01*
X52585Y-14860D01*
X52577Y-14822D01*
X52562Y-14787D01*
X52541Y-14755D01*
X52514Y-14727D01*
X52482Y-14706D01*
X52446Y-14691D01*
X52408Y-14683D01*
X52370Y-14683D01*
X52332Y-14690D01*
X52296Y-14704D01*
X52264Y-14725D01*
X52236Y-14752D01*
X52214Y-14784D01*
X52199Y-14820D01*
X52191Y-14858D01*
X52191Y-14896D01*
X52198Y-14934D01*
X52212Y-14970D01*
X52233Y-15002D01*
X52259Y-15030D01*
X52291Y-15052D01*
X52327Y-15068D01*
X52364Y-15076D01*
X52403Y-15077D01*
X52441Y-15070D01*
X52477Y-15056D01*
X52509Y-15035D01*
X52537Y-15009D01*
X52560Y-14977D01*
X52575Y-14942D01*
X52584Y-14904D01*
X52585Y-14860D01*
X52585Y-25546D01*
X52577Y-25508D01*
X52562Y-25472D01*
X52541Y-25440D01*
X52514Y-25412D01*
X52482Y-25391D01*
X52446Y-25376D01*
X52408Y-25368D01*
X52370Y-25368D01*
X52332Y-25375D01*
X52296Y-25390D01*
X52264Y-25411D01*
X52236Y-25438D01*
X52214Y-25470D01*
X52199Y-25505D01*
X52191Y-25543D01*
X52191Y-25581D01*
X52198Y-25619D01*
X52212Y-25655D01*
X52233Y-25688D01*
X52259Y-25715D01*
X52291Y-25738D01*
X52327Y-25753D01*
X52364Y-25761D01*
X52403Y-25762D01*
X52441Y-25755D01*
X52477Y-25741D01*
X52509Y-25721D01*
X52537Y-25694D01*
X52560Y-25663D01*
X52575Y-25627D01*
X52584Y-25590D01*
X52585Y-25546D01*
X52585Y-33326D01*
X52236Y-33326D01*
X52236Y-31793D01*
X52230Y-31734D01*
X52213Y-31677D01*
X52186Y-31624D01*
X52148Y-31577D01*
X52103Y-31539D01*
X52051Y-31510D01*
X51994Y-31492D01*
X51935Y-31486D01*
X51930Y-31486D01*
X51809Y-31486D01*
X51749Y-31492D01*
X51692Y-31509D01*
X51651Y-31531D01*
X51651Y-30098D01*
X51644Y-30060D01*
X51629Y-30025D01*
X51608Y-29993D01*
X51581Y-29965D01*
X51549Y-29944D01*
X51513Y-29929D01*
X51475Y-29921D01*
X51437Y-29921D01*
X51399Y-29928D01*
X51363Y-29942D01*
X51351Y-29950D01*
X51351Y-27714D01*
X51351Y-27710D01*
X51351Y-26714D01*
X51351Y-26710D01*
X51351Y-25714D01*
X51351Y-25710D01*
X51351Y-24714D01*
X51351Y-24710D01*
X51351Y-23714D01*
X51351Y-23710D01*
X51351Y-22714D01*
X51351Y-22710D01*
X51351Y-21714D01*
X51351Y-21710D01*
X51351Y-20714D01*
X51351Y-20710D01*
X51351Y-19714D01*
X51351Y-19710D01*
X51351Y-17537D01*
X51351Y-17533D01*
X51351Y-16537D01*
X51351Y-16533D01*
X51351Y-15537D01*
X51351Y-15533D01*
X51351Y-14537D01*
X51351Y-14533D01*
X51343Y-14444D01*
X51317Y-14358D01*
X51275Y-14279D01*
X51218Y-14210D01*
X51149Y-14153D01*
X51071Y-14110D01*
X50985Y-14084D01*
X50896Y-14075D01*
X50807Y-14083D01*
X50722Y-14108D01*
X50642Y-14149D01*
X50573Y-14205D01*
X50515Y-14274D01*
X50472Y-14352D01*
X50445Y-14437D01*
X50435Y-14526D01*
X50435Y-14533D01*
X50435Y-14537D01*
X50444Y-14626D01*
X50470Y-14712D01*
X50512Y-14791D01*
X50568Y-14860D01*
X50637Y-14917D01*
X50716Y-14959D01*
X50801Y-14986D01*
X50890Y-14995D01*
X50979Y-14987D01*
X51065Y-14962D01*
X51144Y-14920D01*
X51214Y-14864D01*
X51271Y-14796D01*
X51314Y-14718D01*
X51341Y-14632D01*
X51351Y-14544D01*
X51351Y-14537D01*
X51351Y-15533D01*
X51343Y-15444D01*
X51317Y-15358D01*
X51275Y-15279D01*
X51218Y-15210D01*
X51149Y-15153D01*
X51071Y-15110D01*
X50985Y-15084D01*
X50896Y-15075D01*
X50807Y-15083D01*
X50722Y-15108D01*
X50642Y-15149D01*
X50573Y-15205D01*
X50515Y-15274D01*
X50472Y-15352D01*
X50445Y-15437D01*
X50435Y-15526D01*
X50435Y-15533D01*
X50435Y-15537D01*
X50444Y-15626D01*
X50470Y-15712D01*
X50512Y-15791D01*
X50568Y-15860D01*
X50637Y-15917D01*
X50716Y-15959D01*
X50801Y-15986D01*
X50890Y-15995D01*
X50979Y-15987D01*
X51065Y-15962D01*
X51144Y-15920D01*
X51214Y-15864D01*
X51271Y-15796D01*
X51314Y-15718D01*
X51341Y-15632D01*
X51351Y-15544D01*
X51351Y-15537D01*
X51351Y-16533D01*
X51343Y-16444D01*
X51317Y-16358D01*
X51275Y-16279D01*
X51218Y-16210D01*
X51149Y-16153D01*
X51071Y-16110D01*
X50985Y-16084D01*
X50896Y-16075D01*
X50807Y-16083D01*
X50722Y-16108D01*
X50642Y-16149D01*
X50573Y-16205D01*
X50515Y-16274D01*
X50472Y-16352D01*
X50445Y-16437D01*
X50435Y-16526D01*
X50435Y-16533D01*
X50435Y-16537D01*
X50444Y-16626D01*
X50470Y-16712D01*
X50512Y-16791D01*
X50568Y-16860D01*
X50637Y-16917D01*
X50716Y-16959D01*
X50801Y-16986D01*
X50890Y-16995D01*
X50979Y-16987D01*
X51065Y-16962D01*
X51144Y-16920D01*
X51214Y-16864D01*
X51271Y-16796D01*
X51314Y-16718D01*
X51341Y-16632D01*
X51351Y-16544D01*
X51351Y-16537D01*
X51351Y-17533D01*
X51343Y-17444D01*
X51317Y-17358D01*
X51275Y-17279D01*
X51218Y-17210D01*
X51149Y-17153D01*
X51071Y-17110D01*
X50985Y-17084D01*
X50896Y-17075D01*
X50807Y-17083D01*
X50722Y-17108D01*
X50642Y-17149D01*
X50573Y-17205D01*
X50515Y-17274D01*
X50472Y-17352D01*
X50445Y-17437D01*
X50435Y-17526D01*
X50435Y-17533D01*
X50435Y-17537D01*
X50444Y-17626D01*
X50470Y-17712D01*
X50512Y-17791D01*
X50568Y-17860D01*
X50637Y-17917D01*
X50716Y-17959D01*
X50801Y-17986D01*
X50890Y-17995D01*
X50979Y-17987D01*
X51065Y-17962D01*
X51144Y-17920D01*
X51214Y-17864D01*
X51271Y-17796D01*
X51314Y-17718D01*
X51341Y-17632D01*
X51351Y-17544D01*
X51351Y-17537D01*
X51351Y-19710D01*
X51343Y-19621D01*
X51317Y-19535D01*
X51275Y-19456D01*
X51218Y-19387D01*
X51149Y-19330D01*
X51071Y-19288D01*
X50985Y-19261D01*
X50896Y-19252D01*
X50807Y-19260D01*
X50722Y-19285D01*
X50642Y-19327D01*
X50573Y-19383D01*
X50515Y-19451D01*
X50472Y-19529D01*
X50445Y-19615D01*
X50435Y-19703D01*
X50435Y-19710D01*
X50435Y-19714D01*
X50444Y-19803D01*
X50470Y-19889D01*
X50512Y-19968D01*
X50568Y-20037D01*
X50637Y-20094D01*
X50716Y-20137D01*
X50801Y-20163D01*
X50890Y-20172D01*
X50979Y-20164D01*
X51065Y-20139D01*
X51144Y-20098D01*
X51214Y-20042D01*
X51271Y-19973D01*
X51314Y-19895D01*
X51341Y-19810D01*
X51351Y-19721D01*
X51351Y-19714D01*
X51351Y-20710D01*
X51343Y-20621D01*
X51317Y-20535D01*
X51275Y-20456D01*
X51218Y-20387D01*
X51149Y-20330D01*
X51071Y-20288D01*
X50985Y-20261D01*
X50896Y-20252D01*
X50807Y-20260D01*
X50722Y-20285D01*
X50642Y-20327D01*
X50573Y-20383D01*
X50515Y-20451D01*
X50472Y-20529D01*
X50445Y-20615D01*
X50435Y-20703D01*
X50435Y-20710D01*
X50435Y-20714D01*
X50444Y-20803D01*
X50470Y-20889D01*
X50512Y-20968D01*
X50568Y-21037D01*
X50637Y-21094D01*
X50716Y-21137D01*
X50801Y-21163D01*
X50890Y-21172D01*
X50979Y-21164D01*
X51065Y-21139D01*
X51144Y-21098D01*
X51214Y-21042D01*
X51271Y-20973D01*
X51314Y-20895D01*
X51341Y-20810D01*
X51351Y-20721D01*
X51351Y-20714D01*
X51351Y-21710D01*
X51343Y-21621D01*
X51317Y-21535D01*
X51275Y-21456D01*
X51218Y-21387D01*
X51149Y-21330D01*
X51071Y-21288D01*
X50985Y-21261D01*
X50896Y-21252D01*
X50807Y-21260D01*
X50722Y-21285D01*
X50642Y-21327D01*
X50573Y-21383D01*
X50515Y-21451D01*
X50472Y-21529D01*
X50445Y-21615D01*
X50435Y-21703D01*
X50435Y-21710D01*
X50435Y-21714D01*
X50444Y-21803D01*
X50470Y-21889D01*
X50512Y-21968D01*
X50568Y-22037D01*
X50637Y-22094D01*
X50716Y-22137D01*
X50801Y-22163D01*
X50890Y-22172D01*
X50979Y-22164D01*
X51065Y-22139D01*
X51144Y-22098D01*
X51214Y-22042D01*
X51271Y-21973D01*
X51314Y-21895D01*
X51341Y-21810D01*
X51351Y-21721D01*
X51351Y-21714D01*
X51351Y-22710D01*
X51343Y-22621D01*
X51317Y-22535D01*
X51275Y-22456D01*
X51218Y-22387D01*
X51149Y-22330D01*
X51071Y-22288D01*
X50985Y-22261D01*
X50896Y-22252D01*
X50807Y-22260D01*
X50722Y-22285D01*
X50642Y-22327D01*
X50573Y-22383D01*
X50515Y-22451D01*
X50472Y-22529D01*
X50445Y-22615D01*
X50435Y-22703D01*
X50435Y-22710D01*
X50435Y-22714D01*
X50444Y-22803D01*
X50470Y-22889D01*
X50512Y-22968D01*
X50568Y-23037D01*
X50637Y-23094D01*
X50716Y-23137D01*
X50801Y-23163D01*
X50890Y-23172D01*
X50979Y-23164D01*
X51065Y-23139D01*
X51144Y-23098D01*
X51214Y-23042D01*
X51271Y-22973D01*
X51314Y-22895D01*
X51341Y-22810D01*
X51351Y-22721D01*
X51351Y-22714D01*
X51351Y-23710D01*
X51343Y-23621D01*
X51317Y-23535D01*
X51275Y-23456D01*
X51218Y-23387D01*
X51149Y-23330D01*
X51071Y-23288D01*
X50985Y-23261D01*
X50896Y-23252D01*
X50807Y-23260D01*
X50722Y-23285D01*
X50642Y-23327D01*
X50573Y-23383D01*
X50515Y-23451D01*
X50472Y-23529D01*
X50445Y-23615D01*
X50435Y-23703D01*
X50435Y-23710D01*
X50435Y-23714D01*
X50444Y-23803D01*
X50470Y-23889D01*
X50512Y-23968D01*
X50568Y-24037D01*
X50637Y-24094D01*
X50716Y-24137D01*
X50801Y-24163D01*
X50890Y-24172D01*
X50979Y-24164D01*
X51065Y-24139D01*
X51144Y-24098D01*
X51214Y-24042D01*
X51271Y-23973D01*
X51314Y-23895D01*
X51341Y-23810D01*
X51351Y-23721D01*
X51351Y-23714D01*
X51351Y-24710D01*
X51343Y-24621D01*
X51317Y-24535D01*
X51275Y-24456D01*
X51218Y-24387D01*
X51149Y-24330D01*
X51071Y-24288D01*
X50985Y-24261D01*
X50896Y-24252D01*
X50807Y-24260D01*
X50722Y-24285D01*
X50642Y-24327D01*
X50573Y-24383D01*
X50515Y-24451D01*
X50472Y-24529D01*
X50445Y-24615D01*
X50435Y-24703D01*
X50435Y-24710D01*
X50435Y-24714D01*
X50444Y-24803D01*
X50470Y-24889D01*
X50512Y-24968D01*
X50568Y-25037D01*
X50637Y-25094D01*
X50716Y-25137D01*
X50801Y-25163D01*
X50890Y-25172D01*
X50979Y-25164D01*
X51065Y-25139D01*
X51144Y-25098D01*
X51214Y-25042D01*
X51271Y-24973D01*
X51314Y-24895D01*
X51341Y-24810D01*
X51351Y-24721D01*
X51351Y-24714D01*
X51351Y-25710D01*
X51343Y-25621D01*
X51317Y-25535D01*
X51275Y-25456D01*
X51218Y-25387D01*
X51149Y-25330D01*
X51071Y-25288D01*
X50985Y-25261D01*
X50896Y-25252D01*
X50807Y-25260D01*
X50722Y-25285D01*
X50642Y-25327D01*
X50573Y-25383D01*
X50515Y-25451D01*
X50472Y-25529D01*
X50445Y-25615D01*
X50435Y-25703D01*
X50435Y-25710D01*
X50435Y-25714D01*
X50444Y-25803D01*
X50470Y-25889D01*
X50512Y-25968D01*
X50568Y-26037D01*
X50637Y-26094D01*
X50716Y-26137D01*
X50801Y-26163D01*
X50890Y-26172D01*
X50979Y-26164D01*
X51065Y-26139D01*
X51144Y-26098D01*
X51214Y-26042D01*
X51271Y-25973D01*
X51314Y-25895D01*
X51341Y-25810D01*
X51351Y-25721D01*
X51351Y-25714D01*
X51351Y-26710D01*
X51343Y-26621D01*
X51317Y-26535D01*
X51275Y-26456D01*
X51218Y-26387D01*
X51149Y-26330D01*
X51071Y-26288D01*
X50985Y-26261D01*
X50896Y-26252D01*
X50807Y-26260D01*
X50722Y-26285D01*
X50642Y-26327D01*
X50573Y-26383D01*
X50515Y-26451D01*
X50472Y-26529D01*
X50445Y-26615D01*
X50435Y-26703D01*
X50435Y-26710D01*
X50435Y-26714D01*
X50444Y-26803D01*
X50470Y-26889D01*
X50512Y-26968D01*
X50568Y-27037D01*
X50637Y-27094D01*
X50716Y-27137D01*
X50801Y-27163D01*
X50890Y-27172D01*
X50979Y-27164D01*
X51065Y-27139D01*
X51144Y-27098D01*
X51214Y-27042D01*
X51271Y-26973D01*
X51314Y-26895D01*
X51341Y-26810D01*
X51351Y-26721D01*
X51351Y-26714D01*
X51351Y-27710D01*
X51343Y-27621D01*
X51317Y-27535D01*
X51275Y-27456D01*
X51218Y-27387D01*
X51149Y-27330D01*
X51071Y-27288D01*
X50985Y-27261D01*
X50896Y-27252D01*
X50807Y-27260D01*
X50722Y-27285D01*
X50642Y-27327D01*
X50573Y-27383D01*
X50515Y-27451D01*
X50472Y-27529D01*
X50445Y-27615D01*
X50435Y-27703D01*
X50435Y-27710D01*
X50435Y-27714D01*
X50444Y-27803D01*
X50470Y-27889D01*
X50512Y-27968D01*
X50568Y-28037D01*
X50637Y-28094D01*
X50716Y-28137D01*
X50801Y-28163D01*
X50890Y-28172D01*
X50979Y-28164D01*
X51065Y-28139D01*
X51144Y-28098D01*
X51214Y-28042D01*
X51271Y-27973D01*
X51314Y-27895D01*
X51341Y-27810D01*
X51351Y-27721D01*
X51351Y-27714D01*
X51351Y-29950D01*
X51331Y-29963D01*
X51303Y-29990D01*
X51281Y-30022D01*
X51266Y-30058D01*
X51258Y-30096D01*
X51258Y-30134D01*
X51264Y-30172D01*
X51279Y-30208D01*
X51300Y-30240D01*
X51326Y-30268D01*
X51358Y-30290D01*
X51393Y-30306D01*
X51431Y-30314D01*
X51470Y-30315D01*
X51508Y-30308D01*
X51544Y-30294D01*
X51576Y-30273D01*
X51604Y-30247D01*
X51627Y-30215D01*
X51642Y-30180D01*
X51651Y-30142D01*
X51651Y-30098D01*
X51651Y-31531D01*
X51640Y-31537D01*
X51594Y-31574D01*
X51556Y-31620D01*
X51527Y-31673D01*
X51510Y-31729D01*
X51504Y-31789D01*
X51509Y-31848D01*
X51526Y-31905D01*
X51553Y-31958D01*
X51591Y-32004D01*
X51636Y-32043D01*
X51689Y-32071D01*
X51745Y-32089D01*
X51805Y-32096D01*
X51809Y-32096D01*
X51930Y-32096D01*
X51990Y-32090D01*
X52047Y-32073D01*
X52099Y-32045D01*
X52145Y-32007D01*
X52183Y-31961D01*
X52212Y-31909D01*
X52229Y-31852D01*
X52236Y-31793D01*
X52236Y-33326D01*
X52066Y-33326D01*
X52066Y-33171D01*
X52066Y-33147D01*
X52066Y-32537D01*
X52062Y-32514D01*
X52053Y-32493D01*
X52040Y-32473D01*
X52024Y-32457D01*
X52004Y-32444D01*
X51983Y-32435D01*
X51960Y-32431D01*
X51937Y-32431D01*
X51149Y-32431D01*
X51126Y-32435D01*
X51105Y-32444D01*
X51086Y-32457D01*
X51069Y-32473D01*
X51056Y-32493D01*
X51047Y-32514D01*
X51043Y-32537D01*
X51043Y-32560D01*
X51043Y-33171D01*
X51047Y-33193D01*
X51056Y-33215D01*
X51069Y-33234D01*
X51086Y-33251D01*
X51105Y-33264D01*
X51126Y-33273D01*
X51149Y-33277D01*
X51173Y-33277D01*
X51960Y-33277D01*
X51983Y-33273D01*
X52004Y-33264D01*
X52024Y-33251D01*
X52040Y-33234D01*
X52053Y-33215D01*
X52062Y-33193D01*
X52066Y-33171D01*
X52066Y-33326D01*
X50570Y-33326D01*
X50570Y-30942D01*
X50563Y-30904D01*
X50548Y-30868D01*
X50527Y-30836D01*
X50500Y-30809D01*
X50468Y-30787D01*
X50432Y-30772D01*
X50394Y-30765D01*
X50356Y-30764D01*
X50351Y-30765D01*
X50351Y-28714D01*
X50351Y-28710D01*
X50351Y-27714D01*
X50351Y-27710D01*
X50351Y-26714D01*
X50351Y-26710D01*
X50351Y-25714D01*
X50351Y-25710D01*
X50351Y-24714D01*
X50351Y-24710D01*
X50351Y-23714D01*
X50351Y-23710D01*
X50351Y-22714D01*
X50351Y-22710D01*
X50351Y-21714D01*
X50351Y-21710D01*
X50351Y-20714D01*
X50351Y-20710D01*
X50351Y-19714D01*
X50351Y-19710D01*
X50351Y-18537D01*
X50351Y-18533D01*
X50351Y-17537D01*
X50351Y-17533D01*
X50351Y-16537D01*
X50351Y-16533D01*
X50351Y-15537D01*
X50351Y-15533D01*
X50351Y-14537D01*
X50351Y-14533D01*
X50343Y-14444D01*
X50317Y-14358D01*
X50275Y-14279D01*
X50218Y-14210D01*
X50149Y-14153D01*
X50071Y-14110D01*
X49985Y-14084D01*
X49896Y-14075D01*
X49807Y-14083D01*
X49722Y-14108D01*
X49642Y-14149D01*
X49573Y-14205D01*
X49515Y-14274D01*
X49472Y-14352D01*
X49445Y-14437D01*
X49435Y-14526D01*
X49435Y-14533D01*
X49435Y-14537D01*
X49444Y-14626D01*
X49470Y-14712D01*
X49512Y-14791D01*
X49568Y-14860D01*
X49637Y-14917D01*
X49716Y-14959D01*
X49801Y-14986D01*
X49890Y-14995D01*
X49979Y-14987D01*
X50065Y-14962D01*
X50144Y-14920D01*
X50214Y-14864D01*
X50271Y-14796D01*
X50314Y-14718D01*
X50341Y-14632D01*
X50351Y-14544D01*
X50351Y-14537D01*
X50351Y-15533D01*
X50343Y-15444D01*
X50317Y-15358D01*
X50275Y-15279D01*
X50218Y-15210D01*
X50149Y-15153D01*
X50071Y-15110D01*
X49985Y-15084D01*
X49896Y-15075D01*
X49807Y-15083D01*
X49722Y-15108D01*
X49642Y-15149D01*
X49573Y-15205D01*
X49515Y-15274D01*
X49472Y-15352D01*
X49445Y-15437D01*
X49435Y-15526D01*
X49435Y-15533D01*
X49435Y-15537D01*
X49444Y-15626D01*
X49470Y-15712D01*
X49512Y-15791D01*
X49568Y-15860D01*
X49637Y-15917D01*
X49716Y-15959D01*
X49801Y-15986D01*
X49890Y-15995D01*
X49979Y-15987D01*
X50065Y-15962D01*
X50144Y-15920D01*
X50214Y-15864D01*
X50271Y-15796D01*
X50314Y-15718D01*
X50341Y-15632D01*
X50351Y-15544D01*
X50351Y-15537D01*
X50351Y-16533D01*
X50343Y-16444D01*
X50317Y-16358D01*
X50275Y-16279D01*
X50218Y-16210D01*
X50149Y-16153D01*
X50071Y-16110D01*
X49985Y-16084D01*
X49896Y-16075D01*
X49807Y-16083D01*
X49722Y-16108D01*
X49642Y-16149D01*
X49573Y-16205D01*
X49515Y-16274D01*
X49472Y-16352D01*
X49445Y-16437D01*
X49435Y-16526D01*
X49435Y-16533D01*
X49435Y-16537D01*
X49444Y-16626D01*
X49470Y-16712D01*
X49512Y-16791D01*
X49568Y-16860D01*
X49637Y-16917D01*
X49716Y-16959D01*
X49801Y-16986D01*
X49890Y-16995D01*
X49979Y-16987D01*
X50065Y-16962D01*
X50144Y-16920D01*
X50214Y-16864D01*
X50271Y-16796D01*
X50314Y-16718D01*
X50341Y-16632D01*
X50351Y-16544D01*
X50351Y-16537D01*
X50351Y-17533D01*
X50343Y-17444D01*
X50317Y-17358D01*
X50275Y-17279D01*
X50218Y-17210D01*
X50149Y-17153D01*
X50071Y-17110D01*
X49985Y-17084D01*
X49896Y-17075D01*
X49807Y-17083D01*
X49722Y-17108D01*
X49642Y-17149D01*
X49573Y-17205D01*
X49515Y-17274D01*
X49472Y-17352D01*
X49445Y-17437D01*
X49435Y-17526D01*
X49435Y-17533D01*
X49435Y-17537D01*
X49444Y-17626D01*
X49470Y-17712D01*
X49512Y-17791D01*
X49568Y-17860D01*
X49637Y-17917D01*
X49716Y-17959D01*
X49801Y-17986D01*
X49890Y-17995D01*
X49979Y-17987D01*
X50065Y-17962D01*
X50144Y-17920D01*
X50214Y-17864D01*
X50271Y-17796D01*
X50314Y-17718D01*
X50341Y-17632D01*
X50351Y-17544D01*
X50351Y-17537D01*
X50351Y-18533D01*
X50343Y-18444D01*
X50317Y-18358D01*
X50275Y-18279D01*
X50218Y-18210D01*
X50149Y-18153D01*
X50071Y-18110D01*
X49985Y-18084D01*
X49896Y-18075D01*
X49807Y-18083D01*
X49722Y-18108D01*
X49642Y-18149D01*
X49573Y-18205D01*
X49515Y-18274D01*
X49472Y-18352D01*
X49445Y-18437D01*
X49435Y-18526D01*
X49435Y-18533D01*
X49435Y-18537D01*
X49444Y-18626D01*
X49470Y-18712D01*
X49512Y-18791D01*
X49568Y-18860D01*
X49637Y-18917D01*
X49716Y-18959D01*
X49801Y-18986D01*
X49890Y-18995D01*
X49979Y-18987D01*
X50065Y-18962D01*
X50144Y-18920D01*
X50214Y-18864D01*
X50271Y-18796D01*
X50314Y-18718D01*
X50341Y-18632D01*
X50351Y-18544D01*
X50351Y-18537D01*
X50351Y-19710D01*
X50343Y-19621D01*
X50317Y-19535D01*
X50275Y-19456D01*
X50218Y-19387D01*
X50149Y-19330D01*
X50071Y-19288D01*
X49985Y-19261D01*
X49896Y-19252D01*
X49807Y-19260D01*
X49722Y-19285D01*
X49642Y-19327D01*
X49573Y-19383D01*
X49515Y-19451D01*
X49472Y-19529D01*
X49445Y-19615D01*
X49435Y-19703D01*
X49435Y-19710D01*
X49435Y-19714D01*
X49444Y-19803D01*
X49470Y-19889D01*
X49512Y-19968D01*
X49568Y-20037D01*
X49637Y-20094D01*
X49716Y-20137D01*
X49801Y-20163D01*
X49890Y-20172D01*
X49979Y-20164D01*
X50065Y-20139D01*
X50144Y-20098D01*
X50214Y-20042D01*
X50271Y-19973D01*
X50314Y-19895D01*
X50341Y-19810D01*
X50351Y-19721D01*
X50351Y-19714D01*
X50351Y-20710D01*
X50343Y-20621D01*
X50317Y-20535D01*
X50275Y-20456D01*
X50218Y-20387D01*
X50149Y-20330D01*
X50071Y-20288D01*
X49985Y-20261D01*
X49896Y-20252D01*
X49807Y-20260D01*
X49722Y-20285D01*
X49642Y-20327D01*
X49573Y-20383D01*
X49515Y-20451D01*
X49472Y-20529D01*
X49445Y-20615D01*
X49435Y-20703D01*
X49435Y-20710D01*
X49435Y-20714D01*
X49444Y-20803D01*
X49470Y-20889D01*
X49512Y-20968D01*
X49568Y-21037D01*
X49637Y-21094D01*
X49716Y-21137D01*
X49801Y-21163D01*
X49890Y-21172D01*
X49979Y-21164D01*
X50065Y-21139D01*
X50144Y-21098D01*
X50214Y-21042D01*
X50271Y-20973D01*
X50314Y-20895D01*
X50341Y-20810D01*
X50351Y-20721D01*
X50351Y-20714D01*
X50351Y-21710D01*
X50343Y-21621D01*
X50317Y-21535D01*
X50275Y-21456D01*
X50218Y-21387D01*
X50149Y-21330D01*
X50071Y-21288D01*
X49985Y-21261D01*
X49896Y-21252D01*
X49807Y-21260D01*
X49722Y-21285D01*
X49642Y-21327D01*
X49573Y-21383D01*
X49515Y-21451D01*
X49472Y-21529D01*
X49445Y-21615D01*
X49435Y-21703D01*
X49435Y-21710D01*
X49435Y-21714D01*
X49444Y-21803D01*
X49470Y-21889D01*
X49512Y-21968D01*
X49568Y-22037D01*
X49637Y-22094D01*
X49716Y-22137D01*
X49801Y-22163D01*
X49890Y-22172D01*
X49979Y-22164D01*
X50065Y-22139D01*
X50144Y-22098D01*
X50214Y-22042D01*
X50271Y-21973D01*
X50314Y-21895D01*
X50341Y-21810D01*
X50351Y-21721D01*
X50351Y-21714D01*
X50351Y-22710D01*
X50343Y-22621D01*
X50317Y-22535D01*
X50275Y-22456D01*
X50218Y-22387D01*
X50149Y-22330D01*
X50071Y-22288D01*
X49985Y-22261D01*
X49896Y-22252D01*
X49807Y-22260D01*
X49722Y-22285D01*
X49642Y-22327D01*
X49573Y-22383D01*
X49515Y-22451D01*
X49472Y-22529D01*
X49445Y-22615D01*
X49435Y-22703D01*
X49435Y-22710D01*
X49435Y-22714D01*
X49444Y-22803D01*
X49470Y-22889D01*
X49512Y-22968D01*
X49568Y-23037D01*
X49637Y-23094D01*
X49716Y-23137D01*
X49801Y-23163D01*
X49890Y-23172D01*
X49979Y-23164D01*
X50065Y-23139D01*
X50144Y-23098D01*
X50214Y-23042D01*
X50271Y-22973D01*
X50314Y-22895D01*
X50341Y-22810D01*
X50351Y-22721D01*
X50351Y-22714D01*
X50351Y-23710D01*
X50343Y-23621D01*
X50317Y-23535D01*
X50275Y-23456D01*
X50218Y-23387D01*
X50149Y-23330D01*
X50071Y-23288D01*
X49985Y-23261D01*
X49896Y-23252D01*
X49807Y-23260D01*
X49722Y-23285D01*
X49642Y-23327D01*
X49573Y-23383D01*
X49515Y-23451D01*
X49472Y-23529D01*
X49445Y-23615D01*
X49435Y-23703D01*
X49435Y-23710D01*
X49435Y-23714D01*
X49444Y-23803D01*
X49470Y-23889D01*
X49512Y-23968D01*
X49568Y-24037D01*
X49637Y-24094D01*
X49716Y-24137D01*
X49801Y-24163D01*
X49890Y-24172D01*
X49979Y-24164D01*
X50065Y-24139D01*
X50144Y-24098D01*
X50214Y-24042D01*
X50271Y-23973D01*
X50314Y-23895D01*
X50341Y-23810D01*
X50351Y-23721D01*
X50351Y-23714D01*
X50351Y-24710D01*
X50343Y-24621D01*
X50317Y-24535D01*
X50275Y-24456D01*
X50218Y-24387D01*
X50149Y-24330D01*
X50071Y-24288D01*
X49985Y-24261D01*
X49896Y-24252D01*
X49807Y-24260D01*
X49722Y-24285D01*
X49642Y-24327D01*
X49573Y-24383D01*
X49515Y-24451D01*
X49472Y-24529D01*
X49445Y-24615D01*
X49435Y-24703D01*
X49435Y-24710D01*
X49435Y-24714D01*
X49444Y-24803D01*
X49470Y-24889D01*
X49512Y-24968D01*
X49568Y-25037D01*
X49637Y-25094D01*
X49716Y-25137D01*
X49801Y-25163D01*
X49890Y-25172D01*
X49979Y-25164D01*
X50065Y-25139D01*
X50144Y-25098D01*
X50214Y-25042D01*
X50271Y-24973D01*
X50314Y-24895D01*
X50341Y-24810D01*
X50351Y-24721D01*
X50351Y-24714D01*
X50351Y-25710D01*
X50343Y-25621D01*
X50317Y-25535D01*
X50275Y-25456D01*
X50218Y-25387D01*
X50149Y-25330D01*
X50071Y-25288D01*
X49985Y-25261D01*
X49896Y-25252D01*
X49807Y-25260D01*
X49722Y-25285D01*
X49642Y-25327D01*
X49573Y-25383D01*
X49515Y-25451D01*
X49472Y-25529D01*
X49445Y-25615D01*
X49435Y-25703D01*
X49435Y-25710D01*
X49435Y-25714D01*
X49444Y-25803D01*
X49470Y-25889D01*
X49512Y-25968D01*
X49568Y-26037D01*
X49637Y-26094D01*
X49716Y-26137D01*
X49801Y-26163D01*
X49890Y-26172D01*
X49979Y-26164D01*
X50065Y-26139D01*
X50144Y-26098D01*
X50214Y-26042D01*
X50271Y-25973D01*
X50314Y-25895D01*
X50341Y-25810D01*
X50351Y-25721D01*
X50351Y-25714D01*
X50351Y-26710D01*
X50343Y-26621D01*
X50317Y-26535D01*
X50275Y-26456D01*
X50218Y-26387D01*
X50149Y-26330D01*
X50071Y-26288D01*
X49985Y-26261D01*
X49896Y-26252D01*
X49807Y-26260D01*
X49722Y-26285D01*
X49642Y-26327D01*
X49573Y-26383D01*
X49515Y-26451D01*
X49472Y-26529D01*
X49445Y-26615D01*
X49435Y-26703D01*
X49435Y-26710D01*
X49435Y-26714D01*
X49444Y-26803D01*
X49470Y-26889D01*
X49512Y-26968D01*
X49568Y-27037D01*
X49637Y-27094D01*
X49716Y-27137D01*
X49801Y-27163D01*
X49890Y-27172D01*
X49979Y-27164D01*
X50065Y-27139D01*
X50144Y-27098D01*
X50214Y-27042D01*
X50271Y-26973D01*
X50314Y-26895D01*
X50341Y-26810D01*
X50351Y-26721D01*
X50351Y-26714D01*
X50351Y-27710D01*
X50343Y-27621D01*
X50317Y-27535D01*
X50275Y-27456D01*
X50218Y-27387D01*
X50149Y-27330D01*
X50071Y-27288D01*
X49985Y-27261D01*
X49896Y-27252D01*
X49807Y-27260D01*
X49722Y-27285D01*
X49642Y-27327D01*
X49573Y-27383D01*
X49515Y-27451D01*
X49472Y-27529D01*
X49445Y-27615D01*
X49435Y-27703D01*
X49435Y-27710D01*
X49435Y-27714D01*
X49444Y-27803D01*
X49470Y-27889D01*
X49512Y-27968D01*
X49568Y-28037D01*
X49637Y-28094D01*
X49716Y-28137D01*
X49801Y-28163D01*
X49890Y-28172D01*
X49979Y-28164D01*
X50065Y-28139D01*
X50144Y-28098D01*
X50214Y-28042D01*
X50271Y-27973D01*
X50314Y-27895D01*
X50341Y-27810D01*
X50351Y-27721D01*
X50351Y-27714D01*
X50351Y-28710D01*
X50343Y-28621D01*
X50317Y-28535D01*
X50275Y-28456D01*
X50218Y-28387D01*
X50149Y-28330D01*
X50071Y-28288D01*
X49985Y-28261D01*
X49896Y-28252D01*
X49807Y-28260D01*
X49722Y-28285D01*
X49642Y-28327D01*
X49573Y-28383D01*
X49515Y-28451D01*
X49472Y-28529D01*
X49445Y-28615D01*
X49435Y-28703D01*
X49435Y-28710D01*
X49435Y-28714D01*
X49444Y-28803D01*
X49470Y-28889D01*
X49512Y-28968D01*
X49568Y-29037D01*
X49637Y-29094D01*
X49716Y-29137D01*
X49801Y-29163D01*
X49890Y-29172D01*
X49979Y-29164D01*
X50065Y-29139D01*
X50144Y-29098D01*
X50214Y-29042D01*
X50271Y-28973D01*
X50314Y-28895D01*
X50341Y-28810D01*
X50351Y-28721D01*
X50351Y-28714D01*
X50351Y-30765D01*
X50318Y-30771D01*
X50282Y-30786D01*
X50250Y-30807D01*
X50222Y-30834D01*
X50200Y-30866D01*
X50185Y-30901D01*
X50177Y-30939D01*
X50176Y-30978D01*
X50183Y-31016D01*
X50198Y-31052D01*
X50218Y-31084D01*
X50245Y-31112D01*
X50277Y-31134D01*
X50312Y-31149D01*
X50350Y-31158D01*
X50389Y-31158D01*
X50427Y-31152D01*
X50463Y-31138D01*
X50495Y-31117D01*
X50523Y-31090D01*
X50546Y-31059D01*
X50561Y-31024D01*
X50570Y-30986D01*
X50570Y-30942D01*
X50570Y-33326D01*
X50419Y-33326D01*
X50419Y-32195D01*
X50419Y-32171D01*
X50419Y-31371D01*
X50415Y-31349D01*
X50406Y-31327D01*
X50393Y-31308D01*
X50376Y-31291D01*
X50357Y-31278D01*
X50336Y-31269D01*
X50313Y-31265D01*
X50289Y-31265D01*
X49489Y-31265D01*
X49467Y-31269D01*
X49445Y-31278D01*
X49426Y-31291D01*
X49409Y-31308D01*
X49396Y-31327D01*
X49388Y-31349D01*
X49383Y-31371D01*
X49383Y-31395D01*
X49383Y-32195D01*
X49388Y-32217D01*
X49396Y-32239D01*
X49409Y-32258D01*
X49426Y-32275D01*
X49445Y-32288D01*
X49467Y-32297D01*
X49489Y-32301D01*
X49513Y-32301D01*
X50313Y-32301D01*
X50336Y-32297D01*
X50357Y-32288D01*
X50376Y-32275D01*
X50393Y-32258D01*
X50406Y-32239D01*
X50415Y-32217D01*
X50419Y-32195D01*
X50419Y-33326D01*
X49350Y-33326D01*
X49350Y-13917D01*
X68759Y-13917D01*
X68759Y-33326D01*
M02*
