%FSLAX34Y34*%
G04 Gerber Fmt 3.4, Leading zero omitted, Abs format*
G04 (created by PCBNEW (2014-06-12 BZR 4942)-product) date Mon 23 Jun 2014 09:03:34 AM PDT*
%MOIN*%
G01*
G70*
G90*
G04 APERTURE LIST*
%ADD10C,0.003937*%
%ADD11R,0.068000X0.068000*%
%ADD12O,0.068000X0.068000*%
%ADD13O,0.049213X0.037402*%
%ADD14R,0.080000X0.080000*%
%ADD15O,0.080000X0.080000*%
%ADD16C,0.015748*%
%ADD17C,0.039370*%
%ADD18C,0.019685*%
%ADD19C,0.007874*%
G04 APERTURE END LIST*
G54D10*
G54D11*
X50893Y-28712D03*
G54D12*
X49893Y-28712D03*
X50893Y-27712D03*
X49893Y-27712D03*
X50893Y-26712D03*
X49893Y-26712D03*
X50893Y-25712D03*
X49893Y-25712D03*
X50893Y-24712D03*
X49893Y-24712D03*
X50893Y-23712D03*
X49893Y-23712D03*
X50893Y-22712D03*
X49893Y-22712D03*
X50893Y-21712D03*
X49893Y-21712D03*
X50893Y-20712D03*
X49893Y-20712D03*
X50893Y-19712D03*
X49893Y-19712D03*
G54D13*
X51870Y-31791D03*
X53838Y-31791D03*
G54D10*
G36*
X51948Y-32549D02*
X51948Y-33159D01*
X51161Y-33159D01*
X51161Y-32549D01*
X51948Y-32549D01*
X51948Y-32549D01*
G37*
G36*
X54547Y-32549D02*
X54547Y-33159D01*
X53759Y-33159D01*
X53759Y-32549D01*
X54547Y-32549D01*
X54547Y-32549D01*
G37*
G54D11*
X50893Y-18535D03*
G54D12*
X49893Y-18535D03*
X50893Y-17535D03*
X49893Y-17535D03*
X50893Y-16535D03*
X49893Y-16535D03*
X50893Y-15535D03*
X49893Y-15535D03*
X50893Y-14535D03*
X49893Y-14535D03*
G54D14*
X49901Y-31783D03*
G54D15*
X49901Y-32783D03*
G54D14*
X55224Y-14566D03*
G54D15*
X54224Y-14566D03*
G54D16*
X456523Y-21914D03*
G54D17*
X67401Y-22577D03*
G54D16*
X67086Y-21417D03*
G54D18*
X66349Y-29777D03*
G54D17*
X55059Y-29606D03*
G54D16*
X57942Y-20098D03*
X58769Y-19124D03*
X57145Y-19891D03*
X57135Y-19891D03*
X65570Y-27775D03*
X59448Y-16161D03*
X63799Y-14340D03*
X59832Y-14370D03*
X61079Y-14418D03*
X64590Y-22973D03*
X64590Y-22624D03*
X64590Y-22267D03*
X64590Y-21914D03*
X64590Y-21561D03*
X64590Y-21208D03*
X64590Y-20854D03*
X64236Y-22973D03*
X64236Y-22624D03*
X64236Y-22267D03*
X64236Y-21914D03*
X64236Y-21561D03*
X64236Y-21208D03*
X64236Y-20854D03*
X63881Y-22973D03*
X63881Y-22624D03*
X63881Y-22267D03*
X63881Y-21914D03*
X63881Y-21561D03*
X63881Y-21208D03*
X63881Y-20854D03*
X63527Y-22973D03*
X63527Y-22624D03*
X63527Y-22267D03*
X63527Y-21914D03*
X63527Y-21561D03*
X63527Y-21208D03*
X63527Y-20854D03*
X63177Y-22973D03*
X63177Y-22624D03*
X63177Y-22267D03*
X63177Y-21914D03*
X63177Y-21561D03*
X63177Y-21208D03*
X63177Y-20854D03*
X62822Y-22973D03*
X62822Y-22624D03*
X62822Y-22267D03*
X62822Y-21914D03*
X62822Y-21561D03*
X62822Y-21208D03*
X62822Y-20854D03*
X62468Y-22973D03*
X62468Y-22624D03*
X62468Y-22267D03*
X62468Y-21914D03*
X62468Y-21561D03*
X62468Y-21208D03*
X62468Y-20854D03*
X66421Y-31244D03*
X49606Y-30875D03*
X53439Y-31374D03*
X61879Y-17324D03*
X62579Y-14412D03*
X66579Y-14406D03*
X59055Y-15754D03*
X53934Y-30051D03*
X65009Y-30814D03*
X65517Y-18778D03*
X66146Y-19441D03*
X56102Y-26108D03*
X57377Y-22603D03*
X54889Y-30083D03*
X58329Y-15508D03*
X60303Y-16405D03*
X67836Y-23103D03*
X55643Y-20005D03*
X63945Y-16573D03*
X64025Y-21476D03*
X65718Y-22726D03*
X66245Y-22597D03*
X67421Y-29143D03*
X59124Y-19433D03*
X61424Y-18885D03*
X63900Y-28400D03*
X55900Y-28600D03*
X63818Y-18870D03*
X58291Y-16225D03*
X55980Y-18578D03*
X54889Y-17507D03*
X53275Y-24405D03*
X53370Y-21653D03*
X53311Y-23165D03*
X53413Y-22255D03*
X53228Y-27614D03*
X53275Y-26822D03*
X53177Y-26326D03*
X53295Y-25629D03*
X53276Y-25022D03*
X53460Y-20681D03*
X55512Y-22845D03*
X56221Y-22621D03*
X55366Y-25625D03*
X53098Y-19856D03*
X53086Y-17494D03*
X53173Y-17011D03*
X53228Y-16397D03*
X53173Y-15929D03*
X53192Y-15551D03*
X53362Y-14346D03*
X51429Y-15157D03*
X51527Y-15814D03*
X51507Y-16661D03*
X51500Y-17172D03*
X51437Y-17720D03*
X53354Y-19377D03*
X51637Y-20283D03*
X53701Y-16909D03*
X54346Y-16311D03*
X55106Y-16299D03*
X55693Y-17855D03*
X55283Y-17471D03*
X54736Y-19789D03*
X63900Y-26400D03*
X65598Y-26275D03*
X66149Y-26015D03*
X65019Y-26188D03*
X64830Y-24834D03*
X64074Y-24566D03*
X66413Y-25732D03*
X64960Y-28393D03*
X57586Y-15622D03*
X66448Y-16881D03*
X54078Y-20804D03*
G54D17*
X66157Y-20201D03*
G54D16*
X61751Y-20226D03*
X63224Y-24000D03*
X62244Y-24000D03*
X66033Y-22303D03*
X65668Y-21629D03*
X62850Y-24244D03*
X63023Y-24469D03*
X63838Y-24015D03*
X61741Y-24271D03*
X61210Y-23739D03*
X65462Y-28946D03*
G54D17*
X51850Y-29921D03*
G54D16*
X64222Y-24000D03*
X65157Y-24200D03*
X61240Y-19005D03*
X64262Y-17426D03*
X61901Y-19565D03*
X65226Y-16913D03*
X61838Y-19355D03*
X64855Y-17083D03*
X61594Y-19025D03*
X64573Y-17003D03*
X61793Y-18864D03*
X63731Y-17359D03*
X55913Y-15647D03*
X58094Y-16582D03*
X60703Y-20783D03*
X61055Y-22574D03*
X60846Y-16386D03*
X60671Y-15693D03*
X56590Y-14420D03*
X60329Y-15496D03*
X59891Y-16568D03*
X59155Y-15525D03*
X54500Y-15400D03*
X58403Y-17191D03*
X53200Y-17300D03*
X55991Y-17261D03*
X53300Y-16800D03*
X57825Y-17415D03*
X53479Y-15024D03*
X58082Y-17409D03*
X61305Y-19669D03*
X59389Y-19606D03*
X56653Y-15476D03*
X57596Y-18649D03*
X56230Y-17275D03*
X57113Y-18109D03*
X53221Y-18125D03*
X53244Y-18680D03*
X55467Y-19650D03*
X64313Y-16993D03*
X53739Y-19853D03*
X64516Y-16264D03*
X56066Y-19289D03*
X64132Y-16288D03*
X52388Y-14880D03*
X64072Y-15496D03*
X59596Y-19025D03*
X55582Y-23532D03*
X57284Y-23241D03*
X63303Y-17356D03*
X63048Y-16436D03*
X56059Y-17783D03*
X59862Y-15649D03*
X62600Y-15500D03*
X53426Y-24864D03*
X54410Y-20460D03*
X62289Y-16652D03*
X55102Y-19259D03*
X55067Y-25489D03*
X56545Y-25191D03*
X52388Y-25565D03*
X56753Y-20206D03*
X58038Y-19241D03*
X60698Y-18637D03*
X53289Y-22521D03*
X53289Y-22007D03*
X55276Y-19072D03*
X55097Y-17751D03*
X53300Y-21430D03*
G54D17*
X58238Y-26555D03*
X58300Y-27100D03*
X57588Y-24468D03*
G54D16*
X55826Y-21151D03*
G54D19*
G36*
X68759Y-33326D02*
X68218Y-33326D01*
X68218Y-29763D01*
X68218Y-25505D01*
X67976Y-25263D01*
X67976Y-16493D01*
X67960Y-16412D01*
X67928Y-16335D01*
X67882Y-16266D01*
X67824Y-16207D01*
X67755Y-16161D01*
X67678Y-16129D01*
X67597Y-16112D01*
X67514Y-16111D01*
X67433Y-16127D01*
X67356Y-16158D01*
X67286Y-16203D01*
X67227Y-16262D01*
X67180Y-16330D01*
X67147Y-16406D01*
X67130Y-16488D01*
X67129Y-16571D01*
X67144Y-16652D01*
X67174Y-16729D01*
X67219Y-16799D01*
X67277Y-16859D01*
X67345Y-16906D01*
X67421Y-16939D01*
X67502Y-16957D01*
X67585Y-16959D01*
X67667Y-16945D01*
X67744Y-16915D01*
X67814Y-16870D01*
X67875Y-16813D01*
X67922Y-16745D01*
X67956Y-16669D01*
X67975Y-16588D01*
X67976Y-16493D01*
X67976Y-25263D01*
X67716Y-25003D01*
X67716Y-22546D01*
X67704Y-22486D01*
X67681Y-22428D01*
X67646Y-22377D01*
X67603Y-22333D01*
X67552Y-22299D01*
X67495Y-22275D01*
X67434Y-22262D01*
X67372Y-22262D01*
X67312Y-22273D01*
X67283Y-22285D01*
X67283Y-21398D01*
X67275Y-21360D01*
X67261Y-21324D01*
X67239Y-21292D01*
X67212Y-21264D01*
X67180Y-21243D01*
X67145Y-21228D01*
X67107Y-21220D01*
X67068Y-21220D01*
X67030Y-21227D01*
X66994Y-21242D01*
X66962Y-21263D01*
X66935Y-21290D01*
X66913Y-21322D01*
X66898Y-21357D01*
X66890Y-21395D01*
X66889Y-21433D01*
X66896Y-21471D01*
X66910Y-21507D01*
X66931Y-21540D01*
X66958Y-21567D01*
X66990Y-21589D01*
X67025Y-21605D01*
X67063Y-21613D01*
X67101Y-21614D01*
X67139Y-21607D01*
X67175Y-21593D01*
X67208Y-21573D01*
X67236Y-21546D01*
X67258Y-21515D01*
X67274Y-21479D01*
X67282Y-21442D01*
X67283Y-21398D01*
X67283Y-22285D01*
X67254Y-22297D01*
X67203Y-22330D01*
X67159Y-22374D01*
X67124Y-22425D01*
X67099Y-22481D01*
X67087Y-22542D01*
X67086Y-22603D01*
X67097Y-22664D01*
X67120Y-22722D01*
X67153Y-22774D01*
X67196Y-22818D01*
X67247Y-22853D01*
X67303Y-22878D01*
X67364Y-22891D01*
X67425Y-22893D01*
X67486Y-22882D01*
X67544Y-22859D01*
X67596Y-22826D01*
X67641Y-22784D01*
X67676Y-22733D01*
X67701Y-22677D01*
X67715Y-22617D01*
X67716Y-22546D01*
X67716Y-25003D01*
X67401Y-24688D01*
X67401Y-23690D01*
X67224Y-23690D01*
X67214Y-24790D01*
X68031Y-25587D01*
X68031Y-29576D01*
X66472Y-29582D01*
X66472Y-20170D01*
X66460Y-20109D01*
X66436Y-20052D01*
X66402Y-20001D01*
X66359Y-19957D01*
X66308Y-19922D01*
X66251Y-19898D01*
X66190Y-19886D01*
X66128Y-19885D01*
X66068Y-19897D01*
X66010Y-19920D01*
X65959Y-19954D01*
X65915Y-19997D01*
X65880Y-20048D01*
X65855Y-20105D01*
X65842Y-20165D01*
X65842Y-20227D01*
X65853Y-20288D01*
X65875Y-20345D01*
X65909Y-20397D01*
X65952Y-20442D01*
X66003Y-20477D01*
X66059Y-20502D01*
X66120Y-20515D01*
X66181Y-20516D01*
X66242Y-20506D01*
X66300Y-20483D01*
X66352Y-20450D01*
X66397Y-20407D01*
X66432Y-20357D01*
X66457Y-20301D01*
X66471Y-20240D01*
X66472Y-20170D01*
X66472Y-29582D01*
X66445Y-29583D01*
X66413Y-29569D01*
X66372Y-29561D01*
X66329Y-29560D01*
X66287Y-29568D01*
X66251Y-29583D01*
X66230Y-29583D01*
X66230Y-22283D01*
X66222Y-22245D01*
X66208Y-22210D01*
X66186Y-22178D01*
X66159Y-22150D01*
X66127Y-22129D01*
X66091Y-22114D01*
X66054Y-22106D01*
X66015Y-22106D01*
X65977Y-22113D01*
X65941Y-22127D01*
X65909Y-22148D01*
X65881Y-22176D01*
X65864Y-22200D01*
X65864Y-21609D01*
X65857Y-21571D01*
X65842Y-21536D01*
X65821Y-21504D01*
X65794Y-21476D01*
X65762Y-21455D01*
X65726Y-21440D01*
X65688Y-21432D01*
X65650Y-21432D01*
X65612Y-21439D01*
X65576Y-21453D01*
X65544Y-21474D01*
X65516Y-21501D01*
X65494Y-21533D01*
X65479Y-21569D01*
X65471Y-21607D01*
X65471Y-21645D01*
X65477Y-21683D01*
X65492Y-21719D01*
X65513Y-21751D01*
X65539Y-21779D01*
X65571Y-21801D01*
X65606Y-21817D01*
X65644Y-21825D01*
X65683Y-21826D01*
X65721Y-21819D01*
X65757Y-21805D01*
X65789Y-21785D01*
X65817Y-21758D01*
X65840Y-21726D01*
X65855Y-21691D01*
X65864Y-21653D01*
X65864Y-21609D01*
X65864Y-22200D01*
X65860Y-22207D01*
X65844Y-22243D01*
X65836Y-22281D01*
X65836Y-22319D01*
X65843Y-22357D01*
X65857Y-22393D01*
X65878Y-22426D01*
X65905Y-22453D01*
X65936Y-22475D01*
X65972Y-22491D01*
X66010Y-22499D01*
X66048Y-22500D01*
X66086Y-22493D01*
X66122Y-22479D01*
X66155Y-22459D01*
X66183Y-22432D01*
X66205Y-22400D01*
X66221Y-22365D01*
X66229Y-22327D01*
X66230Y-22283D01*
X66230Y-29583D01*
X65659Y-29586D01*
X65659Y-28927D01*
X65651Y-28889D01*
X65637Y-28853D01*
X65615Y-28821D01*
X65588Y-28794D01*
X65556Y-28772D01*
X65521Y-28757D01*
X65483Y-28750D01*
X65444Y-28749D01*
X65423Y-28753D01*
X65423Y-16894D01*
X65415Y-16856D01*
X65401Y-16821D01*
X65379Y-16788D01*
X65352Y-16761D01*
X65320Y-16739D01*
X65284Y-16724D01*
X65247Y-16717D01*
X65208Y-16716D01*
X65170Y-16724D01*
X65134Y-16738D01*
X65102Y-16759D01*
X65074Y-16786D01*
X65053Y-16818D01*
X65037Y-16854D01*
X65029Y-16891D01*
X65029Y-16930D01*
X65036Y-16968D01*
X65050Y-17004D01*
X65071Y-17036D01*
X65098Y-17064D01*
X65129Y-17086D01*
X65165Y-17102D01*
X65202Y-17110D01*
X65241Y-17111D01*
X65279Y-17104D01*
X65315Y-17090D01*
X65348Y-17069D01*
X65376Y-17043D01*
X65398Y-17011D01*
X65414Y-16976D01*
X65422Y-16938D01*
X65423Y-16894D01*
X65423Y-28753D01*
X65406Y-28757D01*
X65370Y-28771D01*
X65354Y-28782D01*
X65354Y-24181D01*
X65346Y-24143D01*
X65332Y-24107D01*
X65310Y-24075D01*
X65283Y-24048D01*
X65251Y-24026D01*
X65215Y-24011D01*
X65178Y-24004D01*
X65139Y-24003D01*
X65101Y-24011D01*
X65065Y-24025D01*
X65052Y-24034D01*
X65052Y-17063D01*
X65045Y-17025D01*
X65030Y-16990D01*
X65009Y-16958D01*
X64981Y-16930D01*
X64949Y-16909D01*
X64914Y-16894D01*
X64876Y-16886D01*
X64837Y-16886D01*
X64800Y-16893D01*
X64764Y-16907D01*
X64750Y-16916D01*
X64748Y-16910D01*
X64726Y-16878D01*
X64713Y-16864D01*
X64713Y-16245D01*
X64705Y-16207D01*
X64691Y-16171D01*
X64669Y-16139D01*
X64642Y-16112D01*
X64610Y-16090D01*
X64575Y-16075D01*
X64537Y-16068D01*
X64498Y-16067D01*
X64460Y-16075D01*
X64424Y-16089D01*
X64392Y-16110D01*
X64365Y-16137D01*
X64343Y-16169D01*
X64327Y-16204D01*
X64322Y-16232D01*
X64322Y-16231D01*
X64307Y-16195D01*
X64285Y-16163D01*
X64269Y-16146D01*
X64269Y-15477D01*
X64261Y-15439D01*
X64247Y-15403D01*
X64225Y-15371D01*
X64198Y-15344D01*
X64166Y-15322D01*
X64130Y-15307D01*
X64093Y-15300D01*
X64054Y-15299D01*
X64016Y-15307D01*
X63980Y-15321D01*
X63948Y-15342D01*
X63920Y-15369D01*
X63899Y-15401D01*
X63883Y-15437D01*
X63875Y-15474D01*
X63875Y-15513D01*
X63882Y-15551D01*
X63896Y-15587D01*
X63917Y-15619D01*
X63944Y-15647D01*
X63975Y-15669D01*
X64011Y-15684D01*
X64049Y-15693D01*
X64087Y-15694D01*
X64125Y-15687D01*
X64161Y-15673D01*
X64194Y-15652D01*
X64222Y-15626D01*
X64244Y-15594D01*
X64260Y-15559D01*
X64268Y-15521D01*
X64269Y-15477D01*
X64269Y-16146D01*
X64258Y-16136D01*
X64226Y-16114D01*
X64191Y-16099D01*
X64153Y-16091D01*
X64114Y-16091D01*
X64076Y-16098D01*
X64041Y-16113D01*
X64008Y-16134D01*
X63981Y-16161D01*
X63959Y-16193D01*
X63944Y-16228D01*
X63936Y-16266D01*
X63935Y-16304D01*
X63942Y-16342D01*
X63956Y-16378D01*
X63977Y-16411D01*
X64004Y-16439D01*
X64036Y-16461D01*
X64071Y-16476D01*
X64109Y-16484D01*
X64147Y-16485D01*
X64185Y-16478D01*
X64221Y-16464D01*
X64254Y-16444D01*
X64282Y-16417D01*
X64304Y-16386D01*
X64320Y-16350D01*
X64327Y-16321D01*
X64340Y-16355D01*
X64361Y-16387D01*
X64388Y-16415D01*
X64420Y-16437D01*
X64455Y-16452D01*
X64493Y-16461D01*
X64531Y-16462D01*
X64569Y-16455D01*
X64605Y-16441D01*
X64638Y-16420D01*
X64666Y-16394D01*
X64688Y-16362D01*
X64704Y-16327D01*
X64712Y-16289D01*
X64713Y-16245D01*
X64713Y-16864D01*
X64699Y-16850D01*
X64667Y-16829D01*
X64632Y-16814D01*
X64594Y-16806D01*
X64555Y-16806D01*
X64517Y-16813D01*
X64481Y-16828D01*
X64449Y-16849D01*
X64448Y-16850D01*
X64439Y-16840D01*
X64407Y-16819D01*
X64371Y-16804D01*
X64334Y-16796D01*
X64295Y-16796D01*
X64257Y-16803D01*
X64221Y-16817D01*
X64189Y-16838D01*
X64161Y-16866D01*
X64140Y-16897D01*
X64124Y-16933D01*
X64116Y-16971D01*
X64116Y-17009D01*
X64123Y-17047D01*
X64137Y-17083D01*
X64158Y-17116D01*
X64185Y-17143D01*
X64216Y-17165D01*
X64252Y-17181D01*
X64289Y-17189D01*
X64328Y-17190D01*
X64366Y-17183D01*
X64402Y-17169D01*
X64435Y-17149D01*
X64438Y-17146D01*
X64445Y-17153D01*
X64477Y-17175D01*
X64512Y-17191D01*
X64550Y-17199D01*
X64588Y-17200D01*
X64626Y-17193D01*
X64662Y-17179D01*
X64678Y-17169D01*
X64679Y-17173D01*
X64700Y-17205D01*
X64727Y-17233D01*
X64759Y-17255D01*
X64794Y-17271D01*
X64832Y-17279D01*
X64871Y-17280D01*
X64909Y-17273D01*
X64945Y-17259D01*
X64977Y-17238D01*
X65005Y-17212D01*
X65027Y-17180D01*
X65043Y-17145D01*
X65052Y-17107D01*
X65052Y-17063D01*
X65052Y-24034D01*
X65033Y-24046D01*
X65005Y-24073D01*
X64984Y-24105D01*
X64968Y-24140D01*
X64960Y-24178D01*
X64960Y-24217D01*
X64967Y-24255D01*
X64981Y-24291D01*
X65002Y-24323D01*
X65029Y-24351D01*
X65060Y-24373D01*
X65096Y-24388D01*
X65134Y-24397D01*
X65172Y-24398D01*
X65210Y-24391D01*
X65246Y-24377D01*
X65279Y-24356D01*
X65307Y-24330D01*
X65329Y-24298D01*
X65345Y-24263D01*
X65353Y-24225D01*
X65354Y-24181D01*
X65354Y-28782D01*
X65338Y-28792D01*
X65311Y-28819D01*
X65289Y-28851D01*
X65274Y-28887D01*
X65266Y-28924D01*
X65265Y-28963D01*
X65272Y-29001D01*
X65286Y-29037D01*
X65307Y-29069D01*
X65334Y-29097D01*
X65366Y-29119D01*
X65401Y-29134D01*
X65439Y-29143D01*
X65477Y-29144D01*
X65515Y-29137D01*
X65551Y-29123D01*
X65584Y-29102D01*
X65612Y-29076D01*
X65634Y-29044D01*
X65650Y-29009D01*
X65658Y-28971D01*
X65659Y-28927D01*
X65659Y-29586D01*
X64459Y-29590D01*
X64459Y-17407D01*
X64451Y-17369D01*
X64437Y-17334D01*
X64415Y-17301D01*
X64388Y-17274D01*
X64356Y-17252D01*
X64321Y-17238D01*
X64283Y-17230D01*
X64244Y-17229D01*
X64206Y-17237D01*
X64170Y-17251D01*
X64138Y-17272D01*
X64111Y-17299D01*
X64089Y-17331D01*
X64074Y-17367D01*
X64066Y-17404D01*
X64065Y-17443D01*
X64072Y-17481D01*
X64086Y-17517D01*
X64107Y-17549D01*
X64134Y-17577D01*
X64166Y-17599D01*
X64201Y-17615D01*
X64239Y-17623D01*
X64277Y-17624D01*
X64315Y-17617D01*
X64351Y-17603D01*
X64384Y-17582D01*
X64412Y-17556D01*
X64434Y-17524D01*
X64450Y-17489D01*
X64458Y-17451D01*
X64459Y-17407D01*
X64459Y-29590D01*
X64419Y-29590D01*
X64419Y-23981D01*
X64411Y-23943D01*
X64397Y-23908D01*
X64375Y-23875D01*
X64348Y-23848D01*
X64316Y-23826D01*
X64280Y-23811D01*
X64243Y-23804D01*
X64204Y-23803D01*
X64166Y-23811D01*
X64130Y-23825D01*
X64098Y-23846D01*
X64070Y-23873D01*
X64049Y-23905D01*
X64033Y-23941D01*
X64029Y-23964D01*
X64027Y-23958D01*
X64013Y-23922D01*
X63991Y-23890D01*
X63964Y-23863D01*
X63932Y-23841D01*
X63927Y-23839D01*
X63927Y-17340D01*
X63920Y-17302D01*
X63905Y-17266D01*
X63884Y-17234D01*
X63857Y-17207D01*
X63825Y-17185D01*
X63789Y-17170D01*
X63751Y-17163D01*
X63713Y-17162D01*
X63675Y-17169D01*
X63639Y-17184D01*
X63607Y-17205D01*
X63579Y-17232D01*
X63557Y-17264D01*
X63542Y-17299D01*
X63534Y-17337D01*
X63533Y-17376D01*
X63540Y-17414D01*
X63555Y-17450D01*
X63576Y-17482D01*
X63602Y-17510D01*
X63634Y-17532D01*
X63669Y-17547D01*
X63707Y-17556D01*
X63746Y-17556D01*
X63784Y-17550D01*
X63820Y-17536D01*
X63852Y-17515D01*
X63880Y-17488D01*
X63903Y-17457D01*
X63918Y-17422D01*
X63927Y-17384D01*
X63927Y-17340D01*
X63927Y-23839D01*
X63897Y-23826D01*
X63859Y-23819D01*
X63820Y-23818D01*
X63782Y-23825D01*
X63746Y-23840D01*
X63714Y-23861D01*
X63687Y-23888D01*
X63665Y-23920D01*
X63650Y-23955D01*
X63642Y-23993D01*
X63641Y-24032D01*
X63648Y-24070D01*
X63662Y-24106D01*
X63683Y-24138D01*
X63710Y-24166D01*
X63742Y-24188D01*
X63777Y-24203D01*
X63815Y-24212D01*
X63853Y-24212D01*
X63891Y-24206D01*
X63927Y-24192D01*
X63960Y-24171D01*
X63988Y-24144D01*
X64010Y-24113D01*
X64026Y-24078D01*
X64031Y-24053D01*
X64032Y-24055D01*
X64046Y-24091D01*
X64067Y-24123D01*
X64094Y-24151D01*
X64125Y-24173D01*
X64161Y-24188D01*
X64199Y-24197D01*
X64237Y-24198D01*
X64275Y-24191D01*
X64311Y-24177D01*
X64344Y-24156D01*
X64372Y-24130D01*
X64394Y-24098D01*
X64410Y-24063D01*
X64418Y-24025D01*
X64419Y-23981D01*
X64419Y-29590D01*
X63500Y-29594D01*
X63500Y-17337D01*
X63492Y-17299D01*
X63477Y-17263D01*
X63456Y-17231D01*
X63429Y-17204D01*
X63397Y-17182D01*
X63361Y-17167D01*
X63323Y-17160D01*
X63285Y-17159D01*
X63247Y-17167D01*
X63245Y-17167D01*
X63245Y-16417D01*
X63238Y-16379D01*
X63223Y-16343D01*
X63202Y-16311D01*
X63174Y-16284D01*
X63142Y-16262D01*
X63107Y-16247D01*
X63069Y-16239D01*
X63030Y-16239D01*
X62993Y-16246D01*
X62957Y-16261D01*
X62924Y-16282D01*
X62897Y-16309D01*
X62875Y-16341D01*
X62860Y-16376D01*
X62852Y-16414D01*
X62851Y-16453D01*
X62858Y-16491D01*
X62872Y-16527D01*
X62893Y-16559D01*
X62920Y-16587D01*
X62952Y-16609D01*
X62987Y-16624D01*
X63025Y-16633D01*
X63064Y-16633D01*
X63102Y-16627D01*
X63138Y-16613D01*
X63170Y-16592D01*
X63198Y-16565D01*
X63220Y-16534D01*
X63236Y-16499D01*
X63245Y-16461D01*
X63245Y-16417D01*
X63245Y-17167D01*
X63211Y-17181D01*
X63179Y-17202D01*
X63151Y-17229D01*
X63129Y-17261D01*
X63114Y-17296D01*
X63106Y-17334D01*
X63106Y-17373D01*
X63113Y-17411D01*
X63127Y-17447D01*
X63148Y-17479D01*
X63174Y-17507D01*
X63206Y-17529D01*
X63242Y-17544D01*
X63279Y-17553D01*
X63318Y-17553D01*
X63356Y-17547D01*
X63392Y-17533D01*
X63424Y-17512D01*
X63452Y-17486D01*
X63475Y-17454D01*
X63490Y-17419D01*
X63499Y-17381D01*
X63500Y-17337D01*
X63500Y-29594D01*
X63421Y-29594D01*
X63421Y-23981D01*
X63414Y-23943D01*
X63399Y-23908D01*
X63377Y-23875D01*
X63350Y-23848D01*
X63318Y-23826D01*
X63283Y-23811D01*
X63245Y-23804D01*
X63206Y-23803D01*
X63168Y-23811D01*
X63133Y-23825D01*
X63100Y-23846D01*
X63073Y-23873D01*
X63051Y-23905D01*
X63036Y-23941D01*
X63028Y-23978D01*
X63027Y-24017D01*
X63034Y-24055D01*
X63048Y-24091D01*
X63069Y-24123D01*
X63096Y-24151D01*
X63128Y-24173D01*
X63163Y-24188D01*
X63201Y-24197D01*
X63239Y-24198D01*
X63277Y-24191D01*
X63313Y-24177D01*
X63346Y-24156D01*
X63374Y-24130D01*
X63396Y-24098D01*
X63412Y-24063D01*
X63420Y-24025D01*
X63421Y-23981D01*
X63421Y-29594D01*
X63220Y-29595D01*
X63220Y-24449D01*
X63213Y-24411D01*
X63198Y-24376D01*
X63177Y-24344D01*
X63149Y-24316D01*
X63117Y-24295D01*
X63082Y-24280D01*
X63046Y-24272D01*
X63046Y-24268D01*
X63047Y-24224D01*
X63040Y-24186D01*
X63025Y-24151D01*
X63003Y-24119D01*
X62976Y-24091D01*
X62944Y-24070D01*
X62909Y-24055D01*
X62871Y-24047D01*
X62832Y-24047D01*
X62796Y-24053D01*
X62796Y-15480D01*
X62789Y-15442D01*
X62774Y-15407D01*
X62753Y-15374D01*
X62726Y-15347D01*
X62694Y-15326D01*
X62658Y-15311D01*
X62620Y-15303D01*
X62582Y-15303D01*
X62544Y-15310D01*
X62508Y-15324D01*
X62476Y-15345D01*
X62448Y-15372D01*
X62426Y-15404D01*
X62411Y-15440D01*
X62403Y-15477D01*
X62402Y-15516D01*
X62409Y-15554D01*
X62424Y-15590D01*
X62444Y-15622D01*
X62471Y-15650D01*
X62503Y-15672D01*
X62538Y-15688D01*
X62576Y-15696D01*
X62615Y-15697D01*
X62653Y-15690D01*
X62689Y-15676D01*
X62721Y-15655D01*
X62749Y-15629D01*
X62771Y-15597D01*
X62787Y-15562D01*
X62796Y-15524D01*
X62796Y-15480D01*
X62796Y-24053D01*
X62794Y-24054D01*
X62759Y-24068D01*
X62726Y-24089D01*
X62699Y-24116D01*
X62677Y-24148D01*
X62662Y-24184D01*
X62654Y-24222D01*
X62653Y-24260D01*
X62660Y-24298D01*
X62674Y-24334D01*
X62695Y-24366D01*
X62722Y-24394D01*
X62754Y-24416D01*
X62789Y-24432D01*
X62827Y-24440D01*
X62828Y-24440D01*
X62827Y-24447D01*
X62826Y-24485D01*
X62833Y-24523D01*
X62847Y-24559D01*
X62868Y-24591D01*
X62895Y-24619D01*
X62927Y-24641D01*
X62962Y-24657D01*
X63000Y-24665D01*
X63039Y-24666D01*
X63077Y-24659D01*
X63113Y-24645D01*
X63145Y-24624D01*
X63173Y-24598D01*
X63195Y-24566D01*
X63211Y-24531D01*
X63220Y-24493D01*
X63220Y-24449D01*
X63220Y-29595D01*
X62980Y-29596D01*
X62965Y-29201D01*
X62957Y-29143D01*
X62486Y-29144D01*
X62486Y-16633D01*
X62479Y-16595D01*
X62464Y-16559D01*
X62443Y-16527D01*
X62415Y-16500D01*
X62383Y-16478D01*
X62348Y-16463D01*
X62310Y-16455D01*
X62271Y-16455D01*
X62233Y-16462D01*
X62198Y-16477D01*
X62165Y-16498D01*
X62138Y-16525D01*
X62116Y-16557D01*
X62101Y-16592D01*
X62093Y-16630D01*
X62092Y-16669D01*
X62099Y-16707D01*
X62113Y-16742D01*
X62134Y-16775D01*
X62161Y-16803D01*
X62193Y-16825D01*
X62228Y-16840D01*
X62266Y-16848D01*
X62304Y-16849D01*
X62342Y-16842D01*
X62378Y-16829D01*
X62411Y-16808D01*
X62439Y-16781D01*
X62461Y-16750D01*
X62477Y-16714D01*
X62486Y-16677D01*
X62486Y-16633D01*
X62486Y-29144D01*
X62440Y-29144D01*
X62440Y-23981D01*
X62433Y-23943D01*
X62418Y-23908D01*
X62397Y-23875D01*
X62370Y-23848D01*
X62338Y-23826D01*
X62302Y-23811D01*
X62264Y-23804D01*
X62226Y-23803D01*
X62188Y-23811D01*
X62152Y-23825D01*
X62120Y-23846D01*
X62098Y-23868D01*
X62098Y-19545D01*
X62090Y-19508D01*
X62076Y-19472D01*
X62054Y-19440D01*
X62027Y-19412D01*
X62027Y-19412D01*
X62034Y-19380D01*
X62035Y-19336D01*
X62027Y-19298D01*
X62013Y-19263D01*
X61991Y-19230D01*
X61990Y-19229D01*
X61990Y-18845D01*
X61982Y-18807D01*
X61967Y-18772D01*
X61946Y-18739D01*
X61919Y-18712D01*
X61887Y-18690D01*
X61851Y-18675D01*
X61813Y-18668D01*
X61775Y-18667D01*
X61737Y-18675D01*
X61701Y-18689D01*
X61669Y-18710D01*
X61641Y-18737D01*
X61619Y-18769D01*
X61604Y-18805D01*
X61599Y-18828D01*
X61576Y-18828D01*
X61538Y-18835D01*
X61502Y-18850D01*
X61470Y-18871D01*
X61442Y-18898D01*
X61421Y-18929D01*
X61414Y-18913D01*
X61393Y-18880D01*
X61366Y-18853D01*
X61334Y-18831D01*
X61298Y-18816D01*
X61260Y-18809D01*
X61222Y-18808D01*
X61184Y-18816D01*
X61148Y-18830D01*
X61116Y-18851D01*
X61088Y-18878D01*
X61066Y-18910D01*
X61051Y-18946D01*
X61043Y-18983D01*
X61043Y-16366D01*
X61036Y-16329D01*
X61021Y-16293D01*
X61000Y-16261D01*
X60972Y-16233D01*
X60940Y-16212D01*
X60905Y-16197D01*
X60868Y-16189D01*
X60868Y-15674D01*
X60860Y-15636D01*
X60845Y-15600D01*
X60824Y-15568D01*
X60797Y-15540D01*
X60765Y-15519D01*
X60729Y-15504D01*
X60691Y-15496D01*
X60653Y-15496D01*
X60615Y-15503D01*
X60579Y-15518D01*
X60547Y-15539D01*
X60519Y-15566D01*
X60503Y-15589D01*
X60517Y-15558D01*
X60526Y-15520D01*
X60526Y-15476D01*
X60519Y-15438D01*
X60504Y-15403D01*
X60483Y-15371D01*
X60456Y-15343D01*
X60424Y-15322D01*
X60388Y-15307D01*
X60350Y-15299D01*
X60311Y-15299D01*
X60274Y-15306D01*
X60238Y-15320D01*
X60205Y-15341D01*
X60178Y-15368D01*
X60156Y-15400D01*
X60141Y-15436D01*
X60133Y-15474D01*
X60132Y-15512D01*
X60139Y-15550D01*
X60153Y-15586D01*
X60174Y-15618D01*
X60201Y-15646D01*
X60233Y-15668D01*
X60268Y-15684D01*
X60306Y-15692D01*
X60345Y-15693D01*
X60383Y-15686D01*
X60419Y-15672D01*
X60451Y-15651D01*
X60479Y-15625D01*
X60496Y-15601D01*
X60482Y-15633D01*
X60474Y-15671D01*
X60474Y-15709D01*
X60481Y-15747D01*
X60495Y-15783D01*
X60516Y-15816D01*
X60543Y-15843D01*
X60574Y-15866D01*
X60610Y-15881D01*
X60647Y-15889D01*
X60686Y-15890D01*
X60724Y-15883D01*
X60760Y-15869D01*
X60793Y-15849D01*
X60820Y-15822D01*
X60843Y-15791D01*
X60858Y-15755D01*
X60867Y-15718D01*
X60868Y-15674D01*
X60868Y-16189D01*
X60867Y-16189D01*
X60828Y-16189D01*
X60791Y-16196D01*
X60755Y-16210D01*
X60722Y-16232D01*
X60695Y-16259D01*
X60673Y-16290D01*
X60658Y-16326D01*
X60650Y-16364D01*
X60649Y-16402D01*
X60656Y-16440D01*
X60670Y-16476D01*
X60691Y-16509D01*
X60718Y-16536D01*
X60750Y-16558D01*
X60785Y-16574D01*
X60823Y-16582D01*
X60862Y-16583D01*
X60900Y-16576D01*
X60936Y-16562D01*
X60968Y-16542D01*
X60996Y-16515D01*
X61018Y-16483D01*
X61034Y-16448D01*
X61043Y-16411D01*
X61043Y-16366D01*
X61043Y-18983D01*
X61043Y-18983D01*
X61043Y-19022D01*
X61050Y-19060D01*
X61064Y-19096D01*
X61085Y-19128D01*
X61111Y-19156D01*
X61143Y-19178D01*
X61179Y-19194D01*
X61216Y-19202D01*
X61255Y-19203D01*
X61293Y-19196D01*
X61329Y-19182D01*
X61361Y-19161D01*
X61389Y-19135D01*
X61412Y-19103D01*
X61412Y-19101D01*
X61418Y-19116D01*
X61439Y-19148D01*
X61466Y-19176D01*
X61497Y-19198D01*
X61533Y-19213D01*
X61571Y-19222D01*
X61609Y-19222D01*
X61647Y-19216D01*
X61683Y-19202D01*
X61716Y-19181D01*
X61744Y-19154D01*
X61766Y-19123D01*
X61782Y-19088D01*
X61788Y-19061D01*
X61808Y-19062D01*
X61846Y-19055D01*
X61882Y-19041D01*
X61914Y-19020D01*
X61942Y-18994D01*
X61965Y-18962D01*
X61980Y-18927D01*
X61989Y-18889D01*
X61990Y-18845D01*
X61990Y-19229D01*
X61964Y-19203D01*
X61932Y-19181D01*
X61897Y-19166D01*
X61859Y-19159D01*
X61820Y-19158D01*
X61782Y-19166D01*
X61746Y-19180D01*
X61714Y-19201D01*
X61687Y-19228D01*
X61665Y-19260D01*
X61650Y-19296D01*
X61641Y-19333D01*
X61641Y-19372D01*
X61648Y-19410D01*
X61662Y-19446D01*
X61683Y-19478D01*
X61710Y-19506D01*
X61712Y-19508D01*
X61704Y-19543D01*
X61704Y-19581D01*
X61711Y-19619D01*
X61725Y-19655D01*
X61746Y-19688D01*
X61773Y-19715D01*
X61805Y-19737D01*
X61840Y-19753D01*
X61878Y-19761D01*
X61916Y-19762D01*
X61954Y-19755D01*
X61990Y-19741D01*
X62023Y-19721D01*
X62051Y-19694D01*
X62073Y-19662D01*
X62089Y-19627D01*
X62097Y-19589D01*
X62098Y-19545D01*
X62098Y-23868D01*
X62092Y-23873D01*
X62070Y-23905D01*
X62055Y-23941D01*
X62047Y-23978D01*
X62046Y-24017D01*
X62053Y-24055D01*
X62068Y-24091D01*
X62089Y-24123D01*
X62115Y-24151D01*
X62147Y-24173D01*
X62182Y-24188D01*
X62220Y-24197D01*
X62259Y-24198D01*
X62297Y-24191D01*
X62333Y-24177D01*
X62365Y-24156D01*
X62393Y-24130D01*
X62416Y-24098D01*
X62431Y-24063D01*
X62440Y-24025D01*
X62440Y-23981D01*
X62440Y-29144D01*
X61948Y-29144D01*
X61948Y-20207D01*
X61940Y-20169D01*
X61926Y-20133D01*
X61904Y-20101D01*
X61877Y-20074D01*
X61845Y-20052D01*
X61810Y-20037D01*
X61772Y-20030D01*
X61733Y-20029D01*
X61695Y-20037D01*
X61659Y-20051D01*
X61627Y-20072D01*
X61600Y-20099D01*
X61578Y-20131D01*
X61563Y-20167D01*
X61555Y-20204D01*
X61554Y-20243D01*
X61561Y-20281D01*
X61575Y-20317D01*
X61596Y-20349D01*
X61623Y-20377D01*
X61655Y-20399D01*
X61690Y-20414D01*
X61728Y-20423D01*
X61766Y-20424D01*
X61804Y-20417D01*
X61840Y-20403D01*
X61873Y-20382D01*
X61901Y-20356D01*
X61923Y-20324D01*
X61939Y-20289D01*
X61947Y-20251D01*
X61948Y-20207D01*
X61948Y-29144D01*
X61938Y-29144D01*
X61938Y-24251D01*
X61930Y-24213D01*
X61916Y-24178D01*
X61894Y-24146D01*
X61867Y-24118D01*
X61835Y-24097D01*
X61800Y-24082D01*
X61762Y-24074D01*
X61723Y-24074D01*
X61685Y-24081D01*
X61649Y-24095D01*
X61617Y-24116D01*
X61590Y-24143D01*
X61568Y-24175D01*
X61552Y-24211D01*
X61544Y-24249D01*
X61544Y-24287D01*
X61551Y-24325D01*
X61565Y-24361D01*
X61586Y-24393D01*
X61613Y-24421D01*
X61645Y-24443D01*
X61680Y-24459D01*
X61718Y-24467D01*
X61756Y-24468D01*
X61794Y-24461D01*
X61830Y-24447D01*
X61863Y-24426D01*
X61891Y-24400D01*
X61913Y-24368D01*
X61929Y-24333D01*
X61937Y-24295D01*
X61938Y-24251D01*
X61938Y-29144D01*
X61501Y-29145D01*
X61501Y-19650D01*
X61494Y-19612D01*
X61479Y-19576D01*
X61458Y-19544D01*
X61431Y-19517D01*
X61399Y-19495D01*
X61363Y-19480D01*
X61325Y-19472D01*
X61287Y-19472D01*
X61249Y-19479D01*
X61213Y-19494D01*
X61181Y-19515D01*
X61153Y-19542D01*
X61131Y-19574D01*
X61116Y-19609D01*
X61108Y-19647D01*
X61107Y-19686D01*
X61114Y-19724D01*
X61129Y-19760D01*
X61150Y-19792D01*
X61176Y-19820D01*
X61208Y-19842D01*
X61243Y-19857D01*
X61281Y-19866D01*
X61320Y-19866D01*
X61358Y-19860D01*
X61394Y-19846D01*
X61426Y-19825D01*
X61454Y-19798D01*
X61477Y-19767D01*
X61492Y-19732D01*
X61501Y-19694D01*
X61501Y-19650D01*
X61501Y-29145D01*
X61406Y-29145D01*
X61406Y-23720D01*
X61399Y-23682D01*
X61384Y-23646D01*
X61363Y-23614D01*
X61336Y-23587D01*
X61304Y-23565D01*
X61268Y-23550D01*
X61251Y-23547D01*
X61251Y-22555D01*
X61244Y-22517D01*
X61229Y-22481D01*
X61208Y-22449D01*
X61181Y-22422D01*
X61149Y-22400D01*
X61113Y-22385D01*
X61075Y-22378D01*
X61037Y-22377D01*
X60999Y-22385D01*
X60963Y-22399D01*
X60931Y-22420D01*
X60903Y-22447D01*
X60900Y-22452D01*
X60900Y-20764D01*
X60895Y-20741D01*
X60895Y-18618D01*
X60888Y-18580D01*
X60873Y-18544D01*
X60852Y-18512D01*
X60825Y-18485D01*
X60793Y-18463D01*
X60757Y-18448D01*
X60719Y-18440D01*
X60681Y-18440D01*
X60643Y-18447D01*
X60607Y-18462D01*
X60575Y-18483D01*
X60547Y-18510D01*
X60525Y-18542D01*
X60510Y-18577D01*
X60502Y-18615D01*
X60501Y-18654D01*
X60508Y-18692D01*
X60523Y-18728D01*
X60543Y-18760D01*
X60570Y-18788D01*
X60602Y-18810D01*
X60637Y-18825D01*
X60675Y-18834D01*
X60714Y-18834D01*
X60752Y-18828D01*
X60788Y-18814D01*
X60820Y-18793D01*
X60848Y-18766D01*
X60870Y-18735D01*
X60886Y-18700D01*
X60895Y-18662D01*
X60895Y-18618D01*
X60895Y-20741D01*
X60892Y-20726D01*
X60878Y-20690D01*
X60856Y-20658D01*
X60829Y-20631D01*
X60797Y-20609D01*
X60762Y-20594D01*
X60724Y-20586D01*
X60685Y-20586D01*
X60647Y-20593D01*
X60611Y-20608D01*
X60579Y-20629D01*
X60552Y-20656D01*
X60530Y-20688D01*
X60515Y-20723D01*
X60506Y-20761D01*
X60506Y-20800D01*
X60513Y-20838D01*
X60527Y-20874D01*
X60548Y-20906D01*
X60575Y-20934D01*
X60607Y-20956D01*
X60642Y-20971D01*
X60680Y-20980D01*
X60718Y-20980D01*
X60756Y-20974D01*
X60792Y-20960D01*
X60825Y-20939D01*
X60853Y-20912D01*
X60875Y-20881D01*
X60891Y-20846D01*
X60899Y-20808D01*
X60900Y-20764D01*
X60900Y-22452D01*
X60881Y-22479D01*
X60866Y-22514D01*
X60858Y-22552D01*
X60858Y-22591D01*
X60864Y-22629D01*
X60879Y-22665D01*
X60900Y-22697D01*
X60926Y-22725D01*
X60958Y-22747D01*
X60993Y-22762D01*
X61031Y-22771D01*
X61070Y-22772D01*
X61108Y-22765D01*
X61144Y-22751D01*
X61176Y-22730D01*
X61204Y-22704D01*
X61227Y-22672D01*
X61242Y-22637D01*
X61251Y-22599D01*
X61251Y-22555D01*
X61251Y-23547D01*
X61230Y-23542D01*
X61192Y-23542D01*
X61154Y-23549D01*
X61118Y-23564D01*
X61086Y-23585D01*
X61058Y-23612D01*
X61036Y-23644D01*
X61021Y-23679D01*
X61013Y-23717D01*
X61012Y-23756D01*
X61019Y-23794D01*
X61034Y-23829D01*
X61055Y-23862D01*
X61081Y-23890D01*
X61113Y-23912D01*
X61148Y-23927D01*
X61186Y-23935D01*
X61225Y-23936D01*
X61263Y-23930D01*
X61299Y-23916D01*
X61331Y-23895D01*
X61359Y-23868D01*
X61382Y-23837D01*
X61397Y-23802D01*
X61406Y-23764D01*
X61406Y-23720D01*
X61406Y-29145D01*
X60088Y-29147D01*
X60088Y-16549D01*
X60081Y-16511D01*
X60066Y-16475D01*
X60059Y-16464D01*
X60059Y-15630D01*
X60051Y-15592D01*
X60036Y-15556D01*
X60015Y-15524D01*
X59988Y-15497D01*
X59956Y-15475D01*
X59920Y-15460D01*
X59882Y-15452D01*
X59844Y-15452D01*
X59806Y-15459D01*
X59770Y-15474D01*
X59738Y-15495D01*
X59710Y-15522D01*
X59688Y-15554D01*
X59673Y-15589D01*
X59665Y-15627D01*
X59665Y-15666D01*
X59672Y-15704D01*
X59686Y-15740D01*
X59707Y-15772D01*
X59734Y-15800D01*
X59765Y-15822D01*
X59801Y-15837D01*
X59838Y-15846D01*
X59877Y-15846D01*
X59915Y-15840D01*
X59951Y-15826D01*
X59983Y-15805D01*
X60011Y-15778D01*
X60034Y-15747D01*
X60049Y-15712D01*
X60058Y-15674D01*
X60059Y-15630D01*
X60059Y-16464D01*
X60045Y-16443D01*
X60017Y-16415D01*
X59985Y-16394D01*
X59950Y-16379D01*
X59912Y-16371D01*
X59873Y-16371D01*
X59835Y-16378D01*
X59800Y-16393D01*
X59767Y-16414D01*
X59740Y-16441D01*
X59718Y-16473D01*
X59703Y-16508D01*
X59695Y-16546D01*
X59694Y-16584D01*
X59701Y-16622D01*
X59715Y-16658D01*
X59736Y-16691D01*
X59763Y-16718D01*
X59795Y-16740D01*
X59830Y-16756D01*
X59868Y-16764D01*
X59906Y-16765D01*
X59944Y-16758D01*
X59980Y-16744D01*
X60013Y-16724D01*
X60041Y-16697D01*
X60063Y-16666D01*
X60079Y-16630D01*
X60087Y-16593D01*
X60088Y-16549D01*
X60088Y-29147D01*
X59793Y-29147D01*
X59793Y-19006D01*
X59785Y-18968D01*
X59771Y-18932D01*
X59749Y-18900D01*
X59722Y-18873D01*
X59690Y-18851D01*
X59654Y-18836D01*
X59617Y-18828D01*
X59578Y-18828D01*
X59540Y-18835D01*
X59504Y-18850D01*
X59472Y-18871D01*
X59444Y-18898D01*
X59423Y-18930D01*
X59407Y-18965D01*
X59399Y-19003D01*
X59399Y-19042D01*
X59406Y-19080D01*
X59420Y-19116D01*
X59441Y-19148D01*
X59468Y-19176D01*
X59499Y-19198D01*
X59535Y-19213D01*
X59573Y-19222D01*
X59611Y-19222D01*
X59649Y-19216D01*
X59685Y-19202D01*
X59718Y-19181D01*
X59746Y-19154D01*
X59768Y-19123D01*
X59784Y-19088D01*
X59792Y-19050D01*
X59793Y-19006D01*
X59793Y-29147D01*
X59586Y-29147D01*
X59586Y-19586D01*
X59579Y-19549D01*
X59564Y-19513D01*
X59543Y-19481D01*
X59515Y-19453D01*
X59483Y-19432D01*
X59448Y-19417D01*
X59410Y-19409D01*
X59371Y-19409D01*
X59352Y-19412D01*
X59352Y-15506D01*
X59345Y-15468D01*
X59330Y-15432D01*
X59309Y-15400D01*
X59281Y-15372D01*
X59249Y-15351D01*
X59214Y-15336D01*
X59176Y-15328D01*
X59137Y-15328D01*
X59100Y-15335D01*
X59064Y-15350D01*
X59031Y-15371D01*
X59004Y-15398D01*
X58982Y-15430D01*
X58967Y-15465D01*
X58959Y-15503D01*
X58958Y-15541D01*
X58965Y-15579D01*
X58979Y-15615D01*
X59000Y-15648D01*
X59027Y-15675D01*
X59059Y-15697D01*
X59094Y-15713D01*
X59132Y-15721D01*
X59171Y-15722D01*
X59209Y-15715D01*
X59245Y-15701D01*
X59277Y-15681D01*
X59305Y-15654D01*
X59327Y-15623D01*
X59343Y-15587D01*
X59352Y-15550D01*
X59352Y-15506D01*
X59352Y-19412D01*
X59333Y-19416D01*
X59298Y-19431D01*
X59265Y-19452D01*
X59238Y-19479D01*
X59216Y-19511D01*
X59201Y-19546D01*
X59193Y-19584D01*
X59192Y-19622D01*
X59199Y-19660D01*
X59213Y-19696D01*
X59234Y-19729D01*
X59261Y-19756D01*
X59293Y-19778D01*
X59328Y-19794D01*
X59366Y-19802D01*
X59404Y-19803D01*
X59442Y-19796D01*
X59478Y-19782D01*
X59511Y-19762D01*
X59539Y-19735D01*
X59561Y-19704D01*
X59577Y-19668D01*
X59586Y-19631D01*
X59586Y-19586D01*
X59586Y-29147D01*
X58614Y-29149D01*
X58614Y-27069D01*
X58602Y-27008D01*
X58600Y-27001D01*
X58600Y-17171D01*
X58592Y-17133D01*
X58577Y-17098D01*
X58556Y-17066D01*
X58529Y-17038D01*
X58497Y-17017D01*
X58461Y-17002D01*
X58423Y-16994D01*
X58385Y-16994D01*
X58347Y-17001D01*
X58311Y-17015D01*
X58291Y-17029D01*
X58291Y-16563D01*
X58283Y-16525D01*
X58269Y-16489D01*
X58247Y-16457D01*
X58220Y-16430D01*
X58188Y-16408D01*
X58152Y-16393D01*
X58115Y-16385D01*
X58076Y-16385D01*
X58038Y-16392D01*
X58002Y-16407D01*
X57970Y-16428D01*
X57942Y-16455D01*
X57921Y-16487D01*
X57905Y-16522D01*
X57897Y-16560D01*
X57897Y-16599D01*
X57904Y-16637D01*
X57918Y-16673D01*
X57939Y-16705D01*
X57966Y-16733D01*
X57997Y-16755D01*
X58033Y-16770D01*
X58071Y-16779D01*
X58109Y-16779D01*
X58147Y-16773D01*
X58183Y-16759D01*
X58216Y-16738D01*
X58244Y-16711D01*
X58266Y-16680D01*
X58282Y-16645D01*
X58290Y-16607D01*
X58291Y-16563D01*
X58291Y-17029D01*
X58279Y-17036D01*
X58251Y-17063D01*
X58229Y-17095D01*
X58214Y-17131D01*
X58206Y-17169D01*
X58206Y-17207D01*
X58213Y-17245D01*
X58223Y-17271D01*
X58208Y-17257D01*
X58176Y-17235D01*
X58141Y-17220D01*
X58103Y-17212D01*
X58064Y-17212D01*
X58026Y-17219D01*
X57991Y-17234D01*
X57958Y-17255D01*
X57950Y-17263D01*
X57919Y-17241D01*
X57883Y-17226D01*
X57846Y-17219D01*
X57807Y-17218D01*
X57769Y-17226D01*
X57733Y-17240D01*
X57701Y-17261D01*
X57673Y-17288D01*
X57651Y-17320D01*
X57636Y-17356D01*
X57628Y-17393D01*
X57628Y-17432D01*
X57635Y-17470D01*
X57649Y-17506D01*
X57670Y-17538D01*
X57697Y-17566D01*
X57728Y-17588D01*
X57764Y-17604D01*
X57801Y-17612D01*
X57840Y-17613D01*
X57878Y-17606D01*
X57914Y-17592D01*
X57947Y-17571D01*
X57957Y-17562D01*
X57986Y-17582D01*
X58021Y-17597D01*
X58059Y-17605D01*
X58097Y-17606D01*
X58135Y-17599D01*
X58171Y-17586D01*
X58204Y-17565D01*
X58232Y-17538D01*
X58254Y-17507D01*
X58270Y-17471D01*
X58278Y-17434D01*
X58279Y-17390D01*
X58272Y-17352D01*
X58262Y-17328D01*
X58274Y-17341D01*
X58306Y-17363D01*
X58342Y-17379D01*
X58379Y-17387D01*
X58418Y-17388D01*
X58456Y-17381D01*
X58492Y-17367D01*
X58524Y-17347D01*
X58552Y-17320D01*
X58575Y-17288D01*
X58590Y-17253D01*
X58599Y-17215D01*
X58600Y-17171D01*
X58600Y-27001D01*
X58579Y-26951D01*
X58545Y-26899D01*
X58501Y-26856D01*
X58450Y-26821D01*
X58423Y-26810D01*
X58433Y-26804D01*
X58477Y-26761D01*
X58513Y-26711D01*
X58538Y-26655D01*
X58552Y-26594D01*
X58553Y-26524D01*
X58541Y-26463D01*
X58517Y-26406D01*
X58483Y-26355D01*
X58439Y-26311D01*
X58388Y-26276D01*
X58331Y-26252D01*
X58271Y-26240D01*
X58235Y-26240D01*
X58235Y-19221D01*
X58227Y-19183D01*
X58212Y-19148D01*
X58191Y-19116D01*
X58164Y-19088D01*
X58132Y-19067D01*
X58096Y-19052D01*
X58058Y-19044D01*
X58020Y-19044D01*
X57982Y-19051D01*
X57946Y-19065D01*
X57914Y-19086D01*
X57886Y-19113D01*
X57864Y-19145D01*
X57849Y-19181D01*
X57841Y-19219D01*
X57841Y-19257D01*
X57848Y-19295D01*
X57862Y-19331D01*
X57883Y-19363D01*
X57910Y-19391D01*
X57941Y-19413D01*
X57977Y-19429D01*
X58014Y-19437D01*
X58053Y-19438D01*
X58091Y-19431D01*
X58127Y-19417D01*
X58160Y-19396D01*
X58188Y-19370D01*
X58210Y-19338D01*
X58225Y-19303D01*
X58234Y-19265D01*
X58235Y-19221D01*
X58235Y-26240D01*
X58209Y-26239D01*
X58148Y-26251D01*
X58091Y-26274D01*
X58039Y-26308D01*
X57995Y-26351D01*
X57960Y-26402D01*
X57936Y-26459D01*
X57923Y-26519D01*
X57922Y-26581D01*
X57933Y-26642D01*
X57956Y-26699D01*
X57990Y-26751D01*
X58033Y-26796D01*
X58083Y-26831D01*
X58114Y-26844D01*
X58101Y-26853D01*
X58057Y-26896D01*
X58022Y-26947D01*
X57998Y-27004D01*
X57985Y-27064D01*
X57984Y-27126D01*
X57995Y-27187D01*
X58018Y-27244D01*
X58051Y-27296D01*
X58094Y-27341D01*
X58145Y-27376D01*
X58202Y-27400D01*
X58262Y-27414D01*
X58324Y-27415D01*
X58385Y-27404D01*
X58442Y-27382D01*
X58494Y-27349D01*
X58539Y-27306D01*
X58575Y-27256D01*
X58600Y-27199D01*
X58613Y-27139D01*
X58614Y-27069D01*
X58614Y-29149D01*
X57903Y-29150D01*
X57903Y-24437D01*
X57891Y-24377D01*
X57868Y-24319D01*
X57833Y-24268D01*
X57793Y-24228D01*
X57793Y-18629D01*
X57786Y-18592D01*
X57771Y-18556D01*
X57750Y-18524D01*
X57722Y-18496D01*
X57690Y-18475D01*
X57655Y-18460D01*
X57617Y-18452D01*
X57578Y-18452D01*
X57541Y-18459D01*
X57505Y-18473D01*
X57472Y-18495D01*
X57445Y-18522D01*
X57423Y-18553D01*
X57408Y-18589D01*
X57400Y-18627D01*
X57399Y-18665D01*
X57406Y-18703D01*
X57420Y-18739D01*
X57441Y-18772D01*
X57468Y-18799D01*
X57500Y-18821D01*
X57535Y-18837D01*
X57573Y-18845D01*
X57612Y-18846D01*
X57650Y-18839D01*
X57686Y-18825D01*
X57718Y-18805D01*
X57746Y-18778D01*
X57768Y-18746D01*
X57784Y-18711D01*
X57793Y-18674D01*
X57793Y-18629D01*
X57793Y-24228D01*
X57790Y-24224D01*
X57739Y-24190D01*
X57682Y-24166D01*
X57621Y-24153D01*
X57559Y-24153D01*
X57499Y-24164D01*
X57481Y-24172D01*
X57481Y-23222D01*
X57473Y-23184D01*
X57458Y-23148D01*
X57437Y-23116D01*
X57410Y-23089D01*
X57378Y-23067D01*
X57342Y-23052D01*
X57310Y-23046D01*
X57310Y-18090D01*
X57303Y-18052D01*
X57288Y-18016D01*
X57279Y-18003D01*
X57279Y-16493D01*
X57263Y-16412D01*
X57231Y-16335D01*
X57185Y-16266D01*
X57127Y-16207D01*
X57058Y-16161D01*
X56982Y-16129D01*
X56900Y-16112D01*
X56850Y-16112D01*
X56850Y-15457D01*
X56842Y-15419D01*
X56828Y-15383D01*
X56806Y-15351D01*
X56787Y-15331D01*
X56787Y-14401D01*
X56779Y-14363D01*
X56765Y-14327D01*
X56743Y-14295D01*
X56716Y-14268D01*
X56684Y-14246D01*
X56649Y-14231D01*
X56611Y-14223D01*
X56572Y-14223D01*
X56534Y-14230D01*
X56498Y-14245D01*
X56466Y-14266D01*
X56439Y-14293D01*
X56417Y-14325D01*
X56402Y-14360D01*
X56393Y-14398D01*
X56393Y-14437D01*
X56400Y-14475D01*
X56414Y-14511D01*
X56435Y-14543D01*
X56462Y-14571D01*
X56494Y-14593D01*
X56529Y-14608D01*
X56567Y-14617D01*
X56605Y-14617D01*
X56643Y-14611D01*
X56679Y-14597D01*
X56712Y-14576D01*
X56740Y-14549D01*
X56762Y-14518D01*
X56778Y-14483D01*
X56786Y-14445D01*
X56787Y-14401D01*
X56787Y-15331D01*
X56779Y-15323D01*
X56747Y-15302D01*
X56712Y-15287D01*
X56674Y-15279D01*
X56635Y-15279D01*
X56597Y-15286D01*
X56561Y-15301D01*
X56529Y-15322D01*
X56502Y-15349D01*
X56480Y-15381D01*
X56464Y-15416D01*
X56456Y-15454D01*
X56456Y-15492D01*
X56463Y-15530D01*
X56477Y-15566D01*
X56498Y-15599D01*
X56525Y-15627D01*
X56557Y-15649D01*
X56592Y-15664D01*
X56630Y-15672D01*
X56668Y-15673D01*
X56706Y-15666D01*
X56742Y-15652D01*
X56775Y-15632D01*
X56803Y-15605D01*
X56825Y-15574D01*
X56841Y-15538D01*
X56849Y-15501D01*
X56850Y-15457D01*
X56850Y-16112D01*
X56817Y-16111D01*
X56736Y-16127D01*
X56659Y-16158D01*
X56589Y-16203D01*
X56530Y-16262D01*
X56483Y-16330D01*
X56450Y-16406D01*
X56433Y-16488D01*
X56432Y-16571D01*
X56447Y-16652D01*
X56478Y-16729D01*
X56523Y-16799D01*
X56580Y-16859D01*
X56648Y-16906D01*
X56724Y-16939D01*
X56805Y-16957D01*
X56888Y-16959D01*
X56970Y-16945D01*
X57048Y-16915D01*
X57118Y-16870D01*
X57178Y-16813D01*
X57226Y-16745D01*
X57259Y-16669D01*
X57278Y-16588D01*
X57279Y-16493D01*
X57279Y-18003D01*
X57267Y-17984D01*
X57240Y-17957D01*
X57208Y-17935D01*
X57172Y-17920D01*
X57134Y-17912D01*
X57096Y-17912D01*
X57058Y-17919D01*
X57022Y-17934D01*
X56989Y-17955D01*
X56962Y-17982D01*
X56940Y-18014D01*
X56925Y-18049D01*
X56917Y-18087D01*
X56916Y-18126D01*
X56923Y-18164D01*
X56937Y-18199D01*
X56958Y-18232D01*
X56985Y-18260D01*
X57017Y-18282D01*
X57052Y-18297D01*
X57090Y-18305D01*
X57129Y-18306D01*
X57167Y-18299D01*
X57203Y-18286D01*
X57235Y-18265D01*
X57263Y-18238D01*
X57285Y-18207D01*
X57301Y-18171D01*
X57310Y-18134D01*
X57310Y-18090D01*
X57310Y-23046D01*
X57304Y-23045D01*
X57266Y-23044D01*
X57228Y-23052D01*
X57192Y-23066D01*
X57160Y-23087D01*
X57132Y-23114D01*
X57110Y-23146D01*
X57095Y-23182D01*
X57087Y-23219D01*
X57087Y-23258D01*
X57094Y-23296D01*
X57108Y-23332D01*
X57129Y-23364D01*
X57156Y-23392D01*
X57187Y-23414D01*
X57223Y-23429D01*
X57260Y-23438D01*
X57299Y-23439D01*
X57337Y-23432D01*
X57373Y-23418D01*
X57406Y-23397D01*
X57433Y-23371D01*
X57456Y-23339D01*
X57471Y-23304D01*
X57480Y-23266D01*
X57481Y-23222D01*
X57481Y-24172D01*
X57441Y-24188D01*
X57390Y-24221D01*
X57346Y-24265D01*
X57311Y-24316D01*
X57286Y-24372D01*
X57274Y-24433D01*
X57273Y-24494D01*
X57284Y-24555D01*
X57307Y-24613D01*
X57340Y-24665D01*
X57383Y-24709D01*
X57434Y-24744D01*
X57490Y-24769D01*
X57551Y-24782D01*
X57612Y-24784D01*
X57673Y-24773D01*
X57731Y-24750D01*
X57783Y-24717D01*
X57828Y-24675D01*
X57863Y-24624D01*
X57888Y-24568D01*
X57902Y-24508D01*
X57903Y-24437D01*
X57903Y-29150D01*
X56950Y-29151D01*
X56950Y-20187D01*
X56942Y-20149D01*
X56928Y-20113D01*
X56906Y-20081D01*
X56879Y-20054D01*
X56847Y-20032D01*
X56812Y-20017D01*
X56774Y-20009D01*
X56735Y-20009D01*
X56697Y-20016D01*
X56661Y-20031D01*
X56629Y-20052D01*
X56602Y-20079D01*
X56580Y-20111D01*
X56564Y-20146D01*
X56556Y-20184D01*
X56556Y-20223D01*
X56563Y-20261D01*
X56577Y-20296D01*
X56598Y-20329D01*
X56625Y-20357D01*
X56657Y-20379D01*
X56692Y-20394D01*
X56730Y-20402D01*
X56768Y-20403D01*
X56806Y-20397D01*
X56842Y-20383D01*
X56875Y-20362D01*
X56903Y-20335D01*
X56925Y-20304D01*
X56941Y-20268D01*
X56949Y-20231D01*
X56950Y-20187D01*
X56950Y-29151D01*
X56742Y-29151D01*
X56742Y-25172D01*
X56734Y-25134D01*
X56719Y-25098D01*
X56698Y-25066D01*
X56671Y-25039D01*
X56639Y-25017D01*
X56603Y-25002D01*
X56565Y-24995D01*
X56527Y-24994D01*
X56489Y-25002D01*
X56453Y-25016D01*
X56427Y-25033D01*
X56427Y-17256D01*
X56420Y-17218D01*
X56405Y-17182D01*
X56383Y-17150D01*
X56356Y-17123D01*
X56324Y-17101D01*
X56289Y-17086D01*
X56251Y-17078D01*
X56212Y-17078D01*
X56174Y-17085D01*
X56139Y-17100D01*
X56120Y-17112D01*
X56117Y-17108D01*
X56110Y-17104D01*
X56110Y-15628D01*
X56102Y-15590D01*
X56088Y-15554D01*
X56066Y-15522D01*
X56039Y-15495D01*
X56007Y-15473D01*
X55971Y-15458D01*
X55934Y-15450D01*
X55895Y-15450D01*
X55857Y-15457D01*
X55821Y-15472D01*
X55789Y-15493D01*
X55761Y-15520D01*
X55740Y-15552D01*
X55724Y-15587D01*
X55716Y-15625D01*
X55716Y-15664D01*
X55723Y-15702D01*
X55737Y-15738D01*
X55758Y-15770D01*
X55785Y-15798D01*
X55816Y-15820D01*
X55852Y-15835D01*
X55889Y-15844D01*
X55928Y-15844D01*
X55966Y-15838D01*
X56002Y-15824D01*
X56035Y-15803D01*
X56063Y-15776D01*
X56085Y-15745D01*
X56101Y-15710D01*
X56109Y-15672D01*
X56110Y-15628D01*
X56110Y-17104D01*
X56085Y-17087D01*
X56049Y-17072D01*
X56011Y-17064D01*
X55973Y-17064D01*
X55935Y-17071D01*
X55899Y-17085D01*
X55867Y-17107D01*
X55839Y-17134D01*
X55817Y-17165D01*
X55802Y-17201D01*
X55794Y-17239D01*
X55793Y-17277D01*
X55800Y-17315D01*
X55815Y-17351D01*
X55836Y-17384D01*
X55862Y-17411D01*
X55894Y-17433D01*
X55929Y-17449D01*
X55967Y-17457D01*
X56006Y-17458D01*
X56044Y-17451D01*
X56080Y-17437D01*
X56100Y-17424D01*
X56102Y-17426D01*
X56134Y-17448D01*
X56169Y-17463D01*
X56207Y-17472D01*
X56245Y-17472D01*
X56283Y-17466D01*
X56319Y-17452D01*
X56352Y-17431D01*
X56380Y-17404D01*
X56402Y-17373D01*
X56418Y-17338D01*
X56426Y-17300D01*
X56427Y-17256D01*
X56427Y-25033D01*
X56421Y-25037D01*
X56393Y-25064D01*
X56371Y-25096D01*
X56356Y-25132D01*
X56348Y-25169D01*
X56348Y-25208D01*
X56355Y-25246D01*
X56369Y-25282D01*
X56390Y-25314D01*
X56417Y-25342D01*
X56448Y-25364D01*
X56484Y-25379D01*
X56521Y-25388D01*
X56560Y-25389D01*
X56598Y-25382D01*
X56634Y-25368D01*
X56667Y-25347D01*
X56695Y-25321D01*
X56717Y-25289D01*
X56732Y-25254D01*
X56741Y-25216D01*
X56742Y-25172D01*
X56742Y-29151D01*
X56263Y-29152D01*
X56263Y-19270D01*
X56255Y-19234D01*
X56255Y-17764D01*
X56248Y-17726D01*
X56233Y-17690D01*
X56212Y-17658D01*
X56185Y-17631D01*
X56153Y-17609D01*
X56117Y-17594D01*
X56079Y-17586D01*
X56041Y-17586D01*
X56003Y-17593D01*
X55967Y-17608D01*
X55935Y-17629D01*
X55907Y-17656D01*
X55885Y-17688D01*
X55870Y-17723D01*
X55862Y-17761D01*
X55861Y-17800D01*
X55868Y-17837D01*
X55883Y-17873D01*
X55904Y-17906D01*
X55930Y-17934D01*
X55962Y-17956D01*
X55997Y-17971D01*
X56035Y-17979D01*
X56074Y-17980D01*
X56112Y-17973D01*
X56148Y-17960D01*
X56180Y-17939D01*
X56208Y-17912D01*
X56231Y-17881D01*
X56246Y-17845D01*
X56255Y-17808D01*
X56255Y-17764D01*
X56255Y-19234D01*
X56255Y-19232D01*
X56240Y-19196D01*
X56219Y-19164D01*
X56192Y-19137D01*
X56160Y-19115D01*
X56124Y-19100D01*
X56086Y-19093D01*
X56048Y-19092D01*
X56010Y-19100D01*
X55974Y-19114D01*
X55942Y-19135D01*
X55914Y-19162D01*
X55892Y-19194D01*
X55877Y-19230D01*
X55869Y-19267D01*
X55869Y-19306D01*
X55876Y-19344D01*
X55890Y-19380D01*
X55911Y-19412D01*
X55937Y-19440D01*
X55969Y-19462D01*
X56005Y-19477D01*
X56042Y-19486D01*
X56081Y-19487D01*
X56119Y-19480D01*
X56155Y-19466D01*
X56187Y-19445D01*
X56215Y-19419D01*
X56238Y-19387D01*
X56253Y-19352D01*
X56262Y-19314D01*
X56263Y-19270D01*
X56263Y-29152D01*
X56023Y-29152D01*
X56023Y-21132D01*
X56016Y-21094D01*
X56001Y-21058D01*
X55980Y-21026D01*
X55952Y-20999D01*
X55920Y-20977D01*
X55885Y-20962D01*
X55847Y-20954D01*
X55808Y-20954D01*
X55770Y-20961D01*
X55735Y-20976D01*
X55702Y-20997D01*
X55675Y-21024D01*
X55664Y-21040D01*
X55664Y-19630D01*
X55657Y-19592D01*
X55642Y-19557D01*
X55621Y-19525D01*
X55593Y-19497D01*
X55561Y-19476D01*
X55526Y-19461D01*
X55488Y-19453D01*
X55473Y-19453D01*
X55473Y-19053D01*
X55465Y-19015D01*
X55451Y-18980D01*
X55429Y-18947D01*
X55402Y-18920D01*
X55370Y-18898D01*
X55334Y-18883D01*
X55297Y-18876D01*
X55294Y-18876D01*
X55294Y-17732D01*
X55286Y-17694D01*
X55272Y-17658D01*
X55250Y-17626D01*
X55223Y-17599D01*
X55191Y-17577D01*
X55156Y-17562D01*
X55118Y-17555D01*
X55079Y-17554D01*
X55041Y-17562D01*
X55005Y-17576D01*
X54973Y-17597D01*
X54946Y-17624D01*
X54924Y-17656D01*
X54909Y-17692D01*
X54901Y-17729D01*
X54900Y-17768D01*
X54907Y-17806D01*
X54921Y-17842D01*
X54942Y-17874D01*
X54969Y-17902D01*
X55001Y-17924D01*
X55036Y-17939D01*
X55074Y-17948D01*
X55112Y-17949D01*
X55150Y-17942D01*
X55186Y-17928D01*
X55219Y-17907D01*
X55247Y-17881D01*
X55269Y-17849D01*
X55285Y-17814D01*
X55293Y-17776D01*
X55294Y-17732D01*
X55294Y-18876D01*
X55258Y-18875D01*
X55220Y-18883D01*
X55184Y-18897D01*
X55152Y-18918D01*
X55124Y-18945D01*
X55103Y-18977D01*
X55087Y-19013D01*
X55079Y-19050D01*
X55079Y-19063D01*
X55046Y-19070D01*
X55010Y-19084D01*
X54978Y-19105D01*
X54950Y-19132D01*
X54929Y-19164D01*
X54913Y-19200D01*
X54905Y-19237D01*
X54905Y-19276D01*
X54912Y-19314D01*
X54926Y-19350D01*
X54947Y-19382D01*
X54974Y-19410D01*
X55005Y-19432D01*
X55041Y-19447D01*
X55078Y-19456D01*
X55117Y-19457D01*
X55155Y-19450D01*
X55191Y-19436D01*
X55224Y-19415D01*
X55252Y-19389D01*
X55274Y-19357D01*
X55290Y-19322D01*
X55298Y-19284D01*
X55298Y-19268D01*
X55329Y-19263D01*
X55365Y-19249D01*
X55398Y-19228D01*
X55426Y-19202D01*
X55448Y-19170D01*
X55464Y-19135D01*
X55472Y-19097D01*
X55473Y-19053D01*
X55473Y-19453D01*
X55449Y-19453D01*
X55411Y-19460D01*
X55376Y-19474D01*
X55343Y-19495D01*
X55316Y-19522D01*
X55294Y-19554D01*
X55279Y-19590D01*
X55271Y-19628D01*
X55270Y-19666D01*
X55277Y-19704D01*
X55291Y-19740D01*
X55312Y-19772D01*
X55339Y-19800D01*
X55371Y-19822D01*
X55406Y-19838D01*
X55444Y-19846D01*
X55482Y-19847D01*
X55520Y-19840D01*
X55556Y-19826D01*
X55589Y-19805D01*
X55617Y-19779D01*
X55639Y-19747D01*
X55655Y-19712D01*
X55663Y-19674D01*
X55664Y-19630D01*
X55664Y-21040D01*
X55653Y-21056D01*
X55638Y-21091D01*
X55630Y-21129D01*
X55629Y-21168D01*
X55636Y-21206D01*
X55650Y-21241D01*
X55671Y-21274D01*
X55698Y-21302D01*
X55730Y-21324D01*
X55765Y-21339D01*
X55803Y-21347D01*
X55841Y-21348D01*
X55879Y-21342D01*
X55915Y-21328D01*
X55948Y-21307D01*
X55976Y-21280D01*
X55998Y-21249D01*
X56014Y-21214D01*
X56023Y-21176D01*
X56023Y-21132D01*
X56023Y-29152D01*
X55779Y-29152D01*
X55779Y-23513D01*
X55771Y-23475D01*
X55756Y-23440D01*
X55735Y-23407D01*
X55708Y-23380D01*
X55676Y-23358D01*
X55640Y-23344D01*
X55602Y-23336D01*
X55564Y-23336D01*
X55526Y-23343D01*
X55490Y-23357D01*
X55458Y-23378D01*
X55430Y-23405D01*
X55408Y-23437D01*
X55393Y-23473D01*
X55385Y-23510D01*
X55385Y-23549D01*
X55392Y-23587D01*
X55406Y-23623D01*
X55427Y-23655D01*
X55454Y-23683D01*
X55485Y-23705D01*
X55521Y-23721D01*
X55558Y-23729D01*
X55597Y-23730D01*
X55635Y-23723D01*
X55671Y-23709D01*
X55704Y-23688D01*
X55732Y-23662D01*
X55754Y-23630D01*
X55769Y-23595D01*
X55778Y-23557D01*
X55779Y-23513D01*
X55779Y-29152D01*
X55264Y-29153D01*
X55264Y-25470D01*
X55257Y-25432D01*
X55242Y-25396D01*
X55221Y-25364D01*
X55193Y-25336D01*
X55161Y-25315D01*
X55126Y-25300D01*
X55088Y-25292D01*
X55049Y-25292D01*
X55011Y-25299D01*
X54976Y-25314D01*
X54943Y-25335D01*
X54916Y-25362D01*
X54894Y-25394D01*
X54879Y-25429D01*
X54871Y-25467D01*
X54870Y-25505D01*
X54877Y-25543D01*
X54891Y-25579D01*
X54912Y-25612D01*
X54939Y-25640D01*
X54971Y-25662D01*
X55006Y-25677D01*
X55044Y-25685D01*
X55082Y-25686D01*
X55120Y-25679D01*
X55156Y-25665D01*
X55189Y-25645D01*
X55217Y-25618D01*
X55239Y-25587D01*
X55255Y-25551D01*
X55263Y-25514D01*
X55264Y-25470D01*
X55264Y-29153D01*
X55137Y-29153D01*
X55137Y-28259D01*
X55013Y-28405D01*
X54745Y-28583D01*
X54745Y-14570D01*
X54735Y-14469D01*
X54707Y-14372D01*
X54660Y-14283D01*
X54597Y-14204D01*
X54519Y-14139D01*
X54431Y-14090D01*
X54334Y-14060D01*
X54234Y-14048D01*
X54226Y-14048D01*
X54221Y-14048D01*
X54121Y-14058D01*
X54024Y-14087D01*
X53935Y-14135D01*
X53856Y-14199D01*
X53792Y-14277D01*
X53744Y-14366D01*
X53714Y-14462D01*
X53703Y-14563D01*
X53712Y-14664D01*
X53741Y-14761D01*
X53788Y-14850D01*
X53851Y-14929D01*
X53929Y-14994D01*
X54017Y-15043D01*
X54114Y-15073D01*
X54214Y-15084D01*
X54221Y-15085D01*
X54226Y-15085D01*
X54327Y-15075D01*
X54424Y-15045D01*
X54513Y-14998D01*
X54591Y-14934D01*
X54656Y-14856D01*
X54704Y-14767D01*
X54734Y-14671D01*
X54745Y-14570D01*
X54745Y-28583D01*
X54696Y-28616D01*
X54696Y-15380D01*
X54689Y-15342D01*
X54674Y-15307D01*
X54653Y-15274D01*
X54626Y-15247D01*
X54594Y-15226D01*
X54558Y-15211D01*
X54520Y-15203D01*
X54482Y-15203D01*
X54444Y-15210D01*
X54408Y-15224D01*
X54376Y-15245D01*
X54348Y-15272D01*
X54326Y-15304D01*
X54311Y-15340D01*
X54303Y-15377D01*
X54302Y-15416D01*
X54309Y-15454D01*
X54324Y-15490D01*
X54344Y-15522D01*
X54371Y-15550D01*
X54403Y-15572D01*
X54438Y-15588D01*
X54476Y-15596D01*
X54515Y-15597D01*
X54553Y-15590D01*
X54589Y-15576D01*
X54621Y-15555D01*
X54649Y-15529D01*
X54671Y-15497D01*
X54687Y-15462D01*
X54696Y-15424D01*
X54696Y-15380D01*
X54696Y-28616D01*
X54607Y-28675D01*
X54607Y-20441D01*
X54599Y-20403D01*
X54584Y-20367D01*
X54563Y-20335D01*
X54536Y-20308D01*
X54504Y-20286D01*
X54468Y-20271D01*
X54430Y-20264D01*
X54392Y-20263D01*
X54354Y-20270D01*
X54318Y-20285D01*
X54286Y-20306D01*
X54258Y-20333D01*
X54236Y-20365D01*
X54221Y-20400D01*
X54213Y-20438D01*
X54213Y-20477D01*
X54220Y-20515D01*
X54234Y-20551D01*
X54255Y-20583D01*
X54282Y-20611D01*
X54313Y-20633D01*
X54349Y-20648D01*
X54386Y-20657D01*
X54425Y-20657D01*
X54463Y-20651D01*
X54499Y-20637D01*
X54532Y-20616D01*
X54559Y-20589D01*
X54582Y-20558D01*
X54597Y-20523D01*
X54606Y-20485D01*
X54607Y-20441D01*
X54607Y-28675D01*
X54275Y-28896D01*
X54275Y-20785D01*
X54268Y-20747D01*
X54253Y-20711D01*
X54232Y-20679D01*
X54204Y-20652D01*
X54172Y-20630D01*
X54137Y-20615D01*
X54099Y-20607D01*
X54060Y-20607D01*
X54022Y-20614D01*
X53987Y-20629D01*
X53954Y-20650D01*
X53936Y-20668D01*
X53936Y-19833D01*
X53929Y-19795D01*
X53914Y-19760D01*
X53893Y-19728D01*
X53865Y-19700D01*
X53833Y-19679D01*
X53798Y-19664D01*
X53760Y-19656D01*
X53721Y-19656D01*
X53683Y-19663D01*
X53676Y-19666D01*
X53676Y-15005D01*
X53669Y-14967D01*
X53654Y-14931D01*
X53633Y-14899D01*
X53606Y-14872D01*
X53574Y-14850D01*
X53538Y-14835D01*
X53500Y-14828D01*
X53461Y-14827D01*
X53424Y-14835D01*
X53388Y-14849D01*
X53355Y-14870D01*
X53328Y-14897D01*
X53306Y-14929D01*
X53291Y-14965D01*
X53283Y-15002D01*
X53282Y-15041D01*
X53289Y-15079D01*
X53303Y-15115D01*
X53324Y-15147D01*
X53351Y-15175D01*
X53383Y-15197D01*
X53418Y-15212D01*
X53456Y-15221D01*
X53495Y-15222D01*
X53533Y-15215D01*
X53569Y-15201D01*
X53601Y-15180D01*
X53629Y-15154D01*
X53651Y-15122D01*
X53667Y-15087D01*
X53676Y-15049D01*
X53676Y-15005D01*
X53676Y-19666D01*
X53648Y-19677D01*
X53615Y-19698D01*
X53588Y-19725D01*
X53566Y-19757D01*
X53551Y-19793D01*
X53543Y-19831D01*
X53542Y-19869D01*
X53549Y-19907D01*
X53563Y-19943D01*
X53584Y-19975D01*
X53611Y-20003D01*
X53643Y-20025D01*
X53678Y-20041D01*
X53716Y-20049D01*
X53754Y-20050D01*
X53792Y-20043D01*
X53828Y-20029D01*
X53861Y-20008D01*
X53889Y-19982D01*
X53911Y-19950D01*
X53927Y-19915D01*
X53936Y-19877D01*
X53936Y-19833D01*
X53936Y-20668D01*
X53927Y-20677D01*
X53905Y-20709D01*
X53890Y-20744D01*
X53882Y-20782D01*
X53881Y-20821D01*
X53888Y-20859D01*
X53902Y-20895D01*
X53923Y-20927D01*
X53950Y-20955D01*
X53982Y-20977D01*
X54017Y-20992D01*
X54055Y-21001D01*
X54093Y-21001D01*
X54131Y-20995D01*
X54167Y-20981D01*
X54200Y-20960D01*
X54228Y-20933D01*
X54250Y-20902D01*
X54266Y-20867D01*
X54274Y-20829D01*
X54275Y-20785D01*
X54275Y-28896D01*
X54178Y-28961D01*
X55000Y-28505D01*
X55000Y-29296D01*
X54969Y-29302D01*
X54912Y-29325D01*
X54860Y-29359D01*
X54816Y-29402D01*
X54781Y-29453D01*
X54757Y-29510D01*
X54744Y-29571D01*
X54743Y-29632D01*
X54754Y-29693D01*
X54777Y-29750D01*
X54811Y-29802D01*
X54853Y-29847D01*
X54904Y-29882D01*
X54961Y-29907D01*
X55021Y-29920D01*
X55083Y-29921D01*
X55144Y-29911D01*
X55201Y-29888D01*
X55253Y-29855D01*
X55298Y-29813D01*
X55334Y-29762D01*
X55359Y-29706D01*
X55373Y-29645D01*
X55374Y-29575D01*
X55362Y-29514D01*
X55338Y-29457D01*
X55304Y-29406D01*
X55260Y-29362D01*
X55209Y-29327D01*
X55169Y-29310D01*
X62805Y-29301D01*
X62805Y-29773D01*
X66132Y-29767D01*
X66132Y-29795D01*
X66140Y-29837D01*
X66155Y-29877D01*
X66178Y-29912D01*
X66208Y-29943D01*
X66243Y-29967D01*
X66282Y-29984D01*
X66323Y-29993D01*
X66366Y-29994D01*
X66407Y-29987D01*
X66447Y-29971D01*
X66483Y-29949D01*
X66514Y-29919D01*
X66538Y-29885D01*
X66555Y-29846D01*
X66565Y-29804D01*
X66565Y-29766D01*
X68218Y-29763D01*
X68218Y-33326D01*
X54665Y-33326D01*
X54665Y-33171D01*
X54665Y-33147D01*
X54665Y-32537D01*
X54660Y-32514D01*
X54651Y-32493D01*
X54638Y-32473D01*
X54622Y-32457D01*
X54603Y-32444D01*
X54581Y-32435D01*
X54558Y-32431D01*
X54535Y-32431D01*
X54204Y-32431D01*
X54204Y-31793D01*
X54199Y-31734D01*
X54182Y-31677D01*
X54154Y-31624D01*
X54117Y-31577D01*
X54071Y-31539D01*
X54019Y-31510D01*
X53962Y-31492D01*
X53903Y-31486D01*
X53899Y-31486D01*
X53777Y-31486D01*
X53718Y-31492D01*
X53661Y-31509D01*
X53623Y-31529D01*
X53623Y-24845D01*
X53616Y-24807D01*
X53601Y-24771D01*
X53580Y-24739D01*
X53552Y-24712D01*
X53520Y-24690D01*
X53496Y-24680D01*
X53496Y-21411D01*
X53496Y-21410D01*
X53496Y-16780D01*
X53489Y-16742D01*
X53474Y-16707D01*
X53453Y-16674D01*
X53426Y-16647D01*
X53394Y-16626D01*
X53358Y-16611D01*
X53320Y-16603D01*
X53282Y-16603D01*
X53244Y-16610D01*
X53208Y-16624D01*
X53176Y-16645D01*
X53148Y-16672D01*
X53126Y-16704D01*
X53111Y-16740D01*
X53103Y-16777D01*
X53102Y-16816D01*
X53109Y-16854D01*
X53124Y-16890D01*
X53144Y-16922D01*
X53171Y-16950D01*
X53203Y-16972D01*
X53238Y-16988D01*
X53276Y-16996D01*
X53315Y-16997D01*
X53353Y-16990D01*
X53389Y-16976D01*
X53421Y-16955D01*
X53449Y-16929D01*
X53471Y-16897D01*
X53487Y-16862D01*
X53496Y-16824D01*
X53496Y-16780D01*
X53496Y-21410D01*
X53489Y-21373D01*
X53474Y-21337D01*
X53453Y-21305D01*
X53440Y-21292D01*
X53440Y-18661D01*
X53433Y-18623D01*
X53418Y-18588D01*
X53418Y-18587D01*
X53418Y-18106D01*
X53410Y-18068D01*
X53396Y-18035D01*
X53396Y-17280D01*
X53389Y-17242D01*
X53374Y-17207D01*
X53353Y-17174D01*
X53326Y-17147D01*
X53294Y-17126D01*
X53258Y-17111D01*
X53220Y-17103D01*
X53182Y-17103D01*
X53144Y-17110D01*
X53108Y-17124D01*
X53076Y-17145D01*
X53048Y-17172D01*
X53026Y-17204D01*
X53011Y-17240D01*
X53003Y-17277D01*
X53002Y-17316D01*
X53009Y-17354D01*
X53024Y-17390D01*
X53044Y-17422D01*
X53071Y-17450D01*
X53103Y-17472D01*
X53138Y-17488D01*
X53176Y-17496D01*
X53215Y-17497D01*
X53253Y-17490D01*
X53289Y-17476D01*
X53321Y-17455D01*
X53349Y-17429D01*
X53371Y-17397D01*
X53387Y-17362D01*
X53396Y-17324D01*
X53396Y-17280D01*
X53396Y-18035D01*
X53395Y-18033D01*
X53374Y-18000D01*
X53347Y-17973D01*
X53315Y-17951D01*
X53279Y-17936D01*
X53241Y-17929D01*
X53203Y-17928D01*
X53165Y-17936D01*
X53129Y-17950D01*
X53097Y-17971D01*
X53069Y-17998D01*
X53047Y-18030D01*
X53032Y-18066D01*
X53024Y-18103D01*
X53024Y-18142D01*
X53031Y-18180D01*
X53045Y-18216D01*
X53066Y-18248D01*
X53093Y-18276D01*
X53124Y-18298D01*
X53160Y-18314D01*
X53197Y-18322D01*
X53236Y-18323D01*
X53274Y-18316D01*
X53310Y-18302D01*
X53343Y-18281D01*
X53370Y-18255D01*
X53393Y-18223D01*
X53408Y-18188D01*
X53417Y-18150D01*
X53418Y-18106D01*
X53418Y-18587D01*
X53397Y-18555D01*
X53370Y-18528D01*
X53338Y-18506D01*
X53302Y-18491D01*
X53264Y-18484D01*
X53226Y-18483D01*
X53188Y-18491D01*
X53152Y-18505D01*
X53120Y-18526D01*
X53092Y-18553D01*
X53070Y-18585D01*
X53055Y-18621D01*
X53047Y-18658D01*
X53046Y-18697D01*
X53053Y-18735D01*
X53068Y-18771D01*
X53089Y-18803D01*
X53115Y-18831D01*
X53147Y-18853D01*
X53182Y-18868D01*
X53220Y-18877D01*
X53259Y-18878D01*
X53297Y-18871D01*
X53333Y-18857D01*
X53365Y-18836D01*
X53393Y-18810D01*
X53416Y-18778D01*
X53431Y-18743D01*
X53440Y-18705D01*
X53440Y-18661D01*
X53440Y-21292D01*
X53426Y-21277D01*
X53394Y-21256D01*
X53358Y-21241D01*
X53320Y-21233D01*
X53282Y-21233D01*
X53244Y-21240D01*
X53208Y-21255D01*
X53176Y-21276D01*
X53148Y-21303D01*
X53126Y-21335D01*
X53111Y-21370D01*
X53103Y-21408D01*
X53102Y-21446D01*
X53109Y-21484D01*
X53124Y-21520D01*
X53144Y-21553D01*
X53171Y-21580D01*
X53203Y-21603D01*
X53238Y-21618D01*
X53276Y-21626D01*
X53315Y-21627D01*
X53353Y-21620D01*
X53389Y-21606D01*
X53421Y-21586D01*
X53449Y-21559D01*
X53472Y-21528D01*
X53487Y-21492D01*
X53496Y-21455D01*
X53496Y-21411D01*
X53496Y-24680D01*
X53486Y-24675D01*
X53486Y-22501D01*
X53486Y-21988D01*
X53478Y-21950D01*
X53464Y-21915D01*
X53442Y-21882D01*
X53415Y-21855D01*
X53383Y-21833D01*
X53347Y-21818D01*
X53310Y-21811D01*
X53271Y-21810D01*
X53233Y-21818D01*
X53197Y-21832D01*
X53165Y-21853D01*
X53137Y-21880D01*
X53116Y-21912D01*
X53100Y-21948D01*
X53092Y-21985D01*
X53092Y-22024D01*
X53099Y-22062D01*
X53113Y-22098D01*
X53134Y-22130D01*
X53161Y-22158D01*
X53192Y-22180D01*
X53228Y-22195D01*
X53265Y-22204D01*
X53304Y-22205D01*
X53342Y-22198D01*
X53378Y-22184D01*
X53411Y-22163D01*
X53439Y-22137D01*
X53461Y-22105D01*
X53477Y-22070D01*
X53485Y-22032D01*
X53486Y-21988D01*
X53486Y-22501D01*
X53478Y-22464D01*
X53464Y-22428D01*
X53442Y-22396D01*
X53415Y-22368D01*
X53383Y-22347D01*
X53347Y-22332D01*
X53310Y-22324D01*
X53271Y-22324D01*
X53233Y-22331D01*
X53197Y-22345D01*
X53165Y-22367D01*
X53137Y-22394D01*
X53116Y-22425D01*
X53100Y-22461D01*
X53092Y-22499D01*
X53092Y-22537D01*
X53099Y-22575D01*
X53113Y-22611D01*
X53134Y-22644D01*
X53161Y-22671D01*
X53192Y-22693D01*
X53228Y-22709D01*
X53265Y-22717D01*
X53304Y-22718D01*
X53342Y-22711D01*
X53378Y-22697D01*
X53411Y-22677D01*
X53439Y-22650D01*
X53461Y-22618D01*
X53477Y-22583D01*
X53485Y-22546D01*
X53486Y-22501D01*
X53486Y-24675D01*
X53485Y-24675D01*
X53447Y-24667D01*
X53408Y-24667D01*
X53370Y-24674D01*
X53335Y-24689D01*
X53302Y-24710D01*
X53275Y-24737D01*
X53253Y-24769D01*
X53238Y-24804D01*
X53230Y-24842D01*
X53229Y-24881D01*
X53236Y-24918D01*
X53250Y-24954D01*
X53271Y-24987D01*
X53298Y-25015D01*
X53330Y-25037D01*
X53365Y-25052D01*
X53403Y-25060D01*
X53441Y-25061D01*
X53479Y-25054D01*
X53515Y-25041D01*
X53548Y-25020D01*
X53576Y-24993D01*
X53598Y-24962D01*
X53614Y-24926D01*
X53623Y-24889D01*
X53623Y-24845D01*
X53623Y-31529D01*
X53608Y-31537D01*
X53562Y-31574D01*
X53524Y-31620D01*
X53496Y-31673D01*
X53478Y-31729D01*
X53472Y-31789D01*
X53478Y-31848D01*
X53494Y-31905D01*
X53522Y-31958D01*
X53559Y-32004D01*
X53605Y-32043D01*
X53657Y-32071D01*
X53714Y-32089D01*
X53773Y-32096D01*
X53777Y-32096D01*
X53899Y-32096D01*
X53958Y-32090D01*
X54015Y-32073D01*
X54068Y-32045D01*
X54114Y-32007D01*
X54152Y-31961D01*
X54180Y-31909D01*
X54198Y-31852D01*
X54204Y-31793D01*
X54204Y-32431D01*
X53748Y-32431D01*
X53725Y-32435D01*
X53703Y-32444D01*
X53684Y-32457D01*
X53668Y-32473D01*
X53655Y-32493D01*
X53646Y-32514D01*
X53641Y-32537D01*
X53641Y-32560D01*
X53641Y-33171D01*
X53646Y-33193D01*
X53655Y-33215D01*
X53668Y-33234D01*
X53684Y-33251D01*
X53703Y-33264D01*
X53725Y-33273D01*
X53748Y-33277D01*
X53771Y-33277D01*
X54558Y-33277D01*
X54581Y-33273D01*
X54603Y-33264D01*
X54622Y-33251D01*
X54638Y-33234D01*
X54651Y-33215D01*
X54660Y-33193D01*
X54665Y-33171D01*
X54665Y-33326D01*
X52585Y-33326D01*
X52585Y-25546D01*
X52585Y-14860D01*
X52577Y-14822D01*
X52562Y-14787D01*
X52541Y-14755D01*
X52514Y-14727D01*
X52482Y-14706D01*
X52446Y-14691D01*
X52408Y-14683D01*
X52370Y-14683D01*
X52332Y-14690D01*
X52296Y-14704D01*
X52264Y-14725D01*
X52236Y-14752D01*
X52214Y-14784D01*
X52199Y-14820D01*
X52191Y-14858D01*
X52191Y-14896D01*
X52198Y-14934D01*
X52212Y-14970D01*
X52233Y-15002D01*
X52259Y-15030D01*
X52291Y-15052D01*
X52327Y-15068D01*
X52364Y-15076D01*
X52403Y-15077D01*
X52441Y-15070D01*
X52477Y-15056D01*
X52509Y-15035D01*
X52537Y-15009D01*
X52560Y-14977D01*
X52575Y-14942D01*
X52584Y-14904D01*
X52585Y-14860D01*
X52585Y-25546D01*
X52577Y-25508D01*
X52562Y-25472D01*
X52541Y-25440D01*
X52514Y-25412D01*
X52482Y-25391D01*
X52446Y-25376D01*
X52408Y-25368D01*
X52370Y-25368D01*
X52332Y-25375D01*
X52296Y-25390D01*
X52264Y-25411D01*
X52236Y-25438D01*
X52214Y-25470D01*
X52199Y-25505D01*
X52191Y-25543D01*
X52191Y-25581D01*
X52198Y-25619D01*
X52212Y-25655D01*
X52233Y-25688D01*
X52259Y-25715D01*
X52291Y-25738D01*
X52327Y-25753D01*
X52364Y-25761D01*
X52403Y-25762D01*
X52441Y-25755D01*
X52477Y-25741D01*
X52509Y-25721D01*
X52537Y-25694D01*
X52560Y-25663D01*
X52575Y-25627D01*
X52584Y-25590D01*
X52585Y-25546D01*
X52585Y-33326D01*
X52236Y-33326D01*
X52236Y-31793D01*
X52230Y-31734D01*
X52213Y-31677D01*
X52186Y-31624D01*
X52165Y-31598D01*
X52165Y-29890D01*
X52153Y-29829D01*
X52129Y-29772D01*
X52095Y-29721D01*
X52052Y-29677D01*
X52000Y-29642D01*
X51943Y-29618D01*
X51883Y-29606D01*
X51821Y-29606D01*
X51761Y-29617D01*
X51703Y-29640D01*
X51652Y-29674D01*
X51607Y-29717D01*
X51573Y-29768D01*
X51548Y-29825D01*
X51535Y-29885D01*
X51535Y-29947D01*
X51546Y-30008D01*
X51568Y-30065D01*
X51602Y-30117D01*
X51645Y-30162D01*
X51695Y-30197D01*
X51752Y-30222D01*
X51812Y-30235D01*
X51874Y-30236D01*
X51935Y-30226D01*
X51993Y-30203D01*
X52045Y-30170D01*
X52089Y-30128D01*
X52125Y-30077D01*
X52150Y-30021D01*
X52164Y-29960D01*
X52165Y-29890D01*
X52165Y-31598D01*
X52148Y-31577D01*
X52103Y-31539D01*
X52051Y-31510D01*
X51994Y-31492D01*
X51935Y-31486D01*
X51930Y-31486D01*
X51809Y-31486D01*
X51749Y-31492D01*
X51692Y-31509D01*
X51640Y-31537D01*
X51594Y-31574D01*
X51556Y-31620D01*
X51527Y-31673D01*
X51510Y-31729D01*
X51504Y-31789D01*
X51509Y-31848D01*
X51526Y-31905D01*
X51553Y-31958D01*
X51591Y-32004D01*
X51636Y-32043D01*
X51689Y-32071D01*
X51745Y-32089D01*
X51805Y-32096D01*
X51809Y-32096D01*
X51930Y-32096D01*
X51990Y-32090D01*
X52047Y-32073D01*
X52099Y-32045D01*
X52145Y-32007D01*
X52183Y-31961D01*
X52212Y-31909D01*
X52229Y-31852D01*
X52236Y-31793D01*
X52236Y-33326D01*
X52066Y-33326D01*
X52066Y-33171D01*
X52066Y-33147D01*
X52066Y-32537D01*
X52062Y-32514D01*
X52053Y-32493D01*
X52040Y-32473D01*
X52024Y-32457D01*
X52004Y-32444D01*
X51983Y-32435D01*
X51960Y-32431D01*
X51937Y-32431D01*
X51351Y-32431D01*
X51351Y-27714D01*
X51351Y-27710D01*
X51351Y-26714D01*
X51351Y-26710D01*
X51351Y-25714D01*
X51351Y-25710D01*
X51351Y-24714D01*
X51351Y-24710D01*
X51351Y-23714D01*
X51351Y-23710D01*
X51351Y-22714D01*
X51351Y-22710D01*
X51351Y-21714D01*
X51351Y-21710D01*
X51351Y-20714D01*
X51351Y-20710D01*
X51351Y-19714D01*
X51351Y-19710D01*
X51351Y-17537D01*
X51351Y-17533D01*
X51351Y-16537D01*
X51351Y-16533D01*
X51351Y-15537D01*
X51351Y-15533D01*
X51351Y-14537D01*
X51351Y-14533D01*
X51343Y-14444D01*
X51317Y-14358D01*
X51275Y-14279D01*
X51218Y-14210D01*
X51149Y-14153D01*
X51071Y-14110D01*
X50985Y-14084D01*
X50896Y-14075D01*
X50807Y-14083D01*
X50722Y-14108D01*
X50642Y-14149D01*
X50573Y-14205D01*
X50515Y-14274D01*
X50472Y-14352D01*
X50445Y-14437D01*
X50435Y-14526D01*
X50435Y-14533D01*
X50435Y-14537D01*
X50444Y-14626D01*
X50470Y-14712D01*
X50512Y-14791D01*
X50568Y-14860D01*
X50637Y-14917D01*
X50716Y-14959D01*
X50801Y-14986D01*
X50890Y-14995D01*
X50979Y-14987D01*
X51065Y-14962D01*
X51144Y-14920D01*
X51214Y-14864D01*
X51271Y-14796D01*
X51314Y-14718D01*
X51341Y-14632D01*
X51351Y-14544D01*
X51351Y-14537D01*
X51351Y-15533D01*
X51343Y-15444D01*
X51317Y-15358D01*
X51275Y-15279D01*
X51218Y-15210D01*
X51149Y-15153D01*
X51071Y-15110D01*
X50985Y-15084D01*
X50896Y-15075D01*
X50807Y-15083D01*
X50722Y-15108D01*
X50642Y-15149D01*
X50573Y-15205D01*
X50515Y-15274D01*
X50472Y-15352D01*
X50445Y-15437D01*
X50435Y-15526D01*
X50435Y-15533D01*
X50435Y-15537D01*
X50444Y-15626D01*
X50470Y-15712D01*
X50512Y-15791D01*
X50568Y-15860D01*
X50637Y-15917D01*
X50716Y-15959D01*
X50801Y-15986D01*
X50890Y-15995D01*
X50979Y-15987D01*
X51065Y-15962D01*
X51144Y-15920D01*
X51214Y-15864D01*
X51271Y-15796D01*
X51314Y-15718D01*
X51341Y-15632D01*
X51351Y-15544D01*
X51351Y-15537D01*
X51351Y-16533D01*
X51343Y-16444D01*
X51317Y-16358D01*
X51275Y-16279D01*
X51218Y-16210D01*
X51149Y-16153D01*
X51071Y-16110D01*
X50985Y-16084D01*
X50896Y-16075D01*
X50807Y-16083D01*
X50722Y-16108D01*
X50642Y-16149D01*
X50573Y-16205D01*
X50515Y-16274D01*
X50472Y-16352D01*
X50445Y-16437D01*
X50435Y-16526D01*
X50435Y-16533D01*
X50435Y-16537D01*
X50444Y-16626D01*
X50470Y-16712D01*
X50512Y-16791D01*
X50568Y-16860D01*
X50637Y-16917D01*
X50716Y-16959D01*
X50801Y-16986D01*
X50890Y-16995D01*
X50979Y-16987D01*
X51065Y-16962D01*
X51144Y-16920D01*
X51214Y-16864D01*
X51271Y-16796D01*
X51314Y-16718D01*
X51341Y-16632D01*
X51351Y-16544D01*
X51351Y-16537D01*
X51351Y-17533D01*
X51343Y-17444D01*
X51317Y-17358D01*
X51275Y-17279D01*
X51218Y-17210D01*
X51149Y-17153D01*
X51071Y-17110D01*
X50985Y-17084D01*
X50896Y-17075D01*
X50807Y-17083D01*
X50722Y-17108D01*
X50642Y-17149D01*
X50573Y-17205D01*
X50515Y-17274D01*
X50472Y-17352D01*
X50445Y-17437D01*
X50435Y-17526D01*
X50435Y-17533D01*
X50435Y-17537D01*
X50444Y-17626D01*
X50470Y-17712D01*
X50512Y-17791D01*
X50568Y-17860D01*
X50637Y-17917D01*
X50716Y-17959D01*
X50801Y-17986D01*
X50890Y-17995D01*
X50979Y-17987D01*
X51065Y-17962D01*
X51144Y-17920D01*
X51214Y-17864D01*
X51271Y-17796D01*
X51314Y-17718D01*
X51341Y-17632D01*
X51351Y-17544D01*
X51351Y-17537D01*
X51351Y-19710D01*
X51343Y-19621D01*
X51317Y-19535D01*
X51275Y-19456D01*
X51218Y-19387D01*
X51149Y-19330D01*
X51071Y-19288D01*
X50985Y-19261D01*
X50896Y-19252D01*
X50807Y-19260D01*
X50722Y-19285D01*
X50642Y-19327D01*
X50573Y-19383D01*
X50515Y-19451D01*
X50472Y-19529D01*
X50445Y-19615D01*
X50435Y-19703D01*
X50435Y-19710D01*
X50435Y-19714D01*
X50444Y-19803D01*
X50470Y-19889D01*
X50512Y-19968D01*
X50568Y-20037D01*
X50637Y-20094D01*
X50716Y-20137D01*
X50801Y-20163D01*
X50890Y-20172D01*
X50979Y-20164D01*
X51065Y-20139D01*
X51144Y-20098D01*
X51214Y-20042D01*
X51271Y-19973D01*
X51314Y-19895D01*
X51341Y-19810D01*
X51351Y-19721D01*
X51351Y-19714D01*
X51351Y-20710D01*
X51343Y-20621D01*
X51317Y-20535D01*
X51275Y-20456D01*
X51218Y-20387D01*
X51149Y-20330D01*
X51071Y-20288D01*
X50985Y-20261D01*
X50896Y-20252D01*
X50807Y-20260D01*
X50722Y-20285D01*
X50642Y-20327D01*
X50573Y-20383D01*
X50515Y-20451D01*
X50472Y-20529D01*
X50445Y-20615D01*
X50435Y-20703D01*
X50435Y-20710D01*
X50435Y-20714D01*
X50444Y-20803D01*
X50470Y-20889D01*
X50512Y-20968D01*
X50568Y-21037D01*
X50637Y-21094D01*
X50716Y-21137D01*
X50801Y-21163D01*
X50890Y-21172D01*
X50979Y-21164D01*
X51065Y-21139D01*
X51144Y-21098D01*
X51214Y-21042D01*
X51271Y-20973D01*
X51314Y-20895D01*
X51341Y-20810D01*
X51351Y-20721D01*
X51351Y-20714D01*
X51351Y-21710D01*
X51343Y-21621D01*
X51317Y-21535D01*
X51275Y-21456D01*
X51218Y-21387D01*
X51149Y-21330D01*
X51071Y-21288D01*
X50985Y-21261D01*
X50896Y-21252D01*
X50807Y-21260D01*
X50722Y-21285D01*
X50642Y-21327D01*
X50573Y-21383D01*
X50515Y-21451D01*
X50472Y-21529D01*
X50445Y-21615D01*
X50435Y-21703D01*
X50435Y-21710D01*
X50435Y-21714D01*
X50444Y-21803D01*
X50470Y-21889D01*
X50512Y-21968D01*
X50568Y-22037D01*
X50637Y-22094D01*
X50716Y-22137D01*
X50801Y-22163D01*
X50890Y-22172D01*
X50979Y-22164D01*
X51065Y-22139D01*
X51144Y-22098D01*
X51214Y-22042D01*
X51271Y-21973D01*
X51314Y-21895D01*
X51341Y-21810D01*
X51351Y-21721D01*
X51351Y-21714D01*
X51351Y-22710D01*
X51343Y-22621D01*
X51317Y-22535D01*
X51275Y-22456D01*
X51218Y-22387D01*
X51149Y-22330D01*
X51071Y-22288D01*
X50985Y-22261D01*
X50896Y-22252D01*
X50807Y-22260D01*
X50722Y-22285D01*
X50642Y-22327D01*
X50573Y-22383D01*
X50515Y-22451D01*
X50472Y-22529D01*
X50445Y-22615D01*
X50435Y-22703D01*
X50435Y-22710D01*
X50435Y-22714D01*
X50444Y-22803D01*
X50470Y-22889D01*
X50512Y-22968D01*
X50568Y-23037D01*
X50637Y-23094D01*
X50716Y-23137D01*
X50801Y-23163D01*
X50890Y-23172D01*
X50979Y-23164D01*
X51065Y-23139D01*
X51144Y-23098D01*
X51214Y-23042D01*
X51271Y-22973D01*
X51314Y-22895D01*
X51341Y-22810D01*
X51351Y-22721D01*
X51351Y-22714D01*
X51351Y-23710D01*
X51343Y-23621D01*
X51317Y-23535D01*
X51275Y-23456D01*
X51218Y-23387D01*
X51149Y-23330D01*
X51071Y-23288D01*
X50985Y-23261D01*
X50896Y-23252D01*
X50807Y-23260D01*
X50722Y-23285D01*
X50642Y-23327D01*
X50573Y-23383D01*
X50515Y-23451D01*
X50472Y-23529D01*
X50445Y-23615D01*
X50435Y-23703D01*
X50435Y-23710D01*
X50435Y-23714D01*
X50444Y-23803D01*
X50470Y-23889D01*
X50512Y-23968D01*
X50568Y-24037D01*
X50637Y-24094D01*
X50716Y-24137D01*
X50801Y-24163D01*
X50890Y-24172D01*
X50979Y-24164D01*
X51065Y-24139D01*
X51144Y-24098D01*
X51214Y-24042D01*
X51271Y-23973D01*
X51314Y-23895D01*
X51341Y-23810D01*
X51351Y-23721D01*
X51351Y-23714D01*
X51351Y-24710D01*
X51343Y-24621D01*
X51317Y-24535D01*
X51275Y-24456D01*
X51218Y-24387D01*
X51149Y-24330D01*
X51071Y-24288D01*
X50985Y-24261D01*
X50896Y-24252D01*
X50807Y-24260D01*
X50722Y-24285D01*
X50642Y-24327D01*
X50573Y-24383D01*
X50515Y-24451D01*
X50472Y-24529D01*
X50445Y-24615D01*
X50435Y-24703D01*
X50435Y-24710D01*
X50435Y-24714D01*
X50444Y-24803D01*
X50470Y-24889D01*
X50512Y-24968D01*
X50568Y-25037D01*
X50637Y-25094D01*
X50716Y-25137D01*
X50801Y-25163D01*
X50890Y-25172D01*
X50979Y-25164D01*
X51065Y-25139D01*
X51144Y-25098D01*
X51214Y-25042D01*
X51271Y-24973D01*
X51314Y-24895D01*
X51341Y-24810D01*
X51351Y-24721D01*
X51351Y-24714D01*
X51351Y-25710D01*
X51343Y-25621D01*
X51317Y-25535D01*
X51275Y-25456D01*
X51218Y-25387D01*
X51149Y-25330D01*
X51071Y-25288D01*
X50985Y-25261D01*
X50896Y-25252D01*
X50807Y-25260D01*
X50722Y-25285D01*
X50642Y-25327D01*
X50573Y-25383D01*
X50515Y-25451D01*
X50472Y-25529D01*
X50445Y-25615D01*
X50435Y-25703D01*
X50435Y-25710D01*
X50435Y-25714D01*
X50444Y-25803D01*
X50470Y-25889D01*
X50512Y-25968D01*
X50568Y-26037D01*
X50637Y-26094D01*
X50716Y-26137D01*
X50801Y-26163D01*
X50890Y-26172D01*
X50979Y-26164D01*
X51065Y-26139D01*
X51144Y-26098D01*
X51214Y-26042D01*
X51271Y-25973D01*
X51314Y-25895D01*
X51341Y-25810D01*
X51351Y-25721D01*
X51351Y-25714D01*
X51351Y-26710D01*
X51343Y-26621D01*
X51317Y-26535D01*
X51275Y-26456D01*
X51218Y-26387D01*
X51149Y-26330D01*
X51071Y-26288D01*
X50985Y-26261D01*
X50896Y-26252D01*
X50807Y-26260D01*
X50722Y-26285D01*
X50642Y-26327D01*
X50573Y-26383D01*
X50515Y-26451D01*
X50472Y-26529D01*
X50445Y-26615D01*
X50435Y-26703D01*
X50435Y-26710D01*
X50435Y-26714D01*
X50444Y-26803D01*
X50470Y-26889D01*
X50512Y-26968D01*
X50568Y-27037D01*
X50637Y-27094D01*
X50716Y-27137D01*
X50801Y-27163D01*
X50890Y-27172D01*
X50979Y-27164D01*
X51065Y-27139D01*
X51144Y-27098D01*
X51214Y-27042D01*
X51271Y-26973D01*
X51314Y-26895D01*
X51341Y-26810D01*
X51351Y-26721D01*
X51351Y-26714D01*
X51351Y-27710D01*
X51343Y-27621D01*
X51317Y-27535D01*
X51275Y-27456D01*
X51218Y-27387D01*
X51149Y-27330D01*
X51071Y-27288D01*
X50985Y-27261D01*
X50896Y-27252D01*
X50807Y-27260D01*
X50722Y-27285D01*
X50642Y-27327D01*
X50573Y-27383D01*
X50515Y-27451D01*
X50472Y-27529D01*
X50445Y-27615D01*
X50435Y-27703D01*
X50435Y-27710D01*
X50435Y-27714D01*
X50444Y-27803D01*
X50470Y-27889D01*
X50512Y-27968D01*
X50568Y-28037D01*
X50637Y-28094D01*
X50716Y-28137D01*
X50801Y-28163D01*
X50890Y-28172D01*
X50979Y-28164D01*
X51065Y-28139D01*
X51144Y-28098D01*
X51214Y-28042D01*
X51271Y-27973D01*
X51314Y-27895D01*
X51341Y-27810D01*
X51351Y-27721D01*
X51351Y-27714D01*
X51351Y-32431D01*
X51149Y-32431D01*
X51126Y-32435D01*
X51105Y-32444D01*
X51086Y-32457D01*
X51069Y-32473D01*
X51056Y-32493D01*
X51047Y-32514D01*
X51043Y-32537D01*
X51043Y-32560D01*
X51043Y-33171D01*
X51047Y-33193D01*
X51056Y-33215D01*
X51069Y-33234D01*
X51086Y-33251D01*
X51105Y-33264D01*
X51126Y-33273D01*
X51149Y-33277D01*
X51173Y-33277D01*
X51960Y-33277D01*
X51983Y-33273D01*
X52004Y-33264D01*
X52024Y-33251D01*
X52040Y-33234D01*
X52053Y-33215D01*
X52062Y-33193D01*
X52066Y-33171D01*
X52066Y-33326D01*
X50419Y-33326D01*
X50419Y-32195D01*
X50419Y-32171D01*
X50419Y-31371D01*
X50415Y-31349D01*
X50406Y-31327D01*
X50393Y-31308D01*
X50376Y-31291D01*
X50357Y-31278D01*
X50351Y-31276D01*
X50351Y-28714D01*
X50351Y-28710D01*
X50351Y-27714D01*
X50351Y-27710D01*
X50351Y-26714D01*
X50351Y-26710D01*
X50351Y-25714D01*
X50351Y-25710D01*
X50351Y-24714D01*
X50351Y-24710D01*
X50351Y-23714D01*
X50351Y-23710D01*
X50351Y-22714D01*
X50351Y-22710D01*
X50351Y-21714D01*
X50351Y-21710D01*
X50351Y-20714D01*
X50351Y-20710D01*
X50351Y-19714D01*
X50351Y-19710D01*
X50351Y-18537D01*
X50351Y-18533D01*
X50351Y-17537D01*
X50351Y-17533D01*
X50351Y-16537D01*
X50351Y-16533D01*
X50351Y-15537D01*
X50351Y-15533D01*
X50351Y-14537D01*
X50351Y-14533D01*
X50343Y-14444D01*
X50317Y-14358D01*
X50275Y-14279D01*
X50218Y-14210D01*
X50149Y-14153D01*
X50071Y-14110D01*
X49985Y-14084D01*
X49896Y-14075D01*
X49807Y-14083D01*
X49722Y-14108D01*
X49642Y-14149D01*
X49573Y-14205D01*
X49515Y-14274D01*
X49472Y-14352D01*
X49445Y-14437D01*
X49435Y-14526D01*
X49435Y-14533D01*
X49435Y-14537D01*
X49444Y-14626D01*
X49470Y-14712D01*
X49512Y-14791D01*
X49568Y-14860D01*
X49637Y-14917D01*
X49716Y-14959D01*
X49801Y-14986D01*
X49890Y-14995D01*
X49979Y-14987D01*
X50065Y-14962D01*
X50144Y-14920D01*
X50214Y-14864D01*
X50271Y-14796D01*
X50314Y-14718D01*
X50341Y-14632D01*
X50351Y-14544D01*
X50351Y-14537D01*
X50351Y-15533D01*
X50343Y-15444D01*
X50317Y-15358D01*
X50275Y-15279D01*
X50218Y-15210D01*
X50149Y-15153D01*
X50071Y-15110D01*
X49985Y-15084D01*
X49896Y-15075D01*
X49807Y-15083D01*
X49722Y-15108D01*
X49642Y-15149D01*
X49573Y-15205D01*
X49515Y-15274D01*
X49472Y-15352D01*
X49445Y-15437D01*
X49435Y-15526D01*
X49435Y-15533D01*
X49435Y-15537D01*
X49444Y-15626D01*
X49470Y-15712D01*
X49512Y-15791D01*
X49568Y-15860D01*
X49637Y-15917D01*
X49716Y-15959D01*
X49801Y-15986D01*
X49890Y-15995D01*
X49979Y-15987D01*
X50065Y-15962D01*
X50144Y-15920D01*
X50214Y-15864D01*
X50271Y-15796D01*
X50314Y-15718D01*
X50341Y-15632D01*
X50351Y-15544D01*
X50351Y-15537D01*
X50351Y-16533D01*
X50343Y-16444D01*
X50317Y-16358D01*
X50275Y-16279D01*
X50218Y-16210D01*
X50149Y-16153D01*
X50071Y-16110D01*
X49985Y-16084D01*
X49896Y-16075D01*
X49807Y-16083D01*
X49722Y-16108D01*
X49642Y-16149D01*
X49573Y-16205D01*
X49515Y-16274D01*
X49472Y-16352D01*
X49445Y-16437D01*
X49435Y-16526D01*
X49435Y-16533D01*
X49435Y-16537D01*
X49444Y-16626D01*
X49470Y-16712D01*
X49512Y-16791D01*
X49568Y-16860D01*
X49637Y-16917D01*
X49716Y-16959D01*
X49801Y-16986D01*
X49890Y-16995D01*
X49979Y-16987D01*
X50065Y-16962D01*
X50144Y-16920D01*
X50214Y-16864D01*
X50271Y-16796D01*
X50314Y-16718D01*
X50341Y-16632D01*
X50351Y-16544D01*
X50351Y-16537D01*
X50351Y-17533D01*
X50343Y-17444D01*
X50317Y-17358D01*
X50275Y-17279D01*
X50218Y-17210D01*
X50149Y-17153D01*
X50071Y-17110D01*
X49985Y-17084D01*
X49896Y-17075D01*
X49807Y-17083D01*
X49722Y-17108D01*
X49642Y-17149D01*
X49573Y-17205D01*
X49515Y-17274D01*
X49472Y-17352D01*
X49445Y-17437D01*
X49435Y-17526D01*
X49435Y-17533D01*
X49435Y-17537D01*
X49444Y-17626D01*
X49470Y-17712D01*
X49512Y-17791D01*
X49568Y-17860D01*
X49637Y-17917D01*
X49716Y-17959D01*
X49801Y-17986D01*
X49890Y-17995D01*
X49979Y-17987D01*
X50065Y-17962D01*
X50144Y-17920D01*
X50214Y-17864D01*
X50271Y-17796D01*
X50314Y-17718D01*
X50341Y-17632D01*
X50351Y-17544D01*
X50351Y-17537D01*
X50351Y-18533D01*
X50343Y-18444D01*
X50317Y-18358D01*
X50275Y-18279D01*
X50218Y-18210D01*
X50149Y-18153D01*
X50071Y-18110D01*
X49985Y-18084D01*
X49896Y-18075D01*
X49807Y-18083D01*
X49722Y-18108D01*
X49642Y-18149D01*
X49573Y-18205D01*
X49515Y-18274D01*
X49472Y-18352D01*
X49445Y-18437D01*
X49435Y-18526D01*
X49435Y-18533D01*
X49435Y-18537D01*
X49444Y-18626D01*
X49470Y-18712D01*
X49512Y-18791D01*
X49568Y-18860D01*
X49637Y-18917D01*
X49716Y-18959D01*
X49801Y-18986D01*
X49890Y-18995D01*
X49979Y-18987D01*
X50065Y-18962D01*
X50144Y-18920D01*
X50214Y-18864D01*
X50271Y-18796D01*
X50314Y-18718D01*
X50341Y-18632D01*
X50351Y-18544D01*
X50351Y-18537D01*
X50351Y-19710D01*
X50343Y-19621D01*
X50317Y-19535D01*
X50275Y-19456D01*
X50218Y-19387D01*
X50149Y-19330D01*
X50071Y-19288D01*
X49985Y-19261D01*
X49896Y-19252D01*
X49807Y-19260D01*
X49722Y-19285D01*
X49642Y-19327D01*
X49573Y-19383D01*
X49515Y-19451D01*
X49472Y-19529D01*
X49445Y-19615D01*
X49435Y-19703D01*
X49435Y-19710D01*
X49435Y-19714D01*
X49444Y-19803D01*
X49470Y-19889D01*
X49512Y-19968D01*
X49568Y-20037D01*
X49637Y-20094D01*
X49716Y-20137D01*
X49801Y-20163D01*
X49890Y-20172D01*
X49979Y-20164D01*
X50065Y-20139D01*
X50144Y-20098D01*
X50214Y-20042D01*
X50271Y-19973D01*
X50314Y-19895D01*
X50341Y-19810D01*
X50351Y-19721D01*
X50351Y-19714D01*
X50351Y-20710D01*
X50343Y-20621D01*
X50317Y-20535D01*
X50275Y-20456D01*
X50218Y-20387D01*
X50149Y-20330D01*
X50071Y-20288D01*
X49985Y-20261D01*
X49896Y-20252D01*
X49807Y-20260D01*
X49722Y-20285D01*
X49642Y-20327D01*
X49573Y-20383D01*
X49515Y-20451D01*
X49472Y-20529D01*
X49445Y-20615D01*
X49435Y-20703D01*
X49435Y-20710D01*
X49435Y-20714D01*
X49444Y-20803D01*
X49470Y-20889D01*
X49512Y-20968D01*
X49568Y-21037D01*
X49637Y-21094D01*
X49716Y-21137D01*
X49801Y-21163D01*
X49890Y-21172D01*
X49979Y-21164D01*
X50065Y-21139D01*
X50144Y-21098D01*
X50214Y-21042D01*
X50271Y-20973D01*
X50314Y-20895D01*
X50341Y-20810D01*
X50351Y-20721D01*
X50351Y-20714D01*
X50351Y-21710D01*
X50343Y-21621D01*
X50317Y-21535D01*
X50275Y-21456D01*
X50218Y-21387D01*
X50149Y-21330D01*
X50071Y-21288D01*
X49985Y-21261D01*
X49896Y-21252D01*
X49807Y-21260D01*
X49722Y-21285D01*
X49642Y-21327D01*
X49573Y-21383D01*
X49515Y-21451D01*
X49472Y-21529D01*
X49445Y-21615D01*
X49435Y-21703D01*
X49435Y-21710D01*
X49435Y-21714D01*
X49444Y-21803D01*
X49470Y-21889D01*
X49512Y-21968D01*
X49568Y-22037D01*
X49637Y-22094D01*
X49716Y-22137D01*
X49801Y-22163D01*
X49890Y-22172D01*
X49979Y-22164D01*
X50065Y-22139D01*
X50144Y-22098D01*
X50214Y-22042D01*
X50271Y-21973D01*
X50314Y-21895D01*
X50341Y-21810D01*
X50351Y-21721D01*
X50351Y-21714D01*
X50351Y-22710D01*
X50343Y-22621D01*
X50317Y-22535D01*
X50275Y-22456D01*
X50218Y-22387D01*
X50149Y-22330D01*
X50071Y-22288D01*
X49985Y-22261D01*
X49896Y-22252D01*
X49807Y-22260D01*
X49722Y-22285D01*
X49642Y-22327D01*
X49573Y-22383D01*
X49515Y-22451D01*
X49472Y-22529D01*
X49445Y-22615D01*
X49435Y-22703D01*
X49435Y-22710D01*
X49435Y-22714D01*
X49444Y-22803D01*
X49470Y-22889D01*
X49512Y-22968D01*
X49568Y-23037D01*
X49637Y-23094D01*
X49716Y-23137D01*
X49801Y-23163D01*
X49890Y-23172D01*
X49979Y-23164D01*
X50065Y-23139D01*
X50144Y-23098D01*
X50214Y-23042D01*
X50271Y-22973D01*
X50314Y-22895D01*
X50341Y-22810D01*
X50351Y-22721D01*
X50351Y-22714D01*
X50351Y-23710D01*
X50343Y-23621D01*
X50317Y-23535D01*
X50275Y-23456D01*
X50218Y-23387D01*
X50149Y-23330D01*
X50071Y-23288D01*
X49985Y-23261D01*
X49896Y-23252D01*
X49807Y-23260D01*
X49722Y-23285D01*
X49642Y-23327D01*
X49573Y-23383D01*
X49515Y-23451D01*
X49472Y-23529D01*
X49445Y-23615D01*
X49435Y-23703D01*
X49435Y-23710D01*
X49435Y-23714D01*
X49444Y-23803D01*
X49470Y-23889D01*
X49512Y-23968D01*
X49568Y-24037D01*
X49637Y-24094D01*
X49716Y-24137D01*
X49801Y-24163D01*
X49890Y-24172D01*
X49979Y-24164D01*
X50065Y-24139D01*
X50144Y-24098D01*
X50214Y-24042D01*
X50271Y-23973D01*
X50314Y-23895D01*
X50341Y-23810D01*
X50351Y-23721D01*
X50351Y-23714D01*
X50351Y-24710D01*
X50343Y-24621D01*
X50317Y-24535D01*
X50275Y-24456D01*
X50218Y-24387D01*
X50149Y-24330D01*
X50071Y-24288D01*
X49985Y-24261D01*
X49896Y-24252D01*
X49807Y-24260D01*
X49722Y-24285D01*
X49642Y-24327D01*
X49573Y-24383D01*
X49515Y-24451D01*
X49472Y-24529D01*
X49445Y-24615D01*
X49435Y-24703D01*
X49435Y-24710D01*
X49435Y-24714D01*
X49444Y-24803D01*
X49470Y-24889D01*
X49512Y-24968D01*
X49568Y-25037D01*
X49637Y-25094D01*
X49716Y-25137D01*
X49801Y-25163D01*
X49890Y-25172D01*
X49979Y-25164D01*
X50065Y-25139D01*
X50144Y-25098D01*
X50214Y-25042D01*
X50271Y-24973D01*
X50314Y-24895D01*
X50341Y-24810D01*
X50351Y-24721D01*
X50351Y-24714D01*
X50351Y-25710D01*
X50343Y-25621D01*
X50317Y-25535D01*
X50275Y-25456D01*
X50218Y-25387D01*
X50149Y-25330D01*
X50071Y-25288D01*
X49985Y-25261D01*
X49896Y-25252D01*
X49807Y-25260D01*
X49722Y-25285D01*
X49642Y-25327D01*
X49573Y-25383D01*
X49515Y-25451D01*
X49472Y-25529D01*
X49445Y-25615D01*
X49435Y-25703D01*
X49435Y-25710D01*
X49435Y-25714D01*
X49444Y-25803D01*
X49470Y-25889D01*
X49512Y-25968D01*
X49568Y-26037D01*
X49637Y-26094D01*
X49716Y-26137D01*
X49801Y-26163D01*
X49890Y-26172D01*
X49979Y-26164D01*
X50065Y-26139D01*
X50144Y-26098D01*
X50214Y-26042D01*
X50271Y-25973D01*
X50314Y-25895D01*
X50341Y-25810D01*
X50351Y-25721D01*
X50351Y-25714D01*
X50351Y-26710D01*
X50343Y-26621D01*
X50317Y-26535D01*
X50275Y-26456D01*
X50218Y-26387D01*
X50149Y-26330D01*
X50071Y-26288D01*
X49985Y-26261D01*
X49896Y-26252D01*
X49807Y-26260D01*
X49722Y-26285D01*
X49642Y-26327D01*
X49573Y-26383D01*
X49515Y-26451D01*
X49472Y-26529D01*
X49445Y-26615D01*
X49435Y-26703D01*
X49435Y-26710D01*
X49435Y-26714D01*
X49444Y-26803D01*
X49470Y-26889D01*
X49512Y-26968D01*
X49568Y-27037D01*
X49637Y-27094D01*
X49716Y-27137D01*
X49801Y-27163D01*
X49890Y-27172D01*
X49979Y-27164D01*
X50065Y-27139D01*
X50144Y-27098D01*
X50214Y-27042D01*
X50271Y-26973D01*
X50314Y-26895D01*
X50341Y-26810D01*
X50351Y-26721D01*
X50351Y-26714D01*
X50351Y-27710D01*
X50343Y-27621D01*
X50317Y-27535D01*
X50275Y-27456D01*
X50218Y-27387D01*
X50149Y-27330D01*
X50071Y-27288D01*
X49985Y-27261D01*
X49896Y-27252D01*
X49807Y-27260D01*
X49722Y-27285D01*
X49642Y-27327D01*
X49573Y-27383D01*
X49515Y-27451D01*
X49472Y-27529D01*
X49445Y-27615D01*
X49435Y-27703D01*
X49435Y-27710D01*
X49435Y-27714D01*
X49444Y-27803D01*
X49470Y-27889D01*
X49512Y-27968D01*
X49568Y-28037D01*
X49637Y-28094D01*
X49716Y-28137D01*
X49801Y-28163D01*
X49890Y-28172D01*
X49979Y-28164D01*
X50065Y-28139D01*
X50144Y-28098D01*
X50214Y-28042D01*
X50271Y-27973D01*
X50314Y-27895D01*
X50341Y-27810D01*
X50351Y-27721D01*
X50351Y-27714D01*
X50351Y-28710D01*
X50343Y-28621D01*
X50317Y-28535D01*
X50275Y-28456D01*
X50218Y-28387D01*
X50149Y-28330D01*
X50071Y-28288D01*
X49985Y-28261D01*
X49896Y-28252D01*
X49807Y-28260D01*
X49722Y-28285D01*
X49642Y-28327D01*
X49573Y-28383D01*
X49515Y-28451D01*
X49472Y-28529D01*
X49445Y-28615D01*
X49435Y-28703D01*
X49435Y-28710D01*
X49435Y-28714D01*
X49444Y-28803D01*
X49470Y-28889D01*
X49512Y-28968D01*
X49568Y-29037D01*
X49637Y-29094D01*
X49716Y-29137D01*
X49801Y-29163D01*
X49890Y-29172D01*
X49979Y-29164D01*
X50065Y-29139D01*
X50144Y-29098D01*
X50214Y-29042D01*
X50271Y-28973D01*
X50314Y-28895D01*
X50341Y-28810D01*
X50351Y-28721D01*
X50351Y-28714D01*
X50351Y-31276D01*
X50336Y-31269D01*
X50313Y-31265D01*
X50289Y-31265D01*
X49489Y-31265D01*
X49467Y-31269D01*
X49445Y-31278D01*
X49426Y-31291D01*
X49409Y-31308D01*
X49396Y-31327D01*
X49388Y-31349D01*
X49383Y-31371D01*
X49383Y-31395D01*
X49383Y-32195D01*
X49388Y-32217D01*
X49396Y-32239D01*
X49409Y-32258D01*
X49426Y-32275D01*
X49445Y-32288D01*
X49467Y-32297D01*
X49489Y-32301D01*
X49513Y-32301D01*
X50313Y-32301D01*
X50336Y-32297D01*
X50357Y-32288D01*
X50376Y-32275D01*
X50393Y-32258D01*
X50406Y-32239D01*
X50415Y-32217D01*
X50419Y-32195D01*
X50419Y-33326D01*
X49350Y-33326D01*
X49350Y-13917D01*
X68759Y-13917D01*
X68759Y-33326D01*
X68759Y-33326D01*
G37*
X68759Y-33326D02*
X68218Y-33326D01*
X68218Y-29763D01*
X68218Y-25505D01*
X67976Y-25263D01*
X67976Y-16493D01*
X67960Y-16412D01*
X67928Y-16335D01*
X67882Y-16266D01*
X67824Y-16207D01*
X67755Y-16161D01*
X67678Y-16129D01*
X67597Y-16112D01*
X67514Y-16111D01*
X67433Y-16127D01*
X67356Y-16158D01*
X67286Y-16203D01*
X67227Y-16262D01*
X67180Y-16330D01*
X67147Y-16406D01*
X67130Y-16488D01*
X67129Y-16571D01*
X67144Y-16652D01*
X67174Y-16729D01*
X67219Y-16799D01*
X67277Y-16859D01*
X67345Y-16906D01*
X67421Y-16939D01*
X67502Y-16957D01*
X67585Y-16959D01*
X67667Y-16945D01*
X67744Y-16915D01*
X67814Y-16870D01*
X67875Y-16813D01*
X67922Y-16745D01*
X67956Y-16669D01*
X67975Y-16588D01*
X67976Y-16493D01*
X67976Y-25263D01*
X67716Y-25003D01*
X67716Y-22546D01*
X67704Y-22486D01*
X67681Y-22428D01*
X67646Y-22377D01*
X67603Y-22333D01*
X67552Y-22299D01*
X67495Y-22275D01*
X67434Y-22262D01*
X67372Y-22262D01*
X67312Y-22273D01*
X67283Y-22285D01*
X67283Y-21398D01*
X67275Y-21360D01*
X67261Y-21324D01*
X67239Y-21292D01*
X67212Y-21264D01*
X67180Y-21243D01*
X67145Y-21228D01*
X67107Y-21220D01*
X67068Y-21220D01*
X67030Y-21227D01*
X66994Y-21242D01*
X66962Y-21263D01*
X66935Y-21290D01*
X66913Y-21322D01*
X66898Y-21357D01*
X66890Y-21395D01*
X66889Y-21433D01*
X66896Y-21471D01*
X66910Y-21507D01*
X66931Y-21540D01*
X66958Y-21567D01*
X66990Y-21589D01*
X67025Y-21605D01*
X67063Y-21613D01*
X67101Y-21614D01*
X67139Y-21607D01*
X67175Y-21593D01*
X67208Y-21573D01*
X67236Y-21546D01*
X67258Y-21515D01*
X67274Y-21479D01*
X67282Y-21442D01*
X67283Y-21398D01*
X67283Y-22285D01*
X67254Y-22297D01*
X67203Y-22330D01*
X67159Y-22374D01*
X67124Y-22425D01*
X67099Y-22481D01*
X67087Y-22542D01*
X67086Y-22603D01*
X67097Y-22664D01*
X67120Y-22722D01*
X67153Y-22774D01*
X67196Y-22818D01*
X67247Y-22853D01*
X67303Y-22878D01*
X67364Y-22891D01*
X67425Y-22893D01*
X67486Y-22882D01*
X67544Y-22859D01*
X67596Y-22826D01*
X67641Y-22784D01*
X67676Y-22733D01*
X67701Y-22677D01*
X67715Y-22617D01*
X67716Y-22546D01*
X67716Y-25003D01*
X67401Y-24688D01*
X67401Y-23690D01*
X67224Y-23690D01*
X67214Y-24790D01*
X68031Y-25587D01*
X68031Y-29576D01*
X66472Y-29582D01*
X66472Y-20170D01*
X66460Y-20109D01*
X66436Y-20052D01*
X66402Y-20001D01*
X66359Y-19957D01*
X66308Y-19922D01*
X66251Y-19898D01*
X66190Y-19886D01*
X66128Y-19885D01*
X66068Y-19897D01*
X66010Y-19920D01*
X65959Y-19954D01*
X65915Y-19997D01*
X65880Y-20048D01*
X65855Y-20105D01*
X65842Y-20165D01*
X65842Y-20227D01*
X65853Y-20288D01*
X65875Y-20345D01*
X65909Y-20397D01*
X65952Y-20442D01*
X66003Y-20477D01*
X66059Y-20502D01*
X66120Y-20515D01*
X66181Y-20516D01*
X66242Y-20506D01*
X66300Y-20483D01*
X66352Y-20450D01*
X66397Y-20407D01*
X66432Y-20357D01*
X66457Y-20301D01*
X66471Y-20240D01*
X66472Y-20170D01*
X66472Y-29582D01*
X66445Y-29583D01*
X66413Y-29569D01*
X66372Y-29561D01*
X66329Y-29560D01*
X66287Y-29568D01*
X66251Y-29583D01*
X66230Y-29583D01*
X66230Y-22283D01*
X66222Y-22245D01*
X66208Y-22210D01*
X66186Y-22178D01*
X66159Y-22150D01*
X66127Y-22129D01*
X66091Y-22114D01*
X66054Y-22106D01*
X66015Y-22106D01*
X65977Y-22113D01*
X65941Y-22127D01*
X65909Y-22148D01*
X65881Y-22176D01*
X65864Y-22200D01*
X65864Y-21609D01*
X65857Y-21571D01*
X65842Y-21536D01*
X65821Y-21504D01*
X65794Y-21476D01*
X65762Y-21455D01*
X65726Y-21440D01*
X65688Y-21432D01*
X65650Y-21432D01*
X65612Y-21439D01*
X65576Y-21453D01*
X65544Y-21474D01*
X65516Y-21501D01*
X65494Y-21533D01*
X65479Y-21569D01*
X65471Y-21607D01*
X65471Y-21645D01*
X65477Y-21683D01*
X65492Y-21719D01*
X65513Y-21751D01*
X65539Y-21779D01*
X65571Y-21801D01*
X65606Y-21817D01*
X65644Y-21825D01*
X65683Y-21826D01*
X65721Y-21819D01*
X65757Y-21805D01*
X65789Y-21785D01*
X65817Y-21758D01*
X65840Y-21726D01*
X65855Y-21691D01*
X65864Y-21653D01*
X65864Y-21609D01*
X65864Y-22200D01*
X65860Y-22207D01*
X65844Y-22243D01*
X65836Y-22281D01*
X65836Y-22319D01*
X65843Y-22357D01*
X65857Y-22393D01*
X65878Y-22426D01*
X65905Y-22453D01*
X65936Y-22475D01*
X65972Y-22491D01*
X66010Y-22499D01*
X66048Y-22500D01*
X66086Y-22493D01*
X66122Y-22479D01*
X66155Y-22459D01*
X66183Y-22432D01*
X66205Y-22400D01*
X66221Y-22365D01*
X66229Y-22327D01*
X66230Y-22283D01*
X66230Y-29583D01*
X65659Y-29586D01*
X65659Y-28927D01*
X65651Y-28889D01*
X65637Y-28853D01*
X65615Y-28821D01*
X65588Y-28794D01*
X65556Y-28772D01*
X65521Y-28757D01*
X65483Y-28750D01*
X65444Y-28749D01*
X65423Y-28753D01*
X65423Y-16894D01*
X65415Y-16856D01*
X65401Y-16821D01*
X65379Y-16788D01*
X65352Y-16761D01*
X65320Y-16739D01*
X65284Y-16724D01*
X65247Y-16717D01*
X65208Y-16716D01*
X65170Y-16724D01*
X65134Y-16738D01*
X65102Y-16759D01*
X65074Y-16786D01*
X65053Y-16818D01*
X65037Y-16854D01*
X65029Y-16891D01*
X65029Y-16930D01*
X65036Y-16968D01*
X65050Y-17004D01*
X65071Y-17036D01*
X65098Y-17064D01*
X65129Y-17086D01*
X65165Y-17102D01*
X65202Y-17110D01*
X65241Y-17111D01*
X65279Y-17104D01*
X65315Y-17090D01*
X65348Y-17069D01*
X65376Y-17043D01*
X65398Y-17011D01*
X65414Y-16976D01*
X65422Y-16938D01*
X65423Y-16894D01*
X65423Y-28753D01*
X65406Y-28757D01*
X65370Y-28771D01*
X65354Y-28782D01*
X65354Y-24181D01*
X65346Y-24143D01*
X65332Y-24107D01*
X65310Y-24075D01*
X65283Y-24048D01*
X65251Y-24026D01*
X65215Y-24011D01*
X65178Y-24004D01*
X65139Y-24003D01*
X65101Y-24011D01*
X65065Y-24025D01*
X65052Y-24034D01*
X65052Y-17063D01*
X65045Y-17025D01*
X65030Y-16990D01*
X65009Y-16958D01*
X64981Y-16930D01*
X64949Y-16909D01*
X64914Y-16894D01*
X64876Y-16886D01*
X64837Y-16886D01*
X64800Y-16893D01*
X64764Y-16907D01*
X64750Y-16916D01*
X64748Y-16910D01*
X64726Y-16878D01*
X64713Y-16864D01*
X64713Y-16245D01*
X64705Y-16207D01*
X64691Y-16171D01*
X64669Y-16139D01*
X64642Y-16112D01*
X64610Y-16090D01*
X64575Y-16075D01*
X64537Y-16068D01*
X64498Y-16067D01*
X64460Y-16075D01*
X64424Y-16089D01*
X64392Y-16110D01*
X64365Y-16137D01*
X64343Y-16169D01*
X64327Y-16204D01*
X64322Y-16232D01*
X64322Y-16231D01*
X64307Y-16195D01*
X64285Y-16163D01*
X64269Y-16146D01*
X64269Y-15477D01*
X64261Y-15439D01*
X64247Y-15403D01*
X64225Y-15371D01*
X64198Y-15344D01*
X64166Y-15322D01*
X64130Y-15307D01*
X64093Y-15300D01*
X64054Y-15299D01*
X64016Y-15307D01*
X63980Y-15321D01*
X63948Y-15342D01*
X63920Y-15369D01*
X63899Y-15401D01*
X63883Y-15437D01*
X63875Y-15474D01*
X63875Y-15513D01*
X63882Y-15551D01*
X63896Y-15587D01*
X63917Y-15619D01*
X63944Y-15647D01*
X63975Y-15669D01*
X64011Y-15684D01*
X64049Y-15693D01*
X64087Y-15694D01*
X64125Y-15687D01*
X64161Y-15673D01*
X64194Y-15652D01*
X64222Y-15626D01*
X64244Y-15594D01*
X64260Y-15559D01*
X64268Y-15521D01*
X64269Y-15477D01*
X64269Y-16146D01*
X64258Y-16136D01*
X64226Y-16114D01*
X64191Y-16099D01*
X64153Y-16091D01*
X64114Y-16091D01*
X64076Y-16098D01*
X64041Y-16113D01*
X64008Y-16134D01*
X63981Y-16161D01*
X63959Y-16193D01*
X63944Y-16228D01*
X63936Y-16266D01*
X63935Y-16304D01*
X63942Y-16342D01*
X63956Y-16378D01*
X63977Y-16411D01*
X64004Y-16439D01*
X64036Y-16461D01*
X64071Y-16476D01*
X64109Y-16484D01*
X64147Y-16485D01*
X64185Y-16478D01*
X64221Y-16464D01*
X64254Y-16444D01*
X64282Y-16417D01*
X64304Y-16386D01*
X64320Y-16350D01*
X64327Y-16321D01*
X64340Y-16355D01*
X64361Y-16387D01*
X64388Y-16415D01*
X64420Y-16437D01*
X64455Y-16452D01*
X64493Y-16461D01*
X64531Y-16462D01*
X64569Y-16455D01*
X64605Y-16441D01*
X64638Y-16420D01*
X64666Y-16394D01*
X64688Y-16362D01*
X64704Y-16327D01*
X64712Y-16289D01*
X64713Y-16245D01*
X64713Y-16864D01*
X64699Y-16850D01*
X64667Y-16829D01*
X64632Y-16814D01*
X64594Y-16806D01*
X64555Y-16806D01*
X64517Y-16813D01*
X64481Y-16828D01*
X64449Y-16849D01*
X64448Y-16850D01*
X64439Y-16840D01*
X64407Y-16819D01*
X64371Y-16804D01*
X64334Y-16796D01*
X64295Y-16796D01*
X64257Y-16803D01*
X64221Y-16817D01*
X64189Y-16838D01*
X64161Y-16866D01*
X64140Y-16897D01*
X64124Y-16933D01*
X64116Y-16971D01*
X64116Y-17009D01*
X64123Y-17047D01*
X64137Y-17083D01*
X64158Y-17116D01*
X64185Y-17143D01*
X64216Y-17165D01*
X64252Y-17181D01*
X64289Y-17189D01*
X64328Y-17190D01*
X64366Y-17183D01*
X64402Y-17169D01*
X64435Y-17149D01*
X64438Y-17146D01*
X64445Y-17153D01*
X64477Y-17175D01*
X64512Y-17191D01*
X64550Y-17199D01*
X64588Y-17200D01*
X64626Y-17193D01*
X64662Y-17179D01*
X64678Y-17169D01*
X64679Y-17173D01*
X64700Y-17205D01*
X64727Y-17233D01*
X64759Y-17255D01*
X64794Y-17271D01*
X64832Y-17279D01*
X64871Y-17280D01*
X64909Y-17273D01*
X64945Y-17259D01*
X64977Y-17238D01*
X65005Y-17212D01*
X65027Y-17180D01*
X65043Y-17145D01*
X65052Y-17107D01*
X65052Y-17063D01*
X65052Y-24034D01*
X65033Y-24046D01*
X65005Y-24073D01*
X64984Y-24105D01*
X64968Y-24140D01*
X64960Y-24178D01*
X64960Y-24217D01*
X64967Y-24255D01*
X64981Y-24291D01*
X65002Y-24323D01*
X65029Y-24351D01*
X65060Y-24373D01*
X65096Y-24388D01*
X65134Y-24397D01*
X65172Y-24398D01*
X65210Y-24391D01*
X65246Y-24377D01*
X65279Y-24356D01*
X65307Y-24330D01*
X65329Y-24298D01*
X65345Y-24263D01*
X65353Y-24225D01*
X65354Y-24181D01*
X65354Y-28782D01*
X65338Y-28792D01*
X65311Y-28819D01*
X65289Y-28851D01*
X65274Y-28887D01*
X65266Y-28924D01*
X65265Y-28963D01*
X65272Y-29001D01*
X65286Y-29037D01*
X65307Y-29069D01*
X65334Y-29097D01*
X65366Y-29119D01*
X65401Y-29134D01*
X65439Y-29143D01*
X65477Y-29144D01*
X65515Y-29137D01*
X65551Y-29123D01*
X65584Y-29102D01*
X65612Y-29076D01*
X65634Y-29044D01*
X65650Y-29009D01*
X65658Y-28971D01*
X65659Y-28927D01*
X65659Y-29586D01*
X64459Y-29590D01*
X64459Y-17407D01*
X64451Y-17369D01*
X64437Y-17334D01*
X64415Y-17301D01*
X64388Y-17274D01*
X64356Y-17252D01*
X64321Y-17238D01*
X64283Y-17230D01*
X64244Y-17229D01*
X64206Y-17237D01*
X64170Y-17251D01*
X64138Y-17272D01*
X64111Y-17299D01*
X64089Y-17331D01*
X64074Y-17367D01*
X64066Y-17404D01*
X64065Y-17443D01*
X64072Y-17481D01*
X64086Y-17517D01*
X64107Y-17549D01*
X64134Y-17577D01*
X64166Y-17599D01*
X64201Y-17615D01*
X64239Y-17623D01*
X64277Y-17624D01*
X64315Y-17617D01*
X64351Y-17603D01*
X64384Y-17582D01*
X64412Y-17556D01*
X64434Y-17524D01*
X64450Y-17489D01*
X64458Y-17451D01*
X64459Y-17407D01*
X64459Y-29590D01*
X64419Y-29590D01*
X64419Y-23981D01*
X64411Y-23943D01*
X64397Y-23908D01*
X64375Y-23875D01*
X64348Y-23848D01*
X64316Y-23826D01*
X64280Y-23811D01*
X64243Y-23804D01*
X64204Y-23803D01*
X64166Y-23811D01*
X64130Y-23825D01*
X64098Y-23846D01*
X64070Y-23873D01*
X64049Y-23905D01*
X64033Y-23941D01*
X64029Y-23964D01*
X64027Y-23958D01*
X64013Y-23922D01*
X63991Y-23890D01*
X63964Y-23863D01*
X63932Y-23841D01*
X63927Y-23839D01*
X63927Y-17340D01*
X63920Y-17302D01*
X63905Y-17266D01*
X63884Y-17234D01*
X63857Y-17207D01*
X63825Y-17185D01*
X63789Y-17170D01*
X63751Y-17163D01*
X63713Y-17162D01*
X63675Y-17169D01*
X63639Y-17184D01*
X63607Y-17205D01*
X63579Y-17232D01*
X63557Y-17264D01*
X63542Y-17299D01*
X63534Y-17337D01*
X63533Y-17376D01*
X63540Y-17414D01*
X63555Y-17450D01*
X63576Y-17482D01*
X63602Y-17510D01*
X63634Y-17532D01*
X63669Y-17547D01*
X63707Y-17556D01*
X63746Y-17556D01*
X63784Y-17550D01*
X63820Y-17536D01*
X63852Y-17515D01*
X63880Y-17488D01*
X63903Y-17457D01*
X63918Y-17422D01*
X63927Y-17384D01*
X63927Y-17340D01*
X63927Y-23839D01*
X63897Y-23826D01*
X63859Y-23819D01*
X63820Y-23818D01*
X63782Y-23825D01*
X63746Y-23840D01*
X63714Y-23861D01*
X63687Y-23888D01*
X63665Y-23920D01*
X63650Y-23955D01*
X63642Y-23993D01*
X63641Y-24032D01*
X63648Y-24070D01*
X63662Y-24106D01*
X63683Y-24138D01*
X63710Y-24166D01*
X63742Y-24188D01*
X63777Y-24203D01*
X63815Y-24212D01*
X63853Y-24212D01*
X63891Y-24206D01*
X63927Y-24192D01*
X63960Y-24171D01*
X63988Y-24144D01*
X64010Y-24113D01*
X64026Y-24078D01*
X64031Y-24053D01*
X64032Y-24055D01*
X64046Y-24091D01*
X64067Y-24123D01*
X64094Y-24151D01*
X64125Y-24173D01*
X64161Y-24188D01*
X64199Y-24197D01*
X64237Y-24198D01*
X64275Y-24191D01*
X64311Y-24177D01*
X64344Y-24156D01*
X64372Y-24130D01*
X64394Y-24098D01*
X64410Y-24063D01*
X64418Y-24025D01*
X64419Y-23981D01*
X64419Y-29590D01*
X63500Y-29594D01*
X63500Y-17337D01*
X63492Y-17299D01*
X63477Y-17263D01*
X63456Y-17231D01*
X63429Y-17204D01*
X63397Y-17182D01*
X63361Y-17167D01*
X63323Y-17160D01*
X63285Y-17159D01*
X63247Y-17167D01*
X63245Y-17167D01*
X63245Y-16417D01*
X63238Y-16379D01*
X63223Y-16343D01*
X63202Y-16311D01*
X63174Y-16284D01*
X63142Y-16262D01*
X63107Y-16247D01*
X63069Y-16239D01*
X63030Y-16239D01*
X62993Y-16246D01*
X62957Y-16261D01*
X62924Y-16282D01*
X62897Y-16309D01*
X62875Y-16341D01*
X62860Y-16376D01*
X62852Y-16414D01*
X62851Y-16453D01*
X62858Y-16491D01*
X62872Y-16527D01*
X62893Y-16559D01*
X62920Y-16587D01*
X62952Y-16609D01*
X62987Y-16624D01*
X63025Y-16633D01*
X63064Y-16633D01*
X63102Y-16627D01*
X63138Y-16613D01*
X63170Y-16592D01*
X63198Y-16565D01*
X63220Y-16534D01*
X63236Y-16499D01*
X63245Y-16461D01*
X63245Y-16417D01*
X63245Y-17167D01*
X63211Y-17181D01*
X63179Y-17202D01*
X63151Y-17229D01*
X63129Y-17261D01*
X63114Y-17296D01*
X63106Y-17334D01*
X63106Y-17373D01*
X63113Y-17411D01*
X63127Y-17447D01*
X63148Y-17479D01*
X63174Y-17507D01*
X63206Y-17529D01*
X63242Y-17544D01*
X63279Y-17553D01*
X63318Y-17553D01*
X63356Y-17547D01*
X63392Y-17533D01*
X63424Y-17512D01*
X63452Y-17486D01*
X63475Y-17454D01*
X63490Y-17419D01*
X63499Y-17381D01*
X63500Y-17337D01*
X63500Y-29594D01*
X63421Y-29594D01*
X63421Y-23981D01*
X63414Y-23943D01*
X63399Y-23908D01*
X63377Y-23875D01*
X63350Y-23848D01*
X63318Y-23826D01*
X63283Y-23811D01*
X63245Y-23804D01*
X63206Y-23803D01*
X63168Y-23811D01*
X63133Y-23825D01*
X63100Y-23846D01*
X63073Y-23873D01*
X63051Y-23905D01*
X63036Y-23941D01*
X63028Y-23978D01*
X63027Y-24017D01*
X63034Y-24055D01*
X63048Y-24091D01*
X63069Y-24123D01*
X63096Y-24151D01*
X63128Y-24173D01*
X63163Y-24188D01*
X63201Y-24197D01*
X63239Y-24198D01*
X63277Y-24191D01*
X63313Y-24177D01*
X63346Y-24156D01*
X63374Y-24130D01*
X63396Y-24098D01*
X63412Y-24063D01*
X63420Y-24025D01*
X63421Y-23981D01*
X63421Y-29594D01*
X63220Y-29595D01*
X63220Y-24449D01*
X63213Y-24411D01*
X63198Y-24376D01*
X63177Y-24344D01*
X63149Y-24316D01*
X63117Y-24295D01*
X63082Y-24280D01*
X63046Y-24272D01*
X63046Y-24268D01*
X63047Y-24224D01*
X63040Y-24186D01*
X63025Y-24151D01*
X63003Y-24119D01*
X62976Y-24091D01*
X62944Y-24070D01*
X62909Y-24055D01*
X62871Y-24047D01*
X62832Y-24047D01*
X62796Y-24053D01*
X62796Y-15480D01*
X62789Y-15442D01*
X62774Y-15407D01*
X62753Y-15374D01*
X62726Y-15347D01*
X62694Y-15326D01*
X62658Y-15311D01*
X62620Y-15303D01*
X62582Y-15303D01*
X62544Y-15310D01*
X62508Y-15324D01*
X62476Y-15345D01*
X62448Y-15372D01*
X62426Y-15404D01*
X62411Y-15440D01*
X62403Y-15477D01*
X62402Y-15516D01*
X62409Y-15554D01*
X62424Y-15590D01*
X62444Y-15622D01*
X62471Y-15650D01*
X62503Y-15672D01*
X62538Y-15688D01*
X62576Y-15696D01*
X62615Y-15697D01*
X62653Y-15690D01*
X62689Y-15676D01*
X62721Y-15655D01*
X62749Y-15629D01*
X62771Y-15597D01*
X62787Y-15562D01*
X62796Y-15524D01*
X62796Y-15480D01*
X62796Y-24053D01*
X62794Y-24054D01*
X62759Y-24068D01*
X62726Y-24089D01*
X62699Y-24116D01*
X62677Y-24148D01*
X62662Y-24184D01*
X62654Y-24222D01*
X62653Y-24260D01*
X62660Y-24298D01*
X62674Y-24334D01*
X62695Y-24366D01*
X62722Y-24394D01*
X62754Y-24416D01*
X62789Y-24432D01*
X62827Y-24440D01*
X62828Y-24440D01*
X62827Y-24447D01*
X62826Y-24485D01*
X62833Y-24523D01*
X62847Y-24559D01*
X62868Y-24591D01*
X62895Y-24619D01*
X62927Y-24641D01*
X62962Y-24657D01*
X63000Y-24665D01*
X63039Y-24666D01*
X63077Y-24659D01*
X63113Y-24645D01*
X63145Y-24624D01*
X63173Y-24598D01*
X63195Y-24566D01*
X63211Y-24531D01*
X63220Y-24493D01*
X63220Y-24449D01*
X63220Y-29595D01*
X62980Y-29596D01*
X62965Y-29201D01*
X62957Y-29143D01*
X62486Y-29144D01*
X62486Y-16633D01*
X62479Y-16595D01*
X62464Y-16559D01*
X62443Y-16527D01*
X62415Y-16500D01*
X62383Y-16478D01*
X62348Y-16463D01*
X62310Y-16455D01*
X62271Y-16455D01*
X62233Y-16462D01*
X62198Y-16477D01*
X62165Y-16498D01*
X62138Y-16525D01*
X62116Y-16557D01*
X62101Y-16592D01*
X62093Y-16630D01*
X62092Y-16669D01*
X62099Y-16707D01*
X62113Y-16742D01*
X62134Y-16775D01*
X62161Y-16803D01*
X62193Y-16825D01*
X62228Y-16840D01*
X62266Y-16848D01*
X62304Y-16849D01*
X62342Y-16842D01*
X62378Y-16829D01*
X62411Y-16808D01*
X62439Y-16781D01*
X62461Y-16750D01*
X62477Y-16714D01*
X62486Y-16677D01*
X62486Y-16633D01*
X62486Y-29144D01*
X62440Y-29144D01*
X62440Y-23981D01*
X62433Y-23943D01*
X62418Y-23908D01*
X62397Y-23875D01*
X62370Y-23848D01*
X62338Y-23826D01*
X62302Y-23811D01*
X62264Y-23804D01*
X62226Y-23803D01*
X62188Y-23811D01*
X62152Y-23825D01*
X62120Y-23846D01*
X62098Y-23868D01*
X62098Y-19545D01*
X62090Y-19508D01*
X62076Y-19472D01*
X62054Y-19440D01*
X62027Y-19412D01*
X62027Y-19412D01*
X62034Y-19380D01*
X62035Y-19336D01*
X62027Y-19298D01*
X62013Y-19263D01*
X61991Y-19230D01*
X61990Y-19229D01*
X61990Y-18845D01*
X61982Y-18807D01*
X61967Y-18772D01*
X61946Y-18739D01*
X61919Y-18712D01*
X61887Y-18690D01*
X61851Y-18675D01*
X61813Y-18668D01*
X61775Y-18667D01*
X61737Y-18675D01*
X61701Y-18689D01*
X61669Y-18710D01*
X61641Y-18737D01*
X61619Y-18769D01*
X61604Y-18805D01*
X61599Y-18828D01*
X61576Y-18828D01*
X61538Y-18835D01*
X61502Y-18850D01*
X61470Y-18871D01*
X61442Y-18898D01*
X61421Y-18929D01*
X61414Y-18913D01*
X61393Y-18880D01*
X61366Y-18853D01*
X61334Y-18831D01*
X61298Y-18816D01*
X61260Y-18809D01*
X61222Y-18808D01*
X61184Y-18816D01*
X61148Y-18830D01*
X61116Y-18851D01*
X61088Y-18878D01*
X61066Y-18910D01*
X61051Y-18946D01*
X61043Y-18983D01*
X61043Y-16366D01*
X61036Y-16329D01*
X61021Y-16293D01*
X61000Y-16261D01*
X60972Y-16233D01*
X60940Y-16212D01*
X60905Y-16197D01*
X60868Y-16189D01*
X60868Y-15674D01*
X60860Y-15636D01*
X60845Y-15600D01*
X60824Y-15568D01*
X60797Y-15540D01*
X60765Y-15519D01*
X60729Y-15504D01*
X60691Y-15496D01*
X60653Y-15496D01*
X60615Y-15503D01*
X60579Y-15518D01*
X60547Y-15539D01*
X60519Y-15566D01*
X60503Y-15589D01*
X60517Y-15558D01*
X60526Y-15520D01*
X60526Y-15476D01*
X60519Y-15438D01*
X60504Y-15403D01*
X60483Y-15371D01*
X60456Y-15343D01*
X60424Y-15322D01*
X60388Y-15307D01*
X60350Y-15299D01*
X60311Y-15299D01*
X60274Y-15306D01*
X60238Y-15320D01*
X60205Y-15341D01*
X60178Y-15368D01*
X60156Y-15400D01*
X60141Y-15436D01*
X60133Y-15474D01*
X60132Y-15512D01*
X60139Y-15550D01*
X60153Y-15586D01*
X60174Y-15618D01*
X60201Y-15646D01*
X60233Y-15668D01*
X60268Y-15684D01*
X60306Y-15692D01*
X60345Y-15693D01*
X60383Y-15686D01*
X60419Y-15672D01*
X60451Y-15651D01*
X60479Y-15625D01*
X60496Y-15601D01*
X60482Y-15633D01*
X60474Y-15671D01*
X60474Y-15709D01*
X60481Y-15747D01*
X60495Y-15783D01*
X60516Y-15816D01*
X60543Y-15843D01*
X60574Y-15866D01*
X60610Y-15881D01*
X60647Y-15889D01*
X60686Y-15890D01*
X60724Y-15883D01*
X60760Y-15869D01*
X60793Y-15849D01*
X60820Y-15822D01*
X60843Y-15791D01*
X60858Y-15755D01*
X60867Y-15718D01*
X60868Y-15674D01*
X60868Y-16189D01*
X60867Y-16189D01*
X60828Y-16189D01*
X60791Y-16196D01*
X60755Y-16210D01*
X60722Y-16232D01*
X60695Y-16259D01*
X60673Y-16290D01*
X60658Y-16326D01*
X60650Y-16364D01*
X60649Y-16402D01*
X60656Y-16440D01*
X60670Y-16476D01*
X60691Y-16509D01*
X60718Y-16536D01*
X60750Y-16558D01*
X60785Y-16574D01*
X60823Y-16582D01*
X60862Y-16583D01*
X60900Y-16576D01*
X60936Y-16562D01*
X60968Y-16542D01*
X60996Y-16515D01*
X61018Y-16483D01*
X61034Y-16448D01*
X61043Y-16411D01*
X61043Y-16366D01*
X61043Y-18983D01*
X61043Y-18983D01*
X61043Y-19022D01*
X61050Y-19060D01*
X61064Y-19096D01*
X61085Y-19128D01*
X61111Y-19156D01*
X61143Y-19178D01*
X61179Y-19194D01*
X61216Y-19202D01*
X61255Y-19203D01*
X61293Y-19196D01*
X61329Y-19182D01*
X61361Y-19161D01*
X61389Y-19135D01*
X61412Y-19103D01*
X61412Y-19101D01*
X61418Y-19116D01*
X61439Y-19148D01*
X61466Y-19176D01*
X61497Y-19198D01*
X61533Y-19213D01*
X61571Y-19222D01*
X61609Y-19222D01*
X61647Y-19216D01*
X61683Y-19202D01*
X61716Y-19181D01*
X61744Y-19154D01*
X61766Y-19123D01*
X61782Y-19088D01*
X61788Y-19061D01*
X61808Y-19062D01*
X61846Y-19055D01*
X61882Y-19041D01*
X61914Y-19020D01*
X61942Y-18994D01*
X61965Y-18962D01*
X61980Y-18927D01*
X61989Y-18889D01*
X61990Y-18845D01*
X61990Y-19229D01*
X61964Y-19203D01*
X61932Y-19181D01*
X61897Y-19166D01*
X61859Y-19159D01*
X61820Y-19158D01*
X61782Y-19166D01*
X61746Y-19180D01*
X61714Y-19201D01*
X61687Y-19228D01*
X61665Y-19260D01*
X61650Y-19296D01*
X61641Y-19333D01*
X61641Y-19372D01*
X61648Y-19410D01*
X61662Y-19446D01*
X61683Y-19478D01*
X61710Y-19506D01*
X61712Y-19508D01*
X61704Y-19543D01*
X61704Y-19581D01*
X61711Y-19619D01*
X61725Y-19655D01*
X61746Y-19688D01*
X61773Y-19715D01*
X61805Y-19737D01*
X61840Y-19753D01*
X61878Y-19761D01*
X61916Y-19762D01*
X61954Y-19755D01*
X61990Y-19741D01*
X62023Y-19721D01*
X62051Y-19694D01*
X62073Y-19662D01*
X62089Y-19627D01*
X62097Y-19589D01*
X62098Y-19545D01*
X62098Y-23868D01*
X62092Y-23873D01*
X62070Y-23905D01*
X62055Y-23941D01*
X62047Y-23978D01*
X62046Y-24017D01*
X62053Y-24055D01*
X62068Y-24091D01*
X62089Y-24123D01*
X62115Y-24151D01*
X62147Y-24173D01*
X62182Y-24188D01*
X62220Y-24197D01*
X62259Y-24198D01*
X62297Y-24191D01*
X62333Y-24177D01*
X62365Y-24156D01*
X62393Y-24130D01*
X62416Y-24098D01*
X62431Y-24063D01*
X62440Y-24025D01*
X62440Y-23981D01*
X62440Y-29144D01*
X61948Y-29144D01*
X61948Y-20207D01*
X61940Y-20169D01*
X61926Y-20133D01*
X61904Y-20101D01*
X61877Y-20074D01*
X61845Y-20052D01*
X61810Y-20037D01*
X61772Y-20030D01*
X61733Y-20029D01*
X61695Y-20037D01*
X61659Y-20051D01*
X61627Y-20072D01*
X61600Y-20099D01*
X61578Y-20131D01*
X61563Y-20167D01*
X61555Y-20204D01*
X61554Y-20243D01*
X61561Y-20281D01*
X61575Y-20317D01*
X61596Y-20349D01*
X61623Y-20377D01*
X61655Y-20399D01*
X61690Y-20414D01*
X61728Y-20423D01*
X61766Y-20424D01*
X61804Y-20417D01*
X61840Y-20403D01*
X61873Y-20382D01*
X61901Y-20356D01*
X61923Y-20324D01*
X61939Y-20289D01*
X61947Y-20251D01*
X61948Y-20207D01*
X61948Y-29144D01*
X61938Y-29144D01*
X61938Y-24251D01*
X61930Y-24213D01*
X61916Y-24178D01*
X61894Y-24146D01*
X61867Y-24118D01*
X61835Y-24097D01*
X61800Y-24082D01*
X61762Y-24074D01*
X61723Y-24074D01*
X61685Y-24081D01*
X61649Y-24095D01*
X61617Y-24116D01*
X61590Y-24143D01*
X61568Y-24175D01*
X61552Y-24211D01*
X61544Y-24249D01*
X61544Y-24287D01*
X61551Y-24325D01*
X61565Y-24361D01*
X61586Y-24393D01*
X61613Y-24421D01*
X61645Y-24443D01*
X61680Y-24459D01*
X61718Y-24467D01*
X61756Y-24468D01*
X61794Y-24461D01*
X61830Y-24447D01*
X61863Y-24426D01*
X61891Y-24400D01*
X61913Y-24368D01*
X61929Y-24333D01*
X61937Y-24295D01*
X61938Y-24251D01*
X61938Y-29144D01*
X61501Y-29145D01*
X61501Y-19650D01*
X61494Y-19612D01*
X61479Y-19576D01*
X61458Y-19544D01*
X61431Y-19517D01*
X61399Y-19495D01*
X61363Y-19480D01*
X61325Y-19472D01*
X61287Y-19472D01*
X61249Y-19479D01*
X61213Y-19494D01*
X61181Y-19515D01*
X61153Y-19542D01*
X61131Y-19574D01*
X61116Y-19609D01*
X61108Y-19647D01*
X61107Y-19686D01*
X61114Y-19724D01*
X61129Y-19760D01*
X61150Y-19792D01*
X61176Y-19820D01*
X61208Y-19842D01*
X61243Y-19857D01*
X61281Y-19866D01*
X61320Y-19866D01*
X61358Y-19860D01*
X61394Y-19846D01*
X61426Y-19825D01*
X61454Y-19798D01*
X61477Y-19767D01*
X61492Y-19732D01*
X61501Y-19694D01*
X61501Y-19650D01*
X61501Y-29145D01*
X61406Y-29145D01*
X61406Y-23720D01*
X61399Y-23682D01*
X61384Y-23646D01*
X61363Y-23614D01*
X61336Y-23587D01*
X61304Y-23565D01*
X61268Y-23550D01*
X61251Y-23547D01*
X61251Y-22555D01*
X61244Y-22517D01*
X61229Y-22481D01*
X61208Y-22449D01*
X61181Y-22422D01*
X61149Y-22400D01*
X61113Y-22385D01*
X61075Y-22378D01*
X61037Y-22377D01*
X60999Y-22385D01*
X60963Y-22399D01*
X60931Y-22420D01*
X60903Y-22447D01*
X60900Y-22452D01*
X60900Y-20764D01*
X60895Y-20741D01*
X60895Y-18618D01*
X60888Y-18580D01*
X60873Y-18544D01*
X60852Y-18512D01*
X60825Y-18485D01*
X60793Y-18463D01*
X60757Y-18448D01*
X60719Y-18440D01*
X60681Y-18440D01*
X60643Y-18447D01*
X60607Y-18462D01*
X60575Y-18483D01*
X60547Y-18510D01*
X60525Y-18542D01*
X60510Y-18577D01*
X60502Y-18615D01*
X60501Y-18654D01*
X60508Y-18692D01*
X60523Y-18728D01*
X60543Y-18760D01*
X60570Y-18788D01*
X60602Y-18810D01*
X60637Y-18825D01*
X60675Y-18834D01*
X60714Y-18834D01*
X60752Y-18828D01*
X60788Y-18814D01*
X60820Y-18793D01*
X60848Y-18766D01*
X60870Y-18735D01*
X60886Y-18700D01*
X60895Y-18662D01*
X60895Y-18618D01*
X60895Y-20741D01*
X60892Y-20726D01*
X60878Y-20690D01*
X60856Y-20658D01*
X60829Y-20631D01*
X60797Y-20609D01*
X60762Y-20594D01*
X60724Y-20586D01*
X60685Y-20586D01*
X60647Y-20593D01*
X60611Y-20608D01*
X60579Y-20629D01*
X60552Y-20656D01*
X60530Y-20688D01*
X60515Y-20723D01*
X60506Y-20761D01*
X60506Y-20800D01*
X60513Y-20838D01*
X60527Y-20874D01*
X60548Y-20906D01*
X60575Y-20934D01*
X60607Y-20956D01*
X60642Y-20971D01*
X60680Y-20980D01*
X60718Y-20980D01*
X60756Y-20974D01*
X60792Y-20960D01*
X60825Y-20939D01*
X60853Y-20912D01*
X60875Y-20881D01*
X60891Y-20846D01*
X60899Y-20808D01*
X60900Y-20764D01*
X60900Y-22452D01*
X60881Y-22479D01*
X60866Y-22514D01*
X60858Y-22552D01*
X60858Y-22591D01*
X60864Y-22629D01*
X60879Y-22665D01*
X60900Y-22697D01*
X60926Y-22725D01*
X60958Y-22747D01*
X60993Y-22762D01*
X61031Y-22771D01*
X61070Y-22772D01*
X61108Y-22765D01*
X61144Y-22751D01*
X61176Y-22730D01*
X61204Y-22704D01*
X61227Y-22672D01*
X61242Y-22637D01*
X61251Y-22599D01*
X61251Y-22555D01*
X61251Y-23547D01*
X61230Y-23542D01*
X61192Y-23542D01*
X61154Y-23549D01*
X61118Y-23564D01*
X61086Y-23585D01*
X61058Y-23612D01*
X61036Y-23644D01*
X61021Y-23679D01*
X61013Y-23717D01*
X61012Y-23756D01*
X61019Y-23794D01*
X61034Y-23829D01*
X61055Y-23862D01*
X61081Y-23890D01*
X61113Y-23912D01*
X61148Y-23927D01*
X61186Y-23935D01*
X61225Y-23936D01*
X61263Y-23930D01*
X61299Y-23916D01*
X61331Y-23895D01*
X61359Y-23868D01*
X61382Y-23837D01*
X61397Y-23802D01*
X61406Y-23764D01*
X61406Y-23720D01*
X61406Y-29145D01*
X60088Y-29147D01*
X60088Y-16549D01*
X60081Y-16511D01*
X60066Y-16475D01*
X60059Y-16464D01*
X60059Y-15630D01*
X60051Y-15592D01*
X60036Y-15556D01*
X60015Y-15524D01*
X59988Y-15497D01*
X59956Y-15475D01*
X59920Y-15460D01*
X59882Y-15452D01*
X59844Y-15452D01*
X59806Y-15459D01*
X59770Y-15474D01*
X59738Y-15495D01*
X59710Y-15522D01*
X59688Y-15554D01*
X59673Y-15589D01*
X59665Y-15627D01*
X59665Y-15666D01*
X59672Y-15704D01*
X59686Y-15740D01*
X59707Y-15772D01*
X59734Y-15800D01*
X59765Y-15822D01*
X59801Y-15837D01*
X59838Y-15846D01*
X59877Y-15846D01*
X59915Y-15840D01*
X59951Y-15826D01*
X59983Y-15805D01*
X60011Y-15778D01*
X60034Y-15747D01*
X60049Y-15712D01*
X60058Y-15674D01*
X60059Y-15630D01*
X60059Y-16464D01*
X60045Y-16443D01*
X60017Y-16415D01*
X59985Y-16394D01*
X59950Y-16379D01*
X59912Y-16371D01*
X59873Y-16371D01*
X59835Y-16378D01*
X59800Y-16393D01*
X59767Y-16414D01*
X59740Y-16441D01*
X59718Y-16473D01*
X59703Y-16508D01*
X59695Y-16546D01*
X59694Y-16584D01*
X59701Y-16622D01*
X59715Y-16658D01*
X59736Y-16691D01*
X59763Y-16718D01*
X59795Y-16740D01*
X59830Y-16756D01*
X59868Y-16764D01*
X59906Y-16765D01*
X59944Y-16758D01*
X59980Y-16744D01*
X60013Y-16724D01*
X60041Y-16697D01*
X60063Y-16666D01*
X60079Y-16630D01*
X60087Y-16593D01*
X60088Y-16549D01*
X60088Y-29147D01*
X59793Y-29147D01*
X59793Y-19006D01*
X59785Y-18968D01*
X59771Y-18932D01*
X59749Y-18900D01*
X59722Y-18873D01*
X59690Y-18851D01*
X59654Y-18836D01*
X59617Y-18828D01*
X59578Y-18828D01*
X59540Y-18835D01*
X59504Y-18850D01*
X59472Y-18871D01*
X59444Y-18898D01*
X59423Y-18930D01*
X59407Y-18965D01*
X59399Y-19003D01*
X59399Y-19042D01*
X59406Y-19080D01*
X59420Y-19116D01*
X59441Y-19148D01*
X59468Y-19176D01*
X59499Y-19198D01*
X59535Y-19213D01*
X59573Y-19222D01*
X59611Y-19222D01*
X59649Y-19216D01*
X59685Y-19202D01*
X59718Y-19181D01*
X59746Y-19154D01*
X59768Y-19123D01*
X59784Y-19088D01*
X59792Y-19050D01*
X59793Y-19006D01*
X59793Y-29147D01*
X59586Y-29147D01*
X59586Y-19586D01*
X59579Y-19549D01*
X59564Y-19513D01*
X59543Y-19481D01*
X59515Y-19453D01*
X59483Y-19432D01*
X59448Y-19417D01*
X59410Y-19409D01*
X59371Y-19409D01*
X59352Y-19412D01*
X59352Y-15506D01*
X59345Y-15468D01*
X59330Y-15432D01*
X59309Y-15400D01*
X59281Y-15372D01*
X59249Y-15351D01*
X59214Y-15336D01*
X59176Y-15328D01*
X59137Y-15328D01*
X59100Y-15335D01*
X59064Y-15350D01*
X59031Y-15371D01*
X59004Y-15398D01*
X58982Y-15430D01*
X58967Y-15465D01*
X58959Y-15503D01*
X58958Y-15541D01*
X58965Y-15579D01*
X58979Y-15615D01*
X59000Y-15648D01*
X59027Y-15675D01*
X59059Y-15697D01*
X59094Y-15713D01*
X59132Y-15721D01*
X59171Y-15722D01*
X59209Y-15715D01*
X59245Y-15701D01*
X59277Y-15681D01*
X59305Y-15654D01*
X59327Y-15623D01*
X59343Y-15587D01*
X59352Y-15550D01*
X59352Y-15506D01*
X59352Y-19412D01*
X59333Y-19416D01*
X59298Y-19431D01*
X59265Y-19452D01*
X59238Y-19479D01*
X59216Y-19511D01*
X59201Y-19546D01*
X59193Y-19584D01*
X59192Y-19622D01*
X59199Y-19660D01*
X59213Y-19696D01*
X59234Y-19729D01*
X59261Y-19756D01*
X59293Y-19778D01*
X59328Y-19794D01*
X59366Y-19802D01*
X59404Y-19803D01*
X59442Y-19796D01*
X59478Y-19782D01*
X59511Y-19762D01*
X59539Y-19735D01*
X59561Y-19704D01*
X59577Y-19668D01*
X59586Y-19631D01*
X59586Y-19586D01*
X59586Y-29147D01*
X58614Y-29149D01*
X58614Y-27069D01*
X58602Y-27008D01*
X58600Y-27001D01*
X58600Y-17171D01*
X58592Y-17133D01*
X58577Y-17098D01*
X58556Y-17066D01*
X58529Y-17038D01*
X58497Y-17017D01*
X58461Y-17002D01*
X58423Y-16994D01*
X58385Y-16994D01*
X58347Y-17001D01*
X58311Y-17015D01*
X58291Y-17029D01*
X58291Y-16563D01*
X58283Y-16525D01*
X58269Y-16489D01*
X58247Y-16457D01*
X58220Y-16430D01*
X58188Y-16408D01*
X58152Y-16393D01*
X58115Y-16385D01*
X58076Y-16385D01*
X58038Y-16392D01*
X58002Y-16407D01*
X57970Y-16428D01*
X57942Y-16455D01*
X57921Y-16487D01*
X57905Y-16522D01*
X57897Y-16560D01*
X57897Y-16599D01*
X57904Y-16637D01*
X57918Y-16673D01*
X57939Y-16705D01*
X57966Y-16733D01*
X57997Y-16755D01*
X58033Y-16770D01*
X58071Y-16779D01*
X58109Y-16779D01*
X58147Y-16773D01*
X58183Y-16759D01*
X58216Y-16738D01*
X58244Y-16711D01*
X58266Y-16680D01*
X58282Y-16645D01*
X58290Y-16607D01*
X58291Y-16563D01*
X58291Y-17029D01*
X58279Y-17036D01*
X58251Y-17063D01*
X58229Y-17095D01*
X58214Y-17131D01*
X58206Y-17169D01*
X58206Y-17207D01*
X58213Y-17245D01*
X58223Y-17271D01*
X58208Y-17257D01*
X58176Y-17235D01*
X58141Y-17220D01*
X58103Y-17212D01*
X58064Y-17212D01*
X58026Y-17219D01*
X57991Y-17234D01*
X57958Y-17255D01*
X57950Y-17263D01*
X57919Y-17241D01*
X57883Y-17226D01*
X57846Y-17219D01*
X57807Y-17218D01*
X57769Y-17226D01*
X57733Y-17240D01*
X57701Y-17261D01*
X57673Y-17288D01*
X57651Y-17320D01*
X57636Y-17356D01*
X57628Y-17393D01*
X57628Y-17432D01*
X57635Y-17470D01*
X57649Y-17506D01*
X57670Y-17538D01*
X57697Y-17566D01*
X57728Y-17588D01*
X57764Y-17604D01*
X57801Y-17612D01*
X57840Y-17613D01*
X57878Y-17606D01*
X57914Y-17592D01*
X57947Y-17571D01*
X57957Y-17562D01*
X57986Y-17582D01*
X58021Y-17597D01*
X58059Y-17605D01*
X58097Y-17606D01*
X58135Y-17599D01*
X58171Y-17586D01*
X58204Y-17565D01*
X58232Y-17538D01*
X58254Y-17507D01*
X58270Y-17471D01*
X58278Y-17434D01*
X58279Y-17390D01*
X58272Y-17352D01*
X58262Y-17328D01*
X58274Y-17341D01*
X58306Y-17363D01*
X58342Y-17379D01*
X58379Y-17387D01*
X58418Y-17388D01*
X58456Y-17381D01*
X58492Y-17367D01*
X58524Y-17347D01*
X58552Y-17320D01*
X58575Y-17288D01*
X58590Y-17253D01*
X58599Y-17215D01*
X58600Y-17171D01*
X58600Y-27001D01*
X58579Y-26951D01*
X58545Y-26899D01*
X58501Y-26856D01*
X58450Y-26821D01*
X58423Y-26810D01*
X58433Y-26804D01*
X58477Y-26761D01*
X58513Y-26711D01*
X58538Y-26655D01*
X58552Y-26594D01*
X58553Y-26524D01*
X58541Y-26463D01*
X58517Y-26406D01*
X58483Y-26355D01*
X58439Y-26311D01*
X58388Y-26276D01*
X58331Y-26252D01*
X58271Y-26240D01*
X58235Y-26240D01*
X58235Y-19221D01*
X58227Y-19183D01*
X58212Y-19148D01*
X58191Y-19116D01*
X58164Y-19088D01*
X58132Y-19067D01*
X58096Y-19052D01*
X58058Y-19044D01*
X58020Y-19044D01*
X57982Y-19051D01*
X57946Y-19065D01*
X57914Y-19086D01*
X57886Y-19113D01*
X57864Y-19145D01*
X57849Y-19181D01*
X57841Y-19219D01*
X57841Y-19257D01*
X57848Y-19295D01*
X57862Y-19331D01*
X57883Y-19363D01*
X57910Y-19391D01*
X57941Y-19413D01*
X57977Y-19429D01*
X58014Y-19437D01*
X58053Y-19438D01*
X58091Y-19431D01*
X58127Y-19417D01*
X58160Y-19396D01*
X58188Y-19370D01*
X58210Y-19338D01*
X58225Y-19303D01*
X58234Y-19265D01*
X58235Y-19221D01*
X58235Y-26240D01*
X58209Y-26239D01*
X58148Y-26251D01*
X58091Y-26274D01*
X58039Y-26308D01*
X57995Y-26351D01*
X57960Y-26402D01*
X57936Y-26459D01*
X57923Y-26519D01*
X57922Y-26581D01*
X57933Y-26642D01*
X57956Y-26699D01*
X57990Y-26751D01*
X58033Y-26796D01*
X58083Y-26831D01*
X58114Y-26844D01*
X58101Y-26853D01*
X58057Y-26896D01*
X58022Y-26947D01*
X57998Y-27004D01*
X57985Y-27064D01*
X57984Y-27126D01*
X57995Y-27187D01*
X58018Y-27244D01*
X58051Y-27296D01*
X58094Y-27341D01*
X58145Y-27376D01*
X58202Y-27400D01*
X58262Y-27414D01*
X58324Y-27415D01*
X58385Y-27404D01*
X58442Y-27382D01*
X58494Y-27349D01*
X58539Y-27306D01*
X58575Y-27256D01*
X58600Y-27199D01*
X58613Y-27139D01*
X58614Y-27069D01*
X58614Y-29149D01*
X57903Y-29150D01*
X57903Y-24437D01*
X57891Y-24377D01*
X57868Y-24319D01*
X57833Y-24268D01*
X57793Y-24228D01*
X57793Y-18629D01*
X57786Y-18592D01*
X57771Y-18556D01*
X57750Y-18524D01*
X57722Y-18496D01*
X57690Y-18475D01*
X57655Y-18460D01*
X57617Y-18452D01*
X57578Y-18452D01*
X57541Y-18459D01*
X57505Y-18473D01*
X57472Y-18495D01*
X57445Y-18522D01*
X57423Y-18553D01*
X57408Y-18589D01*
X57400Y-18627D01*
X57399Y-18665D01*
X57406Y-18703D01*
X57420Y-18739D01*
X57441Y-18772D01*
X57468Y-18799D01*
X57500Y-18821D01*
X57535Y-18837D01*
X57573Y-18845D01*
X57612Y-18846D01*
X57650Y-18839D01*
X57686Y-18825D01*
X57718Y-18805D01*
X57746Y-18778D01*
X57768Y-18746D01*
X57784Y-18711D01*
X57793Y-18674D01*
X57793Y-18629D01*
X57793Y-24228D01*
X57790Y-24224D01*
X57739Y-24190D01*
X57682Y-24166D01*
X57621Y-24153D01*
X57559Y-24153D01*
X57499Y-24164D01*
X57481Y-24172D01*
X57481Y-23222D01*
X57473Y-23184D01*
X57458Y-23148D01*
X57437Y-23116D01*
X57410Y-23089D01*
X57378Y-23067D01*
X57342Y-23052D01*
X57310Y-23046D01*
X57310Y-18090D01*
X57303Y-18052D01*
X57288Y-18016D01*
X57279Y-18003D01*
X57279Y-16493D01*
X57263Y-16412D01*
X57231Y-16335D01*
X57185Y-16266D01*
X57127Y-16207D01*
X57058Y-16161D01*
X56982Y-16129D01*
X56900Y-16112D01*
X56850Y-16112D01*
X56850Y-15457D01*
X56842Y-15419D01*
X56828Y-15383D01*
X56806Y-15351D01*
X56787Y-15331D01*
X56787Y-14401D01*
X56779Y-14363D01*
X56765Y-14327D01*
X56743Y-14295D01*
X56716Y-14268D01*
X56684Y-14246D01*
X56649Y-14231D01*
X56611Y-14223D01*
X56572Y-14223D01*
X56534Y-14230D01*
X56498Y-14245D01*
X56466Y-14266D01*
X56439Y-14293D01*
X56417Y-14325D01*
X56402Y-14360D01*
X56393Y-14398D01*
X56393Y-14437D01*
X56400Y-14475D01*
X56414Y-14511D01*
X56435Y-14543D01*
X56462Y-14571D01*
X56494Y-14593D01*
X56529Y-14608D01*
X56567Y-14617D01*
X56605Y-14617D01*
X56643Y-14611D01*
X56679Y-14597D01*
X56712Y-14576D01*
X56740Y-14549D01*
X56762Y-14518D01*
X56778Y-14483D01*
X56786Y-14445D01*
X56787Y-14401D01*
X56787Y-15331D01*
X56779Y-15323D01*
X56747Y-15302D01*
X56712Y-15287D01*
X56674Y-15279D01*
X56635Y-15279D01*
X56597Y-15286D01*
X56561Y-15301D01*
X56529Y-15322D01*
X56502Y-15349D01*
X56480Y-15381D01*
X56464Y-15416D01*
X56456Y-15454D01*
X56456Y-15492D01*
X56463Y-15530D01*
X56477Y-15566D01*
X56498Y-15599D01*
X56525Y-15627D01*
X56557Y-15649D01*
X56592Y-15664D01*
X56630Y-15672D01*
X56668Y-15673D01*
X56706Y-15666D01*
X56742Y-15652D01*
X56775Y-15632D01*
X56803Y-15605D01*
X56825Y-15574D01*
X56841Y-15538D01*
X56849Y-15501D01*
X56850Y-15457D01*
X56850Y-16112D01*
X56817Y-16111D01*
X56736Y-16127D01*
X56659Y-16158D01*
X56589Y-16203D01*
X56530Y-16262D01*
X56483Y-16330D01*
X56450Y-16406D01*
X56433Y-16488D01*
X56432Y-16571D01*
X56447Y-16652D01*
X56478Y-16729D01*
X56523Y-16799D01*
X56580Y-16859D01*
X56648Y-16906D01*
X56724Y-16939D01*
X56805Y-16957D01*
X56888Y-16959D01*
X56970Y-16945D01*
X57048Y-16915D01*
X57118Y-16870D01*
X57178Y-16813D01*
X57226Y-16745D01*
X57259Y-16669D01*
X57278Y-16588D01*
X57279Y-16493D01*
X57279Y-18003D01*
X57267Y-17984D01*
X57240Y-17957D01*
X57208Y-17935D01*
X57172Y-17920D01*
X57134Y-17912D01*
X57096Y-17912D01*
X57058Y-17919D01*
X57022Y-17934D01*
X56989Y-17955D01*
X56962Y-17982D01*
X56940Y-18014D01*
X56925Y-18049D01*
X56917Y-18087D01*
X56916Y-18126D01*
X56923Y-18164D01*
X56937Y-18199D01*
X56958Y-18232D01*
X56985Y-18260D01*
X57017Y-18282D01*
X57052Y-18297D01*
X57090Y-18305D01*
X57129Y-18306D01*
X57167Y-18299D01*
X57203Y-18286D01*
X57235Y-18265D01*
X57263Y-18238D01*
X57285Y-18207D01*
X57301Y-18171D01*
X57310Y-18134D01*
X57310Y-18090D01*
X57310Y-23046D01*
X57304Y-23045D01*
X57266Y-23044D01*
X57228Y-23052D01*
X57192Y-23066D01*
X57160Y-23087D01*
X57132Y-23114D01*
X57110Y-23146D01*
X57095Y-23182D01*
X57087Y-23219D01*
X57087Y-23258D01*
X57094Y-23296D01*
X57108Y-23332D01*
X57129Y-23364D01*
X57156Y-23392D01*
X57187Y-23414D01*
X57223Y-23429D01*
X57260Y-23438D01*
X57299Y-23439D01*
X57337Y-23432D01*
X57373Y-23418D01*
X57406Y-23397D01*
X57433Y-23371D01*
X57456Y-23339D01*
X57471Y-23304D01*
X57480Y-23266D01*
X57481Y-23222D01*
X57481Y-24172D01*
X57441Y-24188D01*
X57390Y-24221D01*
X57346Y-24265D01*
X57311Y-24316D01*
X57286Y-24372D01*
X57274Y-24433D01*
X57273Y-24494D01*
X57284Y-24555D01*
X57307Y-24613D01*
X57340Y-24665D01*
X57383Y-24709D01*
X57434Y-24744D01*
X57490Y-24769D01*
X57551Y-24782D01*
X57612Y-24784D01*
X57673Y-24773D01*
X57731Y-24750D01*
X57783Y-24717D01*
X57828Y-24675D01*
X57863Y-24624D01*
X57888Y-24568D01*
X57902Y-24508D01*
X57903Y-24437D01*
X57903Y-29150D01*
X56950Y-29151D01*
X56950Y-20187D01*
X56942Y-20149D01*
X56928Y-20113D01*
X56906Y-20081D01*
X56879Y-20054D01*
X56847Y-20032D01*
X56812Y-20017D01*
X56774Y-20009D01*
X56735Y-20009D01*
X56697Y-20016D01*
X56661Y-20031D01*
X56629Y-20052D01*
X56602Y-20079D01*
X56580Y-20111D01*
X56564Y-20146D01*
X56556Y-20184D01*
X56556Y-20223D01*
X56563Y-20261D01*
X56577Y-20296D01*
X56598Y-20329D01*
X56625Y-20357D01*
X56657Y-20379D01*
X56692Y-20394D01*
X56730Y-20402D01*
X56768Y-20403D01*
X56806Y-20397D01*
X56842Y-20383D01*
X56875Y-20362D01*
X56903Y-20335D01*
X56925Y-20304D01*
X56941Y-20268D01*
X56949Y-20231D01*
X56950Y-20187D01*
X56950Y-29151D01*
X56742Y-29151D01*
X56742Y-25172D01*
X56734Y-25134D01*
X56719Y-25098D01*
X56698Y-25066D01*
X56671Y-25039D01*
X56639Y-25017D01*
X56603Y-25002D01*
X56565Y-24995D01*
X56527Y-24994D01*
X56489Y-25002D01*
X56453Y-25016D01*
X56427Y-25033D01*
X56427Y-17256D01*
X56420Y-17218D01*
X56405Y-17182D01*
X56383Y-17150D01*
X56356Y-17123D01*
X56324Y-17101D01*
X56289Y-17086D01*
X56251Y-17078D01*
X56212Y-17078D01*
X56174Y-17085D01*
X56139Y-17100D01*
X56120Y-17112D01*
X56117Y-17108D01*
X56110Y-17104D01*
X56110Y-15628D01*
X56102Y-15590D01*
X56088Y-15554D01*
X56066Y-15522D01*
X56039Y-15495D01*
X56007Y-15473D01*
X55971Y-15458D01*
X55934Y-15450D01*
X55895Y-15450D01*
X55857Y-15457D01*
X55821Y-15472D01*
X55789Y-15493D01*
X55761Y-15520D01*
X55740Y-15552D01*
X55724Y-15587D01*
X55716Y-15625D01*
X55716Y-15664D01*
X55723Y-15702D01*
X55737Y-15738D01*
X55758Y-15770D01*
X55785Y-15798D01*
X55816Y-15820D01*
X55852Y-15835D01*
X55889Y-15844D01*
X55928Y-15844D01*
X55966Y-15838D01*
X56002Y-15824D01*
X56035Y-15803D01*
X56063Y-15776D01*
X56085Y-15745D01*
X56101Y-15710D01*
X56109Y-15672D01*
X56110Y-15628D01*
X56110Y-17104D01*
X56085Y-17087D01*
X56049Y-17072D01*
X56011Y-17064D01*
X55973Y-17064D01*
X55935Y-17071D01*
X55899Y-17085D01*
X55867Y-17107D01*
X55839Y-17134D01*
X55817Y-17165D01*
X55802Y-17201D01*
X55794Y-17239D01*
X55793Y-17277D01*
X55800Y-17315D01*
X55815Y-17351D01*
X55836Y-17384D01*
X55862Y-17411D01*
X55894Y-17433D01*
X55929Y-17449D01*
X55967Y-17457D01*
X56006Y-17458D01*
X56044Y-17451D01*
X56080Y-17437D01*
X56100Y-17424D01*
X56102Y-17426D01*
X56134Y-17448D01*
X56169Y-17463D01*
X56207Y-17472D01*
X56245Y-17472D01*
X56283Y-17466D01*
X56319Y-17452D01*
X56352Y-17431D01*
X56380Y-17404D01*
X56402Y-17373D01*
X56418Y-17338D01*
X56426Y-17300D01*
X56427Y-17256D01*
X56427Y-25033D01*
X56421Y-25037D01*
X56393Y-25064D01*
X56371Y-25096D01*
X56356Y-25132D01*
X56348Y-25169D01*
X56348Y-25208D01*
X56355Y-25246D01*
X56369Y-25282D01*
X56390Y-25314D01*
X56417Y-25342D01*
X56448Y-25364D01*
X56484Y-25379D01*
X56521Y-25388D01*
X56560Y-25389D01*
X56598Y-25382D01*
X56634Y-25368D01*
X56667Y-25347D01*
X56695Y-25321D01*
X56717Y-25289D01*
X56732Y-25254D01*
X56741Y-25216D01*
X56742Y-25172D01*
X56742Y-29151D01*
X56263Y-29152D01*
X56263Y-19270D01*
X56255Y-19234D01*
X56255Y-17764D01*
X56248Y-17726D01*
X56233Y-17690D01*
X56212Y-17658D01*
X56185Y-17631D01*
X56153Y-17609D01*
X56117Y-17594D01*
X56079Y-17586D01*
X56041Y-17586D01*
X56003Y-17593D01*
X55967Y-17608D01*
X55935Y-17629D01*
X55907Y-17656D01*
X55885Y-17688D01*
X55870Y-17723D01*
X55862Y-17761D01*
X55861Y-17800D01*
X55868Y-17837D01*
X55883Y-17873D01*
X55904Y-17906D01*
X55930Y-17934D01*
X55962Y-17956D01*
X55997Y-17971D01*
X56035Y-17979D01*
X56074Y-17980D01*
X56112Y-17973D01*
X56148Y-17960D01*
X56180Y-17939D01*
X56208Y-17912D01*
X56231Y-17881D01*
X56246Y-17845D01*
X56255Y-17808D01*
X56255Y-17764D01*
X56255Y-19234D01*
X56255Y-19232D01*
X56240Y-19196D01*
X56219Y-19164D01*
X56192Y-19137D01*
X56160Y-19115D01*
X56124Y-19100D01*
X56086Y-19093D01*
X56048Y-19092D01*
X56010Y-19100D01*
X55974Y-19114D01*
X55942Y-19135D01*
X55914Y-19162D01*
X55892Y-19194D01*
X55877Y-19230D01*
X55869Y-19267D01*
X55869Y-19306D01*
X55876Y-19344D01*
X55890Y-19380D01*
X55911Y-19412D01*
X55937Y-19440D01*
X55969Y-19462D01*
X56005Y-19477D01*
X56042Y-19486D01*
X56081Y-19487D01*
X56119Y-19480D01*
X56155Y-19466D01*
X56187Y-19445D01*
X56215Y-19419D01*
X56238Y-19387D01*
X56253Y-19352D01*
X56262Y-19314D01*
X56263Y-19270D01*
X56263Y-29152D01*
X56023Y-29152D01*
X56023Y-21132D01*
X56016Y-21094D01*
X56001Y-21058D01*
X55980Y-21026D01*
X55952Y-20999D01*
X55920Y-20977D01*
X55885Y-20962D01*
X55847Y-20954D01*
X55808Y-20954D01*
X55770Y-20961D01*
X55735Y-20976D01*
X55702Y-20997D01*
X55675Y-21024D01*
X55664Y-21040D01*
X55664Y-19630D01*
X55657Y-19592D01*
X55642Y-19557D01*
X55621Y-19525D01*
X55593Y-19497D01*
X55561Y-19476D01*
X55526Y-19461D01*
X55488Y-19453D01*
X55473Y-19453D01*
X55473Y-19053D01*
X55465Y-19015D01*
X55451Y-18980D01*
X55429Y-18947D01*
X55402Y-18920D01*
X55370Y-18898D01*
X55334Y-18883D01*
X55297Y-18876D01*
X55294Y-18876D01*
X55294Y-17732D01*
X55286Y-17694D01*
X55272Y-17658D01*
X55250Y-17626D01*
X55223Y-17599D01*
X55191Y-17577D01*
X55156Y-17562D01*
X55118Y-17555D01*
X55079Y-17554D01*
X55041Y-17562D01*
X55005Y-17576D01*
X54973Y-17597D01*
X54946Y-17624D01*
X54924Y-17656D01*
X54909Y-17692D01*
X54901Y-17729D01*
X54900Y-17768D01*
X54907Y-17806D01*
X54921Y-17842D01*
X54942Y-17874D01*
X54969Y-17902D01*
X55001Y-17924D01*
X55036Y-17939D01*
X55074Y-17948D01*
X55112Y-17949D01*
X55150Y-17942D01*
X55186Y-17928D01*
X55219Y-17907D01*
X55247Y-17881D01*
X55269Y-17849D01*
X55285Y-17814D01*
X55293Y-17776D01*
X55294Y-17732D01*
X55294Y-18876D01*
X55258Y-18875D01*
X55220Y-18883D01*
X55184Y-18897D01*
X55152Y-18918D01*
X55124Y-18945D01*
X55103Y-18977D01*
X55087Y-19013D01*
X55079Y-19050D01*
X55079Y-19063D01*
X55046Y-19070D01*
X55010Y-19084D01*
X54978Y-19105D01*
X54950Y-19132D01*
X54929Y-19164D01*
X54913Y-19200D01*
X54905Y-19237D01*
X54905Y-19276D01*
X54912Y-19314D01*
X54926Y-19350D01*
X54947Y-19382D01*
X54974Y-19410D01*
X55005Y-19432D01*
X55041Y-19447D01*
X55078Y-19456D01*
X55117Y-19457D01*
X55155Y-19450D01*
X55191Y-19436D01*
X55224Y-19415D01*
X55252Y-19389D01*
X55274Y-19357D01*
X55290Y-19322D01*
X55298Y-19284D01*
X55298Y-19268D01*
X55329Y-19263D01*
X55365Y-19249D01*
X55398Y-19228D01*
X55426Y-19202D01*
X55448Y-19170D01*
X55464Y-19135D01*
X55472Y-19097D01*
X55473Y-19053D01*
X55473Y-19453D01*
X55449Y-19453D01*
X55411Y-19460D01*
X55376Y-19474D01*
X55343Y-19495D01*
X55316Y-19522D01*
X55294Y-19554D01*
X55279Y-19590D01*
X55271Y-19628D01*
X55270Y-19666D01*
X55277Y-19704D01*
X55291Y-19740D01*
X55312Y-19772D01*
X55339Y-19800D01*
X55371Y-19822D01*
X55406Y-19838D01*
X55444Y-19846D01*
X55482Y-19847D01*
X55520Y-19840D01*
X55556Y-19826D01*
X55589Y-19805D01*
X55617Y-19779D01*
X55639Y-19747D01*
X55655Y-19712D01*
X55663Y-19674D01*
X55664Y-19630D01*
X55664Y-21040D01*
X55653Y-21056D01*
X55638Y-21091D01*
X55630Y-21129D01*
X55629Y-21168D01*
X55636Y-21206D01*
X55650Y-21241D01*
X55671Y-21274D01*
X55698Y-21302D01*
X55730Y-21324D01*
X55765Y-21339D01*
X55803Y-21347D01*
X55841Y-21348D01*
X55879Y-21342D01*
X55915Y-21328D01*
X55948Y-21307D01*
X55976Y-21280D01*
X55998Y-21249D01*
X56014Y-21214D01*
X56023Y-21176D01*
X56023Y-21132D01*
X56023Y-29152D01*
X55779Y-29152D01*
X55779Y-23513D01*
X55771Y-23475D01*
X55756Y-23440D01*
X55735Y-23407D01*
X55708Y-23380D01*
X55676Y-23358D01*
X55640Y-23344D01*
X55602Y-23336D01*
X55564Y-23336D01*
X55526Y-23343D01*
X55490Y-23357D01*
X55458Y-23378D01*
X55430Y-23405D01*
X55408Y-23437D01*
X55393Y-23473D01*
X55385Y-23510D01*
X55385Y-23549D01*
X55392Y-23587D01*
X55406Y-23623D01*
X55427Y-23655D01*
X55454Y-23683D01*
X55485Y-23705D01*
X55521Y-23721D01*
X55558Y-23729D01*
X55597Y-23730D01*
X55635Y-23723D01*
X55671Y-23709D01*
X55704Y-23688D01*
X55732Y-23662D01*
X55754Y-23630D01*
X55769Y-23595D01*
X55778Y-23557D01*
X55779Y-23513D01*
X55779Y-29152D01*
X55264Y-29153D01*
X55264Y-25470D01*
X55257Y-25432D01*
X55242Y-25396D01*
X55221Y-25364D01*
X55193Y-25336D01*
X55161Y-25315D01*
X55126Y-25300D01*
X55088Y-25292D01*
X55049Y-25292D01*
X55011Y-25299D01*
X54976Y-25314D01*
X54943Y-25335D01*
X54916Y-25362D01*
X54894Y-25394D01*
X54879Y-25429D01*
X54871Y-25467D01*
X54870Y-25505D01*
X54877Y-25543D01*
X54891Y-25579D01*
X54912Y-25612D01*
X54939Y-25640D01*
X54971Y-25662D01*
X55006Y-25677D01*
X55044Y-25685D01*
X55082Y-25686D01*
X55120Y-25679D01*
X55156Y-25665D01*
X55189Y-25645D01*
X55217Y-25618D01*
X55239Y-25587D01*
X55255Y-25551D01*
X55263Y-25514D01*
X55264Y-25470D01*
X55264Y-29153D01*
X55137Y-29153D01*
X55137Y-28259D01*
X55013Y-28405D01*
X54745Y-28583D01*
X54745Y-14570D01*
X54735Y-14469D01*
X54707Y-14372D01*
X54660Y-14283D01*
X54597Y-14204D01*
X54519Y-14139D01*
X54431Y-14090D01*
X54334Y-14060D01*
X54234Y-14048D01*
X54226Y-14048D01*
X54221Y-14048D01*
X54121Y-14058D01*
X54024Y-14087D01*
X53935Y-14135D01*
X53856Y-14199D01*
X53792Y-14277D01*
X53744Y-14366D01*
X53714Y-14462D01*
X53703Y-14563D01*
X53712Y-14664D01*
X53741Y-14761D01*
X53788Y-14850D01*
X53851Y-14929D01*
X53929Y-14994D01*
X54017Y-15043D01*
X54114Y-15073D01*
X54214Y-15084D01*
X54221Y-15085D01*
X54226Y-15085D01*
X54327Y-15075D01*
X54424Y-15045D01*
X54513Y-14998D01*
X54591Y-14934D01*
X54656Y-14856D01*
X54704Y-14767D01*
X54734Y-14671D01*
X54745Y-14570D01*
X54745Y-28583D01*
X54696Y-28616D01*
X54696Y-15380D01*
X54689Y-15342D01*
X54674Y-15307D01*
X54653Y-15274D01*
X54626Y-15247D01*
X54594Y-15226D01*
X54558Y-15211D01*
X54520Y-15203D01*
X54482Y-15203D01*
X54444Y-15210D01*
X54408Y-15224D01*
X54376Y-15245D01*
X54348Y-15272D01*
X54326Y-15304D01*
X54311Y-15340D01*
X54303Y-15377D01*
X54302Y-15416D01*
X54309Y-15454D01*
X54324Y-15490D01*
X54344Y-15522D01*
X54371Y-15550D01*
X54403Y-15572D01*
X54438Y-15588D01*
X54476Y-15596D01*
X54515Y-15597D01*
X54553Y-15590D01*
X54589Y-15576D01*
X54621Y-15555D01*
X54649Y-15529D01*
X54671Y-15497D01*
X54687Y-15462D01*
X54696Y-15424D01*
X54696Y-15380D01*
X54696Y-28616D01*
X54607Y-28675D01*
X54607Y-20441D01*
X54599Y-20403D01*
X54584Y-20367D01*
X54563Y-20335D01*
X54536Y-20308D01*
X54504Y-20286D01*
X54468Y-20271D01*
X54430Y-20264D01*
X54392Y-20263D01*
X54354Y-20270D01*
X54318Y-20285D01*
X54286Y-20306D01*
X54258Y-20333D01*
X54236Y-20365D01*
X54221Y-20400D01*
X54213Y-20438D01*
X54213Y-20477D01*
X54220Y-20515D01*
X54234Y-20551D01*
X54255Y-20583D01*
X54282Y-20611D01*
X54313Y-20633D01*
X54349Y-20648D01*
X54386Y-20657D01*
X54425Y-20657D01*
X54463Y-20651D01*
X54499Y-20637D01*
X54532Y-20616D01*
X54559Y-20589D01*
X54582Y-20558D01*
X54597Y-20523D01*
X54606Y-20485D01*
X54607Y-20441D01*
X54607Y-28675D01*
X54275Y-28896D01*
X54275Y-20785D01*
X54268Y-20747D01*
X54253Y-20711D01*
X54232Y-20679D01*
X54204Y-20652D01*
X54172Y-20630D01*
X54137Y-20615D01*
X54099Y-20607D01*
X54060Y-20607D01*
X54022Y-20614D01*
X53987Y-20629D01*
X53954Y-20650D01*
X53936Y-20668D01*
X53936Y-19833D01*
X53929Y-19795D01*
X53914Y-19760D01*
X53893Y-19728D01*
X53865Y-19700D01*
X53833Y-19679D01*
X53798Y-19664D01*
X53760Y-19656D01*
X53721Y-19656D01*
X53683Y-19663D01*
X53676Y-19666D01*
X53676Y-15005D01*
X53669Y-14967D01*
X53654Y-14931D01*
X53633Y-14899D01*
X53606Y-14872D01*
X53574Y-14850D01*
X53538Y-14835D01*
X53500Y-14828D01*
X53461Y-14827D01*
X53424Y-14835D01*
X53388Y-14849D01*
X53355Y-14870D01*
X53328Y-14897D01*
X53306Y-14929D01*
X53291Y-14965D01*
X53283Y-15002D01*
X53282Y-15041D01*
X53289Y-15079D01*
X53303Y-15115D01*
X53324Y-15147D01*
X53351Y-15175D01*
X53383Y-15197D01*
X53418Y-15212D01*
X53456Y-15221D01*
X53495Y-15222D01*
X53533Y-15215D01*
X53569Y-15201D01*
X53601Y-15180D01*
X53629Y-15154D01*
X53651Y-15122D01*
X53667Y-15087D01*
X53676Y-15049D01*
X53676Y-15005D01*
X53676Y-19666D01*
X53648Y-19677D01*
X53615Y-19698D01*
X53588Y-19725D01*
X53566Y-19757D01*
X53551Y-19793D01*
X53543Y-19831D01*
X53542Y-19869D01*
X53549Y-19907D01*
X53563Y-19943D01*
X53584Y-19975D01*
X53611Y-20003D01*
X53643Y-20025D01*
X53678Y-20041D01*
X53716Y-20049D01*
X53754Y-20050D01*
X53792Y-20043D01*
X53828Y-20029D01*
X53861Y-20008D01*
X53889Y-19982D01*
X53911Y-19950D01*
X53927Y-19915D01*
X53936Y-19877D01*
X53936Y-19833D01*
X53936Y-20668D01*
X53927Y-20677D01*
X53905Y-20709D01*
X53890Y-20744D01*
X53882Y-20782D01*
X53881Y-20821D01*
X53888Y-20859D01*
X53902Y-20895D01*
X53923Y-20927D01*
X53950Y-20955D01*
X53982Y-20977D01*
X54017Y-20992D01*
X54055Y-21001D01*
X54093Y-21001D01*
X54131Y-20995D01*
X54167Y-20981D01*
X54200Y-20960D01*
X54228Y-20933D01*
X54250Y-20902D01*
X54266Y-20867D01*
X54274Y-20829D01*
X54275Y-20785D01*
X54275Y-28896D01*
X54178Y-28961D01*
X55000Y-28505D01*
X55000Y-29296D01*
X54969Y-29302D01*
X54912Y-29325D01*
X54860Y-29359D01*
X54816Y-29402D01*
X54781Y-29453D01*
X54757Y-29510D01*
X54744Y-29571D01*
X54743Y-29632D01*
X54754Y-29693D01*
X54777Y-29750D01*
X54811Y-29802D01*
X54853Y-29847D01*
X54904Y-29882D01*
X54961Y-29907D01*
X55021Y-29920D01*
X55083Y-29921D01*
X55144Y-29911D01*
X55201Y-29888D01*
X55253Y-29855D01*
X55298Y-29813D01*
X55334Y-29762D01*
X55359Y-29706D01*
X55373Y-29645D01*
X55374Y-29575D01*
X55362Y-29514D01*
X55338Y-29457D01*
X55304Y-29406D01*
X55260Y-29362D01*
X55209Y-29327D01*
X55169Y-29310D01*
X62805Y-29301D01*
X62805Y-29773D01*
X66132Y-29767D01*
X66132Y-29795D01*
X66140Y-29837D01*
X66155Y-29877D01*
X66178Y-29912D01*
X66208Y-29943D01*
X66243Y-29967D01*
X66282Y-29984D01*
X66323Y-29993D01*
X66366Y-29994D01*
X66407Y-29987D01*
X66447Y-29971D01*
X66483Y-29949D01*
X66514Y-29919D01*
X66538Y-29885D01*
X66555Y-29846D01*
X66565Y-29804D01*
X66565Y-29766D01*
X68218Y-29763D01*
X68218Y-33326D01*
X54665Y-33326D01*
X54665Y-33171D01*
X54665Y-33147D01*
X54665Y-32537D01*
X54660Y-32514D01*
X54651Y-32493D01*
X54638Y-32473D01*
X54622Y-32457D01*
X54603Y-32444D01*
X54581Y-32435D01*
X54558Y-32431D01*
X54535Y-32431D01*
X54204Y-32431D01*
X54204Y-31793D01*
X54199Y-31734D01*
X54182Y-31677D01*
X54154Y-31624D01*
X54117Y-31577D01*
X54071Y-31539D01*
X54019Y-31510D01*
X53962Y-31492D01*
X53903Y-31486D01*
X53899Y-31486D01*
X53777Y-31486D01*
X53718Y-31492D01*
X53661Y-31509D01*
X53623Y-31529D01*
X53623Y-24845D01*
X53616Y-24807D01*
X53601Y-24771D01*
X53580Y-24739D01*
X53552Y-24712D01*
X53520Y-24690D01*
X53496Y-24680D01*
X53496Y-21411D01*
X53496Y-21410D01*
X53496Y-16780D01*
X53489Y-16742D01*
X53474Y-16707D01*
X53453Y-16674D01*
X53426Y-16647D01*
X53394Y-16626D01*
X53358Y-16611D01*
X53320Y-16603D01*
X53282Y-16603D01*
X53244Y-16610D01*
X53208Y-16624D01*
X53176Y-16645D01*
X53148Y-16672D01*
X53126Y-16704D01*
X53111Y-16740D01*
X53103Y-16777D01*
X53102Y-16816D01*
X53109Y-16854D01*
X53124Y-16890D01*
X53144Y-16922D01*
X53171Y-16950D01*
X53203Y-16972D01*
X53238Y-16988D01*
X53276Y-16996D01*
X53315Y-16997D01*
X53353Y-16990D01*
X53389Y-16976D01*
X53421Y-16955D01*
X53449Y-16929D01*
X53471Y-16897D01*
X53487Y-16862D01*
X53496Y-16824D01*
X53496Y-16780D01*
X53496Y-21410D01*
X53489Y-21373D01*
X53474Y-21337D01*
X53453Y-21305D01*
X53440Y-21292D01*
X53440Y-18661D01*
X53433Y-18623D01*
X53418Y-18588D01*
X53418Y-18587D01*
X53418Y-18106D01*
X53410Y-18068D01*
X53396Y-18035D01*
X53396Y-17280D01*
X53389Y-17242D01*
X53374Y-17207D01*
X53353Y-17174D01*
X53326Y-17147D01*
X53294Y-17126D01*
X53258Y-17111D01*
X53220Y-17103D01*
X53182Y-17103D01*
X53144Y-17110D01*
X53108Y-17124D01*
X53076Y-17145D01*
X53048Y-17172D01*
X53026Y-17204D01*
X53011Y-17240D01*
X53003Y-17277D01*
X53002Y-17316D01*
X53009Y-17354D01*
X53024Y-17390D01*
X53044Y-17422D01*
X53071Y-17450D01*
X53103Y-17472D01*
X53138Y-17488D01*
X53176Y-17496D01*
X53215Y-17497D01*
X53253Y-17490D01*
X53289Y-17476D01*
X53321Y-17455D01*
X53349Y-17429D01*
X53371Y-17397D01*
X53387Y-17362D01*
X53396Y-17324D01*
X53396Y-17280D01*
X53396Y-18035D01*
X53395Y-18033D01*
X53374Y-18000D01*
X53347Y-17973D01*
X53315Y-17951D01*
X53279Y-17936D01*
X53241Y-17929D01*
X53203Y-17928D01*
X53165Y-17936D01*
X53129Y-17950D01*
X53097Y-17971D01*
X53069Y-17998D01*
X53047Y-18030D01*
X53032Y-18066D01*
X53024Y-18103D01*
X53024Y-18142D01*
X53031Y-18180D01*
X53045Y-18216D01*
X53066Y-18248D01*
X53093Y-18276D01*
X53124Y-18298D01*
X53160Y-18314D01*
X53197Y-18322D01*
X53236Y-18323D01*
X53274Y-18316D01*
X53310Y-18302D01*
X53343Y-18281D01*
X53370Y-18255D01*
X53393Y-18223D01*
X53408Y-18188D01*
X53417Y-18150D01*
X53418Y-18106D01*
X53418Y-18587D01*
X53397Y-18555D01*
X53370Y-18528D01*
X53338Y-18506D01*
X53302Y-18491D01*
X53264Y-18484D01*
X53226Y-18483D01*
X53188Y-18491D01*
X53152Y-18505D01*
X53120Y-18526D01*
X53092Y-18553D01*
X53070Y-18585D01*
X53055Y-18621D01*
X53047Y-18658D01*
X53046Y-18697D01*
X53053Y-18735D01*
X53068Y-18771D01*
X53089Y-18803D01*
X53115Y-18831D01*
X53147Y-18853D01*
X53182Y-18868D01*
X53220Y-18877D01*
X53259Y-18878D01*
X53297Y-18871D01*
X53333Y-18857D01*
X53365Y-18836D01*
X53393Y-18810D01*
X53416Y-18778D01*
X53431Y-18743D01*
X53440Y-18705D01*
X53440Y-18661D01*
X53440Y-21292D01*
X53426Y-21277D01*
X53394Y-21256D01*
X53358Y-21241D01*
X53320Y-21233D01*
X53282Y-21233D01*
X53244Y-21240D01*
X53208Y-21255D01*
X53176Y-21276D01*
X53148Y-21303D01*
X53126Y-21335D01*
X53111Y-21370D01*
X53103Y-21408D01*
X53102Y-21446D01*
X53109Y-21484D01*
X53124Y-21520D01*
X53144Y-21553D01*
X53171Y-21580D01*
X53203Y-21603D01*
X53238Y-21618D01*
X53276Y-21626D01*
X53315Y-21627D01*
X53353Y-21620D01*
X53389Y-21606D01*
X53421Y-21586D01*
X53449Y-21559D01*
X53472Y-21528D01*
X53487Y-21492D01*
X53496Y-21455D01*
X53496Y-21411D01*
X53496Y-24680D01*
X53486Y-24675D01*
X53486Y-22501D01*
X53486Y-21988D01*
X53478Y-21950D01*
X53464Y-21915D01*
X53442Y-21882D01*
X53415Y-21855D01*
X53383Y-21833D01*
X53347Y-21818D01*
X53310Y-21811D01*
X53271Y-21810D01*
X53233Y-21818D01*
X53197Y-21832D01*
X53165Y-21853D01*
X53137Y-21880D01*
X53116Y-21912D01*
X53100Y-21948D01*
X53092Y-21985D01*
X53092Y-22024D01*
X53099Y-22062D01*
X53113Y-22098D01*
X53134Y-22130D01*
X53161Y-22158D01*
X53192Y-22180D01*
X53228Y-22195D01*
X53265Y-22204D01*
X53304Y-22205D01*
X53342Y-22198D01*
X53378Y-22184D01*
X53411Y-22163D01*
X53439Y-22137D01*
X53461Y-22105D01*
X53477Y-22070D01*
X53485Y-22032D01*
X53486Y-21988D01*
X53486Y-22501D01*
X53478Y-22464D01*
X53464Y-22428D01*
X53442Y-22396D01*
X53415Y-22368D01*
X53383Y-22347D01*
X53347Y-22332D01*
X53310Y-22324D01*
X53271Y-22324D01*
X53233Y-22331D01*
X53197Y-22345D01*
X53165Y-22367D01*
X53137Y-22394D01*
X53116Y-22425D01*
X53100Y-22461D01*
X53092Y-22499D01*
X53092Y-22537D01*
X53099Y-22575D01*
X53113Y-22611D01*
X53134Y-22644D01*
X53161Y-22671D01*
X53192Y-22693D01*
X53228Y-22709D01*
X53265Y-22717D01*
X53304Y-22718D01*
X53342Y-22711D01*
X53378Y-22697D01*
X53411Y-22677D01*
X53439Y-22650D01*
X53461Y-22618D01*
X53477Y-22583D01*
X53485Y-22546D01*
X53486Y-22501D01*
X53486Y-24675D01*
X53485Y-24675D01*
X53447Y-24667D01*
X53408Y-24667D01*
X53370Y-24674D01*
X53335Y-24689D01*
X53302Y-24710D01*
X53275Y-24737D01*
X53253Y-24769D01*
X53238Y-24804D01*
X53230Y-24842D01*
X53229Y-24881D01*
X53236Y-24918D01*
X53250Y-24954D01*
X53271Y-24987D01*
X53298Y-25015D01*
X53330Y-25037D01*
X53365Y-25052D01*
X53403Y-25060D01*
X53441Y-25061D01*
X53479Y-25054D01*
X53515Y-25041D01*
X53548Y-25020D01*
X53576Y-24993D01*
X53598Y-24962D01*
X53614Y-24926D01*
X53623Y-24889D01*
X53623Y-24845D01*
X53623Y-31529D01*
X53608Y-31537D01*
X53562Y-31574D01*
X53524Y-31620D01*
X53496Y-31673D01*
X53478Y-31729D01*
X53472Y-31789D01*
X53478Y-31848D01*
X53494Y-31905D01*
X53522Y-31958D01*
X53559Y-32004D01*
X53605Y-32043D01*
X53657Y-32071D01*
X53714Y-32089D01*
X53773Y-32096D01*
X53777Y-32096D01*
X53899Y-32096D01*
X53958Y-32090D01*
X54015Y-32073D01*
X54068Y-32045D01*
X54114Y-32007D01*
X54152Y-31961D01*
X54180Y-31909D01*
X54198Y-31852D01*
X54204Y-31793D01*
X54204Y-32431D01*
X53748Y-32431D01*
X53725Y-32435D01*
X53703Y-32444D01*
X53684Y-32457D01*
X53668Y-32473D01*
X53655Y-32493D01*
X53646Y-32514D01*
X53641Y-32537D01*
X53641Y-32560D01*
X53641Y-33171D01*
X53646Y-33193D01*
X53655Y-33215D01*
X53668Y-33234D01*
X53684Y-33251D01*
X53703Y-33264D01*
X53725Y-33273D01*
X53748Y-33277D01*
X53771Y-33277D01*
X54558Y-33277D01*
X54581Y-33273D01*
X54603Y-33264D01*
X54622Y-33251D01*
X54638Y-33234D01*
X54651Y-33215D01*
X54660Y-33193D01*
X54665Y-33171D01*
X54665Y-33326D01*
X52585Y-33326D01*
X52585Y-25546D01*
X52585Y-14860D01*
X52577Y-14822D01*
X52562Y-14787D01*
X52541Y-14755D01*
X52514Y-14727D01*
X52482Y-14706D01*
X52446Y-14691D01*
X52408Y-14683D01*
X52370Y-14683D01*
X52332Y-14690D01*
X52296Y-14704D01*
X52264Y-14725D01*
X52236Y-14752D01*
X52214Y-14784D01*
X52199Y-14820D01*
X52191Y-14858D01*
X52191Y-14896D01*
X52198Y-14934D01*
X52212Y-14970D01*
X52233Y-15002D01*
X52259Y-15030D01*
X52291Y-15052D01*
X52327Y-15068D01*
X52364Y-15076D01*
X52403Y-15077D01*
X52441Y-15070D01*
X52477Y-15056D01*
X52509Y-15035D01*
X52537Y-15009D01*
X52560Y-14977D01*
X52575Y-14942D01*
X52584Y-14904D01*
X52585Y-14860D01*
X52585Y-25546D01*
X52577Y-25508D01*
X52562Y-25472D01*
X52541Y-25440D01*
X52514Y-25412D01*
X52482Y-25391D01*
X52446Y-25376D01*
X52408Y-25368D01*
X52370Y-25368D01*
X52332Y-25375D01*
X52296Y-25390D01*
X52264Y-25411D01*
X52236Y-25438D01*
X52214Y-25470D01*
X52199Y-25505D01*
X52191Y-25543D01*
X52191Y-25581D01*
X52198Y-25619D01*
X52212Y-25655D01*
X52233Y-25688D01*
X52259Y-25715D01*
X52291Y-25738D01*
X52327Y-25753D01*
X52364Y-25761D01*
X52403Y-25762D01*
X52441Y-25755D01*
X52477Y-25741D01*
X52509Y-25721D01*
X52537Y-25694D01*
X52560Y-25663D01*
X52575Y-25627D01*
X52584Y-25590D01*
X52585Y-25546D01*
X52585Y-33326D01*
X52236Y-33326D01*
X52236Y-31793D01*
X52230Y-31734D01*
X52213Y-31677D01*
X52186Y-31624D01*
X52165Y-31598D01*
X52165Y-29890D01*
X52153Y-29829D01*
X52129Y-29772D01*
X52095Y-29721D01*
X52052Y-29677D01*
X52000Y-29642D01*
X51943Y-29618D01*
X51883Y-29606D01*
X51821Y-29606D01*
X51761Y-29617D01*
X51703Y-29640D01*
X51652Y-29674D01*
X51607Y-29717D01*
X51573Y-29768D01*
X51548Y-29825D01*
X51535Y-29885D01*
X51535Y-29947D01*
X51546Y-30008D01*
X51568Y-30065D01*
X51602Y-30117D01*
X51645Y-30162D01*
X51695Y-30197D01*
X51752Y-30222D01*
X51812Y-30235D01*
X51874Y-30236D01*
X51935Y-30226D01*
X51993Y-30203D01*
X52045Y-30170D01*
X52089Y-30128D01*
X52125Y-30077D01*
X52150Y-30021D01*
X52164Y-29960D01*
X52165Y-29890D01*
X52165Y-31598D01*
X52148Y-31577D01*
X52103Y-31539D01*
X52051Y-31510D01*
X51994Y-31492D01*
X51935Y-31486D01*
X51930Y-31486D01*
X51809Y-31486D01*
X51749Y-31492D01*
X51692Y-31509D01*
X51640Y-31537D01*
X51594Y-31574D01*
X51556Y-31620D01*
X51527Y-31673D01*
X51510Y-31729D01*
X51504Y-31789D01*
X51509Y-31848D01*
X51526Y-31905D01*
X51553Y-31958D01*
X51591Y-32004D01*
X51636Y-32043D01*
X51689Y-32071D01*
X51745Y-32089D01*
X51805Y-32096D01*
X51809Y-32096D01*
X51930Y-32096D01*
X51990Y-32090D01*
X52047Y-32073D01*
X52099Y-32045D01*
X52145Y-32007D01*
X52183Y-31961D01*
X52212Y-31909D01*
X52229Y-31852D01*
X52236Y-31793D01*
X52236Y-33326D01*
X52066Y-33326D01*
X52066Y-33171D01*
X52066Y-33147D01*
X52066Y-32537D01*
X52062Y-32514D01*
X52053Y-32493D01*
X52040Y-32473D01*
X52024Y-32457D01*
X52004Y-32444D01*
X51983Y-32435D01*
X51960Y-32431D01*
X51937Y-32431D01*
X51351Y-32431D01*
X51351Y-27714D01*
X51351Y-27710D01*
X51351Y-26714D01*
X51351Y-26710D01*
X51351Y-25714D01*
X51351Y-25710D01*
X51351Y-24714D01*
X51351Y-24710D01*
X51351Y-23714D01*
X51351Y-23710D01*
X51351Y-22714D01*
X51351Y-22710D01*
X51351Y-21714D01*
X51351Y-21710D01*
X51351Y-20714D01*
X51351Y-20710D01*
X51351Y-19714D01*
X51351Y-19710D01*
X51351Y-17537D01*
X51351Y-17533D01*
X51351Y-16537D01*
X51351Y-16533D01*
X51351Y-15537D01*
X51351Y-15533D01*
X51351Y-14537D01*
X51351Y-14533D01*
X51343Y-14444D01*
X51317Y-14358D01*
X51275Y-14279D01*
X51218Y-14210D01*
X51149Y-14153D01*
X51071Y-14110D01*
X50985Y-14084D01*
X50896Y-14075D01*
X50807Y-14083D01*
X50722Y-14108D01*
X50642Y-14149D01*
X50573Y-14205D01*
X50515Y-14274D01*
X50472Y-14352D01*
X50445Y-14437D01*
X50435Y-14526D01*
X50435Y-14533D01*
X50435Y-14537D01*
X50444Y-14626D01*
X50470Y-14712D01*
X50512Y-14791D01*
X50568Y-14860D01*
X50637Y-14917D01*
X50716Y-14959D01*
X50801Y-14986D01*
X50890Y-14995D01*
X50979Y-14987D01*
X51065Y-14962D01*
X51144Y-14920D01*
X51214Y-14864D01*
X51271Y-14796D01*
X51314Y-14718D01*
X51341Y-14632D01*
X51351Y-14544D01*
X51351Y-14537D01*
X51351Y-15533D01*
X51343Y-15444D01*
X51317Y-15358D01*
X51275Y-15279D01*
X51218Y-15210D01*
X51149Y-15153D01*
X51071Y-15110D01*
X50985Y-15084D01*
X50896Y-15075D01*
X50807Y-15083D01*
X50722Y-15108D01*
X50642Y-15149D01*
X50573Y-15205D01*
X50515Y-15274D01*
X50472Y-15352D01*
X50445Y-15437D01*
X50435Y-15526D01*
X50435Y-15533D01*
X50435Y-15537D01*
X50444Y-15626D01*
X50470Y-15712D01*
X50512Y-15791D01*
X50568Y-15860D01*
X50637Y-15917D01*
X50716Y-15959D01*
X50801Y-15986D01*
X50890Y-15995D01*
X50979Y-15987D01*
X51065Y-15962D01*
X51144Y-15920D01*
X51214Y-15864D01*
X51271Y-15796D01*
X51314Y-15718D01*
X51341Y-15632D01*
X51351Y-15544D01*
X51351Y-15537D01*
X51351Y-16533D01*
X51343Y-16444D01*
X51317Y-16358D01*
X51275Y-16279D01*
X51218Y-16210D01*
X51149Y-16153D01*
X51071Y-16110D01*
X50985Y-16084D01*
X50896Y-16075D01*
X50807Y-16083D01*
X50722Y-16108D01*
X50642Y-16149D01*
X50573Y-16205D01*
X50515Y-16274D01*
X50472Y-16352D01*
X50445Y-16437D01*
X50435Y-16526D01*
X50435Y-16533D01*
X50435Y-16537D01*
X50444Y-16626D01*
X50470Y-16712D01*
X50512Y-16791D01*
X50568Y-16860D01*
X50637Y-16917D01*
X50716Y-16959D01*
X50801Y-16986D01*
X50890Y-16995D01*
X50979Y-16987D01*
X51065Y-16962D01*
X51144Y-16920D01*
X51214Y-16864D01*
X51271Y-16796D01*
X51314Y-16718D01*
X51341Y-16632D01*
X51351Y-16544D01*
X51351Y-16537D01*
X51351Y-17533D01*
X51343Y-17444D01*
X51317Y-17358D01*
X51275Y-17279D01*
X51218Y-17210D01*
X51149Y-17153D01*
X51071Y-17110D01*
X50985Y-17084D01*
X50896Y-17075D01*
X50807Y-17083D01*
X50722Y-17108D01*
X50642Y-17149D01*
X50573Y-17205D01*
X50515Y-17274D01*
X50472Y-17352D01*
X50445Y-17437D01*
X50435Y-17526D01*
X50435Y-17533D01*
X50435Y-17537D01*
X50444Y-17626D01*
X50470Y-17712D01*
X50512Y-17791D01*
X50568Y-17860D01*
X50637Y-17917D01*
X50716Y-17959D01*
X50801Y-17986D01*
X50890Y-17995D01*
X50979Y-17987D01*
X51065Y-17962D01*
X51144Y-17920D01*
X51214Y-17864D01*
X51271Y-17796D01*
X51314Y-17718D01*
X51341Y-17632D01*
X51351Y-17544D01*
X51351Y-17537D01*
X51351Y-19710D01*
X51343Y-19621D01*
X51317Y-19535D01*
X51275Y-19456D01*
X51218Y-19387D01*
X51149Y-19330D01*
X51071Y-19288D01*
X50985Y-19261D01*
X50896Y-19252D01*
X50807Y-19260D01*
X50722Y-19285D01*
X50642Y-19327D01*
X50573Y-19383D01*
X50515Y-19451D01*
X50472Y-19529D01*
X50445Y-19615D01*
X50435Y-19703D01*
X50435Y-19710D01*
X50435Y-19714D01*
X50444Y-19803D01*
X50470Y-19889D01*
X50512Y-19968D01*
X50568Y-20037D01*
X50637Y-20094D01*
X50716Y-20137D01*
X50801Y-20163D01*
X50890Y-20172D01*
X50979Y-20164D01*
X51065Y-20139D01*
X51144Y-20098D01*
X51214Y-20042D01*
X51271Y-19973D01*
X51314Y-19895D01*
X51341Y-19810D01*
X51351Y-19721D01*
X51351Y-19714D01*
X51351Y-20710D01*
X51343Y-20621D01*
X51317Y-20535D01*
X51275Y-20456D01*
X51218Y-20387D01*
X51149Y-20330D01*
X51071Y-20288D01*
X50985Y-20261D01*
X50896Y-20252D01*
X50807Y-20260D01*
X50722Y-20285D01*
X50642Y-20327D01*
X50573Y-20383D01*
X50515Y-20451D01*
X50472Y-20529D01*
X50445Y-20615D01*
X50435Y-20703D01*
X50435Y-20710D01*
X50435Y-20714D01*
X50444Y-20803D01*
X50470Y-20889D01*
X50512Y-20968D01*
X50568Y-21037D01*
X50637Y-21094D01*
X50716Y-21137D01*
X50801Y-21163D01*
X50890Y-21172D01*
X50979Y-21164D01*
X51065Y-21139D01*
X51144Y-21098D01*
X51214Y-21042D01*
X51271Y-20973D01*
X51314Y-20895D01*
X51341Y-20810D01*
X51351Y-20721D01*
X51351Y-20714D01*
X51351Y-21710D01*
X51343Y-21621D01*
X51317Y-21535D01*
X51275Y-21456D01*
X51218Y-21387D01*
X51149Y-21330D01*
X51071Y-21288D01*
X50985Y-21261D01*
X50896Y-21252D01*
X50807Y-21260D01*
X50722Y-21285D01*
X50642Y-21327D01*
X50573Y-21383D01*
X50515Y-21451D01*
X50472Y-21529D01*
X50445Y-21615D01*
X50435Y-21703D01*
X50435Y-21710D01*
X50435Y-21714D01*
X50444Y-21803D01*
X50470Y-21889D01*
X50512Y-21968D01*
X50568Y-22037D01*
X50637Y-22094D01*
X50716Y-22137D01*
X50801Y-22163D01*
X50890Y-22172D01*
X50979Y-22164D01*
X51065Y-22139D01*
X51144Y-22098D01*
X51214Y-22042D01*
X51271Y-21973D01*
X51314Y-21895D01*
X51341Y-21810D01*
X51351Y-21721D01*
X51351Y-21714D01*
X51351Y-22710D01*
X51343Y-22621D01*
X51317Y-22535D01*
X51275Y-22456D01*
X51218Y-22387D01*
X51149Y-22330D01*
X51071Y-22288D01*
X50985Y-22261D01*
X50896Y-22252D01*
X50807Y-22260D01*
X50722Y-22285D01*
X50642Y-22327D01*
X50573Y-22383D01*
X50515Y-22451D01*
X50472Y-22529D01*
X50445Y-22615D01*
X50435Y-22703D01*
X50435Y-22710D01*
X50435Y-22714D01*
X50444Y-22803D01*
X50470Y-22889D01*
X50512Y-22968D01*
X50568Y-23037D01*
X50637Y-23094D01*
X50716Y-23137D01*
X50801Y-23163D01*
X50890Y-23172D01*
X50979Y-23164D01*
X51065Y-23139D01*
X51144Y-23098D01*
X51214Y-23042D01*
X51271Y-22973D01*
X51314Y-22895D01*
X51341Y-22810D01*
X51351Y-22721D01*
X51351Y-22714D01*
X51351Y-23710D01*
X51343Y-23621D01*
X51317Y-23535D01*
X51275Y-23456D01*
X51218Y-23387D01*
X51149Y-23330D01*
X51071Y-23288D01*
X50985Y-23261D01*
X50896Y-23252D01*
X50807Y-23260D01*
X50722Y-23285D01*
X50642Y-23327D01*
X50573Y-23383D01*
X50515Y-23451D01*
X50472Y-23529D01*
X50445Y-23615D01*
X50435Y-23703D01*
X50435Y-23710D01*
X50435Y-23714D01*
X50444Y-23803D01*
X50470Y-23889D01*
X50512Y-23968D01*
X50568Y-24037D01*
X50637Y-24094D01*
X50716Y-24137D01*
X50801Y-24163D01*
X50890Y-24172D01*
X50979Y-24164D01*
X51065Y-24139D01*
X51144Y-24098D01*
X51214Y-24042D01*
X51271Y-23973D01*
X51314Y-23895D01*
X51341Y-23810D01*
X51351Y-23721D01*
X51351Y-23714D01*
X51351Y-24710D01*
X51343Y-24621D01*
X51317Y-24535D01*
X51275Y-24456D01*
X51218Y-24387D01*
X51149Y-24330D01*
X51071Y-24288D01*
X50985Y-24261D01*
X50896Y-24252D01*
X50807Y-24260D01*
X50722Y-24285D01*
X50642Y-24327D01*
X50573Y-24383D01*
X50515Y-24451D01*
X50472Y-24529D01*
X50445Y-24615D01*
X50435Y-24703D01*
X50435Y-24710D01*
X50435Y-24714D01*
X50444Y-24803D01*
X50470Y-24889D01*
X50512Y-24968D01*
X50568Y-25037D01*
X50637Y-25094D01*
X50716Y-25137D01*
X50801Y-25163D01*
X50890Y-25172D01*
X50979Y-25164D01*
X51065Y-25139D01*
X51144Y-25098D01*
X51214Y-25042D01*
X51271Y-24973D01*
X51314Y-24895D01*
X51341Y-24810D01*
X51351Y-24721D01*
X51351Y-24714D01*
X51351Y-25710D01*
X51343Y-25621D01*
X51317Y-25535D01*
X51275Y-25456D01*
X51218Y-25387D01*
X51149Y-25330D01*
X51071Y-25288D01*
X50985Y-25261D01*
X50896Y-25252D01*
X50807Y-25260D01*
X50722Y-25285D01*
X50642Y-25327D01*
X50573Y-25383D01*
X50515Y-25451D01*
X50472Y-25529D01*
X50445Y-25615D01*
X50435Y-25703D01*
X50435Y-25710D01*
X50435Y-25714D01*
X50444Y-25803D01*
X50470Y-25889D01*
X50512Y-25968D01*
X50568Y-26037D01*
X50637Y-26094D01*
X50716Y-26137D01*
X50801Y-26163D01*
X50890Y-26172D01*
X50979Y-26164D01*
X51065Y-26139D01*
X51144Y-26098D01*
X51214Y-26042D01*
X51271Y-25973D01*
X51314Y-25895D01*
X51341Y-25810D01*
X51351Y-25721D01*
X51351Y-25714D01*
X51351Y-26710D01*
X51343Y-26621D01*
X51317Y-26535D01*
X51275Y-26456D01*
X51218Y-26387D01*
X51149Y-26330D01*
X51071Y-26288D01*
X50985Y-26261D01*
X50896Y-26252D01*
X50807Y-26260D01*
X50722Y-26285D01*
X50642Y-26327D01*
X50573Y-26383D01*
X50515Y-26451D01*
X50472Y-26529D01*
X50445Y-26615D01*
X50435Y-26703D01*
X50435Y-26710D01*
X50435Y-26714D01*
X50444Y-26803D01*
X50470Y-26889D01*
X50512Y-26968D01*
X50568Y-27037D01*
X50637Y-27094D01*
X50716Y-27137D01*
X50801Y-27163D01*
X50890Y-27172D01*
X50979Y-27164D01*
X51065Y-27139D01*
X51144Y-27098D01*
X51214Y-27042D01*
X51271Y-26973D01*
X51314Y-26895D01*
X51341Y-26810D01*
X51351Y-26721D01*
X51351Y-26714D01*
X51351Y-27710D01*
X51343Y-27621D01*
X51317Y-27535D01*
X51275Y-27456D01*
X51218Y-27387D01*
X51149Y-27330D01*
X51071Y-27288D01*
X50985Y-27261D01*
X50896Y-27252D01*
X50807Y-27260D01*
X50722Y-27285D01*
X50642Y-27327D01*
X50573Y-27383D01*
X50515Y-27451D01*
X50472Y-27529D01*
X50445Y-27615D01*
X50435Y-27703D01*
X50435Y-27710D01*
X50435Y-27714D01*
X50444Y-27803D01*
X50470Y-27889D01*
X50512Y-27968D01*
X50568Y-28037D01*
X50637Y-28094D01*
X50716Y-28137D01*
X50801Y-28163D01*
X50890Y-28172D01*
X50979Y-28164D01*
X51065Y-28139D01*
X51144Y-28098D01*
X51214Y-28042D01*
X51271Y-27973D01*
X51314Y-27895D01*
X51341Y-27810D01*
X51351Y-27721D01*
X51351Y-27714D01*
X51351Y-32431D01*
X51149Y-32431D01*
X51126Y-32435D01*
X51105Y-32444D01*
X51086Y-32457D01*
X51069Y-32473D01*
X51056Y-32493D01*
X51047Y-32514D01*
X51043Y-32537D01*
X51043Y-32560D01*
X51043Y-33171D01*
X51047Y-33193D01*
X51056Y-33215D01*
X51069Y-33234D01*
X51086Y-33251D01*
X51105Y-33264D01*
X51126Y-33273D01*
X51149Y-33277D01*
X51173Y-33277D01*
X51960Y-33277D01*
X51983Y-33273D01*
X52004Y-33264D01*
X52024Y-33251D01*
X52040Y-33234D01*
X52053Y-33215D01*
X52062Y-33193D01*
X52066Y-33171D01*
X52066Y-33326D01*
X50419Y-33326D01*
X50419Y-32195D01*
X50419Y-32171D01*
X50419Y-31371D01*
X50415Y-31349D01*
X50406Y-31327D01*
X50393Y-31308D01*
X50376Y-31291D01*
X50357Y-31278D01*
X50351Y-31276D01*
X50351Y-28714D01*
X50351Y-28710D01*
X50351Y-27714D01*
X50351Y-27710D01*
X50351Y-26714D01*
X50351Y-26710D01*
X50351Y-25714D01*
X50351Y-25710D01*
X50351Y-24714D01*
X50351Y-24710D01*
X50351Y-23714D01*
X50351Y-23710D01*
X50351Y-22714D01*
X50351Y-22710D01*
X50351Y-21714D01*
X50351Y-21710D01*
X50351Y-20714D01*
X50351Y-20710D01*
X50351Y-19714D01*
X50351Y-19710D01*
X50351Y-18537D01*
X50351Y-18533D01*
X50351Y-17537D01*
X50351Y-17533D01*
X50351Y-16537D01*
X50351Y-16533D01*
X50351Y-15537D01*
X50351Y-15533D01*
X50351Y-14537D01*
X50351Y-14533D01*
X50343Y-14444D01*
X50317Y-14358D01*
X50275Y-14279D01*
X50218Y-14210D01*
X50149Y-14153D01*
X50071Y-14110D01*
X49985Y-14084D01*
X49896Y-14075D01*
X49807Y-14083D01*
X49722Y-14108D01*
X49642Y-14149D01*
X49573Y-14205D01*
X49515Y-14274D01*
X49472Y-14352D01*
X49445Y-14437D01*
X49435Y-14526D01*
X49435Y-14533D01*
X49435Y-14537D01*
X49444Y-14626D01*
X49470Y-14712D01*
X49512Y-14791D01*
X49568Y-14860D01*
X49637Y-14917D01*
X49716Y-14959D01*
X49801Y-14986D01*
X49890Y-14995D01*
X49979Y-14987D01*
X50065Y-14962D01*
X50144Y-14920D01*
X50214Y-14864D01*
X50271Y-14796D01*
X50314Y-14718D01*
X50341Y-14632D01*
X50351Y-14544D01*
X50351Y-14537D01*
X50351Y-15533D01*
X50343Y-15444D01*
X50317Y-15358D01*
X50275Y-15279D01*
X50218Y-15210D01*
X50149Y-15153D01*
X50071Y-15110D01*
X49985Y-15084D01*
X49896Y-15075D01*
X49807Y-15083D01*
X49722Y-15108D01*
X49642Y-15149D01*
X49573Y-15205D01*
X49515Y-15274D01*
X49472Y-15352D01*
X49445Y-15437D01*
X49435Y-15526D01*
X49435Y-15533D01*
X49435Y-15537D01*
X49444Y-15626D01*
X49470Y-15712D01*
X49512Y-15791D01*
X49568Y-15860D01*
X49637Y-15917D01*
X49716Y-15959D01*
X49801Y-15986D01*
X49890Y-15995D01*
X49979Y-15987D01*
X50065Y-15962D01*
X50144Y-15920D01*
X50214Y-15864D01*
X50271Y-15796D01*
X50314Y-15718D01*
X50341Y-15632D01*
X50351Y-15544D01*
X50351Y-15537D01*
X50351Y-16533D01*
X50343Y-16444D01*
X50317Y-16358D01*
X50275Y-16279D01*
X50218Y-16210D01*
X50149Y-16153D01*
X50071Y-16110D01*
X49985Y-16084D01*
X49896Y-16075D01*
X49807Y-16083D01*
X49722Y-16108D01*
X49642Y-16149D01*
X49573Y-16205D01*
X49515Y-16274D01*
X49472Y-16352D01*
X49445Y-16437D01*
X49435Y-16526D01*
X49435Y-16533D01*
X49435Y-16537D01*
X49444Y-16626D01*
X49470Y-16712D01*
X49512Y-16791D01*
X49568Y-16860D01*
X49637Y-16917D01*
X49716Y-16959D01*
X49801Y-16986D01*
X49890Y-16995D01*
X49979Y-16987D01*
X50065Y-16962D01*
X50144Y-16920D01*
X50214Y-16864D01*
X50271Y-16796D01*
X50314Y-16718D01*
X50341Y-16632D01*
X50351Y-16544D01*
X50351Y-16537D01*
X50351Y-17533D01*
X50343Y-17444D01*
X50317Y-17358D01*
X50275Y-17279D01*
X50218Y-17210D01*
X50149Y-17153D01*
X50071Y-17110D01*
X49985Y-17084D01*
X49896Y-17075D01*
X49807Y-17083D01*
X49722Y-17108D01*
X49642Y-17149D01*
X49573Y-17205D01*
X49515Y-17274D01*
X49472Y-17352D01*
X49445Y-17437D01*
X49435Y-17526D01*
X49435Y-17533D01*
X49435Y-17537D01*
X49444Y-17626D01*
X49470Y-17712D01*
X49512Y-17791D01*
X49568Y-17860D01*
X49637Y-17917D01*
X49716Y-17959D01*
X49801Y-17986D01*
X49890Y-17995D01*
X49979Y-17987D01*
X50065Y-17962D01*
X50144Y-17920D01*
X50214Y-17864D01*
X50271Y-17796D01*
X50314Y-17718D01*
X50341Y-17632D01*
X50351Y-17544D01*
X50351Y-17537D01*
X50351Y-18533D01*
X50343Y-18444D01*
X50317Y-18358D01*
X50275Y-18279D01*
X50218Y-18210D01*
X50149Y-18153D01*
X50071Y-18110D01*
X49985Y-18084D01*
X49896Y-18075D01*
X49807Y-18083D01*
X49722Y-18108D01*
X49642Y-18149D01*
X49573Y-18205D01*
X49515Y-18274D01*
X49472Y-18352D01*
X49445Y-18437D01*
X49435Y-18526D01*
X49435Y-18533D01*
X49435Y-18537D01*
X49444Y-18626D01*
X49470Y-18712D01*
X49512Y-18791D01*
X49568Y-18860D01*
X49637Y-18917D01*
X49716Y-18959D01*
X49801Y-18986D01*
X49890Y-18995D01*
X49979Y-18987D01*
X50065Y-18962D01*
X50144Y-18920D01*
X50214Y-18864D01*
X50271Y-18796D01*
X50314Y-18718D01*
X50341Y-18632D01*
X50351Y-18544D01*
X50351Y-18537D01*
X50351Y-19710D01*
X50343Y-19621D01*
X50317Y-19535D01*
X50275Y-19456D01*
X50218Y-19387D01*
X50149Y-19330D01*
X50071Y-19288D01*
X49985Y-19261D01*
X49896Y-19252D01*
X49807Y-19260D01*
X49722Y-19285D01*
X49642Y-19327D01*
X49573Y-19383D01*
X49515Y-19451D01*
X49472Y-19529D01*
X49445Y-19615D01*
X49435Y-19703D01*
X49435Y-19710D01*
X49435Y-19714D01*
X49444Y-19803D01*
X49470Y-19889D01*
X49512Y-19968D01*
X49568Y-20037D01*
X49637Y-20094D01*
X49716Y-20137D01*
X49801Y-20163D01*
X49890Y-20172D01*
X49979Y-20164D01*
X50065Y-20139D01*
X50144Y-20098D01*
X50214Y-20042D01*
X50271Y-19973D01*
X50314Y-19895D01*
X50341Y-19810D01*
X50351Y-19721D01*
X50351Y-19714D01*
X50351Y-20710D01*
X50343Y-20621D01*
X50317Y-20535D01*
X50275Y-20456D01*
X50218Y-20387D01*
X50149Y-20330D01*
X50071Y-20288D01*
X49985Y-20261D01*
X49896Y-20252D01*
X49807Y-20260D01*
X49722Y-20285D01*
X49642Y-20327D01*
X49573Y-20383D01*
X49515Y-20451D01*
X49472Y-20529D01*
X49445Y-20615D01*
X49435Y-20703D01*
X49435Y-20710D01*
X49435Y-20714D01*
X49444Y-20803D01*
X49470Y-20889D01*
X49512Y-20968D01*
X49568Y-21037D01*
X49637Y-21094D01*
X49716Y-21137D01*
X49801Y-21163D01*
X49890Y-21172D01*
X49979Y-21164D01*
X50065Y-21139D01*
X50144Y-21098D01*
X50214Y-21042D01*
X50271Y-20973D01*
X50314Y-20895D01*
X50341Y-20810D01*
X50351Y-20721D01*
X50351Y-20714D01*
X50351Y-21710D01*
X50343Y-21621D01*
X50317Y-21535D01*
X50275Y-21456D01*
X50218Y-21387D01*
X50149Y-21330D01*
X50071Y-21288D01*
X49985Y-21261D01*
X49896Y-21252D01*
X49807Y-21260D01*
X49722Y-21285D01*
X49642Y-21327D01*
X49573Y-21383D01*
X49515Y-21451D01*
X49472Y-21529D01*
X49445Y-21615D01*
X49435Y-21703D01*
X49435Y-21710D01*
X49435Y-21714D01*
X49444Y-21803D01*
X49470Y-21889D01*
X49512Y-21968D01*
X49568Y-22037D01*
X49637Y-22094D01*
X49716Y-22137D01*
X49801Y-22163D01*
X49890Y-22172D01*
X49979Y-22164D01*
X50065Y-22139D01*
X50144Y-22098D01*
X50214Y-22042D01*
X50271Y-21973D01*
X50314Y-21895D01*
X50341Y-21810D01*
X50351Y-21721D01*
X50351Y-21714D01*
X50351Y-22710D01*
X50343Y-22621D01*
X50317Y-22535D01*
X50275Y-22456D01*
X50218Y-22387D01*
X50149Y-22330D01*
X50071Y-22288D01*
X49985Y-22261D01*
X49896Y-22252D01*
X49807Y-22260D01*
X49722Y-22285D01*
X49642Y-22327D01*
X49573Y-22383D01*
X49515Y-22451D01*
X49472Y-22529D01*
X49445Y-22615D01*
X49435Y-22703D01*
X49435Y-22710D01*
X49435Y-22714D01*
X49444Y-22803D01*
X49470Y-22889D01*
X49512Y-22968D01*
X49568Y-23037D01*
X49637Y-23094D01*
X49716Y-23137D01*
X49801Y-23163D01*
X49890Y-23172D01*
X49979Y-23164D01*
X50065Y-23139D01*
X50144Y-23098D01*
X50214Y-23042D01*
X50271Y-22973D01*
X50314Y-22895D01*
X50341Y-22810D01*
X50351Y-22721D01*
X50351Y-22714D01*
X50351Y-23710D01*
X50343Y-23621D01*
X50317Y-23535D01*
X50275Y-23456D01*
X50218Y-23387D01*
X50149Y-23330D01*
X50071Y-23288D01*
X49985Y-23261D01*
X49896Y-23252D01*
X49807Y-23260D01*
X49722Y-23285D01*
X49642Y-23327D01*
X49573Y-23383D01*
X49515Y-23451D01*
X49472Y-23529D01*
X49445Y-23615D01*
X49435Y-23703D01*
X49435Y-23710D01*
X49435Y-23714D01*
X49444Y-23803D01*
X49470Y-23889D01*
X49512Y-23968D01*
X49568Y-24037D01*
X49637Y-24094D01*
X49716Y-24137D01*
X49801Y-24163D01*
X49890Y-24172D01*
X49979Y-24164D01*
X50065Y-24139D01*
X50144Y-24098D01*
X50214Y-24042D01*
X50271Y-23973D01*
X50314Y-23895D01*
X50341Y-23810D01*
X50351Y-23721D01*
X50351Y-23714D01*
X50351Y-24710D01*
X50343Y-24621D01*
X50317Y-24535D01*
X50275Y-24456D01*
X50218Y-24387D01*
X50149Y-24330D01*
X50071Y-24288D01*
X49985Y-24261D01*
X49896Y-24252D01*
X49807Y-24260D01*
X49722Y-24285D01*
X49642Y-24327D01*
X49573Y-24383D01*
X49515Y-24451D01*
X49472Y-24529D01*
X49445Y-24615D01*
X49435Y-24703D01*
X49435Y-24710D01*
X49435Y-24714D01*
X49444Y-24803D01*
X49470Y-24889D01*
X49512Y-24968D01*
X49568Y-25037D01*
X49637Y-25094D01*
X49716Y-25137D01*
X49801Y-25163D01*
X49890Y-25172D01*
X49979Y-25164D01*
X50065Y-25139D01*
X50144Y-25098D01*
X50214Y-25042D01*
X50271Y-24973D01*
X50314Y-24895D01*
X50341Y-24810D01*
X50351Y-24721D01*
X50351Y-24714D01*
X50351Y-25710D01*
X50343Y-25621D01*
X50317Y-25535D01*
X50275Y-25456D01*
X50218Y-25387D01*
X50149Y-25330D01*
X50071Y-25288D01*
X49985Y-25261D01*
X49896Y-25252D01*
X49807Y-25260D01*
X49722Y-25285D01*
X49642Y-25327D01*
X49573Y-25383D01*
X49515Y-25451D01*
X49472Y-25529D01*
X49445Y-25615D01*
X49435Y-25703D01*
X49435Y-25710D01*
X49435Y-25714D01*
X49444Y-25803D01*
X49470Y-25889D01*
X49512Y-25968D01*
X49568Y-26037D01*
X49637Y-26094D01*
X49716Y-26137D01*
X49801Y-26163D01*
X49890Y-26172D01*
X49979Y-26164D01*
X50065Y-26139D01*
X50144Y-26098D01*
X50214Y-26042D01*
X50271Y-25973D01*
X50314Y-25895D01*
X50341Y-25810D01*
X50351Y-25721D01*
X50351Y-25714D01*
X50351Y-26710D01*
X50343Y-26621D01*
X50317Y-26535D01*
X50275Y-26456D01*
X50218Y-26387D01*
X50149Y-26330D01*
X50071Y-26288D01*
X49985Y-26261D01*
X49896Y-26252D01*
X49807Y-26260D01*
X49722Y-26285D01*
X49642Y-26327D01*
X49573Y-26383D01*
X49515Y-26451D01*
X49472Y-26529D01*
X49445Y-26615D01*
X49435Y-26703D01*
X49435Y-26710D01*
X49435Y-26714D01*
X49444Y-26803D01*
X49470Y-26889D01*
X49512Y-26968D01*
X49568Y-27037D01*
X49637Y-27094D01*
X49716Y-27137D01*
X49801Y-27163D01*
X49890Y-27172D01*
X49979Y-27164D01*
X50065Y-27139D01*
X50144Y-27098D01*
X50214Y-27042D01*
X50271Y-26973D01*
X50314Y-26895D01*
X50341Y-26810D01*
X50351Y-26721D01*
X50351Y-26714D01*
X50351Y-27710D01*
X50343Y-27621D01*
X50317Y-27535D01*
X50275Y-27456D01*
X50218Y-27387D01*
X50149Y-27330D01*
X50071Y-27288D01*
X49985Y-27261D01*
X49896Y-27252D01*
X49807Y-27260D01*
X49722Y-27285D01*
X49642Y-27327D01*
X49573Y-27383D01*
X49515Y-27451D01*
X49472Y-27529D01*
X49445Y-27615D01*
X49435Y-27703D01*
X49435Y-27710D01*
X49435Y-27714D01*
X49444Y-27803D01*
X49470Y-27889D01*
X49512Y-27968D01*
X49568Y-28037D01*
X49637Y-28094D01*
X49716Y-28137D01*
X49801Y-28163D01*
X49890Y-28172D01*
X49979Y-28164D01*
X50065Y-28139D01*
X50144Y-28098D01*
X50214Y-28042D01*
X50271Y-27973D01*
X50314Y-27895D01*
X50341Y-27810D01*
X50351Y-27721D01*
X50351Y-27714D01*
X50351Y-28710D01*
X50343Y-28621D01*
X50317Y-28535D01*
X50275Y-28456D01*
X50218Y-28387D01*
X50149Y-28330D01*
X50071Y-28288D01*
X49985Y-28261D01*
X49896Y-28252D01*
X49807Y-28260D01*
X49722Y-28285D01*
X49642Y-28327D01*
X49573Y-28383D01*
X49515Y-28451D01*
X49472Y-28529D01*
X49445Y-28615D01*
X49435Y-28703D01*
X49435Y-28710D01*
X49435Y-28714D01*
X49444Y-28803D01*
X49470Y-28889D01*
X49512Y-28968D01*
X49568Y-29037D01*
X49637Y-29094D01*
X49716Y-29137D01*
X49801Y-29163D01*
X49890Y-29172D01*
X49979Y-29164D01*
X50065Y-29139D01*
X50144Y-29098D01*
X50214Y-29042D01*
X50271Y-28973D01*
X50314Y-28895D01*
X50341Y-28810D01*
X50351Y-28721D01*
X50351Y-28714D01*
X50351Y-31276D01*
X50336Y-31269D01*
X50313Y-31265D01*
X50289Y-31265D01*
X49489Y-31265D01*
X49467Y-31269D01*
X49445Y-31278D01*
X49426Y-31291D01*
X49409Y-31308D01*
X49396Y-31327D01*
X49388Y-31349D01*
X49383Y-31371D01*
X49383Y-31395D01*
X49383Y-32195D01*
X49388Y-32217D01*
X49396Y-32239D01*
X49409Y-32258D01*
X49426Y-32275D01*
X49445Y-32288D01*
X49467Y-32297D01*
X49489Y-32301D01*
X49513Y-32301D01*
X50313Y-32301D01*
X50336Y-32297D01*
X50357Y-32288D01*
X50376Y-32275D01*
X50393Y-32258D01*
X50406Y-32239D01*
X50415Y-32217D01*
X50419Y-32195D01*
X50419Y-33326D01*
X49350Y-33326D01*
X49350Y-13917D01*
X68759Y-13917D01*
X68759Y-33326D01*
M02*
