%FSLAX34Y34*%
G04 Gerber Fmt 3.4, Leading zero omitted, Abs format*
G04 (created by PCBNEW (2014-06-12 BZR 4942)-product) date Tue 24 Jun 2014 09:26:14 PM PDT*
%MOIN*%
G01*
G70*
G90*
G04 APERTURE LIST*
%ADD10C,0.003937*%
%ADD11C,0.011811*%
%ADD12C,0.027559*%
%ADD13R,0.068000X0.068000*%
%ADD14O,0.068000X0.068000*%
%ADD15R,0.051200X0.059000*%
%ADD16R,0.065000X0.100000*%
%ADD17C,0.060000*%
%ADD18R,0.059000X0.051200*%
%ADD19O,0.049213X0.037402*%
%ADD20R,0.039400X0.023600*%
%ADD21R,0.035000X0.055000*%
%ADD22R,0.055000X0.035000*%
%ADD23R,0.130000X0.180000*%
%ADD24R,0.078700X0.160300*%
%ADD25R,0.080000X0.080000*%
%ADD26O,0.080000X0.080000*%
%ADD27R,0.039400X0.031500*%
%ADD28R,0.047200X0.031500*%
%ADD29R,0.080000X0.144000*%
%ADD30R,0.080000X0.040000*%
%ADD31R,0.027600X0.039400*%
%ADD32R,0.025000X0.045000*%
G04 APERTURE END LIST*
G54D10*
G54D11*
X59202Y-19370D02*
X61338Y-19370D01*
G54D12*
X63612Y-25285D02*
X63612Y-33070D01*
G54D11*
X61722Y-27145D02*
X61663Y-27145D01*
X61722Y-26978D02*
X61722Y-27145D01*
G54D12*
X55413Y-33287D02*
X59645Y-25669D01*
G54D11*
X59202Y-19862D02*
X61427Y-19862D01*
G54D13*
X50893Y-28712D03*
G54D14*
X49893Y-28712D03*
X50893Y-27712D03*
X49893Y-27712D03*
X50893Y-26712D03*
X49893Y-26712D03*
X50893Y-25712D03*
X49893Y-25712D03*
X50893Y-24712D03*
X49893Y-24712D03*
X50893Y-23712D03*
X49893Y-23712D03*
X50893Y-22712D03*
X49893Y-22712D03*
X50893Y-21712D03*
X49893Y-21712D03*
X50893Y-20712D03*
X49893Y-20712D03*
X50893Y-19712D03*
X49893Y-19712D03*
G54D15*
X59597Y-30098D03*
X58847Y-30098D03*
G54D16*
X62746Y-30592D03*
X61746Y-30592D03*
X60757Y-30596D03*
X60746Y-28592D03*
X61746Y-28592D03*
X62746Y-28592D03*
G54D17*
X56318Y-27933D03*
G54D18*
X53425Y-29310D03*
X53425Y-30060D03*
X56929Y-21475D03*
X56929Y-22225D03*
X54448Y-29310D03*
X54448Y-30060D03*
X57755Y-21475D03*
X57755Y-22225D03*
X56102Y-27264D03*
X56102Y-26514D03*
X56141Y-20689D03*
X56141Y-19939D03*
X65708Y-20060D03*
X65708Y-19310D03*
G54D15*
X61839Y-20433D03*
X62589Y-20433D03*
G54D18*
X64736Y-20063D03*
X64736Y-19313D03*
G54D15*
X61839Y-21181D03*
X62589Y-21181D03*
X65532Y-22125D03*
X64782Y-22125D03*
X65532Y-21220D03*
X64782Y-21220D03*
G54D18*
X62923Y-23829D03*
X62923Y-23079D03*
X62224Y-23583D03*
X62224Y-22833D03*
X61732Y-27668D03*
X61732Y-26918D03*
X60757Y-27648D03*
X60757Y-26898D03*
X62755Y-27658D03*
X62755Y-26908D03*
X56102Y-24939D03*
X56102Y-25689D03*
X57037Y-24939D03*
X57037Y-25689D03*
G54D15*
X66349Y-28405D03*
X65599Y-28405D03*
G54D18*
X63661Y-23839D03*
X63661Y-23089D03*
X65472Y-29841D03*
X65472Y-30591D03*
G54D10*
G36*
X62122Y-24244D02*
X61705Y-24661D01*
X61343Y-24299D01*
X61760Y-23882D01*
X62122Y-24244D01*
X62122Y-24244D01*
G37*
G36*
X62652Y-24774D02*
X62235Y-25192D01*
X61873Y-24830D01*
X62290Y-24412D01*
X62652Y-24774D01*
X62652Y-24774D01*
G37*
G36*
X60820Y-23767D02*
X61237Y-23349D01*
X61599Y-23711D01*
X61182Y-24129D01*
X60820Y-23767D01*
X60820Y-23767D01*
G37*
G36*
X60290Y-23236D02*
X60707Y-22819D01*
X61069Y-23181D01*
X60652Y-23598D01*
X60290Y-23236D01*
X60290Y-23236D01*
G37*
G54D18*
X56102Y-23918D03*
X56102Y-23168D03*
X64409Y-23839D03*
X64409Y-23089D03*
X58031Y-30077D03*
X58031Y-30827D03*
X65157Y-23839D03*
X65157Y-23089D03*
X59055Y-16910D03*
X59055Y-16160D03*
X50905Y-31396D03*
X50905Y-32146D03*
G54D19*
X51870Y-31791D03*
X53838Y-31791D03*
G54D10*
G36*
X51948Y-32549D02*
X51948Y-33159D01*
X51161Y-33159D01*
X51161Y-32549D01*
X51948Y-32549D01*
X51948Y-32549D01*
G37*
G36*
X54547Y-32549D02*
X54547Y-33159D01*
X53759Y-33159D01*
X53759Y-32549D01*
X54547Y-32549D01*
X54547Y-32549D01*
G37*
G54D20*
X59635Y-30944D03*
X58769Y-30944D03*
G54D21*
X56869Y-26535D03*
X57619Y-26535D03*
X56869Y-27362D03*
X57619Y-27362D03*
X56908Y-20688D03*
X57658Y-20688D03*
X56908Y-23937D03*
X57658Y-23937D03*
G54D22*
X51141Y-30097D03*
X51141Y-30847D03*
G54D17*
X56614Y-18110D03*
G54D13*
X50893Y-18535D03*
G54D14*
X49893Y-18535D03*
X50893Y-17535D03*
X49893Y-17535D03*
X50893Y-16535D03*
X49893Y-16535D03*
X50893Y-15535D03*
X49893Y-15535D03*
X50893Y-14535D03*
X49893Y-14535D03*
G54D17*
X58208Y-24669D03*
G54D23*
X57376Y-32444D03*
G54D10*
G36*
X58197Y-33107D02*
X58984Y-33107D01*
X58748Y-33304D01*
X58433Y-33304D01*
X58197Y-33107D01*
X58197Y-33107D01*
G37*
G54D23*
X59868Y-32444D03*
G54D24*
X58622Y-32344D03*
G54D23*
X57376Y-32444D03*
X59868Y-32444D03*
G54D25*
X49901Y-31783D03*
G54D26*
X49901Y-32783D03*
G54D27*
X50472Y-30196D03*
X49606Y-29821D03*
X49606Y-30571D03*
G54D28*
X61122Y-21239D03*
X61122Y-22027D03*
X66496Y-30708D03*
X66496Y-29920D03*
G54D17*
X57559Y-19094D03*
G54D29*
X52479Y-26850D03*
G54D30*
X55079Y-26850D03*
X55079Y-27750D03*
X55079Y-25950D03*
G54D29*
X52440Y-20905D03*
G54D30*
X55040Y-20905D03*
X55040Y-21805D03*
X55040Y-20005D03*
G54D29*
X52440Y-23937D03*
G54D30*
X55040Y-23937D03*
X55040Y-24837D03*
X55040Y-23037D03*
G54D31*
X59861Y-17035D03*
X60236Y-17035D03*
X60611Y-17035D03*
X60611Y-16035D03*
X60236Y-16035D03*
X59861Y-16035D03*
G54D25*
X55224Y-14566D03*
G54D26*
X54224Y-14566D03*
G54D15*
X57766Y-25740D03*
X58516Y-25740D03*
G54D10*
G36*
X57249Y-28612D02*
X56832Y-28195D01*
X57194Y-27833D01*
X57611Y-28250D01*
X57249Y-28612D01*
X57249Y-28612D01*
G37*
G36*
X56719Y-29142D02*
X56301Y-28725D01*
X56663Y-28363D01*
X57081Y-28780D01*
X56719Y-29142D01*
X56719Y-29142D01*
G37*
G54D18*
X60019Y-20747D03*
X60019Y-21497D03*
X58299Y-23886D03*
X58299Y-23136D03*
G54D32*
X60762Y-20334D03*
X61362Y-20334D03*
M02*
