%FSLAX34Y34*%
G04 Gerber Fmt 3.4, Leading zero omitted, Abs format*
G04 (created by PCBNEW (2014-06-12 BZR 4942)-product) date Wed 18 Jun 2014 12:24:07 AM PDT*
%MOIN*%
G01*
G70*
G90*
G04 APERTURE LIST*
%ADD10C,0.003937*%
%ADD11C,0.060000*%
%ADD12R,0.059000X0.051200*%
%ADD13R,0.051200X0.059000*%
%ADD14R,0.039400X0.023600*%
%ADD15R,0.035000X0.055000*%
%ADD16R,0.055000X0.035000*%
%ADD17R,0.039400X0.031500*%
%ADD18R,0.031500X0.047200*%
%ADD19R,0.047200X0.031500*%
%ADD20R,0.065000X0.100000*%
%ADD21R,0.080000X0.144000*%
%ADD22R,0.080000X0.040000*%
%ADD23R,0.027600X0.039400*%
G04 APERTURE END LIST*
G54D10*
G54D11*
X56318Y-27933D03*
G54D12*
X53425Y-29310D03*
X53425Y-30060D03*
X56929Y-21475D03*
X56929Y-22225D03*
X54448Y-29310D03*
X54448Y-30060D03*
X57755Y-21475D03*
X57755Y-22225D03*
X56102Y-27264D03*
X56102Y-26514D03*
X56141Y-20689D03*
X56141Y-19939D03*
X65708Y-20060D03*
X65708Y-19310D03*
G54D13*
X61672Y-21220D03*
X62422Y-21220D03*
G54D12*
X64736Y-20063D03*
X64736Y-19313D03*
X58425Y-20689D03*
X58425Y-19939D03*
G54D13*
X65532Y-22125D03*
X64782Y-22125D03*
X65532Y-21220D03*
X64782Y-21220D03*
G54D12*
X62716Y-23760D03*
X62716Y-23010D03*
X61732Y-23760D03*
X61732Y-23010D03*
X61850Y-26221D03*
X61850Y-25471D03*
X60826Y-26241D03*
X60826Y-25491D03*
X62814Y-26241D03*
X62814Y-25491D03*
X56102Y-24939D03*
X56102Y-25689D03*
X56968Y-24743D03*
X56968Y-25493D03*
G54D13*
X66349Y-28405D03*
X65599Y-28405D03*
G54D12*
X63661Y-23839D03*
X63661Y-23089D03*
X65472Y-29841D03*
X65472Y-30591D03*
G54D13*
X60296Y-30196D03*
X59546Y-30196D03*
G54D12*
X56102Y-23918D03*
X56102Y-23168D03*
X64409Y-23839D03*
X64409Y-23089D03*
X58740Y-30176D03*
X58740Y-30926D03*
X65157Y-23839D03*
X65157Y-23089D03*
X59055Y-16910D03*
X59055Y-16160D03*
X50984Y-31219D03*
X50984Y-31969D03*
G54D14*
X60393Y-31062D03*
X59527Y-31062D03*
G54D15*
X56869Y-26535D03*
X57619Y-26535D03*
X56869Y-27362D03*
X57619Y-27362D03*
X56908Y-20688D03*
X57658Y-20688D03*
X56908Y-23937D03*
X57658Y-23937D03*
G54D16*
X51181Y-29743D03*
X51181Y-30493D03*
G54D11*
X56614Y-18110D03*
X57992Y-25433D03*
G54D17*
X50472Y-30196D03*
X49606Y-29821D03*
X49606Y-30571D03*
G54D18*
X59291Y-21269D03*
X60079Y-21269D03*
G54D19*
X66496Y-30708D03*
X66496Y-29920D03*
G54D11*
X57559Y-19094D03*
G54D20*
X62834Y-29125D03*
X61834Y-29125D03*
X60834Y-29125D03*
X60834Y-27125D03*
X61834Y-27125D03*
X62834Y-27125D03*
G54D21*
X52479Y-26850D03*
G54D22*
X55079Y-26850D03*
X55079Y-27750D03*
X55079Y-25950D03*
G54D21*
X52440Y-20905D03*
G54D22*
X55040Y-20905D03*
X55040Y-21805D03*
X55040Y-20005D03*
G54D21*
X52440Y-23937D03*
G54D22*
X55040Y-23937D03*
X55040Y-24837D03*
X55040Y-23037D03*
G54D23*
X59861Y-17035D03*
X60236Y-17035D03*
X60611Y-17035D03*
X60611Y-16035D03*
X60236Y-16035D03*
X59861Y-16035D03*
M02*
