%FSLAX34Y34*%
G04 Gerber Fmt 3.4, Leading zero omitted, Abs format*
G04 (created by PCBNEW (2014-06-12 BZR 4942)-product) date Fri 20 Jun 2014 06:35:23 PM PDT*
%MOIN*%
G01*
G70*
G90*
G04 APERTURE LIST*
%ADD10C,0.003937*%
%ADD11R,0.065000X0.100000*%
%ADD12C,0.060000*%
%ADD13R,0.059000X0.051200*%
%ADD14R,0.051200X0.059000*%
%ADD15R,0.039400X0.023600*%
%ADD16R,0.035000X0.055000*%
%ADD17R,0.055000X0.035000*%
%ADD18R,0.039400X0.031500*%
%ADD19R,0.047200X0.031500*%
%ADD20R,0.080000X0.144000*%
%ADD21R,0.080000X0.040000*%
%ADD22R,0.027600X0.039400*%
%ADD23R,0.025000X0.045000*%
G04 APERTURE END LIST*
G54D10*
G54D11*
X62746Y-30592D03*
X61746Y-30592D03*
X60757Y-30596D03*
X60746Y-28592D03*
X61746Y-28592D03*
X62746Y-28592D03*
G54D12*
X56318Y-27933D03*
G54D13*
X53425Y-29310D03*
X53425Y-30060D03*
X56929Y-21475D03*
X56929Y-22225D03*
X54448Y-29310D03*
X54448Y-30060D03*
X57755Y-21475D03*
X57755Y-22225D03*
X56102Y-27264D03*
X56102Y-26514D03*
X56141Y-20689D03*
X56141Y-19939D03*
X65708Y-20060D03*
X65708Y-19310D03*
G54D14*
X61839Y-20433D03*
X62589Y-20433D03*
G54D13*
X64736Y-20063D03*
X64736Y-19313D03*
G54D14*
X61839Y-21181D03*
X62589Y-21181D03*
X65532Y-22125D03*
X64782Y-22125D03*
X65532Y-21220D03*
X64782Y-21220D03*
G54D13*
X62923Y-23829D03*
X62923Y-23079D03*
X62224Y-23583D03*
X62224Y-22833D03*
X61732Y-27668D03*
X61732Y-26918D03*
X60757Y-27648D03*
X60757Y-26898D03*
X62755Y-27658D03*
X62755Y-26908D03*
X56102Y-24939D03*
X56102Y-25689D03*
X57037Y-24939D03*
X57037Y-25689D03*
G54D14*
X66349Y-28405D03*
X65599Y-28405D03*
G54D13*
X63661Y-23839D03*
X63661Y-23089D03*
X65472Y-29841D03*
X65472Y-30591D03*
G54D10*
G36*
X62122Y-24244D02*
X61705Y-24661D01*
X61343Y-24299D01*
X61760Y-23882D01*
X62122Y-24244D01*
X62122Y-24244D01*
G37*
G36*
X62652Y-24774D02*
X62235Y-25192D01*
X61873Y-24830D01*
X62290Y-24412D01*
X62652Y-24774D01*
X62652Y-24774D01*
G37*
G36*
X60820Y-23767D02*
X61237Y-23349D01*
X61599Y-23711D01*
X61182Y-24129D01*
X60820Y-23767D01*
X60820Y-23767D01*
G37*
G36*
X60290Y-23236D02*
X60707Y-22819D01*
X61069Y-23181D01*
X60652Y-23598D01*
X60290Y-23236D01*
X60290Y-23236D01*
G37*
G54D14*
X59597Y-30098D03*
X58847Y-30098D03*
G54D13*
X56102Y-23918D03*
X56102Y-23168D03*
X64409Y-23839D03*
X64409Y-23089D03*
X58031Y-30077D03*
X58031Y-30827D03*
X65157Y-23839D03*
X65157Y-23089D03*
X59055Y-16910D03*
X59055Y-16160D03*
X50984Y-31219D03*
X50984Y-31969D03*
G54D15*
X59635Y-30944D03*
X58769Y-30944D03*
G54D16*
X56869Y-26535D03*
X57619Y-26535D03*
X56869Y-27362D03*
X57619Y-27362D03*
X56908Y-20688D03*
X57658Y-20688D03*
X56908Y-23937D03*
X57658Y-23937D03*
G54D17*
X51181Y-29743D03*
X51181Y-30493D03*
G54D12*
X56614Y-18110D03*
X58208Y-24669D03*
G54D18*
X50472Y-30196D03*
X49606Y-29821D03*
X49606Y-30571D03*
G54D19*
X61122Y-21239D03*
X61122Y-22027D03*
X66496Y-30708D03*
X66496Y-29920D03*
G54D12*
X57559Y-19094D03*
G54D20*
X52479Y-26850D03*
G54D21*
X55079Y-26850D03*
X55079Y-27750D03*
X55079Y-25950D03*
G54D20*
X52440Y-20905D03*
G54D21*
X55040Y-20905D03*
X55040Y-21805D03*
X55040Y-20005D03*
G54D20*
X52440Y-23937D03*
G54D21*
X55040Y-23937D03*
X55040Y-24837D03*
X55040Y-23037D03*
G54D22*
X59861Y-17035D03*
X60236Y-17035D03*
X60611Y-17035D03*
X60611Y-16035D03*
X60236Y-16035D03*
X59861Y-16035D03*
G54D14*
X57766Y-25740D03*
X58516Y-25740D03*
G54D10*
G36*
X57249Y-28612D02*
X56832Y-28195D01*
X57194Y-27833D01*
X57611Y-28250D01*
X57249Y-28612D01*
X57249Y-28612D01*
G37*
G36*
X56719Y-29142D02*
X56301Y-28725D01*
X56663Y-28363D01*
X57081Y-28780D01*
X56719Y-29142D01*
X56719Y-29142D01*
G37*
G54D13*
X60019Y-20747D03*
X60019Y-21497D03*
X58299Y-23886D03*
X58299Y-23136D03*
G54D23*
X60762Y-20334D03*
X61362Y-20334D03*
M02*
