%FSLAX34Y34*%
G04 Gerber Fmt 3.4, Leading zero omitted, Abs format*
G04 (created by PCBNEW (2014-06-26 BZR 4956)-product) date Mon 30 Jun 2014 09:44:14 AM PDT*
%MOIN*%
G01*
G70*
G90*
G04 APERTURE LIST*
%ADD10C,0.003937*%
%ADD11R,0.065000X0.100000*%
%ADD12R,0.012000X0.036000*%
%ADD13R,0.036000X0.012000*%
%ADD14R,0.285000X0.285000*%
%ADD15R,0.047200X0.031500*%
%ADD16R,0.051200X0.059000*%
%ADD17R,0.015748X0.078740*%
%ADD18R,0.015748X0.053150*%
%ADD19R,0.059055X0.061024*%
%ADD20R,0.035000X0.055000*%
%ADD21R,0.055000X0.035000*%
%ADD22C,0.060000*%
%ADD23R,0.031500X0.047200*%
%ADD24R,0.061024X0.076772*%
%ADD25C,0.118100*%
%ADD26R,0.025000X0.045000*%
%ADD27R,0.045000X0.025000*%
G04 APERTURE END LIST*
G54D10*
G54D11*
X64488Y-30602D03*
X65488Y-30602D03*
X66488Y-30602D03*
X66488Y-28602D03*
X65488Y-28602D03*
X64488Y-28602D03*
G54D10*
G36*
X65099Y-19999D02*
X65067Y-20359D01*
X64979Y-20359D01*
X64947Y-19999D01*
X65099Y-19999D01*
X65099Y-19999D01*
G37*
G54D12*
X64823Y-20179D03*
X64623Y-20179D03*
X64433Y-20179D03*
X64233Y-20179D03*
X64033Y-20179D03*
X63843Y-20179D03*
X63643Y-20179D03*
X63443Y-20179D03*
X63243Y-20179D03*
X63053Y-20179D03*
X62853Y-20179D03*
X62653Y-20179D03*
X62463Y-20179D03*
X62263Y-20179D03*
G54D10*
G36*
X62139Y-19999D02*
X62107Y-20359D01*
X62019Y-20359D01*
X61987Y-19999D01*
X62139Y-19999D01*
X62139Y-19999D01*
G37*
G36*
X61613Y-20373D02*
X61973Y-20404D01*
X61973Y-20493D01*
X61613Y-20524D01*
X61613Y-20373D01*
X61613Y-20373D01*
G37*
G54D13*
X61793Y-20649D03*
X61793Y-20849D03*
X61793Y-21039D03*
X61793Y-21239D03*
X61793Y-21439D03*
X61793Y-21629D03*
X61793Y-21829D03*
X61793Y-22029D03*
X61793Y-22229D03*
X61793Y-22419D03*
X61793Y-22619D03*
X61793Y-22819D03*
X61793Y-23009D03*
X61793Y-23209D03*
G54D10*
G36*
X61613Y-23333D02*
X61973Y-23364D01*
X61973Y-23453D01*
X61613Y-23484D01*
X61613Y-23333D01*
X61613Y-23333D01*
G37*
G36*
X61987Y-23859D02*
X62019Y-23499D01*
X62107Y-23499D01*
X62139Y-23859D01*
X61987Y-23859D01*
X61987Y-23859D01*
G37*
G54D12*
X62263Y-23679D03*
X62463Y-23679D03*
X62653Y-23679D03*
X62853Y-23679D03*
X63053Y-23679D03*
X63243Y-23679D03*
X63443Y-23679D03*
X63643Y-23679D03*
X63843Y-23679D03*
X64033Y-23679D03*
X64233Y-23679D03*
X64433Y-23679D03*
X64623Y-23679D03*
X64823Y-23679D03*
G54D10*
G36*
X64947Y-23859D02*
X64979Y-23499D01*
X65067Y-23499D01*
X65099Y-23859D01*
X64947Y-23859D01*
X64947Y-23859D01*
G37*
G36*
X65473Y-23482D02*
X65113Y-23455D01*
X65113Y-23362D01*
X65473Y-23335D01*
X65473Y-23482D01*
X65473Y-23482D01*
G37*
G54D13*
X65293Y-23209D03*
X65293Y-23009D03*
X65293Y-22819D03*
X65293Y-22619D03*
X65293Y-22419D03*
X65293Y-22229D03*
X65293Y-22029D03*
X65293Y-21829D03*
X65293Y-21629D03*
X65293Y-21439D03*
X65293Y-21239D03*
X65293Y-21039D03*
X65293Y-20849D03*
X65293Y-20649D03*
G54D10*
G36*
X65473Y-20524D02*
X65113Y-20493D01*
X65113Y-20404D01*
X65473Y-20373D01*
X65473Y-20524D01*
X65473Y-20524D01*
G37*
G54D14*
X63543Y-21929D03*
G54D15*
X64200Y-25994D03*
X64200Y-25206D03*
G54D10*
G36*
X61351Y-24298D02*
X61769Y-23881D01*
X62131Y-24243D01*
X61713Y-24660D01*
X61351Y-24298D01*
X61351Y-24298D01*
G37*
G36*
X60821Y-23768D02*
X61238Y-23351D01*
X61600Y-23713D01*
X61183Y-24130D01*
X60821Y-23768D01*
X60821Y-23768D01*
G37*
G36*
X60800Y-24849D02*
X61217Y-24432D01*
X61579Y-24794D01*
X61162Y-25211D01*
X60800Y-24849D01*
X60800Y-24849D01*
G37*
G36*
X60270Y-24319D02*
X60687Y-23902D01*
X61049Y-24264D01*
X60632Y-24681D01*
X60270Y-24319D01*
X60270Y-24319D01*
G37*
G54D16*
X52774Y-30019D03*
X53524Y-30019D03*
X52774Y-30905D03*
X53524Y-30905D03*
G54D17*
X67079Y-14960D03*
X67079Y-18110D03*
X66829Y-14960D03*
X66829Y-18110D03*
X66579Y-14960D03*
X66579Y-18110D03*
X66329Y-14960D03*
X66329Y-18110D03*
X66079Y-14960D03*
X66079Y-18110D03*
X65829Y-14960D03*
X65829Y-18110D03*
X65579Y-14960D03*
X65579Y-18110D03*
X65329Y-14960D03*
X65329Y-18110D03*
X65079Y-14960D03*
X65079Y-18110D03*
X64829Y-14960D03*
X64829Y-18110D03*
X64579Y-14960D03*
X64579Y-18110D03*
X64329Y-14960D03*
X64329Y-18110D03*
X64079Y-14960D03*
X64079Y-18110D03*
X63829Y-14960D03*
X63829Y-18110D03*
X63579Y-14960D03*
X63579Y-18110D03*
X63329Y-14960D03*
X63329Y-18110D03*
X63079Y-14960D03*
X63079Y-18110D03*
X62829Y-14960D03*
X62829Y-18110D03*
X62579Y-14960D03*
X62579Y-18110D03*
X62329Y-14960D03*
X62329Y-18110D03*
X62079Y-14960D03*
X62079Y-18110D03*
X61829Y-14960D03*
X61829Y-18110D03*
X61579Y-14960D03*
X61579Y-18110D03*
X61329Y-14960D03*
X61329Y-18110D03*
X61079Y-14960D03*
X61079Y-18110D03*
X60829Y-14960D03*
X60829Y-18110D03*
X60579Y-14960D03*
X60579Y-18110D03*
X60329Y-14960D03*
X60329Y-18110D03*
X60079Y-14960D03*
X60079Y-18110D03*
X59829Y-14960D03*
X59829Y-18110D03*
X59579Y-14960D03*
X59579Y-18110D03*
X59329Y-14960D03*
X59329Y-18110D03*
X59079Y-14960D03*
X59079Y-18110D03*
X58829Y-14960D03*
X58829Y-18110D03*
X58579Y-14960D03*
X58579Y-18110D03*
X58329Y-14960D03*
X58329Y-18110D03*
X58079Y-14960D03*
X58079Y-18110D03*
X57829Y-14960D03*
X57829Y-18110D03*
X57579Y-14960D03*
X57579Y-18110D03*
X57329Y-14960D03*
X57329Y-18110D03*
G54D18*
X52854Y-31791D03*
X52598Y-31791D03*
X52342Y-31791D03*
X53110Y-31791D03*
X53366Y-31791D03*
G54D19*
X52460Y-32854D03*
X53248Y-32854D03*
G54D20*
X52737Y-18110D03*
X51987Y-18110D03*
X52737Y-18897D03*
X51987Y-18897D03*
X52737Y-15748D03*
X51987Y-15748D03*
X52737Y-17322D03*
X51987Y-17322D03*
X54351Y-18070D03*
X53601Y-18070D03*
X54351Y-18897D03*
X53601Y-18897D03*
X51987Y-14960D03*
X52737Y-14960D03*
X52737Y-16535D03*
X51987Y-16535D03*
X52737Y-14173D03*
X51987Y-14173D03*
G54D21*
X51968Y-30333D03*
X51968Y-31083D03*
G54D22*
X53805Y-20370D03*
G54D23*
X65866Y-25551D03*
X65078Y-25551D03*
G54D24*
X66283Y-23070D03*
X68283Y-23070D03*
X68283Y-21417D03*
X66283Y-21417D03*
G54D20*
X52737Y-27952D03*
X51987Y-27952D03*
X52737Y-26771D03*
X51987Y-26771D03*
X52737Y-25590D03*
X51987Y-25590D03*
X52737Y-24803D03*
X51987Y-24803D03*
X52737Y-23622D03*
X51987Y-23622D03*
X52737Y-22834D03*
X51987Y-22834D03*
X52737Y-22047D03*
X51987Y-22047D03*
X52737Y-21259D03*
X51987Y-21259D03*
X52737Y-19685D03*
X51987Y-19685D03*
X53955Y-28346D03*
X54705Y-28346D03*
X53955Y-27559D03*
X54705Y-27559D03*
X53955Y-26771D03*
X54705Y-26771D03*
X53955Y-25984D03*
X54705Y-25984D03*
X53955Y-25196D03*
X54705Y-25196D03*
X53955Y-24409D03*
X54705Y-24409D03*
X53955Y-23622D03*
X54705Y-23622D03*
X53955Y-22834D03*
X54705Y-22834D03*
X53955Y-22047D03*
X54705Y-22047D03*
X53955Y-21259D03*
X54705Y-21259D03*
G54D22*
X53937Y-16535D03*
X54724Y-16535D03*
X55511Y-16535D03*
G54D25*
X66181Y-26958D03*
X64600Y-27000D03*
G54D16*
X67934Y-19045D03*
X67184Y-19045D03*
X68514Y-24143D03*
X67764Y-24143D03*
G54D21*
X67135Y-20512D03*
X67135Y-19762D03*
X63098Y-25686D03*
X63098Y-24936D03*
G54D26*
X65939Y-24478D03*
X65339Y-24478D03*
G54D27*
X66860Y-24542D03*
X66860Y-23942D03*
M02*
