%FSLAX34Y34*%
G04 Gerber Fmt 3.4, Leading zero omitted, Abs format*
G04 (created by PCBNEW (2014-06-12 BZR 4942)-product) date Mon 16 Jun 2014 06:59:23 PM PDT*
%MOIN*%
G01*
G70*
G90*
G04 APERTURE LIST*
%ADD10C,0.003937*%
%ADD11R,0.012000X0.036000*%
%ADD12R,0.036000X0.012000*%
%ADD13R,0.047200X0.031500*%
%ADD14R,0.059000X0.051200*%
%ADD15R,0.051200X0.059000*%
%ADD16R,0.015748X0.078740*%
%ADD17R,0.015748X0.053150*%
%ADD18R,0.059055X0.061024*%
%ADD19R,0.039400X0.023600*%
%ADD20R,0.035000X0.055000*%
%ADD21R,0.055000X0.035000*%
%ADD22C,0.060000*%
%ADD23R,0.031500X0.047200*%
%ADD24R,0.065000X0.100000*%
%ADD25R,0.061024X0.076772*%
%ADD26C,0.118100*%
G04 APERTURE END LIST*
G54D10*
G36*
X65099Y-19999D02*
X65067Y-20359D01*
X64979Y-20359D01*
X64947Y-19999D01*
X65099Y-19999D01*
X65099Y-19999D01*
G37*
G54D11*
X64823Y-20179D03*
X64623Y-20179D03*
X64433Y-20179D03*
X64233Y-20179D03*
X64033Y-20179D03*
X63843Y-20179D03*
X63643Y-20179D03*
X63443Y-20179D03*
X63243Y-20179D03*
X63053Y-20179D03*
X62853Y-20179D03*
X62653Y-20179D03*
X62463Y-20179D03*
X62263Y-20179D03*
G54D10*
G36*
X62139Y-19999D02*
X62107Y-20359D01*
X62019Y-20359D01*
X61987Y-19999D01*
X62139Y-19999D01*
X62139Y-19999D01*
G37*
G36*
X61613Y-20373D02*
X61973Y-20404D01*
X61973Y-20493D01*
X61613Y-20524D01*
X61613Y-20373D01*
X61613Y-20373D01*
G37*
G54D12*
X61793Y-20649D03*
X61793Y-20849D03*
X61793Y-21039D03*
X61793Y-21239D03*
X61793Y-21439D03*
X61793Y-21629D03*
X61793Y-21829D03*
X61793Y-22029D03*
X61793Y-22229D03*
X61793Y-22419D03*
X61793Y-22619D03*
X61793Y-22819D03*
X61793Y-23009D03*
X61793Y-23209D03*
G54D10*
G36*
X61613Y-23333D02*
X61973Y-23364D01*
X61973Y-23453D01*
X61613Y-23484D01*
X61613Y-23333D01*
X61613Y-23333D01*
G37*
G36*
X61987Y-23859D02*
X62019Y-23499D01*
X62107Y-23499D01*
X62139Y-23859D01*
X61987Y-23859D01*
X61987Y-23859D01*
G37*
G54D11*
X62263Y-23679D03*
X62463Y-23679D03*
X62653Y-23679D03*
X62853Y-23679D03*
X63053Y-23679D03*
X63243Y-23679D03*
X63443Y-23679D03*
X63643Y-23679D03*
X63843Y-23679D03*
X64033Y-23679D03*
X64233Y-23679D03*
X64433Y-23679D03*
X64623Y-23679D03*
X64823Y-23679D03*
G54D10*
G36*
X64947Y-23859D02*
X64979Y-23499D01*
X65067Y-23499D01*
X65099Y-23859D01*
X64947Y-23859D01*
X64947Y-23859D01*
G37*
G36*
X65473Y-23482D02*
X65113Y-23455D01*
X65113Y-23362D01*
X65473Y-23335D01*
X65473Y-23482D01*
X65473Y-23482D01*
G37*
G54D12*
X65293Y-23209D03*
X65293Y-23009D03*
X65293Y-22819D03*
X65293Y-22619D03*
X65293Y-22419D03*
X65293Y-22229D03*
X65293Y-22029D03*
X65293Y-21829D03*
X65293Y-21629D03*
X65293Y-21439D03*
X65293Y-21239D03*
X65293Y-21039D03*
X65293Y-20849D03*
X65293Y-20649D03*
G54D10*
G36*
X65473Y-20524D02*
X65113Y-20493D01*
X65113Y-20404D01*
X65473Y-20373D01*
X65473Y-20524D01*
X65473Y-20524D01*
G37*
G54D13*
X61889Y-27205D03*
X61889Y-26417D03*
G54D14*
X60039Y-19802D03*
X60039Y-20552D03*
X59251Y-19802D03*
X59251Y-20552D03*
X66181Y-20178D03*
X66181Y-19428D03*
G54D15*
X67737Y-19448D03*
X66987Y-19448D03*
G54D14*
X61614Y-25375D03*
X61614Y-24625D03*
X62401Y-25375D03*
X62401Y-24625D03*
X63385Y-24625D03*
X63385Y-25375D03*
X60614Y-24544D03*
X60614Y-23794D03*
G54D15*
X59922Y-23720D03*
X59172Y-23720D03*
X52774Y-30019D03*
X53524Y-30019D03*
G54D14*
X59251Y-24526D03*
X59251Y-25276D03*
X58366Y-23739D03*
X58366Y-24489D03*
X58169Y-29349D03*
X58169Y-30099D03*
G54D15*
X57892Y-30905D03*
X58642Y-30905D03*
X52774Y-30905D03*
X53524Y-30905D03*
G54D16*
X67079Y-14960D03*
X67079Y-18110D03*
X66829Y-14960D03*
X66829Y-18110D03*
X66579Y-14960D03*
X66579Y-18110D03*
X66329Y-14960D03*
X66329Y-18110D03*
X66079Y-14960D03*
X66079Y-18110D03*
X65829Y-14960D03*
X65829Y-18110D03*
X65579Y-14960D03*
X65579Y-18110D03*
X65329Y-14960D03*
X65329Y-18110D03*
X65079Y-14960D03*
X65079Y-18110D03*
X64829Y-14960D03*
X64829Y-18110D03*
X64579Y-14960D03*
X64579Y-18110D03*
X64329Y-14960D03*
X64329Y-18110D03*
X64079Y-14960D03*
X64079Y-18110D03*
X63829Y-14960D03*
X63829Y-18110D03*
X63579Y-14960D03*
X63579Y-18110D03*
X63329Y-14960D03*
X63329Y-18110D03*
X63079Y-14960D03*
X63079Y-18110D03*
X62829Y-14960D03*
X62829Y-18110D03*
X62579Y-14960D03*
X62579Y-18110D03*
X62329Y-14960D03*
X62329Y-18110D03*
X62079Y-14960D03*
X62079Y-18110D03*
X61829Y-14960D03*
X61829Y-18110D03*
X61579Y-14960D03*
X61579Y-18110D03*
X61329Y-14960D03*
X61329Y-18110D03*
X61079Y-14960D03*
X61079Y-18110D03*
X60829Y-14960D03*
X60829Y-18110D03*
X60579Y-14960D03*
X60579Y-18110D03*
X60329Y-14960D03*
X60329Y-18110D03*
X60079Y-14960D03*
X60079Y-18110D03*
X59829Y-14960D03*
X59829Y-18110D03*
X59579Y-14960D03*
X59579Y-18110D03*
X59329Y-14960D03*
X59329Y-18110D03*
X59079Y-14960D03*
X59079Y-18110D03*
X58829Y-14960D03*
X58829Y-18110D03*
X58579Y-14960D03*
X58579Y-18110D03*
X58329Y-14960D03*
X58329Y-18110D03*
X58079Y-14960D03*
X58079Y-18110D03*
X57829Y-14960D03*
X57829Y-18110D03*
X57579Y-14960D03*
X57579Y-18110D03*
X57329Y-14960D03*
X57329Y-18110D03*
G54D17*
X52854Y-31791D03*
X52598Y-31791D03*
X52342Y-31791D03*
X53110Y-31791D03*
X53366Y-31791D03*
G54D18*
X52460Y-32854D03*
X53248Y-32854D03*
G54D19*
X60275Y-30216D03*
X59409Y-30216D03*
G54D20*
X52737Y-18110D03*
X51987Y-18110D03*
X52737Y-18897D03*
X51987Y-18897D03*
X52737Y-15748D03*
X51987Y-15748D03*
X52737Y-17322D03*
X51987Y-17322D03*
X54351Y-18070D03*
X53601Y-18070D03*
X54351Y-18897D03*
X53601Y-18897D03*
X51987Y-14960D03*
X52737Y-14960D03*
X52737Y-16535D03*
X51987Y-16535D03*
X52737Y-14173D03*
X51987Y-14173D03*
G54D21*
X51968Y-30333D03*
X51968Y-31083D03*
G54D22*
X53805Y-20370D03*
G54D23*
X59153Y-22736D03*
X59941Y-22736D03*
X65669Y-25590D03*
X64881Y-25590D03*
G54D24*
X64488Y-30602D03*
X65488Y-30602D03*
X66488Y-30602D03*
X66488Y-28602D03*
X65488Y-28602D03*
X64488Y-28602D03*
X58759Y-28338D03*
X59759Y-28338D03*
X60759Y-28338D03*
X60759Y-26338D03*
X59759Y-26338D03*
X58759Y-26338D03*
G54D25*
X66224Y-22874D03*
X68224Y-22874D03*
X68224Y-21220D03*
X66224Y-21220D03*
G54D20*
X52737Y-27952D03*
X51987Y-27952D03*
X52737Y-26771D03*
X51987Y-26771D03*
X52737Y-25590D03*
X51987Y-25590D03*
X52737Y-24803D03*
X51987Y-24803D03*
X52737Y-23622D03*
X51987Y-23622D03*
X52737Y-22834D03*
X51987Y-22834D03*
X52737Y-22047D03*
X51987Y-22047D03*
X52737Y-21259D03*
X51987Y-21259D03*
X52737Y-19685D03*
X51987Y-19685D03*
X53955Y-28346D03*
X54705Y-28346D03*
X53955Y-27559D03*
X54705Y-27559D03*
X53955Y-26771D03*
X54705Y-26771D03*
X53955Y-25984D03*
X54705Y-25984D03*
X53955Y-25196D03*
X54705Y-25196D03*
X53955Y-24409D03*
X54705Y-24409D03*
X53955Y-23622D03*
X54705Y-23622D03*
X53955Y-22834D03*
X54705Y-22834D03*
X53955Y-22047D03*
X54705Y-22047D03*
X53955Y-21259D03*
X54705Y-21259D03*
G54D22*
X53937Y-16535D03*
X54724Y-16535D03*
X55511Y-16535D03*
G54D26*
X64488Y-27165D03*
X66456Y-27165D03*
M02*
