%FSLAX34Y34*%
G04 Gerber Fmt 3.4, Leading zero omitted, Abs format*
G04 (created by PCBNEW (2014-06-12 BZR 4942)-product) date Mon 16 Jun 2014 06:59:23 PM PDT*
%MOIN*%
G01*
G70*
G90*
G04 APERTURE LIST*
%ADD10C,0.003937*%
%ADD11R,0.285000X0.285000*%
%ADD12C,0.060000*%
%ADD13R,0.059000X0.051200*%
%ADD14R,0.051200X0.059000*%
%ADD15O,0.049213X0.037402*%
%ADD16R,0.035000X0.055000*%
%ADD17R,0.055000X0.035000*%
%ADD18R,0.068000X0.068000*%
%ADD19O,0.068000X0.068000*%
%ADD20R,0.130000X0.180000*%
%ADD21R,0.080000X0.080000*%
%ADD22O,0.080000X0.080000*%
%ADD23R,0.039400X0.031500*%
%ADD24R,0.047200X0.031500*%
%ADD25R,0.080000X0.144000*%
%ADD26R,0.080000X0.040000*%
%ADD27R,0.027600X0.039400*%
%ADD28C,0.015748*%
%ADD29C,0.006299*%
%ADD30C,0.010000*%
G04 APERTURE END LIST*
G54D10*
G54D11*
X63543Y-21929D03*
G54D12*
X56255Y-28031D03*
G54D13*
X53425Y-29310D03*
X53425Y-30060D03*
X56929Y-21475D03*
X56929Y-22225D03*
X54448Y-29310D03*
X54448Y-30060D03*
X57755Y-21475D03*
X57755Y-22225D03*
X56102Y-27264D03*
X56102Y-26514D03*
X56141Y-20689D03*
X56141Y-19939D03*
X66732Y-21004D03*
X66732Y-20254D03*
X67519Y-21004D03*
X67519Y-20254D03*
G54D14*
X62382Y-24606D03*
X61632Y-24606D03*
X62382Y-25492D03*
X61632Y-25492D03*
G54D13*
X59744Y-26101D03*
X59744Y-26851D03*
X56102Y-24939D03*
X56102Y-25689D03*
X56988Y-24939D03*
X56988Y-25689D03*
G54D14*
X66339Y-28740D03*
X65589Y-28740D03*
G54D13*
X65472Y-29841D03*
X65472Y-30591D03*
X56102Y-23918D03*
X56102Y-23168D03*
G54D14*
X63957Y-24606D03*
X63207Y-24606D03*
X63957Y-25393D03*
X63207Y-25393D03*
G54D13*
X59055Y-16910D03*
X59055Y-16160D03*
X50984Y-31219D03*
X50984Y-31969D03*
G54D15*
X51870Y-31791D03*
X53838Y-31791D03*
G54D10*
G36*
X51948Y-32549D02*
X51948Y-33159D01*
X51161Y-33159D01*
X51161Y-32549D01*
X51948Y-32549D01*
X51948Y-32549D01*
G37*
G36*
X54547Y-32549D02*
X54547Y-33159D01*
X53759Y-33159D01*
X53759Y-32549D01*
X54547Y-32549D01*
X54547Y-32549D01*
G37*
G54D16*
X56810Y-27283D03*
X57560Y-27283D03*
X56810Y-26496D03*
X57560Y-26496D03*
X56908Y-20688D03*
X57658Y-20688D03*
X56908Y-23937D03*
X57658Y-23937D03*
G54D17*
X51181Y-29743D03*
X51181Y-30493D03*
G54D12*
X57480Y-18110D03*
G54D18*
X50893Y-18535D03*
G54D19*
X49893Y-18535D03*
X50893Y-17535D03*
X49893Y-17535D03*
X50893Y-16535D03*
X49893Y-16535D03*
X50893Y-15535D03*
X49893Y-15535D03*
X50893Y-14535D03*
X49893Y-14535D03*
G54D12*
X58366Y-14960D03*
X57992Y-25433D03*
G54D20*
X65210Y-32444D03*
X67702Y-32444D03*
X57376Y-32444D03*
X59868Y-32444D03*
G54D21*
X49901Y-31783D03*
G54D22*
X49901Y-32783D03*
G54D12*
X54429Y-18503D03*
G54D23*
X50472Y-30196D03*
X49606Y-29821D03*
X49606Y-30571D03*
G54D24*
X66496Y-30708D03*
X66496Y-29920D03*
G54D12*
X57578Y-19881D03*
G54D25*
X52479Y-26850D03*
G54D26*
X55079Y-26850D03*
X55079Y-27750D03*
X55079Y-25950D03*
G54D25*
X52440Y-20905D03*
G54D26*
X55040Y-20905D03*
X55040Y-21805D03*
X55040Y-20005D03*
G54D25*
X52440Y-23937D03*
G54D26*
X55040Y-23937D03*
X55040Y-24837D03*
X55040Y-23037D03*
G54D27*
X59861Y-17035D03*
X60236Y-17035D03*
X60611Y-17035D03*
X60611Y-16035D03*
X60236Y-16035D03*
X59861Y-16035D03*
G54D21*
X55224Y-14566D03*
G54D22*
X54224Y-14566D03*
G54D18*
X50893Y-28712D03*
G54D19*
X49893Y-28712D03*
X50893Y-27712D03*
X49893Y-27712D03*
X50893Y-26712D03*
X49893Y-26712D03*
X50893Y-25712D03*
X49893Y-25712D03*
X50893Y-24712D03*
X49893Y-24712D03*
X50893Y-23712D03*
X49893Y-23712D03*
X50893Y-22712D03*
X49893Y-22712D03*
X50893Y-21712D03*
X49893Y-21712D03*
X50893Y-20712D03*
X49893Y-20712D03*
X50893Y-19712D03*
X49893Y-19712D03*
G54D28*
X67079Y-18651D03*
X56580Y-32394D03*
X57914Y-22653D03*
X59981Y-16506D03*
X65215Y-31402D03*
X68498Y-32394D03*
X65742Y-20258D03*
X60590Y-30236D03*
X60759Y-28338D03*
X59842Y-32480D03*
X59744Y-26980D03*
X64000Y-21900D03*
X63543Y-21929D03*
X64000Y-21300D03*
X64500Y-21300D03*
X64500Y-21900D03*
X64500Y-22500D03*
X64500Y-23100D03*
X64000Y-23100D03*
X64000Y-22500D03*
X63500Y-22500D03*
X63500Y-23100D03*
X62900Y-23100D03*
X62900Y-22500D03*
X62900Y-21900D03*
X62900Y-21300D03*
X63500Y-21300D03*
X63500Y-20800D03*
X62900Y-20800D03*
X62400Y-20800D03*
X62400Y-21300D03*
X62400Y-21900D03*
X62400Y-22500D03*
X62400Y-23100D03*
X64000Y-20800D03*
X64500Y-20800D03*
X53803Y-20362D03*
X59392Y-21542D03*
X58862Y-20916D03*
X61692Y-19958D03*
X59158Y-18771D03*
X65385Y-20205D03*
X55306Y-20393D03*
X63295Y-24017D03*
X62212Y-24036D03*
X65619Y-21651D03*
X59748Y-26212D03*
X65516Y-29343D03*
X51454Y-30118D03*
X63992Y-24167D03*
X61372Y-21567D03*
X65628Y-18782D03*
X61347Y-20927D03*
X65340Y-16400D03*
X61432Y-21206D03*
X64425Y-17568D03*
X61220Y-19815D03*
X64661Y-15995D03*
X61895Y-19168D03*
X63440Y-17440D03*
X59703Y-16572D03*
X56070Y-16942D03*
X61287Y-19382D03*
X60065Y-20963D03*
X60453Y-16378D03*
X60686Y-15696D03*
X60248Y-16528D03*
X59135Y-15505D03*
X61408Y-22756D03*
X59185Y-21735D03*
X58228Y-17242D03*
X53870Y-15022D03*
X58643Y-15547D03*
X54946Y-15841D03*
X58374Y-17416D03*
X53162Y-16501D03*
X57939Y-17309D03*
X53465Y-14784D03*
X60763Y-18856D03*
X57854Y-19511D03*
X57543Y-15582D03*
X57545Y-19435D03*
X56124Y-17693D03*
X57100Y-18356D03*
X53271Y-17959D03*
X66820Y-15687D03*
X55067Y-22662D03*
X64575Y-15530D03*
X53271Y-21933D03*
X64078Y-17139D03*
X55079Y-23445D03*
X63990Y-15725D03*
X55462Y-19587D03*
X63353Y-15523D03*
X56067Y-19119D03*
X63005Y-16930D03*
X55693Y-19601D03*
X59543Y-17461D03*
X56345Y-17635D03*
X62313Y-16145D03*
X55819Y-18954D03*
X61978Y-16372D03*
X56463Y-18741D03*
X56946Y-24492D03*
X55482Y-24492D03*
X60899Y-18680D03*
X58393Y-20480D03*
X50363Y-17113D03*
X53870Y-16982D03*
X64487Y-24183D03*
X65798Y-26282D03*
G54D29*
X66339Y-28740D02*
X65988Y-28740D01*
X65988Y-28740D02*
X65988Y-24642D01*
X65988Y-24642D02*
X65045Y-23698D01*
X65045Y-23698D02*
X65651Y-23698D01*
X65651Y-23698D02*
X59726Y-23698D01*
X59726Y-23698D02*
X57992Y-25433D01*
X67079Y-18651D02*
X67909Y-19481D01*
X67909Y-19481D02*
X67909Y-21440D01*
X67909Y-21440D02*
X65651Y-23698D01*
X54584Y-27750D02*
X54448Y-27886D01*
X54448Y-27886D02*
X54448Y-29197D01*
X54545Y-24837D02*
X54545Y-27711D01*
X54545Y-27711D02*
X54584Y-27750D01*
X55040Y-21805D02*
X54545Y-21805D01*
X54545Y-21805D02*
X54545Y-24837D01*
X55160Y-21805D02*
X55040Y-21805D01*
X55040Y-24837D02*
X54545Y-24837D01*
X55040Y-24837D02*
X55609Y-24837D01*
X55609Y-24837D02*
X55712Y-24939D01*
X55079Y-27750D02*
X54584Y-27750D01*
X55534Y-21805D02*
X56209Y-21805D01*
X56209Y-21805D02*
X56539Y-21475D01*
X53425Y-29310D02*
X53814Y-29310D01*
X54448Y-29197D02*
X53927Y-29197D01*
X53927Y-29197D02*
X53814Y-29310D01*
X54448Y-29310D02*
X54448Y-29197D01*
X49606Y-29569D02*
X49866Y-29310D01*
X49866Y-29310D02*
X53425Y-29310D01*
X56988Y-24939D02*
X57499Y-24939D01*
X57499Y-24939D02*
X57992Y-25433D01*
X56102Y-24939D02*
X56988Y-24939D01*
X55160Y-21805D02*
X55534Y-21805D01*
X66496Y-29920D02*
X66496Y-29668D01*
X66427Y-28740D02*
X66427Y-29600D01*
X66427Y-29600D02*
X66496Y-29668D01*
X66339Y-28740D02*
X66427Y-28740D01*
X56929Y-21475D02*
X56539Y-21475D01*
X57755Y-21475D02*
X56929Y-21475D01*
X49606Y-29821D02*
X49606Y-29569D01*
X56102Y-24939D02*
X55712Y-24939D01*
X67702Y-32444D02*
X66958Y-32444D01*
X65210Y-31947D02*
X66460Y-31947D01*
X66460Y-31947D02*
X66958Y-32444D01*
X65210Y-31947D02*
X65210Y-31450D01*
X65210Y-32444D02*
X65210Y-31947D01*
X65215Y-31402D02*
X65215Y-31445D01*
X65215Y-31445D02*
X65210Y-31450D01*
X65472Y-30591D02*
X65472Y-31145D01*
X65472Y-31145D02*
X65215Y-31402D01*
X65070Y-28908D02*
X65070Y-30189D01*
X65070Y-30189D02*
X65472Y-30591D01*
X65238Y-28740D02*
X65070Y-28908D01*
X63207Y-25080D02*
X63207Y-24995D01*
X63207Y-25393D02*
X63207Y-25080D01*
X61632Y-25080D02*
X63207Y-25080D01*
X61632Y-25080D02*
X61632Y-25492D01*
X61632Y-24995D02*
X61632Y-25080D01*
X59744Y-26851D02*
X59354Y-26851D01*
X56988Y-25865D02*
X57079Y-25956D01*
X57079Y-25956D02*
X57079Y-26608D01*
X57079Y-26608D02*
X57337Y-26865D01*
X57337Y-26865D02*
X59340Y-26865D01*
X59340Y-26865D02*
X59354Y-26851D01*
X56491Y-25689D02*
X56667Y-25865D01*
X56667Y-25865D02*
X56988Y-25865D01*
X59744Y-26980D02*
X59744Y-26851D01*
X56102Y-25689D02*
X56491Y-25689D01*
X56988Y-25689D02*
X56988Y-25865D01*
X65589Y-28740D02*
X65238Y-28740D01*
X59744Y-26851D02*
X60133Y-26851D01*
X61632Y-25492D02*
X61282Y-25492D01*
X60133Y-26851D02*
X60133Y-26640D01*
X60133Y-26640D02*
X61282Y-25492D01*
X63207Y-24606D02*
X63207Y-24995D01*
X53814Y-30060D02*
X53990Y-30235D01*
X53990Y-30235D02*
X54448Y-30235D01*
X57376Y-32444D02*
X56631Y-32444D01*
X56631Y-32444D02*
X56580Y-32394D01*
X59842Y-32470D02*
X59817Y-32444D01*
X59817Y-32444D02*
X57376Y-32444D01*
X54429Y-18503D02*
X54429Y-19394D01*
X54429Y-19394D02*
X55040Y-20005D01*
X57755Y-22225D02*
X57755Y-22575D01*
X57914Y-22653D02*
X57837Y-22575D01*
X57837Y-22575D02*
X57755Y-22575D01*
X55224Y-14566D02*
X55719Y-14566D01*
X58366Y-14960D02*
X56112Y-14960D01*
X56112Y-14960D02*
X55719Y-14566D01*
X59055Y-15809D02*
X59055Y-15714D01*
X59055Y-15714D02*
X58366Y-15025D01*
X58366Y-15025D02*
X58366Y-14960D01*
X55040Y-20005D02*
X55534Y-20005D01*
X56141Y-19939D02*
X55600Y-19939D01*
X55600Y-19939D02*
X55534Y-20005D01*
X54067Y-18503D02*
X54429Y-18503D01*
X59981Y-16327D02*
X59981Y-16506D01*
X59981Y-16327D02*
X60236Y-16327D01*
X59444Y-16160D02*
X59611Y-16327D01*
X59611Y-16327D02*
X59981Y-16327D01*
X54067Y-18503D02*
X54067Y-16916D01*
X54067Y-16916D02*
X53920Y-16769D01*
X53920Y-16769D02*
X53178Y-16769D01*
X53178Y-16769D02*
X52984Y-16575D01*
X52984Y-16575D02*
X52984Y-14989D01*
X52984Y-14989D02*
X53922Y-14051D01*
X53922Y-14051D02*
X54709Y-14051D01*
X54709Y-14051D02*
X55224Y-14566D01*
X51328Y-18535D02*
X54036Y-18535D01*
X54036Y-18535D02*
X54067Y-18503D01*
X55712Y-25811D02*
X55574Y-25950D01*
X55574Y-25950D02*
X55542Y-25950D01*
X55712Y-25689D02*
X55712Y-25811D01*
X55712Y-25811D02*
X56065Y-26164D01*
X56065Y-26164D02*
X56102Y-26164D01*
X60236Y-16035D02*
X60236Y-16327D01*
X67702Y-32444D02*
X68447Y-32444D01*
X68447Y-32444D02*
X68498Y-32394D01*
X59055Y-16160D02*
X59444Y-16160D01*
X56102Y-26514D02*
X56102Y-26164D01*
X55079Y-25950D02*
X55542Y-25950D01*
X56102Y-25689D02*
X55712Y-25689D01*
X66732Y-20254D02*
X66342Y-20254D01*
X65742Y-20258D02*
X66339Y-20258D01*
X66339Y-20258D02*
X66342Y-20254D01*
X56929Y-22225D02*
X56929Y-22575D01*
X56929Y-22575D02*
X56344Y-22575D01*
X56344Y-22575D02*
X56102Y-22817D01*
X57755Y-22225D02*
X56929Y-22225D01*
X56102Y-23168D02*
X56102Y-22817D01*
X50893Y-18535D02*
X51328Y-18535D01*
X55907Y-23168D02*
X55776Y-23037D01*
X55776Y-23037D02*
X55534Y-23037D01*
X55040Y-23037D02*
X55534Y-23037D01*
X53425Y-30060D02*
X53814Y-30060D01*
X54448Y-30060D02*
X54448Y-30235D01*
X50984Y-31969D02*
X50594Y-31969D01*
X50594Y-31969D02*
X50594Y-32049D01*
X50594Y-32049D02*
X50355Y-32288D01*
X50355Y-32288D02*
X49901Y-32288D01*
X50984Y-31907D02*
X50984Y-31969D01*
X50984Y-31907D02*
X50984Y-31618D01*
X67519Y-20254D02*
X66732Y-20254D01*
X49606Y-30571D02*
X49606Y-30319D01*
X50893Y-28712D02*
X50459Y-28712D01*
X50459Y-28712D02*
X50459Y-28766D01*
X50459Y-28766D02*
X50078Y-29147D01*
X50078Y-29147D02*
X49784Y-29147D01*
X49784Y-29147D02*
X49314Y-29616D01*
X49314Y-29616D02*
X49314Y-30028D01*
X49314Y-30028D02*
X49606Y-30319D01*
X61632Y-24606D02*
X61632Y-24995D01*
X53425Y-30060D02*
X52893Y-30060D01*
X52893Y-30060D02*
X51334Y-31618D01*
X51334Y-31618D02*
X50984Y-31618D01*
X56102Y-23168D02*
X55907Y-23168D01*
X49606Y-30571D02*
X49606Y-30823D01*
X49901Y-32783D02*
X49901Y-32288D01*
X49901Y-32288D02*
X49468Y-32288D01*
X49468Y-32288D02*
X49406Y-32227D01*
X49406Y-32227D02*
X49406Y-31023D01*
X49406Y-31023D02*
X49606Y-30823D01*
X59055Y-16160D02*
X59055Y-15809D01*
X59842Y-32470D02*
X59842Y-32480D01*
X59868Y-32444D02*
X59842Y-32470D01*
X63684Y-25783D02*
X63684Y-25816D01*
X65070Y-26582D02*
X64271Y-25783D01*
X65070Y-28908D02*
X65070Y-26582D01*
X63684Y-25816D02*
X63591Y-25909D01*
X64271Y-25783D02*
X63684Y-25783D01*
X63591Y-25909D02*
X63189Y-25909D01*
X63189Y-25909D02*
X60759Y-28338D01*
X57398Y-31576D02*
X56580Y-32394D01*
X57220Y-31502D02*
X57294Y-31576D01*
X57294Y-31576D02*
X57398Y-31576D01*
X57220Y-31398D02*
X57220Y-31502D01*
X57811Y-30807D02*
X57220Y-31398D01*
X57811Y-27751D02*
X57811Y-30807D01*
X57283Y-27751D02*
X57811Y-27751D01*
X54800Y-30235D02*
X57283Y-27751D01*
X54448Y-30235D02*
X54800Y-30235D01*
X63572Y-21900D02*
X63543Y-21929D01*
X63572Y-21900D02*
X64000Y-21900D01*
X64000Y-21900D02*
X64000Y-21300D01*
X64000Y-21300D02*
X64500Y-21300D01*
X64500Y-21300D02*
X64500Y-21900D01*
X64500Y-21900D02*
X64500Y-22500D01*
X64500Y-22500D02*
X64500Y-23100D01*
X64500Y-23100D02*
X64000Y-23100D01*
X64000Y-23100D02*
X64000Y-22500D01*
X64000Y-22500D02*
X63500Y-22500D01*
X63500Y-22500D02*
X63500Y-23100D01*
X63500Y-23100D02*
X62900Y-23100D01*
X62900Y-23100D02*
X62900Y-22500D01*
X62900Y-22500D02*
X62900Y-21900D01*
X62900Y-21900D02*
X62900Y-21300D01*
X62900Y-21300D02*
X63500Y-21300D01*
X63500Y-21300D02*
X63500Y-20800D01*
X63500Y-20800D02*
X62900Y-20800D01*
X62900Y-20800D02*
X62400Y-20800D01*
X62400Y-20800D02*
X62400Y-21300D01*
X62400Y-21300D02*
X62400Y-21900D01*
X62400Y-21900D02*
X62400Y-22500D01*
X62400Y-22500D02*
X62400Y-23100D01*
X63500Y-20800D02*
X64000Y-20800D01*
X64000Y-20800D02*
X64500Y-20800D01*
X56102Y-27264D02*
X55712Y-27264D01*
X55079Y-26850D02*
X55574Y-26850D01*
X55574Y-26850D02*
X55712Y-26989D01*
X55712Y-26989D02*
X55712Y-27264D01*
X56810Y-27264D02*
X56810Y-27283D01*
X56810Y-26496D02*
X56810Y-27264D01*
X56810Y-27264D02*
X56491Y-27264D01*
X56102Y-27264D02*
X56491Y-27264D01*
X56810Y-27283D02*
X56810Y-27754D01*
X56307Y-27980D02*
X56255Y-28031D01*
X56582Y-27980D02*
X56307Y-27980D01*
X56808Y-27754D02*
X56582Y-27980D01*
X56810Y-27754D02*
X56808Y-27754D01*
X54429Y-20275D02*
X55040Y-20886D01*
X53889Y-20275D02*
X53803Y-20362D01*
X55040Y-20905D02*
X55040Y-20886D01*
X55040Y-20886D02*
X55555Y-20886D01*
X56141Y-20689D02*
X55752Y-20689D01*
X55555Y-20886D02*
X55752Y-20689D01*
X56141Y-20689D02*
X56531Y-20689D01*
X56908Y-20688D02*
X56532Y-20688D01*
X56532Y-20688D02*
X56531Y-20689D01*
X54180Y-20275D02*
X53889Y-20275D01*
X54180Y-20275D02*
X54429Y-20275D01*
X61058Y-21498D02*
X61058Y-20592D01*
X61058Y-20592D02*
X61692Y-19958D01*
X61058Y-21498D02*
X59436Y-21498D01*
X59436Y-21498D02*
X59392Y-21542D01*
X65385Y-20205D02*
X62275Y-20205D01*
X62275Y-20205D02*
X62023Y-20456D01*
X62023Y-20456D02*
X62023Y-21171D01*
X62023Y-21171D02*
X61454Y-21740D01*
X61454Y-21740D02*
X61300Y-21740D01*
X61300Y-21740D02*
X61058Y-21498D01*
X57928Y-20688D02*
X58155Y-20916D01*
X58155Y-20916D02*
X58862Y-20916D01*
X57658Y-20688D02*
X57928Y-20688D01*
X66732Y-21004D02*
X67519Y-21004D01*
X65385Y-20205D02*
X66185Y-21004D01*
X66185Y-21004D02*
X66732Y-21004D01*
X59719Y-17035D02*
X59719Y-18210D01*
X59719Y-18210D02*
X59158Y-18771D01*
X59719Y-17035D02*
X59628Y-17035D01*
X59809Y-17035D02*
X59719Y-17035D01*
X59628Y-17035D02*
X59569Y-17035D01*
X59569Y-17035D02*
X59444Y-16910D01*
X59861Y-17035D02*
X59821Y-17035D01*
X59809Y-17035D02*
X59821Y-17035D01*
X57658Y-20688D02*
X57388Y-20688D01*
X55306Y-20393D02*
X55390Y-20308D01*
X55390Y-20308D02*
X57125Y-20308D01*
X57125Y-20308D02*
X57388Y-20572D01*
X57388Y-20572D02*
X57388Y-20688D01*
X59055Y-16910D02*
X59444Y-16910D01*
X57560Y-27283D02*
X60556Y-27283D01*
X60556Y-27283D02*
X62207Y-25631D01*
X62207Y-25631D02*
X62207Y-25492D01*
X62382Y-25492D02*
X62207Y-25492D01*
X62382Y-24196D02*
X62372Y-24196D01*
X62372Y-24196D02*
X62212Y-24036D01*
X62382Y-24216D02*
X62382Y-24196D01*
X62382Y-24196D02*
X63116Y-24196D01*
X63116Y-24196D02*
X63295Y-24017D01*
X62382Y-24606D02*
X62382Y-24216D01*
X62207Y-25492D02*
X62498Y-25783D01*
X62498Y-25783D02*
X63539Y-25783D01*
X63539Y-25783D02*
X63558Y-25764D01*
X63558Y-25764D02*
X63558Y-24169D01*
X63558Y-24169D02*
X63406Y-24017D01*
X63406Y-24017D02*
X63295Y-24017D01*
X61542Y-23469D02*
X61610Y-23401D01*
X61542Y-23513D02*
X58351Y-23513D01*
X64944Y-23513D02*
X61542Y-23513D01*
X61542Y-23513D02*
X61542Y-23469D01*
X65619Y-21651D02*
X65619Y-22838D01*
X65619Y-22838D02*
X64944Y-23513D01*
X58351Y-23513D02*
X57928Y-23937D01*
X57658Y-23937D02*
X57928Y-23937D01*
X59748Y-26105D02*
X59748Y-26212D01*
X59744Y-26101D02*
X59748Y-26105D01*
X65472Y-29841D02*
X65472Y-30192D01*
X66496Y-30708D02*
X66496Y-30456D01*
X66496Y-30456D02*
X66231Y-30192D01*
X66231Y-30192D02*
X65472Y-30192D01*
X65516Y-29343D02*
X65472Y-29388D01*
X65472Y-29388D02*
X65472Y-29841D01*
X51181Y-29877D02*
X51214Y-29877D01*
X51214Y-29877D02*
X51454Y-30118D01*
X51181Y-29877D02*
X51181Y-30012D01*
X51181Y-29743D02*
X51181Y-29877D01*
X50472Y-30196D02*
X50763Y-30196D01*
X50763Y-30196D02*
X50948Y-30012D01*
X50948Y-30012D02*
X51181Y-30012D01*
X56102Y-23918D02*
X56491Y-23918D01*
X56908Y-23937D02*
X56510Y-23937D01*
X56510Y-23937D02*
X56491Y-23918D01*
X56102Y-23918D02*
X55712Y-23918D01*
X55040Y-23937D02*
X55694Y-23937D01*
X55694Y-23937D02*
X55712Y-23918D01*
X57560Y-26496D02*
X57829Y-26496D01*
X57829Y-26496D02*
X60497Y-23828D01*
X60497Y-23828D02*
X63653Y-23828D01*
X63653Y-23828D02*
X63992Y-24167D01*
X63957Y-24606D02*
X63957Y-24216D01*
X63957Y-24216D02*
X63992Y-24181D01*
X63992Y-24181D02*
X63992Y-24167D01*
X63957Y-25130D02*
X63957Y-25393D01*
X63957Y-24606D02*
X63957Y-25130D01*
X50984Y-31219D02*
X50594Y-31219D01*
X49901Y-31783D02*
X50396Y-31783D01*
X50396Y-31783D02*
X50594Y-31585D01*
X50594Y-31585D02*
X50594Y-31219D01*
X50984Y-31219D02*
X50984Y-30868D01*
X51181Y-30493D02*
X51181Y-30762D01*
X51181Y-30762D02*
X51074Y-30868D01*
X51074Y-30868D02*
X50984Y-30868D01*
X61372Y-21567D02*
X61797Y-21142D01*
X61797Y-21142D02*
X61797Y-20495D01*
X61797Y-20495D02*
X63510Y-18782D01*
X63510Y-18782D02*
X65628Y-18782D01*
X61347Y-20927D02*
X61347Y-20548D01*
X61347Y-20548D02*
X61866Y-20029D01*
X61866Y-20029D02*
X61866Y-19875D01*
X61866Y-19875D02*
X65340Y-16400D01*
X61432Y-21206D02*
X61645Y-20993D01*
X61645Y-20993D02*
X61645Y-20428D01*
X61645Y-20428D02*
X64425Y-17649D01*
X64425Y-17649D02*
X64425Y-17568D01*
X61220Y-19815D02*
X61698Y-19337D01*
X61698Y-19337D02*
X61698Y-18909D01*
X61698Y-18909D02*
X64612Y-15995D01*
X64612Y-15995D02*
X64661Y-15995D01*
X63440Y-17440D02*
X63440Y-17624D01*
X63440Y-17624D02*
X61895Y-19168D01*
X59703Y-16572D02*
X59690Y-16559D01*
X59690Y-16559D02*
X57412Y-16559D01*
X57412Y-16559D02*
X57029Y-16942D01*
X57029Y-16942D02*
X56070Y-16942D01*
X60065Y-20963D02*
X60065Y-20604D01*
X60065Y-20604D02*
X61287Y-19382D01*
X60611Y-16743D02*
X60611Y-16537D01*
X60611Y-16537D02*
X60453Y-16378D01*
X60611Y-17035D02*
X60611Y-16743D01*
X60611Y-16035D02*
X60611Y-15743D01*
X60611Y-15743D02*
X60639Y-15743D01*
X60639Y-15743D02*
X60686Y-15696D01*
X60236Y-16743D02*
X60236Y-16540D01*
X60236Y-16540D02*
X60248Y-16528D01*
X60236Y-17035D02*
X60236Y-16743D01*
X59628Y-16035D02*
X59628Y-15997D01*
X59628Y-15997D02*
X59135Y-15505D01*
X59861Y-16035D02*
X59628Y-16035D01*
X59185Y-21735D02*
X60206Y-22756D01*
X60206Y-22756D02*
X61408Y-22756D01*
X53870Y-15022D02*
X55971Y-17123D01*
X55971Y-17123D02*
X58109Y-17123D01*
X58109Y-17123D02*
X58228Y-17242D01*
X58643Y-15547D02*
X58349Y-15841D01*
X58349Y-15841D02*
X54946Y-15841D01*
X53162Y-16501D02*
X54080Y-16501D01*
X54080Y-16501D02*
X55023Y-17443D01*
X55023Y-17443D02*
X57828Y-17443D01*
X57828Y-17443D02*
X57867Y-17483D01*
X57867Y-17483D02*
X58307Y-17483D01*
X58307Y-17483D02*
X58374Y-17416D01*
X53465Y-14784D02*
X53465Y-14888D01*
X53465Y-14888D02*
X55887Y-17309D01*
X55887Y-17309D02*
X57939Y-17309D01*
X57854Y-19511D02*
X57933Y-19590D01*
X57933Y-19590D02*
X60030Y-19590D01*
X60030Y-19590D02*
X60763Y-18856D01*
X54224Y-14566D02*
X54719Y-14566D01*
X54719Y-14566D02*
X54719Y-14999D01*
X54719Y-14999D02*
X55301Y-15582D01*
X55301Y-15582D02*
X57543Y-15582D01*
X57578Y-19881D02*
X57545Y-19848D01*
X57545Y-19848D02*
X57545Y-19435D01*
X57100Y-18110D02*
X56541Y-18110D01*
X56541Y-18110D02*
X56124Y-17693D01*
X57480Y-18110D02*
X57100Y-18110D01*
X57100Y-18110D02*
X57100Y-18356D01*
X49893Y-17535D02*
X50328Y-17535D01*
X50328Y-17535D02*
X50328Y-17589D01*
X50328Y-17589D02*
X50728Y-17989D01*
X50728Y-17989D02*
X53241Y-17989D01*
X53241Y-17989D02*
X53271Y-17959D01*
X55067Y-22662D02*
X55597Y-22662D01*
X55597Y-22662D02*
X56392Y-21866D01*
X56392Y-21866D02*
X58492Y-21866D01*
X58492Y-21866D02*
X64672Y-15687D01*
X64672Y-15687D02*
X66820Y-15687D01*
X53271Y-21933D02*
X53757Y-21447D01*
X53757Y-21447D02*
X56164Y-21447D01*
X56164Y-21447D02*
X56487Y-21124D01*
X56487Y-21124D02*
X59056Y-21124D01*
X59056Y-21124D02*
X64575Y-15605D01*
X64575Y-15605D02*
X64575Y-15530D01*
X55079Y-23445D02*
X55164Y-23530D01*
X55164Y-23530D02*
X57285Y-23530D01*
X57285Y-23530D02*
X58534Y-22282D01*
X58534Y-22282D02*
X58534Y-22122D01*
X58534Y-22122D02*
X59320Y-21335D01*
X59320Y-21335D02*
X59991Y-21335D01*
X59991Y-21335D02*
X64078Y-17248D01*
X64078Y-17248D02*
X64078Y-17139D01*
X63990Y-15725D02*
X63333Y-15725D01*
X63333Y-15725D02*
X59720Y-19337D01*
X59720Y-19337D02*
X58226Y-19337D01*
X58226Y-19337D02*
X58024Y-19135D01*
X58024Y-19135D02*
X57421Y-19135D01*
X57421Y-19135D02*
X57264Y-19293D01*
X57264Y-19293D02*
X55757Y-19293D01*
X55757Y-19293D02*
X55462Y-19587D01*
X63353Y-15523D02*
X59665Y-19211D01*
X59665Y-19211D02*
X58278Y-19211D01*
X58278Y-19211D02*
X58069Y-19002D01*
X58069Y-19002D02*
X57376Y-19002D01*
X57376Y-19002D02*
X57259Y-19119D01*
X57259Y-19119D02*
X56067Y-19119D01*
X63005Y-16930D02*
X62306Y-16930D01*
X62306Y-16930D02*
X59773Y-19464D01*
X59773Y-19464D02*
X58110Y-19464D01*
X58110Y-19464D02*
X57908Y-19261D01*
X57908Y-19261D02*
X57473Y-19261D01*
X57473Y-19261D02*
X57146Y-19589D01*
X57146Y-19589D02*
X57146Y-19589D01*
X57146Y-19589D02*
X55706Y-19589D01*
X55706Y-19589D02*
X55693Y-19601D01*
X56345Y-17635D02*
X59369Y-17635D01*
X59369Y-17635D02*
X59543Y-17461D01*
X62313Y-16145D02*
X62313Y-16287D01*
X62313Y-16287D02*
X59515Y-19085D01*
X59515Y-19085D02*
X58330Y-19085D01*
X58330Y-19085D02*
X58121Y-18876D01*
X58121Y-18876D02*
X57324Y-18876D01*
X57324Y-18876D02*
X57254Y-18946D01*
X57254Y-18946D02*
X55827Y-18946D01*
X55827Y-18946D02*
X55819Y-18954D01*
X61978Y-16372D02*
X59391Y-18959D01*
X59391Y-18959D02*
X58880Y-18959D01*
X58880Y-18959D02*
X58662Y-18741D01*
X58662Y-18741D02*
X56463Y-18741D01*
X55482Y-24492D02*
X56946Y-24492D01*
X58393Y-20480D02*
X59385Y-20480D01*
X59385Y-20480D02*
X60940Y-18924D01*
X60940Y-18924D02*
X60940Y-18722D01*
X60940Y-18722D02*
X60899Y-18680D01*
X50363Y-17113D02*
X50493Y-16982D01*
X50493Y-16982D02*
X53870Y-16982D01*
X65798Y-26282D02*
X64487Y-24970D01*
X64487Y-24970D02*
X64487Y-24183D01*
G54D30*
G36*
X50656Y-30713D02*
X50639Y-30713D01*
X50547Y-30751D01*
X50477Y-30821D01*
X50439Y-30913D01*
X50439Y-30991D01*
X50395Y-31020D01*
X50334Y-31111D01*
X50330Y-31133D01*
X50251Y-31133D01*
X49482Y-31133D01*
X49482Y-30229D01*
X49853Y-30229D01*
X49944Y-30191D01*
X50015Y-30120D01*
X50025Y-30096D01*
X50025Y-30404D01*
X50063Y-30495D01*
X50133Y-30566D01*
X50225Y-30604D01*
X50325Y-30604D01*
X50656Y-30604D01*
X50656Y-30713D01*
X50656Y-30713D01*
G37*
X50656Y-30713D02*
X50639Y-30713D01*
X50547Y-30751D01*
X50477Y-30821D01*
X50439Y-30913D01*
X50439Y-30991D01*
X50395Y-31020D01*
X50334Y-31111D01*
X50330Y-31133D01*
X50251Y-31133D01*
X49482Y-31133D01*
X49482Y-30229D01*
X49853Y-30229D01*
X49944Y-30191D01*
X50015Y-30120D01*
X50025Y-30096D01*
X50025Y-30404D01*
X50063Y-30495D01*
X50133Y-30566D01*
X50225Y-30604D01*
X50325Y-30604D01*
X50656Y-30604D01*
X50656Y-30713D01*
G36*
X55341Y-17162D02*
X55139Y-17162D01*
X54279Y-16302D01*
X54188Y-16241D01*
X54080Y-16219D01*
X53341Y-16219D01*
X53227Y-16172D01*
X53097Y-16172D01*
X52976Y-16222D01*
X52883Y-16314D01*
X52833Y-16435D01*
X52833Y-16566D01*
X52883Y-16687D01*
X52897Y-16700D01*
X51453Y-16700D01*
X51483Y-16546D01*
X51483Y-16523D01*
X51438Y-16298D01*
X51310Y-16106D01*
X51204Y-16035D01*
X51310Y-15964D01*
X51438Y-15772D01*
X51483Y-15546D01*
X51483Y-15523D01*
X51438Y-15298D01*
X51310Y-15106D01*
X51204Y-15035D01*
X51310Y-14964D01*
X51438Y-14772D01*
X51483Y-14546D01*
X51483Y-14523D01*
X51438Y-14298D01*
X51310Y-14106D01*
X51224Y-14049D01*
X53839Y-14049D01*
X53752Y-14107D01*
X53611Y-14318D01*
X53579Y-14476D01*
X53531Y-14456D01*
X53400Y-14455D01*
X53279Y-14505D01*
X53186Y-14598D01*
X53136Y-14719D01*
X53136Y-14849D01*
X53186Y-14970D01*
X53203Y-14988D01*
X53205Y-14995D01*
X53266Y-15087D01*
X55341Y-17162D01*
X55341Y-17162D01*
G37*
X55341Y-17162D02*
X55139Y-17162D01*
X54279Y-16302D01*
X54188Y-16241D01*
X54080Y-16219D01*
X53341Y-16219D01*
X53227Y-16172D01*
X53097Y-16172D01*
X52976Y-16222D01*
X52883Y-16314D01*
X52833Y-16435D01*
X52833Y-16566D01*
X52883Y-16687D01*
X52897Y-16700D01*
X51453Y-16700D01*
X51483Y-16546D01*
X51483Y-16523D01*
X51438Y-16298D01*
X51310Y-16106D01*
X51204Y-16035D01*
X51310Y-15964D01*
X51438Y-15772D01*
X51483Y-15546D01*
X51483Y-15523D01*
X51438Y-15298D01*
X51310Y-15106D01*
X51204Y-15035D01*
X51310Y-14964D01*
X51438Y-14772D01*
X51483Y-14546D01*
X51483Y-14523D01*
X51438Y-14298D01*
X51310Y-14106D01*
X51224Y-14049D01*
X53839Y-14049D01*
X53752Y-14107D01*
X53611Y-14318D01*
X53579Y-14476D01*
X53531Y-14456D01*
X53400Y-14455D01*
X53279Y-14505D01*
X53186Y-14598D01*
X53136Y-14719D01*
X53136Y-14849D01*
X53186Y-14970D01*
X53203Y-14988D01*
X53205Y-14995D01*
X53266Y-15087D01*
X55341Y-17162D01*
G36*
X57043Y-20027D02*
X55390Y-20027D01*
X55283Y-20048D01*
X55259Y-20064D01*
X55241Y-20064D01*
X55120Y-20114D01*
X55027Y-20206D01*
X54977Y-20327D01*
X54977Y-20425D01*
X54628Y-20076D01*
X54536Y-20015D01*
X54429Y-19994D01*
X54180Y-19994D01*
X53889Y-19994D01*
X53782Y-20015D01*
X53755Y-20033D01*
X53738Y-20033D01*
X53617Y-20083D01*
X53524Y-20175D01*
X53474Y-20296D01*
X53474Y-20427D01*
X53524Y-20548D01*
X53616Y-20640D01*
X53737Y-20690D01*
X53868Y-20691D01*
X53989Y-20641D01*
X54073Y-20557D01*
X54180Y-20557D01*
X54312Y-20557D01*
X54396Y-20640D01*
X54390Y-20655D01*
X54390Y-20755D01*
X54390Y-21155D01*
X54394Y-21165D01*
X53757Y-21165D01*
X53649Y-21187D01*
X53558Y-21248D01*
X53199Y-21607D01*
X53090Y-21652D01*
X53090Y-21575D01*
X53090Y-20135D01*
X53052Y-20043D01*
X52981Y-19973D01*
X52889Y-19935D01*
X52790Y-19935D01*
X51990Y-19935D01*
X51898Y-19973D01*
X51828Y-20043D01*
X51790Y-20135D01*
X51790Y-20235D01*
X51790Y-21675D01*
X51828Y-21767D01*
X51898Y-21837D01*
X51990Y-21875D01*
X52089Y-21875D01*
X52889Y-21875D01*
X52949Y-21850D01*
X52942Y-21867D01*
X52942Y-21998D01*
X52992Y-22119D01*
X53084Y-22212D01*
X53205Y-22262D01*
X53336Y-22262D01*
X53457Y-22212D01*
X53549Y-22119D01*
X53597Y-22005D01*
X53874Y-21728D01*
X54279Y-21728D01*
X54264Y-21805D01*
X54264Y-24837D01*
X54264Y-27673D01*
X54249Y-27687D01*
X54188Y-27778D01*
X54167Y-27886D01*
X54167Y-28804D01*
X54104Y-28804D01*
X54012Y-28842D01*
X53941Y-28912D01*
X53940Y-28915D01*
X53933Y-28915D01*
X53932Y-28912D01*
X53861Y-28842D01*
X53769Y-28804D01*
X53670Y-28804D01*
X53129Y-28804D01*
X53129Y-27620D01*
X53129Y-27520D01*
X53129Y-26080D01*
X53091Y-25988D01*
X53090Y-25987D01*
X53090Y-24706D01*
X53090Y-24607D01*
X53090Y-23167D01*
X53052Y-23075D01*
X52981Y-23005D01*
X52889Y-22967D01*
X52790Y-22967D01*
X51990Y-22967D01*
X51898Y-23005D01*
X51828Y-23075D01*
X51790Y-23167D01*
X51790Y-23266D01*
X51790Y-24706D01*
X51828Y-24798D01*
X51898Y-24868D01*
X51990Y-24907D01*
X52089Y-24907D01*
X52889Y-24907D01*
X52981Y-24868D01*
X53052Y-24798D01*
X53090Y-24706D01*
X53090Y-25987D01*
X53021Y-25918D01*
X52929Y-25880D01*
X52829Y-25880D01*
X52029Y-25880D01*
X51937Y-25918D01*
X51867Y-25988D01*
X51829Y-26080D01*
X51829Y-26180D01*
X51829Y-27620D01*
X51867Y-27712D01*
X51937Y-27782D01*
X52029Y-27820D01*
X52129Y-27820D01*
X52929Y-27820D01*
X53021Y-27782D01*
X53091Y-27712D01*
X53129Y-27620D01*
X53129Y-28804D01*
X53080Y-28804D01*
X52988Y-28842D01*
X52918Y-28912D01*
X52880Y-29004D01*
X52880Y-29028D01*
X50386Y-29028D01*
X50438Y-28949D01*
X50483Y-28724D01*
X50483Y-28701D01*
X50438Y-28475D01*
X50310Y-28283D01*
X50204Y-28212D01*
X50310Y-28141D01*
X50393Y-28017D01*
X50476Y-28141D01*
X50667Y-28269D01*
X50893Y-28314D01*
X51119Y-28269D01*
X51310Y-28141D01*
X51438Y-27949D01*
X51483Y-27724D01*
X51483Y-27701D01*
X51438Y-27475D01*
X51310Y-27283D01*
X51204Y-27212D01*
X51310Y-27141D01*
X51438Y-26949D01*
X51483Y-26724D01*
X51483Y-26701D01*
X51438Y-26475D01*
X51310Y-26283D01*
X51204Y-26212D01*
X51310Y-26141D01*
X51438Y-25949D01*
X51483Y-25724D01*
X51483Y-25701D01*
X51438Y-25475D01*
X51310Y-25283D01*
X51204Y-25212D01*
X51310Y-25141D01*
X51438Y-24949D01*
X51483Y-24724D01*
X51483Y-24701D01*
X51438Y-24475D01*
X51310Y-24283D01*
X51204Y-24212D01*
X51310Y-24141D01*
X51438Y-23949D01*
X51483Y-23724D01*
X51483Y-23701D01*
X51438Y-23475D01*
X51310Y-23283D01*
X51204Y-23212D01*
X51310Y-23141D01*
X51438Y-22949D01*
X51483Y-22724D01*
X51483Y-22701D01*
X51438Y-22475D01*
X51310Y-22283D01*
X51204Y-22212D01*
X51310Y-22141D01*
X51438Y-21949D01*
X51483Y-21724D01*
X51483Y-21701D01*
X51438Y-21475D01*
X51310Y-21283D01*
X51204Y-21212D01*
X51310Y-21141D01*
X51438Y-20949D01*
X51483Y-20724D01*
X51483Y-20701D01*
X51438Y-20475D01*
X51310Y-20283D01*
X51204Y-20212D01*
X51310Y-20141D01*
X51438Y-19949D01*
X51483Y-19724D01*
X51483Y-19701D01*
X51438Y-19475D01*
X51310Y-19283D01*
X51119Y-19155D01*
X50893Y-19111D01*
X50667Y-19155D01*
X50476Y-19283D01*
X50393Y-19407D01*
X50310Y-19283D01*
X50119Y-19155D01*
X49958Y-19124D01*
X50119Y-19092D01*
X50310Y-18964D01*
X50438Y-18772D01*
X50483Y-18546D01*
X50483Y-18523D01*
X50438Y-18298D01*
X50310Y-18106D01*
X50204Y-18035D01*
X50307Y-17966D01*
X50529Y-18188D01*
X50529Y-18188D01*
X50620Y-18249D01*
X50728Y-18271D01*
X53164Y-18271D01*
X53205Y-18288D01*
X53336Y-18288D01*
X53457Y-18238D01*
X53549Y-18146D01*
X53600Y-18025D01*
X53600Y-17894D01*
X53550Y-17773D01*
X53457Y-17681D01*
X53337Y-17631D01*
X53206Y-17631D01*
X53085Y-17680D01*
X53058Y-17708D01*
X51451Y-17708D01*
X51483Y-17546D01*
X51483Y-17523D01*
X51438Y-17298D01*
X51415Y-17263D01*
X53691Y-17263D01*
X53804Y-17311D01*
X53935Y-17311D01*
X54056Y-17261D01*
X54148Y-17168D01*
X54199Y-17048D01*
X54199Y-17017D01*
X54824Y-17643D01*
X54915Y-17704D01*
X55023Y-17725D01*
X55796Y-17725D01*
X55796Y-17758D01*
X55846Y-17879D01*
X55938Y-17972D01*
X56052Y-18019D01*
X56342Y-18309D01*
X56433Y-18370D01*
X56541Y-18391D01*
X56771Y-18391D01*
X56771Y-18421D01*
X56787Y-18459D01*
X56642Y-18459D01*
X56528Y-18412D01*
X56398Y-18412D01*
X56277Y-18462D01*
X56184Y-18554D01*
X56138Y-18664D01*
X55979Y-18664D01*
X55885Y-18625D01*
X55754Y-18625D01*
X55633Y-18675D01*
X55540Y-18768D01*
X55490Y-18888D01*
X55490Y-19019D01*
X55532Y-19120D01*
X55390Y-19261D01*
X55277Y-19308D01*
X55184Y-19401D01*
X55134Y-19522D01*
X55134Y-19652D01*
X55184Y-19773D01*
X55276Y-19866D01*
X55397Y-19916D01*
X55528Y-19916D01*
X55561Y-19902D01*
X55628Y-19930D01*
X55759Y-19930D01*
X55879Y-19880D01*
X55889Y-19870D01*
X57028Y-19870D01*
X57028Y-19990D01*
X57043Y-20027D01*
X57043Y-20027D01*
G37*
X57043Y-20027D02*
X55390Y-20027D01*
X55283Y-20048D01*
X55259Y-20064D01*
X55241Y-20064D01*
X55120Y-20114D01*
X55027Y-20206D01*
X54977Y-20327D01*
X54977Y-20425D01*
X54628Y-20076D01*
X54536Y-20015D01*
X54429Y-19994D01*
X54180Y-19994D01*
X53889Y-19994D01*
X53782Y-20015D01*
X53755Y-20033D01*
X53738Y-20033D01*
X53617Y-20083D01*
X53524Y-20175D01*
X53474Y-20296D01*
X53474Y-20427D01*
X53524Y-20548D01*
X53616Y-20640D01*
X53737Y-20690D01*
X53868Y-20691D01*
X53989Y-20641D01*
X54073Y-20557D01*
X54180Y-20557D01*
X54312Y-20557D01*
X54396Y-20640D01*
X54390Y-20655D01*
X54390Y-20755D01*
X54390Y-21155D01*
X54394Y-21165D01*
X53757Y-21165D01*
X53649Y-21187D01*
X53558Y-21248D01*
X53199Y-21607D01*
X53090Y-21652D01*
X53090Y-21575D01*
X53090Y-20135D01*
X53052Y-20043D01*
X52981Y-19973D01*
X52889Y-19935D01*
X52790Y-19935D01*
X51990Y-19935D01*
X51898Y-19973D01*
X51828Y-20043D01*
X51790Y-20135D01*
X51790Y-20235D01*
X51790Y-21675D01*
X51828Y-21767D01*
X51898Y-21837D01*
X51990Y-21875D01*
X52089Y-21875D01*
X52889Y-21875D01*
X52949Y-21850D01*
X52942Y-21867D01*
X52942Y-21998D01*
X52992Y-22119D01*
X53084Y-22212D01*
X53205Y-22262D01*
X53336Y-22262D01*
X53457Y-22212D01*
X53549Y-22119D01*
X53597Y-22005D01*
X53874Y-21728D01*
X54279Y-21728D01*
X54264Y-21805D01*
X54264Y-24837D01*
X54264Y-27673D01*
X54249Y-27687D01*
X54188Y-27778D01*
X54167Y-27886D01*
X54167Y-28804D01*
X54104Y-28804D01*
X54012Y-28842D01*
X53941Y-28912D01*
X53940Y-28915D01*
X53933Y-28915D01*
X53932Y-28912D01*
X53861Y-28842D01*
X53769Y-28804D01*
X53670Y-28804D01*
X53129Y-28804D01*
X53129Y-27620D01*
X53129Y-27520D01*
X53129Y-26080D01*
X53091Y-25988D01*
X53090Y-25987D01*
X53090Y-24706D01*
X53090Y-24607D01*
X53090Y-23167D01*
X53052Y-23075D01*
X52981Y-23005D01*
X52889Y-22967D01*
X52790Y-22967D01*
X51990Y-22967D01*
X51898Y-23005D01*
X51828Y-23075D01*
X51790Y-23167D01*
X51790Y-23266D01*
X51790Y-24706D01*
X51828Y-24798D01*
X51898Y-24868D01*
X51990Y-24907D01*
X52089Y-24907D01*
X52889Y-24907D01*
X52981Y-24868D01*
X53052Y-24798D01*
X53090Y-24706D01*
X53090Y-25987D01*
X53021Y-25918D01*
X52929Y-25880D01*
X52829Y-25880D01*
X52029Y-25880D01*
X51937Y-25918D01*
X51867Y-25988D01*
X51829Y-26080D01*
X51829Y-26180D01*
X51829Y-27620D01*
X51867Y-27712D01*
X51937Y-27782D01*
X52029Y-27820D01*
X52129Y-27820D01*
X52929Y-27820D01*
X53021Y-27782D01*
X53091Y-27712D01*
X53129Y-27620D01*
X53129Y-28804D01*
X53080Y-28804D01*
X52988Y-28842D01*
X52918Y-28912D01*
X52880Y-29004D01*
X52880Y-29028D01*
X50386Y-29028D01*
X50438Y-28949D01*
X50483Y-28724D01*
X50483Y-28701D01*
X50438Y-28475D01*
X50310Y-28283D01*
X50204Y-28212D01*
X50310Y-28141D01*
X50393Y-28017D01*
X50476Y-28141D01*
X50667Y-28269D01*
X50893Y-28314D01*
X51119Y-28269D01*
X51310Y-28141D01*
X51438Y-27949D01*
X51483Y-27724D01*
X51483Y-27701D01*
X51438Y-27475D01*
X51310Y-27283D01*
X51204Y-27212D01*
X51310Y-27141D01*
X51438Y-26949D01*
X51483Y-26724D01*
X51483Y-26701D01*
X51438Y-26475D01*
X51310Y-26283D01*
X51204Y-26212D01*
X51310Y-26141D01*
X51438Y-25949D01*
X51483Y-25724D01*
X51483Y-25701D01*
X51438Y-25475D01*
X51310Y-25283D01*
X51204Y-25212D01*
X51310Y-25141D01*
X51438Y-24949D01*
X51483Y-24724D01*
X51483Y-24701D01*
X51438Y-24475D01*
X51310Y-24283D01*
X51204Y-24212D01*
X51310Y-24141D01*
X51438Y-23949D01*
X51483Y-23724D01*
X51483Y-23701D01*
X51438Y-23475D01*
X51310Y-23283D01*
X51204Y-23212D01*
X51310Y-23141D01*
X51438Y-22949D01*
X51483Y-22724D01*
X51483Y-22701D01*
X51438Y-22475D01*
X51310Y-22283D01*
X51204Y-22212D01*
X51310Y-22141D01*
X51438Y-21949D01*
X51483Y-21724D01*
X51483Y-21701D01*
X51438Y-21475D01*
X51310Y-21283D01*
X51204Y-21212D01*
X51310Y-21141D01*
X51438Y-20949D01*
X51483Y-20724D01*
X51483Y-20701D01*
X51438Y-20475D01*
X51310Y-20283D01*
X51204Y-20212D01*
X51310Y-20141D01*
X51438Y-19949D01*
X51483Y-19724D01*
X51483Y-19701D01*
X51438Y-19475D01*
X51310Y-19283D01*
X51119Y-19155D01*
X50893Y-19111D01*
X50667Y-19155D01*
X50476Y-19283D01*
X50393Y-19407D01*
X50310Y-19283D01*
X50119Y-19155D01*
X49958Y-19124D01*
X50119Y-19092D01*
X50310Y-18964D01*
X50438Y-18772D01*
X50483Y-18546D01*
X50483Y-18523D01*
X50438Y-18298D01*
X50310Y-18106D01*
X50204Y-18035D01*
X50307Y-17966D01*
X50529Y-18188D01*
X50529Y-18188D01*
X50620Y-18249D01*
X50728Y-18271D01*
X53164Y-18271D01*
X53205Y-18288D01*
X53336Y-18288D01*
X53457Y-18238D01*
X53549Y-18146D01*
X53600Y-18025D01*
X53600Y-17894D01*
X53550Y-17773D01*
X53457Y-17681D01*
X53337Y-17631D01*
X53206Y-17631D01*
X53085Y-17680D01*
X53058Y-17708D01*
X51451Y-17708D01*
X51483Y-17546D01*
X51483Y-17523D01*
X51438Y-17298D01*
X51415Y-17263D01*
X53691Y-17263D01*
X53804Y-17311D01*
X53935Y-17311D01*
X54056Y-17261D01*
X54148Y-17168D01*
X54199Y-17048D01*
X54199Y-17017D01*
X54824Y-17643D01*
X54915Y-17704D01*
X55023Y-17725D01*
X55796Y-17725D01*
X55796Y-17758D01*
X55846Y-17879D01*
X55938Y-17972D01*
X56052Y-18019D01*
X56342Y-18309D01*
X56433Y-18370D01*
X56541Y-18391D01*
X56771Y-18391D01*
X56771Y-18421D01*
X56787Y-18459D01*
X56642Y-18459D01*
X56528Y-18412D01*
X56398Y-18412D01*
X56277Y-18462D01*
X56184Y-18554D01*
X56138Y-18664D01*
X55979Y-18664D01*
X55885Y-18625D01*
X55754Y-18625D01*
X55633Y-18675D01*
X55540Y-18768D01*
X55490Y-18888D01*
X55490Y-19019D01*
X55532Y-19120D01*
X55390Y-19261D01*
X55277Y-19308D01*
X55184Y-19401D01*
X55134Y-19522D01*
X55134Y-19652D01*
X55184Y-19773D01*
X55276Y-19866D01*
X55397Y-19916D01*
X55528Y-19916D01*
X55561Y-19902D01*
X55628Y-19930D01*
X55759Y-19930D01*
X55879Y-19880D01*
X55889Y-19870D01*
X57028Y-19870D01*
X57028Y-19990D01*
X57043Y-20027D01*
G36*
X57944Y-25983D02*
X57897Y-26030D01*
X57876Y-26009D01*
X57784Y-25971D01*
X57685Y-25971D01*
X57335Y-25971D01*
X57243Y-26009D01*
X57185Y-26067D01*
X57126Y-26009D01*
X57034Y-25971D01*
X56935Y-25971D01*
X56585Y-25971D01*
X56493Y-26009D01*
X56423Y-26079D01*
X56385Y-26171D01*
X56385Y-26270D01*
X56385Y-26758D01*
X56347Y-26758D01*
X55880Y-26758D01*
X55773Y-26651D01*
X55729Y-26622D01*
X55729Y-26600D01*
X55691Y-26508D01*
X55621Y-26438D01*
X55529Y-26400D01*
X55429Y-26400D01*
X54827Y-26400D01*
X54827Y-25287D01*
X55489Y-25287D01*
X55562Y-25257D01*
X55595Y-25337D01*
X55665Y-25407D01*
X55757Y-25445D01*
X55857Y-25445D01*
X56447Y-25445D01*
X56538Y-25407D01*
X56545Y-25401D01*
X56551Y-25407D01*
X56643Y-25445D01*
X56742Y-25445D01*
X57332Y-25445D01*
X57424Y-25407D01*
X57442Y-25390D01*
X57442Y-25541D01*
X57525Y-25744D01*
X57680Y-25899D01*
X57882Y-25982D01*
X57944Y-25983D01*
X57944Y-25983D01*
G37*
X57944Y-25983D02*
X57897Y-26030D01*
X57876Y-26009D01*
X57784Y-25971D01*
X57685Y-25971D01*
X57335Y-25971D01*
X57243Y-26009D01*
X57185Y-26067D01*
X57126Y-26009D01*
X57034Y-25971D01*
X56935Y-25971D01*
X56585Y-25971D01*
X56493Y-26009D01*
X56423Y-26079D01*
X56385Y-26171D01*
X56385Y-26270D01*
X56385Y-26758D01*
X56347Y-26758D01*
X55880Y-26758D01*
X55773Y-26651D01*
X55729Y-26622D01*
X55729Y-26600D01*
X55691Y-26508D01*
X55621Y-26438D01*
X55529Y-26400D01*
X55429Y-26400D01*
X54827Y-26400D01*
X54827Y-25287D01*
X55489Y-25287D01*
X55562Y-25257D01*
X55595Y-25337D01*
X55665Y-25407D01*
X55757Y-25445D01*
X55857Y-25445D01*
X56447Y-25445D01*
X56538Y-25407D01*
X56545Y-25401D01*
X56551Y-25407D01*
X56643Y-25445D01*
X56742Y-25445D01*
X57332Y-25445D01*
X57424Y-25407D01*
X57442Y-25390D01*
X57442Y-25541D01*
X57525Y-25744D01*
X57680Y-25899D01*
X57882Y-25982D01*
X57944Y-25983D01*
G36*
X58252Y-22165D02*
X57169Y-23249D01*
X55347Y-23249D01*
X55265Y-23167D01*
X55145Y-23117D01*
X55014Y-23117D01*
X54893Y-23167D01*
X54827Y-23233D01*
X54827Y-22886D01*
X54881Y-22940D01*
X55001Y-22990D01*
X55132Y-22990D01*
X55247Y-22943D01*
X55597Y-22943D01*
X55704Y-22922D01*
X55796Y-22861D01*
X56508Y-22148D01*
X58252Y-22148D01*
X58252Y-22165D01*
X58252Y-22165D01*
G37*
X58252Y-22165D02*
X57169Y-23249D01*
X55347Y-23249D01*
X55265Y-23167D01*
X55145Y-23117D01*
X55014Y-23117D01*
X54893Y-23167D01*
X54827Y-23233D01*
X54827Y-22886D01*
X54881Y-22940D01*
X55001Y-22990D01*
X55132Y-22990D01*
X55247Y-22943D01*
X55597Y-22943D01*
X55704Y-22922D01*
X55796Y-22861D01*
X56508Y-22148D01*
X58252Y-22148D01*
X58252Y-22165D01*
G36*
X59473Y-16278D02*
X57412Y-16278D01*
X57355Y-16289D01*
X57327Y-16221D01*
X57228Y-16122D01*
X58349Y-16122D01*
X58457Y-16101D01*
X58548Y-16040D01*
X58715Y-15873D01*
X58829Y-15826D01*
X58910Y-15744D01*
X58949Y-15783D01*
X59063Y-15831D01*
X59366Y-16134D01*
X59368Y-16143D01*
X59429Y-16234D01*
X59473Y-16263D01*
X59473Y-16278D01*
X59473Y-16278D01*
G37*
X59473Y-16278D02*
X57412Y-16278D01*
X57355Y-16289D01*
X57327Y-16221D01*
X57228Y-16122D01*
X58349Y-16122D01*
X58457Y-16101D01*
X58548Y-16040D01*
X58715Y-15873D01*
X58829Y-15826D01*
X58910Y-15744D01*
X58949Y-15783D01*
X59063Y-15831D01*
X59366Y-16134D01*
X59368Y-16143D01*
X59429Y-16234D01*
X59473Y-16263D01*
X59473Y-16278D01*
G36*
X61921Y-25049D02*
X61914Y-25055D01*
X61876Y-25147D01*
X61876Y-25246D01*
X61876Y-25564D01*
X60439Y-27001D01*
X60289Y-27001D01*
X60289Y-26407D01*
X60289Y-26307D01*
X60289Y-25795D01*
X60251Y-25703D01*
X60180Y-25633D01*
X60088Y-25595D01*
X59989Y-25595D01*
X59399Y-25595D01*
X59307Y-25633D01*
X59237Y-25703D01*
X59199Y-25795D01*
X59199Y-25895D01*
X59199Y-26407D01*
X59237Y-26498D01*
X59307Y-26569D01*
X59399Y-26607D01*
X59498Y-26607D01*
X60088Y-26607D01*
X60180Y-26569D01*
X60251Y-26498D01*
X60289Y-26407D01*
X60289Y-27001D01*
X57985Y-27001D01*
X57985Y-26958D01*
X57956Y-26889D01*
X57985Y-26820D01*
X57985Y-26724D01*
X58028Y-26695D01*
X60613Y-24109D01*
X61887Y-24109D01*
X61913Y-24173D01*
X61876Y-24261D01*
X61876Y-24361D01*
X61876Y-24951D01*
X61914Y-25042D01*
X61921Y-25049D01*
X61921Y-25049D01*
G37*
X61921Y-25049D02*
X61914Y-25055D01*
X61876Y-25147D01*
X61876Y-25246D01*
X61876Y-25564D01*
X60439Y-27001D01*
X60289Y-27001D01*
X60289Y-26407D01*
X60289Y-26307D01*
X60289Y-25795D01*
X60251Y-25703D01*
X60180Y-25633D01*
X60088Y-25595D01*
X59989Y-25595D01*
X59399Y-25595D01*
X59307Y-25633D01*
X59237Y-25703D01*
X59199Y-25795D01*
X59199Y-25895D01*
X59199Y-26407D01*
X59237Y-26498D01*
X59307Y-26569D01*
X59399Y-26607D01*
X59498Y-26607D01*
X60088Y-26607D01*
X60180Y-26569D01*
X60251Y-26498D01*
X60289Y-26407D01*
X60289Y-27001D01*
X57985Y-27001D01*
X57985Y-26958D01*
X57956Y-26889D01*
X57985Y-26820D01*
X57985Y-26724D01*
X58028Y-26695D01*
X60613Y-24109D01*
X61887Y-24109D01*
X61913Y-24173D01*
X61876Y-24261D01*
X61876Y-24361D01*
X61876Y-24951D01*
X61914Y-25042D01*
X61921Y-25049D01*
G36*
X63276Y-25501D02*
X62888Y-25501D01*
X62888Y-25147D01*
X62850Y-25055D01*
X62844Y-25049D01*
X62850Y-25042D01*
X62888Y-24951D01*
X62888Y-24851D01*
X62888Y-24477D01*
X63116Y-24477D01*
X63224Y-24456D01*
X63276Y-24421D01*
X63276Y-25501D01*
X63276Y-25501D01*
G37*
X63276Y-25501D02*
X62888Y-25501D01*
X62888Y-25147D01*
X62850Y-25055D01*
X62844Y-25049D01*
X62850Y-25042D01*
X62888Y-24951D01*
X62888Y-24851D01*
X62888Y-24477D01*
X63116Y-24477D01*
X63224Y-24456D01*
X63276Y-24421D01*
X63276Y-25501D01*
G36*
X63364Y-26064D02*
X61250Y-28179D01*
X61250Y-33194D01*
X56450Y-33194D01*
X56450Y-31309D01*
X57772Y-27850D01*
X57378Y-27850D01*
X54650Y-30679D01*
X54650Y-32321D01*
X54596Y-32299D01*
X54497Y-32299D01*
X54344Y-32299D01*
X54344Y-31791D01*
X54311Y-31624D01*
X54216Y-31482D01*
X54074Y-31387D01*
X53907Y-31354D01*
X53769Y-31354D01*
X53602Y-31387D01*
X53460Y-31482D01*
X53366Y-31624D01*
X53332Y-31791D01*
X53366Y-31958D01*
X53460Y-32100D01*
X53602Y-32195D01*
X53769Y-32228D01*
X53907Y-32228D01*
X54074Y-32195D01*
X54216Y-32100D01*
X54311Y-31958D01*
X54344Y-31791D01*
X54344Y-32299D01*
X53710Y-32299D01*
X53618Y-32337D01*
X53547Y-32407D01*
X53509Y-32499D01*
X53509Y-32598D01*
X53509Y-33194D01*
X52198Y-33194D01*
X52198Y-33109D01*
X52198Y-32499D01*
X52160Y-32407D01*
X52090Y-32337D01*
X51998Y-32299D01*
X51899Y-32299D01*
X51111Y-32299D01*
X51019Y-32337D01*
X50949Y-32407D01*
X50911Y-32499D01*
X50911Y-32598D01*
X50911Y-33194D01*
X49482Y-33194D01*
X49482Y-32433D01*
X49551Y-32433D01*
X50351Y-32433D01*
X50443Y-32395D01*
X50513Y-32325D01*
X50551Y-32233D01*
X50551Y-32133D01*
X50551Y-32011D01*
X50595Y-31982D01*
X50793Y-31784D01*
X50832Y-31725D01*
X51328Y-31725D01*
X51381Y-31703D01*
X51364Y-31791D01*
X51397Y-31958D01*
X51492Y-32100D01*
X51634Y-32195D01*
X51801Y-32228D01*
X51938Y-32228D01*
X52106Y-32195D01*
X52247Y-32100D01*
X52342Y-31958D01*
X52375Y-31791D01*
X52342Y-31624D01*
X52247Y-31482D01*
X52106Y-31387D01*
X51938Y-31354D01*
X51801Y-31354D01*
X51634Y-31387D01*
X51529Y-31457D01*
X51529Y-31425D01*
X51529Y-30913D01*
X51527Y-30909D01*
X51597Y-30880D01*
X51668Y-30809D01*
X51706Y-30717D01*
X51706Y-30618D01*
X51706Y-30331D01*
X51733Y-30304D01*
X51783Y-30183D01*
X51783Y-30053D01*
X51733Y-29932D01*
X51706Y-29904D01*
X51706Y-29868D01*
X51706Y-29591D01*
X52880Y-29591D01*
X52880Y-29615D01*
X52918Y-29707D01*
X52988Y-29777D01*
X53080Y-29816D01*
X53179Y-29816D01*
X53769Y-29816D01*
X53861Y-29777D01*
X53932Y-29707D01*
X53937Y-29695D01*
X53941Y-29707D01*
X54012Y-29777D01*
X54104Y-29816D01*
X54203Y-29816D01*
X54793Y-29816D01*
X54885Y-29777D01*
X54955Y-29707D01*
X54993Y-29615D01*
X54993Y-29516D01*
X54993Y-29004D01*
X54955Y-28912D01*
X54885Y-28842D01*
X54793Y-28804D01*
X54730Y-28804D01*
X54730Y-28200D01*
X55529Y-28200D01*
X55621Y-28162D01*
X55691Y-28092D01*
X55705Y-28057D01*
X55705Y-28140D01*
X55789Y-28342D01*
X55943Y-28497D01*
X56146Y-28581D01*
X56364Y-28581D01*
X56567Y-28498D01*
X56721Y-28343D01*
X56795Y-28165D01*
X57003Y-27957D01*
X57009Y-27953D01*
X57070Y-27862D01*
X57085Y-27787D01*
X57126Y-27770D01*
X57185Y-27712D01*
X57243Y-27770D01*
X57335Y-27808D01*
X57434Y-27808D01*
X57784Y-27808D01*
X57876Y-27770D01*
X57946Y-27700D01*
X57985Y-27608D01*
X57985Y-27564D01*
X60556Y-27564D01*
X60663Y-27543D01*
X60755Y-27482D01*
X62200Y-26037D01*
X62381Y-26037D01*
X62381Y-26037D01*
X62390Y-26043D01*
X62390Y-26043D01*
X62498Y-26064D01*
X63364Y-26064D01*
X63364Y-26064D01*
G37*
X63364Y-26064D02*
X61250Y-28179D01*
X61250Y-33194D01*
X56450Y-33194D01*
X56450Y-31309D01*
X57772Y-27850D01*
X57378Y-27850D01*
X54650Y-30679D01*
X54650Y-32321D01*
X54596Y-32299D01*
X54497Y-32299D01*
X54344Y-32299D01*
X54344Y-31791D01*
X54311Y-31624D01*
X54216Y-31482D01*
X54074Y-31387D01*
X53907Y-31354D01*
X53769Y-31354D01*
X53602Y-31387D01*
X53460Y-31482D01*
X53366Y-31624D01*
X53332Y-31791D01*
X53366Y-31958D01*
X53460Y-32100D01*
X53602Y-32195D01*
X53769Y-32228D01*
X53907Y-32228D01*
X54074Y-32195D01*
X54216Y-32100D01*
X54311Y-31958D01*
X54344Y-31791D01*
X54344Y-32299D01*
X53710Y-32299D01*
X53618Y-32337D01*
X53547Y-32407D01*
X53509Y-32499D01*
X53509Y-32598D01*
X53509Y-33194D01*
X52198Y-33194D01*
X52198Y-33109D01*
X52198Y-32499D01*
X52160Y-32407D01*
X52090Y-32337D01*
X51998Y-32299D01*
X51899Y-32299D01*
X51111Y-32299D01*
X51019Y-32337D01*
X50949Y-32407D01*
X50911Y-32499D01*
X50911Y-32598D01*
X50911Y-33194D01*
X49482Y-33194D01*
X49482Y-32433D01*
X49551Y-32433D01*
X50351Y-32433D01*
X50443Y-32395D01*
X50513Y-32325D01*
X50551Y-32233D01*
X50551Y-32133D01*
X50551Y-32011D01*
X50595Y-31982D01*
X50793Y-31784D01*
X50832Y-31725D01*
X51328Y-31725D01*
X51381Y-31703D01*
X51364Y-31791D01*
X51397Y-31958D01*
X51492Y-32100D01*
X51634Y-32195D01*
X51801Y-32228D01*
X51938Y-32228D01*
X52106Y-32195D01*
X52247Y-32100D01*
X52342Y-31958D01*
X52375Y-31791D01*
X52342Y-31624D01*
X52247Y-31482D01*
X52106Y-31387D01*
X51938Y-31354D01*
X51801Y-31354D01*
X51634Y-31387D01*
X51529Y-31457D01*
X51529Y-31425D01*
X51529Y-30913D01*
X51527Y-30909D01*
X51597Y-30880D01*
X51668Y-30809D01*
X51706Y-30717D01*
X51706Y-30618D01*
X51706Y-30331D01*
X51733Y-30304D01*
X51783Y-30183D01*
X51783Y-30053D01*
X51733Y-29932D01*
X51706Y-29904D01*
X51706Y-29868D01*
X51706Y-29591D01*
X52880Y-29591D01*
X52880Y-29615D01*
X52918Y-29707D01*
X52988Y-29777D01*
X53080Y-29816D01*
X53179Y-29816D01*
X53769Y-29816D01*
X53861Y-29777D01*
X53932Y-29707D01*
X53937Y-29695D01*
X53941Y-29707D01*
X54012Y-29777D01*
X54104Y-29816D01*
X54203Y-29816D01*
X54793Y-29816D01*
X54885Y-29777D01*
X54955Y-29707D01*
X54993Y-29615D01*
X54993Y-29516D01*
X54993Y-29004D01*
X54955Y-28912D01*
X54885Y-28842D01*
X54793Y-28804D01*
X54730Y-28804D01*
X54730Y-28200D01*
X55529Y-28200D01*
X55621Y-28162D01*
X55691Y-28092D01*
X55705Y-28057D01*
X55705Y-28140D01*
X55789Y-28342D01*
X55943Y-28497D01*
X56146Y-28581D01*
X56364Y-28581D01*
X56567Y-28498D01*
X56721Y-28343D01*
X56795Y-28165D01*
X57003Y-27957D01*
X57009Y-27953D01*
X57070Y-27862D01*
X57085Y-27787D01*
X57126Y-27770D01*
X57185Y-27712D01*
X57243Y-27770D01*
X57335Y-27808D01*
X57434Y-27808D01*
X57784Y-27808D01*
X57876Y-27770D01*
X57946Y-27700D01*
X57985Y-27608D01*
X57985Y-27564D01*
X60556Y-27564D01*
X60663Y-27543D01*
X60755Y-27482D01*
X62200Y-26037D01*
X62381Y-26037D01*
X62381Y-26037D01*
X62390Y-26043D01*
X62390Y-26043D01*
X62498Y-26064D01*
X63364Y-26064D01*
G36*
X67440Y-21510D02*
X65534Y-23417D01*
X65438Y-23417D01*
X65818Y-23037D01*
X65818Y-23037D01*
X65854Y-22982D01*
X65879Y-22945D01*
X65879Y-22945D01*
X65900Y-22838D01*
X65900Y-21830D01*
X65947Y-21717D01*
X65948Y-21586D01*
X65898Y-21465D01*
X65805Y-21372D01*
X65684Y-21322D01*
X65554Y-21322D01*
X65433Y-21372D01*
X65340Y-21464D01*
X65290Y-21585D01*
X65290Y-21716D01*
X65337Y-21830D01*
X65337Y-22721D01*
X64827Y-23231D01*
X61828Y-23231D01*
X61809Y-23202D01*
X61717Y-23141D01*
X61610Y-23120D01*
X61502Y-23141D01*
X61411Y-23202D01*
X61381Y-23231D01*
X58351Y-23231D01*
X58244Y-23253D01*
X58152Y-23314D01*
X57995Y-23470D01*
X57975Y-23450D01*
X57883Y-23412D01*
X57802Y-23412D01*
X58733Y-22481D01*
X58733Y-22481D01*
X58769Y-22426D01*
X58794Y-22389D01*
X58794Y-22389D01*
X58815Y-22282D01*
X58815Y-22238D01*
X59028Y-22026D01*
X59113Y-22061D01*
X60007Y-22955D01*
X60098Y-23016D01*
X60206Y-23037D01*
X61228Y-23037D01*
X61342Y-23084D01*
X61473Y-23084D01*
X61594Y-23035D01*
X61686Y-22942D01*
X61736Y-22821D01*
X61736Y-22691D01*
X61686Y-22570D01*
X61594Y-22477D01*
X61473Y-22427D01*
X61342Y-22427D01*
X61228Y-22474D01*
X60322Y-22474D01*
X59628Y-21780D01*
X60941Y-21780D01*
X61101Y-21939D01*
X61101Y-21939D01*
X61192Y-22000D01*
X61300Y-22022D01*
X61454Y-22022D01*
X61562Y-22000D01*
X61653Y-21939D01*
X62222Y-21370D01*
X62222Y-21370D01*
X62283Y-21279D01*
X62305Y-21171D01*
X62305Y-21171D01*
X62305Y-20573D01*
X62391Y-20486D01*
X65206Y-20486D01*
X65313Y-20531D01*
X65986Y-21203D01*
X66077Y-21264D01*
X66077Y-21264D01*
X66185Y-21286D01*
X66187Y-21286D01*
X66187Y-21310D01*
X66225Y-21402D01*
X66295Y-21472D01*
X66387Y-21510D01*
X66487Y-21510D01*
X67077Y-21510D01*
X67125Y-21490D01*
X67174Y-21510D01*
X67274Y-21510D01*
X67440Y-21510D01*
X67440Y-21510D01*
G37*
X67440Y-21510D02*
X65534Y-23417D01*
X65438Y-23417D01*
X65818Y-23037D01*
X65818Y-23037D01*
X65854Y-22982D01*
X65879Y-22945D01*
X65879Y-22945D01*
X65900Y-22838D01*
X65900Y-21830D01*
X65947Y-21717D01*
X65948Y-21586D01*
X65898Y-21465D01*
X65805Y-21372D01*
X65684Y-21322D01*
X65554Y-21322D01*
X65433Y-21372D01*
X65340Y-21464D01*
X65290Y-21585D01*
X65290Y-21716D01*
X65337Y-21830D01*
X65337Y-22721D01*
X64827Y-23231D01*
X61828Y-23231D01*
X61809Y-23202D01*
X61717Y-23141D01*
X61610Y-23120D01*
X61502Y-23141D01*
X61411Y-23202D01*
X61381Y-23231D01*
X58351Y-23231D01*
X58244Y-23253D01*
X58152Y-23314D01*
X57995Y-23470D01*
X57975Y-23450D01*
X57883Y-23412D01*
X57802Y-23412D01*
X58733Y-22481D01*
X58733Y-22481D01*
X58769Y-22426D01*
X58794Y-22389D01*
X58794Y-22389D01*
X58815Y-22282D01*
X58815Y-22238D01*
X59028Y-22026D01*
X59113Y-22061D01*
X60007Y-22955D01*
X60098Y-23016D01*
X60206Y-23037D01*
X61228Y-23037D01*
X61342Y-23084D01*
X61473Y-23084D01*
X61594Y-23035D01*
X61686Y-22942D01*
X61736Y-22821D01*
X61736Y-22691D01*
X61686Y-22570D01*
X61594Y-22477D01*
X61473Y-22427D01*
X61342Y-22427D01*
X61228Y-22474D01*
X60322Y-22474D01*
X59628Y-21780D01*
X60941Y-21780D01*
X61101Y-21939D01*
X61101Y-21939D01*
X61192Y-22000D01*
X61300Y-22022D01*
X61454Y-22022D01*
X61562Y-22000D01*
X61653Y-21939D01*
X62222Y-21370D01*
X62222Y-21370D01*
X62283Y-21279D01*
X62305Y-21171D01*
X62305Y-21171D01*
X62305Y-20573D01*
X62391Y-20486D01*
X65206Y-20486D01*
X65313Y-20531D01*
X65986Y-21203D01*
X66077Y-21264D01*
X66077Y-21264D01*
X66185Y-21286D01*
X66187Y-21286D01*
X66187Y-21310D01*
X66225Y-21402D01*
X66295Y-21472D01*
X66387Y-21510D01*
X66487Y-21510D01*
X67077Y-21510D01*
X67125Y-21490D01*
X67174Y-21510D01*
X67274Y-21510D01*
X67440Y-21510D01*
G36*
X68627Y-17850D02*
X68108Y-17850D01*
X68108Y-16425D01*
X68024Y-16221D01*
X67868Y-16065D01*
X67664Y-15980D01*
X67443Y-15980D01*
X67239Y-16064D01*
X67082Y-16220D01*
X66998Y-16424D01*
X66997Y-16645D01*
X67082Y-16849D01*
X67238Y-17005D01*
X67442Y-17090D01*
X67663Y-17090D01*
X67867Y-17006D01*
X68023Y-16850D01*
X68108Y-16646D01*
X68108Y-16425D01*
X68108Y-17850D01*
X68079Y-17850D01*
X67389Y-18540D01*
X67358Y-18465D01*
X67266Y-18373D01*
X67145Y-18323D01*
X67014Y-18323D01*
X66893Y-18372D01*
X66801Y-18465D01*
X66751Y-18586D01*
X66750Y-18716D01*
X66800Y-18837D01*
X66893Y-18930D01*
X67007Y-18977D01*
X67627Y-19598D01*
X67627Y-20498D01*
X67174Y-20498D01*
X67125Y-20519D01*
X67077Y-20498D01*
X66977Y-20498D01*
X66387Y-20498D01*
X66295Y-20536D01*
X66225Y-20607D01*
X66213Y-20635D01*
X65711Y-20132D01*
X65664Y-20019D01*
X65571Y-19926D01*
X65451Y-19876D01*
X65320Y-19876D01*
X65205Y-19923D01*
X62767Y-19923D01*
X63627Y-19063D01*
X65449Y-19063D01*
X65563Y-19111D01*
X65694Y-19111D01*
X65814Y-19061D01*
X65907Y-18968D01*
X65957Y-18848D01*
X65957Y-18717D01*
X65907Y-18596D01*
X65815Y-18503D01*
X65694Y-18453D01*
X65563Y-18453D01*
X65449Y-18500D01*
X63971Y-18500D01*
X64624Y-17848D01*
X64652Y-17805D01*
X64652Y-17805D01*
X64703Y-17754D01*
X64753Y-17633D01*
X64754Y-17503D01*
X64719Y-17419D01*
X65413Y-16726D01*
X65526Y-16679D01*
X65619Y-16586D01*
X65669Y-16466D01*
X65669Y-16335D01*
X65619Y-16214D01*
X65527Y-16121D01*
X65406Y-16071D01*
X65275Y-16071D01*
X65154Y-16121D01*
X65062Y-16213D01*
X65014Y-16328D01*
X64366Y-16976D01*
X64357Y-16953D01*
X64264Y-16860D01*
X64180Y-16825D01*
X64681Y-16324D01*
X64726Y-16324D01*
X64846Y-16274D01*
X64939Y-16182D01*
X64989Y-16061D01*
X64989Y-15968D01*
X66640Y-15968D01*
X66754Y-16016D01*
X66885Y-16016D01*
X67006Y-15966D01*
X67098Y-15873D01*
X67148Y-15753D01*
X67149Y-15622D01*
X67099Y-15501D01*
X67006Y-15408D01*
X66885Y-15358D01*
X66755Y-15358D01*
X66640Y-15405D01*
X64879Y-15405D01*
X64854Y-15344D01*
X64762Y-15251D01*
X64641Y-15201D01*
X64510Y-15201D01*
X64389Y-15251D01*
X64297Y-15343D01*
X64246Y-15464D01*
X64246Y-15516D01*
X64177Y-15446D01*
X64056Y-15396D01*
X63925Y-15396D01*
X63810Y-15443D01*
X63675Y-15443D01*
X63632Y-15337D01*
X63539Y-15245D01*
X63419Y-15195D01*
X63288Y-15195D01*
X63167Y-15245D01*
X63074Y-15337D01*
X63027Y-15451D01*
X62555Y-15923D01*
X62499Y-15867D01*
X62378Y-15817D01*
X62248Y-15817D01*
X62127Y-15866D01*
X62034Y-15959D01*
X61999Y-16044D01*
X61913Y-16044D01*
X61792Y-16094D01*
X61700Y-16186D01*
X61652Y-16300D01*
X60999Y-16954D01*
X60999Y-16788D01*
X60961Y-16696D01*
X60892Y-16628D01*
X60892Y-16537D01*
X60875Y-16450D01*
X60890Y-16444D01*
X60961Y-16374D01*
X60999Y-16282D01*
X60999Y-16182D01*
X60999Y-15801D01*
X61015Y-15761D01*
X61015Y-15631D01*
X60965Y-15510D01*
X60873Y-15417D01*
X60752Y-15367D01*
X60621Y-15367D01*
X60500Y-15417D01*
X60408Y-15509D01*
X60365Y-15612D01*
X60331Y-15626D01*
X60261Y-15696D01*
X60236Y-15757D01*
X60211Y-15696D01*
X60140Y-15626D01*
X60048Y-15588D01*
X59949Y-15588D01*
X59673Y-15588D01*
X59633Y-15604D01*
X59461Y-15432D01*
X59414Y-15319D01*
X59322Y-15226D01*
X59201Y-15176D01*
X59070Y-15176D01*
X58949Y-15226D01*
X58868Y-15307D01*
X58829Y-15269D01*
X58708Y-15219D01*
X58577Y-15218D01*
X58457Y-15268D01*
X58364Y-15361D01*
X58317Y-15475D01*
X58232Y-15559D01*
X57872Y-15559D01*
X57872Y-15516D01*
X57822Y-15396D01*
X57730Y-15303D01*
X57609Y-15253D01*
X57478Y-15253D01*
X57364Y-15300D01*
X55417Y-15300D01*
X55000Y-14883D01*
X55000Y-14566D01*
X54979Y-14459D01*
X54918Y-14367D01*
X54832Y-14310D01*
X54696Y-14107D01*
X54609Y-14049D01*
X68627Y-14049D01*
X68627Y-17850D01*
X68627Y-17850D01*
G37*
X68627Y-17850D02*
X68108Y-17850D01*
X68108Y-16425D01*
X68024Y-16221D01*
X67868Y-16065D01*
X67664Y-15980D01*
X67443Y-15980D01*
X67239Y-16064D01*
X67082Y-16220D01*
X66998Y-16424D01*
X66997Y-16645D01*
X67082Y-16849D01*
X67238Y-17005D01*
X67442Y-17090D01*
X67663Y-17090D01*
X67867Y-17006D01*
X68023Y-16850D01*
X68108Y-16646D01*
X68108Y-16425D01*
X68108Y-17850D01*
X68079Y-17850D01*
X67389Y-18540D01*
X67358Y-18465D01*
X67266Y-18373D01*
X67145Y-18323D01*
X67014Y-18323D01*
X66893Y-18372D01*
X66801Y-18465D01*
X66751Y-18586D01*
X66750Y-18716D01*
X66800Y-18837D01*
X66893Y-18930D01*
X67007Y-18977D01*
X67627Y-19598D01*
X67627Y-20498D01*
X67174Y-20498D01*
X67125Y-20519D01*
X67077Y-20498D01*
X66977Y-20498D01*
X66387Y-20498D01*
X66295Y-20536D01*
X66225Y-20607D01*
X66213Y-20635D01*
X65711Y-20132D01*
X65664Y-20019D01*
X65571Y-19926D01*
X65451Y-19876D01*
X65320Y-19876D01*
X65205Y-19923D01*
X62767Y-19923D01*
X63627Y-19063D01*
X65449Y-19063D01*
X65563Y-19111D01*
X65694Y-19111D01*
X65814Y-19061D01*
X65907Y-18968D01*
X65957Y-18848D01*
X65957Y-18717D01*
X65907Y-18596D01*
X65815Y-18503D01*
X65694Y-18453D01*
X65563Y-18453D01*
X65449Y-18500D01*
X63971Y-18500D01*
X64624Y-17848D01*
X64652Y-17805D01*
X64652Y-17805D01*
X64703Y-17754D01*
X64753Y-17633D01*
X64754Y-17503D01*
X64719Y-17419D01*
X65413Y-16726D01*
X65526Y-16679D01*
X65619Y-16586D01*
X65669Y-16466D01*
X65669Y-16335D01*
X65619Y-16214D01*
X65527Y-16121D01*
X65406Y-16071D01*
X65275Y-16071D01*
X65154Y-16121D01*
X65062Y-16213D01*
X65014Y-16328D01*
X64366Y-16976D01*
X64357Y-16953D01*
X64264Y-16860D01*
X64180Y-16825D01*
X64681Y-16324D01*
X64726Y-16324D01*
X64846Y-16274D01*
X64939Y-16182D01*
X64989Y-16061D01*
X64989Y-15968D01*
X66640Y-15968D01*
X66754Y-16016D01*
X66885Y-16016D01*
X67006Y-15966D01*
X67098Y-15873D01*
X67148Y-15753D01*
X67149Y-15622D01*
X67099Y-15501D01*
X67006Y-15408D01*
X66885Y-15358D01*
X66755Y-15358D01*
X66640Y-15405D01*
X64879Y-15405D01*
X64854Y-15344D01*
X64762Y-15251D01*
X64641Y-15201D01*
X64510Y-15201D01*
X64389Y-15251D01*
X64297Y-15343D01*
X64246Y-15464D01*
X64246Y-15516D01*
X64177Y-15446D01*
X64056Y-15396D01*
X63925Y-15396D01*
X63810Y-15443D01*
X63675Y-15443D01*
X63632Y-15337D01*
X63539Y-15245D01*
X63419Y-15195D01*
X63288Y-15195D01*
X63167Y-15245D01*
X63074Y-15337D01*
X63027Y-15451D01*
X62555Y-15923D01*
X62499Y-15867D01*
X62378Y-15817D01*
X62248Y-15817D01*
X62127Y-15866D01*
X62034Y-15959D01*
X61999Y-16044D01*
X61913Y-16044D01*
X61792Y-16094D01*
X61700Y-16186D01*
X61652Y-16300D01*
X60999Y-16954D01*
X60999Y-16788D01*
X60961Y-16696D01*
X60892Y-16628D01*
X60892Y-16537D01*
X60875Y-16450D01*
X60890Y-16444D01*
X60961Y-16374D01*
X60999Y-16282D01*
X60999Y-16182D01*
X60999Y-15801D01*
X61015Y-15761D01*
X61015Y-15631D01*
X60965Y-15510D01*
X60873Y-15417D01*
X60752Y-15367D01*
X60621Y-15367D01*
X60500Y-15417D01*
X60408Y-15509D01*
X60365Y-15612D01*
X60331Y-15626D01*
X60261Y-15696D01*
X60236Y-15757D01*
X60211Y-15696D01*
X60140Y-15626D01*
X60048Y-15588D01*
X59949Y-15588D01*
X59673Y-15588D01*
X59633Y-15604D01*
X59461Y-15432D01*
X59414Y-15319D01*
X59322Y-15226D01*
X59201Y-15176D01*
X59070Y-15176D01*
X58949Y-15226D01*
X58868Y-15307D01*
X58829Y-15269D01*
X58708Y-15219D01*
X58577Y-15218D01*
X58457Y-15268D01*
X58364Y-15361D01*
X58317Y-15475D01*
X58232Y-15559D01*
X57872Y-15559D01*
X57872Y-15516D01*
X57822Y-15396D01*
X57730Y-15303D01*
X57609Y-15253D01*
X57478Y-15253D01*
X57364Y-15300D01*
X55417Y-15300D01*
X55000Y-14883D01*
X55000Y-14566D01*
X54979Y-14459D01*
X54918Y-14367D01*
X54832Y-14310D01*
X54696Y-14107D01*
X54609Y-14049D01*
X68627Y-14049D01*
X68627Y-17850D01*
G36*
X68627Y-33194D02*
X63450Y-33194D01*
X63450Y-26064D01*
X63539Y-26064D01*
X63646Y-26043D01*
X63738Y-25982D01*
X63757Y-25963D01*
X63773Y-25938D01*
X64263Y-25938D01*
X64355Y-25900D01*
X64425Y-25830D01*
X64463Y-25738D01*
X64463Y-25638D01*
X64463Y-25345D01*
X65473Y-26354D01*
X65520Y-26468D01*
X65612Y-26560D01*
X65707Y-26600D01*
X65707Y-28740D01*
X65728Y-28847D01*
X65789Y-28939D01*
X65833Y-28968D01*
X65833Y-29084D01*
X65871Y-29176D01*
X65941Y-29247D01*
X66033Y-29285D01*
X66133Y-29285D01*
X66145Y-29285D01*
X66145Y-29540D01*
X66118Y-29551D01*
X66048Y-29621D01*
X66017Y-29695D01*
X66017Y-29535D01*
X65979Y-29443D01*
X65909Y-29373D01*
X65845Y-29347D01*
X65845Y-29278D01*
X65795Y-29157D01*
X65703Y-29065D01*
X65582Y-29015D01*
X65451Y-29015D01*
X65330Y-29065D01*
X65238Y-29157D01*
X65187Y-29278D01*
X65187Y-29335D01*
X65127Y-29335D01*
X65035Y-29373D01*
X64965Y-29443D01*
X64927Y-29535D01*
X64927Y-29635D01*
X64927Y-30147D01*
X64965Y-30239D01*
X65035Y-30309D01*
X65127Y-30347D01*
X65227Y-30347D01*
X65244Y-30347D01*
X65273Y-30391D01*
X65364Y-30452D01*
X65472Y-30473D01*
X66021Y-30473D01*
X66010Y-30501D01*
X66010Y-30601D01*
X66010Y-30916D01*
X66048Y-31008D01*
X66118Y-31078D01*
X66210Y-31116D01*
X66309Y-31116D01*
X66781Y-31116D01*
X66873Y-31078D01*
X66944Y-31008D01*
X66982Y-30916D01*
X66982Y-30816D01*
X66982Y-30501D01*
X66944Y-30409D01*
X66873Y-30339D01*
X66814Y-30314D01*
X66873Y-30290D01*
X66944Y-30220D01*
X66982Y-30128D01*
X66982Y-30028D01*
X66982Y-29713D01*
X66944Y-29621D01*
X66873Y-29551D01*
X66781Y-29513D01*
X66724Y-29513D01*
X66708Y-29490D01*
X66708Y-29490D01*
X66708Y-29258D01*
X66737Y-29247D01*
X66807Y-29176D01*
X66845Y-29084D01*
X66845Y-28985D01*
X66845Y-28395D01*
X66807Y-28303D01*
X66737Y-28233D01*
X66645Y-28195D01*
X66545Y-28195D01*
X66270Y-28195D01*
X66270Y-26288D01*
X67650Y-26931D01*
X67650Y-30320D01*
X68627Y-31298D01*
X68627Y-33194D01*
X68627Y-33194D01*
G37*
X68627Y-33194D02*
X63450Y-33194D01*
X63450Y-26064D01*
X63539Y-26064D01*
X63646Y-26043D01*
X63738Y-25982D01*
X63757Y-25963D01*
X63773Y-25938D01*
X64263Y-25938D01*
X64355Y-25900D01*
X64425Y-25830D01*
X64463Y-25738D01*
X64463Y-25638D01*
X64463Y-25345D01*
X65473Y-26354D01*
X65520Y-26468D01*
X65612Y-26560D01*
X65707Y-26600D01*
X65707Y-28740D01*
X65728Y-28847D01*
X65789Y-28939D01*
X65833Y-28968D01*
X65833Y-29084D01*
X65871Y-29176D01*
X65941Y-29247D01*
X66033Y-29285D01*
X66133Y-29285D01*
X66145Y-29285D01*
X66145Y-29540D01*
X66118Y-29551D01*
X66048Y-29621D01*
X66017Y-29695D01*
X66017Y-29535D01*
X65979Y-29443D01*
X65909Y-29373D01*
X65845Y-29347D01*
X65845Y-29278D01*
X65795Y-29157D01*
X65703Y-29065D01*
X65582Y-29015D01*
X65451Y-29015D01*
X65330Y-29065D01*
X65238Y-29157D01*
X65187Y-29278D01*
X65187Y-29335D01*
X65127Y-29335D01*
X65035Y-29373D01*
X64965Y-29443D01*
X64927Y-29535D01*
X64927Y-29635D01*
X64927Y-30147D01*
X64965Y-30239D01*
X65035Y-30309D01*
X65127Y-30347D01*
X65227Y-30347D01*
X65244Y-30347D01*
X65273Y-30391D01*
X65364Y-30452D01*
X65472Y-30473D01*
X66021Y-30473D01*
X66010Y-30501D01*
X66010Y-30601D01*
X66010Y-30916D01*
X66048Y-31008D01*
X66118Y-31078D01*
X66210Y-31116D01*
X66309Y-31116D01*
X66781Y-31116D01*
X66873Y-31078D01*
X66944Y-31008D01*
X66982Y-30916D01*
X66982Y-30816D01*
X66982Y-30501D01*
X66944Y-30409D01*
X66873Y-30339D01*
X66814Y-30314D01*
X66873Y-30290D01*
X66944Y-30220D01*
X66982Y-30128D01*
X66982Y-30028D01*
X66982Y-29713D01*
X66944Y-29621D01*
X66873Y-29551D01*
X66781Y-29513D01*
X66724Y-29513D01*
X66708Y-29490D01*
X66708Y-29490D01*
X66708Y-29258D01*
X66737Y-29247D01*
X66807Y-29176D01*
X66845Y-29084D01*
X66845Y-28985D01*
X66845Y-28395D01*
X66807Y-28303D01*
X66737Y-28233D01*
X66645Y-28195D01*
X66545Y-28195D01*
X66270Y-28195D01*
X66270Y-26288D01*
X67650Y-26931D01*
X67650Y-30320D01*
X68627Y-31298D01*
X68627Y-33194D01*
M02*
