%FSLAX34Y34*%
G04 Gerber Fmt 3.4, Leading zero omitted, Abs format*
G04 (created by PCBNEW (2014-06-12 BZR 4942)-product) date Mon 16 Jun 2014 06:59:23 PM PDT*
%MOIN*%
G01*
G70*
G90*
G04 APERTURE LIST*
%ADD10C,0.003937*%
%ADD11R,0.285000X0.285000*%
%ADD12C,0.060000*%
%ADD13R,0.059000X0.051200*%
%ADD14R,0.051200X0.059000*%
%ADD15O,0.049213X0.037402*%
%ADD16R,0.035000X0.055000*%
%ADD17R,0.055000X0.035000*%
%ADD18R,0.068000X0.068000*%
%ADD19O,0.068000X0.068000*%
%ADD20R,0.080000X0.080000*%
%ADD21O,0.080000X0.080000*%
%ADD22R,0.039400X0.031500*%
%ADD23R,0.047200X0.031500*%
%ADD24R,0.080000X0.144000*%
%ADD25R,0.080000X0.040000*%
%ADD26R,0.027600X0.039400*%
G04 APERTURE END LIST*
G54D10*
G54D11*
X63543Y-21929D03*
G54D12*
X56255Y-28031D03*
G54D13*
X53425Y-29310D03*
X53425Y-30060D03*
X56929Y-21475D03*
X56929Y-22225D03*
X54448Y-29310D03*
X54448Y-30060D03*
X57755Y-21475D03*
X57755Y-22225D03*
X56102Y-27264D03*
X56102Y-26514D03*
X56141Y-20689D03*
X56141Y-19939D03*
X66732Y-21004D03*
X66732Y-20254D03*
X67519Y-21004D03*
X67519Y-20254D03*
G54D14*
X62382Y-24606D03*
X61632Y-24606D03*
X62382Y-25492D03*
X61632Y-25492D03*
G54D13*
X59744Y-26101D03*
X59744Y-26851D03*
X56102Y-24939D03*
X56102Y-25689D03*
X56988Y-24939D03*
X56988Y-25689D03*
G54D14*
X66339Y-28740D03*
X65589Y-28740D03*
G54D13*
X65472Y-29841D03*
X65472Y-30591D03*
X56102Y-23918D03*
X56102Y-23168D03*
G54D14*
X63957Y-24606D03*
X63207Y-24606D03*
X63957Y-25393D03*
X63207Y-25393D03*
G54D13*
X59055Y-16910D03*
X59055Y-16160D03*
X50984Y-31219D03*
X50984Y-31969D03*
G54D15*
X51870Y-31791D03*
X53838Y-31791D03*
G54D10*
G36*
X51948Y-32549D02*
X51948Y-33159D01*
X51161Y-33159D01*
X51161Y-32549D01*
X51948Y-32549D01*
X51948Y-32549D01*
G37*
G36*
X54547Y-32549D02*
X54547Y-33159D01*
X53759Y-33159D01*
X53759Y-32549D01*
X54547Y-32549D01*
X54547Y-32549D01*
G37*
G54D16*
X56810Y-27283D03*
X57560Y-27283D03*
X56810Y-26496D03*
X57560Y-26496D03*
X56908Y-20688D03*
X57658Y-20688D03*
X56908Y-23937D03*
X57658Y-23937D03*
G54D17*
X51181Y-29743D03*
X51181Y-30493D03*
G54D12*
X57480Y-18110D03*
G54D18*
X50893Y-18535D03*
G54D19*
X49893Y-18535D03*
X50893Y-17535D03*
X49893Y-17535D03*
X50893Y-16535D03*
X49893Y-16535D03*
X50893Y-15535D03*
X49893Y-15535D03*
X50893Y-14535D03*
X49893Y-14535D03*
G54D12*
X58366Y-14960D03*
X57992Y-25433D03*
G54D20*
X49901Y-31783D03*
G54D21*
X49901Y-32783D03*
G54D12*
X54429Y-18503D03*
G54D22*
X50472Y-30196D03*
X49606Y-29821D03*
X49606Y-30571D03*
G54D23*
X66496Y-30708D03*
X66496Y-29920D03*
G54D12*
X57578Y-19881D03*
G54D24*
X52479Y-26850D03*
G54D25*
X55079Y-26850D03*
X55079Y-27750D03*
X55079Y-25950D03*
G54D24*
X52440Y-20905D03*
G54D25*
X55040Y-20905D03*
X55040Y-21805D03*
X55040Y-20005D03*
G54D24*
X52440Y-23937D03*
G54D25*
X55040Y-23937D03*
X55040Y-24837D03*
X55040Y-23037D03*
G54D26*
X59861Y-17035D03*
X60236Y-17035D03*
X60611Y-17035D03*
X60611Y-16035D03*
X60236Y-16035D03*
X59861Y-16035D03*
G54D20*
X55224Y-14566D03*
G54D21*
X54224Y-14566D03*
G54D18*
X50893Y-28712D03*
G54D19*
X49893Y-28712D03*
X50893Y-27712D03*
X49893Y-27712D03*
X50893Y-26712D03*
X49893Y-26712D03*
X50893Y-25712D03*
X49893Y-25712D03*
X50893Y-24712D03*
X49893Y-24712D03*
X50893Y-23712D03*
X49893Y-23712D03*
X50893Y-22712D03*
X49893Y-22712D03*
X50893Y-21712D03*
X49893Y-21712D03*
X50893Y-20712D03*
X49893Y-20712D03*
X50893Y-19712D03*
X49893Y-19712D03*
M02*
