%FSLAX34Y34*%
G04 Gerber Fmt 3.4, Leading zero omitted, Abs format*
G04 (created by PCBNEW (2014-06-12 BZR 4942)-product) date Mon 16 Jun 2014 06:59:23 PM PDT*
%MOIN*%
G01*
G70*
G90*
G04 APERTURE LIST*
%ADD10C,0.003937*%
%ADD11R,0.012000X0.036000*%
%ADD12R,0.036000X0.012000*%
%ADD13R,0.285000X0.285000*%
%ADD14R,0.047200X0.031500*%
%ADD15R,0.059000X0.051200*%
%ADD16R,0.051200X0.059000*%
%ADD17R,0.015748X0.078740*%
%ADD18R,0.015748X0.053150*%
%ADD19O,0.049213X0.037402*%
%ADD20R,0.059055X0.061024*%
%ADD21R,0.039400X0.023600*%
%ADD22R,0.035000X0.055000*%
%ADD23R,0.055000X0.035000*%
%ADD24R,0.068000X0.068000*%
%ADD25O,0.068000X0.068000*%
%ADD26R,0.130000X0.180000*%
%ADD27R,0.078700X0.160300*%
%ADD28R,0.080000X0.080000*%
%ADD29O,0.080000X0.080000*%
%ADD30C,0.060000*%
%ADD31R,0.031500X0.047200*%
%ADD32R,0.065000X0.100000*%
%ADD33R,0.061024X0.076772*%
%ADD34C,0.118100*%
%ADD35C,0.015748*%
%ADD36C,0.006299*%
%ADD37C,0.011811*%
%ADD38C,0.010000*%
G04 APERTURE END LIST*
G54D10*
G36*
X65099Y-19999D02*
X65067Y-20359D01*
X64979Y-20359D01*
X64947Y-19999D01*
X65099Y-19999D01*
X65099Y-19999D01*
G37*
G54D11*
X64823Y-20179D03*
X64623Y-20179D03*
X64433Y-20179D03*
X64233Y-20179D03*
X64033Y-20179D03*
X63843Y-20179D03*
X63643Y-20179D03*
X63443Y-20179D03*
X63243Y-20179D03*
X63053Y-20179D03*
X62853Y-20179D03*
X62653Y-20179D03*
X62463Y-20179D03*
X62263Y-20179D03*
G54D10*
G36*
X62139Y-19999D02*
X62107Y-20359D01*
X62019Y-20359D01*
X61987Y-19999D01*
X62139Y-19999D01*
X62139Y-19999D01*
G37*
G36*
X61613Y-20373D02*
X61973Y-20404D01*
X61973Y-20493D01*
X61613Y-20524D01*
X61613Y-20373D01*
X61613Y-20373D01*
G37*
G54D12*
X61793Y-20649D03*
X61793Y-20849D03*
X61793Y-21039D03*
X61793Y-21239D03*
X61793Y-21439D03*
X61793Y-21629D03*
X61793Y-21829D03*
X61793Y-22029D03*
X61793Y-22229D03*
X61793Y-22419D03*
X61793Y-22619D03*
X61793Y-22819D03*
X61793Y-23009D03*
X61793Y-23209D03*
G54D10*
G36*
X61613Y-23333D02*
X61973Y-23364D01*
X61973Y-23453D01*
X61613Y-23484D01*
X61613Y-23333D01*
X61613Y-23333D01*
G37*
G36*
X61987Y-23859D02*
X62019Y-23499D01*
X62107Y-23499D01*
X62139Y-23859D01*
X61987Y-23859D01*
X61987Y-23859D01*
G37*
G54D11*
X62263Y-23679D03*
X62463Y-23679D03*
X62653Y-23679D03*
X62853Y-23679D03*
X63053Y-23679D03*
X63243Y-23679D03*
X63443Y-23679D03*
X63643Y-23679D03*
X63843Y-23679D03*
X64033Y-23679D03*
X64233Y-23679D03*
X64433Y-23679D03*
X64623Y-23679D03*
X64823Y-23679D03*
G54D10*
G36*
X64947Y-23859D02*
X64979Y-23499D01*
X65067Y-23499D01*
X65099Y-23859D01*
X64947Y-23859D01*
X64947Y-23859D01*
G37*
G36*
X65473Y-23482D02*
X65113Y-23455D01*
X65113Y-23362D01*
X65473Y-23335D01*
X65473Y-23482D01*
X65473Y-23482D01*
G37*
G54D12*
X65293Y-23209D03*
X65293Y-23009D03*
X65293Y-22819D03*
X65293Y-22619D03*
X65293Y-22419D03*
X65293Y-22229D03*
X65293Y-22029D03*
X65293Y-21829D03*
X65293Y-21629D03*
X65293Y-21439D03*
X65293Y-21239D03*
X65293Y-21039D03*
X65293Y-20849D03*
X65293Y-20649D03*
G54D10*
G36*
X65473Y-20524D02*
X65113Y-20493D01*
X65113Y-20404D01*
X65473Y-20373D01*
X65473Y-20524D01*
X65473Y-20524D01*
G37*
G54D13*
X63543Y-21929D03*
G54D14*
X61889Y-27205D03*
X61889Y-26417D03*
G54D15*
X60039Y-19802D03*
X60039Y-20552D03*
X59251Y-19802D03*
X59251Y-20552D03*
X66181Y-20178D03*
X66181Y-19428D03*
G54D16*
X67737Y-19448D03*
X66987Y-19448D03*
G54D15*
X61614Y-25375D03*
X61614Y-24625D03*
X62401Y-25375D03*
X62401Y-24625D03*
X63385Y-24625D03*
X63385Y-25375D03*
X60614Y-24544D03*
X60614Y-23794D03*
G54D16*
X59922Y-23720D03*
X59172Y-23720D03*
X52774Y-30019D03*
X53524Y-30019D03*
G54D15*
X59251Y-24526D03*
X59251Y-25276D03*
X58366Y-23739D03*
X58366Y-24489D03*
X58169Y-29349D03*
X58169Y-30099D03*
G54D16*
X57892Y-30905D03*
X58642Y-30905D03*
X52774Y-30905D03*
X53524Y-30905D03*
G54D17*
X67079Y-14960D03*
X67079Y-18110D03*
X66829Y-14960D03*
X66829Y-18110D03*
X66579Y-14960D03*
X66579Y-18110D03*
X66329Y-14960D03*
X66329Y-18110D03*
X66079Y-14960D03*
X66079Y-18110D03*
X65829Y-14960D03*
X65829Y-18110D03*
X65579Y-14960D03*
X65579Y-18110D03*
X65329Y-14960D03*
X65329Y-18110D03*
X65079Y-14960D03*
X65079Y-18110D03*
X64829Y-14960D03*
X64829Y-18110D03*
X64579Y-14960D03*
X64579Y-18110D03*
X64329Y-14960D03*
X64329Y-18110D03*
X64079Y-14960D03*
X64079Y-18110D03*
X63829Y-14960D03*
X63829Y-18110D03*
X63579Y-14960D03*
X63579Y-18110D03*
X63329Y-14960D03*
X63329Y-18110D03*
X63079Y-14960D03*
X63079Y-18110D03*
X62829Y-14960D03*
X62829Y-18110D03*
X62579Y-14960D03*
X62579Y-18110D03*
X62329Y-14960D03*
X62329Y-18110D03*
X62079Y-14960D03*
X62079Y-18110D03*
X61829Y-14960D03*
X61829Y-18110D03*
X61579Y-14960D03*
X61579Y-18110D03*
X61329Y-14960D03*
X61329Y-18110D03*
X61079Y-14960D03*
X61079Y-18110D03*
X60829Y-14960D03*
X60829Y-18110D03*
X60579Y-14960D03*
X60579Y-18110D03*
X60329Y-14960D03*
X60329Y-18110D03*
X60079Y-14960D03*
X60079Y-18110D03*
X59829Y-14960D03*
X59829Y-18110D03*
X59579Y-14960D03*
X59579Y-18110D03*
X59329Y-14960D03*
X59329Y-18110D03*
X59079Y-14960D03*
X59079Y-18110D03*
X58829Y-14960D03*
X58829Y-18110D03*
X58579Y-14960D03*
X58579Y-18110D03*
X58329Y-14960D03*
X58329Y-18110D03*
X58079Y-14960D03*
X58079Y-18110D03*
X57829Y-14960D03*
X57829Y-18110D03*
X57579Y-14960D03*
X57579Y-18110D03*
X57329Y-14960D03*
X57329Y-18110D03*
G54D18*
X52854Y-31791D03*
X52598Y-31791D03*
X52342Y-31791D03*
X53110Y-31791D03*
X53366Y-31791D03*
G54D19*
X51870Y-31791D03*
X53838Y-31791D03*
G54D10*
G36*
X51948Y-32549D02*
X51948Y-33159D01*
X51161Y-33159D01*
X51161Y-32549D01*
X51948Y-32549D01*
X51948Y-32549D01*
G37*
G54D20*
X52460Y-32854D03*
X53248Y-32854D03*
G54D10*
G36*
X54547Y-32549D02*
X54547Y-33159D01*
X53759Y-33159D01*
X53759Y-32549D01*
X54547Y-32549D01*
X54547Y-32549D01*
G37*
G54D21*
X60275Y-30216D03*
X59409Y-30216D03*
G54D22*
X52737Y-18110D03*
X51987Y-18110D03*
X52737Y-18897D03*
X51987Y-18897D03*
X52737Y-15748D03*
X51987Y-15748D03*
X52737Y-17322D03*
X51987Y-17322D03*
X54351Y-18070D03*
X53601Y-18070D03*
X54351Y-18897D03*
X53601Y-18897D03*
X51987Y-14960D03*
X52737Y-14960D03*
X52737Y-16535D03*
X51987Y-16535D03*
X52737Y-14173D03*
X51987Y-14173D03*
G54D23*
X51968Y-30333D03*
X51968Y-31083D03*
G54D24*
X50893Y-18535D03*
G54D25*
X49893Y-18535D03*
X50893Y-17535D03*
X49893Y-17535D03*
X50893Y-16535D03*
X49893Y-16535D03*
X50893Y-15535D03*
X49893Y-15535D03*
X50893Y-14535D03*
X49893Y-14535D03*
G54D26*
X67702Y-32444D03*
G54D10*
G36*
X66094Y-33107D02*
X66881Y-33107D01*
X66645Y-33304D01*
X66330Y-33304D01*
X66094Y-33107D01*
X66094Y-33107D01*
G37*
G54D27*
X66456Y-32344D03*
G54D26*
X65210Y-32444D03*
X59868Y-32444D03*
G54D10*
G36*
X58260Y-33107D02*
X59047Y-33107D01*
X58811Y-33304D01*
X58496Y-33304D01*
X58260Y-33107D01*
X58260Y-33107D01*
G37*
G54D27*
X58622Y-32344D03*
G54D26*
X57376Y-32444D03*
G54D28*
X49901Y-31783D03*
G54D29*
X49901Y-32783D03*
G54D30*
X53805Y-20370D03*
G54D31*
X59153Y-22736D03*
X59941Y-22736D03*
X65669Y-25590D03*
X64881Y-25590D03*
G54D32*
X64488Y-30602D03*
X65488Y-30602D03*
X66488Y-30602D03*
X66488Y-28602D03*
X65488Y-28602D03*
X64488Y-28602D03*
X58759Y-28338D03*
X59759Y-28338D03*
X60759Y-28338D03*
X60759Y-26338D03*
X59759Y-26338D03*
X58759Y-26338D03*
G54D33*
X66224Y-22874D03*
X68224Y-22874D03*
X68224Y-21220D03*
X66224Y-21220D03*
G54D28*
X55224Y-14566D03*
G54D29*
X54224Y-14566D03*
G54D22*
X52737Y-27952D03*
X51987Y-27952D03*
X52737Y-26771D03*
X51987Y-26771D03*
X52737Y-25590D03*
X51987Y-25590D03*
X52737Y-24803D03*
X51987Y-24803D03*
X52737Y-23622D03*
X51987Y-23622D03*
X52737Y-22834D03*
X51987Y-22834D03*
X52737Y-22047D03*
X51987Y-22047D03*
X52737Y-21259D03*
X51987Y-21259D03*
X52737Y-19685D03*
X51987Y-19685D03*
X53955Y-28346D03*
X54705Y-28346D03*
X53955Y-27559D03*
X54705Y-27559D03*
X53955Y-26771D03*
X54705Y-26771D03*
X53955Y-25984D03*
X54705Y-25984D03*
X53955Y-25196D03*
X54705Y-25196D03*
X53955Y-24409D03*
X54705Y-24409D03*
X53955Y-23622D03*
X54705Y-23622D03*
X53955Y-22834D03*
X54705Y-22834D03*
X53955Y-22047D03*
X54705Y-22047D03*
X53955Y-21259D03*
X54705Y-21259D03*
G54D24*
X50893Y-28712D03*
G54D25*
X49893Y-28712D03*
X50893Y-27712D03*
X49893Y-27712D03*
X50893Y-26712D03*
X49893Y-26712D03*
X50893Y-25712D03*
X49893Y-25712D03*
X50893Y-24712D03*
X49893Y-24712D03*
X50893Y-23712D03*
X49893Y-23712D03*
X50893Y-22712D03*
X49893Y-22712D03*
X50893Y-21712D03*
X49893Y-21712D03*
X50893Y-20712D03*
X49893Y-20712D03*
X50893Y-19712D03*
X49893Y-19712D03*
G54D30*
X53937Y-16535D03*
X54724Y-16535D03*
X55511Y-16535D03*
G54D34*
X64488Y-27165D03*
X66456Y-27165D03*
G54D35*
X67079Y-18651D03*
X56580Y-32394D03*
X57914Y-22653D03*
X59981Y-16506D03*
X65215Y-31402D03*
X68498Y-32394D03*
X65742Y-20258D03*
X60590Y-30236D03*
X60759Y-28338D03*
X59842Y-32480D03*
X59744Y-26980D03*
X64000Y-21900D03*
X63543Y-21929D03*
X64000Y-21300D03*
X64500Y-21300D03*
X64500Y-21900D03*
X64500Y-22500D03*
X64500Y-23100D03*
X64000Y-23100D03*
X64000Y-22500D03*
X63500Y-22500D03*
X63500Y-23100D03*
X62900Y-23100D03*
X62900Y-22500D03*
X62900Y-21900D03*
X62900Y-21300D03*
X63500Y-21300D03*
X63500Y-20800D03*
X62900Y-20800D03*
X62400Y-20800D03*
X62400Y-21300D03*
X62400Y-21900D03*
X62400Y-22500D03*
X62400Y-23100D03*
X64000Y-20800D03*
X64500Y-20800D03*
X53803Y-20362D03*
X59392Y-21542D03*
X58862Y-20916D03*
X61692Y-19958D03*
X59158Y-18771D03*
X65385Y-20205D03*
X55306Y-20393D03*
X63295Y-24017D03*
X62212Y-24036D03*
X65619Y-21651D03*
X59748Y-26212D03*
X65516Y-29343D03*
X51454Y-30118D03*
X63992Y-24167D03*
X61372Y-21567D03*
X65628Y-18782D03*
X61347Y-20927D03*
X65340Y-16400D03*
X61432Y-21206D03*
X64425Y-17568D03*
X61220Y-19815D03*
X64661Y-15995D03*
X61895Y-19168D03*
X63440Y-17440D03*
X59703Y-16572D03*
X56070Y-16942D03*
X61287Y-19382D03*
X60065Y-20963D03*
X60453Y-16378D03*
X60686Y-15696D03*
X60248Y-16528D03*
X59135Y-15505D03*
X61408Y-22756D03*
X59185Y-21735D03*
X58228Y-17242D03*
X53870Y-15022D03*
X58643Y-15547D03*
X54946Y-15841D03*
X58374Y-17416D03*
X53162Y-16501D03*
X57939Y-17309D03*
X53465Y-14784D03*
X60763Y-18856D03*
X57854Y-19511D03*
X57543Y-15582D03*
X57545Y-19435D03*
X56124Y-17693D03*
X57100Y-18356D03*
X53271Y-17959D03*
X66820Y-15687D03*
X55067Y-22662D03*
X64575Y-15530D03*
X53271Y-21933D03*
X64078Y-17139D03*
X55079Y-23445D03*
X63990Y-15725D03*
X55462Y-19587D03*
X63353Y-15523D03*
X56067Y-19119D03*
X63005Y-16930D03*
X55693Y-19601D03*
X59543Y-17461D03*
X56345Y-17635D03*
X62313Y-16145D03*
X55819Y-18954D03*
X61978Y-16372D03*
X56463Y-18741D03*
X56946Y-24492D03*
X55482Y-24492D03*
X60899Y-18680D03*
X58393Y-20480D03*
X50363Y-17113D03*
X53870Y-16982D03*
X64487Y-24183D03*
X65798Y-26282D03*
G54D36*
X67079Y-18651D02*
X67079Y-18110D01*
X67079Y-18110D02*
X67079Y-14960D01*
X61531Y-27488D02*
X61557Y-27462D01*
X61275Y-27743D02*
X61531Y-27488D01*
X61531Y-27488D02*
X61531Y-27485D01*
X61531Y-27485D02*
X61811Y-27205D01*
X61811Y-27205D02*
X61889Y-27205D01*
X61889Y-27205D02*
X61968Y-27205D01*
X61968Y-27205D02*
X63385Y-25787D01*
X63385Y-25787D02*
X63385Y-25693D01*
X63385Y-25693D02*
X63385Y-25375D01*
X59855Y-32457D02*
X59868Y-32444D01*
X59868Y-32444D02*
X59868Y-32444D01*
X59855Y-32457D02*
X59842Y-32470D01*
X59842Y-32470D02*
X59842Y-32480D01*
X59868Y-32444D02*
X59855Y-32457D01*
X65210Y-31450D02*
X65210Y-31406D01*
X65210Y-31406D02*
X65215Y-31402D01*
X66488Y-30965D02*
X66488Y-31196D01*
X60759Y-27743D02*
X61275Y-27743D01*
X63385Y-25375D02*
X63385Y-25024D01*
X59583Y-20552D02*
X60039Y-20552D01*
X59251Y-20552D02*
X59583Y-20552D01*
X59583Y-22905D02*
X59583Y-20552D01*
X60759Y-28338D02*
X60759Y-27743D01*
X56580Y-32394D02*
X56631Y-32444D01*
X57376Y-32444D02*
X56631Y-32444D01*
X64233Y-23404D02*
X63243Y-23404D01*
X64233Y-23436D02*
X64233Y-23404D01*
X64233Y-23679D02*
X64233Y-23436D01*
X65018Y-21929D02*
X65018Y-22229D01*
X65018Y-21439D02*
X65018Y-21929D01*
X63543Y-21929D02*
X65018Y-21929D01*
X62067Y-20649D02*
X63347Y-21929D01*
X63347Y-21929D02*
X63543Y-21929D01*
X64823Y-23404D02*
X64823Y-22814D01*
X64823Y-22814D02*
X65018Y-22619D01*
X64823Y-23436D02*
X64823Y-23404D01*
X64233Y-23404D02*
X64823Y-23404D01*
X63385Y-25024D02*
X63692Y-25024D01*
X63692Y-25024D02*
X64233Y-24483D01*
X64233Y-24483D02*
X64233Y-23679D01*
X61079Y-15448D02*
X61079Y-15997D01*
X61079Y-15997D02*
X60371Y-16705D01*
X60371Y-16705D02*
X60180Y-16705D01*
X60180Y-16705D02*
X59981Y-16506D01*
X61518Y-20649D02*
X61518Y-19940D01*
X61518Y-19940D02*
X61519Y-19939D01*
X61519Y-19939D02*
X61519Y-18788D01*
X61519Y-18788D02*
X61329Y-18598D01*
X63791Y-17621D02*
X63829Y-17621D01*
X61329Y-17621D02*
X63791Y-17621D01*
X63829Y-15448D02*
X63791Y-15487D01*
X63791Y-15487D02*
X63791Y-17621D01*
X63829Y-14960D02*
X63829Y-15448D01*
X63829Y-14732D02*
X63829Y-14960D01*
X63829Y-14732D02*
X63829Y-14503D01*
X63829Y-18110D02*
X63829Y-17621D01*
X59829Y-17621D02*
X61329Y-17621D01*
X58331Y-23070D02*
X57976Y-23425D01*
X57976Y-23425D02*
X57976Y-24055D01*
X57976Y-24055D02*
X58059Y-24138D01*
X58059Y-24138D02*
X58366Y-24138D01*
X59583Y-22905D02*
X59418Y-23070D01*
X59418Y-23070D02*
X58331Y-23070D01*
X58331Y-23070D02*
X57914Y-22653D01*
X58329Y-15448D02*
X58329Y-15479D01*
X58329Y-15479D02*
X58590Y-15740D01*
X58590Y-15740D02*
X59538Y-15740D01*
X59981Y-16506D02*
X59538Y-16063D01*
X59538Y-16063D02*
X59538Y-15740D01*
X59538Y-15740D02*
X59829Y-15448D01*
X58329Y-14960D02*
X58329Y-15448D01*
X59251Y-25276D02*
X59251Y-24925D01*
X58366Y-24313D02*
X58366Y-24352D01*
X58366Y-24352D02*
X58939Y-24925D01*
X58939Y-24925D02*
X59251Y-24925D01*
X58366Y-24313D02*
X58366Y-24138D01*
X58366Y-24489D02*
X58366Y-24313D01*
X66181Y-19428D02*
X66570Y-19428D01*
X66987Y-19448D02*
X66591Y-19448D01*
X66591Y-19448D02*
X66570Y-19428D01*
X66181Y-19428D02*
X66181Y-19778D01*
X65742Y-20258D02*
X65742Y-19910D01*
X65742Y-19910D02*
X65874Y-19778D01*
X65874Y-19778D02*
X66181Y-19778D01*
X65567Y-21439D02*
X65742Y-21264D01*
X65742Y-21264D02*
X65742Y-20258D01*
X61518Y-23209D02*
X61514Y-23204D01*
X61514Y-23204D02*
X59882Y-23204D01*
X59882Y-23204D02*
X59583Y-22905D01*
X61793Y-23209D02*
X61518Y-23209D01*
X62263Y-23404D02*
X62067Y-23209D01*
X62067Y-23209D02*
X61793Y-23209D01*
X65210Y-32444D02*
X65210Y-31450D01*
X61793Y-20649D02*
X61518Y-20649D01*
X61329Y-18110D02*
X61329Y-18598D01*
X61930Y-20649D02*
X61793Y-20649D01*
X61930Y-20649D02*
X62067Y-20649D01*
X61079Y-14960D02*
X61079Y-14472D01*
X62579Y-14472D02*
X61079Y-14472D01*
X63829Y-14472D02*
X62579Y-14472D01*
X61079Y-14960D02*
X61079Y-15448D01*
X59829Y-14960D02*
X59829Y-15448D01*
X66488Y-30602D02*
X66488Y-30899D01*
X66488Y-30899D02*
X66488Y-30965D01*
X63829Y-14503D02*
X63829Y-14472D01*
X66579Y-14960D02*
X66579Y-14472D01*
X63829Y-14472D02*
X66579Y-14472D01*
X68498Y-32394D02*
X68447Y-32444D01*
X67702Y-32444D02*
X68447Y-32444D01*
X59829Y-18110D02*
X59829Y-17621D01*
X61329Y-18110D02*
X61329Y-17621D01*
X65293Y-21439D02*
X65018Y-21439D01*
X65018Y-20849D02*
X65018Y-21439D01*
X65293Y-21439D02*
X65567Y-21439D01*
X63243Y-23404D02*
X62684Y-23404D01*
X62684Y-23404D02*
X62653Y-23436D01*
X63243Y-23679D02*
X63243Y-23404D01*
X65050Y-20849D02*
X65018Y-20849D01*
X65293Y-20849D02*
X65050Y-20849D01*
X65293Y-20649D02*
X65018Y-20649D01*
X65018Y-20649D02*
X65018Y-20849D01*
X65018Y-22419D02*
X65018Y-22229D01*
X64823Y-23596D02*
X64823Y-23436D01*
X62653Y-23436D02*
X62621Y-23404D01*
X62621Y-23404D02*
X62263Y-23404D01*
X62653Y-23679D02*
X62653Y-23436D01*
X53524Y-30905D02*
X53524Y-30515D01*
X53372Y-30019D02*
X53372Y-30363D01*
X53372Y-30363D02*
X53524Y-30515D01*
X53372Y-30019D02*
X53174Y-30019D01*
X53524Y-30019D02*
X53372Y-30019D01*
X53366Y-31791D02*
X53366Y-31430D01*
X53524Y-30905D02*
X53524Y-31295D01*
X53524Y-31295D02*
X53388Y-31430D01*
X53388Y-31430D02*
X53366Y-31430D01*
X65102Y-22419D02*
X65018Y-22503D01*
X65018Y-22503D02*
X65018Y-22619D01*
X64823Y-23596D02*
X64940Y-23596D01*
X64940Y-23596D02*
X65023Y-23679D01*
X64823Y-23679D02*
X64823Y-23596D01*
X62263Y-23679D02*
X62263Y-23404D01*
X65187Y-22419D02*
X65102Y-22419D01*
X65102Y-22419D02*
X65018Y-22419D01*
X65293Y-22619D02*
X65018Y-22619D01*
X65293Y-22419D02*
X65187Y-22419D01*
X65293Y-22229D02*
X65018Y-22229D01*
X53174Y-30019D02*
X53174Y-29712D01*
X53174Y-29712D02*
X52173Y-28712D01*
X52173Y-28712D02*
X50893Y-28712D01*
X62579Y-14960D02*
X62579Y-14472D01*
X60275Y-30216D02*
X60275Y-30216D01*
X60275Y-30216D02*
X60570Y-30216D01*
X60570Y-30216D02*
X60590Y-30236D01*
X67702Y-32444D02*
X67702Y-31450D01*
X66488Y-31196D02*
X67449Y-31196D01*
X67449Y-31196D02*
X67702Y-31450D01*
X66224Y-22874D02*
X65824Y-22874D01*
X65824Y-22874D02*
X65569Y-22619D01*
X65569Y-22619D02*
X65293Y-22619D01*
X68224Y-22874D02*
X66224Y-22874D01*
X63970Y-21929D02*
X64000Y-21900D01*
X63543Y-21756D02*
X63543Y-21929D01*
X64000Y-21300D02*
X63543Y-21756D01*
X63870Y-21929D02*
X63543Y-21929D01*
X64500Y-21300D02*
X63870Y-21929D01*
X64470Y-21929D02*
X63543Y-21929D01*
X64500Y-21900D02*
X64470Y-21929D01*
X63929Y-21929D02*
X63543Y-21929D01*
X64500Y-22500D02*
X63929Y-21929D01*
X63543Y-22143D02*
X63543Y-21929D01*
X64500Y-23100D02*
X63543Y-22143D01*
X63543Y-22643D02*
X63543Y-21929D01*
X64000Y-23100D02*
X63543Y-22643D01*
X63543Y-22043D02*
X63543Y-21929D01*
X64000Y-22500D02*
X63543Y-22043D01*
X63543Y-22456D02*
X63543Y-21929D01*
X63500Y-22500D02*
X63543Y-22456D01*
X63543Y-23056D02*
X63543Y-21929D01*
X63500Y-23100D02*
X63543Y-23056D01*
X63543Y-22456D02*
X63543Y-21929D01*
X62900Y-23100D02*
X63543Y-22456D01*
X63470Y-21929D02*
X63543Y-21929D01*
X62900Y-22500D02*
X63470Y-21929D01*
X62929Y-21929D02*
X63543Y-21929D01*
X62900Y-21900D02*
X62929Y-21929D01*
X63529Y-21929D02*
X63543Y-21929D01*
X62900Y-21300D02*
X63529Y-21929D01*
X63543Y-21343D02*
X63543Y-21929D01*
X63500Y-21300D02*
X63543Y-21343D01*
X63543Y-20843D02*
X63543Y-21929D01*
X63500Y-20800D02*
X63543Y-20843D01*
X63543Y-21443D02*
X63543Y-21929D01*
X62900Y-20800D02*
X63543Y-21443D01*
X63529Y-21929D02*
X63543Y-21929D01*
X62400Y-20800D02*
X63529Y-21929D01*
X63029Y-21929D02*
X63543Y-21929D01*
X62400Y-21300D02*
X63029Y-21929D01*
X62429Y-21929D02*
X63543Y-21929D01*
X62400Y-21900D02*
X62429Y-21929D01*
X62970Y-21929D02*
X63543Y-21929D01*
X62400Y-22500D02*
X62970Y-21929D01*
X63543Y-21956D02*
X63543Y-21929D01*
X62400Y-23100D02*
X63543Y-21956D01*
X63543Y-21256D02*
X63543Y-21929D01*
X64000Y-20800D02*
X63543Y-21256D01*
X63543Y-21756D02*
X63543Y-21929D01*
X64500Y-20800D02*
X63543Y-21756D01*
X59251Y-19802D02*
X59251Y-20152D01*
X58862Y-20916D02*
X59377Y-21431D01*
X59377Y-21431D02*
X59377Y-21542D01*
X58862Y-20916D02*
X58862Y-20235D01*
X58862Y-20235D02*
X58945Y-20152D01*
X58945Y-20152D02*
X59251Y-20152D01*
X60039Y-19802D02*
X59649Y-19802D01*
X59251Y-19644D02*
X59491Y-19644D01*
X59491Y-19644D02*
X59649Y-19802D01*
X59251Y-19644D02*
X59251Y-19451D01*
X59251Y-19802D02*
X59251Y-19644D01*
X59377Y-21542D02*
X59392Y-21542D01*
X59377Y-21542D02*
X59377Y-22181D01*
X59377Y-22181D02*
X59153Y-22405D01*
X59153Y-22736D02*
X59153Y-22405D01*
X61793Y-20449D02*
X61793Y-20058D01*
X61793Y-20058D02*
X61692Y-19958D01*
X59251Y-19451D02*
X59158Y-19358D01*
X59158Y-19358D02*
X59158Y-18771D01*
X65385Y-20373D02*
X65396Y-20373D01*
X65396Y-20373D02*
X65567Y-20544D01*
X65567Y-20544D02*
X65567Y-21239D01*
X65293Y-20449D02*
X65369Y-20373D01*
X65369Y-20373D02*
X65385Y-20373D01*
X65385Y-20205D02*
X65385Y-20373D01*
X65293Y-21239D02*
X65567Y-21239D01*
X54705Y-21259D02*
X54705Y-20890D01*
X55306Y-20393D02*
X54809Y-20890D01*
X54809Y-20890D02*
X54705Y-20890D01*
X63443Y-23679D02*
X63443Y-23953D01*
X63295Y-24017D02*
X63359Y-23953D01*
X63359Y-23953D02*
X63443Y-23953D01*
X62212Y-24036D02*
X62280Y-24036D01*
X62280Y-24036D02*
X62463Y-23852D01*
X62463Y-23852D02*
X62463Y-23679D01*
X66181Y-20178D02*
X66181Y-20528D01*
X66224Y-20742D02*
X66224Y-20572D01*
X66224Y-20572D02*
X66181Y-20528D01*
X65619Y-21651D02*
X66050Y-21220D01*
X66050Y-21220D02*
X66224Y-21220D01*
X65567Y-21629D02*
X65590Y-21651D01*
X65590Y-21651D02*
X65619Y-21651D01*
X66224Y-21220D02*
X66224Y-20742D01*
X65293Y-21629D02*
X65567Y-21629D01*
X67737Y-19448D02*
X67386Y-19448D01*
X67386Y-19448D02*
X67386Y-19755D01*
X67386Y-19755D02*
X66964Y-20178D01*
X66964Y-20178D02*
X66181Y-20178D01*
X59748Y-26326D02*
X59748Y-26323D01*
X59748Y-26323D02*
X59748Y-26212D01*
X59759Y-26338D02*
X59748Y-26326D01*
X61614Y-25375D02*
X61614Y-25725D01*
X58759Y-26338D02*
X58759Y-25743D01*
X58759Y-25743D02*
X61595Y-25743D01*
X61595Y-25743D02*
X61614Y-25725D01*
X62853Y-23901D02*
X62853Y-23679D01*
X62003Y-24274D02*
X62480Y-24274D01*
X61653Y-24625D02*
X62003Y-24274D01*
X61614Y-24625D02*
X61653Y-24625D01*
X62480Y-24274D02*
X62853Y-23901D01*
X60759Y-26338D02*
X60759Y-26157D01*
X60759Y-26157D02*
X61019Y-25897D01*
X61019Y-25897D02*
X61878Y-25897D01*
X61878Y-25897D02*
X62050Y-25725D01*
X62050Y-25725D02*
X62401Y-25725D01*
X62401Y-25725D02*
X62401Y-25375D01*
X62401Y-24531D02*
X63010Y-23922D01*
X62401Y-24625D02*
X62401Y-24531D01*
X63010Y-23922D02*
X63053Y-23922D01*
X63053Y-23922D02*
X63053Y-23679D01*
X63843Y-23679D02*
X63843Y-23953D01*
X63843Y-23953D02*
X63385Y-24411D01*
X63385Y-24411D02*
X63385Y-24625D01*
X60614Y-24544D02*
X59269Y-24544D01*
X59269Y-24544D02*
X59251Y-24526D01*
X62063Y-23679D02*
X61853Y-23679D01*
X60747Y-24355D02*
X60708Y-24355D01*
X61853Y-23679D02*
X61847Y-23685D01*
X61847Y-23685D02*
X61417Y-23685D01*
X61417Y-23685D02*
X60747Y-24355D01*
X60457Y-24651D02*
X60457Y-24606D01*
X60457Y-24651D02*
X60457Y-24606D01*
X60457Y-24606D02*
X60708Y-24355D01*
X60808Y-24606D02*
X60819Y-24594D01*
X59290Y-24527D02*
X59290Y-24527D01*
X59290Y-24527D02*
X59252Y-24527D01*
X59252Y-24527D02*
X59252Y-24526D01*
X59252Y-24526D02*
X59251Y-24526D01*
X59571Y-23720D02*
X59571Y-24245D01*
X59571Y-24245D02*
X59290Y-24527D01*
X59922Y-23720D02*
X59571Y-23720D01*
X60984Y-23401D02*
X60540Y-23401D01*
X61645Y-23401D02*
X61532Y-23401D01*
X60992Y-23401D02*
X61532Y-23401D01*
X60984Y-23401D02*
X60992Y-23401D01*
X60540Y-23401D02*
X60523Y-23384D01*
X60614Y-23794D02*
X60614Y-23475D01*
X60523Y-23384D02*
X60614Y-23475D01*
X59172Y-23720D02*
X59561Y-23330D01*
X60469Y-23330D02*
X60523Y-23384D01*
X59561Y-23330D02*
X60469Y-23330D01*
X58366Y-23739D02*
X58755Y-23739D01*
X59172Y-23720D02*
X58774Y-23720D01*
X58774Y-23720D02*
X58755Y-23739D01*
X65488Y-28602D02*
X65488Y-29196D01*
X65488Y-29196D02*
X65516Y-29225D01*
X65516Y-29225D02*
X65516Y-29343D01*
X51968Y-30333D02*
X51598Y-30333D01*
X51454Y-30118D02*
X51598Y-30262D01*
X51598Y-30262D02*
X51598Y-30333D01*
X51968Y-30333D02*
X52338Y-30333D01*
X52774Y-30019D02*
X52424Y-30019D01*
X52338Y-30333D02*
X52338Y-30105D01*
X52338Y-30105D02*
X52424Y-30019D01*
G54D37*
X58169Y-29349D02*
X58169Y-28998D01*
X58759Y-28338D02*
X58759Y-28933D01*
X58759Y-28933D02*
X58234Y-28933D01*
X58234Y-28933D02*
X58169Y-28998D01*
X57892Y-30905D02*
X57892Y-30515D01*
X58169Y-30099D02*
X58169Y-30450D01*
X57892Y-30515D02*
X58103Y-30515D01*
X58103Y-30515D02*
X58169Y-30450D01*
G54D36*
X58169Y-30099D02*
X58558Y-30099D01*
X59409Y-30216D02*
X58676Y-30216D01*
X58676Y-30216D02*
X58558Y-30099D01*
X63992Y-24167D02*
X64033Y-24126D01*
X64033Y-24126D02*
X64033Y-23679D01*
X58622Y-32344D02*
X58653Y-32376D01*
X58653Y-32376D02*
X58653Y-33205D01*
X58622Y-30926D02*
X58642Y-30905D01*
G54D37*
X58622Y-32344D02*
X58622Y-30926D01*
G54D36*
X52342Y-31353D02*
X52342Y-30987D01*
X52342Y-30987D02*
X52424Y-30905D01*
X52342Y-31462D02*
X52342Y-31353D01*
X51968Y-31353D02*
X52342Y-31353D01*
X52774Y-30905D02*
X52424Y-30905D01*
X52342Y-31791D02*
X52342Y-31462D01*
X51968Y-31083D02*
X51968Y-31353D01*
X65579Y-18110D02*
X65579Y-18598D01*
X61372Y-21567D02*
X61434Y-21629D01*
X61434Y-21629D02*
X61793Y-21629D01*
X65579Y-18598D02*
X65628Y-18647D01*
X65628Y-18647D02*
X65628Y-18782D01*
X65329Y-14960D02*
X65329Y-16389D01*
X65329Y-16389D02*
X65340Y-16400D01*
X61347Y-20927D02*
X61407Y-20927D01*
X61407Y-20927D02*
X61518Y-21039D01*
X61793Y-21039D02*
X61518Y-21039D01*
X65329Y-18110D02*
X65329Y-19872D01*
X65329Y-19872D02*
X65023Y-20179D01*
X65079Y-14960D02*
X65079Y-16913D01*
X65079Y-16913D02*
X64425Y-17568D01*
X61793Y-21239D02*
X61518Y-21239D01*
X61432Y-21206D02*
X61485Y-21206D01*
X61485Y-21206D02*
X61518Y-21239D01*
X65079Y-18110D02*
X65079Y-18598D01*
X65079Y-18598D02*
X64823Y-18854D01*
X64823Y-18854D02*
X64823Y-20179D01*
X61518Y-21439D02*
X61473Y-21393D01*
X61473Y-21393D02*
X61347Y-21393D01*
X61347Y-21393D02*
X61144Y-21190D01*
X61144Y-21190D02*
X61144Y-19891D01*
X61144Y-19891D02*
X61220Y-19815D01*
X64829Y-14960D02*
X64829Y-15826D01*
X64829Y-15826D02*
X64661Y-15995D01*
X61793Y-21439D02*
X61518Y-21439D01*
X64829Y-18110D02*
X64829Y-18598D01*
X64829Y-18598D02*
X64623Y-18804D01*
X64623Y-18804D02*
X64623Y-20179D01*
X64579Y-18110D02*
X64579Y-18598D01*
X64579Y-18598D02*
X64433Y-18744D01*
X64433Y-18744D02*
X64433Y-20179D01*
X64329Y-18110D02*
X64329Y-18598D01*
X64329Y-18598D02*
X64233Y-18694D01*
X64233Y-18694D02*
X64233Y-20179D01*
X64079Y-18110D02*
X64079Y-18598D01*
X64079Y-18598D02*
X64033Y-18644D01*
X64033Y-18644D02*
X64033Y-20179D01*
X63579Y-14960D02*
X63579Y-15448D01*
X63579Y-15448D02*
X63579Y-17300D01*
X63579Y-17300D02*
X63440Y-17440D01*
X61895Y-19168D02*
X62063Y-19336D01*
X62063Y-19336D02*
X62063Y-20179D01*
X63579Y-18110D02*
X63579Y-18598D01*
X63579Y-18598D02*
X63843Y-18862D01*
X63843Y-18862D02*
X63843Y-20179D01*
X63329Y-18110D02*
X63329Y-18598D01*
X63329Y-18598D02*
X63643Y-18912D01*
X63643Y-18912D02*
X63643Y-20179D01*
X63079Y-18110D02*
X63079Y-18598D01*
X63079Y-18598D02*
X63443Y-18962D01*
X63443Y-18962D02*
X63443Y-20179D01*
X62829Y-18110D02*
X62829Y-18598D01*
X62829Y-18598D02*
X63243Y-19012D01*
X63243Y-19012D02*
X63243Y-20179D01*
X62579Y-18110D02*
X62579Y-18598D01*
X62579Y-18598D02*
X63053Y-19072D01*
X63053Y-19072D02*
X63053Y-20179D01*
X62329Y-18110D02*
X62329Y-18598D01*
X62853Y-20179D02*
X62853Y-19122D01*
X62853Y-19122D02*
X62329Y-18598D01*
X62079Y-18110D02*
X62079Y-18598D01*
X62079Y-18598D02*
X62653Y-19172D01*
X62653Y-19172D02*
X62653Y-20179D01*
X62463Y-19904D02*
X62463Y-19232D01*
X62463Y-19232D02*
X61829Y-18598D01*
X62463Y-20179D02*
X62463Y-19904D01*
X61829Y-18110D02*
X61829Y-18598D01*
X62263Y-19904D02*
X62263Y-19282D01*
X62263Y-19282D02*
X61579Y-18598D01*
X62263Y-20179D02*
X62263Y-19904D01*
X61579Y-18110D02*
X61579Y-18598D01*
X54351Y-18528D02*
X54484Y-18528D01*
X54484Y-18528D02*
X56070Y-16942D01*
X61329Y-14960D02*
X61329Y-15928D01*
X61329Y-15928D02*
X60415Y-16842D01*
X60415Y-16842D02*
X59972Y-16842D01*
X59972Y-16842D02*
X59703Y-16572D01*
X54351Y-18897D02*
X54351Y-18528D01*
X61079Y-18598D02*
X61287Y-18806D01*
X61287Y-18806D02*
X61287Y-19382D01*
X60004Y-22736D02*
X60004Y-21024D01*
X60004Y-21024D02*
X60065Y-20963D01*
X61079Y-18110D02*
X61079Y-18598D01*
X59941Y-22736D02*
X60004Y-22736D01*
X60004Y-22736D02*
X60193Y-22736D01*
X60193Y-22736D02*
X60466Y-23009D01*
X60466Y-23009D02*
X61793Y-23009D01*
X60829Y-15448D02*
X60860Y-15479D01*
X60860Y-15479D02*
X60860Y-15971D01*
X60860Y-15971D02*
X60453Y-16378D01*
X60829Y-14960D02*
X60829Y-15448D01*
X60686Y-15696D02*
X60579Y-15589D01*
X60579Y-15589D02*
X60579Y-14960D01*
X61518Y-21829D02*
X61389Y-21829D01*
X61389Y-21829D02*
X60938Y-21378D01*
X60938Y-21378D02*
X60938Y-19276D01*
X60938Y-19276D02*
X60579Y-18918D01*
X60579Y-18918D02*
X60579Y-18598D01*
X61793Y-21829D02*
X61518Y-21829D01*
X60579Y-18110D02*
X60579Y-18598D01*
X60329Y-14960D02*
X60329Y-14472D01*
X52737Y-18897D02*
X52467Y-18897D01*
X52467Y-18897D02*
X52467Y-15408D01*
X52467Y-15408D02*
X52524Y-15352D01*
X52524Y-15352D02*
X55533Y-15352D01*
X55533Y-15352D02*
X56803Y-14082D01*
X56803Y-14082D02*
X59939Y-14082D01*
X59939Y-14082D02*
X60329Y-14472D01*
X61793Y-22029D02*
X61410Y-22029D01*
X61410Y-22029D02*
X60812Y-21430D01*
X60812Y-21430D02*
X60812Y-19329D01*
X60812Y-19329D02*
X60329Y-18846D01*
X60329Y-18846D02*
X60329Y-18598D01*
X60329Y-18598D02*
X60329Y-18598D01*
X60329Y-18110D02*
X60329Y-18598D01*
X60079Y-15448D02*
X60079Y-16359D01*
X60079Y-16359D02*
X60248Y-16528D01*
X60079Y-14960D02*
X60079Y-15448D01*
X61518Y-22229D02*
X61432Y-22229D01*
X61432Y-22229D02*
X60686Y-21482D01*
X60686Y-21482D02*
X60686Y-19381D01*
X60686Y-19381D02*
X60079Y-18775D01*
X60079Y-18775D02*
X60079Y-18110D01*
X61793Y-22229D02*
X61518Y-22229D01*
X53006Y-15748D02*
X53276Y-15478D01*
X53276Y-15478D02*
X55780Y-15478D01*
X55780Y-15478D02*
X57045Y-14213D01*
X57045Y-14213D02*
X59320Y-14213D01*
X59320Y-14213D02*
X59579Y-14472D01*
X59579Y-14960D02*
X59579Y-14472D01*
X52737Y-15748D02*
X53006Y-15748D01*
X61793Y-22419D02*
X61435Y-22419D01*
X61435Y-22419D02*
X60559Y-21544D01*
X60559Y-21544D02*
X60559Y-19437D01*
X60559Y-19437D02*
X59721Y-18598D01*
X59721Y-18598D02*
X59579Y-18598D01*
X59579Y-18110D02*
X59579Y-18598D01*
X53006Y-18110D02*
X53006Y-17840D01*
X53006Y-17840D02*
X53461Y-17385D01*
X53461Y-17385D02*
X53461Y-16448D01*
X53461Y-16448D02*
X53832Y-16077D01*
X53832Y-16077D02*
X55359Y-16077D01*
X55359Y-16077D02*
X57096Y-14340D01*
X57096Y-14340D02*
X59198Y-14340D01*
X59198Y-14340D02*
X59329Y-14472D01*
X59329Y-14960D02*
X59329Y-14472D01*
X52737Y-18110D02*
X53006Y-18110D01*
X61793Y-22619D02*
X61518Y-22619D01*
X59329Y-18110D02*
X59329Y-18598D01*
X59329Y-18598D02*
X60154Y-19423D01*
X60154Y-19423D02*
X60367Y-19423D01*
X60367Y-19423D02*
X60429Y-19484D01*
X60429Y-19484D02*
X60429Y-21591D01*
X60429Y-21591D02*
X61382Y-22545D01*
X61382Y-22545D02*
X61444Y-22545D01*
X61444Y-22545D02*
X61518Y-22619D01*
X59135Y-15505D02*
X59079Y-15448D01*
X59079Y-14960D02*
X59079Y-15448D01*
X59079Y-18110D02*
X59079Y-18598D01*
X61408Y-22756D02*
X61471Y-22819D01*
X61471Y-22819D02*
X61793Y-22819D01*
X59079Y-18598D02*
X58681Y-18996D01*
X58681Y-18996D02*
X58681Y-21231D01*
X58681Y-21231D02*
X59185Y-21735D01*
X58829Y-14472D02*
X57210Y-14472D01*
X57210Y-14472D02*
X55967Y-15715D01*
X55967Y-15715D02*
X55967Y-16724D01*
X55967Y-16724D02*
X54620Y-18070D01*
X58829Y-14960D02*
X58829Y-14472D01*
X54351Y-18070D02*
X54620Y-18070D01*
X58829Y-17621D02*
X58449Y-17242D01*
X58449Y-17242D02*
X58228Y-17242D01*
X58829Y-18110D02*
X58829Y-17621D01*
X52737Y-14960D02*
X53809Y-14960D01*
X53809Y-14960D02*
X53870Y-15022D01*
X53006Y-17322D02*
X53335Y-16994D01*
X53335Y-16994D02*
X53335Y-16365D01*
X53335Y-16365D02*
X53860Y-15841D01*
X53860Y-15841D02*
X54946Y-15841D01*
X52737Y-17322D02*
X53006Y-17322D01*
X58643Y-15547D02*
X58579Y-15484D01*
X58579Y-15484D02*
X58579Y-14960D01*
X58579Y-17621D02*
X58374Y-17416D01*
X53162Y-16501D02*
X53127Y-16535D01*
X53127Y-16535D02*
X52737Y-16535D01*
X58579Y-18110D02*
X58579Y-17621D01*
X53006Y-14173D02*
X53006Y-14326D01*
X53006Y-14326D02*
X53465Y-14784D01*
X57939Y-17309D02*
X58251Y-17621D01*
X58251Y-17621D02*
X58329Y-17621D01*
X52737Y-14173D02*
X53006Y-14173D01*
X58329Y-18110D02*
X58329Y-17621D01*
X57829Y-18598D02*
X57854Y-18623D01*
X57854Y-18623D02*
X57854Y-19511D01*
X60763Y-18856D02*
X61069Y-19163D01*
X61069Y-19163D02*
X61069Y-19409D01*
X61069Y-19409D02*
X61393Y-19733D01*
X61393Y-19733D02*
X61393Y-19733D01*
X61393Y-19733D02*
X61393Y-19887D01*
X61393Y-19887D02*
X61386Y-19893D01*
X61386Y-19893D02*
X61386Y-20717D01*
X61386Y-20717D02*
X61518Y-20849D01*
X57829Y-18110D02*
X57829Y-18598D01*
X61793Y-20849D02*
X61518Y-20849D01*
X57579Y-14960D02*
X57579Y-15546D01*
X57579Y-15546D02*
X57543Y-15582D01*
X57545Y-19435D02*
X57579Y-19400D01*
X57579Y-19400D02*
X57579Y-18110D01*
X57329Y-15448D02*
X56380Y-16398D01*
X56380Y-16398D02*
X56380Y-16993D01*
X56380Y-16993D02*
X56124Y-17248D01*
X56124Y-17248D02*
X56124Y-17693D01*
X57329Y-14960D02*
X57329Y-15448D01*
X57329Y-18598D02*
X57199Y-18598D01*
X57199Y-18598D02*
X57100Y-18499D01*
X57100Y-18499D02*
X57100Y-18356D01*
X57329Y-18110D02*
X57329Y-18598D01*
X52460Y-32854D02*
X52460Y-32454D01*
X52460Y-32454D02*
X52251Y-32454D01*
X52251Y-32454D02*
X51870Y-32072D01*
X53248Y-32854D02*
X52460Y-32854D01*
X51870Y-31791D02*
X51870Y-32072D01*
X51476Y-32854D02*
X51476Y-32454D01*
X51476Y-32454D02*
X51858Y-32072D01*
X51858Y-32072D02*
X51870Y-32072D01*
X53248Y-32854D02*
X53248Y-32454D01*
X53248Y-32454D02*
X53456Y-32454D01*
X53456Y-32454D02*
X53838Y-32072D01*
X53838Y-31791D02*
X53838Y-32072D01*
X54232Y-32854D02*
X54232Y-32454D01*
X54232Y-32454D02*
X53850Y-32072D01*
X53850Y-32072D02*
X53838Y-32072D01*
X51987Y-18528D02*
X51798Y-18528D01*
X51798Y-18528D02*
X51240Y-17970D01*
X51240Y-17970D02*
X50893Y-17970D01*
X51987Y-18897D02*
X51987Y-18528D01*
X50893Y-17535D02*
X50893Y-17970D01*
X51987Y-17322D02*
X51717Y-17322D01*
X50893Y-16535D02*
X51328Y-16535D01*
X51328Y-16535D02*
X51328Y-16933D01*
X51328Y-16933D02*
X51717Y-17322D01*
X53601Y-18070D02*
X53331Y-18070D01*
X53271Y-17959D02*
X53331Y-18020D01*
X53331Y-18020D02*
X53331Y-18070D01*
X53601Y-18897D02*
X53331Y-18897D01*
X49893Y-18535D02*
X50328Y-18535D01*
X50328Y-18535D02*
X50328Y-18807D01*
X50328Y-18807D02*
X50788Y-19267D01*
X50788Y-19267D02*
X52962Y-19267D01*
X52962Y-19267D02*
X53331Y-18897D01*
X64488Y-30602D02*
X64488Y-31148D01*
X66298Y-31224D02*
X66456Y-31382D01*
X64564Y-31224D02*
X66298Y-31224D01*
X64488Y-31148D02*
X64564Y-31224D01*
X66456Y-31382D02*
X66456Y-32344D01*
X66488Y-33205D02*
X66488Y-32376D01*
X66488Y-32376D02*
X66456Y-32344D01*
G54D37*
X66456Y-31382D02*
X66456Y-32344D01*
X66388Y-31314D02*
X66456Y-31382D01*
X66335Y-31261D02*
X66388Y-31314D01*
X65910Y-31224D02*
X65588Y-31224D01*
X66291Y-31224D02*
X65910Y-31224D01*
X65525Y-31196D02*
X65255Y-31196D01*
G54D36*
X65525Y-31196D02*
X66204Y-31196D01*
G54D37*
X64896Y-31196D02*
X64536Y-31196D01*
G54D36*
X64488Y-31196D02*
X64896Y-31196D01*
G54D37*
X64488Y-31108D02*
X64488Y-30602D01*
G54D36*
X64488Y-31108D02*
X64488Y-31196D01*
G54D37*
X65023Y-31196D02*
X65067Y-31196D01*
X64896Y-31196D02*
X65023Y-31196D01*
G54D36*
X65067Y-31196D02*
X65525Y-31196D01*
G54D37*
X66328Y-31261D02*
X66291Y-31224D01*
G54D36*
X62952Y-25889D02*
X62425Y-26417D01*
X62425Y-26417D02*
X61889Y-26417D01*
X62952Y-25889D02*
X62952Y-24371D01*
X62952Y-24371D02*
X63049Y-24274D01*
X63049Y-24274D02*
X63322Y-24274D01*
X63322Y-24274D02*
X63643Y-23953D01*
X63643Y-23953D02*
X63643Y-23679D01*
X65669Y-25590D02*
X65669Y-25921D01*
X65669Y-25921D02*
X65625Y-25965D01*
X65625Y-25965D02*
X65625Y-27354D01*
X65625Y-27354D02*
X66278Y-28007D01*
X66278Y-28007D02*
X66488Y-28007D01*
X66488Y-28602D02*
X66488Y-28007D01*
X65293Y-23209D02*
X65567Y-23209D01*
X65669Y-25590D02*
X65669Y-23310D01*
X65669Y-23310D02*
X65567Y-23209D01*
X64629Y-25590D02*
X64629Y-24286D01*
X64629Y-24286D02*
X64660Y-24255D01*
X64660Y-24255D02*
X64660Y-23990D01*
X64660Y-23990D02*
X64623Y-23953D01*
X64488Y-28602D02*
X64488Y-28007D01*
X64488Y-28007D02*
X64330Y-28007D01*
X64330Y-28007D02*
X63801Y-27478D01*
X63801Y-27478D02*
X63801Y-26418D01*
X63801Y-26418D02*
X64629Y-25590D01*
X64623Y-23679D02*
X64623Y-23953D01*
X64881Y-25590D02*
X64629Y-25590D01*
X68224Y-21220D02*
X67824Y-21220D01*
X67824Y-21220D02*
X67216Y-21829D01*
X67216Y-21829D02*
X65293Y-21829D01*
X51987Y-18110D02*
X51987Y-17740D01*
X49893Y-16535D02*
X50328Y-16535D01*
X50328Y-16535D02*
X50328Y-16592D01*
X50328Y-16592D02*
X50771Y-17035D01*
X50771Y-17035D02*
X51031Y-17035D01*
X51031Y-17035D02*
X51736Y-17740D01*
X51736Y-17740D02*
X51987Y-17740D01*
X51987Y-15748D02*
X51717Y-15748D01*
X50893Y-15535D02*
X51505Y-15535D01*
X51505Y-15535D02*
X51717Y-15748D01*
X51987Y-14960D02*
X51717Y-14960D01*
X50893Y-14535D02*
X51328Y-14535D01*
X51328Y-14535D02*
X51717Y-14924D01*
X51717Y-14924D02*
X51717Y-14960D01*
X51987Y-16535D02*
X51717Y-16535D01*
X49893Y-15535D02*
X50328Y-15535D01*
X50328Y-15535D02*
X50328Y-15589D01*
X50328Y-15589D02*
X50708Y-15970D01*
X50708Y-15970D02*
X51152Y-15970D01*
X51152Y-15970D02*
X51717Y-16535D01*
X51987Y-14173D02*
X51717Y-14173D01*
X49893Y-14535D02*
X50328Y-14535D01*
X50328Y-14535D02*
X50328Y-14481D01*
X50328Y-14481D02*
X50721Y-14087D01*
X50721Y-14087D02*
X51631Y-14087D01*
X51631Y-14087D02*
X51717Y-14173D01*
X54705Y-22834D02*
X54975Y-22834D01*
X66829Y-14960D02*
X66829Y-15677D01*
X66829Y-15677D02*
X66820Y-15687D01*
X54975Y-22834D02*
X54975Y-22754D01*
X54975Y-22754D02*
X55067Y-22662D01*
X64579Y-15448D02*
X64575Y-15452D01*
X64575Y-15452D02*
X64575Y-15530D01*
X64579Y-14960D02*
X64579Y-15448D01*
X52737Y-22047D02*
X53157Y-22047D01*
X53157Y-22047D02*
X53271Y-21933D01*
X54705Y-23622D02*
X54975Y-23622D01*
X64078Y-17139D02*
X64329Y-16887D01*
X64329Y-16887D02*
X64329Y-14960D01*
X54975Y-23622D02*
X54975Y-23550D01*
X54975Y-23550D02*
X55079Y-23445D01*
X52737Y-22834D02*
X53089Y-22834D01*
X53089Y-22834D02*
X53458Y-23204D01*
X53458Y-23204D02*
X54181Y-23204D01*
X54181Y-23204D02*
X54436Y-22949D01*
X54436Y-22949D02*
X54436Y-22520D01*
X54436Y-22520D02*
X54500Y-22455D01*
X54500Y-22455D02*
X54886Y-22455D01*
X54886Y-22455D02*
X55486Y-21855D01*
X55486Y-21855D02*
X55486Y-19611D01*
X55486Y-19611D02*
X55462Y-19587D01*
X63990Y-15725D02*
X64079Y-15635D01*
X64079Y-15635D02*
X64079Y-14960D01*
X54705Y-24409D02*
X54975Y-24409D01*
X63329Y-14960D02*
X63329Y-15448D01*
X63329Y-15448D02*
X63353Y-15472D01*
X63353Y-15472D02*
X63353Y-15523D01*
X54975Y-24409D02*
X56067Y-23317D01*
X56067Y-23317D02*
X56067Y-19119D01*
X52737Y-23622D02*
X53006Y-23622D01*
X63005Y-16930D02*
X63079Y-16856D01*
X63079Y-16856D02*
X63079Y-14960D01*
X53006Y-23622D02*
X53376Y-23991D01*
X53376Y-23991D02*
X54179Y-23991D01*
X54179Y-23991D02*
X54315Y-23855D01*
X54315Y-23855D02*
X54315Y-23401D01*
X54315Y-23401D02*
X54512Y-23204D01*
X54512Y-23204D02*
X54935Y-23204D01*
X54935Y-23204D02*
X55693Y-22446D01*
X55693Y-22446D02*
X55693Y-19601D01*
X62829Y-15448D02*
X62829Y-15880D01*
X62829Y-15880D02*
X61248Y-17461D01*
X61248Y-17461D02*
X59543Y-17461D01*
X54975Y-25196D02*
X55023Y-25196D01*
X55023Y-25196D02*
X56240Y-23979D01*
X56240Y-23979D02*
X56240Y-19047D01*
X56240Y-19047D02*
X56151Y-18958D01*
X56151Y-18958D02*
X56151Y-17923D01*
X56151Y-17923D02*
X56345Y-17729D01*
X56345Y-17729D02*
X56345Y-17635D01*
X62829Y-14960D02*
X62829Y-15448D01*
X54705Y-25196D02*
X54975Y-25196D01*
X52737Y-24803D02*
X54149Y-24803D01*
X54149Y-24803D02*
X54357Y-24595D01*
X54357Y-24595D02*
X54357Y-24161D01*
X54357Y-24161D02*
X54501Y-24017D01*
X54501Y-24017D02*
X54917Y-24017D01*
X54917Y-24017D02*
X55867Y-23067D01*
X55867Y-23067D02*
X55867Y-19002D01*
X55867Y-19002D02*
X55819Y-18954D01*
X62329Y-15448D02*
X62329Y-16129D01*
X62329Y-16129D02*
X62313Y-16145D01*
X62329Y-14960D02*
X62329Y-15448D01*
X62079Y-14960D02*
X62079Y-16271D01*
X62079Y-16271D02*
X61978Y-16372D01*
X54975Y-25984D02*
X56492Y-24466D01*
X56492Y-24466D02*
X56492Y-18771D01*
X56492Y-18771D02*
X56463Y-18741D01*
X54705Y-25984D02*
X54975Y-25984D01*
X56946Y-24492D02*
X56926Y-24472D01*
X56926Y-24472D02*
X56926Y-17898D01*
X56926Y-17898D02*
X57759Y-17066D01*
X57759Y-17066D02*
X58403Y-17066D01*
X58403Y-17066D02*
X58443Y-17107D01*
X58443Y-17107D02*
X60529Y-17107D01*
X60529Y-17107D02*
X61829Y-15806D01*
X61829Y-15806D02*
X61829Y-14960D01*
X52737Y-25590D02*
X54158Y-25590D01*
X54158Y-25590D02*
X54304Y-25444D01*
X54304Y-25444D02*
X54304Y-25007D01*
X54304Y-25007D02*
X54484Y-24827D01*
X54484Y-24827D02*
X55147Y-24827D01*
X55147Y-24827D02*
X55482Y-24492D01*
X54705Y-26771D02*
X54975Y-26771D01*
X61579Y-14960D02*
X61579Y-15856D01*
X61579Y-15856D02*
X60464Y-16971D01*
X60464Y-16971D02*
X58575Y-16971D01*
X58575Y-16971D02*
X58544Y-16940D01*
X58544Y-16940D02*
X57706Y-16940D01*
X57706Y-16940D02*
X56769Y-17878D01*
X56769Y-17878D02*
X56769Y-24977D01*
X56769Y-24977D02*
X54975Y-26771D01*
X58393Y-20480D02*
X57740Y-21132D01*
X57740Y-21132D02*
X57740Y-25901D01*
X57740Y-25901D02*
X54904Y-28737D01*
X54904Y-28737D02*
X54508Y-28737D01*
X54508Y-28737D02*
X54395Y-28624D01*
X54395Y-28624D02*
X54395Y-28181D01*
X54395Y-28181D02*
X54166Y-27952D01*
X54166Y-27952D02*
X52737Y-27952D01*
X60899Y-18680D02*
X60829Y-18611D01*
X60829Y-18611D02*
X60829Y-18110D01*
X54705Y-27559D02*
X54436Y-27559D01*
X58079Y-14960D02*
X58079Y-16389D01*
X58079Y-16389D02*
X56636Y-17832D01*
X56636Y-17832D02*
X56636Y-24640D01*
X56636Y-24640D02*
X54899Y-26377D01*
X54899Y-26377D02*
X54489Y-26377D01*
X54489Y-26377D02*
X54436Y-26431D01*
X54436Y-26431D02*
X54436Y-27559D01*
X54975Y-28346D02*
X57192Y-26129D01*
X57192Y-26129D02*
X57192Y-20417D01*
X57192Y-20417D02*
X58079Y-19530D01*
X58079Y-19530D02*
X58079Y-18598D01*
X58079Y-18110D02*
X58079Y-18598D01*
X54705Y-28346D02*
X54975Y-28346D01*
X53006Y-26771D02*
X53376Y-26402D01*
X53376Y-26402D02*
X54122Y-26402D01*
X54122Y-26402D02*
X54436Y-26088D01*
X54436Y-26088D02*
X54436Y-25644D01*
X54436Y-25644D02*
X54465Y-25614D01*
X54465Y-25614D02*
X54883Y-25614D01*
X54883Y-25614D02*
X56366Y-24131D01*
X56366Y-24131D02*
X56366Y-18995D01*
X56366Y-18995D02*
X56288Y-18917D01*
X56288Y-18917D02*
X56288Y-18001D01*
X56288Y-18001D02*
X57829Y-16460D01*
X57829Y-16460D02*
X57829Y-14960D01*
X52737Y-26771D02*
X53006Y-26771D01*
X50893Y-27712D02*
X51328Y-27712D01*
X51328Y-27712D02*
X51568Y-27952D01*
X51568Y-27952D02*
X51987Y-27952D01*
X51987Y-26771D02*
X51717Y-26771D01*
X50893Y-26712D02*
X51658Y-26712D01*
X51658Y-26712D02*
X51717Y-26771D01*
X51987Y-25590D02*
X51717Y-25590D01*
X50893Y-25712D02*
X51595Y-25712D01*
X51595Y-25712D02*
X51717Y-25590D01*
X51987Y-24803D02*
X51717Y-24803D01*
X50893Y-24712D02*
X51627Y-24712D01*
X51627Y-24712D02*
X51717Y-24803D01*
X51987Y-23622D02*
X51717Y-23622D01*
X50893Y-23712D02*
X51627Y-23712D01*
X51627Y-23712D02*
X51717Y-23622D01*
X51987Y-22834D02*
X51717Y-22834D01*
X50893Y-22712D02*
X51595Y-22712D01*
X51595Y-22712D02*
X51717Y-22834D01*
X50893Y-21712D02*
X51328Y-21712D01*
X51328Y-21712D02*
X51662Y-22047D01*
X51662Y-22047D02*
X51987Y-22047D01*
X53937Y-16535D02*
X53870Y-16602D01*
X53870Y-16602D02*
X53870Y-16982D01*
X52737Y-21259D02*
X52467Y-21259D01*
X50363Y-17113D02*
X50363Y-17687D01*
X50363Y-17687D02*
X50015Y-18035D01*
X50015Y-18035D02*
X49777Y-18035D01*
X49777Y-18035D02*
X49449Y-18363D01*
X49449Y-18363D02*
X49449Y-19884D01*
X49449Y-19884D02*
X49838Y-20273D01*
X49838Y-20273D02*
X51615Y-20273D01*
X51615Y-20273D02*
X52467Y-21125D01*
X52467Y-21125D02*
X52467Y-21259D01*
X50893Y-20712D02*
X51328Y-20712D01*
X51987Y-21259D02*
X51717Y-21259D01*
X51328Y-20712D02*
X51328Y-20870D01*
X51328Y-20870D02*
X51717Y-21259D01*
X54724Y-16535D02*
X53953Y-17306D01*
X53953Y-17306D02*
X53953Y-19133D01*
X53953Y-19133D02*
X53401Y-19685D01*
X53401Y-19685D02*
X52737Y-19685D01*
X51987Y-19685D02*
X51717Y-19685D01*
X50893Y-19712D02*
X51690Y-19712D01*
X51690Y-19712D02*
X51717Y-19685D01*
X49893Y-28712D02*
X50328Y-28712D01*
X50328Y-28712D02*
X50328Y-28440D01*
X50328Y-28440D02*
X50512Y-28257D01*
X50512Y-28257D02*
X51447Y-28257D01*
X51447Y-28257D02*
X51536Y-28346D01*
X51536Y-28346D02*
X53955Y-28346D01*
X53955Y-27559D02*
X53686Y-27559D01*
X49893Y-27712D02*
X50328Y-27712D01*
X50328Y-27712D02*
X50328Y-27658D01*
X50328Y-27658D02*
X50708Y-27277D01*
X50708Y-27277D02*
X53405Y-27277D01*
X53405Y-27277D02*
X53686Y-27559D01*
X53955Y-26771D02*
X53686Y-26771D01*
X49893Y-26712D02*
X50328Y-26712D01*
X50328Y-26712D02*
X50328Y-26766D01*
X50328Y-26766D02*
X50708Y-27147D01*
X50708Y-27147D02*
X53310Y-27147D01*
X53310Y-27147D02*
X53686Y-26771D01*
X53955Y-25984D02*
X53686Y-25984D01*
X49893Y-25712D02*
X50328Y-25712D01*
X50328Y-25712D02*
X50328Y-25766D01*
X50328Y-25766D02*
X50714Y-26152D01*
X50714Y-26152D02*
X53517Y-26152D01*
X53517Y-26152D02*
X53686Y-25984D01*
X49893Y-24712D02*
X50328Y-24712D01*
X50328Y-24712D02*
X50328Y-24766D01*
X50328Y-24766D02*
X50758Y-25196D01*
X50758Y-25196D02*
X53955Y-25196D01*
X53955Y-24409D02*
X53686Y-24409D01*
X49893Y-23712D02*
X50328Y-23712D01*
X50328Y-23712D02*
X50328Y-23766D01*
X50328Y-23766D02*
X50708Y-24147D01*
X50708Y-24147D02*
X53423Y-24147D01*
X53423Y-24147D02*
X53686Y-24409D01*
X53686Y-23622D02*
X53268Y-23204D01*
X53268Y-23204D02*
X50765Y-23204D01*
X50765Y-23204D02*
X50328Y-22766D01*
X50328Y-22766D02*
X50328Y-22712D01*
X53955Y-23622D02*
X53686Y-23622D01*
X49893Y-22712D02*
X50328Y-22712D01*
X53686Y-22834D02*
X53269Y-22417D01*
X53269Y-22417D02*
X51421Y-22417D01*
X51421Y-22417D02*
X51150Y-22147D01*
X51150Y-22147D02*
X50708Y-22147D01*
X50708Y-22147D02*
X50328Y-21766D01*
X50328Y-21766D02*
X50328Y-21712D01*
X53955Y-22834D02*
X53686Y-22834D01*
X49893Y-21712D02*
X50328Y-21712D01*
X53686Y-22047D02*
X53268Y-21629D01*
X53268Y-21629D02*
X51431Y-21629D01*
X51431Y-21629D02*
X50949Y-21147D01*
X50949Y-21147D02*
X50708Y-21147D01*
X50708Y-21147D02*
X50328Y-20766D01*
X50328Y-20766D02*
X50328Y-20712D01*
X53955Y-22047D02*
X53686Y-22047D01*
X49893Y-20712D02*
X50328Y-20712D01*
X55511Y-16535D02*
X55301Y-16535D01*
X55301Y-16535D02*
X54080Y-17756D01*
X54080Y-17756D02*
X54080Y-19841D01*
X54080Y-19841D02*
X54436Y-20197D01*
X54436Y-20197D02*
X54436Y-22047D01*
X54705Y-22047D02*
X54436Y-22047D01*
X53955Y-21259D02*
X53686Y-21259D01*
X49893Y-19712D02*
X50328Y-19712D01*
X50328Y-19712D02*
X50328Y-19766D01*
X50328Y-19766D02*
X50708Y-20147D01*
X50708Y-20147D02*
X52573Y-20147D01*
X52573Y-20147D02*
X53686Y-21259D01*
X64488Y-27165D02*
X65293Y-26360D01*
X65293Y-26360D02*
X65293Y-23409D01*
X64487Y-24183D02*
X64433Y-24129D01*
X64433Y-24129D02*
X64433Y-23679D01*
X66456Y-27165D02*
X65798Y-26507D01*
X65798Y-26507D02*
X65798Y-26282D01*
G54D38*
G36*
X51562Y-18985D02*
X50905Y-18985D01*
X50609Y-18690D01*
X50609Y-18535D01*
X50588Y-18427D01*
X50527Y-18336D01*
X50436Y-18275D01*
X50421Y-18272D01*
X50323Y-18125D01*
X50481Y-17967D01*
X50631Y-18067D01*
X50633Y-18077D01*
X50694Y-18169D01*
X50785Y-18230D01*
X50893Y-18251D01*
X51123Y-18251D01*
X51562Y-18690D01*
X51562Y-18985D01*
X51562Y-18985D01*
G37*
X51562Y-18985D02*
X50905Y-18985D01*
X50609Y-18690D01*
X50609Y-18535D01*
X50588Y-18427D01*
X50527Y-18336D01*
X50436Y-18275D01*
X50421Y-18272D01*
X50323Y-18125D01*
X50481Y-17967D01*
X50631Y-18067D01*
X50633Y-18077D01*
X50694Y-18169D01*
X50785Y-18230D01*
X50893Y-18251D01*
X51123Y-18251D01*
X51562Y-18690D01*
X51562Y-18985D01*
G36*
X56438Y-14049D02*
X55417Y-15070D01*
X54630Y-15070D01*
X54696Y-15026D01*
X54837Y-14815D01*
X54887Y-14566D01*
X54837Y-14318D01*
X54696Y-14107D01*
X54609Y-14049D01*
X56438Y-14049D01*
X56438Y-14049D01*
G37*
X56438Y-14049D02*
X55417Y-15070D01*
X54630Y-15070D01*
X54696Y-15026D01*
X54837Y-14815D01*
X54887Y-14566D01*
X54837Y-14318D01*
X54696Y-14107D01*
X54609Y-14049D01*
X56438Y-14049D01*
G36*
X59095Y-22065D02*
X58954Y-22206D01*
X58916Y-22262D01*
X58854Y-22288D01*
X58783Y-22358D01*
X58745Y-22450D01*
X58745Y-22549D01*
X58745Y-23021D01*
X58783Y-23113D01*
X58851Y-23181D01*
X58774Y-23213D01*
X58742Y-23246D01*
X58710Y-23233D01*
X58611Y-23233D01*
X58022Y-23233D01*
X58022Y-21249D01*
X58400Y-20870D01*
X58400Y-21231D01*
X58421Y-21339D01*
X58482Y-21430D01*
X58859Y-21807D01*
X58906Y-21921D01*
X58998Y-22013D01*
X59095Y-22053D01*
X59095Y-22065D01*
X59095Y-22065D01*
G37*
X59095Y-22065D02*
X58954Y-22206D01*
X58916Y-22262D01*
X58854Y-22288D01*
X58783Y-22358D01*
X58745Y-22450D01*
X58745Y-22549D01*
X58745Y-23021D01*
X58783Y-23113D01*
X58851Y-23181D01*
X58774Y-23213D01*
X58742Y-23246D01*
X58710Y-23233D01*
X58611Y-23233D01*
X58022Y-23233D01*
X58022Y-21249D01*
X58400Y-20870D01*
X58400Y-21231D01*
X58421Y-21339D01*
X58482Y-21430D01*
X58859Y-21807D01*
X58906Y-21921D01*
X58998Y-22013D01*
X59095Y-22053D01*
X59095Y-22065D01*
G36*
X59798Y-16256D02*
X59769Y-16244D01*
X59638Y-16244D01*
X59517Y-16293D01*
X59425Y-16386D01*
X59374Y-16507D01*
X59374Y-16637D01*
X59396Y-16690D01*
X58667Y-16690D01*
X58652Y-16680D01*
X58544Y-16658D01*
X58208Y-16658D01*
X58278Y-16588D01*
X58278Y-16588D01*
X58315Y-16533D01*
X58339Y-16496D01*
X58339Y-16496D01*
X58361Y-16389D01*
X58361Y-15726D01*
X58364Y-15733D01*
X58456Y-15826D01*
X58577Y-15876D01*
X58708Y-15876D01*
X58829Y-15826D01*
X58910Y-15744D01*
X58949Y-15783D01*
X59070Y-15833D01*
X59200Y-15833D01*
X59321Y-15783D01*
X59414Y-15691D01*
X59450Y-15604D01*
X59451Y-15604D01*
X59458Y-15604D01*
X59550Y-15604D01*
X59708Y-15604D01*
X59798Y-15567D01*
X59798Y-16256D01*
X59798Y-16256D01*
G37*
X59798Y-16256D02*
X59769Y-16244D01*
X59638Y-16244D01*
X59517Y-16293D01*
X59425Y-16386D01*
X59374Y-16507D01*
X59374Y-16637D01*
X59396Y-16690D01*
X58667Y-16690D01*
X58652Y-16680D01*
X58544Y-16658D01*
X58208Y-16658D01*
X58278Y-16588D01*
X58278Y-16588D01*
X58315Y-16533D01*
X58339Y-16496D01*
X58339Y-16496D01*
X58361Y-16389D01*
X58361Y-15726D01*
X58364Y-15733D01*
X58456Y-15826D01*
X58577Y-15876D01*
X58708Y-15876D01*
X58829Y-15826D01*
X58910Y-15744D01*
X58949Y-15783D01*
X59070Y-15833D01*
X59200Y-15833D01*
X59321Y-15783D01*
X59414Y-15691D01*
X59450Y-15604D01*
X59451Y-15604D01*
X59458Y-15604D01*
X59550Y-15604D01*
X59708Y-15604D01*
X59798Y-15567D01*
X59798Y-16256D01*
G36*
X60147Y-20641D02*
X60131Y-20634D01*
X60000Y-20634D01*
X59879Y-20684D01*
X59786Y-20776D01*
X59736Y-20897D01*
X59736Y-20954D01*
X59722Y-21024D01*
X59722Y-22254D01*
X59642Y-22288D01*
X59629Y-22300D01*
X59637Y-22289D01*
X59637Y-22289D01*
X59658Y-22181D01*
X59658Y-21741D01*
X59671Y-21728D01*
X59721Y-21607D01*
X59721Y-21476D01*
X59671Y-21356D01*
X59632Y-21316D01*
X59576Y-21232D01*
X59576Y-21232D01*
X59188Y-20844D01*
X59143Y-20737D01*
X59143Y-20434D01*
X59251Y-20434D01*
X59359Y-20412D01*
X59451Y-20351D01*
X59480Y-20308D01*
X59596Y-20308D01*
X59645Y-20287D01*
X59694Y-20308D01*
X59794Y-20308D01*
X60147Y-20308D01*
X60147Y-20641D01*
X60147Y-20641D01*
G37*
X60147Y-20641D02*
X60131Y-20634D01*
X60000Y-20634D01*
X59879Y-20684D01*
X59786Y-20776D01*
X59736Y-20897D01*
X59736Y-20954D01*
X59722Y-21024D01*
X59722Y-22254D01*
X59642Y-22288D01*
X59629Y-22300D01*
X59637Y-22289D01*
X59637Y-22289D01*
X59658Y-22181D01*
X59658Y-21741D01*
X59671Y-21728D01*
X59721Y-21607D01*
X59721Y-21476D01*
X59671Y-21356D01*
X59632Y-21316D01*
X59576Y-21232D01*
X59576Y-21232D01*
X59188Y-20844D01*
X59143Y-20737D01*
X59143Y-20434D01*
X59251Y-20434D01*
X59359Y-20412D01*
X59451Y-20351D01*
X59480Y-20308D01*
X59596Y-20308D01*
X59645Y-20287D01*
X59694Y-20308D01*
X59794Y-20308D01*
X60147Y-20308D01*
X60147Y-20641D01*
G36*
X65008Y-20752D02*
X64971Y-20767D01*
X64901Y-20837D01*
X64863Y-20929D01*
X64863Y-21028D01*
X64863Y-21129D01*
X64863Y-21148D01*
X64863Y-21228D01*
X64863Y-21348D01*
X64898Y-21434D01*
X64871Y-21499D01*
X64701Y-21499D01*
X64549Y-21499D01*
X63814Y-21803D01*
X63252Y-22366D01*
X62947Y-23101D01*
X62947Y-23249D01*
X62943Y-23249D01*
X62863Y-23249D01*
X62743Y-23249D01*
X62658Y-23284D01*
X62573Y-23249D01*
X62473Y-23249D01*
X62353Y-23249D01*
X62271Y-23283D01*
X62213Y-23259D01*
X62189Y-23201D01*
X62223Y-23118D01*
X62223Y-23019D01*
X62223Y-22928D01*
X62223Y-22899D01*
X62223Y-22829D01*
X62223Y-22728D01*
X62223Y-22709D01*
X62223Y-22629D01*
X62223Y-22528D01*
X62223Y-22509D01*
X62223Y-22429D01*
X62223Y-22338D01*
X62223Y-22309D01*
X62223Y-22239D01*
X62223Y-22138D01*
X62223Y-22119D01*
X62223Y-22039D01*
X62223Y-21938D01*
X62223Y-21919D01*
X62223Y-21839D01*
X62223Y-21738D01*
X62223Y-21719D01*
X62223Y-21639D01*
X62223Y-21548D01*
X62223Y-21519D01*
X62223Y-21449D01*
X62223Y-21348D01*
X62223Y-21329D01*
X62223Y-21249D01*
X62223Y-21148D01*
X62223Y-21129D01*
X62223Y-21049D01*
X62223Y-20958D01*
X62223Y-20929D01*
X62223Y-20859D01*
X62223Y-20739D01*
X62189Y-20657D01*
X62209Y-20609D01*
X62253Y-20609D01*
X62353Y-20609D01*
X62373Y-20609D01*
X62453Y-20609D01*
X62543Y-20609D01*
X62573Y-20609D01*
X62643Y-20609D01*
X62743Y-20609D01*
X62763Y-20609D01*
X62843Y-20609D01*
X62943Y-20609D01*
X62963Y-20609D01*
X63043Y-20609D01*
X63133Y-20609D01*
X63163Y-20609D01*
X63233Y-20609D01*
X63333Y-20609D01*
X63353Y-20609D01*
X63433Y-20609D01*
X63533Y-20609D01*
X63553Y-20609D01*
X63633Y-20609D01*
X63733Y-20609D01*
X63753Y-20609D01*
X63833Y-20609D01*
X63923Y-20609D01*
X63953Y-20609D01*
X64023Y-20609D01*
X64123Y-20609D01*
X64143Y-20609D01*
X64223Y-20609D01*
X64323Y-20609D01*
X64343Y-20609D01*
X64423Y-20609D01*
X64513Y-20609D01*
X64543Y-20609D01*
X64613Y-20609D01*
X64713Y-20609D01*
X64733Y-20609D01*
X64813Y-20609D01*
X64877Y-20609D01*
X64901Y-20666D01*
X64971Y-20736D01*
X65008Y-20752D01*
X65008Y-20752D01*
G37*
X65008Y-20752D02*
X64971Y-20767D01*
X64901Y-20837D01*
X64863Y-20929D01*
X64863Y-21028D01*
X64863Y-21129D01*
X64863Y-21148D01*
X64863Y-21228D01*
X64863Y-21348D01*
X64898Y-21434D01*
X64871Y-21499D01*
X64701Y-21499D01*
X64549Y-21499D01*
X63814Y-21803D01*
X63252Y-22366D01*
X62947Y-23101D01*
X62947Y-23249D01*
X62943Y-23249D01*
X62863Y-23249D01*
X62743Y-23249D01*
X62658Y-23284D01*
X62573Y-23249D01*
X62473Y-23249D01*
X62353Y-23249D01*
X62271Y-23283D01*
X62213Y-23259D01*
X62189Y-23201D01*
X62223Y-23118D01*
X62223Y-23019D01*
X62223Y-22928D01*
X62223Y-22899D01*
X62223Y-22829D01*
X62223Y-22728D01*
X62223Y-22709D01*
X62223Y-22629D01*
X62223Y-22528D01*
X62223Y-22509D01*
X62223Y-22429D01*
X62223Y-22338D01*
X62223Y-22309D01*
X62223Y-22239D01*
X62223Y-22138D01*
X62223Y-22119D01*
X62223Y-22039D01*
X62223Y-21938D01*
X62223Y-21919D01*
X62223Y-21839D01*
X62223Y-21738D01*
X62223Y-21719D01*
X62223Y-21639D01*
X62223Y-21548D01*
X62223Y-21519D01*
X62223Y-21449D01*
X62223Y-21348D01*
X62223Y-21329D01*
X62223Y-21249D01*
X62223Y-21148D01*
X62223Y-21129D01*
X62223Y-21049D01*
X62223Y-20958D01*
X62223Y-20929D01*
X62223Y-20859D01*
X62223Y-20739D01*
X62189Y-20657D01*
X62209Y-20609D01*
X62253Y-20609D01*
X62353Y-20609D01*
X62373Y-20609D01*
X62453Y-20609D01*
X62543Y-20609D01*
X62573Y-20609D01*
X62643Y-20609D01*
X62743Y-20609D01*
X62763Y-20609D01*
X62843Y-20609D01*
X62943Y-20609D01*
X62963Y-20609D01*
X63043Y-20609D01*
X63133Y-20609D01*
X63163Y-20609D01*
X63233Y-20609D01*
X63333Y-20609D01*
X63353Y-20609D01*
X63433Y-20609D01*
X63533Y-20609D01*
X63553Y-20609D01*
X63633Y-20609D01*
X63733Y-20609D01*
X63753Y-20609D01*
X63833Y-20609D01*
X63923Y-20609D01*
X63953Y-20609D01*
X64023Y-20609D01*
X64123Y-20609D01*
X64143Y-20609D01*
X64223Y-20609D01*
X64323Y-20609D01*
X64343Y-20609D01*
X64423Y-20609D01*
X64513Y-20609D01*
X64543Y-20609D01*
X64613Y-20609D01*
X64713Y-20609D01*
X64733Y-20609D01*
X64813Y-20609D01*
X64877Y-20609D01*
X64901Y-20666D01*
X64971Y-20736D01*
X65008Y-20752D01*
G36*
X67433Y-18903D02*
X67431Y-18903D01*
X67339Y-18941D01*
X67269Y-19012D01*
X67231Y-19104D01*
X67231Y-19203D01*
X67231Y-19220D01*
X67187Y-19249D01*
X67126Y-19341D01*
X67105Y-19448D01*
X67105Y-19638D01*
X66847Y-19896D01*
X66726Y-19896D01*
X66726Y-19872D01*
X66688Y-19780D01*
X66617Y-19710D01*
X66525Y-19672D01*
X66426Y-19672D01*
X65836Y-19672D01*
X65744Y-19710D01*
X65674Y-19780D01*
X65636Y-19872D01*
X65636Y-19971D01*
X65636Y-19990D01*
X65595Y-19950D01*
X65611Y-19872D01*
X65611Y-19872D01*
X65611Y-19111D01*
X65694Y-19111D01*
X65814Y-19061D01*
X65907Y-18968D01*
X65957Y-18848D01*
X65957Y-18753D01*
X65958Y-18753D01*
X66050Y-18753D01*
X66201Y-18753D01*
X66208Y-18753D01*
X66300Y-18753D01*
X66451Y-18753D01*
X66458Y-18753D01*
X66550Y-18753D01*
X66701Y-18753D01*
X66708Y-18753D01*
X66766Y-18753D01*
X66800Y-18837D01*
X66893Y-18930D01*
X67014Y-18980D01*
X67144Y-18980D01*
X67265Y-18930D01*
X67358Y-18838D01*
X67360Y-18831D01*
X67433Y-18903D01*
X67433Y-18903D01*
G37*
X67433Y-18903D02*
X67431Y-18903D01*
X67339Y-18941D01*
X67269Y-19012D01*
X67231Y-19104D01*
X67231Y-19203D01*
X67231Y-19220D01*
X67187Y-19249D01*
X67126Y-19341D01*
X67105Y-19448D01*
X67105Y-19638D01*
X66847Y-19896D01*
X66726Y-19896D01*
X66726Y-19872D01*
X66688Y-19780D01*
X66617Y-19710D01*
X66525Y-19672D01*
X66426Y-19672D01*
X65836Y-19672D01*
X65744Y-19710D01*
X65674Y-19780D01*
X65636Y-19872D01*
X65636Y-19971D01*
X65636Y-19990D01*
X65595Y-19950D01*
X65611Y-19872D01*
X65611Y-19872D01*
X65611Y-19111D01*
X65694Y-19111D01*
X65814Y-19061D01*
X65907Y-18968D01*
X65957Y-18848D01*
X65957Y-18753D01*
X65958Y-18753D01*
X66050Y-18753D01*
X66201Y-18753D01*
X66208Y-18753D01*
X66300Y-18753D01*
X66451Y-18753D01*
X66458Y-18753D01*
X66550Y-18753D01*
X66701Y-18753D01*
X66708Y-18753D01*
X66766Y-18753D01*
X66800Y-18837D01*
X66893Y-18930D01*
X67014Y-18980D01*
X67144Y-18980D01*
X67265Y-18930D01*
X67358Y-18838D01*
X67360Y-18831D01*
X67433Y-18903D01*
G36*
X68627Y-23450D02*
X67099Y-23450D01*
X67099Y-23101D01*
X66794Y-22366D01*
X66538Y-22110D01*
X67216Y-22110D01*
X67323Y-22089D01*
X67415Y-22028D01*
X67704Y-21738D01*
X67707Y-21745D01*
X67777Y-21816D01*
X67869Y-21854D01*
X67969Y-21854D01*
X68579Y-21854D01*
X68627Y-21834D01*
X68627Y-23450D01*
X68627Y-23450D01*
G37*
X68627Y-23450D02*
X67099Y-23450D01*
X67099Y-23101D01*
X66794Y-22366D01*
X66538Y-22110D01*
X67216Y-22110D01*
X67323Y-22089D01*
X67415Y-22028D01*
X67704Y-21738D01*
X67707Y-21745D01*
X67777Y-21816D01*
X67869Y-21854D01*
X67969Y-21854D01*
X68579Y-21854D01*
X68627Y-21834D01*
X68627Y-23450D01*
G36*
X68627Y-33194D02*
X67131Y-33194D01*
X67131Y-33057D01*
X67100Y-32981D01*
X67100Y-31493D01*
X67062Y-31401D01*
X66991Y-31331D01*
X66899Y-31293D01*
X66800Y-31293D01*
X66747Y-31293D01*
X66742Y-31264D01*
X66675Y-31164D01*
X66606Y-31095D01*
X66606Y-31095D01*
X66554Y-31042D01*
X66532Y-31028D01*
X66509Y-31005D01*
X66409Y-30938D01*
X66291Y-30915D01*
X66063Y-30915D01*
X66063Y-30052D01*
X66025Y-29960D01*
X65954Y-29890D01*
X65862Y-29852D01*
X65763Y-29852D01*
X65113Y-29852D01*
X65021Y-29890D01*
X64988Y-29923D01*
X64954Y-29890D01*
X64862Y-29852D01*
X64763Y-29852D01*
X64113Y-29852D01*
X64021Y-29890D01*
X63951Y-29960D01*
X63913Y-30052D01*
X63913Y-30152D01*
X63913Y-31152D01*
X63951Y-31243D01*
X64021Y-31314D01*
X64113Y-31352D01*
X64212Y-31352D01*
X64259Y-31352D01*
X64289Y-31396D01*
X64318Y-31415D01*
X64318Y-31415D01*
X64418Y-31482D01*
X64536Y-31506D01*
X64896Y-31506D01*
X65023Y-31506D01*
X65067Y-31506D01*
X65067Y-31505D01*
X65255Y-31505D01*
X65255Y-31506D01*
X65464Y-31506D01*
X65470Y-31509D01*
X65588Y-31533D01*
X65813Y-31533D01*
X65813Y-31593D01*
X65813Y-33194D01*
X63450Y-33194D01*
X63450Y-25979D01*
X61250Y-28179D01*
X61250Y-33194D01*
X59297Y-33194D01*
X59297Y-33057D01*
X59265Y-32981D01*
X59265Y-31493D01*
X59227Y-31401D01*
X59157Y-31331D01*
X59121Y-31316D01*
X59148Y-31250D01*
X59148Y-31150D01*
X59148Y-30578D01*
X59162Y-30584D01*
X59262Y-30584D01*
X59656Y-30584D01*
X59748Y-30546D01*
X59818Y-30476D01*
X59856Y-30384D01*
X59856Y-30284D01*
X59856Y-30048D01*
X59818Y-29956D01*
X59748Y-29886D01*
X59656Y-29848D01*
X59556Y-29848D01*
X59162Y-29848D01*
X59070Y-29886D01*
X59022Y-29935D01*
X58792Y-29935D01*
X58757Y-29900D01*
X58714Y-29871D01*
X58714Y-29793D01*
X58685Y-29724D01*
X58714Y-29655D01*
X58714Y-29555D01*
X58714Y-29242D01*
X58759Y-29242D01*
X58878Y-29218D01*
X58978Y-29151D01*
X59020Y-29088D01*
X59134Y-29088D01*
X59226Y-29050D01*
X59259Y-29017D01*
X59293Y-29050D01*
X59385Y-29088D01*
X59484Y-29088D01*
X60134Y-29088D01*
X60226Y-29050D01*
X60296Y-28980D01*
X60334Y-28888D01*
X60334Y-28788D01*
X60334Y-27788D01*
X60296Y-27696D01*
X60226Y-27626D01*
X60134Y-27588D01*
X60035Y-27588D01*
X59385Y-27588D01*
X59293Y-27626D01*
X59259Y-27660D01*
X59226Y-27626D01*
X59134Y-27588D01*
X59035Y-27588D01*
X58385Y-27588D01*
X58293Y-27626D01*
X58222Y-27696D01*
X58184Y-27788D01*
X58184Y-27888D01*
X58184Y-28634D01*
X58116Y-28647D01*
X58016Y-28714D01*
X57950Y-28780D01*
X57908Y-28843D01*
X57824Y-28843D01*
X57732Y-28881D01*
X57662Y-28951D01*
X57624Y-29043D01*
X57624Y-29143D01*
X57624Y-29655D01*
X57652Y-29724D01*
X57624Y-29793D01*
X57624Y-29893D01*
X57624Y-30360D01*
X57586Y-30360D01*
X57495Y-30398D01*
X57424Y-30468D01*
X57386Y-30560D01*
X57386Y-30660D01*
X57386Y-31250D01*
X57424Y-31342D01*
X57495Y-31412D01*
X57586Y-31450D01*
X57686Y-31450D01*
X57996Y-31450D01*
X57978Y-31493D01*
X57978Y-31593D01*
X57978Y-33194D01*
X56450Y-33194D01*
X56450Y-31309D01*
X57772Y-27850D01*
X57378Y-27850D01*
X54650Y-30679D01*
X54650Y-32321D01*
X54596Y-32299D01*
X54497Y-32299D01*
X54460Y-32299D01*
X54431Y-32255D01*
X54240Y-32064D01*
X54311Y-31958D01*
X54344Y-31791D01*
X54311Y-31624D01*
X54216Y-31482D01*
X54074Y-31387D01*
X53907Y-31354D01*
X53769Y-31354D01*
X53602Y-31387D01*
X53460Y-31482D01*
X53438Y-31514D01*
X53438Y-31475D01*
X53400Y-31383D01*
X53330Y-31313D01*
X53265Y-31286D01*
X53280Y-31250D01*
X53280Y-31150D01*
X53280Y-30560D01*
X53242Y-30468D01*
X53236Y-30462D01*
X53242Y-30456D01*
X53280Y-30364D01*
X53280Y-30264D01*
X53280Y-29674D01*
X53242Y-29583D01*
X53172Y-29512D01*
X53080Y-29474D01*
X52980Y-29474D01*
X52468Y-29474D01*
X52376Y-29512D01*
X52306Y-29583D01*
X52268Y-29674D01*
X52268Y-29774D01*
X52268Y-29791D01*
X52224Y-29820D01*
X52139Y-29906D01*
X52137Y-29908D01*
X51710Y-29908D01*
X51641Y-29839D01*
X51520Y-29789D01*
X51389Y-29789D01*
X51268Y-29839D01*
X51176Y-29931D01*
X51126Y-30052D01*
X51126Y-30183D01*
X51176Y-30304D01*
X51268Y-30396D01*
X51335Y-30424D01*
X51338Y-30441D01*
X51399Y-30532D01*
X51445Y-30563D01*
X51481Y-30650D01*
X51539Y-30708D01*
X51481Y-30767D01*
X51443Y-30858D01*
X51443Y-30958D01*
X51443Y-31308D01*
X51481Y-31400D01*
X51535Y-31453D01*
X51492Y-31482D01*
X51397Y-31624D01*
X51364Y-31791D01*
X51397Y-31958D01*
X51468Y-32064D01*
X51277Y-32255D01*
X51248Y-32299D01*
X51111Y-32299D01*
X51019Y-32337D01*
X50949Y-32407D01*
X50911Y-32499D01*
X50911Y-32598D01*
X50911Y-33194D01*
X49482Y-33194D01*
X49482Y-32433D01*
X49551Y-32433D01*
X50351Y-32433D01*
X50443Y-32395D01*
X50513Y-32325D01*
X50551Y-32233D01*
X50551Y-32133D01*
X50551Y-31333D01*
X50513Y-31241D01*
X50443Y-31171D01*
X50351Y-31133D01*
X50251Y-31133D01*
X49482Y-31133D01*
X49482Y-29145D01*
X49667Y-29269D01*
X49893Y-29314D01*
X50119Y-29269D01*
X50310Y-29141D01*
X50421Y-28975D01*
X50436Y-28972D01*
X50527Y-28911D01*
X50588Y-28820D01*
X50609Y-28712D01*
X50609Y-28557D01*
X50628Y-28538D01*
X51330Y-28538D01*
X51337Y-28545D01*
X51337Y-28545D01*
X51429Y-28606D01*
X51536Y-28627D01*
X53530Y-28627D01*
X53530Y-28671D01*
X53568Y-28763D01*
X53639Y-28833D01*
X53730Y-28871D01*
X53830Y-28871D01*
X54180Y-28871D01*
X54225Y-28852D01*
X54309Y-28936D01*
X54401Y-28997D01*
X54401Y-28997D01*
X54508Y-29018D01*
X54904Y-29018D01*
X55012Y-28997D01*
X55103Y-28936D01*
X57939Y-26100D01*
X58000Y-26008D01*
X58022Y-25901D01*
X58022Y-25901D01*
X58022Y-24245D01*
X58120Y-24245D01*
X58706Y-24245D01*
X58706Y-24320D01*
X58706Y-24832D01*
X58745Y-24924D01*
X58815Y-24994D01*
X58907Y-25032D01*
X59006Y-25032D01*
X59596Y-25032D01*
X59688Y-24994D01*
X59758Y-24924D01*
X59796Y-24832D01*
X59796Y-24825D01*
X60069Y-24825D01*
X60069Y-24850D01*
X60107Y-24941D01*
X60177Y-25012D01*
X60269Y-25050D01*
X60368Y-25050D01*
X60958Y-25050D01*
X61050Y-25012D01*
X61087Y-24975D01*
X61097Y-24999D01*
X61069Y-25069D01*
X61069Y-25168D01*
X61069Y-25462D01*
X58759Y-25462D01*
X58652Y-25483D01*
X58560Y-25544D01*
X58531Y-25588D01*
X58385Y-25588D01*
X58293Y-25626D01*
X58222Y-25696D01*
X58184Y-25788D01*
X58184Y-25888D01*
X58184Y-26888D01*
X58222Y-26980D01*
X58293Y-27050D01*
X58385Y-27088D01*
X58484Y-27088D01*
X59134Y-27088D01*
X59226Y-27050D01*
X59259Y-27017D01*
X59293Y-27050D01*
X59385Y-27088D01*
X59484Y-27088D01*
X60134Y-27088D01*
X60226Y-27050D01*
X60259Y-27017D01*
X60293Y-27050D01*
X60385Y-27088D01*
X60484Y-27088D01*
X61134Y-27088D01*
X61226Y-27050D01*
X61296Y-26980D01*
X61334Y-26888D01*
X61334Y-26788D01*
X61334Y-26179D01*
X61416Y-26179D01*
X61403Y-26209D01*
X61403Y-26309D01*
X61403Y-26624D01*
X61441Y-26716D01*
X61512Y-26786D01*
X61604Y-26824D01*
X61703Y-26824D01*
X62175Y-26824D01*
X62267Y-26786D01*
X62337Y-26716D01*
X62345Y-26698D01*
X62425Y-26698D01*
X62533Y-26677D01*
X62624Y-26616D01*
X63151Y-26088D01*
X63151Y-26088D01*
X63188Y-26034D01*
X63212Y-25997D01*
X63212Y-25997D01*
X63234Y-25889D01*
X63234Y-25131D01*
X63390Y-25131D01*
X63814Y-25554D01*
X64134Y-25687D01*
X63602Y-26219D01*
X63541Y-26310D01*
X63520Y-26418D01*
X63520Y-27478D01*
X63541Y-27586D01*
X63602Y-27677D01*
X63932Y-28007D01*
X63913Y-28052D01*
X63913Y-28152D01*
X63913Y-29152D01*
X63951Y-29243D01*
X64021Y-29314D01*
X64113Y-29352D01*
X64212Y-29352D01*
X64862Y-29352D01*
X64954Y-29314D01*
X64988Y-29280D01*
X65021Y-29314D01*
X65113Y-29352D01*
X65187Y-29352D01*
X65187Y-29409D01*
X65237Y-29529D01*
X65330Y-29622D01*
X65450Y-29672D01*
X65581Y-29672D01*
X65702Y-29622D01*
X65795Y-29530D01*
X65845Y-29409D01*
X65845Y-29352D01*
X65862Y-29352D01*
X65954Y-29314D01*
X65988Y-29280D01*
X66021Y-29314D01*
X66113Y-29352D01*
X66212Y-29352D01*
X66862Y-29352D01*
X66954Y-29314D01*
X67025Y-29243D01*
X67063Y-29152D01*
X67063Y-29052D01*
X67063Y-28052D01*
X67025Y-27960D01*
X66954Y-27890D01*
X66928Y-27879D01*
X66932Y-27878D01*
X67168Y-27642D01*
X67297Y-27333D01*
X67297Y-26998D01*
X67178Y-26711D01*
X67650Y-26931D01*
X67650Y-30320D01*
X68627Y-31298D01*
X68627Y-33194D01*
X68627Y-33194D01*
G37*
X68627Y-33194D02*
X67131Y-33194D01*
X67131Y-33057D01*
X67100Y-32981D01*
X67100Y-31493D01*
X67062Y-31401D01*
X66991Y-31331D01*
X66899Y-31293D01*
X66800Y-31293D01*
X66747Y-31293D01*
X66742Y-31264D01*
X66675Y-31164D01*
X66606Y-31095D01*
X66606Y-31095D01*
X66554Y-31042D01*
X66532Y-31028D01*
X66509Y-31005D01*
X66409Y-30938D01*
X66291Y-30915D01*
X66063Y-30915D01*
X66063Y-30052D01*
X66025Y-29960D01*
X65954Y-29890D01*
X65862Y-29852D01*
X65763Y-29852D01*
X65113Y-29852D01*
X65021Y-29890D01*
X64988Y-29923D01*
X64954Y-29890D01*
X64862Y-29852D01*
X64763Y-29852D01*
X64113Y-29852D01*
X64021Y-29890D01*
X63951Y-29960D01*
X63913Y-30052D01*
X63913Y-30152D01*
X63913Y-31152D01*
X63951Y-31243D01*
X64021Y-31314D01*
X64113Y-31352D01*
X64212Y-31352D01*
X64259Y-31352D01*
X64289Y-31396D01*
X64318Y-31415D01*
X64318Y-31415D01*
X64418Y-31482D01*
X64536Y-31506D01*
X64896Y-31506D01*
X65023Y-31506D01*
X65067Y-31506D01*
X65067Y-31505D01*
X65255Y-31505D01*
X65255Y-31506D01*
X65464Y-31506D01*
X65470Y-31509D01*
X65588Y-31533D01*
X65813Y-31533D01*
X65813Y-31593D01*
X65813Y-33194D01*
X63450Y-33194D01*
X63450Y-25979D01*
X61250Y-28179D01*
X61250Y-33194D01*
X59297Y-33194D01*
X59297Y-33057D01*
X59265Y-32981D01*
X59265Y-31493D01*
X59227Y-31401D01*
X59157Y-31331D01*
X59121Y-31316D01*
X59148Y-31250D01*
X59148Y-31150D01*
X59148Y-30578D01*
X59162Y-30584D01*
X59262Y-30584D01*
X59656Y-30584D01*
X59748Y-30546D01*
X59818Y-30476D01*
X59856Y-30384D01*
X59856Y-30284D01*
X59856Y-30048D01*
X59818Y-29956D01*
X59748Y-29886D01*
X59656Y-29848D01*
X59556Y-29848D01*
X59162Y-29848D01*
X59070Y-29886D01*
X59022Y-29935D01*
X58792Y-29935D01*
X58757Y-29900D01*
X58714Y-29871D01*
X58714Y-29793D01*
X58685Y-29724D01*
X58714Y-29655D01*
X58714Y-29555D01*
X58714Y-29242D01*
X58759Y-29242D01*
X58878Y-29218D01*
X58978Y-29151D01*
X59020Y-29088D01*
X59134Y-29088D01*
X59226Y-29050D01*
X59259Y-29017D01*
X59293Y-29050D01*
X59385Y-29088D01*
X59484Y-29088D01*
X60134Y-29088D01*
X60226Y-29050D01*
X60296Y-28980D01*
X60334Y-28888D01*
X60334Y-28788D01*
X60334Y-27788D01*
X60296Y-27696D01*
X60226Y-27626D01*
X60134Y-27588D01*
X60035Y-27588D01*
X59385Y-27588D01*
X59293Y-27626D01*
X59259Y-27660D01*
X59226Y-27626D01*
X59134Y-27588D01*
X59035Y-27588D01*
X58385Y-27588D01*
X58293Y-27626D01*
X58222Y-27696D01*
X58184Y-27788D01*
X58184Y-27888D01*
X58184Y-28634D01*
X58116Y-28647D01*
X58016Y-28714D01*
X57950Y-28780D01*
X57908Y-28843D01*
X57824Y-28843D01*
X57732Y-28881D01*
X57662Y-28951D01*
X57624Y-29043D01*
X57624Y-29143D01*
X57624Y-29655D01*
X57652Y-29724D01*
X57624Y-29793D01*
X57624Y-29893D01*
X57624Y-30360D01*
X57586Y-30360D01*
X57495Y-30398D01*
X57424Y-30468D01*
X57386Y-30560D01*
X57386Y-30660D01*
X57386Y-31250D01*
X57424Y-31342D01*
X57495Y-31412D01*
X57586Y-31450D01*
X57686Y-31450D01*
X57996Y-31450D01*
X57978Y-31493D01*
X57978Y-31593D01*
X57978Y-33194D01*
X56450Y-33194D01*
X56450Y-31309D01*
X57772Y-27850D01*
X57378Y-27850D01*
X54650Y-30679D01*
X54650Y-32321D01*
X54596Y-32299D01*
X54497Y-32299D01*
X54460Y-32299D01*
X54431Y-32255D01*
X54240Y-32064D01*
X54311Y-31958D01*
X54344Y-31791D01*
X54311Y-31624D01*
X54216Y-31482D01*
X54074Y-31387D01*
X53907Y-31354D01*
X53769Y-31354D01*
X53602Y-31387D01*
X53460Y-31482D01*
X53438Y-31514D01*
X53438Y-31475D01*
X53400Y-31383D01*
X53330Y-31313D01*
X53265Y-31286D01*
X53280Y-31250D01*
X53280Y-31150D01*
X53280Y-30560D01*
X53242Y-30468D01*
X53236Y-30462D01*
X53242Y-30456D01*
X53280Y-30364D01*
X53280Y-30264D01*
X53280Y-29674D01*
X53242Y-29583D01*
X53172Y-29512D01*
X53080Y-29474D01*
X52980Y-29474D01*
X52468Y-29474D01*
X52376Y-29512D01*
X52306Y-29583D01*
X52268Y-29674D01*
X52268Y-29774D01*
X52268Y-29791D01*
X52224Y-29820D01*
X52139Y-29906D01*
X52137Y-29908D01*
X51710Y-29908D01*
X51641Y-29839D01*
X51520Y-29789D01*
X51389Y-29789D01*
X51268Y-29839D01*
X51176Y-29931D01*
X51126Y-30052D01*
X51126Y-30183D01*
X51176Y-30304D01*
X51268Y-30396D01*
X51335Y-30424D01*
X51338Y-30441D01*
X51399Y-30532D01*
X51445Y-30563D01*
X51481Y-30650D01*
X51539Y-30708D01*
X51481Y-30767D01*
X51443Y-30858D01*
X51443Y-30958D01*
X51443Y-31308D01*
X51481Y-31400D01*
X51535Y-31453D01*
X51492Y-31482D01*
X51397Y-31624D01*
X51364Y-31791D01*
X51397Y-31958D01*
X51468Y-32064D01*
X51277Y-32255D01*
X51248Y-32299D01*
X51111Y-32299D01*
X51019Y-32337D01*
X50949Y-32407D01*
X50911Y-32499D01*
X50911Y-32598D01*
X50911Y-33194D01*
X49482Y-33194D01*
X49482Y-32433D01*
X49551Y-32433D01*
X50351Y-32433D01*
X50443Y-32395D01*
X50513Y-32325D01*
X50551Y-32233D01*
X50551Y-32133D01*
X50551Y-31333D01*
X50513Y-31241D01*
X50443Y-31171D01*
X50351Y-31133D01*
X50251Y-31133D01*
X49482Y-31133D01*
X49482Y-29145D01*
X49667Y-29269D01*
X49893Y-29314D01*
X50119Y-29269D01*
X50310Y-29141D01*
X50421Y-28975D01*
X50436Y-28972D01*
X50527Y-28911D01*
X50588Y-28820D01*
X50609Y-28712D01*
X50609Y-28557D01*
X50628Y-28538D01*
X51330Y-28538D01*
X51337Y-28545D01*
X51337Y-28545D01*
X51429Y-28606D01*
X51536Y-28627D01*
X53530Y-28627D01*
X53530Y-28671D01*
X53568Y-28763D01*
X53639Y-28833D01*
X53730Y-28871D01*
X53830Y-28871D01*
X54180Y-28871D01*
X54225Y-28852D01*
X54309Y-28936D01*
X54401Y-28997D01*
X54401Y-28997D01*
X54508Y-29018D01*
X54904Y-29018D01*
X55012Y-28997D01*
X55103Y-28936D01*
X57939Y-26100D01*
X58000Y-26008D01*
X58022Y-25901D01*
X58022Y-25901D01*
X58022Y-24245D01*
X58120Y-24245D01*
X58706Y-24245D01*
X58706Y-24320D01*
X58706Y-24832D01*
X58745Y-24924D01*
X58815Y-24994D01*
X58907Y-25032D01*
X59006Y-25032D01*
X59596Y-25032D01*
X59688Y-24994D01*
X59758Y-24924D01*
X59796Y-24832D01*
X59796Y-24825D01*
X60069Y-24825D01*
X60069Y-24850D01*
X60107Y-24941D01*
X60177Y-25012D01*
X60269Y-25050D01*
X60368Y-25050D01*
X60958Y-25050D01*
X61050Y-25012D01*
X61087Y-24975D01*
X61097Y-24999D01*
X61069Y-25069D01*
X61069Y-25168D01*
X61069Y-25462D01*
X58759Y-25462D01*
X58652Y-25483D01*
X58560Y-25544D01*
X58531Y-25588D01*
X58385Y-25588D01*
X58293Y-25626D01*
X58222Y-25696D01*
X58184Y-25788D01*
X58184Y-25888D01*
X58184Y-26888D01*
X58222Y-26980D01*
X58293Y-27050D01*
X58385Y-27088D01*
X58484Y-27088D01*
X59134Y-27088D01*
X59226Y-27050D01*
X59259Y-27017D01*
X59293Y-27050D01*
X59385Y-27088D01*
X59484Y-27088D01*
X60134Y-27088D01*
X60226Y-27050D01*
X60259Y-27017D01*
X60293Y-27050D01*
X60385Y-27088D01*
X60484Y-27088D01*
X61134Y-27088D01*
X61226Y-27050D01*
X61296Y-26980D01*
X61334Y-26888D01*
X61334Y-26788D01*
X61334Y-26179D01*
X61416Y-26179D01*
X61403Y-26209D01*
X61403Y-26309D01*
X61403Y-26624D01*
X61441Y-26716D01*
X61512Y-26786D01*
X61604Y-26824D01*
X61703Y-26824D01*
X62175Y-26824D01*
X62267Y-26786D01*
X62337Y-26716D01*
X62345Y-26698D01*
X62425Y-26698D01*
X62533Y-26677D01*
X62624Y-26616D01*
X63151Y-26088D01*
X63151Y-26088D01*
X63188Y-26034D01*
X63212Y-25997D01*
X63212Y-25997D01*
X63234Y-25889D01*
X63234Y-25131D01*
X63390Y-25131D01*
X63814Y-25554D01*
X64134Y-25687D01*
X63602Y-26219D01*
X63541Y-26310D01*
X63520Y-26418D01*
X63520Y-27478D01*
X63541Y-27586D01*
X63602Y-27677D01*
X63932Y-28007D01*
X63913Y-28052D01*
X63913Y-28152D01*
X63913Y-29152D01*
X63951Y-29243D01*
X64021Y-29314D01*
X64113Y-29352D01*
X64212Y-29352D01*
X64862Y-29352D01*
X64954Y-29314D01*
X64988Y-29280D01*
X65021Y-29314D01*
X65113Y-29352D01*
X65187Y-29352D01*
X65187Y-29409D01*
X65237Y-29529D01*
X65330Y-29622D01*
X65450Y-29672D01*
X65581Y-29672D01*
X65702Y-29622D01*
X65795Y-29530D01*
X65845Y-29409D01*
X65845Y-29352D01*
X65862Y-29352D01*
X65954Y-29314D01*
X65988Y-29280D01*
X66021Y-29314D01*
X66113Y-29352D01*
X66212Y-29352D01*
X66862Y-29352D01*
X66954Y-29314D01*
X67025Y-29243D01*
X67063Y-29152D01*
X67063Y-29052D01*
X67063Y-28052D01*
X67025Y-27960D01*
X66954Y-27890D01*
X66928Y-27879D01*
X66932Y-27878D01*
X67168Y-27642D01*
X67297Y-27333D01*
X67297Y-26998D01*
X67178Y-26711D01*
X67650Y-26931D01*
X67650Y-30320D01*
X68627Y-31298D01*
X68627Y-33194D01*
M02*
