M48
;DRILL file {pcbnew (2014-06-12 BZR 4942)-product} date Mon 16 Jun 2014 06:59:39 PM PDT
;FORMAT={-:-/ absolute / inch / decimal}
FMAT,2
INCH,TZ
T1C0.012
T2C0.020
T3C0.022
T4C0.040
%
G90
G05
M72
T1
X5.0363Y-1.7113
X5.1455Y-3.0118
X5.3162Y-1.6501
X5.3271Y-2.1934
X5.3271Y-1.796
X5.3465Y-1.4785
X5.3803Y-2.0362
X5.387Y-1.6982
X5.3871Y-1.5022
X5.4946Y-1.5841
X5.5068Y-2.2662
X5.508Y-2.3446
X5.5306Y-2.0393
X5.5463Y-1.9588
X5.5483Y-2.4492
X5.5694Y-1.9602
X5.5819Y-1.8955
X5.6067Y-1.912
X5.6071Y-1.6942
X5.6125Y-1.7694
X5.6346Y-1.7635
X5.6463Y-1.8741
X5.6581Y-3.2394
X5.6946Y-2.4492
X5.71Y-1.8356
X5.7544Y-1.5582
X5.7545Y-1.9435
X5.7854Y-1.9511
X5.7914Y-2.2653
X5.7939Y-1.731
X5.8229Y-1.7242
X5.8374Y-1.7416
X5.8393Y-2.048
X5.8643Y-1.5548
X5.8862Y-2.0917
X5.9136Y-1.5505
X5.9159Y-1.8771
X5.9185Y-2.1735
X5.9393Y-2.1542
X5.9543Y-1.7462
X5.9704Y-1.6573
X5.9744Y-2.698
X5.9748Y-2.6213
X5.9843Y-3.248
X5.9982Y-1.6507
X6.0066Y-2.0963
X6.0249Y-1.6528
X6.0453Y-1.6379
X6.0591Y-3.0236
X6.0687Y-1.5696
X6.076Y-2.8339
X6.0763Y-1.8857
X6.0899Y-1.8681
X6.122Y-1.9816
X6.1288Y-1.9382
X6.1348Y-2.0928
X6.1372Y-2.1567
X6.1408Y-2.2756
X6.1433Y-2.1206
X6.1693Y-1.9958
X6.1896Y-1.9169
X6.1979Y-1.6373
X6.2213Y-2.4036
X6.2313Y-1.6146
X6.24Y-2.08
X6.24Y-2.13
X6.24Y-2.19
X6.24Y-2.25
X6.24Y-2.31
X6.29Y-2.08
X6.29Y-2.13
X6.29Y-2.19
X6.29Y-2.25
X6.29Y-2.31
X6.3006Y-1.693
X6.3295Y-2.4018
X6.3353Y-1.5524
X6.344Y-1.744
X6.35Y-2.08
X6.35Y-2.13
X6.35Y-2.25
X6.35Y-2.31
X6.3543Y-2.1929
X6.3543Y-2.1929
X6.3991Y-1.5725
X6.3993Y-2.4167
X6.4Y-2.08
X6.4Y-2.13
X6.4Y-2.19
X6.4Y-2.25
X6.4Y-2.31
X6.4078Y-1.7139
X6.4425Y-1.7568
X6.4487Y-2.4184
X6.45Y-2.08
X6.45Y-2.13
X6.45Y-2.19
X6.45Y-2.25
X6.45Y-2.31
X6.4576Y-1.553
X6.4661Y-1.5996
X6.5215Y-3.1402
X6.5341Y-1.64
X6.5386Y-2.0205
X6.5517Y-2.9344
X6.5619Y-2.1651
X6.5629Y-1.8782
X6.5743Y-2.0258
X6.5799Y-2.6282
X6.682Y-1.5687
X6.708Y-1.8652
X6.8498Y-3.2394
T4
X4.9894Y-1.4535
X4.9894Y-1.5535
X4.9894Y-1.6535
X4.9894Y-1.7535
X4.9894Y-1.8535
X4.9894Y-1.9713
X4.9894Y-2.0713
X4.9894Y-2.1713
X4.9894Y-2.2713
X4.9894Y-2.3713
X4.9894Y-2.4713
X4.9894Y-2.5713
X4.9894Y-2.6713
X4.9894Y-2.7713
X4.9894Y-2.8713
X4.9902Y-3.1783
X4.9902Y-3.2783
X5.0894Y-1.4535
X5.0894Y-1.5535
X5.0894Y-1.6535
X5.0894Y-1.7535
X5.0894Y-1.8535
X5.0894Y-1.9713
X5.0894Y-2.0713
X5.0894Y-2.1713
X5.0894Y-2.2713
X5.0894Y-2.3713
X5.0894Y-2.4713
X5.0894Y-2.5713
X5.0894Y-2.6713
X5.0894Y-2.7713
X5.0894Y-2.8713
X5.4224Y-1.4567
X5.5224Y-1.4567
T2
X5.1476Y-3.2982G85X5.1476Y-3.2726
G05
X5.4232Y-3.2982G85X5.4232Y-3.2726
G05
T3
X5.1929Y-3.1791G85X5.1811Y-3.1791
G05
X5.3898Y-3.1791G85X5.378Y-3.1791
G05
T0
M30
