%FSLAX34Y34*%
G04 Gerber Fmt 3.4, Leading zero omitted, Abs format*
G04 (created by PCBNEW (2014-06-12 BZR 4942)-product) date Mon 16 Jun 2014 06:59:23 PM PDT*
%MOIN*%
G01*
G70*
G90*
G04 APERTURE LIST*
%ADD10C,0.003937*%
%ADD11C,0.004921*%
%ADD12C,0.005000*%
%ADD13C,0.003900*%
%ADD14C,0.003100*%
%ADD15C,0.015000*%
%ADD16C,0.008000*%
%ADD17C,0.005157*%
%ADD18C,0.002400*%
%ADD19C,0.004300*%
%ADD20C,0.012000*%
%ADD21C,0.004700*%
%ADD22C,0.003500*%
%ADD23C,0.003000*%
G04 APERTURE END LIST*
G54D10*
G54D11*
X63185Y-30164D02*
X63185Y-29967D01*
X63185Y-30061D02*
X63073Y-30061D01*
X63073Y-30164D02*
X63073Y-29967D01*
X62904Y-30154D02*
X62923Y-30164D01*
X62960Y-30164D01*
X62979Y-30154D01*
X62988Y-30136D01*
X62988Y-30061D01*
X62979Y-30042D01*
X62960Y-30033D01*
X62923Y-30033D01*
X62904Y-30042D01*
X62895Y-30061D01*
X62895Y-30079D01*
X62988Y-30098D01*
X62810Y-30164D02*
X62810Y-30033D01*
X62810Y-30070D02*
X62801Y-30051D01*
X62792Y-30042D01*
X62773Y-30033D01*
X62754Y-30033D01*
X62689Y-30164D02*
X62689Y-30033D01*
X62689Y-30051D02*
X62679Y-30042D01*
X62660Y-30033D01*
X62632Y-30033D01*
X62614Y-30042D01*
X62604Y-30061D01*
X62604Y-30164D01*
X62604Y-30061D02*
X62595Y-30042D01*
X62576Y-30033D01*
X62548Y-30033D01*
X62529Y-30042D01*
X62520Y-30061D01*
X62520Y-30164D01*
X62351Y-30154D02*
X62370Y-30164D01*
X62407Y-30164D01*
X62426Y-30154D01*
X62435Y-30136D01*
X62435Y-30061D01*
X62426Y-30042D01*
X62407Y-30033D01*
X62370Y-30033D01*
X62351Y-30042D01*
X62342Y-30061D01*
X62342Y-30079D01*
X62435Y-30098D01*
X62267Y-30154D02*
X62248Y-30164D01*
X62210Y-30164D01*
X62192Y-30154D01*
X62182Y-30136D01*
X62182Y-30126D01*
X62192Y-30108D01*
X62210Y-30098D01*
X62239Y-30098D01*
X62257Y-30089D01*
X62267Y-30070D01*
X62267Y-30061D01*
X62257Y-30042D01*
X62239Y-30033D01*
X62210Y-30033D01*
X62192Y-30042D01*
X62098Y-30089D02*
X61948Y-30089D01*
X61761Y-30164D02*
X61854Y-30164D01*
X61854Y-29967D01*
X61695Y-30164D02*
X61695Y-30033D01*
X61695Y-29967D02*
X61704Y-29976D01*
X61695Y-29986D01*
X61686Y-29976D01*
X61695Y-29967D01*
X61695Y-29986D01*
X61629Y-30033D02*
X61554Y-30033D01*
X61601Y-29967D02*
X61601Y-30136D01*
X61592Y-30154D01*
X61573Y-30164D01*
X61554Y-30164D01*
X61414Y-30154D02*
X61432Y-30164D01*
X61470Y-30164D01*
X61489Y-30154D01*
X61498Y-30136D01*
X61498Y-30061D01*
X61489Y-30042D01*
X61470Y-30033D01*
X61432Y-30033D01*
X61414Y-30042D01*
X61404Y-30061D01*
X61404Y-30079D01*
X61498Y-30098D01*
X62656Y-30357D02*
X62609Y-30489D01*
X62562Y-30357D01*
X62234Y-30489D02*
X62346Y-30489D01*
X62290Y-30489D02*
X62290Y-30292D01*
X62309Y-30320D01*
X62328Y-30339D01*
X62346Y-30348D01*
X62150Y-30470D02*
X62140Y-30479D01*
X62150Y-30489D01*
X62159Y-30479D01*
X62150Y-30470D01*
X62150Y-30489D01*
X61953Y-30489D02*
X62065Y-30489D01*
X62009Y-30489D02*
X62009Y-30292D01*
X62028Y-30320D01*
X62046Y-30339D01*
X62065Y-30348D01*
X63195Y-30813D02*
X63195Y-30617D01*
X63082Y-30813D02*
X63167Y-30701D01*
X63082Y-30617D02*
X63195Y-30729D01*
X62932Y-30710D02*
X62998Y-30710D01*
X62998Y-30813D02*
X62998Y-30617D01*
X62904Y-30617D01*
X62848Y-30617D02*
X62717Y-30617D01*
X62801Y-30813D01*
X62604Y-30617D02*
X62567Y-30617D01*
X62548Y-30626D01*
X62529Y-30645D01*
X62520Y-30682D01*
X62520Y-30748D01*
X62529Y-30785D01*
X62548Y-30804D01*
X62567Y-30813D01*
X62604Y-30813D01*
X62623Y-30804D01*
X62642Y-30785D01*
X62651Y-30748D01*
X62651Y-30682D01*
X62642Y-30645D01*
X62623Y-30626D01*
X62604Y-30617D01*
X62295Y-30607D02*
X62464Y-30860D01*
X62229Y-30813D02*
X62229Y-30617D01*
X62117Y-30813D02*
X62201Y-30701D01*
X62117Y-30617D02*
X62229Y-30729D01*
X61939Y-30813D02*
X62032Y-30813D01*
X62032Y-30617D01*
X61892Y-30617D02*
X61761Y-30617D01*
X61845Y-30813D01*
X61686Y-30813D02*
X61686Y-30617D01*
X61573Y-30813D01*
X61573Y-30617D01*
X61489Y-30757D02*
X61395Y-30757D01*
X61507Y-30813D02*
X61442Y-30617D01*
X61376Y-30813D01*
G54D12*
X53675Y-29435D02*
X53175Y-29435D01*
X53675Y-29935D02*
X53185Y-29935D01*
X53675Y-30085D02*
X53675Y-29285D01*
X53675Y-29285D02*
X53175Y-29285D01*
X53175Y-29285D02*
X53175Y-30085D01*
X53175Y-30085D02*
X53675Y-30085D01*
X57179Y-21600D02*
X56679Y-21600D01*
X57179Y-22100D02*
X56689Y-22100D01*
X57179Y-22250D02*
X57179Y-21450D01*
X57179Y-21450D02*
X56679Y-21450D01*
X56679Y-21450D02*
X56679Y-22250D01*
X56679Y-22250D02*
X57179Y-22250D01*
X54698Y-29435D02*
X54198Y-29435D01*
X54698Y-29935D02*
X54208Y-29935D01*
X54698Y-30085D02*
X54698Y-29285D01*
X54698Y-29285D02*
X54198Y-29285D01*
X54198Y-29285D02*
X54198Y-30085D01*
X54198Y-30085D02*
X54698Y-30085D01*
X58005Y-21600D02*
X57505Y-21600D01*
X58005Y-22100D02*
X57515Y-22100D01*
X58005Y-22250D02*
X58005Y-21450D01*
X58005Y-21450D02*
X57505Y-21450D01*
X57505Y-21450D02*
X57505Y-22250D01*
X57505Y-22250D02*
X58005Y-22250D01*
X55852Y-27139D02*
X56352Y-27139D01*
X55852Y-26639D02*
X56342Y-26639D01*
X55852Y-26489D02*
X55852Y-27289D01*
X55852Y-27289D02*
X56352Y-27289D01*
X56352Y-27289D02*
X56352Y-26489D01*
X56352Y-26489D02*
X55852Y-26489D01*
X55891Y-20564D02*
X56391Y-20564D01*
X55891Y-20064D02*
X56381Y-20064D01*
X55891Y-19914D02*
X55891Y-20714D01*
X55891Y-20714D02*
X56391Y-20714D01*
X56391Y-20714D02*
X56391Y-19914D01*
X56391Y-19914D02*
X55891Y-19914D01*
X66482Y-20879D02*
X66982Y-20879D01*
X66482Y-20379D02*
X66972Y-20379D01*
X66482Y-20229D02*
X66482Y-21029D01*
X66482Y-21029D02*
X66982Y-21029D01*
X66982Y-21029D02*
X66982Y-20229D01*
X66982Y-20229D02*
X66482Y-20229D01*
X67269Y-20879D02*
X67769Y-20879D01*
X67269Y-20379D02*
X67759Y-20379D01*
X67269Y-20229D02*
X67269Y-21029D01*
X67269Y-21029D02*
X67769Y-21029D01*
X67769Y-21029D02*
X67769Y-20229D01*
X67769Y-20229D02*
X67269Y-20229D01*
X62257Y-24856D02*
X62257Y-24356D01*
X61757Y-24856D02*
X61757Y-24366D01*
X61607Y-24856D02*
X62407Y-24856D01*
X62407Y-24856D02*
X62407Y-24356D01*
X62407Y-24356D02*
X61607Y-24356D01*
X61607Y-24356D02*
X61607Y-24856D01*
X62257Y-25742D02*
X62257Y-25242D01*
X61757Y-25742D02*
X61757Y-25252D01*
X61607Y-25742D02*
X62407Y-25742D01*
X62407Y-25742D02*
X62407Y-25242D01*
X62407Y-25242D02*
X61607Y-25242D01*
X61607Y-25242D02*
X61607Y-25742D01*
X59994Y-26226D02*
X59494Y-26226D01*
X59994Y-26726D02*
X59504Y-26726D01*
X59994Y-26876D02*
X59994Y-26076D01*
X59994Y-26076D02*
X59494Y-26076D01*
X59494Y-26076D02*
X59494Y-26876D01*
X59494Y-26876D02*
X59994Y-26876D01*
X56352Y-25064D02*
X55852Y-25064D01*
X56352Y-25564D02*
X55862Y-25564D01*
X56352Y-25714D02*
X56352Y-24914D01*
X56352Y-24914D02*
X55852Y-24914D01*
X55852Y-24914D02*
X55852Y-25714D01*
X55852Y-25714D02*
X56352Y-25714D01*
X57238Y-25064D02*
X56738Y-25064D01*
X57238Y-25564D02*
X56748Y-25564D01*
X57238Y-25714D02*
X57238Y-24914D01*
X57238Y-24914D02*
X56738Y-24914D01*
X56738Y-24914D02*
X56738Y-25714D01*
X56738Y-25714D02*
X57238Y-25714D01*
X66214Y-28990D02*
X66214Y-28490D01*
X65714Y-28990D02*
X65714Y-28500D01*
X65564Y-28990D02*
X66364Y-28990D01*
X66364Y-28990D02*
X66364Y-28490D01*
X66364Y-28490D02*
X65564Y-28490D01*
X65564Y-28490D02*
X65564Y-28990D01*
X65722Y-29966D02*
X65222Y-29966D01*
X65722Y-30466D02*
X65232Y-30466D01*
X65722Y-30616D02*
X65722Y-29816D01*
X65722Y-29816D02*
X65222Y-29816D01*
X65222Y-29816D02*
X65222Y-30616D01*
X65222Y-30616D02*
X65722Y-30616D01*
X55852Y-23793D02*
X56352Y-23793D01*
X55852Y-23293D02*
X56342Y-23293D01*
X55852Y-23143D02*
X55852Y-23943D01*
X55852Y-23943D02*
X56352Y-23943D01*
X56352Y-23943D02*
X56352Y-23143D01*
X56352Y-23143D02*
X55852Y-23143D01*
X63832Y-24856D02*
X63832Y-24356D01*
X63332Y-24856D02*
X63332Y-24366D01*
X63182Y-24856D02*
X63982Y-24856D01*
X63982Y-24856D02*
X63982Y-24356D01*
X63982Y-24356D02*
X63182Y-24356D01*
X63182Y-24356D02*
X63182Y-24856D01*
X63832Y-25643D02*
X63832Y-25143D01*
X63332Y-25643D02*
X63332Y-25153D01*
X63182Y-25643D02*
X63982Y-25643D01*
X63982Y-25643D02*
X63982Y-25143D01*
X63982Y-25143D02*
X63182Y-25143D01*
X63182Y-25143D02*
X63182Y-25643D01*
X58805Y-16785D02*
X59305Y-16785D01*
X58805Y-16285D02*
X59295Y-16285D01*
X58805Y-16135D02*
X58805Y-16935D01*
X58805Y-16935D02*
X59305Y-16935D01*
X59305Y-16935D02*
X59305Y-16135D01*
X59305Y-16135D02*
X58805Y-16135D01*
X51234Y-31344D02*
X50734Y-31344D01*
X51234Y-31844D02*
X50744Y-31844D01*
X51234Y-31994D02*
X51234Y-31194D01*
X51234Y-31194D02*
X50734Y-31194D01*
X50734Y-31194D02*
X50734Y-31994D01*
X50734Y-31994D02*
X51234Y-31994D01*
G54D13*
X56585Y-26983D02*
G75*
G03X56585Y-26983I-50J0D01*
G74*
G01*
X56985Y-26983D02*
X56585Y-26983D01*
X56585Y-26983D02*
X56585Y-27583D01*
X56585Y-27583D02*
X56985Y-27583D01*
X57385Y-27583D02*
X57785Y-27583D01*
X57785Y-27583D02*
X57785Y-26983D01*
X57785Y-26983D02*
X57385Y-26983D01*
X56585Y-26196D02*
G75*
G03X56585Y-26196I-50J0D01*
G74*
G01*
X56985Y-26196D02*
X56585Y-26196D01*
X56585Y-26196D02*
X56585Y-26796D01*
X56585Y-26796D02*
X56985Y-26796D01*
X57385Y-26796D02*
X57785Y-26796D01*
X57785Y-26796D02*
X57785Y-26196D01*
X57785Y-26196D02*
X57385Y-26196D01*
X56683Y-20388D02*
G75*
G03X56683Y-20388I-50J0D01*
G74*
G01*
X57083Y-20388D02*
X56683Y-20388D01*
X56683Y-20388D02*
X56683Y-20988D01*
X56683Y-20988D02*
X57083Y-20988D01*
X57483Y-20988D02*
X57883Y-20988D01*
X57883Y-20988D02*
X57883Y-20388D01*
X57883Y-20388D02*
X57483Y-20388D01*
X56683Y-23637D02*
G75*
G03X56683Y-23637I-50J0D01*
G74*
G01*
X57083Y-23637D02*
X56683Y-23637D01*
X56683Y-23637D02*
X56683Y-24237D01*
X56683Y-24237D02*
X57083Y-24237D01*
X57483Y-24237D02*
X57883Y-24237D01*
X57883Y-24237D02*
X57883Y-23637D01*
X57883Y-23637D02*
X57483Y-23637D01*
X51531Y-29468D02*
G75*
G03X51531Y-29468I-50J0D01*
G74*
G01*
X51481Y-29918D02*
X51481Y-29518D01*
X51481Y-29518D02*
X50881Y-29518D01*
X50881Y-29518D02*
X50881Y-29918D01*
X50881Y-30318D02*
X50881Y-30718D01*
X50881Y-30718D02*
X51481Y-30718D01*
X51481Y-30718D02*
X51481Y-30318D01*
G54D14*
X49963Y-30659D02*
G75*
G03X49963Y-30659I-62J0D01*
G74*
G01*
X50239Y-29696D02*
X49839Y-29696D01*
X50239Y-30721D02*
X49839Y-30721D01*
X49839Y-29696D02*
X49839Y-30721D01*
X50239Y-30721D02*
X50239Y-29696D01*
G54D15*
X66299Y-31062D02*
X66063Y-31062D01*
X66063Y-31062D02*
X66063Y-29566D01*
X66063Y-29566D02*
X66299Y-29566D01*
X66693Y-29566D02*
X66929Y-29566D01*
X66929Y-29566D02*
X66929Y-31062D01*
X66929Y-31062D02*
X66693Y-31062D01*
G54D16*
X54379Y-25450D02*
X55579Y-25450D01*
X55579Y-25450D02*
X55579Y-28250D01*
X55579Y-28250D02*
X54379Y-28250D01*
X53179Y-25450D02*
X52879Y-25450D01*
X52879Y-25450D02*
X51979Y-26050D01*
X51979Y-26050D02*
X51979Y-27650D01*
X51979Y-27650D02*
X52879Y-28250D01*
X52879Y-28250D02*
X53179Y-28250D01*
X54340Y-19505D02*
X55540Y-19505D01*
X55540Y-19505D02*
X55540Y-22305D01*
X55540Y-22305D02*
X54340Y-22305D01*
X53140Y-19505D02*
X52840Y-19505D01*
X52840Y-19505D02*
X51940Y-20105D01*
X51940Y-20105D02*
X51940Y-21705D01*
X51940Y-21705D02*
X52840Y-22305D01*
X52840Y-22305D02*
X53140Y-22305D01*
X54340Y-22537D02*
X55540Y-22537D01*
X55540Y-22537D02*
X55540Y-25337D01*
X55540Y-25337D02*
X54340Y-25337D01*
X53140Y-22537D02*
X52840Y-22537D01*
X52840Y-22537D02*
X51940Y-23137D01*
X51940Y-23137D02*
X51940Y-24737D01*
X51940Y-24737D02*
X52840Y-25337D01*
X52840Y-25337D02*
X53140Y-25337D01*
G54D12*
X60036Y-16235D02*
X59736Y-16435D01*
X60736Y-16235D02*
X59711Y-16235D01*
X59711Y-16235D02*
X59711Y-16835D01*
X59711Y-16835D02*
X60736Y-16835D01*
X60736Y-16835D02*
X60736Y-16235D01*
G54D17*
X57435Y-28693D02*
X57435Y-28487D01*
X57356Y-28487D01*
X57337Y-28496D01*
X57327Y-28506D01*
X57317Y-28526D01*
X57317Y-28555D01*
X57327Y-28575D01*
X57337Y-28585D01*
X57356Y-28595D01*
X57435Y-28595D01*
X57238Y-28634D02*
X57140Y-28634D01*
X57258Y-28693D02*
X57189Y-28487D01*
X57121Y-28693D01*
X57081Y-28487D02*
X57012Y-28693D01*
X56944Y-28487D01*
X56875Y-28693D02*
X56875Y-28487D01*
X56826Y-28487D01*
X56796Y-28496D01*
X56777Y-28516D01*
X56767Y-28536D01*
X56757Y-28575D01*
X56757Y-28604D01*
X56767Y-28644D01*
X56777Y-28663D01*
X56796Y-28683D01*
X56826Y-28693D01*
X56875Y-28693D01*
X56669Y-28693D02*
X56669Y-28487D01*
X56620Y-28487D01*
X56590Y-28496D01*
X56570Y-28516D01*
X56561Y-28536D01*
X56551Y-28575D01*
X56551Y-28604D01*
X56561Y-28644D01*
X56570Y-28663D01*
X56590Y-28683D01*
X56620Y-28693D01*
X56669Y-28693D01*
X56354Y-28693D02*
X56472Y-28693D01*
X56413Y-28693D02*
X56413Y-28487D01*
X56433Y-28516D01*
X56453Y-28536D01*
X56472Y-28545D01*
G54D18*
X53857Y-29665D02*
X53862Y-29659D01*
X53868Y-29642D01*
X53868Y-29631D01*
X53862Y-29614D01*
X53851Y-29603D01*
X53840Y-29597D01*
X53818Y-29592D01*
X53801Y-29592D01*
X53778Y-29597D01*
X53767Y-29603D01*
X53756Y-29614D01*
X53750Y-29631D01*
X53750Y-29642D01*
X53756Y-29659D01*
X53761Y-29665D01*
X53868Y-29777D02*
X53868Y-29710D01*
X53868Y-29744D02*
X53750Y-29744D01*
X53767Y-29732D01*
X53778Y-29721D01*
X53784Y-29710D01*
X57361Y-21830D02*
X57366Y-21825D01*
X57372Y-21808D01*
X57372Y-21797D01*
X57366Y-21780D01*
X57355Y-21768D01*
X57344Y-21763D01*
X57321Y-21757D01*
X57305Y-21757D01*
X57282Y-21763D01*
X57271Y-21768D01*
X57260Y-21780D01*
X57254Y-21797D01*
X57254Y-21808D01*
X57260Y-21825D01*
X57265Y-21830D01*
X57265Y-21875D02*
X57260Y-21881D01*
X57254Y-21892D01*
X57254Y-21920D01*
X57260Y-21931D01*
X57265Y-21937D01*
X57276Y-21943D01*
X57288Y-21943D01*
X57305Y-21937D01*
X57372Y-21870D01*
X57372Y-21943D01*
X54880Y-29665D02*
X54886Y-29659D01*
X54892Y-29642D01*
X54892Y-29631D01*
X54886Y-29614D01*
X54875Y-29603D01*
X54864Y-29597D01*
X54841Y-29592D01*
X54824Y-29592D01*
X54802Y-29597D01*
X54791Y-29603D01*
X54779Y-29614D01*
X54774Y-29631D01*
X54774Y-29642D01*
X54779Y-29659D01*
X54785Y-29665D01*
X54774Y-29704D02*
X54774Y-29777D01*
X54819Y-29738D01*
X54819Y-29755D01*
X54824Y-29766D01*
X54830Y-29772D01*
X54841Y-29777D01*
X54869Y-29777D01*
X54880Y-29772D01*
X54886Y-29766D01*
X54892Y-29755D01*
X54892Y-29721D01*
X54886Y-29710D01*
X54880Y-29704D01*
X58188Y-21830D02*
X58193Y-21825D01*
X58199Y-21808D01*
X58199Y-21797D01*
X58193Y-21780D01*
X58182Y-21768D01*
X58171Y-21763D01*
X58148Y-21757D01*
X58131Y-21757D01*
X58109Y-21763D01*
X58098Y-21768D01*
X58086Y-21780D01*
X58081Y-21797D01*
X58081Y-21808D01*
X58086Y-21825D01*
X58092Y-21830D01*
X58120Y-21931D02*
X58199Y-21931D01*
X58075Y-21903D02*
X58159Y-21875D01*
X58159Y-21948D01*
X55754Y-26870D02*
X55760Y-26864D01*
X55765Y-26847D01*
X55765Y-26836D01*
X55760Y-26819D01*
X55748Y-26808D01*
X55737Y-26802D01*
X55715Y-26797D01*
X55698Y-26797D01*
X55675Y-26802D01*
X55664Y-26808D01*
X55653Y-26819D01*
X55647Y-26836D01*
X55647Y-26847D01*
X55653Y-26864D01*
X55658Y-26870D01*
X55647Y-26976D02*
X55647Y-26920D01*
X55703Y-26915D01*
X55698Y-26920D01*
X55692Y-26931D01*
X55692Y-26960D01*
X55698Y-26971D01*
X55703Y-26976D01*
X55715Y-26982D01*
X55743Y-26982D01*
X55754Y-26976D01*
X55760Y-26971D01*
X55765Y-26960D01*
X55765Y-26931D01*
X55760Y-26920D01*
X55754Y-26915D01*
X55793Y-20295D02*
X55799Y-20289D01*
X55805Y-20272D01*
X55805Y-20261D01*
X55799Y-20244D01*
X55788Y-20233D01*
X55777Y-20227D01*
X55754Y-20222D01*
X55737Y-20222D01*
X55715Y-20227D01*
X55703Y-20233D01*
X55692Y-20244D01*
X55687Y-20261D01*
X55687Y-20272D01*
X55692Y-20289D01*
X55698Y-20295D01*
X55687Y-20396D02*
X55687Y-20373D01*
X55692Y-20362D01*
X55698Y-20357D01*
X55715Y-20345D01*
X55737Y-20340D01*
X55782Y-20340D01*
X55793Y-20345D01*
X55799Y-20351D01*
X55805Y-20362D01*
X55805Y-20385D01*
X55799Y-20396D01*
X55793Y-20402D01*
X55782Y-20407D01*
X55754Y-20407D01*
X55743Y-20402D01*
X55737Y-20396D01*
X55732Y-20385D01*
X55732Y-20362D01*
X55737Y-20351D01*
X55743Y-20345D01*
X55754Y-20340D01*
X66384Y-20610D02*
X66390Y-20604D01*
X66395Y-20587D01*
X66395Y-20576D01*
X66390Y-20559D01*
X66378Y-20548D01*
X66367Y-20542D01*
X66345Y-20537D01*
X66328Y-20537D01*
X66305Y-20542D01*
X66294Y-20548D01*
X66283Y-20559D01*
X66277Y-20576D01*
X66277Y-20587D01*
X66283Y-20604D01*
X66288Y-20610D01*
X66277Y-20649D02*
X66277Y-20728D01*
X66395Y-20677D01*
X67171Y-20610D02*
X67177Y-20604D01*
X67183Y-20587D01*
X67183Y-20576D01*
X67177Y-20559D01*
X67166Y-20548D01*
X67154Y-20542D01*
X67132Y-20537D01*
X67115Y-20537D01*
X67093Y-20542D01*
X67081Y-20548D01*
X67070Y-20559D01*
X67065Y-20576D01*
X67065Y-20587D01*
X67070Y-20604D01*
X67076Y-20610D01*
X67183Y-20666D02*
X67183Y-20688D01*
X67177Y-20700D01*
X67171Y-20705D01*
X67154Y-20717D01*
X67132Y-20722D01*
X67087Y-20722D01*
X67076Y-20717D01*
X67070Y-20711D01*
X67065Y-20700D01*
X67065Y-20677D01*
X67070Y-20666D01*
X67076Y-20660D01*
X67087Y-20655D01*
X67115Y-20655D01*
X67126Y-20660D01*
X67132Y-20666D01*
X67138Y-20677D01*
X67138Y-20700D01*
X67132Y-20711D01*
X67126Y-20717D01*
X67115Y-20722D01*
X62083Y-25038D02*
X62089Y-25044D01*
X62106Y-25049D01*
X62117Y-25049D01*
X62134Y-25044D01*
X62145Y-25032D01*
X62151Y-25021D01*
X62156Y-24999D01*
X62156Y-24982D01*
X62151Y-24959D01*
X62145Y-24948D01*
X62134Y-24937D01*
X62117Y-24931D01*
X62106Y-24931D01*
X62089Y-24937D01*
X62083Y-24942D01*
X61971Y-25049D02*
X62038Y-25049D01*
X62005Y-25049D02*
X62005Y-24931D01*
X62016Y-24948D01*
X62027Y-24959D01*
X62038Y-24965D01*
X61864Y-24931D02*
X61920Y-24931D01*
X61926Y-24987D01*
X61920Y-24982D01*
X61909Y-24976D01*
X61881Y-24976D01*
X61870Y-24982D01*
X61864Y-24987D01*
X61858Y-24999D01*
X61858Y-25027D01*
X61864Y-25038D01*
X61870Y-25044D01*
X61881Y-25049D01*
X61909Y-25049D01*
X61920Y-25044D01*
X61926Y-25038D01*
X62083Y-25924D02*
X62089Y-25929D01*
X62106Y-25935D01*
X62117Y-25935D01*
X62134Y-25929D01*
X62145Y-25918D01*
X62151Y-25907D01*
X62156Y-25884D01*
X62156Y-25868D01*
X62151Y-25845D01*
X62145Y-25834D01*
X62134Y-25823D01*
X62117Y-25817D01*
X62106Y-25817D01*
X62089Y-25823D01*
X62083Y-25828D01*
X61971Y-25935D02*
X62038Y-25935D01*
X62005Y-25935D02*
X62005Y-25817D01*
X62016Y-25834D01*
X62027Y-25845D01*
X62038Y-25851D01*
X61870Y-25817D02*
X61892Y-25817D01*
X61903Y-25823D01*
X61909Y-25828D01*
X61920Y-25845D01*
X61926Y-25868D01*
X61926Y-25913D01*
X61920Y-25924D01*
X61915Y-25929D01*
X61903Y-25935D01*
X61881Y-25935D01*
X61870Y-25929D01*
X61864Y-25924D01*
X61858Y-25913D01*
X61858Y-25884D01*
X61864Y-25873D01*
X61870Y-25868D01*
X61881Y-25862D01*
X61903Y-25862D01*
X61915Y-25868D01*
X61920Y-25873D01*
X61926Y-25884D01*
X60176Y-26400D02*
X60181Y-26394D01*
X60187Y-26378D01*
X60187Y-26366D01*
X60181Y-26349D01*
X60170Y-26338D01*
X60159Y-26333D01*
X60136Y-26327D01*
X60120Y-26327D01*
X60097Y-26333D01*
X60086Y-26338D01*
X60075Y-26349D01*
X60069Y-26366D01*
X60069Y-26378D01*
X60075Y-26394D01*
X60080Y-26400D01*
X60187Y-26512D02*
X60187Y-26445D01*
X60187Y-26479D02*
X60069Y-26479D01*
X60086Y-26467D01*
X60097Y-26456D01*
X60103Y-26445D01*
X60069Y-26552D02*
X60069Y-26630D01*
X60187Y-26580D01*
X56534Y-25239D02*
X56540Y-25233D01*
X56545Y-25216D01*
X56545Y-25205D01*
X56540Y-25188D01*
X56528Y-25177D01*
X56517Y-25171D01*
X56495Y-25166D01*
X56478Y-25166D01*
X56455Y-25171D01*
X56444Y-25177D01*
X56433Y-25188D01*
X56427Y-25205D01*
X56427Y-25216D01*
X56433Y-25233D01*
X56438Y-25239D01*
X56438Y-25284D02*
X56433Y-25289D01*
X56427Y-25300D01*
X56427Y-25329D01*
X56433Y-25340D01*
X56438Y-25345D01*
X56450Y-25351D01*
X56461Y-25351D01*
X56478Y-25345D01*
X56545Y-25278D01*
X56545Y-25351D01*
X56427Y-25424D02*
X56427Y-25435D01*
X56433Y-25447D01*
X56438Y-25452D01*
X56450Y-25458D01*
X56472Y-25463D01*
X56500Y-25463D01*
X56523Y-25458D01*
X56534Y-25452D01*
X56540Y-25447D01*
X56545Y-25435D01*
X56545Y-25424D01*
X56540Y-25413D01*
X56534Y-25407D01*
X56523Y-25402D01*
X56500Y-25396D01*
X56472Y-25396D01*
X56450Y-25402D01*
X56438Y-25407D01*
X56433Y-25413D01*
X56427Y-25424D01*
X57420Y-25239D02*
X57425Y-25233D01*
X57431Y-25216D01*
X57431Y-25205D01*
X57425Y-25188D01*
X57414Y-25177D01*
X57403Y-25171D01*
X57380Y-25166D01*
X57364Y-25166D01*
X57341Y-25171D01*
X57330Y-25177D01*
X57319Y-25188D01*
X57313Y-25205D01*
X57313Y-25216D01*
X57319Y-25233D01*
X57324Y-25239D01*
X57324Y-25284D02*
X57319Y-25289D01*
X57313Y-25300D01*
X57313Y-25329D01*
X57319Y-25340D01*
X57324Y-25345D01*
X57336Y-25351D01*
X57347Y-25351D01*
X57364Y-25345D01*
X57431Y-25278D01*
X57431Y-25351D01*
X57431Y-25463D02*
X57431Y-25396D01*
X57431Y-25430D02*
X57313Y-25430D01*
X57330Y-25418D01*
X57341Y-25407D01*
X57347Y-25396D01*
X66040Y-29172D02*
X66046Y-29177D01*
X66062Y-29183D01*
X66074Y-29183D01*
X66090Y-29177D01*
X66102Y-29166D01*
X66107Y-29155D01*
X66113Y-29132D01*
X66113Y-29116D01*
X66107Y-29093D01*
X66102Y-29082D01*
X66090Y-29071D01*
X66074Y-29065D01*
X66062Y-29065D01*
X66046Y-29071D01*
X66040Y-29076D01*
X65995Y-29076D02*
X65989Y-29071D01*
X65978Y-29065D01*
X65950Y-29065D01*
X65939Y-29071D01*
X65933Y-29076D01*
X65928Y-29088D01*
X65928Y-29099D01*
X65933Y-29116D01*
X66001Y-29183D01*
X65928Y-29183D01*
X65888Y-29065D02*
X65815Y-29065D01*
X65854Y-29110D01*
X65838Y-29110D01*
X65826Y-29116D01*
X65821Y-29121D01*
X65815Y-29132D01*
X65815Y-29161D01*
X65821Y-29172D01*
X65826Y-29177D01*
X65838Y-29183D01*
X65871Y-29183D01*
X65883Y-29177D01*
X65888Y-29172D01*
X65904Y-30140D02*
X65910Y-30135D01*
X65915Y-30118D01*
X65915Y-30106D01*
X65910Y-30090D01*
X65898Y-30078D01*
X65887Y-30073D01*
X65865Y-30067D01*
X65848Y-30067D01*
X65825Y-30073D01*
X65814Y-30078D01*
X65803Y-30090D01*
X65797Y-30106D01*
X65797Y-30118D01*
X65803Y-30135D01*
X65809Y-30140D01*
X65809Y-30185D02*
X65803Y-30191D01*
X65797Y-30202D01*
X65797Y-30230D01*
X65803Y-30241D01*
X65809Y-30247D01*
X65820Y-30253D01*
X65831Y-30253D01*
X65848Y-30247D01*
X65915Y-30180D01*
X65915Y-30253D01*
X65797Y-30292D02*
X65797Y-30371D01*
X65915Y-30320D01*
X55754Y-23467D02*
X55760Y-23461D01*
X55765Y-23444D01*
X55765Y-23433D01*
X55760Y-23416D01*
X55748Y-23405D01*
X55737Y-23400D01*
X55715Y-23394D01*
X55698Y-23394D01*
X55675Y-23400D01*
X55664Y-23405D01*
X55653Y-23416D01*
X55647Y-23433D01*
X55647Y-23444D01*
X55653Y-23461D01*
X55658Y-23467D01*
X55647Y-23506D02*
X55647Y-23579D01*
X55692Y-23540D01*
X55692Y-23557D01*
X55698Y-23568D01*
X55703Y-23574D01*
X55715Y-23579D01*
X55743Y-23579D01*
X55754Y-23574D01*
X55760Y-23568D01*
X55765Y-23557D01*
X55765Y-23523D01*
X55760Y-23512D01*
X55754Y-23506D01*
X55647Y-23619D02*
X55647Y-23692D01*
X55692Y-23652D01*
X55692Y-23669D01*
X55698Y-23680D01*
X55703Y-23686D01*
X55715Y-23692D01*
X55743Y-23692D01*
X55754Y-23686D01*
X55760Y-23680D01*
X55765Y-23669D01*
X55765Y-23636D01*
X55760Y-23624D01*
X55754Y-23619D01*
X63658Y-25038D02*
X63664Y-25044D01*
X63681Y-25049D01*
X63692Y-25049D01*
X63709Y-25044D01*
X63720Y-25032D01*
X63725Y-25021D01*
X63731Y-24999D01*
X63731Y-24982D01*
X63725Y-24959D01*
X63720Y-24948D01*
X63709Y-24937D01*
X63692Y-24931D01*
X63681Y-24931D01*
X63664Y-24937D01*
X63658Y-24942D01*
X63619Y-24931D02*
X63546Y-24931D01*
X63585Y-24976D01*
X63568Y-24976D01*
X63557Y-24982D01*
X63551Y-24987D01*
X63546Y-24999D01*
X63546Y-25027D01*
X63551Y-25038D01*
X63557Y-25044D01*
X63568Y-25049D01*
X63602Y-25049D01*
X63613Y-25044D01*
X63619Y-25038D01*
X63445Y-24971D02*
X63445Y-25049D01*
X63473Y-24926D02*
X63501Y-25010D01*
X63428Y-25010D01*
X63658Y-25825D02*
X63664Y-25831D01*
X63681Y-25837D01*
X63692Y-25837D01*
X63709Y-25831D01*
X63720Y-25820D01*
X63725Y-25808D01*
X63731Y-25786D01*
X63731Y-25769D01*
X63725Y-25747D01*
X63720Y-25735D01*
X63709Y-25724D01*
X63692Y-25719D01*
X63681Y-25719D01*
X63664Y-25724D01*
X63658Y-25730D01*
X63619Y-25719D02*
X63546Y-25719D01*
X63585Y-25764D01*
X63568Y-25764D01*
X63557Y-25769D01*
X63551Y-25775D01*
X63546Y-25786D01*
X63546Y-25814D01*
X63551Y-25825D01*
X63557Y-25831D01*
X63568Y-25837D01*
X63602Y-25837D01*
X63613Y-25831D01*
X63619Y-25825D01*
X63506Y-25719D02*
X63428Y-25719D01*
X63478Y-25837D01*
X58707Y-16459D02*
X58712Y-16453D01*
X58718Y-16437D01*
X58718Y-16425D01*
X58712Y-16409D01*
X58701Y-16397D01*
X58690Y-16392D01*
X58667Y-16386D01*
X58651Y-16386D01*
X58628Y-16392D01*
X58617Y-16397D01*
X58606Y-16409D01*
X58600Y-16425D01*
X58600Y-16437D01*
X58606Y-16453D01*
X58611Y-16459D01*
X58600Y-16498D02*
X58600Y-16571D01*
X58645Y-16532D01*
X58645Y-16549D01*
X58651Y-16560D01*
X58656Y-16566D01*
X58667Y-16571D01*
X58696Y-16571D01*
X58707Y-16566D01*
X58712Y-16560D01*
X58718Y-16549D01*
X58718Y-16515D01*
X58712Y-16504D01*
X58707Y-16498D01*
X58651Y-16639D02*
X58645Y-16628D01*
X58639Y-16622D01*
X58628Y-16616D01*
X58622Y-16616D01*
X58611Y-16622D01*
X58606Y-16628D01*
X58600Y-16639D01*
X58600Y-16661D01*
X58606Y-16673D01*
X58611Y-16678D01*
X58622Y-16684D01*
X58628Y-16684D01*
X58639Y-16678D01*
X58645Y-16673D01*
X58651Y-16661D01*
X58651Y-16639D01*
X58656Y-16628D01*
X58662Y-16622D01*
X58673Y-16616D01*
X58696Y-16616D01*
X58707Y-16622D01*
X58712Y-16628D01*
X58718Y-16639D01*
X58718Y-16661D01*
X58712Y-16673D01*
X58707Y-16678D01*
X58696Y-16684D01*
X58673Y-16684D01*
X58662Y-16678D01*
X58656Y-16673D01*
X58651Y-16661D01*
X51416Y-31518D02*
X51422Y-31513D01*
X51427Y-31496D01*
X51427Y-31484D01*
X51422Y-31468D01*
X51410Y-31456D01*
X51399Y-31451D01*
X51377Y-31445D01*
X51360Y-31445D01*
X51337Y-31451D01*
X51326Y-31456D01*
X51315Y-31468D01*
X51309Y-31484D01*
X51309Y-31496D01*
X51315Y-31513D01*
X51320Y-31518D01*
X51309Y-31557D02*
X51309Y-31631D01*
X51354Y-31591D01*
X51354Y-31608D01*
X51360Y-31619D01*
X51365Y-31625D01*
X51377Y-31631D01*
X51405Y-31631D01*
X51416Y-31625D01*
X51422Y-31619D01*
X51427Y-31608D01*
X51427Y-31574D01*
X51422Y-31563D01*
X51416Y-31557D01*
X51427Y-31687D02*
X51427Y-31709D01*
X51422Y-31720D01*
X51416Y-31726D01*
X51399Y-31737D01*
X51377Y-31743D01*
X51332Y-31743D01*
X51320Y-31737D01*
X51315Y-31732D01*
X51309Y-31720D01*
X51309Y-31698D01*
X51315Y-31687D01*
X51320Y-31681D01*
X51332Y-31675D01*
X51360Y-31675D01*
X51371Y-31681D01*
X51377Y-31687D01*
X51382Y-31698D01*
X51382Y-31720D01*
X51377Y-31732D01*
X51371Y-31737D01*
X51360Y-31743D01*
G54D19*
X57443Y-27394D02*
X57508Y-27394D01*
X57508Y-27497D02*
X57508Y-27300D01*
X57414Y-27300D01*
X57274Y-27394D02*
X57246Y-27403D01*
X57236Y-27413D01*
X57227Y-27431D01*
X57227Y-27460D01*
X57236Y-27478D01*
X57246Y-27488D01*
X57264Y-27497D01*
X57339Y-27497D01*
X57339Y-27300D01*
X57274Y-27300D01*
X57255Y-27309D01*
X57246Y-27319D01*
X57236Y-27338D01*
X57236Y-27356D01*
X57246Y-27375D01*
X57255Y-27385D01*
X57274Y-27394D01*
X57339Y-27394D01*
X57039Y-27497D02*
X57152Y-27497D01*
X57095Y-27497D02*
X57095Y-27300D01*
X57114Y-27328D01*
X57133Y-27347D01*
X57152Y-27356D01*
X56917Y-27300D02*
X56898Y-27300D01*
X56880Y-27309D01*
X56870Y-27319D01*
X56861Y-27338D01*
X56852Y-27375D01*
X56852Y-27422D01*
X56861Y-27460D01*
X56870Y-27478D01*
X56880Y-27488D01*
X56898Y-27497D01*
X56917Y-27497D01*
X56936Y-27488D01*
X56945Y-27478D01*
X56955Y-27460D01*
X56964Y-27422D01*
X56964Y-27375D01*
X56955Y-27338D01*
X56945Y-27319D01*
X56936Y-27309D01*
X56917Y-27300D01*
X57255Y-27119D02*
X57321Y-27119D01*
X57321Y-27222D02*
X57321Y-27025D01*
X57227Y-27025D01*
X57086Y-27119D02*
X57058Y-27128D01*
X57049Y-27138D01*
X57039Y-27156D01*
X57039Y-27185D01*
X57049Y-27203D01*
X57058Y-27213D01*
X57077Y-27222D01*
X57152Y-27222D01*
X57152Y-27025D01*
X57086Y-27025D01*
X57067Y-27034D01*
X57058Y-27044D01*
X57049Y-27063D01*
X57049Y-27081D01*
X57058Y-27100D01*
X57067Y-27110D01*
X57086Y-27119D01*
X57152Y-27119D01*
X57443Y-26606D02*
X57508Y-26606D01*
X57508Y-26710D02*
X57508Y-26513D01*
X57414Y-26513D01*
X57274Y-26606D02*
X57246Y-26616D01*
X57236Y-26625D01*
X57227Y-26644D01*
X57227Y-26672D01*
X57236Y-26691D01*
X57246Y-26700D01*
X57264Y-26710D01*
X57339Y-26710D01*
X57339Y-26513D01*
X57274Y-26513D01*
X57255Y-26522D01*
X57246Y-26531D01*
X57236Y-26550D01*
X57236Y-26569D01*
X57246Y-26588D01*
X57255Y-26597D01*
X57274Y-26606D01*
X57339Y-26606D01*
X57039Y-26710D02*
X57152Y-26710D01*
X57095Y-26710D02*
X57095Y-26513D01*
X57114Y-26541D01*
X57133Y-26560D01*
X57152Y-26569D01*
X56852Y-26710D02*
X56964Y-26710D01*
X56908Y-26710D02*
X56908Y-26513D01*
X56927Y-26541D01*
X56945Y-26560D01*
X56964Y-26569D01*
X57255Y-26331D02*
X57321Y-26331D01*
X57321Y-26435D02*
X57321Y-26238D01*
X57227Y-26238D01*
X57086Y-26331D02*
X57058Y-26341D01*
X57049Y-26350D01*
X57039Y-26369D01*
X57039Y-26397D01*
X57049Y-26416D01*
X57058Y-26425D01*
X57077Y-26435D01*
X57152Y-26435D01*
X57152Y-26238D01*
X57086Y-26238D01*
X57067Y-26247D01*
X57058Y-26256D01*
X57049Y-26275D01*
X57049Y-26294D01*
X57058Y-26313D01*
X57067Y-26322D01*
X57086Y-26331D01*
X57152Y-26331D01*
X57541Y-20799D02*
X57607Y-20799D01*
X57607Y-20903D02*
X57607Y-20706D01*
X57513Y-20706D01*
X57372Y-20799D02*
X57344Y-20809D01*
X57335Y-20818D01*
X57325Y-20837D01*
X57325Y-20865D01*
X57335Y-20884D01*
X57344Y-20893D01*
X57363Y-20903D01*
X57438Y-20903D01*
X57438Y-20706D01*
X57372Y-20706D01*
X57353Y-20715D01*
X57344Y-20724D01*
X57335Y-20743D01*
X57335Y-20762D01*
X57344Y-20781D01*
X57353Y-20790D01*
X57372Y-20799D01*
X57438Y-20799D01*
X57138Y-20903D02*
X57250Y-20903D01*
X57194Y-20903D02*
X57194Y-20706D01*
X57213Y-20734D01*
X57231Y-20753D01*
X57250Y-20762D01*
X57063Y-20724D02*
X57053Y-20715D01*
X57034Y-20706D01*
X56987Y-20706D01*
X56969Y-20715D01*
X56959Y-20724D01*
X56950Y-20743D01*
X56950Y-20762D01*
X56959Y-20790D01*
X57072Y-20903D01*
X56950Y-20903D01*
X57353Y-20524D02*
X57419Y-20524D01*
X57419Y-20628D02*
X57419Y-20431D01*
X57325Y-20431D01*
X57184Y-20524D02*
X57156Y-20534D01*
X57147Y-20543D01*
X57138Y-20562D01*
X57138Y-20590D01*
X57147Y-20609D01*
X57156Y-20618D01*
X57175Y-20628D01*
X57250Y-20628D01*
X57250Y-20431D01*
X57184Y-20431D01*
X57166Y-20440D01*
X57156Y-20449D01*
X57147Y-20468D01*
X57147Y-20487D01*
X57156Y-20506D01*
X57166Y-20515D01*
X57184Y-20524D01*
X57250Y-20524D01*
X57541Y-24047D02*
X57607Y-24047D01*
X57607Y-24151D02*
X57607Y-23954D01*
X57513Y-23954D01*
X57372Y-24047D02*
X57344Y-24057D01*
X57335Y-24066D01*
X57325Y-24085D01*
X57325Y-24113D01*
X57335Y-24132D01*
X57344Y-24141D01*
X57363Y-24151D01*
X57438Y-24151D01*
X57438Y-23954D01*
X57372Y-23954D01*
X57353Y-23963D01*
X57344Y-23972D01*
X57335Y-23991D01*
X57335Y-24010D01*
X57344Y-24029D01*
X57353Y-24038D01*
X57372Y-24047D01*
X57438Y-24047D01*
X57138Y-24151D02*
X57250Y-24151D01*
X57194Y-24151D02*
X57194Y-23954D01*
X57213Y-23982D01*
X57231Y-24001D01*
X57250Y-24010D01*
X56969Y-24019D02*
X56969Y-24151D01*
X57016Y-23944D02*
X57063Y-24085D01*
X56941Y-24085D01*
X57353Y-23772D02*
X57419Y-23772D01*
X57419Y-23876D02*
X57419Y-23679D01*
X57325Y-23679D01*
X57184Y-23772D02*
X57156Y-23782D01*
X57147Y-23791D01*
X57138Y-23810D01*
X57138Y-23838D01*
X57147Y-23857D01*
X57156Y-23866D01*
X57175Y-23876D01*
X57250Y-23876D01*
X57250Y-23679D01*
X57184Y-23679D01*
X57166Y-23688D01*
X57156Y-23697D01*
X57147Y-23716D01*
X57147Y-23735D01*
X57156Y-23754D01*
X57166Y-23763D01*
X57184Y-23772D01*
X57250Y-23772D01*
X51042Y-29860D02*
X51042Y-29794D01*
X51145Y-29794D02*
X50948Y-29794D01*
X50948Y-29888D01*
X51042Y-30028D02*
X51051Y-30057D01*
X51060Y-30066D01*
X51079Y-30075D01*
X51107Y-30075D01*
X51126Y-30066D01*
X51135Y-30057D01*
X51145Y-30038D01*
X51145Y-29963D01*
X50948Y-29963D01*
X50948Y-30028D01*
X50957Y-30047D01*
X50966Y-30057D01*
X50985Y-30066D01*
X51004Y-30066D01*
X51023Y-30057D01*
X51032Y-30047D01*
X51042Y-30028D01*
X51042Y-29963D01*
X51145Y-30263D02*
X51145Y-30150D01*
X51145Y-30207D02*
X50948Y-30207D01*
X50976Y-30188D01*
X50995Y-30169D01*
X51004Y-30150D01*
X50948Y-30441D02*
X50948Y-30347D01*
X51042Y-30338D01*
X51032Y-30347D01*
X51023Y-30366D01*
X51023Y-30413D01*
X51032Y-30432D01*
X51042Y-30441D01*
X51060Y-30451D01*
X51107Y-30451D01*
X51126Y-30441D01*
X51135Y-30432D01*
X51145Y-30413D01*
X51145Y-30366D01*
X51135Y-30347D01*
X51126Y-30338D01*
X51317Y-30047D02*
X51317Y-29982D01*
X51420Y-29982D02*
X51223Y-29982D01*
X51223Y-30075D01*
X51317Y-30216D02*
X51326Y-30244D01*
X51335Y-30254D01*
X51354Y-30263D01*
X51382Y-30263D01*
X51401Y-30254D01*
X51410Y-30244D01*
X51420Y-30225D01*
X51420Y-30150D01*
X51223Y-30150D01*
X51223Y-30216D01*
X51232Y-30235D01*
X51241Y-30244D01*
X51260Y-30254D01*
X51279Y-30254D01*
X51298Y-30244D01*
X51307Y-30235D01*
X51317Y-30216D01*
X51317Y-30150D01*
G54D17*
X57632Y-19203D02*
X57632Y-18997D01*
X57553Y-18997D01*
X57534Y-19007D01*
X57524Y-19016D01*
X57514Y-19036D01*
X57514Y-19066D01*
X57524Y-19085D01*
X57534Y-19095D01*
X57553Y-19105D01*
X57632Y-19105D01*
X57445Y-18997D02*
X57318Y-18997D01*
X57386Y-19075D01*
X57357Y-19075D01*
X57337Y-19085D01*
X57328Y-19095D01*
X57318Y-19115D01*
X57318Y-19164D01*
X57328Y-19183D01*
X57337Y-19193D01*
X57357Y-19203D01*
X57416Y-19203D01*
X57436Y-19193D01*
X57445Y-19183D01*
G54D20*
X58808Y-16232D02*
X58808Y-15632D01*
X58580Y-15632D01*
X58523Y-15660D01*
X58494Y-15689D01*
X58466Y-15746D01*
X58466Y-15832D01*
X58494Y-15889D01*
X58523Y-15917D01*
X58580Y-15946D01*
X58808Y-15946D01*
X57923Y-15632D02*
X58208Y-15632D01*
X58237Y-15917D01*
X58208Y-15889D01*
X58151Y-15860D01*
X58008Y-15860D01*
X57951Y-15889D01*
X57923Y-15917D01*
X57894Y-15974D01*
X57894Y-16117D01*
X57923Y-16174D01*
X57951Y-16203D01*
X58008Y-16232D01*
X58151Y-16232D01*
X58208Y-16203D01*
X58237Y-16174D01*
G54D17*
X58338Y-26093D02*
X58338Y-25887D01*
X58260Y-25887D01*
X58240Y-25896D01*
X58230Y-25906D01*
X58221Y-25926D01*
X58221Y-25955D01*
X58230Y-25975D01*
X58240Y-25985D01*
X58260Y-25995D01*
X58338Y-25995D01*
X58034Y-25887D02*
X58132Y-25887D01*
X58142Y-25985D01*
X58132Y-25975D01*
X58112Y-25965D01*
X58063Y-25965D01*
X58044Y-25975D01*
X58034Y-25985D01*
X58024Y-26004D01*
X58024Y-26054D01*
X58034Y-26073D01*
X58044Y-26083D01*
X58063Y-26093D01*
X58112Y-26093D01*
X58132Y-26083D01*
X58142Y-26073D01*
X57965Y-25887D02*
X57896Y-26093D01*
X57828Y-25887D01*
X57720Y-25887D02*
X57700Y-25887D01*
X57680Y-25896D01*
X57670Y-25906D01*
X57661Y-25926D01*
X57651Y-25965D01*
X57651Y-26014D01*
X57661Y-26054D01*
X57670Y-26073D01*
X57680Y-26083D01*
X57700Y-26093D01*
X57720Y-26093D01*
X57739Y-26083D01*
X57749Y-26073D01*
X57759Y-26054D01*
X57769Y-26014D01*
X57769Y-25965D01*
X57759Y-25926D01*
X57749Y-25906D01*
X57739Y-25896D01*
X57720Y-25887D01*
X55766Y-18793D02*
X55766Y-18587D01*
X55688Y-18587D01*
X55668Y-18596D01*
X55658Y-18606D01*
X55648Y-18626D01*
X55648Y-18655D01*
X55658Y-18675D01*
X55668Y-18685D01*
X55688Y-18695D01*
X55766Y-18695D01*
X55452Y-18596D02*
X55471Y-18587D01*
X55501Y-18587D01*
X55530Y-18596D01*
X55550Y-18616D01*
X55560Y-18636D01*
X55570Y-18675D01*
X55570Y-18704D01*
X55560Y-18744D01*
X55550Y-18763D01*
X55530Y-18783D01*
X55501Y-18793D01*
X55481Y-18793D01*
X55452Y-18783D01*
X55442Y-18773D01*
X55442Y-18704D01*
X55481Y-18704D01*
X55354Y-18793D02*
X55354Y-18587D01*
X55236Y-18793D01*
X55236Y-18587D01*
X55137Y-18793D02*
X55137Y-18587D01*
X55088Y-18587D01*
X55059Y-18596D01*
X55039Y-18616D01*
X55029Y-18636D01*
X55020Y-18675D01*
X55020Y-18704D01*
X55029Y-18744D01*
X55039Y-18763D01*
X55059Y-18783D01*
X55088Y-18793D01*
X55137Y-18793D01*
X54823Y-18793D02*
X54941Y-18793D01*
X54882Y-18793D02*
X54882Y-18587D01*
X54902Y-18616D01*
X54921Y-18636D01*
X54941Y-18645D01*
G54D21*
X50106Y-29574D02*
X50135Y-29559D01*
X50164Y-29531D01*
X50206Y-29488D01*
X50235Y-29474D01*
X50264Y-29474D01*
X50249Y-29545D02*
X50278Y-29531D01*
X50306Y-29502D01*
X50321Y-29445D01*
X50321Y-29345D01*
X50306Y-29288D01*
X50278Y-29259D01*
X50249Y-29245D01*
X50192Y-29245D01*
X50164Y-29259D01*
X50135Y-29288D01*
X50121Y-29345D01*
X50121Y-29445D01*
X50135Y-29502D01*
X50164Y-29531D01*
X50192Y-29545D01*
X50249Y-29545D01*
X49835Y-29545D02*
X50006Y-29545D01*
X49921Y-29545D02*
X49921Y-29245D01*
X49949Y-29288D01*
X49978Y-29316D01*
X50006Y-29331D01*
G54D13*
X50119Y-29693D02*
X50128Y-29721D01*
X50128Y-29768D01*
X50119Y-29787D01*
X50109Y-29796D01*
X50090Y-29805D01*
X50072Y-29805D01*
X50053Y-29796D01*
X50044Y-29787D01*
X50034Y-29768D01*
X50025Y-29730D01*
X50015Y-29712D01*
X50006Y-29702D01*
X49987Y-29693D01*
X49969Y-29693D01*
X49950Y-29702D01*
X49940Y-29712D01*
X49931Y-29730D01*
X49931Y-29777D01*
X49940Y-29805D01*
X50128Y-29890D02*
X49997Y-29890D01*
X49931Y-29890D02*
X49940Y-29881D01*
X49950Y-29890D01*
X49940Y-29899D01*
X49931Y-29890D01*
X49950Y-29890D01*
X49950Y-29974D02*
X49940Y-29984D01*
X49931Y-30002D01*
X49931Y-30049D01*
X49940Y-30068D01*
X49950Y-30078D01*
X49969Y-30087D01*
X49987Y-30087D01*
X50015Y-30078D01*
X50128Y-29965D01*
X50128Y-30087D01*
X49931Y-30153D02*
X49931Y-30275D01*
X50006Y-30209D01*
X50006Y-30237D01*
X50015Y-30256D01*
X50025Y-30265D01*
X50044Y-30275D01*
X50090Y-30275D01*
X50109Y-30265D01*
X50119Y-30256D01*
X50128Y-30237D01*
X50128Y-30181D01*
X50119Y-30162D01*
X50109Y-30153D01*
X49931Y-30396D02*
X49931Y-30415D01*
X49940Y-30434D01*
X49950Y-30443D01*
X49969Y-30453D01*
X50006Y-30462D01*
X50053Y-30462D01*
X50090Y-30453D01*
X50109Y-30443D01*
X50119Y-30434D01*
X50128Y-30415D01*
X50128Y-30396D01*
X50119Y-30378D01*
X50109Y-30368D01*
X50090Y-30359D01*
X50053Y-30350D01*
X50006Y-30350D01*
X49969Y-30359D01*
X49950Y-30368D01*
X49940Y-30378D01*
X49931Y-30396D01*
X50128Y-30650D02*
X50128Y-30537D01*
X50128Y-30593D02*
X49931Y-30593D01*
X49959Y-30575D01*
X49978Y-30556D01*
X49987Y-30537D01*
G54D20*
X67673Y-30175D02*
X67387Y-29975D01*
X67673Y-29833D02*
X67073Y-29833D01*
X67073Y-30061D01*
X67102Y-30118D01*
X67130Y-30147D01*
X67187Y-30175D01*
X67273Y-30175D01*
X67330Y-30147D01*
X67359Y-30118D01*
X67387Y-30061D01*
X67387Y-29833D01*
X67273Y-30690D02*
X67673Y-30690D01*
X67044Y-30547D02*
X67473Y-30404D01*
X67473Y-30775D01*
G54D17*
X58760Y-20424D02*
X58829Y-20325D01*
X58878Y-20424D02*
X58878Y-20217D01*
X58799Y-20217D01*
X58779Y-20227D01*
X58770Y-20237D01*
X58760Y-20257D01*
X58760Y-20286D01*
X58770Y-20306D01*
X58779Y-20315D01*
X58799Y-20325D01*
X58878Y-20325D01*
X58671Y-20315D02*
X58603Y-20315D01*
X58573Y-20424D02*
X58671Y-20424D01*
X58671Y-20217D01*
X58573Y-20217D01*
X58495Y-20414D02*
X58465Y-20424D01*
X58416Y-20424D01*
X58396Y-20414D01*
X58386Y-20404D01*
X58377Y-20384D01*
X58377Y-20365D01*
X58386Y-20345D01*
X58396Y-20335D01*
X58416Y-20325D01*
X58455Y-20315D01*
X58475Y-20306D01*
X58485Y-20296D01*
X58495Y-20276D01*
X58495Y-20257D01*
X58485Y-20237D01*
X58475Y-20227D01*
X58455Y-20217D01*
X58406Y-20217D01*
X58377Y-20227D01*
X58337Y-20443D02*
X58180Y-20443D01*
X58131Y-20315D02*
X58062Y-20315D01*
X58033Y-20424D02*
X58131Y-20424D01*
X58131Y-20217D01*
X58033Y-20217D01*
X57964Y-20217D02*
X57827Y-20424D01*
X57827Y-20217D02*
X57964Y-20424D01*
X57748Y-20424D02*
X57748Y-20217D01*
X57669Y-20217D01*
X57650Y-20227D01*
X57640Y-20237D01*
X57630Y-20257D01*
X57630Y-20286D01*
X57640Y-20306D01*
X57650Y-20315D01*
X57669Y-20325D01*
X57748Y-20325D01*
X57551Y-20286D02*
X57404Y-20286D01*
X57493Y-20198D02*
X57551Y-20463D01*
X57424Y-20374D02*
X57571Y-20374D01*
X57483Y-20463D02*
X57424Y-20198D01*
X57227Y-20424D02*
X57345Y-20424D01*
X57286Y-20424D02*
X57286Y-20217D01*
X57306Y-20247D01*
X57326Y-20266D01*
X57345Y-20276D01*
G54D22*
X63214Y-29983D02*
X63214Y-29697D01*
X63714Y-29840D02*
X63214Y-29840D01*
X63714Y-29269D02*
X63714Y-29554D01*
X63714Y-29411D02*
X63214Y-29411D01*
X63285Y-29459D01*
X63333Y-29507D01*
X63357Y-29554D01*
X57486Y-27719D02*
X57486Y-27433D01*
X57986Y-27576D02*
X57486Y-27576D01*
X57533Y-27290D02*
X57509Y-27267D01*
X57486Y-27219D01*
X57486Y-27100D01*
X57509Y-27052D01*
X57533Y-27029D01*
X57581Y-27005D01*
X57628Y-27005D01*
X57700Y-27029D01*
X57986Y-27314D01*
X57986Y-27005D01*
G54D11*
X53692Y-26750D02*
X53851Y-26750D01*
X53870Y-26759D01*
X53879Y-26768D01*
X53889Y-26787D01*
X53889Y-26825D01*
X53879Y-26843D01*
X53870Y-26853D01*
X53851Y-26862D01*
X53692Y-26862D01*
X53889Y-27059D02*
X53889Y-26946D01*
X53889Y-27003D02*
X53692Y-27003D01*
X53720Y-26984D01*
X53739Y-26965D01*
X53748Y-26946D01*
X53489Y-25648D02*
X53292Y-25648D01*
X53489Y-25761D01*
X53292Y-25761D01*
X53470Y-25967D02*
X53479Y-25957D01*
X53489Y-25929D01*
X53489Y-25911D01*
X53479Y-25882D01*
X53460Y-25864D01*
X53442Y-25854D01*
X53404Y-25845D01*
X53376Y-25845D01*
X53339Y-25854D01*
X53320Y-25864D01*
X53301Y-25882D01*
X53292Y-25911D01*
X53292Y-25929D01*
X53301Y-25957D01*
X53310Y-25967D01*
X53489Y-26051D02*
X53292Y-26051D01*
X53292Y-26126D01*
X53301Y-26145D01*
X53310Y-26154D01*
X53329Y-26164D01*
X53357Y-26164D01*
X53376Y-26154D01*
X53385Y-26145D01*
X53395Y-26126D01*
X53395Y-26051D01*
X53489Y-26351D02*
X53489Y-26239D01*
X53489Y-26295D02*
X53292Y-26295D01*
X53320Y-26276D01*
X53339Y-26257D01*
X53348Y-26239D01*
X53489Y-26539D02*
X53489Y-26426D01*
X53489Y-26482D02*
X53292Y-26482D01*
X53320Y-26464D01*
X53339Y-26445D01*
X53348Y-26426D01*
X53489Y-26726D02*
X53489Y-26614D01*
X53489Y-26670D02*
X53292Y-26670D01*
X53320Y-26651D01*
X53339Y-26632D01*
X53348Y-26614D01*
X53292Y-26792D02*
X53292Y-26923D01*
X53489Y-26839D01*
X53479Y-26989D02*
X53489Y-27017D01*
X53489Y-27064D01*
X53479Y-27082D01*
X53470Y-27092D01*
X53451Y-27101D01*
X53432Y-27101D01*
X53414Y-27092D01*
X53404Y-27082D01*
X53395Y-27064D01*
X53385Y-27026D01*
X53376Y-27007D01*
X53367Y-26998D01*
X53348Y-26989D01*
X53329Y-26989D01*
X53310Y-26998D01*
X53301Y-27007D01*
X53292Y-27026D01*
X53292Y-27073D01*
X53301Y-27101D01*
X53292Y-27157D02*
X53292Y-27270D01*
X53489Y-27214D02*
X53292Y-27214D01*
X53292Y-27317D02*
X53292Y-27438D01*
X53367Y-27373D01*
X53367Y-27401D01*
X53376Y-27420D01*
X53385Y-27429D01*
X53404Y-27438D01*
X53451Y-27438D01*
X53470Y-27429D01*
X53479Y-27420D01*
X53489Y-27401D01*
X53489Y-27345D01*
X53479Y-27326D01*
X53470Y-27317D01*
X53292Y-27504D02*
X53292Y-27626D01*
X53367Y-27560D01*
X53367Y-27588D01*
X53376Y-27607D01*
X53385Y-27617D01*
X53404Y-27626D01*
X53451Y-27626D01*
X53470Y-27617D01*
X53479Y-27607D01*
X53489Y-27588D01*
X53489Y-27532D01*
X53479Y-27513D01*
X53470Y-27504D01*
X53292Y-27682D02*
X53292Y-27795D01*
X53489Y-27738D02*
X53292Y-27738D01*
X53292Y-27842D02*
X53292Y-27963D01*
X53367Y-27898D01*
X53367Y-27926D01*
X53376Y-27945D01*
X53385Y-27954D01*
X53404Y-27963D01*
X53451Y-27963D01*
X53470Y-27954D01*
X53479Y-27945D01*
X53489Y-27926D01*
X53489Y-27870D01*
X53479Y-27851D01*
X53470Y-27842D01*
X53301Y-28151D02*
X53292Y-28132D01*
X53292Y-28104D01*
X53301Y-28076D01*
X53320Y-28057D01*
X53339Y-28048D01*
X53376Y-28038D01*
X53404Y-28038D01*
X53442Y-28048D01*
X53460Y-28057D01*
X53479Y-28076D01*
X53489Y-28104D01*
X53489Y-28123D01*
X53479Y-28151D01*
X53470Y-28160D01*
X53404Y-28160D01*
X53404Y-28123D01*
X53332Y-20755D02*
X53491Y-20755D01*
X53510Y-20764D01*
X53519Y-20774D01*
X53529Y-20793D01*
X53529Y-20830D01*
X53519Y-20849D01*
X53510Y-20858D01*
X53491Y-20868D01*
X53332Y-20868D01*
X53351Y-20952D02*
X53341Y-20961D01*
X53332Y-20980D01*
X53332Y-21027D01*
X53341Y-21046D01*
X53351Y-21055D01*
X53369Y-21064D01*
X53388Y-21064D01*
X53416Y-21055D01*
X53529Y-20943D01*
X53529Y-21064D01*
X54524Y-19236D02*
X54328Y-19236D01*
X54524Y-19349D01*
X54328Y-19349D01*
X54506Y-19555D02*
X54515Y-19546D01*
X54524Y-19517D01*
X54524Y-19499D01*
X54515Y-19471D01*
X54496Y-19452D01*
X54478Y-19443D01*
X54440Y-19433D01*
X54412Y-19433D01*
X54374Y-19443D01*
X54356Y-19452D01*
X54337Y-19471D01*
X54328Y-19499D01*
X54328Y-19517D01*
X54337Y-19546D01*
X54346Y-19555D01*
X54524Y-19639D02*
X54328Y-19639D01*
X54328Y-19714D01*
X54337Y-19733D01*
X54346Y-19742D01*
X54365Y-19752D01*
X54393Y-19752D01*
X54412Y-19742D01*
X54421Y-19733D01*
X54431Y-19714D01*
X54431Y-19639D01*
X54524Y-19939D02*
X54524Y-19827D01*
X54524Y-19883D02*
X54328Y-19883D01*
X54356Y-19864D01*
X54374Y-19846D01*
X54384Y-19827D01*
X54524Y-20127D02*
X54524Y-20014D01*
X54524Y-20071D02*
X54328Y-20071D01*
X54356Y-20052D01*
X54374Y-20033D01*
X54384Y-20014D01*
X54524Y-20314D02*
X54524Y-20202D01*
X54524Y-20258D02*
X54328Y-20258D01*
X54356Y-20239D01*
X54374Y-20221D01*
X54384Y-20202D01*
X54328Y-20380D02*
X54328Y-20511D01*
X54524Y-20427D01*
X54515Y-20577D02*
X54524Y-20605D01*
X54524Y-20652D01*
X54515Y-20670D01*
X54506Y-20680D01*
X54487Y-20689D01*
X54468Y-20689D01*
X54449Y-20680D01*
X54440Y-20670D01*
X54431Y-20652D01*
X54421Y-20614D01*
X54412Y-20595D01*
X54403Y-20586D01*
X54384Y-20577D01*
X54365Y-20577D01*
X54346Y-20586D01*
X54337Y-20595D01*
X54328Y-20614D01*
X54328Y-20661D01*
X54337Y-20689D01*
X54328Y-20745D02*
X54328Y-20858D01*
X54524Y-20802D02*
X54328Y-20802D01*
X54328Y-20905D02*
X54328Y-21027D01*
X54403Y-20961D01*
X54403Y-20989D01*
X54412Y-21008D01*
X54421Y-21017D01*
X54440Y-21027D01*
X54487Y-21027D01*
X54506Y-21017D01*
X54515Y-21008D01*
X54524Y-20989D01*
X54524Y-20933D01*
X54515Y-20914D01*
X54506Y-20905D01*
X54328Y-21092D02*
X54328Y-21214D01*
X54403Y-21149D01*
X54403Y-21177D01*
X54412Y-21195D01*
X54421Y-21205D01*
X54440Y-21214D01*
X54487Y-21214D01*
X54506Y-21205D01*
X54515Y-21195D01*
X54524Y-21177D01*
X54524Y-21120D01*
X54515Y-21102D01*
X54506Y-21092D01*
X54328Y-21270D02*
X54328Y-21383D01*
X54524Y-21327D02*
X54328Y-21327D01*
X54328Y-21430D02*
X54328Y-21552D01*
X54403Y-21486D01*
X54403Y-21514D01*
X54412Y-21533D01*
X54421Y-21542D01*
X54440Y-21552D01*
X54487Y-21552D01*
X54506Y-21542D01*
X54515Y-21533D01*
X54524Y-21514D01*
X54524Y-21458D01*
X54515Y-21439D01*
X54506Y-21430D01*
X54337Y-21739D02*
X54328Y-21720D01*
X54328Y-21692D01*
X54337Y-21664D01*
X54356Y-21645D01*
X54374Y-21636D01*
X54412Y-21627D01*
X54440Y-21627D01*
X54478Y-21636D01*
X54496Y-21645D01*
X54515Y-21664D01*
X54524Y-21692D01*
X54524Y-21711D01*
X54515Y-21739D01*
X54506Y-21748D01*
X54440Y-21748D01*
X54440Y-21711D01*
X53332Y-23787D02*
X53491Y-23787D01*
X53510Y-23796D01*
X53519Y-23805D01*
X53529Y-23824D01*
X53529Y-23862D01*
X53519Y-23880D01*
X53510Y-23890D01*
X53491Y-23899D01*
X53332Y-23899D01*
X53332Y-24086D02*
X53332Y-23993D01*
X53426Y-23983D01*
X53416Y-23993D01*
X53407Y-24011D01*
X53407Y-24058D01*
X53416Y-24077D01*
X53426Y-24086D01*
X53444Y-24096D01*
X53491Y-24096D01*
X53510Y-24086D01*
X53519Y-24077D01*
X53529Y-24058D01*
X53529Y-24011D01*
X53519Y-23993D01*
X53510Y-23983D01*
X54129Y-22685D02*
X53932Y-22685D01*
X54129Y-22798D01*
X53932Y-22798D01*
X54110Y-23004D02*
X54119Y-22994D01*
X54129Y-22966D01*
X54129Y-22948D01*
X54119Y-22919D01*
X54101Y-22901D01*
X54082Y-22891D01*
X54044Y-22882D01*
X54016Y-22882D01*
X53979Y-22891D01*
X53960Y-22901D01*
X53941Y-22919D01*
X53932Y-22948D01*
X53932Y-22966D01*
X53941Y-22994D01*
X53951Y-23004D01*
X54129Y-23088D02*
X53932Y-23088D01*
X53932Y-23163D01*
X53941Y-23182D01*
X53951Y-23191D01*
X53969Y-23201D01*
X53997Y-23201D01*
X54016Y-23191D01*
X54026Y-23182D01*
X54035Y-23163D01*
X54035Y-23088D01*
X54129Y-23388D02*
X54129Y-23276D01*
X54129Y-23332D02*
X53932Y-23332D01*
X53960Y-23313D01*
X53979Y-23294D01*
X53988Y-23276D01*
X54129Y-23576D02*
X54129Y-23463D01*
X54129Y-23519D02*
X53932Y-23519D01*
X53960Y-23501D01*
X53979Y-23482D01*
X53988Y-23463D01*
X54129Y-23763D02*
X54129Y-23651D01*
X54129Y-23707D02*
X53932Y-23707D01*
X53960Y-23688D01*
X53979Y-23669D01*
X53988Y-23651D01*
X53932Y-23829D02*
X53932Y-23960D01*
X54129Y-23876D01*
X54119Y-24026D02*
X54129Y-24054D01*
X54129Y-24101D01*
X54119Y-24119D01*
X54110Y-24129D01*
X54091Y-24138D01*
X54072Y-24138D01*
X54054Y-24129D01*
X54044Y-24119D01*
X54035Y-24101D01*
X54026Y-24063D01*
X54016Y-24044D01*
X54007Y-24035D01*
X53988Y-24026D01*
X53969Y-24026D01*
X53951Y-24035D01*
X53941Y-24044D01*
X53932Y-24063D01*
X53932Y-24110D01*
X53941Y-24138D01*
X53932Y-24194D02*
X53932Y-24307D01*
X54129Y-24251D02*
X53932Y-24251D01*
X53932Y-24354D02*
X53932Y-24476D01*
X54007Y-24410D01*
X54007Y-24438D01*
X54016Y-24457D01*
X54026Y-24466D01*
X54044Y-24476D01*
X54091Y-24476D01*
X54110Y-24466D01*
X54119Y-24457D01*
X54129Y-24438D01*
X54129Y-24382D01*
X54119Y-24363D01*
X54110Y-24354D01*
X53932Y-24541D02*
X53932Y-24663D01*
X54007Y-24597D01*
X54007Y-24625D01*
X54016Y-24644D01*
X54026Y-24654D01*
X54044Y-24663D01*
X54091Y-24663D01*
X54110Y-24654D01*
X54119Y-24644D01*
X54129Y-24625D01*
X54129Y-24569D01*
X54119Y-24550D01*
X54110Y-24541D01*
X53932Y-24719D02*
X53932Y-24832D01*
X54129Y-24775D02*
X53932Y-24775D01*
X53932Y-24879D02*
X53932Y-25000D01*
X54007Y-24935D01*
X54007Y-24963D01*
X54016Y-24982D01*
X54026Y-24991D01*
X54044Y-25000D01*
X54091Y-25000D01*
X54110Y-24991D01*
X54119Y-24982D01*
X54129Y-24963D01*
X54129Y-24907D01*
X54119Y-24888D01*
X54110Y-24879D01*
X53941Y-25188D02*
X53932Y-25169D01*
X53932Y-25141D01*
X53941Y-25113D01*
X53960Y-25094D01*
X53979Y-25085D01*
X54016Y-25075D01*
X54044Y-25075D01*
X54082Y-25085D01*
X54101Y-25094D01*
X54119Y-25113D01*
X54129Y-25141D01*
X54129Y-25160D01*
X54119Y-25188D01*
X54110Y-25197D01*
X54044Y-25197D01*
X54044Y-25160D01*
G54D23*
X60858Y-16306D02*
X61101Y-16306D01*
X61130Y-16321D01*
X61144Y-16335D01*
X61158Y-16364D01*
X61158Y-16421D01*
X61144Y-16449D01*
X61130Y-16464D01*
X61101Y-16478D01*
X60858Y-16478D01*
X60858Y-16749D02*
X60858Y-16692D01*
X60873Y-16664D01*
X60887Y-16649D01*
X60930Y-16621D01*
X60987Y-16606D01*
X61101Y-16606D01*
X61130Y-16621D01*
X61144Y-16635D01*
X61158Y-16664D01*
X61158Y-16721D01*
X61144Y-16749D01*
X61130Y-16764D01*
X61101Y-16778D01*
X61030Y-16778D01*
X61001Y-16764D01*
X60987Y-16749D01*
X60973Y-16721D01*
X60973Y-16664D01*
X60987Y-16635D01*
X61001Y-16621D01*
X61030Y-16606D01*
X61569Y-16446D02*
X61560Y-16436D01*
X61541Y-16427D01*
X61494Y-16427D01*
X61476Y-16436D01*
X61466Y-16446D01*
X61457Y-16465D01*
X61457Y-16483D01*
X61466Y-16511D01*
X61579Y-16624D01*
X61457Y-16624D01*
X61279Y-16427D02*
X61372Y-16427D01*
X61382Y-16521D01*
X61372Y-16511D01*
X61354Y-16502D01*
X61307Y-16502D01*
X61288Y-16511D01*
X61279Y-16521D01*
X61269Y-16540D01*
X61269Y-16587D01*
X61279Y-16605D01*
X61288Y-16615D01*
X61307Y-16624D01*
X61354Y-16624D01*
X61372Y-16615D01*
X61382Y-16605D01*
X61194Y-16568D02*
X61100Y-16568D01*
X61213Y-16624D02*
X61147Y-16427D01*
X61082Y-16624D01*
X61025Y-16568D02*
X60931Y-16568D01*
X61044Y-16624D02*
X60978Y-16427D01*
X60913Y-16624D01*
X60810Y-16427D02*
X60791Y-16427D01*
X60772Y-16436D01*
X60763Y-16446D01*
X60753Y-16465D01*
X60744Y-16502D01*
X60744Y-16549D01*
X60753Y-16587D01*
X60763Y-16605D01*
X60772Y-16615D01*
X60791Y-16624D01*
X60810Y-16624D01*
X60828Y-16615D01*
X60838Y-16605D01*
X60847Y-16587D01*
X60856Y-16549D01*
X60856Y-16502D01*
X60847Y-16465D01*
X60838Y-16446D01*
X60828Y-16436D01*
X60810Y-16427D01*
X60669Y-16446D02*
X60659Y-16436D01*
X60641Y-16427D01*
X60594Y-16427D01*
X60575Y-16436D01*
X60566Y-16446D01*
X60556Y-16465D01*
X60556Y-16483D01*
X60566Y-16511D01*
X60678Y-16624D01*
X60556Y-16624D01*
X60472Y-16521D02*
X60406Y-16521D01*
X60378Y-16624D02*
X60472Y-16624D01*
X60472Y-16427D01*
X60378Y-16427D01*
X60209Y-16493D02*
X60209Y-16624D01*
X60256Y-16418D02*
X60303Y-16558D01*
X60181Y-16558D01*
X60078Y-16511D02*
X60097Y-16502D01*
X60106Y-16493D01*
X60115Y-16474D01*
X60115Y-16465D01*
X60106Y-16446D01*
X60097Y-16436D01*
X60078Y-16427D01*
X60040Y-16427D01*
X60022Y-16436D01*
X60012Y-16446D01*
X60003Y-16465D01*
X60003Y-16474D01*
X60012Y-16493D01*
X60022Y-16502D01*
X60040Y-16511D01*
X60078Y-16511D01*
X60097Y-16521D01*
X60106Y-16530D01*
X60115Y-16549D01*
X60115Y-16587D01*
X60106Y-16605D01*
X60097Y-16615D01*
X60078Y-16624D01*
X60040Y-16624D01*
X60022Y-16615D01*
X60012Y-16605D01*
X60003Y-16587D01*
X60003Y-16549D01*
X60012Y-16530D01*
X60022Y-16521D01*
X60040Y-16511D01*
X59946Y-16427D02*
X59834Y-16427D01*
X59890Y-16624D02*
X59890Y-16427D01*
X59768Y-16549D02*
X59618Y-16549D01*
X59524Y-16624D02*
X59524Y-16427D01*
X59290Y-16418D02*
X59459Y-16671D01*
X59187Y-16427D02*
X59149Y-16427D01*
X59130Y-16436D01*
X59112Y-16455D01*
X59102Y-16493D01*
X59102Y-16558D01*
X59112Y-16596D01*
X59130Y-16615D01*
X59149Y-16624D01*
X59187Y-16624D01*
X59205Y-16615D01*
X59224Y-16596D01*
X59234Y-16558D01*
X59234Y-16493D01*
X59224Y-16455D01*
X59205Y-16436D01*
X59187Y-16427D01*
X59046Y-16427D02*
X58933Y-16427D01*
X58990Y-16624D02*
X58990Y-16427D01*
M02*
